<svg xmlns="http://www.w3.org/2000/svg" viewBox="0 0 24 24">
  <path fill-rule="evenodd" clip-rule="evenodd" d="M8.87026 3C8.62228 3 8.39252 3.12785 8.26497 3.3368L6.35294 6.46856H1.41176C0.632047 6.46856 0 7.08971 0 7.85598V19.6491C0 20.4154 0.632047 21.0365 1.41176 21.0365H22.5882C23.368 21.0365 24 20.4154 24 19.6491V7.85598C24 7.08971 23.368 6.46856 22.5882 6.46856H17.6471L15.735 3.3368C15.6075 3.12785 15.3777 3 15.1297 3H8.87026ZM12 18.0882C14.8264 18.0882 17.1176 15.8365 17.1176 13.0588C17.1176 10.2811 14.8264 8.02941 12 8.02941C9.17358 8.02941 6.88235 10.2811 6.88235 13.0588C6.88235 15.8365 9.17358 18.0882 12 18.0882ZM15.2647 13.0588C15.2647 14.8308 13.803 16.2672 12 16.2672C10.197 16.2672 8.73529 14.8308 8.73529 13.0588C8.73529 11.2869 10.197 9.85041 12 9.85041C13.803 9.85041 15.2647 11.2869 15.2647 13.0588Z" />
</svg>
