<svg xmlns="http://www.w3.org/2000/svg" viewBox="0 0 20 20">
  <path d="M9.45999 4.3051L3.33133 9.41437C3.05133 9.65433 2.86418 9.93144 2.86418 10.3V19.1644C2.86418 19.6243 3.34276 19.9986 3.80134 19.9986H6.66424C7.12139 19.9986 7.49853 19.6243 7.49853 19.1644L7.45139 14.715C7.45139 14.4865 7.63711 14.3008 7.86568 14.3008H12.0343C12.2629 14.3008 12.4515 14.4865 12.4515 14.715L12.4986 19.1658C12.4986 19.6258 12.8743 20 13.3329 20H16.3187C16.7787 20 17.1544 19.6258 17.1544 19.1658V10.6842C17.1544 10.3171 16.9087 9.79003 16.6258 9.55292L10.5357 4.3051C10.2243 4.04228 9.77 4.04228 9.45856 4.3051H9.45999ZM19.703 7.69604L11.1786 0.488502C10.8643 0.174261 10.4443 0 9.99857 0C9.55285 0 9.13284 0.175689 8.86998 0.442794L0.294146 7.69604C-0.0558591 7.99314 -0.100145 8.51878 0.197002 8.87016C0.36129 9.06442 0.597008 9.1644 0.834154 9.1644C1.02416 9.1644 1.21416 9.10156 1.37131 8.96872L9.49999 2.04542C9.79714 1.82402 10.2 1.82117 10.4957 2.04257C12.3329 3.41665 18.6287 8.97015 18.6287 8.97015C18.9801 9.26439 19.5059 9.22297 19.803 8.87016C20.1001 8.51878 20.0559 7.99314 19.7059 7.69604H19.703Z"/>
</svg>
