<svg xmlns="http://www.w3.org/2000/svg" viewBox="0 0 20 20">
  <path fill-rule="evenodd" clip-rule="evenodd" d="M7.26663 2.68798L11.9224 0L13.7349 3.13934L9.07913 5.82734L7.26663 2.68798ZM0 3.26434H3.29637L8.99998 13.1873C8.72478 13.1152 8.43593 13.0768 8.13811 13.0768C6.26552 13.0768 4.74748 14.5948 4.74748 16.4674C4.74748 18.34 6.26552 19.8581 8.13811 19.8581C9.69682 19.8581 11.0099 18.8063 11.4063 17.3737L11.9142 18.2575L19.6887 13.7546L18.6863 12.024L12.6483 15.5211L4.45363 1.26435H0V3.26434ZM9.52873 16.4674C9.52873 17.2354 8.90613 17.8581 8.13811 17.8581C7.37009 17.8581 6.74748 17.2354 6.74748 16.4674C6.74748 15.6994 7.37009 15.0768 8.13811 15.0768C8.90613 15.0768 9.52873 15.6994 9.52873 16.4674ZM16.2283 3.13934L9.51663 7.01435L13.2883 13.547L20 9.67208L16.2283 3.13934Z"/>
</svg>
