<svg xmlns="http://www.w3.org/2000/svg" viewBox="0 0 18 18"><path d="M17.78 3.09C17.45 2.443 16.778 2 16 2h-5.165c-.535 0-1.046.214-1.422.593l-6.82 6.89c0 .002 0 .003-.002.003-.244.253-.412.554-.5.874L.74 8.055c-.56-.953-.24-2.178.712-2.737L9.823.425c.46-.27 1.01-.345 1.527-.205l4.99 1.337c.755.203 1.293.814 1.44 1.533z" fill-opacity=".55"></path><path d="M10.835 2H16c1.105 0 2 .895 2 2v5.172c0 .53-.21 1.04-.586 1.414l-6.818 6.818c-.777.778-2.036.782-2.82.01l-5.166-5.1c-.786-.775-.794-2.04-.02-2.828.002 0 .003 0 .003-.002l6.82-6.89C9.79 2.214 10.3 2 10.835 2zM13.5 8c.828 0 1.5-.672 1.5-1.5S14.328 5 13.5 5 12 5.672 12 6.5 12.672 8 13.5 8z"></path></svg>
