<svg viewBox="0 0 16 16" xmlns="http://www.w3.org/2000/svg">
    <path d="M14.5525 0.110733C14.6925 0.0392847 14.8473 0.00161134 15.0045 0.000732422C15.1748 0.00218824 15.3419 0.0461804 15.4902 0.13C15.6385 0.213819 15.7629 0.33396 15.852 0.479123C15.941 0.624285 15.9916 0.789696 15.999 0.959798C16.0065 1.1299 15.9705 1.2991 15.8945 1.45148L8.89445 15.4465C8.81474 15.6135 8.68909 15.7543 8.5322 15.8524C8.37531 15.9506 8.1937 16.002 8.00862 16.0007C7.76273 16.005 7.52407 15.9176 7.33913 15.7556C7.15419 15.5935 7.03624 15.3685 7.00825 15.1242L6.42353 10.4477C6.39594 10.2271 6.29555 10.0219 6.13825 9.86465C5.98095 9.70741 5.7757 9.60706 5.55496 9.57948L0.87622 8.99498C0.663172 8.96835 0.464349 8.8739 0.309141 8.72559C0.153933 8.57729 0.0505754 8.383 0.0143457 8.17145C-0.021884 7.9599 0.0109368 7.74231 0.107957 7.55084C0.204977 7.35938 0.361048 7.20419 0.5531 7.10823L14.5525 0.110733Z" />
</svg>
