<svg xmlns="http://www.w3.org/2000/svg" viewBox="0 0 18 18">
  <g fill-rule="evenodd">
    <path d="M12.915 5c.055-.156.085-.325.085-.5 0-.828-.672-1.5-1.5-1.5S10 3.672 10 4.5V11h6v2h-6v5H8v-5H2v-2h6V4.5C8 3.672 7.328 3 6.5 3S5 3.672 5 4.5c0 .175.03.344.085.5h-2.05C3.012 4.837 3 4.67 3 4.5 3 2.567 4.567 1 6.5 1c.98 0 1.865.402 2.5 1.05C9.635 1.403 10.52 1 11.5 1 13.433 1 15 2.567 15 4.5c0 .17-.012.337-.035.5h-2.05z" fill-opacity=".55" fill-rule="nonzero"></path><path d="M16 13v2c0 1.657-1.343 3-3 3h-3v-5h6zm0-2h-6V5h6c1.105 0 2 .895 2 2s-.895 2-2 2v2zM2 13h6v5H5c-1.657 0-3-1.343-3-3v-2zm0-2V9C.895 9 0 8.105 0 7s.895-2 2-2h6v6H2z"></path>
  </g>
</svg>