<svg viewBox="0 0 20 20" xmlns="http://www.w3.org/2000/svg">
<path fill-rule="evenodd" clip-rule="evenodd" d="M7.5 6.25H17.5C17.8315 6.25 18.1495 6.1183 18.3839 5.88388C18.6183 5.64946 18.75 5.33152 18.75 5C18.75 4.66848 18.6183 4.35054 18.3839 4.11612C18.1495 3.8817 17.8315 3.75 17.5 3.75H7.5C7.16848 3.75 6.85054 3.8817 6.61612 4.11612C6.3817 4.35054 6.25 4.66848 6.25 5C6.25 5.33152 6.3817 5.64946 6.61612 5.88388C6.85054 6.1183 7.16848 6.25 7.5 6.25ZM2.5 6.25C2.83152 6.25 3.14946 6.1183 3.38388 5.88388C3.6183 5.64946 3.75 5.33152 3.75 5C3.75 4.66848 3.6183 4.35054 3.38388 4.11612C3.14946 3.8817 2.83152 3.75 2.5 3.75C2.16848 3.75 1.85054 3.8817 1.61612 4.11612C1.3817 4.35054 1.25 4.66848 1.25 5C1.25 5.33152 1.3817 5.64946 1.61612 5.88388C1.85054 6.1183 2.16848 6.25 2.5 6.25ZM7.5 11.25H17.5C17.8315 11.25 18.1495 11.1183 18.3839 10.8839C18.6183 10.6495 18.75 10.3315 18.75 10C18.75 9.66848 18.6183 9.35054 18.3839 9.11612C18.1495 8.8817 17.8315 8.75 17.5 8.75H7.5C7.16848 8.75 6.85054 8.8817 6.61612 9.11612C6.3817 9.35054 6.25 9.66848 6.25 10C6.25 10.3315 6.3817 10.6495 6.61612 10.8839C6.85054 11.1183 7.16848 11.25 7.5 11.25ZM2.5 11.25C2.83152 11.25 3.14946 11.1183 3.38388 10.8839C3.6183 10.6495 3.75 10.3315 3.75 10C3.75 9.66848 3.6183 9.35054 3.38388 9.11612C3.14946 8.8817 2.83152 8.75 2.5 8.75C2.16848 8.75 1.85054 8.8817 1.61612 9.11612C1.3817 9.35054 1.25 9.66848 1.25 10C1.25 10.3315 1.3817 10.6495 1.61612 10.8839C1.85054 11.1183 2.16848 11.25 2.5 11.25ZM7.5 16.25H17.5C17.8315 16.25 18.1495 16.1183 18.3839 15.8839C18.6183 15.6495 18.75 15.3315 18.75 15C18.75 14.6685 18.6183 14.3505 18.3839 14.1161C18.1495 13.8817 17.8315 13.75 17.5 13.75H7.5C7.16848 13.75 6.85054 13.8817 6.61612 14.1161C6.3817 14.3505 6.25 14.6685 6.25 15C6.25 15.3315 6.3817 15.6495 6.61612 15.8839C6.85054 16.1183 7.16848 16.25 7.5 16.25ZM2.5 16.25C2.83152 16.25 3.14946 16.1183 3.38388 15.8839C3.6183 15.6495 3.75 15.3315 3.75 15C3.75 14.6685 3.6183 14.3505 3.38388 14.1161C3.14946 13.8817 2.83152 13.75 2.5 13.75C2.16848 13.75 1.85054 13.8817 1.61612 14.1161C1.3817 14.3505 1.25 14.6685 1.25 15C1.25 15.3315 1.3817 15.6495 1.61612 15.8839C1.85054 16.1183 2.16848 16.25 2.5 16.25Z"/>
</svg>
