<svg xmlns="http://www.w3.org/2000/svg" viewBox="0 0 20 20">
<path d="M17.3716 1.12375C17.5291 1.04337 17.7032 1.00099 17.88 1C18.0716 1.00164 18.2597 1.05113 18.4265 1.14542C18.5933 1.23972 18.7333 1.37488 18.8335 1.53818C18.9336 1.70149 18.9905 1.88758 18.9989 2.07894C19.0073 2.2703 18.9668 2.46065 18.8814 2.63208L11.0063 18.3763C10.9166 18.5642 10.7752 18.7226 10.5987 18.833C10.4222 18.9434 10.2179 19.0013 10.0097 18.9998C9.73308 19.0046 9.46458 18.9063 9.25652 18.724C9.04847 18.5417 8.91577 18.2885 8.88428 18.0138L8.22647 12.7528C8.19543 12.5045 8.0825 12.2737 7.90553 12.0968C7.72857 11.9199 7.49766 11.807 7.24933 11.776L1.98575 11.1184C1.74607 11.0885 1.52239 10.9822 1.34778 10.8154C1.17317 10.6485 1.0569 10.43 1.01614 10.192C0.97538 9.95398 1.0123 9.70919 1.12145 9.4938C1.2306 9.2784 1.40618 9.10382 1.62224 8.99586L17.3716 1.12375Z" />
</svg>
