<svg viewBox="0 0 20 20" xmlns="http://www.w3.org/2000/svg">
<path fill-rule="evenodd" clip-rule="evenodd" d="M15 4.38569L17.5 5.45312V15.0937L15 14.0595V4.38569ZM12.5 4.38119L8.75002 5.93802V15.6188L12.5 14.0599V4.38119ZM6.25002 5.9726V15.7593L2.50003 14.48V4.75531L6.25002 5.9726ZM13.7713 1.25C13.6122 1.24993 13.4546 1.28026 13.3069 1.33937L7.50003 3.75L1.67721 1.86C1.4884 1.79057 1.2856 1.76786 1.08611 1.7938C0.886616 1.81974 0.696364 1.89357 0.531589 2.00897C0.366814 2.12438 0.232409 2.27794 0.139847 2.45655C0.0472843 2.63516 -0.000687706 2.83352 2.57151e-05 3.03469V15.375C3.62094e-05 15.6316 0.0790022 15.8819 0.226203 16.0921C0.373404 16.3022 0.581709 16.462 0.822838 16.5497L7.05159 18.6747C7.3404 18.7798 7.6578 18.7747 7.94315 18.6606L13.75 16.25L18.3228 18.14C18.5117 18.2094 18.7145 18.2321 18.9139 18.2062C19.1134 18.1803 19.3037 18.1064 19.4685 17.991C19.6332 17.8756 19.7676 17.7221 19.8602 17.5434C19.9528 17.3648 20.0007 17.1665 20 16.9653V4.625C20 4.36842 19.921 4.11806 19.7738 3.90791C19.6266 3.69776 19.4183 3.538 19.1772 3.45031L14.1985 1.32531C14.0616 1.27547 13.917 1.24998 13.7713 1.25Z"/>
</svg>
