<svg xmlns="http://www.w3.org/2000/svg" viewBox="0 0 21 21">
<path fill-rule="evenodd" clip-rule="evenodd" d="M10.1502 4.87467C8.24791 4.87467 6.70578 6.4168 6.70578 8.31912C6.70578 10.2214 8.24791 11.7636 10.1502 11.7636C12.0525 11.7636 13.5947 10.2214 13.5947 8.31912C13.5947 6.4168 12.0525 4.87467 10.1502 4.87467ZM8.70578 8.31912C8.70578 7.52137 9.35248 6.87467 10.1502 6.87467C10.948 6.87467 11.5947 7.52137 11.5947 8.31912C11.5947 9.11686 10.948 9.76356 10.1502 9.76356C9.35248 9.76356 8.70578 9.11686 8.70578 8.31912Z"/>
<path fill-rule="evenodd" clip-rule="evenodd" d="M9.4822 20.2525C9.85375 20.6385 10.4469 20.6385 10.8185 20.2525C12.7037 18.294 17.9281 12.5294 17.9281 8.79432C17.9281 4.23788 14.4454 0.541992 10.1503 0.541992C5.85527 0.541992 2.37256 4.23699 2.37256 8.79432C2.37256 12.5287 7.59705 18.2938 9.4822 20.2525ZM15.9411 8.79432C15.9411 9.28253 15.7573 10.0182 15.2952 10.9938C14.8469 11.9403 14.209 12.9631 13.4791 13.9823C12.3566 15.5498 11.0908 17.0065 10.1504 18.0276C9.20999 17.0065 7.9442 15.5496 6.82161 13.982C6.09169 12.9628 5.45376 11.94 5.00541 10.9934C4.5433 10.0178 4.35953 9.2823 4.35953 8.79432C4.35953 5.2982 7.01476 2.58082 10.1503 2.58082C13.2858 2.58082 15.9411 5.29894 15.9411 8.79432Z"/>
</svg>
