<svg viewBox="0 0 20 16" xmlns="http://www.w3.org/2000/svg"><path d="M6.827 7.765h-1.82c0-2.725 2.246-4.94 5.006-4.94 1.093 0 2.134.345 2.983.975.153.112.362.1.488-.04l1.425-1.592c.13-.15.116-.387-.04-.512C13.5.584 11.8 0 10.01 0 5.67 0 2.143 3.48 2.143 7.765H.325c-.272 0-.423.286-.253.478l3.25 3.646c.13.145.378.145.508 0l3.25-3.65c.17-.192.02-.478-.253-.478zm13.1-.008l-3.25-3.646c-.13-.145-.377-.145-.507 0l-3.25 3.65c-.17.192-.02.478.253.478h1.82c0 2.725-2.246 4.94-5.006 4.94-1.093 0-2.134-.345-2.983-.975-.153-.11-.362-.1-.488.04l-1.426 1.59c-.133.15-.118.387.04.512C6.5 15.415 8.198 16 9.988 16c4.34 0 7.867-3.48 7.867-7.765h1.82c.273 0 .424-.286.254-.478z" fill-rule="evenodd"/></svg>
