<svg xmlns="http://www.w3.org/2000/svg" viewBox="0 0 20 20">
  <path d="M5.15625 17.75C6.67503 17.75 7.90625 16.5188 7.90625 15 7.90625 13.4812 6.67503 12.25 5.15625 12.25 3.63747 12.25 2.40625 13.4812 2.40625 15 2.40625 16.5188 3.63747 17.75 5.15625 17.75zM15.125 17.75C16.6438 17.75 17.875 16.5188 17.875 15 17.875 13.4812 16.6438 12.25 15.125 12.25 13.6062 12.25 12.375 13.4812 12.375 15 12.375 16.5188 13.6062 17.75 15.125 17.75z"/>
  <path fill-rule="evenodd" clip-rule="evenodd" d="M0 14V3C0 2.44772 0.447715 2 1 2H8.7561C9.30838 2 9.7561 2.44772 9.7561 3V4.46875H9.76562V15H8.97919C8.98263 14.9342 8.98438 14.8679 8.98438 14.8012C8.98438 12.7301 7.30544 11.0512 5.23438 11.0512C3.16331 11.0512 1.48438 12.7301 1.48438 14.8012C1.48438 14.8679 1.48612 14.9342 1.48956 15H1C0.447715 15 0 14.5523 0 14ZM10.6562 15H11.3646C11.3611 14.9342 11.3594 14.8679 11.3594 14.8012C11.3594 12.7301 13.0383 11.0512 15.1094 11.0512C17.1804 11.0512 18.8594 12.7301 18.8594 14.8012C18.8594 14.8679 18.8576 14.9342 18.8542 15H19C19.5523 15 20 14.5523 20 14V10.1472C20 9.9494 19.9413 9.75595 19.8313 9.59145L16.7035 4.91296C16.5179 4.63539 16.2061 4.46875 15.8722 4.46875H10.6562V15Z"/>
</svg>
