<svg xmlns="http://www.w3.org/2000/svg" viewBox="0 0 21 21">
<path fill-rule="evenodd" clip-rule="evenodd" d="M3.22128 2.04382C3.28937 1.90842 3.38718 1.79559 3.5039 1.71178C3.65412 1.60324 3.83622 1.54199 4.02752 1.54199H16.4679C16.8062 1.54199 17.1158 1.73327 17.2714 2.03737L19.0487 5.51577C19.0865 5.58884 19.1141 5.66729 19.1309 5.74788C19.1444 5.81236 19.1508 5.8779 19.1503 5.94453C19.1476 6.47107 19.1055 6.97182 19.0136 7.43604C18.8834 8.0969 18.6515 8.68362 18.2906 9.16611C18.0269 9.51749 17.7129 9.78936 17.3595 9.98923V18.3999C17.3595 18.9082 16.9542 19.3198 16.4544 19.3198H4.02806C3.52821 19.3198 3.12294 18.9082 3.12294 18.3999V9.99246C2.76413 9.79258 2.44693 9.51857 2.18269 9.16181C1.56775 8.33224 1.35052 7.19963 1.3743 5.92196C1.377 5.78227 1.41104 5.6458 1.47319 5.52115L3.22128 2.04382ZM4.93317 10.418V17.4812H6.92768V13.1399C6.92768 12.6316 7.33296 12.22 7.8328 12.22L8.14081 12.2211H12.38L12.6583 12.22C13.1581 12.22 13.5634 12.6316 13.5634 13.1399V17.4812H15.5493V10.418C14.475 10.4115 13.5386 10.0365 12.8912 9.20264C12.2471 10.0408 11.3139 10.418 10.2407 10.418C9.17724 10.418 8.25159 10.0483 7.60692 9.22736C7.5075 9.35416 7.40104 9.46914 7.28811 9.57444C7.08547 9.7625 6.8623 9.91831 6.62237 10.0419C6.12307 10.2976 5.54974 10.4158 4.93317 10.418ZM8.92056 14.2016H11.5657V17.4812H8.92056V14.2016ZM8.56446 6.85899C8.6547 7.41992 8.81411 7.80247 9.00108 8.05285C9.06592 8.13989 9.13995 8.21833 9.22641 8.2871C9.34367 8.38059 9.48363 8.45366 9.65331 8.50417C9.81812 8.55252 10.0116 8.57939 10.2407 8.57939C10.5746 8.57939 10.8324 8.52351 11.0361 8.42357C11.222 8.33331 11.3636 8.20651 11.4771 8.05392C11.6629 7.80462 11.8213 7.421 11.9099 6.85899H8.56446ZM14.3005 8.04855C14.113 7.80032 13.953 7.41885 13.8655 6.85899H17.2763C17.2428 7.08358 17.1979 7.27915 17.1439 7.44893C17.0629 7.70468 16.9613 7.90241 16.8499 8.05177C16.784 8.13989 16.7078 8.21941 16.6181 8.28818C16.5252 8.36017 16.4177 8.42143 16.2917 8.46871C16.1015 8.53963 15.8686 8.57939 15.5795 8.57939C15.1834 8.57939 14.8911 8.50417 14.6679 8.37629C14.5172 8.28925 14.3983 8.1775 14.3005 8.04855ZM15.9184 3.38059L16.8662 4.87962H3.63196L4.58193 3.38059H15.9184ZM3.37421 7.54672C3.3099 7.35545 3.25857 7.12764 3.22561 6.85899H6.62723C6.55212 7.42529 6.39758 7.80677 6.21385 8.05177C6.13117 8.16245 6.03121 8.26024 5.90584 8.34191C5.67672 8.4902 5.36277 8.57939 4.91642 8.57939C4.22583 8.57939 3.8573 8.36447 3.62872 8.05607C3.53308 7.92712 3.44554 7.75949 3.37421 7.54672Z"/>
</svg>
