<svg xmlns="http://www.w3.org/2000/svg" viewBox="0 0 21 21">
<path fill-rule="evenodd" clip-rule="evenodd" d="M17.2307 4.91287L20.2304 9.02745C20.3226 9.18153 20.3726 9.36165 20.3726 9.54178V15.5422C20.3726 16.0945 19.9244 16.5416 19.3727 16.5416H18.1883C17.7727 17.7037 16.6746 18.5424 15.3726 18.5424C14.0705 18.5424 12.9713 17.7037 12.5584 16.5416H8.18831C7.77273 17.7037 6.67464 18.5424 5.37256 18.5424C4.07048 18.5424 2.97239 17.7037 2.55735 16.5416H1.37245C0.820692 16.5416 0.372559 16.0945 0.372559 15.5422V3.54243C0.372559 3.20063 0.544 2.89898 0.805501 2.71886C0.966634 2.6071 1.16195 2.54199 1.37245 2.54199H11.3725C11.9248 2.54199 12.3723 2.94998 12.3723 3.50228V4.42784H16.3725C16.7224 4.42784 17.0506 4.6123 17.2307 4.91287ZM15.3726 12.542C16.6746 12.542 17.7738 13.3797 18.1883 14.5418H18.3728V10.9752H12.3723V14.5418H12.5568C12.9724 13.3797 14.0705 12.542 15.3726 12.542ZM12.3723 8.97537V6.42763H16.0496L18.0315 8.97537H12.3723ZM14.3727 15.5422C14.3727 16.0923 14.8224 16.5416 15.3726 16.5416C15.9227 16.5416 16.3725 16.0923 16.3725 15.5422C16.3725 14.9921 15.9227 14.5418 15.3726 14.5418C14.8224 14.5418 14.3727 14.9921 14.3727 15.5422ZM4.37267 15.5422C4.37267 16.0923 4.82243 16.5416 5.37256 16.5416C5.92269 16.5416 6.37245 16.0923 6.37245 15.5422C6.37245 14.9921 5.92269 14.5418 5.37256 14.5418C4.82243 14.5418 4.37267 14.9921 4.37267 15.5422ZM10.3726 4.54178H2.37234V14.5418H2.5568C2.97239 13.3797 4.07048 12.542 5.37256 12.542C6.67464 12.542 7.77273 13.3797 8.18831 14.5418H10.3726V4.54178Z"/>
</svg>
