<svg xmlns="http://www.w3.org/2000/svg" viewBox="0 0 20 20">
  <path fill-rule="evenodd" clip-rule="evenodd" d="M9.16693 12.4066V6.4689H10.8336V12.4066H9.16693Z"/>
  <path d="M10.0003 16.1828C10.6907 16.1828 11.2503 15.6231 11.2503 14.9327C11.2503 14.2424 10.6907 13.6827 10.0003 13.6827C9.3099 13.6827 8.75024 14.2424 8.75024 14.9327C8.75024 15.6231 9.3099 16.1828 10.0003 16.1828Z"/>
  <path fill-rule="evenodd" clip-rule="evenodd" d="M19.3301 14.5363L12.7383 2.9885H12.7374C11.2241 0.334251 8.77483 0.340085 7.26227 2.9885L0.67041 14.5363C-0.842133 17.1897 0.291232 19.3339 3.19965 19.3339H16.8001C19.7085 19.3339 20.8418 17.1864 19.3301 14.5363ZM8.76117 4.07984C9.59977 2.61275 10.3984 2.61195 11.2369 4.07984H11.2362L17.5533 15.1465C18.4127 16.6519 18.0421 17.3547 16.5167 17.3547H3.48299C1.95761 17.3547 1.58864 16.6535 2.44477 15.1465L8.76117 4.07984Z"/>
</svg>