<svg xmlns="http://www.w3.org/2000/svg" viewBox="0 0 512 512"><g fill-rule="evenodd" stroke-width="1pt"><path d="M-85.3 0h682.6v512H-85.3z"/><path fill="#090" d="M369.8 0h227.5v512H369.8z"/><path fill="#bf0000" d="M142.2 0h227.6v512H142.2z"/></g><path d="M398.4 265.2c-.2.6 1.4 1.4 1.8 1 1.7-2 4-6 4.3-8.4 0-.7-2-1.5-2.6-1-2 2-4 6-4 8.4zM188 387.8c-1.7 6-26.4-5.5-29-11.5 14 7.5 29.4 6 29 11.5zM110 267c1 1.4 3.2.5 1.3-1.5-1.5-1.6-1-2-2-4-1-2.3-.8-3.5-2-5-1-1.5-2.5 0-1.5 1.2 1.3 1.5 1 2.6 1.7 4 1.4 2.5 1 3.7 2.4 5.3zm33 40c4 2 7 7 7.3 11 .4 4.5 1 8.3 3 11.6-3.2-1-4.8-6-5.2-11 0-5.3-3-7.5-5-11.5zm8.4 9.7c2.8 5 6.6 7 6.8 10.7.4 4.4.7 4.6 2 9-3.4-1-4.2-1.3-5-7.8-.6-4.5-4.3-7.7-3.8-12z" fill-rule="evenodd" stroke="#000" fill="#fff"/><path stroke-linejoin="round" d="M215.7 344c4.2 3.4 7 7.3 8.2 12.4 1 4.8 3 8.5 5 12.8-5-3-7-7.2-9-12.2-1-5-3-8.5-6-13zm78.7 0c-4.3 3.4-7 7.4-8.4 12.5-1.3 4.8-3.2 8.6-6 12.8 4.5-3 7.4-7.2 8.8-12.2 1.3-4 2.8-8 5.6-13zm-5.3 0c-4 3.6-8 7.7-10 12.8-1 4.8-2 8.4-5 13.2 5-3 7-7.7 8-12.7 2-5 4-8.7 8-13.4zm-52 19.6c2 3 4 7.4 7 6.6 0-2.3-3-3.8-6-6.6zm5 1c7 2.6 12 2 13 6-5 .5-8-2-12-6zm31-.6c-1 2.8-3 7-6 6.2 0-2 4-3.6 7-6.2zm-4 1c-6 2.3-11 1.7-12 5.4 6 .6 8-1.7 13-5.5z" fill-rule="evenodd" stroke="#000" fill="#fff"/><path d="M274 356c0-1-.6-1.7-1.3-2l-4.3-1.3c-1.6-.4-2.5.8-2.5 1.5v3.3c0 1.2 0 1.2 1 1.4 1 0 2 0 4 1 1 0 1 0 2-1v-3zm-17.4 0c0-1 .4-1.8 1-2 1.3-.6 2.6-.7 4-.6 1.4 0 1.8.3 1.8 1v3.5c0 1 0 1-.8 1-1 0-3 0-4 1-.8 0-1.7 0-1.8-1 0-1 0-3-.2-4zm-21-.3c0-1 .6-1.6 1.4-2l4.2-1.2c1.6-.4 2.5.7 2.5 1.5v3.2c0 1.2-.3 1.3-1 1.5-1.2.2-2.8.4-4 1.2-1 0-2 0-2.4-1-.3-1-.4-3-.6-4zm17.4 0c.2-1-.3-1.7-1-2-1.2-.5-2.5-.6-3.8-.6-1.5 0-2 1-2 2v4c.2 1 0 2 .8 2 1 1 3 1 4 1s1.8 1 2-1v-4zm-67.5-117.2c-2-3.2-4.5 4.5-12.7 10.2-4 2.7-6.6 9.6-6.6 14.2 0 3 .4 6 0 9-.2 2-2.2 6-.8 7 3.6 2 8.3 9 10.5 11 1 1 3-9 4-13 1-5 1-11 5-15 3-3 10-6 10-8l-10-16z" fill-rule="evenodd" stroke="#000" fill="#fff"/><path d="M185.5 238.5c-2-3.2-4.5 4.5-12.7 10.2-4 2.7-6.6 9.6-6.6 14.2 0 3 .4 6 0 9-.2 2-2.2 6-.8 7 3.6 2 8.3 9 10.5 11 1 1 3-9 4-13 1-5 1-11 5-15 3-3 10-6 10-8l-10-16z" fill-rule="evenodd" fill="#fff"/><path d="M173.2 248c-.7 5.5 2.3 7.4 5.2 8.4 3 1 5.4 4.3 6.6 7.2m-19 2.5c1 5 4.4 5 7.3 6 3 1 6 5 7.4 8" stroke="#000" stroke-width=".5" fill="none"/><path d="M182.7 235.2l1.5-1 29 48.7-1.6 1-29-49z" fill-rule="evenodd" stroke="#000" fill="#fff"/><path d="M182.7 235.2l1.5-1 29 48.7-1.6 1-29-49z" fill-rule="evenodd" fill="#fff"/><path d="M185.8 233.3a3.3 3.3 0 1 1-6.7 0 3.3 3.3 0 0 1 7 0z" fill-rule="evenodd" stroke="#000" fill="#fff"/><path d="M185.8 233.3a3.3 3.3 0 1 1-6.7 0 3.3 3.3 0 0 1 7 0z" fill-rule="evenodd" fill="#fff"/><path d="M274.8 144.8c-1-1.7-2.3 2.3-6.5 5.2-2 1.4-3.4 5-3.4 7.3-1 1.6 0 3.3 0 4.8-1 1-2 4-1 4 2 2 4 5 5 6s1-4 2-6 0-5 2-8c1-1 5-3 5-3l-5-8z" fill-rule="evenodd" transform="matrix(-1.9453 0 0 2.0144 859.49 -52.133)" stroke="#000" stroke-width=".5" fill="#fff"/><path d="M325 239.5c2-3.3 4.4 4.6 12.6 10.6 4 3 6.6 10 6.6 15 0 3-.4 7 0 10 .2 2 2.2 7 .8 8-3.6 3-8.3 10-10.5 12-2 2-3.5-9-5-13-1.5-5-.8-11-5-16-3-3-10.5-6-9.7-7l10-17z" fill-rule="evenodd" fill="#fff"/><path d="M273.4 143l.7-.4 15 25v.5l-15-25z" fill-rule="evenodd" transform="matrix(-1.9453 0 0 2.0144 859.49 -52.133)" stroke="#000" stroke-width=".5" fill="#fff"/><path d="M268.4 149.8c-.4 2.8 1.3 3.6 2.7 4.2 2 .5 3 2 4 3.5" transform="matrix(-1.9453 0 0 2.0144 859.49 -52.133)" stroke="#000" stroke-width=".3" fill="none"/><path d="M267.4 151.3c.6 2.4 2.2 2 3.7 2.5 2 .6 4 2.3 4 3.8" transform="matrix(-1.9453 0 0 2.0144 864.433 -36.44)" stroke="#000" stroke-width=".3" fill="none"/><path d="M327.7 236l-1.5-1-29 50.5 1.6 1 29-50.5z" fill-rule="evenodd" fill="#fff"/><path d="M275 142a1.7 1.7 0 1 1-3.5 0 1.7 1.7 0 0 1 3.5 0z" fill-rule="evenodd" transform="matrix(-1.9453 0 0 2.0144 859.49 -52.133)" stroke="#000" stroke-width=".5" fill="#fff"/><path d="M324.6 234c0 2 1.5 3.5 3.3 3.5s3-1.5 3-3.4-2-3-4-3-4 2-4 4z" fill-rule="evenodd" fill="#fff"/><g fill-rule="evenodd" fill="#fff"><path stroke="#000" d="M210.5 194h11.7v2.8h-11.7zm0 5.2h11.7v22.5h-11.7zm-.7-8.2h13c.5-4.3-4-9-6.4-9-2.6 0-6.7 4.8-6.6 9zm77.7 3.2h11.7v2.7h-11.7zm0 5h11.7v22.5h-11.7zm-.7-8h13c.5-4.4-4-9.2-6.5-9-2.5 0-6.6 4.7-6.5 9z"/><path d="M210.5 194h11.7v2.8h-11.7zm0 5.2h11.7v22.5h-11.7zm-.7-8.2h13c.5-4.3-4-9-6.4-9-2.6 0-6.7 4.8-6.6 9zm77.7 3.2h11.7v2.7h-11.7zm0 5h11.7v22.5h-11.7zm-.7-8h13c.5-4.4-4-9.2-6.5-9-2.5 0-6.6 4.7-6.5 9z"/></g><path fill-rule="evenodd" fill="#fff" d="M287.5 199.3h11.7v22.4h-11.7zm0-5h11.7v2.6h-11.7zm-.7-3.2l13 1c.5-4-4-9-6.5-9s-6.6 5-6.5 9zm-76.3 9h11.7v22h-11.7zm0-5h11.7v3h-11.7zm-.7-3h13c.5-4-4-9-6.4-9-2.6 0-6.7 5-6.6 9z"/><g fill-rule="evenodd" fill="#fff"><path d="M200.8 225.5l7.4 8.2H301l7.6-8-23.7-.4-12-8-38-.2-11 9h-24z" stroke="#000"/><path d="M200.8 225.5l7.4 8.2H301l7.6-8-23.7-.4-12-8-38-.2-11 9h-24z"/></g><path d="M238.7 212.8h32c4.4-2.3 5.8-9.6 5.7-13.7 0-12-8.5-17-17-18-1.3 0-2.7-1-3-2-1-2-.7-9-1.6-9-.8 0-.6 7-1.3 9-.4 2-1.8 3-3.2 3-10.5 1-17.4 9-17 18 0 7 .8 11 5.4 14z" stroke="#000" fill="none"/><path d="M238.7 212.8h32c4.4-2.3 5.8-9.6 5.7-13.7 0-12-8.5-17-17-18-1.3 0-2.7-1-3-2-1-2-.7-9-1.6-9-.7 0-.6 7-1.3 9-.4 2-1.8 3-3.2 3-10.5 1-17.4 9-17 18 0 7 .8 11 5.4 14z" fill-rule="evenodd" fill="#fff"/><path d="M236.7 202c.8 4 2.8 3.5 2.6 1.6-.5-6.2 0-12.2 5.5-16.3 1.7-1.2-.2-2.4-1.7-1.8-4 2-7 11-6 16.6z" stroke="#000" stroke-width=".5" fill="none"/><path d="M242 204.7c1 4 4.2 3.8 3.6 1.2-1.2-5-1-13 3.4-16 1.7-1-.2-3-1.7-2-4.6 2-6.2 10-5.2 16z" stroke="#000" stroke-width=".5" fill="none"/><path d="M301.5 125.4c.4 2 1.4 1.8 1.3.8-.3-3.2 0-6.3 2.8-8.4 1-.6 0-1.2-1-1-2.2 1-3.7 5.7-3 8.6z" transform="matrix(-1.9484 0 0 1.9463 860.365 -41.81)" stroke="#000" stroke-width=".3" fill="none"/><path d="M302 125c.5 2 2.2 2 2 .7-.8-2.6-.7-6.3 1.6-8 1-.5 0-1-1-.8-2.2 1-3 5-2.5 8z" transform="matrix(-1.9484 0 0 1.9463 856.18 -38.618)" stroke="#000" stroke-width=".3" fill="none"/><g fill-rule="evenodd" fill="#fff"><path d="M186 330.2h137.6l-12.3-10h-113l-12.3 10z" stroke="#000"/><path d="M186 330.2h137.6l-12.3-10h-113l-12.3 10z"/></g><g fill="#fff" fill-rule="evenodd"><g stroke="#000" stroke-width=".5"><path d="M210 240h13v18h-13zm.6 28.4h12.7v3.8h-12.7zm-.2 6.7h13v15h-13zm-1 17h14.2v8h-14.2zm1.8-27h11.4l2.2-3H209l2.2 4zm15.4-14v-9h8c-3.2 3-6 6-8 10zm72.8-11h-12.8v18h12.8zm-.2 29h-12.4v4h12.4zm.3 7h-12.7v14h12.7zm.8 17h-14v8h14z" stroke-width="1"/><path d="M288.4 157.7h6l1-2h-8l1 2z" transform="matrix(-1.9134 0 0 1.9463 850.108 -41.963)"/><path d="M296.2 150.6v-5h4c-1.5 1.2-3 2.8-4 5z" transform="matrix(-1.9134 0 0 1.9463 849.894 -41.963)"/></g><path d="M210 240h13v18h-13zm.6 28.4h12.7v3.8h-12.7zm-.2 6.7h13v15h-13zm-1 17h14.2v8h-14.2zm1.8-27h11.4l2.2-3H209l2.2 4zm15.4-14v-9h8c-3.2 3-6 6-8 10zm72.8-11h-12.8v18h12.8zm-.2 29h-12.4v4h12.4zm.3 7h-12.7v14h12.7zm.8 17h-14v8h14zm-2-27H287l-2.2-4h15.4l-2 4zM283 251v-9.8h-7.7c3 2.6 5.8 5.6 7.8 10z"/></g><path d="M212 255.2c0 2 2.4 1 2.4 0v-9c0-1.7 4-1.3 4-.3v9c0 1 2.6 1 2.6 0v-11c0-4-9-4-9 0v11zm77 .3c0 2.2 2.3 1.2 2.3 0v-9c0-1.7 4-1.2 4-.2v9.8c0 2 2.6 2 2.6 0-1-3 0-8 0-11s-9-3-9 0v11zm-77 21.2h9.2v11.6H212z" stroke="#000" stroke-width=".5" fill="none"/><path fill-rule="evenodd" d="M218 281.5h3.2v2H218zm-5.8 0h3.2v2h-3.2z"/><path fill-rule="evenodd" d="M215.4 277h2.5v4.6h-3zm0 6.3h2.5v5h-3z"/><path stroke="#000" stroke-width=".5" fill="none" d="M288.6 276.6h9.3v11.6h-10z"/><path fill-rule="evenodd" d="M294.5 281.4h3.3v2h-3.3zm-5.7 0h3.2v2h-3.2zm3.2-4.6h2.5v4.7H292zm0 6.5h2.5v5H292z"/><path fill-rule="evenodd" stroke="#000" fill="#fff" d="M280.2 277.3h1.6v11.5H280z"/><path d="M249 292.5l2.6 7.6h5.7l-4.5-7H249zm-3 7.6l1.4 8h6.7l-2-7h-6zm11.3 1l4.6 8h9l-7-8-7 1zm-56 17c5-4 8-8 8-14H222c0 3 1 5 3 5h12v-8h-9v-40c-.5-14 17.2-22 24.4-22h-43v-2H300v2h-43.4c13 0 25.3 13 25.4 23v11h-1.6v-12c0-11-14.3-21-25.7-21-9.8 1-25 10-25 22v4H253l-.3 4 3.7 3 7.3 3v6l5 2 .2 6 6 3v6l4 3v6l5 4h-13l8 9h-12l-6-9h-7l3 9h-8l-2-9h-10v10h-36zm36-24v8h8.6l-2-7h-7z" fill-rule="evenodd" stroke="#000" fill="#fff"/><path d="M249 292.5l2.6 7.6h5.7l-4.5-7H249zm-3 7.6l1.4 8h6.7l-2-7h-6zm11.3 1l4.6 8h9l-7-8-7 1zm-56 17c5-4 8-8 8-14H222c0 3 1 5 3 5h12v-8h-9v-40c-.5-14 17.2-22 24.4-22h-43v-2H300v2h-43.4c13 0 25.3 13 25.4 23v11h-1.6v-12c0-11-14.3-21-25.7-21-9.8 1-25 10-25 22v4H253l-.3 4 3.7 3 7.3 3v6l5 2 .2 6 6 3v6l4 3v6l5 4h-13l8 9h-12l-6-9h-7l3 9h-8l-2-9h-10v10h-36zm36-24v8h8.6l-2-7h-7z" fill-rule="evenodd" fill="#fff"/><path stroke="#000" stroke-width=".5" fill="none" d="M237.7 279.5h5.4V292h-5z"/><path d="M298 171.7h2.8V167c0-2 1.7-4 2.6-4 1 0 2.4 2 2.5 4v4.7h2V160h-10v11.7z" transform="matrix(1.9463 0 0 1.9848 -350 -48.13)" stroke="#000" stroke-width=".3" fill="none"/><path stroke="#000" stroke-width=".5" fill="none" d="M271.8 298.2h6.5v5h-6.5zm-4-8.8h6.6v5H268zm-6.2-8.7h6.5v5h-6zm-5.4-7.4h6.5v5h-6.5z"/><path d="M252 292.8l6.6.2 12 10.6v-6.3l-4-3v-4.8l-6-3.4v-5l-5.7-2v-7l-3-2v23z" stroke="#000" stroke-width=".5" fill="none"/><path fill-rule="evenodd" fill="#fff" d="M280.2 277.3h1.6v11.5H280z"/><g stroke-linejoin="round" fill-rule="evenodd" stroke="#000" fill="#fff"><path d="M163.8 161c.5 9-2.3 14-7 13.3-1.4-5 1.6-8.4 7-13.3zm-10.6 20c-4.3-2-1.2-18.6.4-25.6 1.3 9 3.3 21.7-.4 25.7z"/><path d="M154.7 182c7.2 2.4 13-5.3 14.8-14.3-6 8.2-15.6 8.2-14.8 14.2zm-5.4 8.3c-5.6-1.5-2.3-19-1.2-26 2 7 6 23.6 2 26zm2-.5c.2-6 6.3-4.4 10.4-7.6-.6 3-3.2 8.4-10.5 7.6zm-7 8c-5.5-1.4-2.2-20.4-2.5-28.2 1.6 6.8 6.8 26.5 2.5 28.3zm2.6-.7c4 2 10-1 11-7-4 3-11 1-11 7z"/><path d="M140.2 206.2c-5.4.5-3-15.7-3-30.7 2 14 7.3 27 3 30.7z"/><path d="M142 205.5c3.6 1.8 10-1 12-7-6.6 2.7-11 0-12 7z"/></g><g fill-rule="evenodd" fill="#fff"><path d="M163.8 161c.5 9-2.3 14-7 13.3-1.4-5 1.6-8.4 7-13.3zm-10.6 20c-4.3-2-1.2-18.6.4-25.6 1.3 9 3.3 21.7-.4 25.7z"/><path d="M154.7 182c7.2 2.4 13-5.3 14.8-14.3-6 8.2-15.6 8.2-14.8 14.2zm-5.4 8.3c-5.6-1.5-2.3-19-1.2-26 2 7 6 23.6 2 26zm2-.5c.2-6 6.3-4.4 10.4-7.6-.6 3-3.2 8.4-10.5 7.6zm-7 8c-5.5-1.4-2.2-20.4-2.5-28.2 1.6 6.8 6.8 26.5 2.5 28.3zm2.6-.7c4 2 10-1 11-7-4 3-11 1-11 7z"/><path d="M140.2 206.2c-5.4.5-3-15.7-3-30.7 2 14 7.3 27 3 30.7z"/><path d="M142 205.5c3.6 1.8 10-1 12-7-6.6 2.7-11 0-12 7z"/></g><g stroke-linejoin="round" fill-rule="evenodd" stroke="#000" fill="#fff"><path d="M183.8 169.4c-1 8-4.2 12.5-9 11.7-1.3-5 2.6-8 9-11zM171 189.6c8 1.2 11-5 16.3-12.8-7.5 5.5-16.5 6.6-16.2 12.8z"/><path d="M168.8 188.7c-4.3-5.2 0-11.7 3.2-17.3-.7 8.3 2 13-3.2 17.3zm-2 8.7c-.4-5.2 8.3-6.3 12.2-9-1.3 2.8-3.3 10.8-12 9z"/><path d="M165 197.5c-6-.7-3.5-11 .8-16.6-1.8 7 3.2 13-.8 16z"/><path d="M160.5 206c-6.8-3-2.4-11.6 0-16.7-1 6.7 4.5 11.7 0 16.7z"/><path d="M162 205.2c3.5 4.7 10.5-1.4 12-8.5-6.2 5-10.7 4.2-12 8.5z"/></g><g fill-rule="evenodd" fill="#fff"><path d="M183.8 169.4c-1 8-4.2 12.5-9 11.7-1.3-5 2.6-8 9-11zM171 189.6c8 1.2 11-5 16.3-12.8-7.5 5.5-16.5 6.6-16.2 12.8z"/><path d="M168.8 188.7c-4.3-5.2 0-11.7 3.2-17.3-.7 8.3 2 13-3.2 17.3zm-2 8.7c-.4-5.2 8.3-6.3 12.2-9-1.3 2.8-3.3 10.8-12 9z"/><path d="M165 197.5c-6-.7-3.5-11 .8-16.6-1.8 7 3.2 13-.8 16z"/><path d="M160.5 206c-6.8-3-2.4-11.6 0-16.7-1 6.7 4.5 11.7 0 16.7z"/><path d="M162 205.2c3.5 4.7 10.5-1.4 12-8.5-6.2 5-10.7 4.2-12 8.5z"/></g><g stroke-linejoin="round" fill-rule="evenodd" stroke="#000" fill="#fff"><path d="M326.6 170.2c1 4 1.2 12.2 8.4 10.6 1-7.5-5-8-8.4-10.6z"/><path d="M339 189.5c-.3-7.7-8.6-6-15.8-12.3 2 6.7 9 14.8 15.8 12.3z"/><path d="M340.7 188.6c5-3.4 1.2-10.7-3.4-17 1.7 7-2 13.3 3.4 17zm2.2 8.8c-8 .6-10-3.4-13-8.4 5 3.4 12 1.2 12 8.4zm1 .2c-4-3 1-9.7-1-16.2 3 4 7 14 0 16.2z"/><path d="M348 205.7c-7.8 2-10.3-2.3-12.3-9.3 6.4 6 10 3 12.4 9.3z"/><path d="M349.2 205.6c5.5 0 3-11 .3-15.8.7 6-4 12.8-.3 15.8z"/></g><g fill-rule="evenodd" fill="#fff"><path d="M326.6 170.2c1 4 1.2 12.2 8.4 10.6 1-7.5-5-8-8.4-10.6z"/><path d="M339 189.5c-.3-7.7-8.6-6-15.8-12.3 2 6.7 9 14.8 15.8 12.3z"/><path d="M340.7 188.6c5-3.4 1.2-10.7-3.4-17 1.7 7-2 13.3 3.4 17zm2.2 8.8c-8 .6-10-3.4-13-8.4 5 3.4 12 1.2 12 8.4zm1 .2c-4-3 1-9.7-1-16.2 3 4 7 14 0 16.2z"/><path d="M348 205.7c-7.8 2-10.3-2.3-12.3-9.3 6.4 6 10 3 12.4 9.3z"/><path d="M349.2 205.6c5.5 0 3-11 .3-15.8.7 6-4 12.8-.3 15.8z"/></g><g stroke-linejoin="round" fill-rule="evenodd" stroke="#000" fill="#fff"><path d="M346 161c1 4.6-1 13.6 6.2 13.5 3-5-3.4-10-6.3-13.4z"/><path d="M356.8 181.4c4.6-3.2.4-13.5-1-25-1 10.3-3.6 21.6 1 25z"/><path d="M354.3 182.2c.6-5.7-8.3-7-14.5-14.5 1.6 6 6.2 14.8 14.5 14.5zm6 8.8c-4.7-4.4 1-17 1.3-26.6.7 9 4.6 25-1.2 26.6zm-2.6-1.3c-7 .5-9-4.7-9.7-7.6 3.8 3 9.7 2 9.7 8zm7 7.8c5.5-.2 3.5-20.8 2.7-27.2-.5 7-6.2 24.7-2.7 27.2zm-2.3-.4c-4.7 1-9.4-2-10.7-6 4 2 10.7 1 10.7 7z"/><path d="M369 206c6 2.4 3.8-24.4 3-30.6-.5 8-7.3 27.3-3 30.6z"/><path d="M367.7 206c-5.8 1-10-2.7-11.7-7.5 6 2.2 10.5 1.4 11.7 7.5z"/></g><g fill-rule="evenodd" fill="#fff"><path d="M363.6 237.7c.7-7-4.7-19.7-1-26.4.6-1-1-3.4-2-2-1.8 2.5-3.5 9.3-4.2 6.8-.8-2-1-7-3.3-8-1 0-3-1-3 2 1 3 2 6 1 6-1 1-3-3-5-4-1-1-4 1-1 3 8 7 16 10 21 25z" stroke="#000"/><path d="M363.6 237.7c.7-7-4.7-19.7-1-26.4.6-1-1-3.4-2-2-1.8 2.5-3.5 9.3-4.2 6.8-.8-2-1-7-3.3-8-1 0-3-1-3 2 1 3 2 6 1 6-1 1-3-3-5-4-1-1-4 1-1 3 8 7 16 10 21 25z"/></g><g fill-rule="evenodd" fill="#fff"><path d="M346 161c1 4.6-1 13.6 6.2 13.5 3-5-3.4-10-6.3-13.4z"/><path d="M356.8 181.4c4.6-3.2.4-13.5-1-25-1 10.3-3.6 21.6 1 25z"/><path d="M354.3 182.2c.6-5.7-8.3-7-14.5-14.5 1.6 6 6.2 14.8 14.5 14.5zm6 8.8c-4.7-4.4 1-17 1.3-26.6.7 9 4.6 25-1.2 26.6zm-2.6-1.3c-7 .5-9-4.7-9.7-7.6 3.8 3 9.7 2 9.7 8zm7 7.8c5.5-.2 3.5-20.8 2.7-27.2-.5 7-6.2 24.7-2.7 27.2zm-2.3-.4c-4.7 1-9.4-2-10.7-6 4 2 10.7 1 10.7 7z"/><path d="M369 206c6 2.4 3.8-24.4 3-30.6-.5 8-7.3 27.3-3 30.6z"/><path d="M367.7 206c-5.8 1-10-2.7-11.7-7.5 6 2.2 10.5 1.4 11.7 7.5z"/></g><g fill-rule="evenodd" fill="#fff"><path d="M244.4 141c-1-1-.7-1.4.8-1.4 1.2 0 3.5.7 4.4 0 .8-.5.5-3 1-4.2 0-.7.5-1.7 1.5 0 3 4.8 7 10.6 9 16.3 1 3.2 1 8.4-3 11l-2-7c-1-3.3-7-11.3-11-14.6z" transform="matrix(-1.937 0 0 1.9463 857.173 -41.533)" stroke="#000" stroke-width=".5"/><path d="M383.8 233c2-2 1.4-2.8-1.5-2.8-2.3-.2-7 1.4-8.6 0-1.6-1-1-6-1.7-8.2-.3-1.3-1.2-3.3-3.2-.2-6 9.5-13.2 20.8-16.3 32-1.7 6.2-1 16.2 5.7 21.5l4.7-13.6c2-6.6 14-22.2 20-28.6z"/></g><g stroke-linejoin="round" fill-rule="evenodd" stroke="#000" fill="#fff"><path d="M390.4 216c-2.7 8.6-4.3 15.5-.4 16.4 4-.7 2.3-9 .4-16.3zm-.3 24c5 2.3 10-8.8 9-17.6-2 7.5-9 12-8 17.5zm-1-.3c1-6-2-6-5-11.7 1 6.6 2 12 5 11.7z"/><path d="M390 248.6c5 1.4 10.8-10.7 10.6-19.6-2 10-13 13.8-10.7 19.6z"/><path d="M388.3 248.4c2-4.7-2-4-5-12.6-.8 8.7.5 12.7 5 12.6zm1.4 9c6.6 1.2 10-13.3 13.3-20.3-6.5 10-14.2 15-13.3 21z"/><path d="M388.2 257c2-5.4-3.5-5-6.4-13 .5 10 1.8 13.7 6.4 13zm2 9.2c4 .3 11.6-11.3 11.7-18.5-4 8-15 13.2-12 18.5z"/><path d="M387 265c1.7-5.7-3-5.7-5.2-12-.2 9.4 1.3 12.7 5.2 12zm.2 10c7.3 1.3 9.2-8.4 13.5-18.3-4.2 8-14 12.3-13.5 18.3z"/><path d="M386.6 273.6c2.4-5-3-5-6-12.6-.2 10.7 1.7 13.8 6 12.6z"/></g><g fill-rule="evenodd" fill="#fff"><path d="M390.4 216c-2.7 8.6-4.3 15.5-.4 16.4 4-.7 2.3-9 .4-16.3zm-.3 24c5 2.3 10-8.8 9-17.6-2 7.5-9 12-8 17.5zm-1-.3c1-6-2-6-5-11.7 1 6.6 2 12 5 11.7z"/><path d="M390 248.6c5 1.4 10.8-10.7 10.6-19.6-2 10-13 13.8-10.7 19.6z"/><path d="M388.3 248.4c2-4.7-2-4-5-12.6-.8 8.7.5 12.7 5 12.6zm1.4 9c6.6 1.2 10-13.3 13.3-20.3-6.5 10-14.2 15-13.3 21z"/><path d="M388.2 257c2-5.4-3.5-5-6.4-13 .5 10 1.8 13.7 6.4 13zm2 9.2c4 .3 11.6-11.3 11.7-18.5-4 8-15 13.2-12 18.5z"/><path d="M387 265c1.7-5.7-3-5.7-5.2-12-.2 9.4 1.3 12.7 5.2 12zm.2 10c7.3 1.3 9.2-8.4 13.5-18.3-4.2 8-14 12.3-13.5 18.3z"/><path d="M386.6 273.6c2.4-5-3-5-6-12.6-.2 10.7 1.7 13.8 6 12.6z"/></g><g fill-rule="evenodd" fill="#fff"><path d="M256.8 167c3.3 0 4-4.8 4-6-1.6.2-4.6 3.2-4 6z" transform="matrix(-1.937 0 0 1.9463 857.387 -41.81)" stroke="#000" stroke-width=".5"/><path d="M360 283c-6.5 0-7.8-9.2-7.8-11.6 3.2.6 9 6.4 7.7 11.6z"/></g><g stroke-linejoin="round" fill-rule="evenodd" stroke="#000" fill="#fff"><path d="M372.8 241.4c-2.6 8.5-3.7 12.6 0 15.3 4.6-2.6 2-8 0-15.3zm-1.4 22.2c2-6.3-3-7.8-5.5-14.8-1 9.3 1 16 5 14.8z"/><path d="M373.3 265c3.4 1.3 7.7-6.7 5.3-14.7-2.4 7.2-8.3 9-5.3 14.7zm-3.6 7c3.3-5-2-5.3-4.7-12.5 0 9.5.7 13.4 4.7 12.6z"/><path d="M369.7 281c2.5-5.8-3-5-6.3-12.3 0 10.7 1.6 13 6.3 12.3zm2.5-8.5c2.8 0 8.4-5 6.8-11.3-2.5 5.3-9.3 4.8-6.8 11.3zm-.8 7.5c4.7 1 8.2-6 7.7-11-3 4.5-8 5-7 11z"/></g><g fill-rule="evenodd" fill="#fff"><path d="M372.8 241.4c-2.6 8.5-3.7 12.6 0 15.3 4.6-2.6 2-8 0-15.3zm-1.4 22.2c2-6.3-3-7.8-5.5-14.8-1 9.3 1 16 5 14.8z"/><path d="M373.3 265c3.4 1.3 7.7-6.7 5.3-14.7-2.4 7.2-8.3 9-5.3 14.7zm-3.6 7c3.3-5-2-5.3-4.7-12.5 0 9.5.7 13.4 4.7 12.6z"/><path d="M369.7 281c2.5-5.8-3-5-6.3-12.3 0 10.7 1.6 13 6.3 12.3zm2.5-8.5c2.8 0 8.4-5 6.8-11.3-2.5 5.3-9.3 4.8-6.8 11.3zm-.8 7.5c4.7 1 8.2-6 7.7-11-3 4.5-8 5-7 11z"/></g><g fill-rule="evenodd" fill="#fff"><path d="M235.6 159c-.3-.3-1 0-1 1 .3 1.3 2 7.7 5.3 10 2 1.6 14 4.2 19 5.3 3 .6 5 2 7 4.5l-3-8.2c-1-2.5-4-5.2-7-5.3-6-.2-12-.7-17-2.8-3-1-4-2.4-6-4.4z" transform="matrix(-1.937 0 0 1.9463 857.173 -41.533)" stroke="#000" stroke-width=".5"/><path d="M400.8 268c.5-.7 2.2 0 1.8 2-.4 2.3-4 15-10.2 19.2-4.4 3.2-27.5 8.3-38 10.5-5.7 1-10.5 4-14.3 8.6 2-6 3-10.5 5-16 2-4.7 7-10 13-10.3 10-.3 23-1.2 33-5.3 5-2 8-4.8 11-8.7z"/></g><g stroke-linejoin="round" fill-rule="evenodd" stroke="#000" fill="#fff"><path d="M386.6 297.7c1-4.3-.3-5.6 1-12.3-6.5 8.6-4 12.6-1 12.3z"/><path d="M387.3 298.7c4.2 1.2 15-8.4 15.4-15.5-3 5-17.7 10.6-15.4 15.5zm-7 6.3c3-1.6 2.2-8.2-.4-10.4-1 6.4-5 10.3 0 10.4z"/><path d="M383.4 306.8c5 1.6 10.8-7.6 15-11.6-4.8 4-19.2 6-15 11.6zm-7 4.6c3.6-2.3.2-7 0-16-3.6 6.6-4.3 15.5 0 16z"/><path d="M377 313.7c2 2.5 15.3-6 18.7-12-11.5 8.4-21.6 7.3-18.6 12zm-1.3 7.6c3.3-2.4-2.8-8.7-4-17.2 0 11-1.4 19 4 18z"/><path d="M379.3 318.5c1.7 2.6 12-4.4 16.3-12-6.8 6-18.2 7.5-16.3 12zM369 330c3.6-.6 3-10 .2-17.7-3.2 9.3-4.6 18.6-.3 17.7z"/><path d="M378.2 325c1.2 1.4 16.3-9 16-13.4-4.7 6.8-20.6 8.2-16 13.3zm-17.6 13.8c5.2-2 2.7-10.4 3.8-19.3-4 8.7-8.8 17.5-3.8 19.3z"/><path d="M370.2 331.6c.8 2.8 13-2.4 19-11-7 5.6-21 6.4-19 11z"/><path d="M362.3 340c2.6 4.5 18-3.5 20-11-4.8 6.4-22 5.5-20 11z"/><path d="M369.3 343.6c2.8.3 9.3-5 11-8-5 2.7-12.2 6.3-11 8z"/></g><g stroke-linejoin="round" fill-rule="evenodd" stroke="#000" fill="#fff"><path d="M346.3 310.8c3.3.5 7.7-5.7 4.8-11.8-1 6-11 10.6-4 11.8zm7-3.7c2.7 2 9.2-5 8.4-10-3.6 6-11 8-8.3 10z"/><path d="M345.8 317.3c2.5 2.4 14.8-10 18.5-15.7-10.7 9-21.5 11.3-18.5 15.7zm-3 7.5c2 3 10.2-6 15.4-13.4-6.5 6.5-17.7 9.4-15.3 13.4z"/><path d="M343.7 317.7c2-5.3-1.3-6.2-2.8-12.7-3 3.6-3 13.7 2 12.7zm-3.2 7.3c4-1-2.5-8-3.8-12.7-.6 8.8-.5 13.3 3.8 12.7zm-4 6.4c3.8-1.4-2-4.7-2.6-12.2-2 2.8-3 13 2 12z"/><path d="M331 333c2.4-1.4 1.5-7.4-2-8.2-1 4.7-1 8.2 2 8z"/></g><g fill-rule="evenodd" fill="#fff"><path d="M346.3 310.8c3.3.5 7.7-5.7 4.8-11.8-1 6-11 10.6-4 11.8zm7-3.7c2.7 2 9.2-5 8.4-10-3.6 6-11 8-8.3 10z"/><path d="M345.8 317.3c2.5 2.4 14.8-10 18.5-15.7-10.7 9-21.5 11.3-18.5 15.7zm-3 7.5c2 3 10.2-6 15.4-13.4-6.5 6.5-17.7 9.4-15.3 13.4z"/><path d="M343.7 317.7c2-5.3-1.3-6.2-2.8-12.7-3 3.6-3 13.7 2 12.7zm-3.2 7.3c4-1-2.5-8-3.8-12.7-.6 8.8-.5 13.3 3.8 12.7zm-4 6.4c3.8-1.4-2-4.7-2.6-12.2-2 2.8-3 13 2 12z"/><path d="M331 333c2.4-1.4 1.5-7.4-2-8.2-1 4.7-1 8.2 2 8z"/></g><g fill-rule="evenodd" fill="#fff"><path d="M386.6 297.7c1-4.3-.3-5.6 1-12.3-6.5 8.6-4 12.6-1 12.3z"/><path d="M387.3 298.7c4.2 1.2 15-8.4 15.4-15.5-3 5-17.7 10.6-15.4 15.5zm-7 6.3c3-1.6 2.2-8.2-.4-10.4-1 6.4-5 10.3 0 10.4z"/><path d="M383.4 306.8c5 1.6 10.8-7.6 15-11.6-4.8 4-19.2 6-15 11.6zm-7 4.6c3.6-2.3.2-7 0-16-3.6 6.6-4.3 15.5 0 16z"/><path d="M377 313.7c2 2.5 15.3-6 18.7-12-11.5 8.4-21.6 7.3-18.6 12zm-1.3 7.6c3.3-2.4-2.8-8.7-4-17.2 0 11-1.4 19 4 18z"/><path d="M379.3 318.5c1.7 2.6 12-4.4 16.3-12-6.8 6-18.2 7.5-16.3 12zM369 330c3.6-.6 3-10 .2-17.7-3.2 9.3-4.6 18.6-.3 17.7z"/><path d="M378.2 325c1.2 1.4 16.3-9 16-13.4-4.7 6.8-20.6 8.2-16 13.3zm-17.6 13.8c5.2-2 2.7-10.4 3.8-19.3-4 8.7-8.8 17.5-3.8 19.3z"/><path d="M370.2 331.6c.8 2.8 13-2.4 19-11-7 5.6-21 6.4-19 11z"/><path d="M362.3 340c2.6 4.5 18-3.5 20-11-4.8 6.4-22 5.5-20 11z"/><path d="M369.3 343.6c2.8.3 9.3-5 11-8-5 2.7-12.2 6.3-11 8z"/></g><g fill-rule="evenodd" fill="#fff"><path d="M235.8 159.5c-.3-.3-.8-.7-.7.2 2 7.4 2 9.5 9 12s9 1.7 15 1.6c3 0 7 1.4 9 3.6 1 1 2 1 2 0l-1-5c-1-3-5-6-8-7-5-2-10-1-15-2-2-1-5-3-7-4z" transform="matrix(-1.7055 -.9227 -.9183 1.7137 926.17 287.993)" stroke="#000" stroke-width=".5"/><path d="M377.5 343.7c1 0 2.2-.4 1 1-9.2 11.4-12 14.5-25.3 13-13.6-2-16.8-5.5-26.3-11-5-3-13-3.6-19-1.7-3 1-4 1-3-1 2-2 4-4.4 6-6.2 5-4 13-5.6 20-4.3 10 1.5 18 8 28 10.3 5 1 10 1 16 0z"/></g><g fill-rule="evenodd" fill="#fff"><path d="M287.7 208.4c.8 0 1.4 1.8 1.8.7.8-1 .3-3-.6-3-1 0-3 3-2 3z" transform="matrix(-1.9235 0 0 1.9463 853.242 -41.856)" stroke="#000" stroke-width=".5"/><path d="M300 363.8c-1.8.2-3 3.5-3.7 1.3-1.4-3-.4-6 1.2-6 2 1 5 5 2.4 5z"/></g><g stroke-linejoin="round" fill-rule="evenodd" stroke="#000" fill="#fff"><path d="M318.5 349c4.8 1.2 6-4.4 6.6-8.4-4 1-8 3.5-6 8.3zm-2 5c1 3.7 10.4-.3 12.2-5.6-6.7 4-13.3-.4-12 5.5z"/><path d="M313.2 353.7c4.3.7 2-6 1.7-12.7-3 5.4-6 12-2 12.7zm-5.4 6.3c4.7.6 1.7-8.4.4-14.5-1.5 5.7-5 14-.4 14.5z"/><path d="M310.6 360.2c.6 5.2 10.2-.6 16-3.7-7.6 1-16.8-1.3-16 3.7zm-5.3 7.2c.5 5 10.2-.6 15.8-3.8-7 1.2-16-1.2-15 3.8z"/><path d="M302.8 367.2c4.4 0 1.2-9.6 0-15.7-1.6 5.7-4.6 15.5 0 15.7zm-4 6.2c.7 5 9.6 0 15-3.5-7.5 1-15.7-2-15 3z"/></g><g fill-rule="evenodd" fill="#fff"><path d="M318.5 349c4.8 1.2 6-4.4 6.6-8.4-4 1-8 3.5-6 8.3zm-2 5c1 3.7 10.4-.3 12.2-5.6-6.7 4-13.3-.4-12 5.5z"/><path d="M313.2 353.7c4.3.7 2-6 1.7-12.7-3 5.4-6 12-2 12.7zm-5.4 6.3c4.7.6 1.7-8.4.4-14.5-1.5 5.7-5 14-.4 14.5z"/><path d="M310.6 360.2c.6 5.2 10.2-.6 16-3.7-7.6 1-16.8-1.3-16 3.7zm-5.3 7.2c.5 5 10.2-.6 15.8-3.8-7 1.2-16-1.2-15 3.8z"/><path d="M302.8 367.2c4.4 0 1.2-9.6 0-15.7-1.6 5.7-4.6 15.5 0 15.7zm-4 6.2c.7 5 9.6 0 15-3.5-7.5 1-15.7-2-15 3z"/></g><g stroke-linejoin="round" fill-rule="evenodd" stroke="#000" fill="#fff"><path d="M348.7 364.8c2.7 4.4 12.5-3.2 17.8-7-7.7 2.3-19.6 1.4-17.8 7z"/><path d="M338.8 369.4c1 5 17.4 1 19.7-3-7.5 3.4-20.7-1.4-19.7 3z"/><path d="M331 373.3c.5 2.7 13 1.7 19.5-.5-7 1-20.8-4-19.5.5z"/><path d="M324.4 376.6c0 2.5 14.7 4 19.6-.2-9.8 1.5-20.6-6-19.6.2z"/><path d="M312.8 379c-.6 3.5 15.4 2.7 20.4 1-8.6-.7-19.6-6.3-20.4-1z"/><path d="M312.6 375.7c3.6 3.3 12.8-11.4 15.8-18-7 7.5-20 15-15.8 18z"/><path d="M323 373.2c4.3 3 8.3-7.5 10.4-15.2-4 6.6-14.5 11-10.4 15.2z"/><path d="M331.3 370.4c4.3 2.8 6.7-6.6 7.8-12.5-3 5-11 8-7 12z"/><path d="M339.4 365.4c4.2 2.8 9.6-5 8.4-13-1.7 8.2-12.6 8.6-8.4 13zm-16.3 22c3 5.5 25-4.6 28-11.3-7 7-30 6-28 12z"/></g><g fill-rule="evenodd" fill="#fff"><path d="M348.7 364.8c2.7 4.4 12.5-3.2 17.8-7-7.7 2.3-19.6 1.4-17.8 7z"/><path d="M338.8 369.4c1 5 17.4 1 19.7-3-7.5 3.4-20.7-1.4-19.7 3z"/><path d="M331 373.3c.5 2.7 13 1.7 19.5-.5-7 1-20.8-4-19.5.5z"/><path d="M324.4 376.6c0 2.5 14.7 4 19.6-.2-9.8 1.5-20.6-6-19.6.2z"/><path d="M312.8 379c-.6 3.5 15.4 2.7 20.4 1-8.6-.7-19.6-6.3-20.4-1z"/><path d="M312.6 375.7c3.6 3.3 12.8-11.4 15.8-18-7 7.5-20 15-15.8 18z"/><path d="M323 373.2c4.3 3 8.3-7.5 10.4-15.2-4 6.6-14.5 11-10.4 15.2z"/><path d="M331.3 370.4c4.3 2.8 6.7-6.6 7.8-12.5-3 5-11 8-7 12z"/><path d="M339.4 365.4c4.2 2.8 9.6-5 8.4-13-1.7 8.2-12.6 8.6-8.4 13zm-16.3 22c3 5.5 25-4.6 28-11.3-7 7-30 6-28 12z"/></g><g fill-rule="evenodd" fill="#fff"><path d="M366.6 143.7c.4-3.6-2.4-10-.4-13.6.3 0-.6-1-1-1-1 2-2 5-2.3 4-1-1-1-4-2-4s-2 0-2 1 1 3 0 3-2-1-3-2c-1 0-3 1-1 2 4 4 8 5 10 13z" transform="matrix(-1.911 0 0 1.9463 846.858 -41.507)" stroke="#000" stroke-width=".5"/><path d="M146.2 238.2c-.7-7 4.6-19.7 1-26.5-.7-1 1-3.4 2-2 1.7 2.5 3.3 9.3 4 6.8.8-2.7 1-7.6 3.3-8.5 1.6-.6 3.8-1 3.2 1.5-.6 2.4-2 5.6-.5 5.8 1 0 3.3-3.2 5.4-4.7 1.7-1.4 4.2.7 1.7 2.8-8 6.6-15.6 9.5-20 24.8z"/></g><g fill-rule="evenodd" fill="#fff"><path d="M132 343.3c-1-.2-2.2-.5-1 1 9.2 11.4 12 14.5 25.4 13 13.6-2 17-5.6 26.4-11 5-3 12.6-3.6 18.2-1.7 2.6.8 4.2 1 2.3-1-2-2-4-4.5-6.4-6.2-6-4-14-5.6-21-4.4-10 1.6-18 8-28 10.3-5 1.2-11 1-16 0z" stroke="#000"/><path d="M132 343.3c-1-.2-2.2-.5-1 1 9.2 11.4 12 14.5 25.4 13 13.6-2 17-5.6 26.4-11 5-3 12.6-3.6 18.2-1.7 2.6.8 4.2 1 2.3-1-2-2-4-4.5-6.4-6.2-6-4-14-5.6-21-4.4-10 1.6-18 8-28 10.3-5 1.2-11 1-16 0z"/></g><g fill-rule="evenodd" fill="#fff"><path d="M210 363.7c1.6.2 2.7 3.5 3.5 1.3 1.5-3.7.5-6.6-1.2-6.3-2 .5-5 4.8-2.4 5z" stroke="#000"/><path d="M210 363.7c1.6.2 2.7 3.5 3.5 1.3 1.5-3.7.5-6.6-1.2-6.3-2 .5-5 4.8-2.4 5z"/></g><path d="M206 366.8c4.7 1 4.6-10 0-14.8 2 7.2-3.6 13.7 0 14.8zm-1.8 0c.4 5.2-13-.8-16.3-5 7 3.4 16 .7 16 5zm-5.8-7.7c.5 6-11.5 1-15-3 7.8 3 14.5-1 15 4zm2.2 1c4.7 1 4-10-.6-14 2.2 8-3 14 .6 15zm-4.8-7c4.6 1 2-9-1.5-13 .6 8-1.7 13 1.5 13zm-2.5 0c.5 6-8.8 2-12.4-3 7 3 11 0 12 4zm-2.5-4c3-2-.2-8-6-7 .6 4 2.6 10 6 8zm22.7 24c.3 5-13 3-17-3 8.3 2 16.6-1 17 3z" fill-rule="evenodd" stroke="#000" fill="#fff"/><g fill-rule="evenodd" fill="#fff"><g stroke="#000"><path d="M125.6 232.6c-2-2-1.4-2.8 1.6-3 2.3 0 7 1.6 8.6.3 1.6-2 1-7 1.7-9 .3-1 1.2-3 3.2 0 6 9 13.3 20 16.4 32 2 6 1 16-5 22 0-6-2-10-4-14-3-6-14-23-21-29z"/><path d="M150 282.4c6.5 0 7.6-8.7 7.6-11-3.2.5-8.8 5.8-7.6 11z"/></g><path d="M125.6 232.6c-2-2-1.4-2.8 1.6-3 2.3 0 7 1.6 8.6.3 1.6-2 1-7 1.7-9 .3-1 1.2-3 3.2 0 6 9 13.3 20 16.4 32 2 6 1 16-5 22 0-6-2-10-4-14-3-6-14-23-21-29z"/><path d="M150 282.4c6.5 0 7.6-8.7 7.6-11-3.2.5-8.8 5.8-7.6 11z"/></g><path d="M206 366.8c4.7 1 4.6-10 0-14.8 2 7.2-3.6 13.7 0 14.8zm-1.8 0c.4 5.2-13-.8-16.3-5 7 3.4 16 .7 16 5zm-5.8-7.7c.5 6-11.5 1-15-3 7.8 3 14.5-1 15 4zm2.2 1c4.7 1 4-10-.6-14 2.2 8-3 14 .6 15zm-4.8-7c4.6 1 2-9-1.5-13 .6 8-1.7 13 1.5 13zm-2.5 0c.5 6-8.8 2-12.4-3 7 3 11 0 12 4zm-2.5-4c3-2-.2-8-6-7 .6 4 2.6 10 6 8zm22.7 24c.3 5-13 3-17-3 8.3 2 16.6-1 17 3z" fill-rule="evenodd" fill="#fff"/><g stroke-linejoin="round" fill-rule="evenodd" stroke="#000" fill="#fff"><path d="M160.8 363.2c.5 5.3-14-.5-17.6-5.5 7.8 2.6 17 1.3 17.6 5.5zm9 2.3c3-2.2-3.3-7.8-8.2-9 .6 3.4 4.7 11 8 9zm.8 3.6c.3 5-15.5 3-19.7-2 13 3 19-2 19 2z"/><path d="M178 372.3c1.8 4.4-13.4 3.3-18.8.8 8.7 0 17.6-3 18.8 0z"/><path d="M185.2 375.5c1.6 4-12.4 4-19.3 1.7 9 0 17-5.6 19-1.7zm10.2 2c2.5 4.8-12.4 5.2-17.2 3 8.6-1.2 15-6.6 17.2-3z"/><path d="M178 369.6c-4.7 3-4.5-5.8-8.2-12 6 5.5 11.4 9.2 8.2 12zm8.4 3.2c-4 3.5-7-8.6-10.8-15.3 6 6.4 14.4 12.4 10.8 15.3zm11 3.4c-3.3 3.8-13-11.5-16.5-19.5 5 6.2 19 16.2 16 19.5z"/></g><g fill-rule="evenodd" fill="#fff"><path d="M160.8 363.2c.5 5.3-14-.5-17.6-5.5 7.8 2.6 17 1.3 17.6 5.5zm9 2.3c3-2.2-3.3-7.8-8.2-9 .6 3.4 4.7 11 8 9zm.8 3.6c.3 5-15.5 3-19.7-2 13 3 19-2 19 2z"/><path d="M178 372.3c1.8 4.4-13.4 3.3-18.8.8 8.7 0 17.6-3 18.8 0z"/><path d="M185.2 375.5c1.6 4-12.4 4-19.3 1.7 9 0 17-5.6 19-1.7zm10.2 2c2.5 4.8-12.4 5.2-17.2 3 8.6-1.2 15-6.6 17.2-3zm-17.4-8c-4.7 3-4.5-5.7-8.2-11.8 6 5.4 11.4 9 8.2 12z"/><path d="M186.4 372.8c-4 3.5-7-8.6-10.8-15.3 6 6.4 14.4 12.4 10.8 15.3zm11 3.3c-3.3 4-13-11-16.5-19 5 6 19 16 16 20z"/></g><path d="M188 387.8c-1.7 6-26.4-5.5-29-11.5 14 7.5 29.4 6 29 11.5z" fill-rule="evenodd" fill="#fff"/><g fill-rule="evenodd" fill="#fff"><path d="M108.6 267.6c-.6-.7-2.2 0-1.8 1.8.4 2.5 4 15 10.2 19.4 4.4 3 27.6 8.3 38 10.4 6 1.2 10.8 4 14.6 8.7-1.6-6-3-11-5-16s-7-10-12.5-11c-10-1-23-1-32-6-5-2-8-5-11-9z" stroke="#000"/><path d="M108.6 267.6c-.6-.7-2.2 0-1.8 1.8.4 2.5 4 15 10.2 19.4 4.4 3 27.6 8.3 38 10.4 6 1.2 10.8 4 14.6 8.7-1.6-6-3-11-5-16s-7-10-12.5-11c-10-1-23-1-32-6-5-2-8-5-11-9z"/></g><g stroke-linejoin="round" fill-rule="evenodd" stroke="#000" fill="#fff"><path d="M166.3 317.3c3.2 2.3 6.7-6 2.6-14-1 7.6-7 10.2-3 14z"/><path d="M169.3 325c4.4 1.3 5.8-6.5 3-12.7.4 6.7-7 10.7-3 12.7z"/><path d="M172.7 331c4.2 2.2 5.8-5.6 2.8-11.4.3 7.4-6 9.6-2.8 11.5z"/><path d="M171 331.6c-1.8 5-11.5-4.3-13-9.4 6 6 14 5.3 13 9.4z"/><path d="M166.5 324c-2 5-14-8-17-14.2 6.2 6 18.4 10.6 17 14z"/><path d="M164 316.4c-1.8 5.7-15.2-9.5-19-15 6.4 6 20.5 10.8 19 15z"/><path d="M163.7 310.7c4.6-1-.3-4.8-6-11-.3 6.6.8 11.2 6 11zm-8-3.7c2-2.2-2-3.2-6.8-8.7-1 3.7 4 10.5 6 8.7zm22.7 24.7c2.6 1.5 4.4-3.7 1.2-8.5-.8 5.2-3.5 6.6-1.2 8.5z"/></g><g fill-rule="evenodd" fill="#fff"><path d="M166.3 317.3c3.2 2.3 6.7-6 2.6-14-1 7.6-7 10.2-3 14z"/><path d="M169.3 325c4.4 1.3 5.8-6.5 3-12.7.4 6.7-7 10.7-3 12.7z"/><path d="M172.7 331c4.2 2.2 5.8-5.6 2.8-11.4.3 7.4-6 9.6-2.8 11.5z"/><path d="M171 331.6c-1.8 5-11.5-4.3-13-9.4 6 6 14 5.3 13 9.4z"/><path d="M166.5 324c-2 5-14-8-17-14.2 6.2 6 18.4 10.6 17 14z"/><path d="M164 316.4c-1.8 5.7-15.2-9.5-19-15 6.4 6 20.5 10.8 19 15zm-.3-5.7c4.6-1-.3-4.8-6-11-.3 6.6.8 11.2 6 11z"/><path d="M155.7 307c2-2.2-2-3.2-6.8-8.7-1 3.7 4 10.5 6 8.7zm22.7 24.7c2.6 1.5 4.4-3.7 1.2-8.5-.8 5.2-3.5 6.6-1.2 8.5z"/></g><g stroke-linejoin="round" fill-rule="evenodd" stroke="#000" fill="#fff"><path d="M122.7 298.6c-5.4 3.2-14-9.8-16.4-15.2 4.8 6.2 17.4 11.8 16.4 15.2z"/><path d="M127.4 306c-3 3.5-12.5-5.6-15.8-10.2 5 4.4 17 5 15.8 10.3z"/><path d="M132.5 313c-1 4.5-14.8-5.7-18-10.6 6 5.6 19 5 18 10.6z"/><path d="M130.4 318c-2 4-13.4-6.2-16-11.5 6.8 6 17.7 7.3 16 11.4zm-5.8-20c3.6-4 2-5.6-.5-11.5-1 6-3 8.5 1 11.4zm4.7 7c6.5.2 0-7.6-1.4-14.2 0 7.5-2 13.4 1 14z"/><path d="M133.4 311.2c4.5-1 3.2-7.3-.2-15 .7 8.3-3.8 13 .2 15zm-1.5 12.5c-2 5-15-6.6-17-11 6 5.4 17 7.2 16 11z"/><path d="M139.5 331.5c-2 5-15.2-5-19.3-10.7 8 6.3 20.3 5.7 19.3 10.7z"/><path d="M147.3 339.4c-2.2 7-16-4-20.2-9.6 9 6.7 22 4.6 21 9.6zm-13-18c3.7 2 5.2-8.7 3-16.3 0 9-7.5 15-3 17z"/><path d="M140.7 330c4.5 1.3 3-10.3-.8-17.8-1 7.5-4 14.5 0 17.8zm8 8c5 .2 1.6-10-2.6-15.7 1 7.5-1 14.8 3 15.7zm-9 4.3c-1.4 2.6-5-2.2-11.3-5.7 5.5 1.5 12 3.3 11.4 5.7z"/></g><g fill-rule="evenodd" fill="#fff"><path d="M122.7 298.6c-5.4 3.2-14-9.8-16.4-15.2 4.8 6.2 17.4 11.8 16.4 15.2z"/><path d="M127.4 306c-3 3.5-12.5-5.6-15.8-10.2 5 4.4 17 5 15.8 10.3z"/><path d="M132.5 313c-1 4.5-14.8-5.7-18-10.6 6 5.6 19 5 18 10.6z"/><path d="M130.4 318c-2 4-13.4-6.2-16-11.5 6.8 6 17.7 7.3 16 11.4zm-5.8-20c3.6-4 2-5.6-.5-11.5-1 6-3 8.5 1 11.4zm4.7 7c6.5.2 0-7.6-1.4-14.2 0 7.5-2 13.4 1 14z"/><path d="M133.4 311.2c4.5-1 3.2-7.3-.2-15 .7 8.3-3.8 13 .2 15zm-1.5 12.5c-2 5-15-6.6-17-11 6 5.4 17 7.2 16 11z"/><path d="M139.5 331.5c-2 5-15.2-5-19.3-10.7 8 6.3 20.3 5.7 19.3 10.7z"/><path d="M147.3 339.4c-2.2 7-16-4-20.2-9.6 9 6.7 22 4.6 21 9.6zm-13-18c3.7 2 5.2-8.7 3-16.3 0 9-7.5 15-3 17z"/><path d="M140.7 330c4.5 1.3 3-10.3-.8-17.8-1 7.5-4 14.5 0 17.8zm8 8c5 .2 1.6-10-2.6-15.7 1 7.5-1 14.8 3 15.7zm-9 4.3c-1.4 2.6-5-2.2-11.3-5.7 5.5 1.5 12 3.3 11.4 5.7z"/></g><g stroke-linejoin="round" fill-rule="evenodd" stroke="#000" fill="#fff"><path d="M137 256.4c4.6-3.5 1-10 0-16.3-1.6 6-5.6 14 0 17zm-.2 8.7c-7.2 0-6-10-6.3-15 2 8 8 10 6.2 16zm1-1c6 0 5.8-7 6-14-3 7-6.6 8-6 14z"/><path d="M137.6 272.4c-4.6.4-7-4.2-8-11.4 4.3 6.6 8.3 4.6 8 11.4zm1.7-.5c6 0 5-7 4.8-12-1 5-6 6-4 11z"/><path d="M130 269c.4 4.5 3.3 12.3 8 10.6 2-5.6-4-6.8-8-10.7z"/><path d="M139.4 280c-2-4 4.7-6 6.2-11.2.8 7.5 0 12.4-6.2 11.3z"/></g><g fill-rule="evenodd" fill="#fff"><path d="M137 256.4c4.6-3.5 1-10 0-16.3-1.6 6-5.6 14 0 17zm-.2 8.7c-7.2 0-6-10-6.3-15 2 8 8 10 6.2 16zm1-1c6 0 5.8-7 6-14-3 7-6.6 8-6 14z"/><path d="M137.6 272.4c-4.6.4-7-4.2-8-11.4 4.3 6.6 8.3 4.6 8 11.4zm1.7-.5c6 0 5-7 4.8-12-1 5-6 6-4 11z"/><path d="M130 269c.4 4.5 3.3 12.3 8 10.6 2-5.6-4-6.8-8-10.7z"/><path d="M139.4 280c-2-4 4.7-6 6.2-11.2.8 7.5 0 12.4-6.2 11.3z"/></g><g stroke-linejoin="round" fill-rule="evenodd" stroke="#000" fill="#fff"><path d="M120 232.5c3.7-4 .4-10.4-.7-16.7-1.5 6-4.2 13.8.7 16.7zm0 7.5c-6.7.7-8.3-12.7-9-18.5 2.2 8 9.7 11.6 9 18.5zm1.2 0c4.7-2.5 3.6-7.7 5-11.6-3 4.8-6 5.5-5 11.5z"/><path d="M120 248.7c-7 .5-11-14.3-11.3-20 2.2 7.8 12 12 11.2 20zm1.2-.3c6.5-1.5 5.7-5.6 4.8-12.4-2 6.8-5.7 5.4-4.8 12.4z"/><path d="M119.8 257.2c-7.5 1.3-7-10.7-13-19.4 5.2 6.5 14.6 14.6 13 19.4zm1.8-.4c5.7.2 6.2-8.4 6-12-1.4 3.5-8 7-6 12z"/><path d="M108 248c3 9.2 7 18.4 11.8 17.7 2.4-5.2-4.7-6-11.8-17.7z"/><path d="M121.6 264.4c-2-4 4.8-6 6.2-11.2.8 7.4 0 12.3-6.2 11.2zm-11.6-6c4 8.4 6 18 11.4 16.6 2-6.5-6-7.8-11.4-16.5z"/><path d="M122.6 273.4c-2.4-4.4 4.4-6 6-12 1 8 0 13.6-6 12z"/></g><g fill-rule="evenodd" fill="#fff"><path d="M120 232.5c3.7-4 .4-10.4-.7-16.7-1.5 6-4.2 13.8.7 16.7zm0 7.5c-6.7.7-8.3-12.7-9-18.5 2.2 8 9.7 11.6 9 18.5zm1.2 0c4.7-2.5 3.6-7.7 5-11.6-3 4.8-6 5.5-5 11.5z"/><path d="M120 248.7c-7 .5-11-14.3-11.3-20 2.2 7.8 12 12 11.2 20zm1.2-.3c6.5-1.5 5.7-5.6 4.8-12.4-2 6.8-5.7 5.4-4.8 12.4z"/><path d="M119.8 257.2c-7.5 1.3-7-10.7-13-19.4 5.2 6.5 14.6 14.6 13 19.4zm1.8-.4c5.7.2 6.2-8.4 6-12-1.4 3.5-8 7-6 12z"/><path d="M108 248c3 9.2 7 18.4 11.8 17.7 2.4-5.2-4.7-6-11.8-17.7z"/><path d="M121.6 264.4c-2-4 4.8-6 6.2-11.2.8 7.4 0 12.3-6.2 11.2zm-11.6-6c4 8.4 6 18 11.4 16.6 2-6.5-6-7.8-11.4-16.5z"/><path d="M122.6 273.4c-2.4-4.4 4.4-6 6-12 1 8 0 13.6-6 12z"/></g><path d="M134.2 217.2c4 1 8.2-3.4 6.8-10-4.6 1-6.7 5.2-6.8 10zm-12.7-3.3c.3 1 2.6 2 2-1-.6-2-.7-4 0-6 .8-2 .5-6 0-8-.8-2-3-1-2 0s1 4 .3 6c-1 2-.7 5-.3 7z" fill-rule="evenodd" stroke="#000" fill="#fff"/><path d="M134.2 217.2c4 1 8.2-3.4 6.8-10-4.6 1-6.7 5.2-6.8 10zm-12.7-3.3c.3 1 2.6 2 2-1-.6-2-.7-4 0-6 .8-2 .5-6 0-8-.8-2-3-1-2 0s1 4 .3 6c-1 2-.7 5-.3 7z" fill-rule="evenodd" fill="#fff"/><path d="M135.3 206.7c-.4 3-3 3.2-2.2-1 1-3.4 1-6 0-8.6 0-3 0-9 1-11s3-1 2 1c-1 3-1 7 0 10 1 4 1 8 1 11zM154 236c-1.7 2.4-4 1-2.8-2.5 1.2-2.6 1.4-5.7 2.7-7.5 1-2.8 4-5.2 6-7 2-1.7 3 0 1 1.6-2 2-4 4.6-6 6.5-3 4-2 7-3 9z" fill-rule="evenodd" stroke="#000" fill="#fff"/><g fill-rule="evenodd" fill="#fff"><path d="M242.5 131.6c.2 1 1.5 1 1.2-.4-.3-1-1-2.2-.6-3 1-1.2 1-3.2 1-4 0-.8-1-.3-1 .4 1 .8 0 3 0 3.7 0 1 1 2.3 1 3.3z" transform="matrix(-2.453 -.9787 -1.138 2.5207 903.448 145.415)" stroke="#000" stroke-width=".4"/><path d="M158.7 239.8c-1.6 2.3-4.7 1-2.3-2.2 2-2.6 4.8-4.6 5-7.2 0-3.3 2-8.3 3.8-10 2-1.8 4 .7 2 2-2.2 1.3-3.6 7.2-3.5 9.4 0 3.3-3.4 5.6-5 8z"/></g><path d="M154 236c-1.7 2.4-4 1-2.8-2.5 1.2-2.6 1.4-5.7 2.7-7.5 1-2.8 4-5.2 6-7 2-1.7 3 0 1 1.6-2 2-4 4.6-6 6.5-3 4-2 7-3 9z" fill-rule="evenodd" fill="#fff"/><g fill-rule="evenodd" fill="#fff"><path d="M242.2 131.8c0 .8 1.3 1 1.2-.2 0-1.2-1.8-2.3-.7-4 .5-1 .5-2.6.2-3.4-1-1-2-.3-2 .3 0 .8 0 2.3-1 3-1 2.2 1 3.3 1 4.3z" transform="matrix(1.9463 0 0 4.087 -343.233 -314.153)" stroke="#000" stroke-width=".3"/><path d="M128.2 224.4c-.2 3.2 2.4 4 2.3-.6 0-5-3.5-9.3-1.4-16.7 2-3 2-10 1-13 0-3-3-1-2 2s0 9-1 13c-2 9 2 14 2 18z"/></g><path d="M135.3 206.7c-.4 3-3 3.2-2.2-1 1-3.4 1-6 0-8.6 0-3 0-9 1-11s3-1 2 1c-1 3-1 7 0 10 1 4 1 8 1 11zM110 267c1 1.4 3.2.5 1.3-1.5-1.5-1.6-1-2-2-4-1-2.3-.8-3.5-2-5-1-1.5-2.5 0-1.5 1.2 1.3 1.5 1 2.6 1.7 4 1.4 2.5 1 3.7 2.4 5.3zm33 40c4 2 7 7 7.3 11 .4 4.5 1 8.3 3 11.6-3.2-1-4.8-6-5.2-11 0-5.3-3-7.5-5-11.5zm8.4 9.7c2.8 5 6.6 7 6.8 10.7.4 4.4.7 4.6 2 9-3.4-1-4.2-1.3-5-7.8-.6-4.5-4.3-7.7-3.8-12z" fill-rule="evenodd" fill="#fff"/><path d="M301.5 401.7c0 2 .3 3.4 1.5 5-6.7-2.7-16-1.3-22.5 1.7-2.8 1.4-6.3-1.5-3-4.3 4.8-3 16-1 24-2zm-93.7 0c0 1.7 0 3.3-.8 5 7.3-3 15-.6 22.3 2.4 5 2 5.4-1 4.5-2-1.5-2-4.4-4-8.2-4h-17.8zm6-35.4c-2-1-4.2 0-6.3 2.2-7 7-15.4 13.6-22 18.8-2.5 2.2-5 6 5.6 10 1 0 9 3 13 3.2 2 0 2 3 2 3.7-1 1.6 0 2.2-2 3.7-1 1 1 3 2 2 6-5 16-2 25 1 2 0 7 0 6-3 0-4 3-6 4-6 4 0 23 1 29 0 4-1 4 4 6 6 2 1 6 1 10 0 7-3 17-3 21-1 2 1 3 0 2-1-1-2-1-3-2-4-1-3 0-4 1-4 18-2 24-9 18-14-7-7-15-13-21-20-2-2-3-3-7-1-11 5-26 9-41 9-13 0-32-6-40-10z" fill-rule="evenodd" fill-opacity=".2" stroke="#000"/><path d="M301.5 401.7c0 2 .3 3.4 1.5 5-6.7-2.7-16-1.3-22.5 1.7-2.8 1.4-6.3-1.5-3-4.3 4.8-3 16-1 24-2zm-93.7 0c0 1.7 0 3.3-.8 5 7.3-3 15-.6 22.3 2.4 5 2 5.4-1 4.5-2-1.5-2-4.4-4-8.2-4h-17.8zm6-35.4c-2-1-4.2 0-6.3 2.2-7 7-15.4 13.6-22 18.8-2.5 2.2-5 6 5.6 10 1 0 9 3 13 3.2 2 0 2 3 2 3.7-1 1.6 0 2.2-2 3.7-1 1 1 3 2 2 6-5 16-2 25 1 2 0 7 0 6-3 0-4 3-6 4-6 4 0 23 1 29 0 4-1 4 4 6 6 2 1 6 1 10 0 7-3 17-3 21-1 2 1 3 0 2-1-1-2-1-3-2-4-1-3 0-4 1-4 18-2 24-9 18-14-7-7-15-13-21-20-2-2-3-3-7-1-11 5-26 9-41 9-13 0-32-6-40-10z" fill-rule="evenodd" fill="#fff"/><g fill-rule="evenodd" fill="#fff"><path d="M338.6 332c.8 2.8 12-2.3 17.7-13.5-7.4 8-19.5 8-17.7 13.5z" stroke="#000"/><path d="M338.6 332c.8 2.8 12-2.3 17.7-13.5-7.4 8-19.5 8-17.7 13.5z"/></g><g fill-rule="evenodd" fill="#fff"><path d="M253.4 179c1.7 2.4 4 4.3 4 6.4.3 2.3.5 2.4 1 4.7-1.6 0-2 0-2.5-4-1-2-3-5-3-7z" transform="matrix(-2.0175 0 0 1.844 868.637 -14.906)" stroke="#000" stroke-width=".5"/><path d="M357.3 315c-3.4 4.7-8 8-8.2 12 0 4.2 0 4.5-1 8.7 4-.8 4-1 5-7.6 1-4 6-9 5-13z"/></g><g fill-rule="evenodd" fill="#fff"><path d="M254.4 180.3c2 1 2.5 2.6 2.6 4.7 0 2.4.6 4.2 1.6 6-2 .2-2.4-3.2-2.7-5.8-1-2.7-1-3-2-5z" transform="matrix(-2.039 0 0 1.9463 881.502 -42.498)" stroke="#000" stroke-width=".5"/><path d="M362.8 308.4c-4 2-5 5.2-5.2 9.2 0 4.6-1.3 8.2-3.4 11.5 4.2 1 5-6 5.5-11s1.4-5 3-9z"/></g><g fill-rule="evenodd" fill="#fff"><path d="M242.2 131.4c.2 1 1.4 1 1-.3-.2-1-.3-1 0-2 .5-1 .4-3 0-4-.3 0-1.5 0-1 1s.6 3 .2 3c-.5 1-.4 3-.2 4z" transform="matrix(2.0818 0 0 3.0397 -129.796 -193.086)" stroke="#000" stroke-width=".4"/><path d="M374.5 206.5c.3 3 2.8 3.2 2-1-.5-3.4-.6-6 0-8.7 1-3.4.7-9.3 0-11.7-.7-2-3-1-2 1 1 3 1 8 .3 10-1 4-.7 8-.3 11z"/></g><g fill-rule="evenodd" fill="#fff"><path d="M242.2 131.8c0 .8 1.3 1 1.2-.2 0-1.2-1.8-2.3-.7-4 .5-1 .5-2.6.2-3.4-1-1-2-.3-2 .3 0 .8 0 2.3-1 3-1 2.2 1 3.3 1 4.3z" transform="matrix(-1.9157 0 0 4.087 845.476 -314.367)" stroke="#000" stroke-width=".3"/><path d="M381.4 224.2c.2 3.2-2.3 4-2.2-.6 0-5 3.5-9.3 1.4-16.7-1-4-1-11-.4-14 .5-4 3-1 2 1-1 3 .2 9 1 12 2.4 8-2 13-1.8 17z"/></g><g fill-rule="evenodd" fill="#fff"><path d="M242.2 131.4c.2 1 1.4 1 1-.3-.2-1-.3-1 0-2 .5-1 .4-3 0-4-.3 0-1.5 0-1 1s.6 3 .2 3c-.5 1-.4 3-.2 4z" transform="matrix(-1.9157 0 0 1.9463 852.132 -42.178)" stroke="#000" stroke-width=".5"/><path d="M388 213.6c-.3 2-2.5 2-2-.6.7-2 .8-3.8 0-5.5-.7-2.2-.4-6 .2-7.5.7-1.7 3-.7 2 .6-1 1.5-1 4.6-.4 6 1 2.2.7 5 .3 7z"/></g><g fill-rule="evenodd" fill="#fff"><path d="M374.2 217.3c-3.3 1.4-7.6-8-4.4-9.8 2.5-.6 8 8 4.4 9.8z" stroke="#000"/><path d="M374.2 217.3c-3.3 1.4-7.6-8-4.4-9.8 2.5-.6 8 8 4.4 9.8z"/></g><g fill-rule="evenodd" fill="#fff"><path d="M242.2 131.7c.2 1 1.3 1 1.3-.5 0-1 .5-2 .3-3s-1-2.3-1.2-3c-.4-1-1.2-.5-.8.2.3 1 .7 2 .8 3 .2 1.5-.6 2.3-.4 3.3z" transform="matrix(2.367 -.9787 1.098 2.5207 -362.4 141.044)" stroke="#000" stroke-width=".4"/><path d="M355.6 236c1.5 2.3 3.8 1 2.5-2.6-1-2.6-1-5.7-2-7.5-2-3-5-6-6-7-1-2-3 0-1 1l6 6c3 3 2 6 3 9z"/></g><g fill-rule="evenodd" fill="#fff"><path d="M242.5 131.6c.2 1 1.5 1 1.2-.4-.3-1-1-2.2-.6-3 1-1.2 1-3.2 1-4 0-.8-1-.3-1 .4 1 .8 0 3 0 3.7 0 1 1 2.3 1 3.3z" transform="matrix(2.367 -.9787 1.098 2.5207 -367.113 144.086)" stroke="#000" stroke-width=".4"/><path d="M351.5 238.5c1.5 2.2 4.5 1 2.2-2.3-2-2.5-4.6-4.5-4.8-7-1-3.5-2-8.5-4-10.2-2-1.8-4 .8-2 2 2 1.4 3 7.2 3 9.5 0 3.2 3 5.6 5 8z"/></g><path stroke-linejoin="round" d="M220.8 344c4.5 3.5 8.8 7.6 10 12.7 1.4 4.8 2.2 8.4 5.2 13-4.7-3-6.6-7.5-8-12.5-1.3-5-4-8.6-7.2-13.3z" fill-rule="evenodd" stroke="#000" fill="#fff"/><path d="M220.8 344c4.5 3.5 8.8 7.6 10 12.7 1.4 4.8 2.2 8.4 5.2 13-4.7-3-6.6-7.5-8-12.5-1.3-5-4-8.6-7.2-13.3zm-5 0c4 3.4 6.8 7.3 8 12.4 1.4 4.8 3.3 8.5 6 12.8-4.4-3-7.2-7.2-8.7-12.2-1-5-2-8.5-5-13zm78.6 0c-4.3 3.4-7 7.4-8.4 12.5-1.3 4.8-3.2 8.6-6 12.8 4.5-3 7.4-7.2 8.8-12.2 1.3-4 2.8-8 5.6-13zm-5.3 0c-4 3.6-8 7.7-10 12.8-1 4.8-2 8.4-5 13.2 5-3 7-7.7 8-12.7 2-5 4-8.7 8-13.4zm-15 12c0-1 0-1.7-1-2l-4-1.3c-1-.4-2 .8-2 1.5v3.3c0 1.2 1 1.2 1 1.4 2 0 3 0 4 1 1 0 2 0 3-1l1-3zm-17 0c0-1 1-1.8 1-2 2-.6 3-.7 4-.6 2 0 2 .3 2 1v3.5c0 1 0 1-1 1s-3 0-4 1-1 0-2-1v-4zm-21-.3c0-1 1-1.6 2-2l5-1.2c2-.4 3 .7 3 1.5v3.2c0 1.2 0 1.3-1 1.5-1 .2-2 .4-4 1.2-1 0-2 0-2-1v-4zm18 0c1-1 0-1.7-1-2-1-.5-2-.6-3-.6s-2 1-2 2v4c0 1 0 2 1 2 1 1 3 1 4 1s2 1 2-1v-4zm-16 8c2 2.8 4 7.3 7 6.5 0-2.3-3-3.8-6-6.6zm5 1c6 2.5 12 1.8 12 5.8-5 .6-8-1.8-12-6zm31-.7c-1 2.8-3 7-6 6.2 0-2 4-3.6 7-6.2zm-4 1c-6 2.3-11 1.7-12 5.4 6 .6 8-1.7 13-5.5z" fill-rule="evenodd" fill="#fff"/><path d="M286.8 302.6h13.6c0 5 3 10.6 7.3 13.8h-26c4-3.7 5-8 5-13.8z" fill-opacity=".5" fill-rule="evenodd" stroke="#000" fill="#fff"/><path d="M286.8 302.6h13.6c0 5 3 10.6 7.3 13.8h-26c4-3.7 5-8 5-13.8z" fill-rule="evenodd" fill="#fff"/><path d="M189.7 385.8c-.8.5-.7 2.2.8 2.8 13.5 5 26.7 14 64.4 13.6 38-.4 51-9.2 63-13.3 1-1 3-2 1-4-7-6-14-10-19-17-1-2-4-1-5 0-15 5-28 8-42 8s-28-4-41-9c-1-1-3 0-4 1-6 6-13 11-20 17z" stroke="#000" stroke-width=".5" fill="none"/><path d="M208 376.4c-1.6-1-2.4.3-1.2 1.7 1.5 2 4 3 6.4 4 1.5 1 4.6 0 6 0 1.4 0 2 3 4.2 3 2.3 0 3.7-6 3.8-9 0-2-2.6 0-2.4 0 .7 2-.6 7-2 7-1 0-2-2-3.6-2H215c-4 0-6-1-7-2z" fill-rule="evenodd"/><path d="M211 374.8c2 1 3.7-.8 4.8.5 2.8 3 6.4-1.6 2.2-1.4-1.7 0-2-2-5-1-1.5 0-3 1-2 1zm.5 14c-1.5-.7-2 .8-1 1.7 1 1 6.3 1.6 7.6.7 3-1.6 1-6 0-7 0-.8-2-.8-1 1 1 1 2 3.2 1 4.2s-3 0-5-.6zm11.7 1.3c.4 0-.5-2-2 0-1.4 2-.3 7 3.8 8 4 1 7 0 7.6-2 .4-1-1.8-2-.7-4 0-1 2 0 3-1 0-1 0-2-2-4-1 0-3 1-3 2 0 2 2 1 1 2s-3 1-4 3c-1 1 2 3 1 4-2 0-4 1-5 0-2 0-2-3-1-4zm-14.5-7c-1 0-2.3 1-2.3 2s.6 3 2 2c1.3-1 .2-1 .5-1 0 1-1 1-2 2s-3 1-4 1c-2-1-1-1-3-2s-3 1-1 2c1 1 4 3 7 2 2-1 4-2 3-4 0-1-1-3-3-2zm94.6-1c-1.4-1-.5-2 1.4-2 1.7 1 4.5 3 4.7 5 .2 3-4.4 5-6 5-3 0-2.6-2-.4-2 1.8 0 4 0 4-2 0-1-2.8-2-3.7-3zm-9.8-7c-1.8-1 2-3 3-1 1.3 3 3 6 4.3 9 1 3-.3 3-1.2 2-1.4-2-3.5-5-6-8zm-8.5 5c1.8-1 1.8 2 1 2-1 1-2.8-1-1-2zm5.5-2c2-1 1.8 2 1 2-1 1-2.7-1-1-2z" fill-rule="evenodd"/><path d="M232.5 381c-2.8-1.8.6-4.5 2.5-2.5 2.8 3 5.4 9 7.5 11.4 2 2 .4-7 1-9 .4-2 1.5-1 1.5 0 0 3-.5 10 .4 11 1.7 1 1.4 2 2.8 2 1.5-1 1.3-1 2.7-1 1 0 1 1 3 1 1 0 1-1 2-2 1 0 0 2 0 3-2 0-5-1-6-1s-4 1-5 0c-2-1-2-3-3-3-2 0-1 3-5 3-2 0-2-1-1-2 1-2 4-3 3-4-2-4-6-9-9-11zm24.4.5c1 4.4 1 10.3 2 14.4 0 1 1 0 1-2-1-5-1-10-2-14-1-2-3-1-2 0zm3 1c-1-1.7 1-2 1-.8 1 3.6 1 11.8 2 12 3 .4 7-.2 11-1 2-.4 2-1.8 2-2.3 0-2.2 2-2 2 .3 0 1.2-1 3.4-3 4-5 .7-11 2-15 1.3-3-.6-2-8.7-3-13.4z" fill-rule="evenodd"/><path d="M265.7 385.8c0-2.3 1.8-2.7 1.8-.7 0 5 5.6 4 6.8 2 1-1 .3-2-.6-3-1-2 1.2-2 2-1 1 2 1.4 6 0 7-1.7 2-6.5 2-8.6 1-1 0-1-2-1-3zm-2.5-6.2c.3 1.5 4.4 1 4.2-.2 0-1-4.4-.7-4.2.2zm5.3 1.2c.2 1.5 2.8 1 2.7 0 0-1.3-2.8-1.5-2.7 0zm8-1.8c-1.3-2 1.3-2 2-.6 2.4 3.3 3.8 8.7 6 12.3 1 1.7 2 .2 2.2-.2 0-.5-.7-1-.8-2.6-1-2 2-3 4-2 1 1 0 2 1 2h3c0-2-1-1-2-2-2-1-1-5 2-4 1 1 2 4 1 5s-3 2-5 1-3-3-3-2c1 1 0 2-1 3-2 1-4 2-5 0-3-4-4-10-7-14z" fill-rule="evenodd"/><path d="M205.7 121.3c-.2-2.3 3.3-2.4 3 .6-.6 3 7.2 13 7.8 19 .5 4-2.3 7-5 10-3.5 2-8.7 2-11.2 1-1.5-1-2.8-6-1.7-7 .4-1 2.2 6 6 6 5.4 0 9.7-4 9.8-8 .3-6-8.7-16-8.8-23zm15.5 15.3c1-.7 2.3 2 1.3 2.8-.8.5-2.4-2-1.3-2.8zm2.3-5.6c-.4.2-1.3 0-1-.4 1.2-1.8 4-4.5 5.8-5.4.6-.3 1.6.7 1.2 1.2-1 1.7-4 3.6-6 4.6zm20.6-16.3c1-1 4-2.2 5-3 1-.6 1 .7 1 1.4 0 1-3 3-4 3 0 0-1 0-1-1zm7 .4c1-1 3-4 5-5 1 0 2 0 2 1 0 2-3 4-4 6 0 1-1 0-1 0zm-6 5s0 1 1 1c1 1 3 1 3 0 1 0 1-4-1-2-1 2-1 1-2 2zm-11 9c-2-1 1-4 3-2 5 4-6 16-12 22-1 1-2-2 0-3 4-3 8-8 11-12 1-1 1-2-1-4zm25-10c0-1-2 0-3-2 0-1 3-2 5 0s1 6-3 7c-3 0-8 5-7 5 1 1 9 2 14 1 3 0 3 3 0 3-2 1-5 0-7 1-3 1-4 5-6 7 0 0-1-1-1-2 1-2 3-5 6-6 2 0-4 0-5-1-1 0-1-2 0-3s5.7-6 7.7-6 4 0 4-1zm8 1l3-3c1 0 2 0 2 2 0 1-1 2-2 3s-2 0-1-1zm11-4c2 0 2 3 0 3 0 1-1-3 0-3zm-3 9c0 2 1 2 3 2s4 0 4-2-1-4-1-2 0 4-1 3 0-1-1 1c0 1 0 0-1-1 0-1-1 0-1 0zm-16 10c0 3 0 8 2 8s6-6 8-10c1-2 3-2 2 0-2 3-1 10 0 12 0 2 4 0 5-2 1-3 0-8 0-11 0-2 2-2 2 0 0 3-1 10-1 12 1 2 5 4 6-1 1-3 2-6 0-9-1-2 2-2 4 1 1 2-1 5-1 7 0 4-3 6-5 6s-3-2-5-2-4 3-5 2c-6 0-3-9-4-9-2 0-4 8-6.2 8s-5-6-4-9 2.8-3 2.5-2zm28-13c-3-2 0-6 2-4 2 3 5 11 7 11 1 1 1-5 2-8 0-2 3-1 2 1-1 1-4 11-3 11 2 4 4 8 5 13 0 2-2 0-2 0-2-2-4-11-4-10-1 6-2 7-3 12-1 1-3 1-3-2l4-14c-2-5-5-9-8-11z" fill-rule="evenodd" stroke="#000" fill="#fff"/><path d="M291 148.4c-1 0-2 1.7 1.8 2.4 5 1 10.7-.8 12.5-5.8 2-6 3.2-11.7 4.3-14 1.3-2.4 3-2.2 1.7-5.8-1-2.7-2.5-2-2.8-.5-1 4-4.3 16.3-5.4 18.5-2 4.2-6 5.8-12 5.2z" fill-rule="evenodd" stroke="#000" fill="#fff"/><path d="M301.2 128.6c-.6-1.2-1.8-.3-1.6 1 0 1.2 1 1.8 2 1.8s3.5 0 3.5-1.8c0-1.3-1-2.4-1-1 0 1.3-1 1.2-2 0zm1.3-5c-.4.3 0 1.8.4 1.8 1 0 4-.6 5-1.5 0-1 0-2-1-2-2 0-5 0-6 1zm14.2 3.7c1.3-2 4.6-2 3.4.7 0 1.8-9 18-10 20-1 2.3-2 1.2-1-.6l9-20z" fill-rule="evenodd" stroke="#000" fill="#fff"/><path d="M304.2 151.4c-.4-1.3-2.4-3.2-2.2.2.4 6.3 9 4.3 11.6 2 2.4-2 .3 7 3.4 8 1.8.7 5-1.7 6.6-3.8 4.4-5.7 7.3-14 11.5-19.6 2-2.2 0-3.8-1-2-3 6.2-8 18.8-13 22-4 2.7-3-3.3-3-5 0-1.4-2-3.3-4-1.5-1 1-4 2-6 2-1-.2-2 0-2-2.3z" fill-rule="evenodd" stroke="#000" fill="#fff"/><path d="M319.5 139.8c0-.4-1.8-.5-1.8 1.3s1.7 2 2 2c2.5-2-.5-1-.2-3zm-3.7 7.3c-.5 1-1 2 .2 2h6.4c.8 0 1-1-.6-1h-6zm27.6-1c1.7-6 6 1 2.2 5-5.6 6-7.3 16-16.2 18-2.4 1-6.7-1-8-2-.4 0 .4-2 2-1 2 2 6.6 2 9 1 5-5 9-11 11-19zm-92.8 14c-.5 1-1.7 1-1.8 1-.5 3 0 4-.5 6s-2 3-2 1c.2-2 2-5 .7-6-1 0-1.6-1-.6-2 1.7-1 2.7-1 4 0 .3 0 .5 1 .2 1zm-1.3-3c-2.4 2-4.5 3-6.7 6-1 1-1 2-1.4 3-.5 1-2.2 2-2.8 1-1 0-.7-3-1.7-1-1 1-1.4 3-2.6 3-1 0-3-2-2-2 4 0 4-3 5-3 2 0 2 2 3 2s1-4 2-4l7-5c1-1 2 1 1 2zm8.6 8c-2 1-2 3-1 3 0 1 2 1 2-2 0-1 0 6 3 3 1-1 5 0 6-2 1-1 1-2 0-4 0 0-2 0-2 1 0 2-1 3-2 3-1-1 0-3-1-4 0-1-1-1-1 0-1 0 0 3-1 3-2 1-1-2-2-2-3-1-3 0-4 1zm14-4c1 0 1 0 3-2 1 0 1 2 1 2-1 2-2 1-2 2-1 1-1 4-1 6h-1c-1-2 0-4 0-6 0-1-1-2 0-2zm-6-7c-1 2-1 3-1 4s1 0 1 0v-4h-2z" fill-rule="evenodd" stroke="#000" fill="#fff"/><path d="M205.7 121.3c-.2-2.3 3.3-2.4 3 .6-.6 3 7.2 13 7.8 19 .5 4-2.3 7-5 10-3.5 2-8.7 2-11.2 1-1.5-1-2.8-6-1.7-7 .4-1 2.2 6 6 6 5.4 0 9.7-4 9.8-8 .3-6-8.7-16-8.8-23z" fill-rule="evenodd" fill="#fff"/><path d="M215 120c.6 0 2.4 2.3 2.3 3 0 .4-2 0-2.6-.4-.4-.4-.2-2.6.2-2.6zm-9 17c-1.5 1 .4 2.7 1.7 2 4.6-3 11.6-6.3 13-12.2.5-2 2.4-5.2 4.2-6 1-.5 4 3.3 5 .3 1-1 4 2 5 0s0-3 0-5c0-1-1-1-2 1-1 1 0 2 0 3s-1 1-2 1-1-1-2-1h-2c-1 2-2 4-4 2s-2-5-4-1c-.7 2-3 4-4 4-2 0-1.8-4-5.7-4-2 1-2 5-2 6 .3 2 6.2 1 6 2-1 5-7 9-12.7 12z" fill-rule="evenodd" stroke="#000" fill="#fff"/><path d="M169.2 158.5c-.3.8.7 2.8 1.8 3 1 0 1.5-2.3 1.2-3-.3-.5-3-.5-3 0zm5.4 8c-.7-.7-2.6 1.2-1 2.5.8.7 4 1.7 5 .2 1-2-1.3-9-.2-9.8.8-.8 4.6 4.7 6.5 5 4 .7 3-7.5 8-7 3 .5 3-3.5 3-6-1-2.5-5-6-6-7.5-3-2-4 1-2 2s5 4 6 6c0 1-3 3-4 2-2-1-5-7-6-8s-3 0-2 2c1 1 4 4 5 6 0 1-2 5-3 5-2 0-5-5-6-7-1-1-3-1-3 0-1 2 0 6 0 9s-2 3-3 2zm-6.7-14c-1 .6 1 2 1 1.5 0-.6 3-3.7 3-4.8-1-1-5-3.2-5-2-1 1.8 3 2.6 3 3-1 .3-2 1.2-3 2.3zm6-13.8s1 4 2 2.4c0-1-3-2-3-2zm2 6.5c-1 .2-2 1.2-1 1.7 1 0 5 1 4-2-1-2 5 0 4-4-1-1-2-3-3-3s-3 1-1 1c1 0 3 2 2 3s-2-1-3-1-1 2-1 2-1-1-2-1zm9-15.4c-1 .3-2 2.2-2 3 0 .6 0 1.2 1 1 0-.3 2-2.2 2-3 0-.5-1-1.3-1-1zm4-.5c-2-1.7 1-4.2 2-.8 0 2 9 12.8 10 16.5 1 2.4 0 3.5-2 1.7-4-5.3-8-12-12-17.4zm8 .2c1-1.6 4-4.8 3-6.6-1-2-2-2-3-2-2 2 1 1 1 2-1 1-2 2-2 4v1z" stroke-linejoin="round" fill-rule="evenodd" stroke="#000" fill="#fff"/><path d="M169.2 158.5c-.3.8.7 2.8 1.8 3 1 0 1.5-2.3 1.2-3-.3-.5-3-.5-3 0zm5.4 8c-.7-.7-2.6 1.2-1 2.5.8.7 4 1.7 5 .2 1-2-1.3-9-.2-9.8.8-.8 4.6 4.7 6.5 5 4 .7 3-7.5 8-7 3 .5 3-3.5 3-6-1-2.5-5-6-6-7.5-3-2-4 1-2 2s5 4 6 6c0 1-3 3-4 2-2-1-5-7-6-8s-3 0-2 2c1 1 4 4 5 6 0 1-2 5-3 5-2 0-5-5-6-7-1-1-3-1-3 0-1 2 0 6 0 9s-2 3-3 2zm-6.7-14c-1 .6 1 2 1 1.5 0-.6 3-3.7 3-4.8-1-1-5-3.2-5-2-1 1.8 3 2.6 3 3-1 .3-2 1.2-3 2.3zm6-13.8s1 4 2 2.4c0-1-3-2-3-2zm2 6.5c-1 .2-2 1.2-1 1.7 1 0 5 1 4-2-1-2 5 0 4-4-1-1-2-3-3-3s-3 1-1 1c1 0 3 2 2 3s-2-1-3-1-1 2-1 2-1-1-2-1zm9-15.4c-1 .3-2 2.2-2 3 0 .6 0 1.2 1 1 0-.3 2-2.2 2-3 0-.5-1-1.3-1-1zm4-.5c-2-1.7 1-4.2 2-.8 0 2 9 12.8 10 16.5 1 2.4 0 3.5-2 1.7-4-5.3-8-12-12-17.4zm8 .2c1-1.6 4-4.8 3-6.6-1-2-2-2-3-2-2 2 1 1 1 2-1 1-2 2-2 4v1zm105 22c0-1.4-2-3.3-2 0 0 6.4 9 4.4 11 2.2 2-2 0 7 3 8 1 .6 5-1.8 6-4 5-5.7 8-13.7 12-19.5 1-2.2-1-3.8-2-2-4 6.2-9 18.8-14 22-5 2.7-3-3.3-3-5-1-1.4-2-3.3-4-1.5-2 1-4 2-6 2-2-.2-3 0-3-2.3zm-83-15c1-.6 2 2.2 1 3-1 .4-3-2.2-2-3z" fill-rule="evenodd" fill="#fff"/><path d="M325.3 134.8c-1-1 1-5 2.5-3.4 3.8 4.5 5.6 19 6.7 29.8 0 0-1.7 1.5-1.7 1.2 0-5.7-2.3-23.4-7.5-27.6z" fill-rule="evenodd" stroke="#000" fill="#fff"/><path d="M223.5 131c-.4.2-1.3 0-1-.4 1.2-1.8 4-4.5 5.8-5.4.6-.3 1.6.7 1.2 1.2-1 1.7-4 3.6-6 4.6zm101.8 3.8c-1-1 1-5 2.5-3.4 3.8 4.5 5.6 19 6.7 29.8 0 0-1.7 1.5-1.7 1.2 0-5.7-2.3-23.4-7.5-27.6z" fill-rule="evenodd" fill="#fff"/><path d="M327.7 160c.7-2 10-17.4 11.2-20.8 0-1.7 3 2.8 0 5.2-3 2-9 13-11 17-1 1.7-3 1-2-1.3z" fill-rule="evenodd" stroke="#000" fill="#fff"/><path d="M258 118c.3-1.7-2.5 0-2.6-2.2 0-1 3-2 4.5-.6 2 2.2 0 6-4 6.3-3 0-8 4.3-8 5.2 1 1 9 1.8 13 1 3-.3 2 2.3-1 2.6-3 .4-5 0-8 1-3 .8-5 5-6 6.6-1 0-2-2-1-2 1-2 3-5 5-6 1-1-4-1-6-2-1-1-1-2-1-3 0-2 5-7 7-7s4-1 4-2zm-24.8 10.7c-2.2-1.6.6-4 2.8-2.4 4.4 3.3-6.5 16-12.4 22-1 1-2-2-.7-3 4-3.7 8-8 11-12.5 0-.8 1-2.7-1-4z" fill-rule="evenodd" fill="#fff"/><path d="M238.8 120.7c-1.2-3 2-4 2.4-2 2 9.5 7.3 16.6 11.3 23 1.2 2 .2 3.2-2.7 1.4-2-1-4-6-5-6-1.8 0-6 8-14.8 6-2.2 0-2-7-2-10-.2-1 1.3-2 1.4 0 0 3 0 9 3.5 9 2 0 9-4 10-7s-3-9-5-13z" fill-rule="evenodd" stroke="#000" fill="#fff"/><path d="M215 120c.6 0 2.4 2.3 2.3 3 0 .4-2 0-2.6-.4-.4-.4-.2-2.6.2-2.6zm-9 17c-1.5 1 .4 2.7 1.7 2 4.6-3 11.6-6.3 13-12.2.5-2 2.4-5.2 4.2-6 1-.5 4 3.3 5 .3 1-1 4 2 5 0s0-3 0-5c0-1-1-1-2 1-1 1 0 2 0 3s-1 1-2 1-1-1-2-1h-2c-1 2-2 4-4 2s-2-5-4-1c-.7 2-3 4-4 4-2 0-1.8-4-5.7-4-2 1-2 5-2 6 .3 2 6.2 1 6 2-1 5-7 9-12.7 12zm32.8-16.3c-1.2-3 2-4 2.4-2 2 9.5 7.3 16.6 11.3 23 1.2 2 .2 3.2-2.7 1.4-2-1-4-6-5-6-1.8 0-6 8-14.8 6-2.2 0-2-7-2-10-.2-1 1.3-2 1.4 0 0 3 0 9 3.5 9 2 0 9-4 10-7s-3-9-5-13zm5.3-6c1-1 4-2.2 5-3 1-.6 1 .7 1 1.4 0 1-3 3-4 3 0 0-1 0-1-1zm7 .4c1-1 3-4 5-5 1 0 2 0 2 1 0 2-3 4-4 6 0 1-1 0-1 0zm-6 5s0 1 1 1c1 1 3 1 3 0 1 0 1-4-1-2-1 2-1 1-2 2zm22-1l3-3c1 0 2 0 2 2 0 1-1 2-2 3s-2 0-1-1zm11-4c2 0 2 3 0 3 0 1-1-3 0-3zm-3 9c0 2 1 2 4 2 2 0 4 0 4-2s-1-4-1-2 0 4-1 3 0-1-2 0c0 1 0 0-1-1l-1 1zm-16 11c0 3 0 8 2 8s6-6 8-10c1-2 3-2 2 0-1 3-1 10 0 12s5 0 6-2c1-3 0-8 1-11 0-2 2-2 2 0v12c0 1 5 4 6-1 1-3 2-6 0-10-1-2 2-2 4 1 1 2-1 5-1 8 1 4-2 6-5 6-2 0-3-2-4-2-2 0-3.4 2-5 2-6 0-3-8-4.2-8-2 0-4 8-6.3 8s-5-7-4-9 2.8-3 2.5-2zm28-13c-3-1 0-6 2-4 3 3 6 11 7 11 2 1 1-5 2-8 1-2 3-1 3 1 0 1-3 11-3 11 2 4 4 9 6 13 1 2-1 1-2 1-1-2-4-10-4-10-1 6-1 8-2 13 0 2-3 2-2-1l4-14c-2-5-5-8-8-10z" fill-rule="evenodd" fill="#fff"/><path d="M291 148.4c-1 0-2 1.7 1.8 2.4 5 1 10.7-.8 12.5-5.8 2-6 3.2-11.7 4.3-14 1.3-2.4 3-2.2 1.7-5.8-1-2.7-2.5-2-2.8-.5-1 4-4.3 16.3-5.4 18.5-2 4.2-6 5.8-12 5.2z" fill-rule="evenodd" fill="#fff"/><path d="M301.2 128.6c-.6-1.2-1.8-.3-1.6 1 0 1.2 1 1.8 2 1.8s3.5 0 3.5-1.8c0-1.3-1-2.4-1-1 0 1.3-1 1.2-2 0zm1.3-5c-.4.3 0 1.8.4 1.8 1 0 4-.6 5-1.5 0-1 0-2-1-2-2 0-5 0-6 1zm14.2 3.7c1.3-2 4.6-2 3.4.7 0 1.8-9 18-10 20-1 2.3-2 1.2-1-.6l9-20zm2.8 12.5c0-.3-1.8-.5-1.8 1.3s1.7 2 2 2c2.5-2-.5-1-.2-3z" fill-rule="evenodd" fill="#fff"/><path d="M327.7 160c.7-2 10-17.4 11.2-20.8 0-1.7 3 2.8 0 5.2-3 2-9 13-11 17-1 1.7-3 1-2-1.3z" fill-rule="evenodd" stroke="#000" fill="#fff"/><path d="M315.8 147c-.5.2-1 1.8.2 2 1 0 5.3-.5 6.4-.4.8 0 1-1.5-.6-1.4-2 0-4.4-.4-6 0zm12 13c.6-2 10-17.4 11-20.8.7-1.7 3.4 2.8.8 5.2-2.3 2-9 13-10.3 17-.6 1.7-2.3 1-1.6-1.3z" fill-rule="evenodd" fill="#fff"/><path d="M343.4 145.3c1.7-6.5 6 1 2.2 4.6-5.6 5-7.3 16-16.2 17-2.4 0-6.7-1-8-2-.4-1 .4-3 2-2 2 1 6.6 2 9 0 5-5 9-12 11-19z" fill-rule="evenodd" stroke="#000" fill="#fff"/><path d="M343.4 145.3c1.7-6.5 6 1 2.2 4.6-5.6 5-7.3 16-16.2 17-2.4 0-6.7-1-8-2-.4-1 .4-3 2-2 2 1 6.6 2 9 0 5-5 9-12 11-19zm-85.5 19c-2 .3-2 2.8-1 3 0 .5 2 .7 2-2 0-1.3 0 5.6 3 3 1-1.7 5 .2 6-1.8 1-1.3 1-2.3 0-4.2 0-.6-2-.3-2 1s-1 3-2 2.6c-1-1 0-3-1-4 0-1-1-1-1 0-1 0 0 3-1 3-2 0-1-2-2-3-3-2-3 0-4 0zm14-4.7c1-.4 1-.4 3-2.2 1-.6 1 1.2 1 2-1 1.2-2 .4-2 1.5-1 1-1 4-1 6h-1c-1-2 0-4 0-6 0-1-1-2 0-2zm-6-7.6c-1 1.6-1 2.8-1 4 0 .7 1 .2 1 0v-3.6c-1-.3-1-.6-2-.3zm-17 4.3c-3 2-5 3-7 5.6-1 1-1 2-2 3s-2 1-3 1c-1-1-1-4-2-2-1 1-2 3-3 3s-3-3-2-3c4-1 4-4 5-4 2 0 2 2 3 2 0-1 1-4 2-5 2-3 4-4 7-6 1-1 2 1 0 2zm1 3.2c-1 .5-2 .4-2 1-1 2.4 0 3.7-1 6-1 2.2-2 2.3-2 .5 0-2.4 2-5.7 0-6-1 0-2-1.3-1-2 2-1.2 3-1 4-.6v1z" fill-rule="evenodd" fill="#fff"/><path d="M238 347.5c1 1.8 2 1.7 2 0l-1.4-8c-.3-2.3-2.6-1.8-2 .5.8 2.6.6 5.4 1.5 7.5zm7 0c0 1 1.5 1 1.5.2 0-2.3-.3-5.5.3-6.6h4.4c.8 0 .6-2-1-2-1.8 0-6.6 0-7 1-.3 3 2 0 2 8zm14.2-9c1.2 1 1 2-.4 1.7-1.7-.4-3-.2-3 .7l2 2-2 3c-1 2 1.2 2 3.7 1 .7 0 1.5 1 0 2-1.2 0-4.4 1-5.2-1-1.5-4 2.5-5 .8-6 0-1-1-2-1-3 1-3 5-2 6-2zm5.3 9c1.6-3 2.6-5 3-7.4.4-2 2-2 2.3 0 .4 3 1.8 5 3.5 7 1 2-1 3-1.8 2-1.4-1-1.5-4-2.3-4-1 0-2 3-3.2 5-.3 1-2 0-1.5-1z" fill-rule="evenodd" stroke="#000" fill="#fff"/><path d="M238 347.5c1 1.8 2 1.7 2 0l-1.4-8c-.3-2.3-2.6-1.8-2 .5.8 2.6.6 5.4 1.5 7.5zm7 0c0 1 1.5 1 1.5.2 0-2.3-.3-5.5.3-6.6h4.4c.8 0 .6-2-1-2-1.8 0-6.6 0-7 1-.3 3 2 0 2 8zm14.2-9c1.2 1 1 2-.4 1.7-1.7-.4-3-.2-3 .7l2 2-2 3c-1 2 1.2 2 3.7 1 .7 0 1.5 1 0 2-1.2 0-4.4 1-5.2-1-1.5-4 2.5-5 .8-6 0-1-1-2-1-3 1-3 5-2 6-2zm5.3 9c1.6-3 2.6-5 3-7.4.4-2 2-2 2.3 0 .4 3 1.8 5 3.5 7 1 2-1 3-1.8 2-1.4-1-1.5-4-2.3-4-1 0-2 3-3.2 5-.3 1-2 0-1.5-1zm134-82.3c-.3.6 1.3 1.4 1.7 1 1.7-2 4-6 4.3-8.4 0-.7-2-1.5-2.6-1-2 2-4 6-4 8.4z" fill-rule="evenodd" fill="#fff"/></svg>