<svg xmlns="http://www.w3.org/2000/svg" viewBox="0 0 512 512"><path fill-rule="evenodd" fill="#3a7dce" d="M-85.333 0h682.67v512h-682.67z"/><path d="M111.82 240.35c-3.08-6.3-3.08-6.3-3.08-12.596-1.54 0-1.828.296-2.72.048-.89-.245-1.226 5.808-4.113 4.626-.48-.59 2.07-4.968-.698-6.788-.89-.593.213-4.184-.17-5.76 0 0-3.515 1.87-6.16-4.722-1.3-1.723-3.08 1.574-3.08 1.574s.77 2.017-.627 2.51c-1.973-1.477-3.418-.703-5.92-2.732-2.502-2.03.53-4.354-4.235-6.076 3.08-7.873 3.08-6.3 10.78-9.447-4.62-3.15-4.62-3.15-7.7-7.874-4.62-1.574-6.16-3.148-10.78-6.297-6.16-7.874-9.24-23.618-9.24-34.64 3.9-3.69 9.24 12.596 16.94 17.32l10.78 4.723c6.16 3.145 7.7 6.293 12.32 9.443l13.86 4.724c6.16 4.722 9.24 11.02 13.86 12.595 5.006 0 5.97-2.948 7.575-3.13 9.053-.476 13.674-1.668 15.478-4.448 1.83-2.214 6.208 1.28 18.528-3.444l-1.537-6.3s3.273-2.753 7.7-1.572c-.12-2.878-.41-10.553 3.95-14.016-2.647-2.84-.87-4.877-.87-4.877s2.455-2.412 2.743-3.69c-1.298-6.94 1.127-7.046 1.67-9.088.544-2.04-2.094-1.343-1.35-4.157.742-2.814 5.203-3.482 5.8-5.8.6-2.32-1.27-3.482-1.163-4.035.963-2.215.146-7.43 0-9.448 8.278-2.264 10.974-9.152 13.86-6.298 1.54-9.45 3.08-12.598 12.32-12.598 1.3-2.903-3.37-5.364-1.54-6.298 3.08-.394 5.438-.197 9.05 4.576 1.14 1.513 1.346-2.214 2.5-2.607 1.155-.394 3.92-.4 4.33-2.264.435-1.92 1.06-4.43 2.6-7.58 1.3-2.56 2.31.985 3.465 6.004 6.497.246 21.175 1.722 27.334 3.444 4.62 1.23 7.7-1.23 12.127-1.723 3.272 3.346 6.352.836 8.085 7.97 2.446 3.85 6.45.346 7.316 1.477 5.15 14.514 22.86 4.723 24.205 4.97 2.26 0 5.023 6.49 6.803 6.328 2.894-.498 2.075-2.516 4.6-1.704-.673 5.463 4.96 11.76 4.96 15.845 0 0 1.37.69 2.64-.522 1.27-1.21 2.436-4.323 3.566-4.25 2.696.394 3.788.748 6.894 1.303 8.35 2.918 12.603 3.576 15.846 5.07 1.51 2.824 2.97 4.27 6.03 3.74 2.526 1.737.683 4.01 2.175 4.158 3.08-1.575 4.09-3.297 7.17-1.722 3.08 1.574 6.16 4.724 7.7 7.873 0 1.574-1.54 7.872 0 17.32.77 3.15 1.142 5.645 4.45 11.046-.88 5.547 4.163 14.883 4.163 17.245 0 3.15-2.456 4.774-3.996 7.92 6.16 4.726 0 12.598-3.08 17.32 23.1 4.726 12.32 14.173 30.8 9.45-4.62 11.02-2.984 10.136 1.636 21.16-9.24 6.297-.192 8.215-6.35 16.087-.386.494 3.655 6.84 9.334 6.84-1.54 12.597-6.16 7.874-4.62 26.768-12.127-.244-7.22 14.123-15.4 12.597.48 9.005 4.668 9.792 3.08 18.894-6.16 1.575-6.16 1.575-9.24 6.3l-4.62-1.576c-1.54 7.874-4.62 9.448 0 17.32 0 0-5.967.198-7.7 0-.144 2.708 2.648 3.446 3.08 6.3-.24 1.13-8.758 6.1-15.4 6.3-1.73 3.885 4.62 8.02 4.236 9.986-7.22 1.426-10.395 10.48-10.395 10.48s3.705 1.525 3.08 3.15c-1.972-1.478-3.08-1.576-6.16-1.576-1.54.394-5.293-.096-8.892 6.114-3.95 1.33-5.814.85-8.81 4.9-1.327-3.86-3.235.037-5.568 1.534-2.33 1.5-5.47 5.226-5.893 5.067.097-1.083 1.444-5.02 1.444-5.02l-7.7 1.575-.95.097c-.605.06-.443-4.596-1.902-4.427-1.46.17-5.634 5.857-7.057 6.035-1.42.18-1.87-1.808-3.094-1.635-1.224.173-3.61 6-4.478 6.153-.867.155-4.306-3.54-7.253-3.025-15.16 5.463-17.567-10.775-19.924-1.622-3.175-1.72-2.625-.722-5.852.143-2.06.54-2.247-2.785-4.078-2.734-3.665.107-3.47 3.65-5.47 2.59-1.635-7.38-11.5-6.052-12.464-9.2-.782-3.284 4.275-3.27 5.91-5.494 1.25-3.21-1.306-4.43 3.77-7.527 6.613-4.575 2.81-6.3 3.97-9.737 2.074-4.965 2.086-6.176.354-10.555 0 0-5.15-14.17-6.16-14.17-3.08-.887-3.08 5.213-7.604 6.887-9.24 3.148-25.552-7.972-28.392-7.972-2.597.05-14.632 2.914-14.178-3.222-1.8 5.966-8.416 1.402-8.824 1.402-6.16 0-3.802 4.87-7.94 4.674-1.88-.64-20.838-1.77-20.838-1.77v3.147l-12.32-6.3-10.78-3.147c-9.24-3.15-4.62-11.023-20.02-6.3v-9.447h-7.7c3.08-18.895 0-9.447-1.54-26.767l-6.16 1.574c-6.16-8.51 8.566-6.887-4.62-12.594 0 0 .242-9.4-3.08-6.3-.673.396 1.54 4.726 1.54 4.726-12.32-1.573-15.4-4.723-15.4-17.32 0 0 10.155 1.478 9.24 0-1.443-2.36-3.32-17.712-2.983-18.746-.144-2.067 9.433-7.282 7.58-12.253 1.18-.442 4.643-.49 4.643-.49" fill="#fff"/><path stroke-linejoin="round" d="M527.55 303.26c-.493 1.108-.405 2.215.104 3.005.914-1.37.142-2.003-.104-3.005z" stroke="#fff" stroke-linecap="round" stroke-width="2.249" fill="none"/><path stroke-linejoin="round" d="M131.51 178.94s-2.583-.316-2.003 1.95c.844-1.74 1.95-1.844 2.003-1.95zm.58-5.27c-1.423.053-3.163-.21-2.583 2.055.844-1.74 2.53-1.95 2.583-2.055zm9.72 30.2s2.214-.158 1.634 2.108c-.844-1.74-1.58-2.002-1.634-2.108z" stroke="#fff" stroke-width="2.108" fill="none"/></svg>