<svg xmlns="http://www.w3.org/2000/svg" viewBox="0 0 640 480" version="1"><g stroke-width="1pt"><path fill="#006" d="M0 0h640v480H0z"/><path d="M0 0v27.95L307.037 250h38.647v-27.95L38.647 0H0zm345.684 0v27.95L38.647 250H0v-27.95L307.037 0h38.647z" fill="#fff"/><path d="M144.035 0v250h57.614V0H144.03zM0 83.333v83.333h345.684V83.333H0z" fill="#fff"/><path d="M0 100v50h345.684v-50H0zM155.558 0v250h34.568V0h-34.568zM0 250l115.228-83.334h25.765L25.765 250H0zM0 0l115.228 83.333H89.463L0 18.633V0zm204.69 83.333L319.92 0h25.764L230.456 83.333H204.69zM345.685 250l-115.228-83.334h25.765l89.464 64.7V250z" fill="#c00"/><path d="M299.762 392.523l-43.653 3.795 6.01 43.406-30.187-31.764-30.186 31.764 6.013-43.406-43.652-3.795 37.68-22.364-24.244-36.498 40.97 15.514 13.42-41.713 13.42 41.712 40.97-15.515-24.242 36.495m224.444 62.372l-10.537-15.854 17.81 6.742 5.823-18.125 5.825 18.127 17.806-6.742-10.537 15.854 16.37 9.715-18.966 1.65 2.617 18.85-13.115-13.793-13.117 13.794 2.616-18.85-18.963-1.65m16.368-291.815l-10.537-15.855 17.81 6.742 5.826-18.123 5.825 18.12 17.807-6.74-10.537 15.855 16.37 9.716-18.964 1.65 2.616 18.85-13.115-13.794-13.117 13.794 2.616-18.85-18.964-1.65M380.744 265.03l-10.537-15.853 17.808 6.742 5.825-18.127 5.825 18.125 17.808-6.743-10.535 15.853 16.37 9.72-18.965 1.65 2.615 18.85-13.117-13.795-13.115 13.795 2.618-18.85-18.964-1.65m216.21-37.93l-10.557-15.853 17.822 6.742 5.782-18.126 5.854 18.126 17.773-6.743-10.508 15.854 16.362 9.72-18.97 1.65 2.608 18.85-13.118-13.794-13.117 13.792 2.61-18.85-18.937-1.65M541.94 319.93l-10.365 6.424 2.915-11.84-9.317-7.862 12.164-.896 4.605-11.29 4.605 11.29 12.165.896-9.317 7.862 2.912 11.84" fill-rule="evenodd" fill="#fff"/></g></svg>