<svg xmlns="http://www.w3.org/2000/svg" viewBox="0 0 640 480"><defs><clipPath id="a"><path fill-opacity=".67" d="M0 0h640v480H0z"/></clipPath></defs><g clip-path="url(#a)"><path fill-rule="evenodd" fill="#c60000" d="M-40 0h720v480H-40z"/><path fill-rule="evenodd" fill="#003bb2" d="M-40 68.57h720v342.86H-40z"/><path d="M457.137 239.998c0 75.743-61.403 137.143-137.142 137.143-75.743 0-137.142-61.4-137.142-137.14 0-75.742 61.402-137.14 137.142-137.14 75.743 0 137.142 61.402 137.142 137.14z" fill-rule="evenodd" fill="#fff"/><g stroke="#000" fill-rule="evenodd"><path d="M0 318.04c6.927 1.02 14.39 1.206 23.312 0 7.405 1.994 12.863 5.647 18.317 8.326 3.053 5.665 7.335 14 11.652 18.316 1.874 6.872 4.64 9.755 8.326 16.652.92 6.795 3.182 13.617 0 19.98-3.796 4.746-9.758 7.516-14.986 9.992-6.902 3.688-10.937 5.046-19.982 6.66-7.444 1.33-15.03 1.666-23.312 1.666-8.01-1.43-14.19-2.757-21.645-3.33-7.414-1.324-15.898-2.007-23.312-3.33-4.812-2.816-11.025-5.127-16.65-6.66-3.907-3.726-9.56-7.954-14.986-11.657-4.19-7.502-8.004-10.206-11.656-16.652-3.318-4.876-4.892-11.17-4.997-19.98 2.626-5.345 6.96-10.53 9.99-14.987 5.2-3.433 11.074-7.99 18.318-11.656 9.784-.346 13.604-3.214 23.312-3.33h24.977c5.65.565 8.44 5.583 13.32 9.99z" transform="matrix(.199 0 0 .1704 345.244 141.57)" stroke-width="3.75" fill="#030"/><path d="M273.08 659.39c-6.66-38.298-16.652-133.21-16.652-174.84 1.665-31.64 121.56-139.87 124.89-151.53 3.33-11.656 64.94-99.91 74.93-126.55-24.976 18.316-66.605 98.243-74.93 106.57-8.326 8.326 18.316-83.257 9.99-111.56-8.325 33.303-21.646 118.22-31.637 126.55-4.99 4.996-91.58 104.9-101.57 101.57-9.99-3.33-36.63-19.98-31.633-29.972 4.995-9.99 71.6-71.6 74.93-93.248s8.327-73.266 14.987-78.26c6.662-4.997 16.653-29.974 24.978-49.956-21.645 9.99-24.976 39.964-33.3 41.63-8.327 1.664-28.31-33.304-28.31-33.304s13.32 38.298 14.987 46.624c1.665 8.326-6.66 63.275-11.657 69.936-4.994 6.66-41.627 53.284-48.29 54.95-6.66 1.665-24.975-76.597-24.975-91.583s13.32-73.266 0-76.597c-8.326 0-9.99 68.27-14.986 68.27s-16.653-68.27-16.653-68.27-6.66 31.638-3.33 53.284c-9.99 1.666-36.634-39.962-36.634-39.962s49.955 86.587 59.947 89.917c9.99 4.99 19.98 68.27 18.317 71.6s-49.954-16.65-59.945-23.315c-9.99-6.66-29.972-79.927-29.972-79.927s9.99 71.6-1.665 61.61c-11.656-9.99-29.972-18.316-39.963-33.302-9.99-14.988-4.995-76.6-4.995-76.6s-16.65 54.95-23.312 54.95c-6.66 0-28.307-73.265-28.307-73.265s3.33 79.928 13.32 84.923c9.99 4.995 159.85 104.9 161.52 114.9 1.667 9.99 19.984 48.288 29.975 59.944-1.666 21.647 6.66 161.52 9.99 194.82l29.973 9.99z" transform="matrix(.199 0 0 .1704 278.923 126.253)" stroke-width="1pt" fill="#520900"/><path d="M-338.02 133.21c1.85 6.416 2.528 12.146 11.656 14.986 5.054 1.925 15.007 4.53 19.982 6.66 5.242 2.484 11.14 5.594 18.316 6.66 5.394 1.8 14.58 3.65 21.647 4.997 7.447 1.33 15.03 1.665 23.316 1.665 9.557-1.707 13.81-3.43 19.98-8.326 1.852-6.786 4.344-9.832 4.997-18.317.568-7.944 1.666-14.82 1.666-23.31-1.54-4.624-1.79-15.36-3.33-19.983-5.578-5.466-7.05-8.65-16.653-11.656-7.476-3.382-14.307-3.33-23.312-3.33-6.96 2.32-15.343 1.665-23.31 1.665h-23.312c-6.973 1.52-12.292 2.766-18.317 6.66-8.132 3.677-9.337 6.32-13.32 14.99-2.934 8.8-3.036 15.416 0 26.64z" transform="matrix(.199 0 0 .1704 343.254 135.897)" stroke-width="3.75" fill="#030"/><path d="M-329.7 191.49c0-2.78-6.02 2.69-8.326 4.995-5.392 3.774-7.647 8.815-8.326 18.317-2.502 5.19 0 13.714 0 21.646 0 9.18.062 15.585 4.996 19.982 5.598 3.445 8.29 4.995 18.316 4.995h46.624c5.896-1.965 13.09-2.953 19.982-4.995 7.705-4.085 13.07-4.517 21.646-6.66 4.883-4.238 11.635-8.6 19.982-9.99 9.547-.456 15.257-3.79 21.647-8.327 8.22-2.054 15.64-6.365 21.65-9.99 4.838-3.29 8.31-7.416 11.657-13.322 3.396-7.92 4.482-12.89-1.665-21.643-12.143-4.415-6.11-9.19-14.987-13.32-4.062-2.454-13.524-5.674-18.316-8.327-8.294.614-14.193 2.68-23.313 3.33-4.71 2.355-14.368 1.665-21.647 1.665h-26.642c-7.968 0-16.35-.656-23.312 1.665-6.667 1.817-9.985 4.84-16.65 6.66-4.394 2.986-11.508 5.41-16.653 8.325l16.653-8.326c-4.393 2.984-11.507 5.41-23.312 13.32z" transform="matrix(.199 0 0 .1704 342.26 137.6)" stroke-width="3.75" fill="#030"/><path d="M-186.5 49.95c3.314 0-5.2 3.98-8.326 6.66-4.01 7.063-4.474 13.422-6.66 19.98-2.566 5.773-5.727 13.067-6.66 19.983-3.14 7.494-4.88 10.226-4.997 19.982 0 7.677-.09 16.38 1.665 21.646 5.05 6.366 9.9 9.98 18.317 14.99 7.203 2.495 12.49 3.984 19.98 4.996h23.31c5.267 1.756 13.97 1.665 21.646 1.665 8.492-3.172 11.708-7.21 19.98-8.326 9.116-.828 10.688-4.642 14.987-11.656 3.998-5.168 5.674-11.013 6.66-18.316 0-8.4-.75-15.626-1.665-23.31-4.007-4.494-7.053-10.696-9.99-18.316-5.147-8.82-5.153-12.74-13.32-16.65-3.978-5.43-10.85-8.07-14.99-11.657-8.65-.62-15.217-1.695-21.645-4.996-7.678 0-16.38-.09-21.647 1.666-6.03 0-10.447.57-16.65 1.665z" transform="matrix(.199 0 0 .1453 343.918 141.036)" stroke-width="3.75" fill="#030"/><path d="M-58.28 64.935c-.987 0-4.077 4.824-6.66 9.99-4.344 6.916-4.925 13.316-8.326 18.317-1.33 7.443-1.665 15.028-1.665 23.312.75 8.314 3.192 11.323 8.32 14.987 7.714 4.38 11.368 6.415 19.983 8.33 7.447.572 12.8 1.664 21.647 1.664 7.97 0 16.35.657 23.313-1.664 8.283 0 15.87-.337 23.312-1.666 3.823-3.24 12.04-6.14 16.65-8.324 5.483-6.643 8.107-13.246 11.657-18.318 0-9.823.078-15.565-4.995-23.313-3.622-6.39-7.962-9.32-13.323-14.99-6.718-2.335-12.38-7.194-19.982-8.324H-58.28z" transform="matrix(.199 0 0 .1704 342.59 135.33)" stroke-width="3.75" fill="#030"/><path d="M76.596 76.59c-6.286 2.62-8.59 3.3-11.656 9.992-4.62 7.115-7.342 10.462-11.656 14.986-.99 6.664-3.643 13.88-6.66 18.317-.915 7.684-1.666 14.913-1.666 23.312 4.222 6.486 10.085 12.603 16.65 16.65 6.792 2.352 13.95 5.933 19.983 8.327 7.77 2.033 14.955 4.398 23.316 4.995 7.217 1.8 15.164 1.66 23.312 1.66 7.404-1.61 13.75-3.477 19.98-8.324 3.334-5.197 7.157-11.046 8.327-19.983 2.754-8.263.54-19.06-3.33-26.642-2.04-7.476-5.016-10.372-13.32-14.986-4.596-4.854-10.703-10.322-14.988-13.32-5.28-4.585-12.142-5.154-19.98-8.327-8.493-1.887-11.338-4.33-19.983-4.995l19.983 4.995c-8.488-1.885-11.333-4.33-28.304-6.66z" transform="matrix(.199 0 0 .1704 340.602 141.854)" stroke-width="3.75" fill="#030"/><path d="M-51.62 146.53c-7.617 3.463-11.16 7.635-16.65 13.32 0 8.847 1.092 14.2 1.665 21.648 3.466 4.734 7.144 14.25 9.99 18.316 2.173 6.812 6.922 12.137 9.992 16.652 7.69 3.112 15.495 5.44 23.312 8.325 9.194 0 15.094 2.06 23.31 3.335 6.96 2.32 15.342 1.665 23.31 1.665 8.147 0 16.094-.14 23.312 1.664 7.703 1.37 13.396 4.36 21.647 4.995 4.74-.45 13.136-1.14 19.982-1.667 7.667-3.485 10.982-5.707 14.987-11.656 3.752-4.542 3.33-11.267 3.33-19.98 1.602-8.973 2.092-15.008-1.665-23.313-.108-8.96-1.817-13.172-3.33-21.647-3.006-6.01-5.647-8.65-11.657-11.656-5.467-3.806-12.866-5.996-18.32-9.99-7.432-.884-15.76-2.05-21.646-3.33-6.51-4.34-11.933-6.544-21.647-6.66-9.515-1.132-13.997-2.263-21.648 1.665-7.99.57-15.15 2.17-19.983 4.996-6.144.47-15.283.98-19.982 3.33-7.414 0-9.987 1.288-16.65 1.665l16.65-1.665c-7.414 0-9.987 1.287-18.316 9.99z" transform="matrix(.252 0 0 .132 337.902 146.95)" stroke-width="3.75" fill="#030"/><path d="M-123.22 278.07c-4.3-.632-17.278-1.665-26.642-1.665-8.747 0-15.86.58-23.312 3.33-7.975 1.537-13.883 4.047-19.982 6.66-5.053 2.394-10.953 4.83-14.986 8.326-4.955 3.37-9.13 6.34-13.32 13.325-4.477 6.422-4.945 10.56-8.327 18.317v23.31c.59 7.635 1.64 14.23 5 21.65 5.02 4.016 11.976 5.28 18.316 6.66 6.03 1.31 13.875 2.774 21.647 3.33 9.24 0 14.16.465 21.647 3.33 9.746-.36 11.605-2.628 19.98-6.66 9.314-3.693 14.86-5.06 23.31-9.99 5.175-4.08 8.58-10.986 11.658-18.318 4.69-7.573 7.91-14.884 11.656-21.645 1.804-7.22 1.665-15.165 1.665-23.313-2.22-6.258-5.754-8.905-9.99-14.986-4.62-5.05-6.675-8.946-9.994-13.32l9.99 13.32c-4.615-5.05-6.67-8.946-18.315-11.656z" transform="matrix(.2 0 0 .17 344.25 138.73)" stroke-width="3.75" fill="#030"/><path d="M0 318.04c6.927 1.02 14.39 1.206 23.312 0 7.405 1.994 12.863 5.647 18.317 8.326 3.053 5.665 7.335 14 11.652 18.316 1.874 6.872 4.64 9.755 8.326 16.652.92 6.795 3.182 13.617 0 19.98-3.796 4.746-9.758 7.516-14.986 9.992-6.902 3.688-10.937 5.046-19.982 6.66-7.444 1.33-15.03 1.666-23.312 1.666-8.01-1.43-14.19-2.757-21.645-3.33-7.414-1.324-15.898-2.007-23.312-3.33-4.812-2.816-11.025-5.127-16.65-6.66-3.907-3.726-9.56-7.954-14.986-11.657-4.19-7.502-8.004-10.206-11.656-16.652-3.318-4.876-4.892-11.17-4.997-19.98 2.626-5.345 6.96-10.53 9.99-14.987 5.2-3.433 11.074-7.99 18.318-11.656 9.784-.346 13.604-3.214 23.312-3.33h24.977c5.65.565 8.44 5.583 13.32 9.99z" transform="matrix(.26 0 0 .14 350.64 136.54)" stroke-width="3.75" fill="#030"/></g><g fill-rule="evenodd" stroke="#000" stroke-width="3.711" fill="#006a00"><path d="M200.16 613.18l4.71-7.064-12.952-2.355 9.42-9.415-12.952-4.71 12.952-9.42-12.952-7.064 14.13-5.887-7.065-11.773 14.13 2.353-5.884-14.13 16.484 7.065v-18.84l11.773 12.952 9.42-16.484 7.065 15.306 14.13-16.484 4.71 12.952 21.192-10.597-5.888 16.484 22.37-9.42-4.71 18.84 21.195-9.42-8.242 17.66 21.194 1.177-17.665 10.597 17.662 7.066-16.485 9.42 14.13 11.774c-45.136 20.8-79.674 27.473-131.87 9.42z" transform="matrix(.17 0 0 .15 294.24 194.23)"/><path d="M200.16 613.18l4.71-7.064-12.952-2.355 9.42-9.415-12.952-4.71 12.952-9.42-12.952-7.064 14.13-5.887-7.065-11.773 14.13 2.353-5.884-14.13 16.484 7.065v-18.84l11.773 12.952 9.42-16.484 7.065 15.306 14.13-16.484 4.71 12.952 21.192-10.597-5.888 16.484 22.37-9.42-4.71 18.84 21.195-9.42-8.242 17.66 21.194 1.177-17.665 10.597 17.662 7.066-16.485 9.42 14.13 11.774c-45.136 20.8-79.674 27.473-131.87 9.42z" transform="matrix(.17 0 0 .15 255.21 193.09)"/><path d="M200.16 613.18l4.71-7.064-12.952-2.355 9.42-9.415-12.952-4.71 12.952-9.42-12.952-7.064 14.13-5.887-7.065-11.773 14.13 2.353-5.884-14.13 16.484 7.065v-18.84l11.773 12.952 9.42-16.484 7.065 15.306 14.13-16.484 4.71 12.952 21.192-10.597-5.888 16.484 22.37-9.42-4.71 18.84 21.195-9.42-8.242 17.66 21.194 1.177-17.665 10.597 17.662 7.066-16.485 9.42 14.13 11.774c-45.136 20.8-79.674 27.473-131.87 9.42z" transform="matrix(.17 0 0 .15 315.93 193.66)"/><path d="M200.16 613.18l4.71-7.064-12.952-2.355 9.42-9.415-12.952-4.71 12.952-9.42-12.952-7.064 14.13-5.887-7.065-11.773 14.13 2.353-5.884-14.13 16.484 7.065v-18.84l11.773 12.952 9.42-16.484 7.065 15.306 14.13-16.484 4.71 12.952 21.192-10.597-5.888 16.484 22.37-9.42-4.71 18.84 21.195-9.42-8.242 17.66 21.194 1.177-17.665 10.597 17.662 7.066-16.485 9.42 14.13 11.774c-45.136 20.8-79.674 27.473-131.87 9.42z" transform="matrix(.16 -.05 .03 .15 288.98 212.41)"/><path d="M200.16 613.18l4.71-7.064-12.952-2.355 9.42-9.415-12.952-4.71 12.952-9.42-12.952-7.064 14.13-5.887-7.065-11.773 14.13 2.353-5.884-14.13 16.484 7.065v-18.84l11.773 12.952 9.42-16.484 7.065 15.306 14.13-16.484 4.71 12.952 21.192-10.597-5.888 16.484 22.37-9.42-4.71 18.84 21.195-9.42-8.242 17.66 21.194 1.177-17.665 10.597 17.662 7.066-16.485 9.42 14.13 11.774c-45.136 20.8-79.674 27.473-131.87 9.42z" transform="matrix(.17 0 0 .15 330.39 202.72)"/><path d="M200.16 613.18l4.71-7.064-12.952-2.355 9.42-9.415-12.952-4.71 12.952-9.42-12.952-7.064 14.13-5.887-7.065-11.773 14.13 2.353-5.884-14.13 16.484 7.065v-18.84l11.773 12.952 9.42-16.484 7.065 15.306 14.13-16.484 4.71 12.952 21.192-10.597-5.888 16.484 22.37-9.42-4.71 18.84 21.195-9.42-8.242 17.66 21.194 1.177-17.665 10.597 17.662 7.066-16.485 9.42 14.13 11.774c-45.136 20.8-79.674 27.473-131.87 9.42z" transform="matrix(.17 0 0 .15 314.01 204.42)"/><path d="M200.16 613.18l4.71-7.064-12.952-2.355 9.42-9.415-12.952-4.71 12.952-9.42-12.952-7.064 14.13-5.887-7.065-11.773 14.13 2.353-5.884-14.13 16.484 7.065v-18.84l11.773 12.952 9.42-16.484 7.065 15.306 14.13-16.484 4.71 12.952 21.192-10.597-5.888 16.484 22.37-9.42-4.71 18.84 21.195-9.42-8.242 17.66 21.194 1.177-17.665 10.597 17.662 7.066-16.485 9.42 14.13 11.774c-45.136 20.8-79.674 27.473-131.87 9.42z" transform="matrix(.17 0 0 .15 238.82 193.09)"/><path d="M200.16 613.18l4.71-7.064-12.952-2.355 9.42-9.415-12.952-4.71 12.952-9.42-12.952-7.064 14.13-5.887-7.065-11.773 14.13 2.353-5.884-14.13 16.484 7.065v-18.84l11.773 12.952 9.42-16.484 7.065 15.306 14.13-16.484 4.71 12.952 21.192-10.597-5.888 16.484 22.37-9.42-4.71 18.84 21.195-9.42-8.242 17.66 21.194 1.177-17.665 10.597 17.662 7.066-16.485 9.42 14.13 11.774c-45.136 20.8-79.674 27.473-131.87 9.42z" transform="matrix(.16 -.05 .03 .15 211.86 211.85)"/><path d="M200.16 613.18l4.71-7.064-12.952-2.355 9.42-9.415-12.952-4.71 12.952-9.42-12.952-7.064 14.13-5.887-7.065-11.773 14.13 2.353-5.884-14.13 16.484 7.065v-18.84l11.773 12.952 9.42-16.484 7.065 15.306 14.13-16.484 4.71 12.952 21.192-10.597-5.888 16.484 22.37-9.42-4.71 18.84 21.195-9.42-8.242 17.66 21.194 1.177-17.665 10.597 17.662 7.066-16.485 9.42 14.13 11.774c-45.136 20.8-79.674 27.473-131.87 9.42z" transform="matrix(.17 0 0 .15 253.28 202.16)"/><path d="M200.16 613.18l4.71-7.064-12.952-2.355 9.42-9.415-12.952-4.71 12.952-9.42-12.952-7.064 14.13-5.887-7.065-11.773 14.13 2.353-5.884-14.13 16.484 7.065v-18.84l11.773 12.952 9.42-16.484 7.065 15.306 14.13-16.484 4.71 12.952 21.192-10.597-5.888 16.484 22.37-9.42-4.71 18.84 21.195-9.42-8.242 17.66 21.194 1.177-17.665 10.597 17.662 7.066-16.485 9.42 14.13 11.774c-45.136 20.8-79.674 27.473-131.87 9.42z" transform="matrix(.17 0 0 .15 236.89 203.85)"/><path d="M200.16 613.18l4.71-7.064-12.952-2.355 9.42-9.415-12.952-4.71 12.952-9.42-12.952-7.064 14.13-5.887-7.065-11.773 14.13 2.353-5.884-14.13 16.484 7.065v-18.84l11.773 12.952 9.42-16.484 7.065 15.306 14.13-16.484 4.71 12.952 21.192-10.597-5.888 16.484 22.37-9.42-4.71 18.84 21.195-9.42-8.242 17.66 21.194 1.177-17.665 10.597 17.662 7.066-16.485 9.42 14.13 11.774c-45.136 20.8-79.674 27.473-131.87 9.42z" transform="matrix(-.34 0 .02 -.15 399.81 380.19)"/></g><path d="M356.34 196.48c0 22.512-18.995 6.66-38.298 6.66-19.302 0-36.632 17.517-39.962 0 0-9.19 25.655-23.312 44.957-23.312 14.308 1.666 36.634-4.196 33.303 16.652z" fill-rule="evenodd" transform="matrix(.27 0 0 .3 278.56 210.98)" stroke="#000" stroke-width="2.5" fill="#510800"/><path d="M356.34 196.48c0 22.512-18.995 6.66-38.298 6.66-19.302 0-36.632 17.517-39.962 0 0-9.19 25.655-23.312 44.957-23.312 14.308 1.666 36.634-4.196 33.303 16.652z" fill-rule="evenodd" transform="matrix(-.27 0 0 .3 369.71 209.61)" stroke="#000" stroke-width="2.5" fill="#ffc600"/><path d="M349.68 188.16c0 13.794-7.082 24.977-15.82 24.977-8.736 0-15.818-11.183-15.818-24.977s7.082-24.977 15.82-24.977c8.735 0 15.818 11.183 15.818 24.977z" fill-rule="evenodd" transform="matrix(.34 0 0 .33 277.83 205.29)" stroke="#000" stroke-width="2.5" fill="#520900"/><g fill-rule="evenodd" stroke="#000" stroke-width="1pt" transform="matrix(-.62 -.12 -.37 .62 523.74 93.66)"><path d="M273.75 383.58c-2.737 4.56 42.976 12.952 57.694 22.37 14.72 9.42 14.718 10.01 21.194 14.72l1.765-2.945C350.87 414.193 315.91 391.37 292 383.58c-6.805-2.273-10.3-13.248-12.95-8.83l-5.3 8.83z" transform="matrix(-.72 -.55 .52 -.76 322.39 677.92)" fill="#af8000"/><path d="M319.08 369.45l-25.315-5.887s-5.887 2.354-6.475 11.185c-.59 8.83 4.71 14.13 4.71 14.13l27.08-9.42V369.45z" transform="matrix(.84 -.3 .28 .9 -89.24 -64.18)" fill="gray"/><rect ry="3.532" rx="3.532" transform="matrix(.84 -.3 .28 .9 -19.21 -255.61)" height="19.428" width="7.064" y="534.62" x="175.71" fill="gray"/></g><path d="M244.77 87.42c7.322-5.948 11.157-3.72 17.65 3.1 9.322 9.815 41.317 58.855 46.312 63.02s4.24-6.42 10.344-1.39c3.032 3.728-10.437 17.027-13.737 14.57-6.415-5.02 3.91-5.375-.358-9.644-4.925-5.133-51.215-40.497-60.282-50.57-5.92-6.578-6.313-13.97.068-19.088z" fill-rule="evenodd" transform="matrix(.7 .16 .33 .53 132.43 68.16)" stroke="#000" stroke-width="1.25" fill="#923d09"/><g stroke="#000"><path d="M193.63 88.25c15.546 4.423 43.275 46.12 53.766 45.79 16.652-.48 83.233-77.56 72.564-88.252-7.4-8.246-67.94 41.192-71.852 44.126-.67-8.6-15.95-51.042-28.31-59.945-14.62-9.31-32.21-4.16-47.82-6.665-7.3-2.843-18.84-14.056-23.78-24.976 8.182-3.544 15.323-2.48 23.31-10.65 5.68-6.643 2.382-46.914.37-51.06-13.29-14.268 5.43-7.327-39.023-9.08-64.268-2.448-75.878 49.58-31.653 70.79-3.462 15.93-14.22 19.594-22.94 21.646-8.776.106-38.825-.763-55.545 12.49-33.403 24.55-8.925 30.903-15.352 35.8C.192 73.91-10.503 88.093-14.523 96.573c-10.472 4.996-99.485-4.995-116.5-1.664-16.42.962-56.467 15.815-73.15 26.64 3.565 14.14 241.51-7.605 249.27-2.5 5.946 3.346-2.705 51.238 2.01 54.95 1.66 9.063 116.54 5.83 125.6 5.83 7.558-18.86 15.39-81.558 20.926-91.583z" fill-rule="evenodd" transform="matrix(-.13 0 0 .2 282 186.26)" stroke-width="4.702" fill="#ffc600"/><path d="M174.9-96.568c1.543 25.457-7.118 3.304-38.37 3.304C75.97-98.3 97.246 5.932 97.246-26.24 71.018-39.95 52.41-126.53 126.86-123.17c23.54 0 44.96 7.858 48.045 26.603z" fill-rule="evenodd" transform="matrix(-.15 0 0 .14 285.62 187.12)" stroke-width="5.125"/><path d="M275.614 199.195c0 .336.034 1.59.167 2.33.09.75.31 1.616.5 2.166.07.89.42 1.035.5 2 .31.453.442 1.188.5 1.997 0 .854-.137 1.512-.167 2.33-.096.713-.322 1.275-.333 2.166 0 .873 0 1.51.333 1.998v1.167" stroke-width=".75" fill="none"/><path d="M276.448 195.198c-.116 0-.206 4.026-1.166 4.996-.208.642-.914 1.47-1.165 1.998-.335.492-.796 1.074-1.665 1.332h-2.332c-.926 0-1.494.01-2.164-.333a1.55 1.55 0 0 1-.666-.665m-2.498.5h-.167c.466 0 .22-.022-.666.332-.346.507-.755.725-1.333 1-.596.293-1.278.333-2.165.333-.84-.07-1.348-.337-1.832-.666-.808-.262-.962-.587-1.165-1.5v-2.33a7.448 7.448 0 0 1 .5-1.832c.084-.252.166-.14.166-.5m-6.992 6.328c.084 0 .53.515.832 1 .514.183.647.742.832 1.165.134.535.334.572.334 1.332.336.742.44 1.4.5 2.165l-.5-2.165c.336.742.44 1.4.5 2.165m7.326-18.982h.166c-.45 0-.22-.01.666.166.364.454.962.86 1.5 1.165.594.366 1.072.803 1.664 1l-1.665-1c.595.366 1.073.803 1.665 1m7.826-2.997h-.167c.45 0 .22-.01-.666.167-.586.278-.95.578-1.497 1-.258.386-.652.46-.833 1.164-.314.17-.424.334-.5.833m-1.332-7.493h-.832c-.906 0-1.347.136-2.165.167-.706-.084-.875-.347-1.497-.5m1.332 20.983c-.028.132-.33.85-.5 1.165-.303.503-.707.983-.832 1.666-.194.58-.306 1.246-.334 1.998-.153.7-.254 1.324.166 1.832.18.658.514 1.138.832 1.83.222 0 .167-.054.167.168m5.83-8.327v.166c0-.448-.01-.22.166.667.23.803.43 1.478.834 1.998.22.66.465.9.5 1.832-.133.31-.167.653-.167 1.166m-.5 1v.832c-.182.242-.11.26-.333.333m14.152-9.326v.166c0-.465.052-.187-.833.167-.714.128-1.587.207-2.164.333-.536.262-1.054.696-1.5 1-.398.345-.963.695-1.498.998-.6.3-.865.565-1.166 1.166-.18.242-.11.26-.333.333" stroke-width=".75" fill="none"/><path d="M423.78-16.655c.123-.184 2.467-1.914 4.996-2.498 1.805-1.354 4.812-.74 6.66 0" transform="matrix(-.32 0 0 .2 403.23 180.6)" stroke-width="3" fill="none"/><path d="M445.42-19.153h.833c-2.248 0-1.106.054 3.33-.833 3.48-1.16 7.672-.832 11.656-.832 1.17.39.83.242.83 1.665M444.59-7.497v.833c0-2.327-.103-1.09 1.666 3.33.643 2.962 1.76 7.05.832 9.158-2.184 0-2.86-.274-4.163-.833" transform="matrix(-.24 0 0 .2 373.51 180.6)" stroke-width="3.402" fill="none"/><path d="M371.33-24.98c0 3.218-4.1 5.827-9.158 5.827s-9.158-2.61-9.158-5.828 4.1-5.83 9.158-5.83 9.158 2.61 9.158 5.83z" fill-rule="evenodd" transform="matrix(-.24 -.04 -.02 .1 350.64 199.07)" stroke-width="4.501"/><path d="M371.33-24.98c0 3.218-4.1 5.827-9.158 5.827s-9.158-2.61-9.158-5.828 4.1-5.83 9.158-5.83 9.158 2.61 9.158 5.83z" fill-rule="evenodd" transform="matrix(-.17 -.02 -.02 .08 330.5 187.51)" stroke-width="6.528"/><path d="M371.33-24.98c0 3.218-4.1 5.827-9.158 5.827s-9.158-2.61-9.158-5.828 4.1-5.83 9.158-5.83 9.158 2.61 9.158 5.83z" fill-rule="evenodd" transform="matrix(-.17 -.02 -.02 .08 325.19 187)" stroke-width="6.528"/><path d="M270.62 202.608c0 .414.373.75.833.75.46 0 .832-.336.832-.75s-.373-.75-.832-.75c-.46 0-.833.336-.833.75zm-11.324 1.25c0 .276.26.5.583.5.32 0 .582-.224.582-.5s-.26-.5-.583-.5c-.323 0-.584.224-.584.5z" fill-rule="evenodd" stroke-width=".75"/><path d="M263.792 186.207v.166c0-.56-.04-.206.833.666.744.356 1.032.733 1.332 1.33.348.77.468 1.324.5 2.166v1.333m2.83-5.83c-.114 0-.294.455-.5 1-.37.437-.606 1.07-.665 1.83 0 .905-.156 1.292-.166 2.166v.666m-15.654 13.986c0 .096.52.29.832.666.632.085 1.193.166 1.998.166.122-.183.367-.243.666-.333" stroke-width=".75" fill="none"/></g><g fill-rule="evenodd" stroke="#000" stroke-width="3.75" fill="#fff"><path d="M276.41 36.63l88.253 1.665V49.95s8.325 14.987 13.32 48.29c4.996 33.303 9.992 158.19 9.992 158.19l21.646 141.54s-13.32 21.647-23.31 19.982c-9.99-1.666-39.96-13.32-39.96-14.987 0-1.665-1.666-79.926-4.996-133.21-3.33-53.285-9.99-81.592-24.976-104.9-19.982 48.288-21.647 98.243-19.982 98.243s1.665 39.963 3.33 69.936c1.666 29.972-1.665 71.6-1.665 71.6l-58.28-3.33s1.665-36.633 3.33-64.94c1.666-28.307 6.745-41.625 8.327-73.266 1.748-34.963 4.202-53.32 6.66-109.9 3.238-45.74 14.687-75.258 17.9-103.24.87-7.133-.416-12.488.416-13.32z" transform="matrix(-.2 0 0 .13 334.44 211.38)"/><path d="M316.38 166.51s-8.326-13.32-11.656-36.633-3.33-28.307-3.33-28.307m-3.334 131.55l-9.99 39.963" transform="matrix(-.2 0 0 .13 334.44 211.38)"/><path d="M276.41 223.12l11.657 54.95" transform="matrix(-.2 0 0 .13 321.91 211.6)"/><path d="M387.98 417.95l-11.66-81.6M276.41 44.955l88.253 1.665M318.04 164.84c0-1.665 4.995-29.972 4.995-29.972M284.74 44.955l-8.326 84.922" transform="matrix(-.2 0 0 .13 334.44 211.38)"/></g><path d="M435.436 239.833c0 63.42-51.416 114.837-114.838 114.837S205.76 303.254 205.76 239.833s51.417-114.838 114.838-114.838 114.838 51.416 114.838 114.838z" stroke="#006a00" stroke-width="2.894" fill="none"/><g stroke-width="1pt"><path d="M446.172 215.426c14.442 12.315-2.86 24.63-10.832 24.63-7.972 0-25.275-12.316-10.832-24.63-3.61 12.315 10.832 15.394 10.832 21.552 0-6.158 14.443-9.236 10.832-21.552z" fill-rule="evenodd" fill="#006a00"/><path d="M336.61 432.28c35.433 124.02-53.15 106.3-53.15 141.73 0-35.433-88.582-17.717-53.15-141.73" stroke="#000" fill="none" transform="matrix(.2 0 0 .17 377.57 140.31)"/></g><g stroke-width="1pt"><path d="M310.32 112.045c13.822-13.01 24.133 5.57 23.25 13.502-.88 7.933-15.017 23.79-25.644 8.056 11.825 4.955 16.478-9.077 22.59-8.396-6.112-.68-7.57-15.394-20.195-13.162z" fill-rule="evenodd" fill="#006a00"/><path d="M336.61 432.28c35.433 124.02-53.15 106.3-53.15 141.73 0-35.433-88.582-17.717-53.15-141.73" stroke="#000" fill="none" transform="matrix(.02 -.2 .17 .02 228.17 172.01)"/></g><g stroke-width="1pt"><path d="M347.045 361.822c-10.01 16.134-24.75.84-25.938-7.054-1.188-7.893 8.395-26.86 22.71-14.395-12.7-1.74-13.59 13.018-19.67 13.936 6.08-.92 11.274 12.92 22.898 7.51z" fill-rule="evenodd" fill="#006a00"/><path d="M336.61 432.28c35.433 124.02-53.15 106.3-53.15 141.73 0-35.433-88.582-17.717-53.15-141.73" stroke="#000" fill="none" transform="matrix(.03 .2 -.17 .03 411.01 282.71)"/></g><g stroke-width="1pt"><path d="M194.105 247.072c-13.647-13.193 4.388-24.403 12.345-23.905 7.957.498 24.46 13.87 9.277 25.258 4.37-12.066-9.852-16.04-9.47-22.187-.382 6.146-14.988 8.317-12.152 20.834z" fill-rule="evenodd" fill="#006a00"/><path d="M336.61 432.28c35.433 124.02-53.15 106.3-53.15 141.73 0-35.433-88.582-17.717-53.15-141.73" stroke="#000" fill="none" transform="matrix(-.2 0 0 -.17 257.89 326.33)"/></g><g stroke-width="1pt"><path d="M435.467 184.24c16.876 8.673 2.853 24.63-4.908 26.458-7.76 1.83-27.42-6.188-16.18-21.49-.7 12.817 14.063 12.5 15.472 18.495-1.41-5.994 11.945-12.304 5.612-23.464z" fill-rule="evenodd" fill="#006a00"/><path d="M336.61 432.28c35.433 124.02-53.15 106.3-53.15 141.73 0-35.433-88.582-17.717-53.15-141.73" stroke="#000" fill="none" transform="matrix(.2 -.05 .04 .17 351.5 126.86)"/></g><g stroke-width="1pt"><path d="M275.64 120.38c8.96-16.74 24.645-2.42 26.335 5.382 1.69 7.8-6.665 27.342-21.745 15.818 12.785.924 12.73-13.86 18.74-15.166-6.01 1.305-12.074-12.175-23.33-6.033z" fill-rule="evenodd" fill="#006a00"/><path d="M336.61 432.28c35.433 124.02-53.15 106.3-53.15 141.73 0-35.433-88.582-17.717-53.15-141.73" stroke="#000" fill="none" transform="matrix(-.04 -.2 .17 -.04 216.85 203.43)"/></g><g stroke-width="1pt"><path d="M383.86 347.56c-3.944 18.58-22.995 9.205-26.79 2.184-3.793-7.02-1.21-28.118 16.48-21.26-12.536 2.682-8.367 16.865-13.776 19.796 5.41-2.93 14.986 8.322 24.086-.72z" fill-rule="evenodd" fill="#006a00"/><path d="M336.61 432.28c35.433 124.02-53.15 106.3-53.15 141.73 0-35.433-88.582-17.717-53.15-141.73" stroke="#000" fill="none" transform="matrix(.1 .18 -.15 .08 417.2 251.4)"/></g><g stroke-width="1pt"><path d="M201.03 279.352c-17.135-8.152-3.607-24.532 4.093-26.598 7.7-2.067 27.597 5.343 16.83 20.982.304-12.83-14.442-12.06-16.034-18.01 1.59 5.948-11.566 12.666-4.89 23.626z" fill-rule="evenodd" fill="#006a00"/><path d="M336.61 432.28c35.433 124.02-53.15 106.3-53.15 141.73 0-35.433-88.582-17.717-53.15-141.73" stroke="#000" fill="none" transform="matrix(-.2 .05 -.04 -.17 286.71 334.13)"/></g><g stroke-width="1pt"><path d="M418.277 160.327c18.784 2.654 10.76 22.333 4.03 26.608-6.733 4.276-27.932 3.156-22.323-14.99 3.54 12.337 17.38 7.19 20.676 12.39-3.294-5.198 7.255-15.544-2.383-24.008z" fill-rule="evenodd" fill="#006a00"/><path d="M336.61 432.28c35.433 124.02-53.15 106.3-53.15 141.73 0-35.433-88.582-17.717-53.15-141.73" stroke="#000" fill="none" transform="matrix(.17 -.1 .1 .15 320.16 133.68)"/></g><g stroke-width="1pt"><path d="M245.943 137.4c4.71-18.4 23.357-8.24 26.856-1.068 3.5 7.172.04 28.145-17.35 20.557 12.636-2.16 9.06-16.506 14.585-19.21-5.526 2.703-14.628-8.938-24.095-.283z" fill-rule="evenodd" fill="#006a00"/><path d="M336.61 432.28c35.433 124.02-53.15 106.3-53.15 141.73 0-35.433-88.582-17.717-53.15-141.73" stroke="#000" fill="none" transform="matrix(-.1 -.18 .16 -.08 208.65 232.09)"/></g><g stroke-width="1pt"><path d="M410.195 327.94c1.517 18.934-19.414 15.395-25.052 9.75-5.638-5.642-9.178-26.6 9.732-25.085-11.25 6.154-3.21 18.555-7.558 22.91 4.347-4.355 16.735 3.692 22.878-7.574z" fill-rule="evenodd" fill="#006a00"/><path d="M336.61 432.28c35.433 124.02-53.15 106.3-53.15 141.73 0-35.433-88.582-17.717-53.15-141.73" stroke="#000" fill="none" transform="matrix(.14 .14 -.12 .12 414.73 226.25)"/></g><g stroke-width="1pt"><path d="M213.82 306.27c-18.582-3.82-9.35-22.96-2.364-26.806 6.986-3.847 28.074-1.406 21.346 16.354-2.764-12.533-16.9-8.262-19.864-13.657 2.963 5.4-8.21 15.065.882 24.11z" fill-rule="evenodd" fill="#006a00"/><path d="M336.61 432.28c35.433 124.02-53.15 106.3-53.15 141.73 0-35.433-88.582-17.717-53.15-141.73" stroke="#000" fill="none" transform="matrix(-.18 .1 -.08 -.15 310.09 338.99)"/></g><g stroke-width="1pt"><path d="M393.347 138.187c18.82-2.372 16.233 18.724 10.857 24.618-5.377 5.894-26.128 10.38-25.468-8.603 6.646 10.975 18.657 2.374 23.198 6.527-4.54-4.156 2.93-16.91-8.587-22.546z" fill-rule="evenodd" fill="#006a00"/><path d="M336.61 432.28c35.433 124.02-53.15 106.3-53.15 141.73 0-35.433-88.582-17.717-53.15-141.73" stroke="#000" fill="none" transform="matrix(.14 -.15 .13 .12 291.68 138.24)"/></g><g stroke-width="1pt"><path d="M221.634 159.638c-.273-18.992 20.38-14.084 25.637-8.082 5.26 6.002 7.418 27.147-11.35 24.392 11.627-5.4 4.42-18.303 9.043-22.363-4.623 4.06-16.456-4.785-23.325 6.053z" fill-rule="evenodd" fill="#006a00"/><path d="M336.61 432.28c35.433 124.02-53.15 106.3-53.15 141.73 0-35.433-88.582-17.717-53.15-141.73" stroke="#000" fill="none" transform="matrix(-.13 -.15 .13 -.1 210.44 260.81)"/></g><g stroke-width="1pt"><path d="M428.034 301.192c5.935 18.04-15.24 19.545-22.048 15.393-6.808-4.153-15.186-23.684 3.548-26.677-9.483 8.637 1.25 18.79-1.95 24.048 3.2-5.26 17.134-.365 20.45-12.764z" fill-rule="evenodd" fill="#006a00"/><path d="M336.61 432.28c35.433 124.02-53.15 106.3-53.15 141.73 0-35.433-88.582-17.717-53.15-141.73" stroke="#000" fill="none" transform="matrix(.17 .1 -.1 .15 408.48 201.3)"/></g><g stroke-width="1pt"><path d="M234.75 330.176c-18.932 1.19-15.035-19.702-9.3-25.25 5.732-5.545 26.722-8.726 24.88 10.18-5.95-11.37-18.472-3.537-22.746-7.965 4.273 4.43-3.977 16.69 7.166 23.04z" fill-rule="evenodd" fill="#006a00"/><path d="M336.61 432.28c35.433 124.02-53.15 106.3-53.15 141.73 0-35.433-88.582-17.717-53.15-141.73" stroke="#000" fill="none" transform="matrix(-.15 .14 -.12 -.13 336.22 336.48)"/></g><g stroke-width="1pt"><path d="M367.436 121.305c18-5.994 19.564 15.202 15.435 22.03-4.124 6.83-23.61 15.274-26.65-3.474 8.654 9.47 18.76-1.303 24.025 1.885-5.26-3.188-.413-17.153-12.806-20.437z" fill-rule="evenodd" fill="#006a00"/><path d="M336.61 432.28c35.433 124.02-53.15 106.3-53.15 141.73 0-35.433-88.582-17.717-53.15-141.73" stroke="#000" fill="none" transform="matrix(.1 -.17 .15 .1 267.73 141.17)"/></g><g stroke-width="1pt"><path d="M204.46 190.387c-6.63-17.796 14.47-20.122 21.435-16.238 6.964 3.88 16.094 23.07-2.51 26.79 9.14-8.998-1.98-18.725 1.014-24.105-2.997 5.38-17.11 1.03-19.94 13.55z" fill-rule="evenodd" fill="#006a00"/><path d="M336.61 432.28c35.433 124.02-53.15 106.3-53.15 141.73 0-35.433-88.582-17.717-53.15-141.73" stroke="#000" fill="none" transform="matrix(-.18 -.1 .1 -.15 227.87 289.44)"/></g><g stroke-width="1pt"><path d="M440.556 278.107c7.952 17.244-12.913 21.157-20.15 17.81-7.237-3.35-17.786-21.795.484-26.908-8.436 9.66 3.385 18.52.805 24.11 2.58-5.59 16.98-2.32 18.86-15.016z" fill-rule="evenodd" fill="#006a00"/><path d="M336.61 432.28c35.433 124.02-53.15 106.3-53.15 141.73 0-35.433-88.582-17.717-53.15-141.73" stroke="#000" fill="none" transform="matrix(.18 .1 -.07 .16 409.75 181.1)"/></g><g stroke-width="1pt"><path d="M270.06 353.976c-17.433 7.492-20.774-13.498-17.235-20.65 3.54-7.153 22.24-17.21 26.85 1.213-9.418-8.71-18.584 2.882-24.096.15 5.51 2.732 1.85 17.056 14.48 19.283z" fill-rule="evenodd" fill="#006a00"/><path d="M336.61 432.28c35.433 124.02-53.15 106.3-53.15 141.73 0-35.433-88.582-17.717-53.15-141.73" stroke="#000" fill="none" transform="matrix(-.1 .18 -.15 -.08 367.74 325.77)"/></g><g stroke-width="1pt"><path d="M447.844 249.543c11.412 15.173-8.157 23.412-15.937 21.67-7.78-1.74-21.983-17.54-5.204-26.402-6.207 11.23 7.216 17.39 5.875 23.4 1.34-6.01 16.107-5.86 15.266-18.664z" fill-rule="evenodd" fill="#006a00"/><path d="M336.61 432.28c35.433 124.02-53.15 106.3-53.15 141.73 0-35.433-88.582-17.717-53.15-141.73" stroke="#000" fill="none" transform="matrix(.2 .04 -.04 .17 397.26 161.25)"/></g><g stroke-width="1pt"><path d="M339.332 114.35c16.322-9.678 22.337 10.705 19.748 18.255-2.588 7.55-19.84 19.936-26.783 2.26 10.46 7.418 18.06-5.26 23.876-3.26-5.816-2-4.035-16.676-16.84-17.256z" fill-rule="evenodd" fill="#006a00"/><path d="M336.61 432.28c35.433 124.02-53.15 106.3-53.15 141.73 0-35.433-88.582-17.717-53.15-141.73" stroke="#000" fill="none" transform="matrix(.07 -.2 .16 .06 246.09 154.92)"/></g><g stroke-width="1pt"><path d="M305.89 364.498c-15.547 10.883-23.08-8.99-21.066-16.712 2.013-7.724 18.282-21.378 26.536-4.276-10.99-6.608-17.61 6.607-23.562 5.053 5.95 1.554 5.28 16.324 18.093 15.935z" fill-rule="evenodd" fill="#006a00"/><path d="M336.61 432.28c35.433 124.02-53.15 106.3-53.15 141.73 0-35.433-88.582-17.717-53.15-141.73" stroke="#000" fill="none" transform="matrix(-.05 .2 -.17 -.04 395.81 317)"/></g><g stroke-width="1pt"><path d="M196.065 216.915c-10.444-15.856 9.6-22.857 17.256-20.633 7.66 2.224 20.85 18.878 3.55 26.676 6.898-10.82-6.115-17.806-4.402-23.72-1.713 5.914-16.44 4.842-16.4 17.677z" fill-rule="evenodd" fill="#006a00"/><path d="M336.61 432.28c35.433 124.02-53.15 106.3-53.15 141.73 0-35.433-88.582-17.717-53.15-141.73" stroke="#000" fill="none" transform="matrix(-.2 -.06 .05 -.17 241.05 308.2)"/></g><g stroke="#000"><path d="M193.63 88.25c15.546 4.423 43.275 46.12 53.766 45.79 16.652-.48 83.233-77.56 72.564-88.252-7.4-8.246-67.94 41.192-71.852 44.126-.67-8.6-15.95-51.042-28.31-59.945-14.62-9.31-32.21-4.16-47.82-6.665-7.3-2.843-18.84-14.056-23.78-24.976 8.182-3.544 15.323-2.48 23.31-10.65 5.68-6.643 2.382-46.914.37-51.06-13.29-14.268 5.43-7.327-39.023-9.08-64.268-2.448-75.878 49.58-31.653 70.79-3.462 15.93-14.22 19.594-22.94 21.646-8.776.106-38.825-.763-55.545 12.49-33.403 24.55-8.925 30.903-15.352 35.8C.192 73.91-10.503 88.093-14.523 96.573c-10.472 4.996-99.485-4.995-116.5-1.664-16.42.962-56.467 15.815-73.15 26.64 3.565 14.14 241.51-7.605 249.27-2.5 5.946 3.346-2.705 51.238 2.01 54.95 1.66 9.063 116.54 5.83 125.6 5.83 7.558-18.86 15.39-81.558 20.926-91.583z" fill-rule="evenodd" transform="matrix(.13 0 0 .2 363.59 187.47)" stroke-width="4.702" fill="#520900"/><path d="M174.9-96.568c1.543 25.457-7.118 3.304-38.37 3.304C75.97-98.3 97.246 5.932 97.246-26.24 71.018-39.95 52.41-126.53 126.86-123.17c23.54 0 44.96 7.858 48.045 26.603z" fill-rule="evenodd" transform="matrix(.15 0 0 .14 359.98 188.33)" stroke-width="5.125"/><path d="M369.986 200.405c0 .336-.034 1.59-.167 2.33-.09.75-.31 1.616-.5 2.166-.07.89-.42 1.035-.5 2-.31.453-.442 1.188-.5 1.997 0 .854.137 1.512.167 2.33.096.713.322 1.275.333 2.166 0 .873 0 1.51-.333 1.998v1.167" stroke-width=".75" fill="none"/><path d="M369.152 196.408c.116 0 .206 4.026 1.166 4.996.208.642.914 1.47 1.165 1.998.335.492.796 1.074 1.665 1.332h2.332c.926 0 1.494.01 2.164-.333a1.55 1.55 0 0 0 .666-.665m2.498.5h.167c-.466 0-.22-.022.666.332.346.507.755.725 1.333 1 .596.293 1.278.333 2.165.333.84-.07 1.348-.337 1.832-.666.808-.262.962-.587 1.165-1.5v-2.33a7.448 7.448 0 0 0-.5-1.832c-.084-.252-.166-.14-.166-.5m6.992 6.328c-.084 0-.53.515-.832 1-.514.183-.647.742-.832 1.165-.134.535-.334.572-.334 1.332-.336.742-.44 1.4-.5 2.165l.5-2.165c-.336.742-.44 1.4-.5 2.165m-7.326-18.982h-.166c.45 0 .22-.01-.666.166-.364.454-.962.86-1.5 1.165-.594.366-1.072.803-1.664 1l1.665-1c-.595.366-1.073.803-1.665 1m-7.826-2.997h.167c-.45 0-.22-.01.666.167.586.278.95.578 1.497 1 .258.386.652.46.833 1.164.314.17.424.334.5.833m1.332-7.493h.832c.906 0 1.347.136 2.165.167.706-.084.875-.347 1.497-.5m-1.332 20.983c.028.132.33.85.5 1.165.303.503.707.983.832 1.666.194.58.306 1.246.334 1.998.153.7.254 1.324-.166 1.832-.18.658-.514 1.138-.832 1.83-.222 0-.167-.054-.167.168m-5.83-8.327v.166c0-.448.01-.22-.166.667-.23.803-.43 1.478-.834 1.998-.22.66-.465.9-.5 1.832.133.31.167.653.167 1.166m.5 1v.832c.182.242.11.26.333.333m-14.152-9.326v.166c0-.465-.052-.187.833.167.714.128 1.587.207 2.164.333.536.262 1.054.696 1.5 1 .398.345.963.695 1.498.998.6.3.865.565 1.166 1.166.18.242.11.26.333.333" stroke-width=".75" fill="none"/><path d="M423.78-16.655c.123-.184 2.467-1.914 4.996-2.498 1.805-1.354 4.812-.74 6.66 0" transform="matrix(.32 0 0 .2 242.37 181.81)" stroke-width="3" fill="none"/><path d="M445.42-19.153h.833c-2.248 0-1.106.054 3.33-.833 3.48-1.16 7.672-.832 11.656-.832 1.17.39.83.242.83 1.665M444.59-7.497v.833c0-2.327-.103-1.09 1.666 3.33.643 2.962 1.76 7.05.832 9.158-2.184 0-2.86-.274-4.163-.833" transform="matrix(.24 0 0 .2 272.09 181.81)" stroke-width="3.402" fill="none"/><path d="M371.33-24.98c0 3.218-4.1 5.827-9.158 5.827s-9.158-2.61-9.158-5.828 4.1-5.83 9.158-5.83 9.158 2.61 9.158 5.83z" fill-rule="evenodd" transform="matrix(.24 -.04 .02 .1 294.95 200.28)" stroke-width="4.501"/><path d="M371.33-24.98c0 3.218-4.1 5.827-9.158 5.827s-9.158-2.61-9.158-5.828 4.1-5.83 9.158-5.83 9.158 2.61 9.158 5.83z" fill-rule="evenodd" transform="matrix(.17 -.02 .02 .08 315.1 188.72)" stroke-width="6.528"/><path d="M371.33-24.98c0 3.218-4.1 5.827-9.158 5.827s-9.158-2.61-9.158-5.828 4.1-5.83 9.158-5.83 9.158 2.61 9.158 5.83z" fill-rule="evenodd" transform="matrix(.17 -.02 .02 .08 320.41 188.21)" stroke-width="6.528"/><path d="M374.98 203.818c0 .414-.373.75-.833.75-.46 0-.832-.336-.832-.75s.373-.75.832-.75c.46 0 .833.336.833.75zm11.324 1.25c0 .276-.26.5-.583.5-.32 0-.582-.224-.582-.5s.26-.5.583-.5c.323 0 .584.224.584.5z" fill-rule="evenodd" stroke-width=".75"/><path d="M381.808 187.417v.166c0-.56.04-.206-.833.666-.744.356-1.032.733-1.332 1.33-.348.77-.468 1.324-.5 2.166v1.333m-2.83-5.83c.114 0 .294.455.5 1 .37.437.606 1.07.665 1.83 0 .905.156 1.292.166 2.166v.666m15.654 13.986c0 .096-.52.29-.832.666-.632.085-1.193.166-1.998.166-.122-.183-.367-.243-.666-.333" stroke-width=".75" fill="none"/></g><g fill-rule="evenodd" stroke="#000" stroke-width="3.75" fill="#fff"><path d="M276.41 36.63l88.253 1.665V49.95s8.325 14.987 13.32 48.29c4.996 33.303 9.992 158.19 9.992 158.19l21.646 141.54s-13.32 21.647-23.31 19.982c-9.99-1.666-39.96-13.32-39.96-14.987 0-1.665-1.666-79.926-4.996-133.21-3.33-53.285-9.99-81.592-24.976-104.9-19.982 48.288-21.647 98.243-19.982 98.243s1.665 39.963 3.33 69.936c1.666 29.972-1.665 71.6-1.665 71.6l-58.28-3.33s1.665-36.633 3.33-64.94c1.666-28.307 6.745-41.625 8.327-73.266 1.748-34.963 4.202-53.32 6.66-109.9 3.238-45.74 14.687-75.258 17.9-103.24.87-7.133-.416-12.488.416-13.32z" transform="matrix(.2 0 0 .13 311.17 212.59)"/><path d="M316.38 166.51s-8.326-13.32-11.656-36.633-3.33-28.307-3.33-28.307m-3.334 131.55l-9.99 39.963" transform="matrix(.2 0 0 .13 311.17 212.59)"/><path d="M276.41 223.12l11.657 54.95" transform="matrix(.2 0 0 .13 323.69 212.81)"/><path d="M387.98 417.95l-11.66-81.6M276.41 44.955l88.253 1.665M318.04 164.84c0-1.665 4.995-29.972 4.995-29.972M284.74 44.955l-8.326 84.922" transform="matrix(.2 0 0 .13 311.17 212.59)"/></g><path d="M349.68 188.16c0 13.794-7.082 24.977-15.82 24.977-8.736 0-15.818-11.183-15.818-24.977s7.082-24.977 15.82-24.977c8.735 0 15.818 11.183 15.818 24.977z" fill-rule="evenodd" transform="matrix(.34 0 0 .33 143.1 205.98)" stroke="#000" stroke-width="2.5" fill="#ffc600"/><g stroke-width="1pt"><g fill-rule="evenodd" stroke="#000"><path d="M212.6 892.91s53.15-17.716 70.867-17.716c17.716 0 17.716 17.716 19.135 18.212l-1.42 34.937H212.6V892.91z" transform="matrix(.2 0 0 .24 240.01 90.38)" fill="#00cfe6"/><path d="M265.75 892.91s0-17.716 17.717-17.716c17.716 0 35.433-.496 53.15 0v53.15H265.75V892.91z" transform="matrix(.2 0 0 -.24 247.22 541.99)" fill="#00cfe6"/><path d="M212.6 892.91s53.15-17.716 70.867-17.716c17.716 0 17.716 17.716 19.135 18.212l-1.42 34.937H212.6V892.91z" transform="matrix(-.2 0 0 .24 413.14 90.43)" fill="#00cfe6"/><path d="M265.75 892.91s0-17.716 17.717-17.716c17.716 0 35.433-.496 53.15 0v53.15H265.75V892.91z" transform="matrix(-.2 0 0 -.24 405.92 542.04)" fill="#00cfe6"/><path d="M249.45 875.2s0-17.717-17.716-17.717h53.15L249.45 875.2z" transform="matrix(-.2 0 0 -.24 395.39 537.77)" fill="#fff"/><path d="M380.282 304.728l-25.512 12.756s8.65 7.992 17.008 8.504c4.252 0 8.504-8.504 8.504-8.504v-12.756z" fill="#00cfe6" stroke-width=".32"/><path d="M249.45 892.91c.71-8.858-2.214-35.434-19.93-35.434h55.363c17.717 0 35.434 17.717 35.434 35.434l-1.42 35.432H249.45V892.91z" transform="matrix(-.2 0 0 .24 402.61 94.7)" fill="#fff"/><path d="M249.45 875.2s0-17.717-17.716-17.717h53.15L249.45 875.2z" transform="matrix(.2 0 0 -.24 257.76 537.73)" fill="#fff"/><path d="M272.868 304.668l25.512 12.756s-8.65 7.992-17.008 8.504c-4.252 0-8.504-8.504-8.504-8.504v-12.756z" fill="#00cfe6" stroke-width=".32"/><path d="M249.45 892.91c.71-8.858-2.214-35.434-19.93-35.434h55.363c17.717 0 35.434 17.717 35.434 35.434l-1.42 35.432H249.45V892.91z" transform="matrix(.2 0 0 .24 250.54 94.64)" fill="#fff"/><path d="M88.802 891.9c-.11 1.012 17.607-34.42 53.04-34.42s177.16 70.865 247.92 70.865c70.975 0 196.65-72.56 230.42-70.866 33.773 1.69 53.52 37.16 53.15 35.43-.374-1.73-17.717 53.15-17.717 53.15 0-17.717-17.717-35.434-35.433-35.434-17.717 0-106.3 70.865-230.42 70.865-123.91 0-212.49-70.865-230.21-70.865-17.717 0-35.433 17.715-35.433 35.432L88.8 891.9z" transform="matrix(.2 0 0 .24 247.2 90.43)" fill="#fff"/></g><path d="M362.457 313.76l-3.153-9.625 3.228-1.48.373 1.135-2.638 1.21.966 2.948 2.47-1.133.37 1.128-2.47 1.133 1.072 3.276 2.74-1.258.374 1.137-3.336 1.53zm-13.537 6.302l-3.153-9.625.59-.27 2.78 8.487 2.2-1.01.373 1.138-2.79 1.28zm-4.097 1.924l-3.153-9.625 3.012-1.38.372 1.14-2.42 1.11.975 2.98 2.09-.963.374 1.137-2.095.962 1.432 4.372-.59.272zm-36.27.124l2.08-9.925 1.215.356-.027 7.456c0 .692-.005 1.212-.012 1.554.144-.34.365-.84.658-1.495l2.908-6.478 1.088.32-2.08 9.925-.777-.227 1.74-8.31-3.514 7.79-.73-.215.006-8.968-1.77 8.45-.78-.23zm-.356-10.882l.77.377-1.915 5.457c-.332.948-.663 1.67-.99 2.165-.33.493-.727.83-1.197 1.012-.465.18-.978.13-1.538-.15-.544-.266-.936-.634-1.175-1.11-.24-.474-.33-1.037-.278-1.685.056-.652.26-1.478.61-2.48l1.913-5.456.77.38-1.912 5.45c-.288.82-.454 1.447-.5 1.883-.04.432.018.81.17 1.133.158.322.4.565.73.727.566.278 1.04.27 1.427-.03.387-.3.788-1.04 1.204-2.226l1.91-5.45zm-15.467-6.582l.575.315-2.115 5.416c-.367.94-.71 1.662-1.025 2.163-.315.5-.67.85-1.066 1.06-.395.204-.8.19-1.22-.04a1.67 1.67 0 0 1-.82-1c-.14-.444-.155-.982-.04-1.613.112-.636.362-1.45.75-2.442l2.115-5.413.575.317-2.11 5.405c-.32.814-.52 1.435-.6 1.86-.08.42-.074.783.014 1.086.09.3.26.52.506.656.422.232.804.19 1.145-.124.342-.313.742-1.06 1.2-2.235l2.114-5.406zm-10.265 1.68l.583.196c-.158.484-.25.9-.275 1.256-.022.35.03.672.154.97.126.288.313.502.56.637.22.12.44.156.663.108a1.11 1.11 0 0 0 .598-.37c.18-.202.327-.45.44-.737.115-.296.175-.573.18-.833a1.6 1.6 0 0 0-.174-.77c-.078-.162-.276-.454-.596-.876-.317-.428-.52-.776-.61-1.047a2.84 2.84 0 0 1-.125-1.126c.035-.403.138-.822.306-1.25.18-.474.415-.88.7-1.22.286-.346.59-.56.912-.642.323-.083.63-.043.922.117.322.172.562.44.72.8.16.357.22.79.184 1.295a5.82 5.82 0 0 1-.364 1.594l-.586-.213c.203-.61.277-1.112.224-1.508-.052-.397-.245-.685-.58-.868-.347-.19-.655-.192-.923-.003-.264.185-.47.472-.624.86-.13.336-.182.644-.154.923.026.28.227.66.603 1.147.38.48.625.856.732 1.12.154.39.216.81.186 1.267-.03.45-.142.925-.338 1.428a4.75 4.75 0 0 1-.75 1.304c-.304.363-.63.602-.975.713a1.207 1.207 0 0 1-.977-.094 1.86 1.86 0 0 1-.846-.91c-.17-.395-.233-.88-.192-1.456.045-.58.186-1.186.423-1.82zm83.1.114c-.524-1.594-.734-2.937-.63-4.02.1-1.088.465-1.777 1.094-2.066.41-.19.85-.147 1.32.126s.915.75 1.34 1.433c.42.677.79 1.495 1.104 2.46.32.974.515 1.89.585 2.744.07.853.002 1.558-.203 2.11-.207.546-.504.907-.892 1.085-.42.193-.867.147-1.342-.14-.474-.283-.92-.766-1.338-1.444s-.767-1.442-1.044-2.287zm.615-.258c.38 1.16.823 2.007 1.33 2.545.51.534.982.7 1.42.5.444-.205.698-.71.763-1.517.068-.804-.1-1.827-.507-3.065-.257-.784-.542-1.44-.857-1.964-.317-.53-.645-.9-.988-1.11-.34-.212-.66-.253-.954-.12-.418.19-.676.67-.775 1.43-.1.755.09 1.858.564 3.305zm-8.91 9.846l-3.152-9.625 1.98-.908c.397-.182.728-.234.993-.154.267.08.53.308.8.69.267.38.486.835.66 1.365.224.683.31 1.305.26 1.87-.053.56-.273 1.002-.66 1.326.21.09.38.196.513.315.285.263.59.615.91 1.056l1.635 2.264-.743.34-1.246-1.73c-.364-.5-.65-.876-.863-1.132-.21-.252-.383-.42-.512-.502a.75.75 0 0 0-.35-.133c-.08 0-.193.034-.346.104l-.686.314 1.402 4.277-.59.27zm-1.17-5.648l1.27-.582c.27-.124.462-.282.576-.47.112-.192.164-.436.158-.735a3.285 3.285 0 0 0-.166-.922c-.15-.45-.348-.79-.6-1.012-.247-.224-.537-.26-.868-.108l-1.413.65 1.044 3.182zm-5.578 3.264c-.522-1.595-.734-2.937-.63-4.02.1-1.09.466-1.777 1.095-2.066.412-.19.853-.148 1.323.125s.916.75 1.34 1.433c.42.677.79 1.496 1.105 2.46.32.975.515 1.89.585 2.745.07.856 0 1.56-.203 2.11-.206.55-.504.91-.89 1.09-.422.192-.868.146-1.343-.14-.474-.284-.92-.767-1.338-1.446-.42-.678-.767-1.44-1.044-2.286zm.615-.26c.38 1.16.824 2.01 1.332 2.546.505.534.98.7 1.413.5.445-.204.7-.71.765-1.517.07-.804-.1-1.827-.507-3.065-.255-.784-.542-1.44-.856-1.964-.314-.53-.642-.9-.984-1.11-.34-.216-.66-.257-.954-.122-.42.192-.678.67-.777 1.428-.098.756.09 1.858.563 3.305zm-34.213 10.904l1.186-10.13 2.336.384c.477.078.846.244 1.108.5.265.25.452.6.564 1.055.115.452.145.91.09 1.375a3.34 3.34 0 0 1-.36 1.187 2.02 2.02 0 0 1-.762.815c.355.242.61.594.76 1.06.152.466.194.996.125 1.585a4.456 4.456 0 0 1-.34 1.297c-.17.383-.36.673-.563.863a1.623 1.623 0 0 1-.743.393c-.284.066-.625.068-1.022.003l-2.373-.39zm1.51-5.74l1.35.222c.364.06.63.063.798.014a.922.922 0 0 0 .53-.43c.137-.216.225-.502.266-.857.04-.336.025-.64-.045-.908-.07-.28-.19-.477-.363-.6-.173-.126-.484-.226-.93-.3l-1.246-.204-.36 3.06zm-.546 4.68l1.55.253c.267.048.456.06.568.05.196-.027.365-.093.508-.2.143-.11.27-.28.38-.51.11-.234.185-.514.223-.835.044-.38.023-.715-.063-1.01-.086-.302-.23-.525-.43-.67-.195-.15-.49-.256-.888-.32l-1.44-.237-.408 3.48zm6.362 2.297v-10.227h2.79c.558 0 .985.093 1.277.28.29.18.525.503.7.97.174.464.26.977.26 1.54 0 .726-.144 1.337-.433 1.836-.29.496-.734.812-1.338.948.22.172.388.34.502.508.243.363.473.817.69 1.36l1.094 2.785h-1.046l-.833-2.128a22.78 22.78 0 0 0-.6-1.41c-.158-.325-.3-.554-.425-.683a1.053 1.053 0 0 0-.377-.272c-.09-.034-.245-.05-.46-.05h-.965v4.543h-.832zm.832-5.713h1.79c.38 0 .677-.065.89-.19.216-.13.378-.333.49-.612a2.5 2.5 0 0 0 .167-.922c0-.482-.11-.88-.33-1.192-.214-.312-.555-.468-1.02-.468h-1.99v3.384zm6.453 5.44l.87-10.567.884-.186 4.04 9.535-.936.196-1.18-2.9-2.588.544-.225 3.194-.87.182zm1.168-4.51l2.1-.44-1.065-2.65a38.953 38.953 0 0 1-.75-1.998c.017.663 0 1.328-.047 1.993l-.234 3.097zm-40.427-5.502l3.66-9.37 1.63.893c.333.182.56.424.686.725.128.298.17.675.13 1.132a4.78 4.78 0 0 1-.31 1.328c-.157.4-.355.75-.594 1.048s-.503.5-.79.608c.196.31.288.702.272 1.18-.015.477-.13.99-.342 1.535-.17.434-.374.82-.61 1.152-.23.328-.45.56-.656.695a1.18 1.18 0 0 1-.66.203c-.23 0-.483-.075-.76-.226l-1.656-.907zm2.697-5.118l.94.514c.255.14.452.203.59.193.183-.018.355-.115.512-.29.16-.177.305-.43.433-.758.12-.31.193-.603.216-.874.024-.277-.012-.493-.107-.648-.094-.16-.297-.325-.61-.496l-.868-.475-1.11 2.83zm-1.69 4.326l1.082.592c.186.102.322.158.408.17a.715.715 0 0 0 .432-.074c.136-.07.277-.204.422-.398.147-.198.28-.447.395-.745a3.15 3.15 0 0 0 .23-.975c.02-.306-.025-.55-.134-.733-.104-.187-.295-.355-.572-.506l-1.005-.555-1.254 3.22z"/></g><path d="M212.6 432.28v106.3c0 70.866 88.583 106.3 88.583 106.3s88.583-35.433 88.583-106.3v-106.3h-177.17z" fill-rule="evenodd" transform="matrix(.4 0 0 .38 201.1 45.18)" stroke="#000" stroke-width="1pt" fill="#00daec"/><path d="M212.6 432.28v106.3a83.104 83.104 0 0 0 3.806 24.914l84.777-42.63V432.28H212.6z" fill-rule="evenodd" transform="matrix(.4 0 0 .38 201.1 45.18)" stroke="#000" stroke-width="1pt" fill="#fff"/><path d="M212.6 432.28v106.3a83.104 83.104 0 0 0 3.806 24.914l84.777-42.63V432.28H212.6z" fill-rule="evenodd" transform="matrix(-.4 0 0 .38 446.39 45.18)" stroke="#000" stroke-width="1pt" fill="#fff300"/><g fill-rule="evenodd" transform="matrix(.4 0 0 .38 201.1 45.18)" stroke="#000" stroke-width="1.25"><path d="M244.77 87.42c7.322-5.948 11.157-3.72 17.65 3.1 9.322 9.815 41.317 58.855 46.312 63.02s4.24-6.42 10.344-1.39c3.032 3.728-10.437 17.027-13.737 14.57-6.415-5.02 3.91-5.375-.358-9.644-4.925-5.133-51.215-40.497-60.282-50.57-5.92-6.578-6.313-13.97.068-19.088z" transform="matrix(.64 .24 .14 .7 58.9 338.88)" fill="#923d09"/><rect ry="1.293" rx="2.606" transform="matrix(.76 .66 -.6 .8 0 0)" height="66.045" width="5.212" y="181.35" x="495.52" fill="#af8000"/><path transform="rotate(33.9) skewX(-5.71)" fill="#b0b0d4" d="M497.3 228.63h29.375v18.868H497.3z"/></g><g stroke="#000" fill-rule="evenodd" transform="matrix(.4 0 0 .38 201.1 45.18)"><path d="M385.112 528.567c4.885-2.105-27.333-35.603-33.785-51.842-6.452-16.24-6.108-16.717-8.617-24.322l-3.15 1.36c.805 4.93 15.87 43.87 30.735 64.15 4.198 5.82.63 16.77 5.36 14.73l9.457-4.076z" stroke-width="1pt" fill="#af8000"/><path d="M341.548 453.55l-25.872 2.485s-4.83 4.107-2.573 12.665c2.255 8.558 8.965 11.892 8.965 11.892l22.668-17.557-3.188-9.486z" stroke-width="1pt" fill="gray"/><rect ry="3.532" rx="3.532" transform="rotate(-18.58)" height="19.428" width="7.064" y="534.62" x="175.71" stroke-width="1pt" fill="gray"/><path d="M239.61 381.52c0 7.316-1.58 13.246-3.532 13.246-1.95 0-3.533-5.93-3.533-13.246 0-7.316 1.582-13.246 3.533-13.246s3.532 5.93 3.532 13.246z" transform="matrix(.74 -.72 .64 .4 -105.9 523.83)" stroke-width="1pt" fill="#cf0000"/><path d="M239.61 381.52c0 7.316-1.58 13.246-3.532 13.246-1.95 0-3.533-5.93-3.533-13.246 0-7.316 1.582-13.246 3.533-13.246s3.532 5.93 3.532 13.246z" transform="matrix(-.98 .3 .03 .76 595.47 104.78)" stroke-width="1pt" fill="#cf0000"/><path transform="matrix(.86 -.5 .5 .87 0 0)" stroke-width="1.153" fill="#b0b0d4" d="M15.073 596.25H93.94v17.796H15.074z"/></g><path d="M231.36 591.4l8.83-7.065s1.767 8.83 7.065 8.83 8.83-7.652 8.83-7.652 0 7.653 5.888 7.653 10.597-7.653 10.597-7.064c0 .588.588 7.064 5.298 7.064s10.597-6.476 10.597-6.476.59 7.654 5.887 7.065c5.3-.59 7.065-8.242 7.653-7.653.59.588 4.12 7.653 8.242 7.064s10.01-6.476 10.01-6.476 1.176 7.065 5.886 7.065 6.476-6.476 6.476-6.476 2.35 5.294 6.47 5.294 10.598-5.887 10.598-5.887" transform="matrix(.4 0 0 .38 211.31 51.72)" stroke="#0072ff" stroke-width="1pt" fill="none"/><path d="M231.95 591.4c3.14-1.374 5.69.196 9.418-7.654 0 4.12 2.945 9.42 8.243 9.42s8.835-7.653 8.835-7.653 0 7.653 5.887 7.653 10.597-7.653 10.597-7.064c0 .588.587 7.064 5.297 7.064s10.597-6.476 10.597-6.476.59 7.654 5.89 7.065c5.3-.59 7.064-8.242 7.652-7.653.59.588 4.122 7.653 8.243 7.064 2.942-.59 10.01-7.065 10.01-7.065" transform="matrix(.4 0 0 .38 212.13 55.79)" stroke="#0072ff" stroke-width="1pt" fill="none"/><g fill-rule="evenodd"><path d="M305.54 350.62v18.84h14.717l-5.298-18.84h-9.42z" transform="matrix(.32 0 0 .3 236.64 162.27)" stroke="#000" stroke-width="1pt" fill="#fff"/><path d="M341.348 265.413c-.19.17-7.574 3.705-17.23 3.705s-13.445-1.01-14.39-1.684c-.948-.673-2.084-2.02-3.22-2.02-1.137 0-2.083.842-2.083.842s1.893.84 3.22 1.85c1.324 1.012 1.703 2.864 1.703 2.864l31.243.337s-.185-1.853-.185-2.863 1.136-2.525.946-3.03z"/><path d="M314.083 253.458h.758v15.66h-.754zm10.225-2.022h.758v17.848h-.758zm10.035 3.032h.758v14.65h-.754z"/><path stroke="#000" stroke-width="1.024" fill="#fff" d="M299.07 342.37h18.84v8.83h-18.84z" transform="matrix(.32 0 0 .3 235.31 157.56)"/><path stroke="#000" stroke-width="1.101" fill="#fff" d="M297.89 350.61h21.782v8.83H297.89z" transform="matrix(.32 0 0 .3 235.31 157.56)"/><path stroke="#000" stroke-width="1.159" fill="#fff" d="M296.71 358.86h24.137v8.83H296.71z" transform="matrix(.32 0 0 .3 235.31 157.56)"/><path stroke="#000" stroke-width="1.372" fill="#fff" d="M266.17 334.72h23.837v12.527H266.17z" transform="matrix(.32 0 0 .3 235.31 157.56)"/><path stroke="#000" stroke-width="1.475" fill="#fff" d="M264.68 346.41h27.56v12.527h-27.56z" transform="matrix(.32 0 0 .3 235.31 157.56)"/><path stroke="#000" stroke-width="1.553" fill="#fff" d="M263.19 358.1h30.54v12.527h-30.54z" transform="matrix(.32 0 0 .3 235.31 157.56)"/><path stroke="#000" stroke-width="1.312" fill="#fff" d="M260.21 368.28h36.5v15.307h-36.5z" transform="matrix(.32 0 0 .3 235.31 157.56)"/><path stroke="#000" stroke-width="1.017" fill="#fff" d="M238.25 342.37h15.763v10.414H238.25z" transform="matrix(.32 0 0 .3 235.31 157.56)"/><path stroke="#000" stroke-width="1.094" fill="#fff" d="M237.26 352.09h18.226v10.414H237.26z" transform="matrix(.32 0 0 .3 235.31 157.56)"/><path stroke="#000" stroke-width="1.151" fill="#fff" d="M236.28 361.81h20.197v10.414H236.28z" transform="matrix(.32 0 0 .3 235.31 157.56)"/><path stroke="#000" stroke-width=".973" fill="#fff" d="M234.31 370.27h24.137v12.725H234.31z" transform="matrix(.32 0 0 .3 235.31 157.56)"/><path d="M220 377.51h9.876l10.597-33.374L220 377.51z" stroke="#000" stroke-width="1.017" fill="#fff" transform="matrix(.32 0 0 .3 235.31 157.56)"/><path d="M314.254 253.63l.7.308-9.188 12.648-.7-.307z"/></g><path d="M231.36 591.4l8.83-7.065s1.767 8.83 7.065 8.83 8.83-7.652 8.83-7.652 0 7.653 5.888 7.653 10.597-7.653 10.597-7.064c0 .588.588 7.064 5.298 7.064s10.597-6.476 10.597-6.476.59 7.654 5.887 7.065c5.3-.59 7.065-8.242 7.653-7.653.59.588 4.12 7.653 8.242 7.064s10.01-6.476 10.01-6.476 1.176 7.065 5.886 7.065 6.476-6.476 6.476-6.476 2.35 5.294 6.47 5.294 7.066-7.064 7.066-7.064 1.176 6.477 4.12 6.477c2.943 0 6.476-6.477 6.476-6.477s1.177 8.243 4.12 7.654c2.944-.59 4.122-8.242 4.71-7.653.59.59 4.71 7.067 4.12 7.067" transform="matrix(.4 0 0 .38 207.99 46.98)" stroke="#0072ff" stroke-width="1pt" fill="none"/></g></svg>