<svg xmlns="http://www.w3.org/2000/svg" xmlns:xlink="http://www.w3.org/1999/xlink" viewBox="0 0 640 480" version="1"><defs><path d="M0-360l69.42 215.845 212.04-80.3-125.473 188.85 194.986 115.71-225.88 19.65 31.104 224.593L0 160l-156.198 164.35 31.105-224.592-225.88-19.65 194.985-115.71-125.47-188.854 212.037 80.3z" id="a"/><path d="M0-210L54.86-75.508l144.862 10.614L88.765 28.842l34.67 141.052L0 93.334l-123.435 76.56 34.67-141.052-110.957-93.736L-54.86-75.508z" id="b"/></defs><path fill="green" d="M0 0h640v480H0z"/><circle cx="320" cy="240" r="66.667" fill="#ffe000"/><circle cx="340.787" cy="240" r="54.857" fill="green"/><circle cx="109.841" cy="173.333" r="69.841" fill="#ffe000"/><path d="M105.022 225.994h17.44s.787-1.6-.176-2.398c-.963-.8-4.713-.975-3.7-3.803 2.083-5.813 2.374-4.02 3.682-17.827 1.308-13.806 1.937-35.46 1.937-35.46h-2.52s.486 6.734-.967 15.502c-1.454 8.77-1.89 9.543-3.488 16.277-1.6 6.733-1.84 7.314-3.294 11.238-1.453 3.924-1.6 4.118-3.876 7.75-2.276 3.634-1.453 2.277-2.712 4.457-.63 1.09-1.405.8-1.83 1.593-.423.793-.496 2.67-.496 2.67z" fill="#802000" stroke="#7b3100" stroke-width="1.481"/><path d="M118.33 122.45c.145 2.71-.127 6.295-1.25 9.213-1.138 3.252-2.376 6.494-2.315 9.86-1.81.617-3.674-3.915-5.416-1.25 1.305 3.685 4.33 6.6 6.4 9.92.35 1.03 3.33 3.716 1.605 4.34-4.353-1.49-5.407-7.003-8.107-10.352-3.135-5.63-8.98-9.614-15.49-9.89-2.448.065-10.4-.606-8.33 3.58 3.046 2.075 6.8 3.426 9.81 5.75 2.242.21 6.305 3.95 6.07 5.368-3.945-1.597-5.79-3.512-10.038-5.19-5.757-2.225-13.72-.887-16.905 4.825-.594 1.49-1.47 5.825.397 6.24 2.183-3.41 5.306-7.22 9.933-6.198 3.635.285-4.055 6.772-1.114 5.466.933-.412 3.086-1.825 4.58-1.973 1.493-.147 2.327.97 3.46 1.125 2.266.31 2.89 1.26 2.68 1.81-.248.65-.968.096-3.27.827-1.153.364-1.754 1.376-3.098 1.84-1.343.463-4.138.495-5.182.085-3.653-1.586-9.643-1.31-10.782 3.268-.003 2.015-1.795-.22-2.623.65-.62 2.196-.78 4.452-4.04 4.252-1.978 2.075-4.004 4.224-6.515 5.7 1.474 3.384 7.314-3.397 7.04-.54-2.552 3.483 1.314 4.216 3.007 1.536 2.862-3.024 6.407-6.705 10.68-3.657 2.034 1.915 3.216-1.013 4.69-.856.926 2.38 2.094.118 3.147-.555 1.723-.215 1.238 2.152 3.287.694 4.084-2.702 9.106-.432 13.094-3.06 4.244-1.934.596 1.557-.576 2.922-1.864 3.617-.247 8.366-4.292 10.612-1.625 4.31 1.92 9.994-1.696 13.183-.526 2 4.65 1.77 6.102 2.593 2.545.1-.11-5.826 2.416-6.62 3.39 2.096 3.23-3.75 2.53-5.553.33-4.1.56-8.58 2.597-12.293 2.165-4.55 4.17 1.853 1.746 3.655-1.375 4.183-3.38 9.42-.25 13.31.904.202 1.645 2.39 2.81 3.06 1.17.673 2.767-.17 3.058-2.16 1.497-5.99.742-12.434 2.882-18.26 1.51-1.806 3.594-.292 4.53 1.368 3 3.48 5.108 7.833 8.738 10.702 3.306 1.547 6.23 3.886 7.75 7.29-.02 2.625 7.46 3.027 5.225.11-2.144-2.842-.73-5.684 1.442-7.573 1.163.285.82-1.798-.092-.974-1.46-.345-1.554-3.017.476-1.747 3.42 1.104-.268-2.474-1.5-2.583-2.89-1.792-6.21-3.853-7.635-6.967 3.762.04 7.668 2.067 11.512.81 3.08-1.585 6.207.13 7.283 2.847 2.383-.38 1.368-2.77 0-3.565 1.744-.718 2.95-2.21.836-3.524-1.116-1.457 1.496-3.94-1.714-3.837.104-2.45-.86-4.695-3.534-5.542-2.68-2.27-10.538 3.34-10.31-1.77-.792-2.784 3.192-.374 4.306-1.76 1.15-2.934-5.482-2.648-3.294-4.92 1.43-.92 8.137-2.244 2.877-3.228-2.627.72-4.88.185-6.946-1.114-1.88 3.15-7.26-1.71-6.3 3.89-.736 2.107-5.54 7.59-6.842 3.39 1.107-3.29 6.8-4.37 5.035-8.807-.27-2.77-2.568.48-3.65.274-.548-1.725 1.658-3.758 3.195-4.167 3.05 2.346 3.142-2.96 6.043-2.528 2.12-.47-.683-1.38-1.274-1.78.58-1.55 3.832-2.34.644-3.687-2.814-2.088-4.9 2.076-7.22 2.3-2.226-2.516 2.023-3.724 3.195-5.048.063-.988-2.477-.3-1.713-1.158.664-1.187 5.162-1.275 3.056-3.056-3.17-1.09-7.264-.817-10.31.594-1.915.62-2.48 4.957-4.133 4.777-.777-1.93.253-5.737-2.407-6.295zm15 42.362c2.417-.41.05 3.67-1.11 3.61.102-1.465-3.497-1.324-1.264-2.6a7.277 7.277 0 0 1 2.374-1.01z" fill="green"/><g transform="translate(0 80) scale(.0635)" fill="#ffe000"><use height="100%" width="100%" xlink:href="#a" x="7560" y="4200"/><use height="100%" width="100%" xlink:href="#a" x="6300" y="2205"/><use height="100%" width="100%" xlink:href="#a" x="7560" y="840"/><use height="100%" width="100%" xlink:href="#a" x="8680" y="1869"/><use height="100%" width="100%" xlink:href="#b" x="8064" y="2730"/></g></svg>