<svg viewBox="0 0 30 20" xmlns="http://www.w3.org/2000/svg"><g fill="none"><path fill="#DE2910" d="M0 0h30v20H0z"/><path fill="#FFDE00" d="M10.391 1.08l-.063.723.668.285-.708.163-.064.724-.373-.623-.708.163.477-.549-.374-.623.668.285.477-.548zM5 2l.674 2.073h2.18L6.09 5.354l.673 2.073L5 6.146 3.237 7.427l.673-2.073-1.763-1.281h2.18L5 2zm7.378 1.946l.34-.642-.652.32-.506-.522.102.72-.652.32.716.124.103.72.34-.643.715.124-.506-.521zm.561 2.711l-.572.448.25.682-.603-.405-.572.448.2-.699-.603-.406.726-.026.2-.698.248.682.726-.026zM10.32 8.79l.034-.726-.454.568-.68-.257.4.607-.454.568.7-.193.4.607.033-.725.7-.193-.679-.256z"/></g></svg>
