<svg xmlns="http://www.w3.org/2000/svg" viewBox="0 0 640 480" version="1"><defs><clipPath id="a"><path fill-opacity=".67" d="M-85.01 0h682.67v512H-85.01z"/></clipPath></defs><g fill-rule="evenodd" clip-path="url(#a)" transform="translate(79.7) scale(.94)"><path fill="#108c00" d="M-258.27 0h1027.5v512h-1027.5z"/><path fill="#ffd600" d="M-260 178.16H772.6v50.162H-260z"/><path fill="#ffd600" d="M181.08 0h48.432v512H181.08z"/><path d="M227.78 0h48.432v512H227.78z"/><path d="M-260 226.59H772.6v50.162H-260z"/><path fill="#fff" d="M-260 276.76H772.6v50.162H-260z"/><path fill="#fff" d="M276.22 0h48.432v512H276.22z"/><rect transform="scale(-1)" ry="137.51" width="273.75" y="-393.87" x="-394.56" height="275.03" fill="#e72910"/><g stroke-width="1pt"><path d="M250.51 136.92c0-.258 5.61-15.997 5.61-15.997l5.098 15.74s17.08.515 17.08.257-13.51 10.32-13.51 10.32 6.373 18.062 6.118 17.546c-.255-.516-14.787-10.837-14.787-10.837s-14.79 10.32-14.535 10.32 5.608-17.03 5.608-17.03l-13.256-10.066 16.57-.258z"/><path d="M251.274 137.72c0-.224 4.857-13.855 4.857-13.855l4.42 13.63s14.794.448 14.794.225-11.7 8.938-11.7 8.938 5.52 15.643 5.298 15.196c-.22-.447-12.806-9.386-12.806-9.386s-12.805 8.94-12.584 8.94 4.856-14.75 4.856-14.75l-11.48-8.716 14.35-.223z" fill="#ffe700"/><path d="M253.328 139.987c0-.13 2.8-7.99 2.8-7.99l2.547 7.86s8.53.26 8.53.13-6.747 5.154-6.747 5.154 3.182 9.02 3.055 8.765c-.127-.257-7.384-5.41-7.384-5.41s-7.388 5.153-7.26 5.153 2.8-8.504 2.8-8.504l-6.62-5.025 8.275-.13z" fill="#108c00"/></g><g stroke-width="1pt"><path d="M356.875 211.8c0-.258 5.608-15.997 5.608-15.997l5.1 15.74s17.08.515 17.08.257-13.512 10.32-13.512 10.32 6.378 18.062 6.12 17.546c-.252-.516-14.784-10.837-14.784-10.837s-14.786 10.32-14.53 10.32 5.607-17.03 5.607-17.03l-13.255-10.066 16.57-.258z"/><path d="M357.638 212.6c0-.224 4.857-13.855 4.857-13.855l4.416 13.63s14.798.448 14.798.225-11.702 8.938-11.702 8.938 5.52 15.643 5.3 15.196c-.222-.447-12.808-9.386-12.808-9.386s-12.806 8.94-12.585 8.94 4.858-14.75 4.858-14.75l-11.48-8.716 14.35-.223z" fill="#ffe700"/><path d="M359.692 214.867c0-.13 2.8-7.99 2.8-7.99l2.547 7.86s8.53.26 8.53.13-6.75 5.154-6.75 5.154 3.18 9.02 3.054 8.765c-.127-.257-7.384-5.41-7.384-5.41s-7.383 5.153-7.255 5.153 2.8-8.504 2.8-8.504l-6.62-5.025 8.275-.13z" fill="#108c00"/></g><g stroke-width="1pt"><path d="M325.875 330.65c0-.258 5.608-15.997 5.608-15.997l5.1 15.74s17.08.515 17.08.257-13.512 10.32-13.512 10.32 6.378 18.062 6.12 17.546c-.252-.516-14.784-10.837-14.784-10.837S316.696 358 316.956 358s5.604-17.03 5.604-17.03l-13.256-10.063 16.57-.258z"/><path d="M326.638 331.45c0-.224 4.857-13.855 4.857-13.855l4.416 13.63s14.798.448 14.798.225-11.702 8.938-11.702 8.938 5.52 15.643 5.3 15.196c-.222-.447-12.808-9.386-12.808-9.386s-12.806 8.94-12.585 8.94 4.858-14.75 4.858-14.75l-11.48-8.716 14.35-.223z" fill="#ffe700"/><path d="M328.692 333.717c0-.13 2.8-7.99 2.8-7.99l2.547 7.86s8.53.26 8.53.13-6.75 5.154-6.75 5.154 3.18 9.02 3.054 8.765c-.127-.257-7.384-5.41-7.384-5.41s-7.383 5.153-7.255 5.153 2.8-8.504 2.8-8.504l-6.62-5.025 8.275-.13z" fill="#108c00"/></g><g stroke-width="1pt"><path d="M177.167 330.65c0-.258 5.608-15.997 5.608-15.997l5.1 15.74s17.08.515 17.08.257-13.512 10.32-13.512 10.32 6.374 18.062 6.12 17.546c-.256-.516-14.788-10.837-14.788-10.837S167.99 358 168.245 358s5.607-17.03 5.607-17.03l-13.256-10.063 16.57-.258z"/><path d="M177.93 331.45c0-.224 4.857-13.855 4.857-13.855l4.416 13.63s14.794.448 14.794.225-11.702 8.938-11.702 8.938 5.52 15.643 5.3 15.196c-.222-.447-12.808-9.386-12.808-9.386s-12.806 8.94-12.585 8.94 4.857-14.75 4.857-14.75l-11.485-8.716 14.352-.223z" fill="#ffe700"/><path d="M179.984 333.717c0-.13 2.8-7.99 2.8-7.99l2.547 7.86s8.53.26 8.53.13-6.743 5.154-6.743 5.154 3.182 9.02 3.055 8.765c-.127-.257-7.384-5.41-7.384-5.41s-7.384 5.153-7.256 5.153 2.8-8.504 2.8-8.504l-6.62-5.025 8.273-.13z" fill="#108c00"/></g><g stroke-width="1pt"><path d="M150.01 208.74c0-.258 5.608-15.997 5.608-15.997l5.1 15.74s17.08.515 17.08.257-13.512 10.32-13.512 10.32 6.374 18.062 6.12 17.546c-.256-.516-14.788-10.837-14.788-10.837s-14.786 10.32-14.53 10.32 5.607-17.03 5.607-17.03l-13.256-10.066 16.57-.258z"/><path d="M150.773 209.54c0-.224 4.857-13.855 4.857-13.855l4.416 13.63s14.794.448 14.794.225-11.702 8.938-11.702 8.938 5.52 15.643 5.3 15.196c-.222-.447-12.808-9.386-12.808-9.386s-12.806 8.94-12.585 8.94 4.857-14.75 4.857-14.75l-11.48-8.716 14.35-.223z" fill="#ffe700"/><path d="M152.827 211.807c0-.13 2.8-7.99 2.8-7.99l2.547 7.86s8.53.26 8.53.13-6.747 5.154-6.747 5.154 3.182 9.02 3.055 8.765c-.127-.257-7.384-5.41-7.384-5.41s-7.384 5.153-7.256 5.153 2.8-8.504 2.8-8.504l-6.62-5.025 8.275-.13z" fill="#108c00"/></g><g stroke-width="1pt"><path d="M324.615 174.14c0 .258-5.608 15.997-5.608 15.997l-5.1-15.74s-17.08-.515-17.08-.257 13.512-10.32 13.512-10.32-6.378-18.062-6.12-17.546c.252.516 14.784 10.837 14.784 10.837s14.786-10.32 14.53-10.32-5.607 17.03-5.607 17.03l13.255 10.066-16.57.258z"/><path d="M323.852 173.34c0 .224-4.857 13.855-4.857 13.855l-4.416-13.63s-14.798-.448-14.798-.225 11.702-8.938 11.702-8.938-5.52-15.643-5.3-15.196c.222.447 12.808 9.386 12.808 9.386s12.806-8.94 12.585-8.94-4.858 14.75-4.858 14.75l11.48 8.716-14.35.223z" fill="#ffe700"/><path d="M321.798 171.073c0 .13-2.8 7.99-2.8 7.99l-2.547-7.86s-8.53-.26-8.53-.13 6.75-5.154 6.75-5.154-3.18-9.02-3.054-8.765c.127.257 7.384 5.41 7.384 5.41s7.383-5.153 7.255-5.153-2.8 8.504-2.8 8.504l6.62 5.025-8.275.13z" fill="#108c00"/></g><g stroke-width="1pt"><path d="M367.315 290.28c0 .258-5.608 15.997-5.608 15.997l-5.1-15.74s-17.08-.515-17.08-.257 13.512-10.32 13.512-10.32-6.378-18.062-6.12-17.546c.252.516 14.784 10.837 14.784 10.837s14.786-10.32 14.53-10.32-5.607 17.03-5.607 17.03l13.255 10.066-16.57.258z"/><path d="M366.552 289.48c0 .224-4.857 13.855-4.857 13.855l-4.416-13.63s-14.798-.448-14.798-.225 11.702-8.938 11.702-8.938-5.52-15.643-5.3-15.196c.222.447 12.808 9.386 12.808 9.386s12.806-8.94 12.585-8.94-4.858 14.75-4.858 14.75l11.48 8.716-14.35.223z" fill="#ffe700"/><path d="M364.498 287.213c0 .13-2.8 7.99-2.8 7.99l-2.547-7.86s-8.53-.26-8.53-.13 6.75-5.154 6.75-5.154-3.18-9.02-3.054-8.765c.127.257 7.384 5.41 7.384 5.41s7.383-5.153 7.255-5.153-2.8 8.504-2.8 8.504l6.62 5.025-8.275.13z" fill="#108c00"/></g><g stroke-width="1pt"><path d="M261.425 375.25c0 .258-5.608 15.997-5.608 15.997l-5.1-15.74s-17.08-.515-17.08-.257 13.512-10.32 13.512-10.32-6.378-18.062-6.12-17.546c.252.516 14.784 10.837 14.784 10.837s14.786-10.32 14.53-10.32-5.607 17.03-5.607 17.03l13.255 10.066-16.57.258z"/><path d="M260.662 374.45c0 .224-4.857 13.855-4.857 13.855l-4.416-13.63s-14.798-.448-14.798-.225 11.702-8.938 11.702-8.938-5.52-15.643-5.3-15.196c.222.447 12.808 9.386 12.808 9.386s12.806-8.94 12.585-8.94-4.858 14.75-4.858 14.75l11.48 8.716-14.35.223z" fill="#ffe700"/><path d="M258.608 372.183c0 .13-2.8 7.99-2.8 7.99l-2.547-7.86s-8.53-.26-8.53-.13 6.75-5.154 6.75-5.154-3.18-9.02-3.054-8.765c.127.257 7.384 5.41 7.384 5.41s7.383-5.153 7.255-5.153-2.8 8.504-2.8 8.504l6.62 5.025-8.275.13z" fill="#108c00"/></g><g stroke-width="1pt"><path d="M161.935 290.28c0 .258-5.608 15.997-5.608 15.997l-5.1-15.74s-17.08-.515-17.08-.257 13.512-10.32 13.512-10.32-6.378-18.062-6.12-17.546c.252.516 14.784 10.837 14.784 10.837s14.786-10.32 14.53-10.32-5.607 17.03-5.607 17.03l13.255 10.066-16.57.258z"/><path d="M161.172 289.48c0 .224-4.857 13.855-4.857 13.855l-4.416-13.63s-14.798-.448-14.798-.225 11.702-8.938 11.702-8.938-5.52-15.643-5.3-15.196c.222.447 12.808 9.386 12.808 9.386s12.806-8.94 12.585-8.94-4.858 14.75-4.858 14.75l11.48 8.716-14.35.223z" fill="#ffe700"/><path d="M159.118 287.213c0 .13-2.8 7.99-2.8 7.99l-2.547-7.86s-8.53-.26-8.53-.13 6.75-5.154 6.75-5.154-3.18-9.02-3.054-8.765c.127.257 7.384 5.41 7.384 5.41s7.383-5.153 7.255-5.153-2.8 8.504-2.8 8.504l6.62 5.025-8.275.13z" fill="#108c00"/></g><g stroke-width="1pt"><path d="M198.655 175.85c0 .258-5.608 15.997-5.608 15.997l-5.1-15.74s-17.08-.515-17.08-.257 13.512-10.32 13.512-10.32-6.378-18.062-6.12-17.546c.252.516 14.784 10.837 14.784 10.837s14.786-10.32 14.53-10.32-5.607 17.03-5.607 17.03l13.255 10.066-16.57.258z"/><path d="M197.892 175.05c0 .224-4.857 13.855-4.857 13.855l-4.416-13.63s-14.798-.448-14.798-.225 11.702-8.938 11.702-8.938-5.52-15.643-5.3-15.196c.222.447 12.808 9.386 12.808 9.386s12.806-8.94 12.585-8.94-4.858 14.75-4.858 14.75l11.48 8.716-14.35.223z" fill="#ffe700"/><path d="M195.838 172.783c0 .13-2.8 7.99-2.8 7.99l-2.547-7.86s-8.53-.26-8.53-.13 6.75-5.154 6.75-5.154-3.18-9.02-3.054-8.765c.127.257 7.384 5.41 7.384 5.41s7.383-5.153 7.255-5.153-2.8 8.504-2.8 8.504l6.62 5.025-8.275.13z" fill="#108c00"/></g><g transform="matrix(1.04 0 0 1.04 -250.6 359.43)"><g transform="matrix(.16 -.02 0 .18 429.84 -215.63)" stroke="#000" stroke-width="2.5" fill="#009200"><ellipse rx="30.805" ry="189.82" transform="matrix(1.4 0 0 1 -534.3 263.7)" cy="586.13" cx="680.21"/><ellipse rx="30.805" ry="189.82" transform="matrix(1.5 0 0 1 -547.2 267.1)" cy="586.13" cx="680.21"/><ellipse rx="30.805" ry="189.82" transform="matrix(1.2 0 0 1.1 -364.9 214.1)" cy="586.13" cx="680.21"/></g><g stroke="#000" transform="translate(72.9 -9.8)"><path d="M388.528-52.952c5.994-.333 3.33-3.33 6.327-4.995 2.998-1.666 7.327-.666 8.66 1.332 1.33 1.998.332 3.996 1.997 3.996s46.912-2.532 48.576-.87c1.665 1.668 1.998 5 .333 6.33-1.662 1.33-58.9 2.868-60.895 1.536-1.998-1.332-4.995-6.993-4.995-7.326z" stroke-width=".501" fill="#a95600"/><path d="M393.36-41.154c0 3.998 4.555 2.788 4.68 6.125-.072 3.543-7.67.35-7.864-6.123.193-6.472 7.51-9.793 7.67-6.1.126 3.067-4.487 2.102-4.487 6.1z" stroke-width=".385" fill="#ff0"/><path d="M397.36-41.054c0 3.998 4.555 2.788 4.68 6.125-.072 3.543-7.67.35-7.864-6.123.193-6.472 7.51-9.793 7.67-6.1.126 3.068-4.487 2.102-4.487 6.1z" stroke-width=".385" fill="#ff0"/><path d="M401.66-41.254c0 3.998 4.555 2.788 4.68 6.125-.072 3.543-7.67.35-7.864-6.123.193-6.472 7.51-9.793 7.67-6.1.126 3.068-4.487 2.102-4.487 6.1z" stroke-width=".385" fill="#ff0"/><path d="M405.66-41.254c0 3.998 4.555 2.788 4.68 6.125-.072 3.543-7.67.35-7.864-6.123.193-6.472 7.51-9.793 7.67-6.1.126 3.068-4.487 2.102-4.487 6.1z" stroke-width=".385" fill="#ff0"/><ellipse rx="3.534" ry="3.403" transform="matrix(1.1 0 0 1.1 -75.6 4.7)" cy="-41.086" cx="478.38" stroke-width=".399" fill="#a95600"/></g><g transform="rotate(-5.8 688.4 -625.2)" stroke="#000" stroke-width="2.5" fill="#009200"><ellipse rx="20.814" ry="24.144" transform="matrix(.2 0 0 .3 369.8 -361.6)" cy="905" cx="427.11"/><ellipse rx="20.814" ry="24.144" transform="matrix(.2 0 0 .3 364 -362.7)" cy="905" cx="427.11"/><ellipse rx="20.814" ry="24.144" transform="matrix(.2 0 0 .3 360.6 -370.6)" cy="905" cx="427.11"/><ellipse rx="20.814" ry="24.144" transform="matrix(.2 0 0 .3 369.3 -399.4)" cy="905" cx="427.11"/><ellipse rx="20.814" ry="24.144" transform="matrix(.2 0 0 .3 377.4 -379.1)" cy="905" cx="427.11"/><ellipse rx="20.814" ry="24.144" transform="matrix(.2 0 0 .3 373.2 -382.2)" cy="905" cx="427.11"/><ellipse rx="20.814" ry="24.144" transform="matrix(.2 0 0 .3 368 -386.7)" cy="905" cx="427.11"/><ellipse rx="20.814" ry="24.144" transform="matrix(.2 0 0 .3 363 -389.5)" cy="905" cx="427.11"/></g><path d="M482.57-141.072s-11.702 10.055-10.09 36.95c1.775 27.045 26.52 39.53 26.52 39.53s6.192-7.742 5.23-29.476c-2.096-31.772-13.867-45.705-13.867-45.705l-7.793-1.3z" stroke="#000" stroke-width=".456" fill="#804bff"/><g transform="rotate(4.5 181 769.9)" stroke="#000" stroke-width="2.5" fill="#009200"><ellipse rx="20.814" ry="24.144" transform="matrix(.2 0 0 .3 369.8 -361.6)" cy="905" cx="427.11"/><ellipse rx="20.814" ry="24.144" transform="matrix(.2 0 0 .3 364 -362.7)" cy="905" cx="427.11"/><ellipse rx="20.814" ry="24.144" transform="matrix(.2 0 0 .3 360.6 -370.6)" cy="905" cx="427.11"/><ellipse rx="20.814" ry="24.144" transform="matrix(.2 0 0 .3 369.3 -399.4)" cy="905" cx="427.11"/><ellipse rx="20.814" ry="24.144" transform="matrix(.2 0 0 .3 377.4 -379.1)" cy="905" cx="427.11"/><ellipse rx="20.814" ry="24.144" transform="matrix(.2 0 0 .3 373.2 -382.2)" cy="905" cx="427.11"/><ellipse rx="20.814" ry="24.144" transform="matrix(.2 0 0 .3 368 -386.7)" cy="905" cx="427.11"/><ellipse rx="20.814" ry="24.144" transform="matrix(.2 0 0 .3 363 -389.5)" cy="905" cx="427.11"/></g><ellipse rx="58.28" ry="186.49" stroke="#000" transform="matrix(.2 -.1 .1 .1 369.6 -145.1)" cy="606.11" cx="624.42" stroke-width="1pt" fill="#c90000"/><g stroke="#000" fill="#009200" transform="rotate(1 242.4 -1957.8)"><ellipse rx="10.823" ry="12.905" transform="matrix(.4 0 0 .3 445.1 -230.5)" cy="356.75" cx="218.13" stroke-width="1.464"/><ellipse rx="10.823" ry="12.905" transform="matrix(.3 0 0 .3 457.2 -235.9)" cy="356.75" cx="218.13" stroke-width="1.546"/><ellipse rx="10.823" ry="12.905" transform="matrix(.3 0 0 .3 452 -235.9)" cy="356.75" cx="218.13" stroke-width="1.546"/><ellipse rx="10.823" ry="12.905" transform="matrix(.4 0 0 .3 449.5 -233.5)" cy="356.75" cx="218.13" stroke-width="1.56"/><ellipse rx="10.823" ry="12.905" transform="matrix(.4 0 0 .3 448.9 -237.9)" cy="356.75" cx="218.13" stroke-width="1.56"/><ellipse rx="10.823" ry="12.905" transform="matrix(.3 0 0 .3 447 -238.8)" cy="356.75" cx="218.13" stroke-width="1.546"/><ellipse rx="10.823" ry="12.905" transform="matrix(.3 0 0 .3 448.1 -241.6)" cy="356.75" cx="218.13" stroke-width="1.562"/><ellipse rx="10.823" ry="12.905" transform="matrix(.4 0 0 .3 432.8 -243.5)" cy="356.75" cx="218.13" stroke-width="1.464"/><ellipse rx="10.823" ry="12.905" transform="matrix(.4 0 0 .3 445.9 -243.5)" cy="356.75" cx="218.13" stroke-width="1.56"/><ellipse rx="10.823" ry="12.905" transform="matrix(.3 0 0 .3 444.2 -247)" cy="356.75" cx="218.13" stroke-width="1.562"/><ellipse rx="10.823" ry="12.905" transform="matrix(.3 0 0 .3 436.1 -243.2)" cy="356.75" cx="218.13" stroke-width="1.546"/><ellipse rx="10.823" ry="12.905" transform="matrix(.3 0 0 .3 437.4 -243.9)" cy="356.75" cx="218.13" stroke-width="1.562"/><ellipse rx="10.823" ry="12.905" transform="matrix(.3 0 0 .3 439 -247)" cy="356.75" cx="218.13" stroke-width="1.562"/></g><g stroke="#000" fill="#009200" transform="matrix(.2 0 0 .2 421 -216.8)"><ellipse rx="67.438" ry="205.64" transform="translate(-245.8 324.4) skewX(7)" cy="564.48" cx="528.68" stroke-width="2.545"/><ellipse rx="13.321" ry="40.796" transform="rotate(-23.4 630.5 660.9)" cy="646.07" cx="528.68" stroke-width="2.5"/><path d="M139.87 643.99c0 57.677-18.755 86.17-34.55 110.32 7.516-32.47 12.904-52.637 12.904-110.31 0-57.677 29.58-85.337 40.38-101.99-4.187 16.652-18.734 44.312-18.734 101.99z" transform="matrix(1.9 -.5 .9 1.2 -352.3 -10)" stroke-width="1.533"/><path d="M139.87 643.99c0 57.677-18.755 86.17-34.55 110.32 7.516-32.47 12.904-52.637 12.904-110.31 0-57.677 29.58-85.337 40.38-101.99-4.187 16.652-18.734 44.312-18.734 101.99z" transform="matrix(1.9 -.5 .9 1.2 -348.4 44.1)" stroke-width="1.533"/><path d="M139.87 643.99c0 57.677-18.755 86.17-34.55 110.32 7.516-32.47 12.904-52.637 12.904-110.31 0-57.677 29.58-85.337 40.38-101.99-4.187 16.652-18.734 44.312-18.734 101.99z" transform="matrix(1.9 -.5 1 1.2 -361.9 105.8)" stroke-width="1.533"/><ellipse rx="13.321" ry="40.796" transform="matrix(1.8 -.4 .7 1.6 -915.6 -221)" cy="646.07" cx="528.68" stroke-width="1.389"/><ellipse rx="13.321" ry="40.796" transform="matrix(1.6 -.2 .5 1.4 -739.5 -91.8)" cy="646.07" cx="528.68" stroke-width="1.64"/><ellipse rx="13.321" ry="40.796" transform="matrix(1.6 -.2 .5 1.4 -750.6 -91.8)" cy="646.07" cx="528.68" stroke-width="1.64"/><ellipse rx="13.321" ry="40.796" transform="matrix(1.3 -.2 .5 1 -531.1 47.6)" cy="646.07" cx="528.68" stroke-width="2.097"/><ellipse rx="13.321" ry="40.796" transform="matrix(1.3 -.1 .4 1 -517.9 12.2)" cy="646.07" cx="528.68" stroke-width="2.097"/><path d="M145.7 569.47c0 34.006-6.712 61.61-14.985 61.61-8.272 0-14.986-27.604-14.986-61.61" transform="matrix(1 -.5 .5 1.2 12.8 -14.5)" stroke-width="2.086"/><ellipse rx="13.321" ry="40.796" transform="matrix(1.3 -.1 .4 1 -519.5 -34.4)" cy="646.07" cx="528.68" stroke-width="2.097"/><ellipse rx="13.321" ry="40.796" transform="matrix(1.3 -.1 .4 1 -534 -40.1)" cy="646.07" cx="528.68" stroke-width="2.097"/><path d="M145.7 569.47c0 34.006-6.712 61.61-14.985 61.61-8.272 0-14.986-27.604-14.986-61.61" transform="matrix(.7 -.5 .5 .8 39.5 143.3)" stroke-width="2.88"/><path d="M145.7 569.47c0 34.006-6.712 61.61-14.985 61.61-8.272 0-14.986-27.604-14.986-61.61" transform="matrix(.7 -.5 .5 .8 51.1 125.8)" stroke-width="2.88"/><path d="M145.7 569.47c0 34.006-6.712 61.61-14.985 61.61-8.272 0-14.986-27.604-14.986-61.61" transform="matrix(.9 -.6 .6 1.1 -40.2 -10.7)" stroke-width="2.086"/><path d="M145.7 569.47c0 34.006-6.712 61.61-14.985 61.61-8.272 0-14.986-27.604-14.986-61.61" transform="matrix(.7 -.5 .5 .9 68.6 71.2)" stroke-width="2.742"/></g><g stroke="#000" stroke-width=".5" fill="#804bff"><path d="M513.154-145.218c-2.456 1.835.082 5.03 2.404 6.136 2.612 1.534 17.32 11.637 27.264 2.4-8.16.166-23.732-12.637-29.668-8.536z"/><path d="M511.854-151.118c-2.456 1.835.082 5.03 2.404 6.136 2.612 1.534 17.32 11.637 27.264 2.4-8.16.166-23.732-12.637-29.668-8.536z"/><path d="M510.054-156.718c-2.456 1.835.082 5.03 2.404 6.136 2.612 1.534 17.32 11.637 27.264 2.4-8.16.166-23.732-12.637-29.668-8.536z"/><path d="M506.154-163.118c-2.456 1.835.082 5.03 2.404 6.136 2.612 1.534 17.32 11.637 27.264 2.4-8.16.166-23.732-12.637-29.668-8.536z"/></g><g transform="rotate(1 -589.6 681.6)"><path d="M211.17 247.3c21.773-12.065 56.618-9.75 79.734 11.165 19.36 16.943 45.307 75.194 70.322 92.834-20.227.015-31.298-5.77-42.24-15.18-28.768 15.44-38.128 16.72-63.89 15.63-35.882-1.336-62.46-17.656-68.18-40.606-6.165-21.804 4.926-52.498 24.254-63.847z" transform="matrix(.2 0 .1 .2 407.8 -213.6)" stroke="#000" stroke-width="2.5" fill="#804bff"/><ellipse rx="14.154" ry="14.986" stroke="#000" transform="matrix(.3 0 0 .1 401.8 -215.2)" cy="323.04" cx="287.23" stroke-width="2.5" fill="red"/><ellipse rx="23.254" ry="15.895" stroke="#000" transform="matrix(.2 -.1 .1 .2 398.7 -208.1)" cy="348.26" cx="204.58" stroke-width="2.5" fill="#ff0"/><ellipse rx="5.828" ry="5.828" transform="matrix(.2 0 0 .2 411.3 -233.7)" cy="333.86" cx="283.9"/><path d="M469.58-165.47c.443 1.81-.667 4.307-3.313 5.26-2.678 1.317-4.608 4.183-5.564 8.802-4.725-10.327-2.31-14.828 2.06-16.035 3.737-1.437 6.042-1.337 6.817 1.972z" stroke="#000" stroke-width=".656" fill="#ff0"/><ellipse rx="4.71" ry="4.71" transform="matrix(.2 0 0 .2 418.7 -235)" cy="362.39" cx="198.98"/></g></g></g></svg>