<svg xmlns="http://www.w3.org/2000/svg" xmlns:xlink="http://www.w3.org/1999/xlink" viewBox="0 0 750 500"><path fill="#fff" d="M0 0h750v500H0z"/><path fill="#002d62" d="M0 0h325v200H0z"/><path fill="#ce1126" d="M0 300h325v200H0z"/><path fill="#002d62" d="M425 300h325v200H425z"/><path fill="#ce1126" d="M425 0h325v200H425z"/><g transform="matrix(.8 0 0 .8 -25 0)"><path fill="#fff" d="M474.5 281v40.6c0 3.6 0 6 1.8 8 1.4 2 3.8 3.7 6 4.3 1.7.2 7.7 0 9.8 0 4.7 0 5.3 1 7 3.2 2-3.2 4.2-3.3 8.3-3 2 0 6.6 0 8.4-.4 2.2-.5 4-1.6 5.4-3.3 2.4-2.7 2.3-6 2.3-9.6v-38.4c0-1.8-.2-1.3.7-2.2l5.8-6h-62l6.5 6.6z"/><path fill="#002d62" d="M493.8 299v-24.7h-25.5l6.3 6.7v18z"/><path fill="#ce1126" d="M504 299v-24.7h26l-6.7 7v17.8zm-10.2 10.3h-19.3V325c.8 6.7 5.8 9 10.3 9h9z"/><path fill="#002d62" d="M504 309.3h19.4V325c-.5 6.7-6 9-10.5 9h-9z"/><path fill="none" stroke="#000" stroke-width=".5" d="M474.6 281v40.6c0 3.6 0 5.8 1.8 8.3 1.4 2 3.5 3.5 6 4 1.7.2 7.7 0 9.8 0 2.7 0 4 0 5.7 1.7l1 1.5.4-.4c.5-1 1.5-2 2.6-2.4 1.4-.5 3.8-.3 5.4-.3 2 0 6.6.2 8.4-.2 2.2-.5 4.2-2 5.4-3.3 2.4-2.7 2.2-6 2.2-9.6v-38.4c0-1.8-.2-1.3.7-2.2l6-6h-62l6.4 6.6z"/><path fill="#eac102" stroke="#000" stroke-width=".3" d="M498 280.4v2.8h-3v2.3h3v10h2.2v-10h3v-2.3h-3v-2.8z"/><g id="a"><path fill="#fff" d="M482 284v4.6l-2-2 .3 32c0 4.7 3.4 8.6 7.6 8.6 4 0 7.5-3.8 7.6-8.5l-.3-16.4-2-2.2v-1.6z"/><path fill="#002d62" d="M482 284.2v4.6l-2-2 .2 18.2 8.2 8v-17.5l-.2-.4v-2.8l-6.3-8z"/><path fill="#ce1126" d="M490.8 295.5l2.4 3v1l-2.4-2.4zm4.5 6.9l.2 11.5c-1.2 2-3.6 1-3.6 1v-16z"/><path fill="#002d62" d="M495.6 319.6c-3.2 2.4-4-1-4-1 2.3-.3 3.4-1.7 4-3z"/><path fill="#ce1126" d="M480.2 309.7c4.3 5 8 7.5 8 7.5 1 7.7 5.5 5 7 4-.8 3.5-3.8 6.2-7.2 6.2-4.3 0-7.7-4-7.7-8.7z"/><path fill="none" stroke="#000" stroke-width=".3" d="M493.2 299.6v-1L482 284v4zM480 286.7l.3 32c0 4.6 3.4 8.5 7.7 8.5 4 0 7.6-3.8 7.6-8.5l-.3-16.5z"/><g fill="#eac102" stroke="#000" stroke-width=".1"><path d="M486.2 281.2c-.8-1.4-.7-2 0-2.6l-3-3 .8 4.2c.8-.2 1.4 0 2.2 1.4zm-3.2-5.6l3.2 5.6"/><path d="M498 300.7l-.7.3-12-20.4.8-.4z"/><path d="M485 280.6c0-.2 0-.5.4-.7.4-.3.8-.3 1 0 0 0-.2.4-.6.6-.3.2-.7.2-.8 0zm-4 1.6c-1-1.3-1-2-.4-2.6l-3.3-2.6 1.4 4c.8-.2 1.4 0 2.3 1.2zm-3.7-5.2l3.7 5.2"/><path d="M495.3 300l-.7.4-14.4-18.7.6-.5z"/><path d="M479.8 281.8c-.2-.2 0-.6.3-.8.5-.3.8-.3 1 0 0 0 0 .4-.4.6-.3.3-.7.3-.8 0zm.4 4.6c-1-1.3-1-2-.7-2.6l-3.6-2.2 1.7 4c.8-.5 1.4-.5 2.5.8zm-4.2-4.8l4.2 4.7"/><path d="M495.7 303l-16.4-17 .6-.6 16.3 17z"/><path d="M479 286c-.3 0 0-.5.2-.8.3-.3.6-.4.8-.2 0 .2 0 .5-.3.8-.3.3-.7.4-.8.2z"/></g></g><use xlink:href="#a" transform="matrix(-1 0 0 1 998.3 0)"/><g stroke="#000" stroke-width=".2"><path fill="#ce1126" d="M496.7 314.5l-.6 10c-.5 0-1.8 0-2-.8 0-.5 1.4-8.8 1.4-9.6l1.3.5z"/><path fill="#002d62" d="M495.8 314l-.3 3.2c.2 1 1.4.8 2 1l.2-5.3c-.2 0-1.7 1-2 1z"/><path fill="#002d62" d="M496 327c1.5-2 4.7-.5 4.7-.5 3.4.8 2.5-3 2.5-3-.7-8-1.5-13.3-1.5-13.3l-5 3.4z"/><path fill="#002d62" d="M496 327.2c-.5 2.3 1.8 2 1.8 2 2.8 0 2-3 2-3-3-1-4 1-4 1z"/><path fill="#ce1126" d="M497.8 312.7c0 8-.2 9-.2 9 0 2 2.5 1 2.5 1 .7-.3 1.3 0 1.3 0v-3c4-.2 3-2.5 3-2.5-1.6-7.6-1.8-7.3-1.8-7.3z"/><path fill="none" d="M501.3 319.8c-2.5 0-3.6 1-3.6 1v.2"/><path fill="#fff" d="M501 326.4l-1-15 2-1.3 1.4 14.3c0 2.8-2.4 2-2.4 2z"/></g><g fill="#fff" stroke="#000"><path fill="#000" d="M488.2 302.2l6.8 12.4 14.6-9.7-7.6-11.3z" stroke="none"/><path stroke-width=".3" d="M488.5 302l13.7-8 7.6 11-14.6 9.3z"/><path fill="#000" d="M495.4 313.5l13.7-8.8-1-1.7-6.8-9.3-5 4-6.3 3.5-1.2-.7.2 1.5z" stroke="none"/><path stroke-width=".1" d="M496.2 297.8c-2-1-4.4 2-5 2.6-.8.6-2 .3-2 .3l6 11c2 .8 3-1.6 4-2.3 1.5-1.3 3.3-1.2 3.3-1.2zm.2.2c0-2.5 3-3.3 3.7-3.7 1-.4 1-2 1-2l7 10.7c0 2-2.5 2.3-3.5 2.8-1.8 1-2 2.5-2 2.5zm-1.4 13.8l-6-11c-.2 1.3 0 1.2 0 1.2 4.5 7.5 6.4 11.5 6.4 11.5 0-.6-.3-1-.4-1.7z"/><g fill="#000" stroke="none"><path d="M491 302.2s0 .2.2.2h-.2v.2h.2v-.2c0 .2 0 .3-.2.3l-.2-.4s0-.2.3-.3v.2zm.3-.2s0 .2.2.3c-.2 0-.2-.2-.3-.3zm.5-.4h-.2v.2h.4v.2l-.2.2v-.2h-.2v-.3h.2zm.5.2v.2h-.2c0-.2 0-.2.2-.2v-.2c0 .2 0 .2-.2.2v-.2h.2s.2 0 .2.2zm0 0zm.1-.4h.3c0 .2 0 0 0 0v.2c0-.2 0-.2-.2-.2v.2c.2 0 0 0 0 0-.2-.2-.2 0-.2-.2zm.3-.4h.2s0 .2-.2.2l.2.2c-.2 0-.2 0-.3-.2v-.2zm.3 0h.2v.2c-.2 0-.3 0-.2-.2zm0 0c0 .2 0 .2.2.3v-.2zm-1.6 2v.2h.2v.2h.2v-.2.2s-.2 0-.3.2c0-.2 0-.3-.2-.4l.3-.3h-.2zm.6.2l-.2-.2h.2v-.2.4zm.4-.2h-.2v-.4h.2v.3zm0 0v-.2c0 .2 0 .2 0 0zm.2-.5h.2c0 .2 0 .2.2.2h-.2v-.2h-.2v.3-.2h-.2.2zm.4-.3s.2 0 .2.2c-.2 0-.2.2 0 0h.2v.3h-.3v-.4zm0 0v.2c0-.2 0-.2 0 0zm.2.4z"/><path d="M493.5 302s0 .2-.2.2h.2v.2c-.2 0-.3 0-.3-.2v-.2h.3zm0 0h-.2v.2z"/><path d="M493.5 301.7l.2.4v.2l-.3-.4zm.1-.1zm.2 0v.4-.2h-.2.2zm.2 0h.2v.2s0 .2-.2 0v-.2zm0 0v.3s.2 0 .2-.2c0 0 0-.2-.2-.2zm-2 2.2v.2h.3v.3h-.2l-.2-.2h.2v-.2zm.6.2h-.2.2c0 .2 0 .2-.2.2v-.4h.2zm0 0l-.2-.2v.2z"/><path d="M492.7 303.6h.2c0 .2-.2.2-.2.3v-.2h.2v.2h-.2s-.2 0-.2-.2v-.2zm0 0zm.2.4h-.2.2zm.1-.7c.2 0 .3.2.3.3l-.2.2v-.3c-.2 0 0 0 0 0v.2h.2v-.3h-.2z"/><path d="M493.4 303.2h.2c0 .2 0 .2.2.2h-.2v-.2h-.2v.2h.2l-.2.2v-.2h-.2c0-.2 0-.2.2-.2zm.6-.6c0 .2 0 0 0 0h-.2v.2h.4v.3s0 .2-.2.2c0-.2 0 0 0 0 .2 0 .2-.2 0-.2h-.2v-.3h.2zm.5.2c0 .2-.2 0-.2 0v-.2s0 .2 0 0h.2c0 .2 0 .2 0 0v.2zm0 0zm.1-.4h.4v.2c-.2 0 0 0 0 0h-.2v-.2.4l-.2-.2v-.2zm.4-.4l.3-.2v.3c0 .2.2.2 0 .3-.2 0 0 0 0 0v-.2h-.2z"/><path d="M495.7 301.7v.5h-.2s0-.2-.2-.3v-.2c.2 0 .2.2.2.3v-.2zm.3.1c0 .2 0 0 0 0v-.2s0 .2-.2 0h.4c0 .2 0 0 0 0v.2zm0 0zm.2-.4h.4v.2c-.2 0 0 0 0 0h-.2v-.2.4c0-.2-.2-.2-.2-.3zm-2.7 4.6v.2c-.2 0-.2 0-.2.2v.2h.3l.2-.2c0 .2 0 .2-.2.3h-.2s-.2-.2 0-.4v-.2zm.5.2v.2h-.2v-.5c.2 0 .3 0 .4.2zm0 0l-.2-.2v.3h.2zm.3-.2h.2s0 .2-.2.2v-.4h-.2s.2 0 .3-.2c.2 0 .2 0 .2.2h-.2zm0 0v-.2c0-.2 0 0 0 0z"/><path d="M495 305.8s-.2 0-.3.2v-.5h-.2c.2 0 .2 0 0 0 .2 0 .3.2.3.3z"/><path d="M495 305v.7h.2l-.2.2v-.5h-.2v.2c0-.2 0-.3.2-.4zm.4 0s0-.2.2-.2v.7h-.2c0-.2 0-.2-.2-.3v-.2c0 .2 0 .3.2.3h.3c0-.2 0-.2-.2-.3z"/><path d="M496 305h.2l-.3.2c-.2 0-.2 0 0 0l-.3-.4.2.3c.2 0 .2 0 0 0zm.2-.6h.4v.3s0 .2-.2.2l-.2-.2v-.3zm0 0v.4h.4v-.3h-.3zm.8-.6v.2l.2.4c-.2 0-.3-.2-.5-.3.2 0 0 0 0 0h.2v-.2zm.6.2c0 .2 0 .2-.2.3v-.5h-.2c.2 0 .2.2.3.3 0 0 0 .2 0 0zm.2 0c-.2 0-.2 0 0 0-.2 0-.3-.2-.3-.3v-.2c0 .3.2.4.2.5zm.2-.2v.2l-.3-.5.3.3zm-4 4.2s0-.2.2-.2h.2v.2c.2 0 .2.2 0 .2v-.2c0-.2-.2-.2-.2 0zm.5-.3v-.2l.3.4s0-.2-.2-.3zm.7-.5h.2v.3h-.4v-.2h.3s0-.2 0 0zm.8 0h-.2v-.4l.3.3s0 .2 0 0h.2v.2zm0 0v-.2h-.2v.3h.2z"/><path d="M496 307h.3-.2v-.2h.1zm0 0c.2 0 .2 0 .3-.2h-.2zm.7-.3v.2h-.2v-.4.2h.2zm-.1-.4zm0 0l.3.4h-.2v-.2h-.2zm.4.2c0 .2 0 0 0 0v-.2c0 .2-.2 0-.2 0h.2s.2 0 .2.2zm0 0zm.2-.5c0-.2.2-.2.2-.3v.4l.2.3h-.2c.2 0 0 0 0 0v-.4s0-.2-.2 0zm.4 0v-.2h.2v.2zm0 0h.2v-.2h-.2v.2zm.4-.4c.2 0 .2.2.2.2 0 .2 0 .2-.2.2.2 0 .2-.2 0-.2v-.2zm.4-.2v.2h.2s0 .2-.2.2c0 0-.2 0-.2-.2 0 0 .2.2.2 0v-.2zm.2-.2v.2h.2v.2h-.2.2v-.2h-.3v-.2zm.6 0h-.2v-.2h.2v.2zm0 0h-.2.2zm-4.5 3.4l.2.5v.2l-.3-.4v-.2zm.3 0h.2v.4c-.2 0-.3 0-.3-.2zm0 0v.2c.2.2.2.2.2 0h-.2zm.4-.2v.2h.2v.2h-.2c.2 0 0 0 0 0 0-.2 0 0 0 0 0-.2-.2-.2 0-.3zm.2-.4zm0 .2c.2 0 .3.2.3.3v.2h-.2s.2 0 0 0v-.4zm.4-.2c.2 0 .2 0 .3.2v.2h-.3v-.2h-.2.3c0 .2 0 .2.2 0 0-.2-.2 0-.2 0v-.2zm.6 0v.2h-.3v-.7c0 .2.2.3.3.4zm0 0h-.2s0-.2 0 0zm-.1-.5zm0 .2c.2 0 .2 0 .3.2l-.2-.2zm.3-.2h.2v.2c0 .2 0 .2 0 0h-.2v-.2zm0 0v.3h.3v-.2h-.2z"/><path d="M497.2 307.3h.2v.3h-.4v-.3h.2zm.5-.3l.3.3h-.4v-.2zm0 .2v-.2.2zm.3-.5l.2.3v.2h-.2v-.2h-.2.4v-.2h-.2zm.3.1v-.2h.2s-.2 0-.2.2zm0 0v-.2zm.3-.8c0 .3.2.4.3.6h-.2s0-.2-.2-.3v-.2zm.4.4v-.2.2zm0 0v-.2zm-3.8 3.1v.2h.4c0 .2 0 .2 0 0-.2-.2-.2 0-.2 0v.2l-.2-.4zm.8.2h-.2v-.2h-.2.2c0 .2.2 0 .2 0v.2zm0 0c-.2 0-.2 0-.2-.2v.2zm0-.4h.2v.2h-.2s0-.2-.2-.3h.2zm0 0v.2h.2v-.2h-.2zm.2-.3zm0 0l.3.3c-.2 0-.2 0-.2-.2zm.5 0v.3h-.2v-.2h.2v.2zm0 0v.2zm.1-.2h.4c0 .2 0 .2-.2.2v-.2h-.2v.2h.2-.2c0-.2 0 0 0 0v-.2zm.8-.3v.2h-.2c-.2-.2 0-.3 0-.3v.3h.2v-.2zm0-.3s.2 0 0 0v.3h.2c-.2 0-.2 0-.2-.2zm.2 0h.2v.2c-.2 0-.2 0-.2-.2s0-.2.2-.2c0 0 0 .2-.2.2zm0 0h.2-.2zm.2-.5zm0 .2h.3v.2l-.2-.2zm.6.1h-.3v-.4c.2 0 .2.2.3.3zm0 0v-.2h-.2v.2h.2zm.1-.5c.2 0 .3 0 .3.2v.2h-.3v-.4zm0 0v.2c0 .2.2 0 .2 0h-.2zm-1-9.2h-.2v.2h.3v.3h-.2.2v-.2h-.2v-.2zm.1-.1zm0 0c0 .2.2.2.2.3h-.2v-.2zm.2 0h.4s0-.2 0 0v-.2.4s0-.2-.2-.2zm.5-.2h.2v.2h-.2v-.3zm0 0l.2.2v-.2h-.2zm.5-.3h-.2s0 .2 0 0h.2v.3h-.2v-.2zm0-.1h.2v.2h-.2v-.2zm0 0c0 .2 0 .2.2.2v-.2zm.2-.3h.2v.3h-.2v-.3zm.3 0v.2-.2zm.2-.1h.2c0 .2-.2.3-.2.3s-.2 0-.2-.2zm0 0v.2h.2l-.2-.2zm.3-.2c.2 0 .2.2.2.2h-.2c.2 0 0 0 0 0v-.2zm-2 2.4v-.2h.2v.4s0-.2-.2-.2zm0 0h.2zm.3-.2h.2-.2v-.2h.2s0 .2-.2.2zm0 0s0-.2 0 0zm.3-.2v-.2.2h.2c0 .2 0 .2-.2.2v-.2zm.2-.2h.2v-.2c.2 0 .2.2.2.2-.2-.2-.2 0-.2 0h-.2v.2-.2zm.6-.1h-.2v-.2h.2c0 .2 0 0 0 0v.2zm0 0zm.1-.3h.2-.2v.2-.2zm.3-.1v-.2s.2 0 .2.2h-.2zm0 0c0-.2 0-.2 0 0zm.5-.3v.2h-.2v-.3.2h.2zm0 0v-.2zm0 0v-.2zm.2-.4c.2 0 .2 0 0 0 0 .2 0 .2.2.3 0-.2-.2-.2-.2-.3zm.3.1v-.2.2zm0 0c0-.2 0-.2 0 0zm.2-.5zm0 .2v.2h.2-.2c0-.2 0-.2 0 0v-.2zm.2-.2v.2h.2v.2h-.2c.2-.2 0-.2 0-.2v-.2zm-2.7 2.8v.2h.2-.2v-.2zm0 0zm.3 0v-.2h.2-.2zm.4-.4c.2 0 .2-.2.2-.2.2 0 .2 0 .2.2v-.2h-.2v.2h-.2v.3-.2zm.3-.6v.2zm0 .2c.2 0 .2.2.3.3 0 0-.2 0-.2-.2zm.3-.2h.2c.2 0 .2.2.2.2v.2c-.2 0-.2-.2-.3-.2h-.2zm.2 0v.3c.2 0 .2 0 0-.2zm.4 0v.2s-.2 0 0 0v-.3h-.2c0-.2.2 0 .2 0zm0 0s0 .2 0 0zm0-.4s0 .2.2.3c0-.2-.2-.2-.2-.3zm.6.2h-.2v-.2s-.2 0 0 0c-.2.2-.2 0-.2 0h.2v.2zm-.2 0zm.2-.3h.2c0 .2 0 .2-.2.2 0 0 0-.2-.2-.3zm0 0zm.2-.2v.2h.2c-.2 0 0 0 0 0h-.2c0-.2 0 0 0 0v-.2zm.4 0c0 .2-.2 0-.2 0v-.2.2h.2v.2zm0 0zm-2.6 2.4c.2 0 .2.2.2.2h-.2v-.3zm.2 0h.2c0 .2 0 .2-.2 0v-.2h.2l-.2.2zm0 0s0-.2 0 0zm.2-.3v.2h.2-.2v-.2zm.2 0h.2c0 .2 0 .2 0 0h-.2c0-.2 0-.2.2 0h-.2zm0 0zm.2-.4zm0 0l.2.4v-.2h-.2zm.2 0h.2v.2h-.2v-.2zm.3 0v-.2h.3v.2h-.2c0-.2 0 0 0 0v-.2z"/><path d="M500.7 299.7h.2l-.3.2v-.3s0-.2 0 0h.2-.3zm0 0zm.3-.3v.2zm.4.1h-.3v-.2h.2c0-.2 0 0 0 0v-.2c0 .2 0 .3.2.4zm0 0v-.2h-.2v.2h.2zm.2-.2s-.2 0 0 0v-.2l-.2.2h.2v.2zm0 0zm.4-.3c0 .2 0 .2-.2.2s-.2-.2 0-.2v-.2.3h.2v.2zm0 0h-.2v.2zm0 0v-.2zm0 0v-.2zm.2-.4s.2 0 0 0c0 .2 0 .2.2.2h-.2v-.2zm.4.1s-.2 0 0 0v-.2h-.2.2c0 .2 0 .2 0 0v.2zm0 0zm.1-.3h.2v-.2.2h.2c-.2 0 0 0 0 0h-.2v-.2.3l-.2-.2v.2h-.2zm.3-.2h.3-.2l.2-.2v.2zm0 0h.3c0-.2 0-.2-.2 0zm.4-.2v-.2h.2v.2h-.2c0 .2.2 0 .2 0v.2c-.2 0-.2-.2-.2-.2zm.2-.4c0 .2.2.2.2.3 0 0 0-.2-.2-.2v-.2zm.4.1v.2c0-.2-.2-.2-.2-.3 0 0 .2-.2.2 0zm-.2 0h.2c-.2 0-.2 0 0 0zm-4.4 3.8h.2v-.2c.2 0 .2 0 .2.2-.2-.2-.2 0-.2 0h-.2v.2-.2z"/><path d="M499.7 301zm0 .2c.2 0 .2 0 .3.2h-.2c0-.2 0-.2 0 0v-.2zm.3-.2v.2h.2v.2h-.2.2v-.2h-.2v-.2zm.6 0h-.2v-.4l.2.3zm0 0c0-.2-.2-.2-.2-.2v.2h.2zm0-.5zm0 0c0 .2 0 .3.2.4 0-.2 0-.2-.2-.3zm.4 0h-.2.2v.3h-.2v-.2zm.3 0c0 .2 0 .2-.2.2v-.2c0-.2.2-.2.2 0 0-.2-.2 0-.2 0h.2z"/><path d="M501.2 300v.2zm0 .2l.2.3v-.2h-.2zm.2 0h.3v.4l-.3-.4zm0 0l.2.2v-.2zm.2-.4zm0 0l.3.4h-.2v-.2zm.2-.1l.2.4v.2c0-.2 0-.3-.2-.4zm.2 0h.2v.2h-.2v-.3zm0 0v.2h.2v-.2zm.4-.2v.2h.2v.2h-.2v-.2c.2 0 0 0 0 0v-.2zm-1.7 4.3v-.2h.2v.4c-.2 0-.2 0 0 0v-.2h-.2s0-.2 0 0zm.6-.1l-.2.2v-.2c.2 0 .2-.2.2-.2h-.2v-.2c.2 0 .2 0 .2.2v.2zm.1-.1zm.3-.6v.2c0 .2.2.2.2 0v.2h-.2c0-.2-.2-.2-.3-.3 0 0 0 .2 0 0h.2zm.7 0h-.2v-.2.2h.2zm.1-.3h.2v.3c-.2 0-.3 0-.3-.2zm0 0v.2h.2v-.3h-.2zm.3-.1v-.2c.2 0 .2.2.2.2h-.2c0 .2 0 0 0 0zm.2-.3h.2v.2h-.2v-.2zm0 0c0 .2 0 .2.2.3v-.2zm.6-.1v.2h-.2v-.3c0 .2 0 .2 0 0v.2s0 .2 0 0h.2zm0-.2v.2h.2-.2v-.3zm0 0zm.2-.2c.2 0 .2 0 0 0 0 0 0 .2.2.2h-.2v-.2zm.2 0h.2c0 .2 0 .2 0 0h-.2c0-.2 0-.2.2 0zm0 0h.2-.2zm.2-.4zm0 0c0 .2.2.3.2.3h-.2v-.2zm.3 0c.2 0 .2.2.2.2h-.2.2-.2v-.2zm.2-.4l.3.4c-.2 0-.2-.2-.3-.3zm.5.3h-.2v-.2h.2v.2zm0 0zm-4.2 3.3h.3s0-.2 0 0v-.2.3h-.2zm.5-.2h.2v.2c-.2 0-.2 0-.2-.2 0 0 0-.2.2 0h-.2zm0 0zm.3-.4v.4-.2zm.4.2h-.2v-.4l.2.3v.2zm0 0c0-.2-.2-.2-.2-.2v.2h.2zm.2-.2v-.2s-.2 0 0 0v.2h-.2v-.2h.2v.2zm0 0zm.4 0h-.3v-.5l.3.3zm0-.2c-.2 0-.2-.2-.3 0h.2zm.2.2v-.2zm0-.6h.3v-.2.3h-.2zm.4-.4s.2 0 .3.3c-.2 0-.2-.2-.3-.3zm.6 0c0 .2-.2.2-.2.2v-.2h-.2.4s0 .2 0 0zm0 0h-.2v.2zm0-.2h.3v-.2.3l-.2-.2zm.4-.2h.2c0 .2 0 .2-.2 0v-.2h.2l-.2.2zm0 0zm.2-.3s.2 0 0 0c0 .2 0 .2.2.2h-.2v-.2zm.4.1h-.2v-.2c0-.2 0 0 0 0v-.2c.2 0 .2.2.3.3h.2zm0 0v-.2c-.2 0-.2 0 0 0v.2zm.3-.2s-.2 0 0 0v-.2h-.2c0 .2 0 0 0 0h.2l.2.2zm0 0zm.3-.2h-.2v-.4l.2.4zm0 0c0-.2-.2-.2-.2 0h.2zm.4-.5v.2s0 .2 0 0h-.2v-.2zm0 0c-.2 0-.2 0-.2.2h.2s0-.2 0 0zm.2-.2v.2s-.2 0 0 0v-.2zm-4.6 3.7v.3c.2-.2.2 0 .3 0v.2c0-.2-.2-.2-.2-.3v.3c0-.2-.2-.2-.2-.3zm.6.2c-.2.2-.2 0-.2 0v-.2c.2 0 .2 0 .2.2zm0 0h-.2.2zm0-.2v-.2s.2 0 0 0v.2h.2v.2l-.2-.2zm.4 0h-.2v-.2h.2v.2zm0 0v-.2.2zm.1-.6l.3.3c-.2 0-.2-.2-.3-.2zm.3-.1s-.2 0 0 0zm0 0v.3-.2zm0 .1c.2 0 .2 0 .2-.2h.2v.3h-.2l-.2-.2zm.2 0zm.2-.4v.2s.2 0 0 0h.2v.2s-.2 0-.2-.2zm.2 0c0 .2 0 .2.2.2h-.2v-.2zm0 0zm.4-.2v.5c0-.2 0 0 0 0v-.2c-.2 0-.2 0 0 0v-.2zm.2.2z"/></g></g></g><path fill="#201b18" d="M362.5 204c-6.2-.2-12.5 1.2-17.7 4.4-2.4 1.5-3 2-1.6 4.4-.3.2-2.5 1-3 1-2 .8-4 1.6-5.7 2.6-1 .6-1.5 1-2.3 2l5-.5-.7 1c-1 1.2-1.4 2.2-2.2 3.5 1.4-1 2.7-2 4.3-2.7 3.6-1.7 10-1.8 12.6-5 .7-.7.3-1.2-.3-2.5 1.8-.6 2.6-1 5-1.6 5.6-1.3 9.5.2 12.3-.5.8-.2 1.7-.7 1.7-1.6l-.4-2.8h9.3c0 1.6-1.7 3.7 1.2 4.4 2.6.7 7.8-.8 12.4.5l5 1.6-.5 1.2c0 .6 0 1 .3 1.3.5.6 1.2 1 2 1.6 1.4.8 3.3 1.3 5 1.8 5.3 1.2 5.8 1.6 10 4.3-.4-.8-2.3-3.6-3-4.6l5 .3c-1-1.3-3.5-2.7-5-3.3l-6-2.2c.6-1 1-2 .5-2.7-1-1.2-6-3.7-7.2-4-2-.6-4.4-1-6.6-1.4-2-.4-6.2-.7-6.2-.7-.3-.4.6-2-.8-3.2-.7-.6-2-.8-3-1-4.6-.4-11-.2-15.5 0-1.3.2-2.3.3-3 1-1 1-1 1.4-1 3z"/><g fill="#002d62"><path d="M363.8 207.2c.6-.6.7-.8 1.8-1.2 2.4-.8 6-.7 8.6-.7 2 0 4 0 6 .2s3.3.4 4.6 1.6c.3-1.3.6-2.5.6-4 0-1.8-.8-2.3-2.3-2.6-2.4-.5-6.5-.4-9-.4-2 0-8 0-9.2.5-1.2.4-2 1.3-2 2.8 0 .8.6 3.4 1 4z"/><path d="M345.8 215.2c.4-.4 0-.8 2-2 2.5-1.2 6-2.5 8.7-3 2.4-.5 5-.5 7.4-.3h3.7s1.2-.3 1.5-.6c.4-.4.4-1.3.4-1.3-.8-.6-3 1.7-5.2 1-.7-.2-1-1.3-1.2-2l-.6-2.7c-4-.5-10.5 1-14 2.6-1.7.7-4.3 2-5.3 3s0 2.2.5 3l2 2.2zM379 208c-.3 1.4.7 1.8 2 2 2.3.3 6-.8 11 0 2 .5 4 1.2 6 2 .7.3 3.3 1.5 3.8 2l1 1c.2 0 1.6-1.7 2-2 .5-.8 1.3-2 .4-3-.7-.8-4-2.5-5.3-3-2-1-5-1.6-7.3-2-2.4-.4-7-.8-7-.8s-.4 4.4-1.6 4.8c-2.2.7-3.4-1.3-5-1z"/><path d="M397.5 213.5c0 .7-.4.7.8 1.7 3 2.4 7.8 2.6 11 4 1.4.6 2.3 1 3.7 2-.2-.5-2-3-2.4-3.7 1.4 0 3 0 4.5.2v-.2c-2-1.8-7.3-3.5-10-4.3-.7 1-1.5 1.7-2.3 2.6-.3.3-.5.5-1.2.3-.8 0-1.4-.8-2-1.2-.4-.5-1.4-1.3-2-1.3zm-18.5-5.9c1.4 0 1.6.4 2.8 1 .4 0 1 .2 1.6 0 .8 0 1 0 1-.7.4-1-1-1.6-1.8-1.7l-3.3-.5zm-9.5 0l-.3-1.8c-1 0-5.5.7-5.2 2 .2.7.3 1 1 1 2 0 2.3-1 4.5-1.2zm-23.5 7.8c.8 1.2 2.5-1 3.6-1.6.6-.5.6-.5 1.3-.7l-.5-.5c-.5 0-2 1-2.5 1.2-.8.4-1.6 1-2 1.7z"/><path d="M397.6 213l.7.3c1.5 1 3.3 3.2 4 2.3.4-.5-1.2-1.6-1.7-2l-2.6-1-.4.5zm-46.6.5c0 .7.4.8-1 1.8-2.8 2.4-7.7 2.5-10.7 3.8-1.6.8-2.4 1.4-3.8 2.2 0-.4 2-3 2.3-3.7-1.3 0-3 0-4.5.2l.2-.2c2-1.8 7.3-3.4 10-4.3l.7 1 1.5 1.6c.4.4.6.6 1.2.4.7-.2 1.4-1 1.8-1.4.5-.4 1.5-1.2 2-1.3z"/></g><path d="M351.6 206.8c-.4 0-.8.2-1.2.4 0 0-.4 0-.2.3.2 0 .2.3.3.4l.3.8.5 1.3v.4c.4 0 .6-.2 1-.3.2 0 .5-.2.7-.5v-.5s.2-.3 0-.4v-.6l-.4-.7c-.2 0-.4-.3-.6-.4l-.4-.2zm-.2.3c.3 0 .5.4.6.6l.4.7c0 .3.2.7 0 1 0 .3 0 .5-.3.6l-.2-.4-.2-.5-.4-1-.2-.6c0-.2.2-.3.4-.3zm1.6-.8s.3 0 .3.3c0 .2 0 .4.2.6v.4c.2.2.2.4.3.7 0 0 0 .3.2.5v.5s0 .2 0 0h.8l-.2-.4c0-.3 0-.6-.2-.8v-.5c-.2 0-.2-.3-.3-.4v-.8s-.2-.2 0-.3c0-.2-.3 0-.4 0h-.5zm2.8-.7c-.3 0-.5 0-.7.2l-.2.8v.8c0 .4.3.8.6 1 .2.3.4.4.6.5h.6c.3-.2.5-.5.6-.8l.2-.7c0-.2 0-.4-.2-.6 0-.3 0-.6-.3-.8-.2 0-.4-.3-.5-.4-.2-.2-.4-.3-.7-.2zm0 .2c.2 0 .4.2.5.5l.4 1v1.1c0 .2-.4.3-.6 0 0 0 0-.2-.2-.3l-.2-.7-.2-.6v-1c0-.2.2-.2.4-.2zm2.2-.5l-.3.5v.6c.2 0 .3.3.5.4l.8.4.4.4v.4c0 .2-.2.3-.4.3 0 0-.3 0-.4-.2-.2 0-.3-.3-.4-.5 0 0-.2 0 0 0l-.2.6c0 .2.3.3.4.4h.9c.2 0 .4-.2.4-.4s.2-.4 0-.7c0-.3-.2-.6-.5-.8-.2 0-.4 0-.6-.2-.2 0-.5-.2-.5-.5 0-.2 0-.4.2-.5h.5v.5c0 .2.4 0 .3 0 0-.2.2-.4 0-.5l-.6-.2c-.2 0-.4 0-.5.2h-.2zm10.4-4.1h-.8c0 .2-.4 0-.4.3l.2.4v2c0 .2.2.4 0 .5 0 0 0 .2.2 0h.6c.2 0 0 0 0 0v-1.3h.5c.4-.2.7-.5.8-.8 0-.4 0-.8-.4-1l-.6-.2zm0 .3c.2 0 .3.2.4.4v.4c0 .3-.2.5-.5.5 0 0-.3 0-.3-.2v-1.2h.3zm2.4-.5c-.2 0-.3.2-.3.4v.6c-.2.3-.2.6-.3 1l-.3 1c0 .2-.3.3-.2.4h.6c.2 0 0-.2 0-.3-.2 0 0-.2 0-.4h.8v.8h.8c.2 0 0-.2 0-.3-.2-.2-.2-.5-.3-.7 0-.2 0-.5-.2-.8 0 0 0-.3-.2-.4 0-.3 0-.6-.2-1h-.2zm0 .8c0 .4 0 .8.2 1.2 0 .2 0 .2-.2.2h-.4v-.6l.2-.6v-.2zm2.6-.8h-1.2v.7l.2-.2s.2-.3.4-.3h.2v3h.8v-3h.5c0 .2 0 .3.2.4v-.7h-1zm2.6 0c-.2-.2-.5 0-.7 0 0 0-.3 0 0 0v2.8s0 .2-.2.3c0 .2.3 0 .4.2h.6v-1.5s.2 0 .2.2 0 .3.2.5l.3.4.4.3h.4l-.2-.3-.3-.7-.2-.4c0-.3 0-.3.2-.3l.4-.4v-.6c0-.2 0-.3-.2-.5l-.4-.2h-.8zm.3 0l.4.3v.8c0 .3 0 .5-.3.5h-.5v-1.3h.3zm2 .4v2.5l-.2.2.5.2h.4s-.2 0 0-.2c-.2-.2-.2-.4 0-.6v-2.4s.2 0 0 0h-.5s-.3-.2-.3 0c0 0 .2 0 0 .2zm2.4-.1c0 .3-.2.5-.3.8v.6l-.4.7c0 .4-.2.7-.4 1v.2h.7c-.2-.2-.2-.4 0-.6 0-.3 0-.4.2-.3h.6v.6s-.2.3 0 .3h.8c-.2-.3-.2-.6-.2-1 0-.2 0-.5-.2-.8v-1s0-.2-.2-.3c0 0 0-.2-.2 0 0-.2-.2-.2-.3-.2zm0 .7v.6l.2.7c0 .3-.3 0-.5 0h-.2v-.5c.2 0 .2-.2.2-.4 0 0 0-.3.2-.4zm6 3.3c0 .2.2.2 0 .4 0 .3 0 .7.2 1v1.7s-.2 0-.2.2h1.7v-.7c0-.2 0-.2 0 0 0 0-.3.3-.6.3h-.5v-3.1h-.8zm2.3 3.3h.8c0-.2-.2 0-.2-.3v-2.7c0-.3.2-.2.2-.4h-1c0 .3.2 0 .2.4v3zm1.2-3.4l.2.4v1c0 .5 0 1-.2 1.4v.4s-.3 0 0 .2h1c.2.2.5 0 .7 0 .3-.3.3-.7.2-1 0-.2 0-.3-.2-.4l-.4-.3c.3 0 .6-.4.7-.7 0-.2 0-.5-.2-.6v-.2c-.2 0-.3 0-.5-.2h-1.3zm.8.3c.2 0 .4 0 .5.2.2.2.2.5 0 .8 0 0 0 .2-.2.2h-.4v-1.3zm-.2 1.5c.3 0 .6 0 .7.2.2.2 0 .5.2.7 0 .2-.4.5-.7.4 0 0-.2 0-.2-.2V207zm1.6 1.8s.3 0 .4.2c.3 0 .5 0 .8.2h.7l.2-.4c0-.2 0-.2-.2 0h-.8c-.2 0-.3 0-.2-.3v-1.2h.5c.2.2.3.3.3.5.2 0 .2-.2.3-.3v-.6c-.2 0-.2.2-.5 0h-.3v-1c.4 0 .7 0 1 .4 0 0 0 .3.2.3v-.7h-.4l-1.3-.4c-.2 0 0 0 0 .3 0 .4 0 1-.2 1.4 0 .4 0 .8-.2 1.2 0 0 0 .2-.2.2zm2.8-2.6c0 .2.2.4 0 .6 0 .5 0 1-.2 1.5 0 .3 0 .6-.2 1 0 0-.3 0 0 .2l.6.2c.2 0 0-.2 0-.4v-.6s0-.4.3-.4c.2 0 0 .3 0 .4l.4 1 .6.6v-.6c-.2-.2-.2-.4-.2-.7v-.5c.2 0 .4 0 .5-.3.2-.2.2-.6.2-1 0-.2-.4-.5-.7-.6l-1-.4h-.3zm.8.4c.2 0 .5.2.6.4 0 .3 0 .7-.2 1h-.8c0-.5 0-.8.2-1v-.4zm1.4 1.1l.4-.2h.5v.4s0 .3-.2.5c0 .5 0 1-.3 1.5 0 .2 0 .3-.2.4 0 0 .2 0 .3.2l.5.2v-.4l.3-1.2.3-1.4s.3 0 .4.3v.6c.3 0 .2-.3.2-.4v-.4l-.7-.3-.7-.2-.6-.3-.3.6zm3.2.6c-.2 0-.2.3-.3.4 0 .2-.2.3-.3.5l-.8 1.3-.4.4h.2c0 .2.3.3.4.2 0 0-.2-.3 0-.4 0-.2 0-.4.2-.3l.6.3v.5s-.3.3-.2.4c0 0 .3 0 .4.2h.3v-2c.2-.3.2-.7.2-1v-.5l-.4-.2zm-.3.7v1.4c0 .2-.3 0-.4 0-.2 0-.4-.2-.3-.3 0-.2.3-.3.4-.6.2 0 .3-.2.3-.4zm2.1.4c0 .2 0 .5-.2.6l-.3.6-.5.6c0 .3-.3.6-.5 1 0 0-.3 0 0 0 0 .2.2.3.3.5.2 0 .4.3.6.5.2.2.6.3 1 0l.3-.4.3-.6c0-.2.2-.5 0-.8 0-.5 0-1-.5-1.2 0-.2-.2-.4-.4-.6 0 0-.2 0-.2-.2zm.5 1c.2 0 .3.3.3.6 0 .5-.2 1-.5 1.4-.2.2-.3.5-.6.5s-.5-.2-.6-.3c0-.3 0-.5.2-.7l.7-1.2c0-.2.2-.4.3-.5z" fill="#eac102"/><path fill="#006300" d="M363.2 281.2l2.3 1 1.7 3.2c.7.5.6.4 1.3.5l-4 1.6c-1.2.4-.7 1.5-.2 1.7.6.2 2-.4 2.3-.6 2-1 4-1.8 5.7-3l1.8-1 7.3 4c.5.2 1.5 1 2 .5.3-.2.7-.5.6-1-.2-.4-.5-.4-.8-.6l-4-1.7 1-.3c.2-.2-.3-.7 0-.6l2-2.8 2-.8c0-2-16.6-3.3-21-.2z"/><path fill="#ff0" d="M364.4 288c-.6.3-.5 1.4.7 1 1-.2.3-1.2-.6-1zm17.6 0c0 .6 0 .8.4 1 .4.2.7.2 1 0 .4-.5 0-.7-.3-1h-.9z"/><path fill="#006300" stroke="olive" stroke-width=".24" d="M399.2 222v.2c1.6 3 1 1.6 2.3 5.5-.3-.2-.6-.6-.8-1-.7-1-1.3-1.8-1.8-2.8-.3-.4-.3-.5-.6-.6l.6 2.3c.5 2 2 4 3 6l-.7-.8c-1-.8-.7-.7-1.2-1.6-.4-1-1-2-1.2-3l-.8-2c0 .2 0 0-.2.2v1l.6 3.3-2.2-1.4-.6-.2h-.2c-.2.4 1.3 1.7 1.6 2 .3.2 1.8 1.2 2 1.6.5 1.3 1 2.4 2 3.5l.7 1-1.7-1.8-3.2-2.7c0 .4.5.7.8 1l2.2 2.4c.7 1 1.5 1.7 2 2.6l1.4 2.3c0-.2-.5-.8-.7-1l-2-2.6-2.6-2.3c-1-.7-1.4-1-2.4-1.5 0 .2.3.4.5.5l3 2.8 1.2 1.2 1 1.2c.7.8 1.3 1.8 2 2.8l.7 1.5c-.7-.3-3.8-3.7-4.5-4.5-.6-.6-1-1-1.7-1.4 0 .5 2.2 3 2.6 3.4l.5.5.8 1c.6.7 1.7 2 2 2.8l.8 1.3-1.5-1.8c0-.3-.3-.6-.6-1-.7-.7-2-2-2.7-2.5l-2-1.2c-.2.2.3.5.5.7l.8.8c1 .7 2.2 2.2 3 3.2.5.6 1 1 1.3 1.8l-.7-.7-.7-.6c-.5-.4-1-.8-1.5-1l-3.4-1.8c0 .2 1.3 1 1.6 1 .6.5 1.8 1.2 2.3 1.8l.6.7c.5.4.8 1 1.2 1.5.4.6.8 1 1 1.6.5.6.8 1 1 1.8l1.2 4.3c-.3-1.4-1-3-1.5-4.3-.4-1-1.3-3.6-2.6-3.2-.6.2-1 .8-1 1.2-.4.6-.8-.2-2 2-.5 1-1 2.6-1 4-.2 0-.2.3 0 .5l.4-1.2 1.8-3.4-1 4.6c.4 0 .5-.6.6-1 .5-1 .8-2.2 1.3-3.4 1.6 1 2 6.7 2.3 8.8l-1-3-1.6-2.4c-1 0-1 1.2-1.2 2-.3-.5-.6-1-1.2-1-.5 0-.7.7-.8 1.3v2l.3 1.6h.2l.3-3.8c.6.2 1.7 2.7 1.5 3.8-.6 3.7-1 5-3 8l-1 1.6-.6.7-.7.8c1-1.7 1.5-2.4 2.2-4.5.6-1.5 1-3 1.2-4.8v-.7c-.3 0-.4.3-.5.6-1.7 5.4-2 5.6-4.8 10.4l.5-3c-.2 0-.2 0-.3.4l-.3.5c-.4 1-.8 2.3-1.4 3.3l.3-1 .6-3v-.8c-.3 0-.3.6-.4 1-.3 1-.8 2-1.3 3v-.3c0-.6.2-1.7 0-2.3 0 0 .2 0 0-.4-.2 0-.3.6-.3 1l-.3.8c-.8 1.8-1.6 3-2.6 4.7.4.2.3.2.2 0 .8.3 5.2 1.2 5.2 1.2 2.7 0 4.4-.3 7 0 .4 0 2 .3 2.2 0l-2.3-.8-2.5-.6 7-.2-.6-.4c-1.2-.4-4.3-.6-5.5-.7 2.4-.2 4-.4 6.4-.4.6 0 2.7.6 1.8-.4-.8-.5-3.5-.6-4.4-.6l4.2-.2c.7 0 5 1 3.4 0-1.2-.7-3.8-1.3-5-1.5l2-1c1.7-.8 3.5-1.3 5-1.8 2-.2 3.4-1 1-.7-1.5 0-3.4.5-4.7.7l1.2-.7c1-.6 2.4-.8 3.7-1.2.2 0 0 0 .2-.2h-1c.8-.5 3-1 3.7-1l2.8-.8c.3 0 .7 0 1-.4h-.3c-.3-.2-5.4.6-6 .7l-1.8.2c1.5-.7 3-1.4 4.7-1.8.4 0 1.6-.3 1.7-.6h-1l-4.5 1-1.6.7c5.2-2 3.2-1.5 8-2.4.6 0 1 0 1-.3l-2.7-.2c-1 0-2 .2-2.7.3l2-1.8c.6-.5.4-.6 1.4-.6h1.8c-.7-.8-1-.5-1.6-.8l.8-1 .5-1v-.2h-.3l-2 2h-1l-2.7.7 2.8-2 1.7-.8c.4-.2 1.4-.6 1.5-.8l-3.3.8c-.8.3-2.6 1-3 1.5 1.5-1.7 3.7-3.6 5.5-5 .2 0 .7-.3.8-.6h-.3c-1 .3-3 1.7-3.7 2l-3.6 2.7 2-2 .5-.4.5-.5 1-.8c.7-.6 1.5-1.3 2-2l1-.8c.4-.2 1-.7 1-1-1.4.8-2.7 1.6-4 2.6-.8.4-1.4 1-2 1.4-.6.3-1.6 1.3-2 1.4.8-1.3 1.7-2.6 2.7-3.8 1.3-1.4 3-3 4.4-4 .4-.4.8-.8 1.2-1v-.2c-.4 0-1.5.8-1.8 1-1.6 1-3 2.4-4.4 3.8l-.7.7-1.8 2.4-2.2 3.3c.4-2 2-3.6 3-5l2.5-2.6c.2 0 .3-.3.4-.4 1.6-2 2.4-3.3 2.8-5.5l-1.3 1.8-.6.7-5.3 6c.3-1 1.3-2.7 1.7-3.4.7-1 1.3-2 2-2.8.6-.7 2.8-3.7 3.4-4.2l.2-.2c0-.4.3-.5.7-.8l1-1c-.5-.3-2.2.8-2.6 1-2 1.5-3.7 3.6-5.3 5.7.2-1 1.5-4.4 2-5.3.7-.7 1-1.7 1.7-2.3l1.4-2.2c-.3 0-.7.5-1 .7 0 .2-.2.3-.3.5-2 2-3.2 4.4-4.5 7 0-1.3 1.2-3.5 1.8-4.5l2.6-4c-.5 0-2 1.6-2 2-.7.7-1.3 1.4-1.8 2.3-1 1.6-2 3.4-2.5 5.2v.3c0-1.7 1.7-5.7 2.4-7l1.5-2c0-.3.2-.6.4-.8l1-1.3 1-1.4c-.6-.2-3 2.5-3.4 3l-1.6 2.3c.3-1.2 1.3-3 2-4 .6-1 1.3-1.8 2-2.7l.6-.8c-.8 0-3.8 3.4-4.4 4.2l-.7 1-1 1.6c-.2 0-.2.2-.3.3l-.2.3c.2-1.4 1-4 1.3-5l2-4.3c-.6 0-1.6 1.3-2 1.7l-1 2.3c0-1 1.7-4.8 2.3-6-.2 0-.5.5-.7 1-.8 1-1.4 2.2-2 3.4 0-1 .7-2.4 1.3-3.4-1 .5-2.6 4-3 5l-.5 1.5v.7c-.2-2.7.4-5.4.8-8-.3 0-.3.3-.4.5l-.3.7c0 .4-.3 1-.5 1.4l-.7 3.2c-1.2-1.6-1.4-4.5-3.7-8-.6-1-.8-1-1.8-1.7zm1.2 31.7c1 2.6 1.3 3.5 2 6.2h-.3c0 .4 0 1-.3 1.3l-.7-2.4c-.2-1 0-2.7 0-3-.4.5-.3.5-.4 1.4l-.4-1c-.5-1.5-.6-1-.3-2 0 0 .2-.6.4-.7z"/><g fill="#008f4c"><path d="M407.3 249.2c.4-3.5 4.8-12 6-12 .3 0-1.4 2.2-2.5 4.6-1.2 2.3-2.4 5.4-2.8 6.8l-.7 2.5v-1.8zm9.7-2.2l-2 1.8c-3.2 3-7 8.5-9 13-1.8 4.6-1.3 3.4-.7 1 1.4-4.8 5.3-11 9-14 1.3-1 2.6-2 2.6-1.7zm-11.2-8c0-3.2.3-4.3 2.2-8.2 1.2-2.5 1.7-3.3 1.8-3.2 0 .2 0 .6-.3 1-1 2.2-3 8.3-3.2 11 0 .8-.3 1.6-.3 1.6l-.2-2zm-5.2 18.2c.2 2.5-.2 5.4-1.3 8.3-.7 1.7-3.4 5.7-4 6-.3 0-.2 0 .5-1 2.7-3.2 4.6-8 4.6-12.5 0-2.4 0-2.8.2-.8z"/><path d="M408.6 254c.4 1.3.5 4 0 5.3-1 3.4-3.3 5.8-6.7 7l-1.4.3 1.2-.6c4.2-2 6.8-6 7-10.4 0-1-.3-1.3-.4-1.5v-.6l.2.7z"/><path d="M418 261.2l-4.2.8-6.3 1.2c-2 .4-2.3.5-2.4.3v-.3l9.3-1.6c2.4-.4 3.8-.5 3.6-.4zM400.5 224c1.4 1.7 1.8 2.4 2.5 5.3.4 2 .6 2.5.4 2.5l-.3-.7c-.3-1.5-2-5.5-3-7l-.5-1s.5.3 1 1z"/><path d="M399 226c.7 2.2 1 3 3 5 1.4 1.4 2 1.8 2 1.7 0 0-.2-.4-.5-.6-1-1-3.6-4.7-4.3-6.4l-.6-1s0 .7.4 1.5zm12.6 6.7c-2.2 2-6 8.6-5.3 9.6 0 0 1-1.4 2-3.4s2.5-4.5 3.2-5.5l1.3-1.8-1.2 1zm1 1.6c-2.5 2.3-6.5 9.6-6 10.8.2.2 1.2-1.4 2.3-3.7 1-2.2 2.7-5 3.5-6 1-1.2 1.5-2 1.4-2l-1.4 1zm-14.3-6.7c.4 2.2.7 3 2.5 5.4 1 1.5 1.5 2 1.5 1.8 0 0 0-.3-.3-.6-1-1.3-3-5.2-3.4-7l-.5-1s0 .6.3 1.4z"/><path d="M396.7 229.2c1.5 1.5 2.2 2 5 2.8 1.8.6 2.4.7 2.4.6 0 0-.2-.3-.6-.4-1.5-.4-5.3-2.4-6.7-3.5l-1-.6 1 1.2zm20.3 10.6c-3.5 2.3-9.6 10.5-9 12 0 .2 1.6-1.6 3.3-4.2 1.7-2.5 4-5.5 5.4-6.8l2-2s-1 .4-1.8 1zm-.6 5c-1.5 3-7.2 8.7-8.4 8.4-.2 0 1-1.5 3-3l4.6-5 1.4-2-.6 1.6zm-20.1 20.6c-.6 3-4.2 9.2-5.3 9.3-.2 0 .6-1.6 1.8-3.4l3-5.5.8-2s0 .8-.3 1.6zm9.3-17.7c-.5-2-2.2-4-4.5-6.2-2.3-2-3-2.4-1-.5 2 1.8 4.3 5 5.2 7l.7 1.3s0-.8-.4-1.6zm1.8 23.9c-2.6-.8-9.3-.7-10 0 0 .2 1.7.3 3.7.2h5.8l2 .3-1.4-.4zm-2.9 1.2c-2.6-.7-9.3-.3-9.8.5h3.5c2-.3 4.6-.3 5.7-.2l1.8.2s-.6-.3-1.3-.4zm-2.9 1.4c-2.7-.6-9.4 0-10 .8l3.7-.2 5.6-.3h2s-.7 0-1.4-.3zm-1.8 1.8c-2.2-1-8-1-8.5-.3 0 0 1.3.2 3 .2 1.8-.2 4 0 5 0l1.6.4-1.2-.5z"/><path d="M410.3 267.6c-5.5 1.6-12.2 2.5-12.6 3.8 0 .2 2.4-.2 5-1 2.3-1 5.5-2 7-2.4 1.4-.2 2.5-.6 2.4-.7 0 0-.8.3-1.7.3zm7.1-3.6l-4.8 1c-2.6.4-6 1-7.5 1.4-2.2.5-2.6.5-2.8.3l-.2-.3s7-1.4 11.2-2c3-.4 4.5-.5 4.2-.3z"/><path d="M415.7 262.6l-4 1.2-6 1.8c-2 .6-2.4.7-2.5.6l-.2-.3c0-.2 6-1.8 9.2-2.7 2.4-.6 3.7-.8 3.5-.7z"/><path d="M414.4 256.2c-3.8 1.5-11.5 8.2-11.2 9.8 0 .2 2-1.3 4-3.4 2.3-2 5.3-4.5 6.7-5.4l2.3-1.7-2 .7z"/><path d="M417.2 258c-3.8.2-12.4 4-12.7 5.7 0 .2 2-.6 4.6-2s6-2.5 7.5-3c1.5-.3 2.7-.7 2.6-.7h-1.8z"/><path d="M417 258.4c-9.6 8.2-15 12.2-17 11.3-.3 0 3.6-2.3 7-4.4 3-2.2 7-5.2 8.7-6.7 1.5-1.5 2.8-2.6 2.8-2.5 0 .2-.6 1.3-1.4 2.4zm-10.3 2.6c2-3.2 3-4 7-6.8 2.8-1.7 3.7-2.2 3.7-2 0 .3-.3.6-.8 1-2.4 1.3-7.8 6-9.7 8.5-.8 1-1.4 1.5-1.5 1.4l1.2-2zm1.1-9.2c.3-3.6 6.4-15.5 7.7-15.7.2 0-1.5 2.5-2.6 4.8-1.2 2.4-2.5 5.5-3 7-.2 1.3-2.5 6.5-2.5 6.4l.3-2.4zm-2.6-13.8c-1-2.4-1-3.3-.3-6.7.4-2.2.6-3 .8-2.8v.8c-.5 2-.5 7 0 9l.2 1.3-.8-1.5zm1.8 13c-.5-1.6-2-3.6-4-5.5-2.2-2-2.8-2.2-1-.4 1.7 1.7 4 4.6 4.6 6.3l.7 1.2-.2-1.4zm-9.3 2.8c2-7 3.5-5.7 3.5-5.7 4.2 4 2 17.7 2 17.7 0-27.8-5.5-12-5.5-12z"/><path d="M399.3 253.4c2-7 2.4-6.6 2.4-6.6 3.5.7 3.3 16 3.3 16-1.6-26.2-5.7-9.4-5.7-9.4zm-1.9 5.3c0-5 1-4.2 1-4.2 2.7 2.5 3.8 12.2 3.8 12.2-4.4-19.5-4.8-8-4.8-8zm8.6-14.5c-1-2.7-3.3-6-6.5-8.8-3.3-3-4.3-3.5-1.4-.7 2.7 2.6 6 7 7.3 9.8l1 2c.2-.2 0-1.2-.3-2.3z"/><path d="M405.7 241.8c-.7-2-2.5-4.5-5-6.7-2.6-2.2-3.3-2.6-1-.4 2 2 4.5 5.4 5.4 7.5.5 1 1 1.6 1 1.5 0 0 0-.8-.3-1.7zm-14 27.5c-.2 1.5-1.8 4.8-2.3 5 0 0 .2-1 .7-2l1.4-2.8.4-1v.8zm-1.4.9c-.2 1.5-1.8 4.8-2.3 5 0 0 .2-1 .7-2 .6-1 1-2.2 1.3-2.8l.4-1v.8zm2.1.1c-.2 1.5-1.8 4.8-2.3 5l.8-2c.6-1 1-2.2 1.3-2.8l.5-1v.8z"/></g><path fill="#00873f" d="M341.2 232.3c0 .7.2 1 .6 1.4v-1.4c-.2-.2-.3 0-.6 0z"/><g fill="none" stroke="#006300" stroke-width=".6" transform="matrix(.8 0 0 .8 -25 0)"><path d="M455.2 304l-1-.8m1.8-4.6l-.7-1m-1.7 13.4c-.3-2-1.5-2.6-1.5-2.6m11.3 29.9c-5.4-6-7-16.7-7-16.7 1.6-4.5 4-5.6 4-5.6m-4.1 5.5c-1.8-7-1.3-14.2-1.3-14.2.6-9 3.4-16.8 3.4-16.8m-3.4 19.3c1.3-6.6 6.8-5.8 6.8-5.8"/><path d="M454.8 311c5-2 4.3-6.3 5.2-8 1.3-2.7 2.3-3.5 2.3-3.5m-2.6 32.9c-1.7-4.2.3-5 .3-5m-1 3.6c-2-2.7-4.8-2.5-4.8-2.5m3.8-10.3c1.4-2.4 0-4.8 0-4.8m.7 16.3l-3.8-5m2.3-30.3c.5-2-1-3-1-3"/><path id="b" fill="red" stroke-width=".313" d="M456.4 291c0 .5-.4 1-1 1s-1-.5-1-1 .5-1 1-1 1 .4 1 1z"/><use xlink:href="#b" transform="matrix(.2 0 0 .2 444.6 235.4)"/><use xlink:href="#b" transform="matrix(.2 0 0 .2 443.7 248.3)"/><use xlink:href="#b" transform="matrix(.2 0 0 .2 440 252)"/><use xlink:href="#b" transform="matrix(.2 0 0 .2 438.7 256.2)"/><use xlink:href="#b" transform="matrix(.2 0 0 .2 440.3 257.8)"/><use xlink:href="#b" transform="matrix(.1 0 0 .1 463.2 286.1)"/><use xlink:href="#b" transform="matrix(.1 0 0 .1 464.3 287.3)"/><path d="M458.8 316.6c-.3-1-1-1.2-1-1.2m14.6 24.1c1.6 1.2 2 .5 2 .5"/></g><g fill="#006300"><path d="M354.5 274.4c-.8-2.8-.6-3.5-.6-3.5m-6.1-1.6s-.4-1 .3-1.7c.6-.4 2.5.7 3.5-3.7 0 0-.6 0-2 .5v-.3s-.3-1-.2-2.2c0 0 .7-1 .7-1.5 0 0-1.2-.4-3.7 2.7 0 0-.2-.6-2-1.8 0 0-1 2.7-.5 4.3.4 1.2.4 1.6 1.7 2.5 0 0 1 .5 1.2 1.8h1v-.7zm-1.8 3.2c-.4.3-.6.5-1.3.6-3.2.5-5-3.7-5-3.7 0-.8.3-.4 1-.2 1 .4 1 .2 2 0 1.4 0 2.8 1.2 2.8 1.2.8.7 1 2 1 2-.2.3-.5.3-.5.3zm-3.8-7.5c-3.3-1.4-5.3.2-5.3.2-.2.2 0 .3 0 .3 2.2.2 1.5 0 2.4 1.3 1.5 2 4 1.6 4 1.6.6.2 1.2.8 1.2.8-.2-1.8-2.4-4.2-2.4-4.2zm-5.7-13c-.7-.6-.5.3-.5.3-1.4-2.4-5-2.6-5-2.6-.3 0-.5-.2-.5-.2-.6 0 .2 1.2.2 1.2 1 3 2 3.2 2 3.2-1 .6-3-1-2.7.2 2 2 3.2 2.3 3.2 2.3 2.5.6 3.5 0 3.5 0 .6 1 1 1.2 1 1.2 2.2.6 2.6 2 2.6 2 0-2.5-1-5.5-1-5.5-.5-1-2.8-2.3-2.8-2.3z"/><path d="M353.6 275.2c-1.2.4-1.3 1.2-1.3 1.2-1 1.6-5.3 0-5.3 0-1.2-.3-1-.6-1-.6 1.2-.6 1.6-1 1.6-1-2.3-2-2.6-4.6-2.6-4.6 3.5-.7 4.5 0 4.5 0-.2-1.4-1.3-1.4-1.3-1.4-.3-.4.3-.5.3-.5 3 .3 4.6 2.2 4.6 2.2 1.2 1.6 1 3.2 1 3.2.2 1.6-.4 1.5-.4 1.5zm-14-13.8c-1.7-.5-2.6 0-2.6 0-1 .4-2.5-.6-2.5-.6-2-1.8-2.4-2.8-2.4-2.8 0-.3 2-.3 2-.3 2.3 0 3 .5 3 .5 1 .7 1 1.3 1.4 1.6 1 .6 1.3 1 1.3 1 .3.3.4.7 0 .6zm3.2.8c1.2-1.3 2.7-.4 2.7-.4 2.4.3 3.2-2.4 3.2-2.4.5-1 1-1.6 1-1.6 0-.7-1 0-1 0-2 .4-2.2.6-2.2.6l.4-3.3c0-.4-.7 0-.7 0-3 1.7-3.3 3-3.3 3l-1.2-2.4c-.4-1-.7 0-.7 0-.4 3-.2 3.2-.2 3.2.4 1.5.8 2 .8 2 .7.8.7 1 .7 1z"/><path d="M360.2 269.8c-.5 0-1.7 2-1.7 2-1.5-2.7-3.5-3.2-3.5-3.2-.3.2 0 1 0 1 .7 1.3 0 2.5 0 2.5-.2 1.2 0 1.4 0 1.4-2.3-1.2-2.5-1-2.5-1 0 1.4 1.8 4.2 1.8 4.2l4.2-1 1.4-.2c1-3.3.2-5.6.2-5.6zm-19-15.2c1.5.7 1.6 1.7 1.6 1.7.4 1.3 4 1.5 4 1.5 2.7-.2 2.4-.8 2.4-.8-1.6-1.4-1.2-1.3-2-2-1-1.2-2.7-1.2-2.7-1.2-2.2.3-2.7 0-2.7 0-.7.3-.6.8-.6.8zm-3.4-5c-.7-2.6 1.6-5.8 1.6-5.8 2 3.6 1.6 4.6 1.6 4.6-.7 2.4-1.6 4.2-1.6 4.2-.4-1.8-1.3-2-1.6-3z"/><path d="M336.6 250.6c-2.5 0-4.8-2.7-4.8-2.7 3.7-1 4.5-.5 4.5-.5 2 1 3.4 2.4 3.4 2.4-1.7-.2-2.2.6-3 .6z"/><path d="M334.7 247c-1.6.4-3-1.2-3-1.2-2-2.7-1.3-3.6-1.3-3.6l.4.2c.7.6 2 .7 2 .7-3.5-2-1.3-6.5-1.3-6.5.4-.5.6.6.6.6.5 1.3 1.8 2 1.8 2 .7 1 .7 1.4.7 1.4.4-1.6.8-1.2.8-1.2.4 1.3 1.8 2.2 2 3 .4 2.3 0 2.6 0 2.6l-.3 2.4c-1.2-.5-2.3 0-2.3 0zm7.8 5.7c.8-1 0-3 0-3-.3-2.2 3-4.3 3-4.3 1 1.8.8 2.8.8 2.8l3-.8c0 1.4-1.2 3.4-1.2 3.4 2 .6 2.8-.3 2.8-.3-1 4.4-5.3 3.5-5.3 3.5-1.7-1-3-1.3-3-1.3z"/><path d="M335.8 239.7c.3-2.7.8-2.8.8-2.8.3 0 .4 1.2.8 1.4 1.7.7 1.7 2.6 1.7 2.6 0 2-.3 2-.3 2-2.3 0-3-3.3-3-3.3z"/><path d="M343.6 240.2c1-3 .4-3.3.4-3.3-.4 0-1 1-1.5 1.2-2.2 0-3 2-3 2-.7 2.5-.3 2.4-.3 2.4 2.6 1 4-1.3 4.4-2.4zm-7.6-5.6c.2-3 .8-3.2.8-3.2.3 0 .5 1.5 1 1.7 2 1 2 3 2 3 0 2.6-.5 2.4-.5 2.4-2.7 0-3.4-2.6-3.3-3.8z"/><path d="M344.7 235.4c1-3 .4-3.4.4-3.4-.2 0-1 1.3-1.4 1.3-2.2 0-3 2-3 2-.8 2.4-.4 2.4-.4 2.4 2.6 1 4.2-1.2 4.5-2.3zm3.7 8.6c2.5-2 2.3-2.6 2.3-2.6-.3-.2-1.6.4-2 0-1.8-1-3.6 0-3.6 0-2 1.5-1.6 1.7-1.6 1.7 1.5 2.4 4 1.6 5 1z"/><path d="M348.3 245.5c2.4-1 2.3-1.5 2.3-1.5-.2-.2-1.4 0-1.7-.2-1.4-1.2-3-.6-3-.6-2 .7-1.7 1-1.7 1 1 2 3 1.7 4 1.3zM340 231c-1-2.8 2-6.5 2-6.5l1 3c2.2-2.2 4.2-2.5 4.2-2.5v1.8c1.4-.2 2-.5 2-.5-.3 2.2-3 4.5-3 4.5-1.2.7-2.5.5-2.5.5-2 .5-2.6 2-2.6 2 0-1.3-.2 0-1-2.2zm4.2 9.5c1.3-1.7 3.3-1 3.3-1 2 .2 3.4-1.7 3.4-1.7.8-1.4 1.3-1.7 1.3-1.7 0-.3-.5-.3-.5-.3l-1 .3c.7-3 .2-3.2.2-3.2l-.4.2c-.5 1.4-2.5 1.3-2.5 1.3 0-2-.4-1.7-.4-1.7-.3.5-1 .8-1 .8-2 2-2 2.8-2 2.8.2 2.3-.4 4.3-.4 4.3z"/></g><g fill="#00863d"><path d="M344 251.7c0-.3.7-.7 1-1 .6-.2.4 0 .7-.6.2-.4 0-.3.4-.6l-.2 1 1.3-1c.2.4-.3.6-.7 1-.3 0-.6.3-1 .5l-1.7 1.4c1.6-.4 1.3 0 2-.3 2-.2 2.7-2.6 3.3-4-1.3 0-2.5.4-3.4 1-1 .8-1 1.4-1.7 2.7zm-4.6 6.3c0-.3-.4-.7-.6-1l-1-2c-.5-.7-.4-.4-.6-1 .2 0 .5.7.8 1v-1c.3 0 .2.2.2.5 0 1 0 .8.6 2l1.2 2c0-.4-.2-.7-.3-1-.4-1.3.4-3-2.8-4.8l-1-.5c0 1.6.3 4.2 1.8 5l.8.4c.3 0 .5.3.8.4zm-.8-20.2c0-.4-.3-.7-.4-1.2 0-.4 0-.3-.4-.5l-.3-.4.4.3-.5-1-.4-.6c.6 0 1.2 1.6 1.3 2 .4 1.3.4 1.2 1.2 2.2l-.4-.8c0-.7.7-1.6 0-3-.5-1-1.4-1.2-2-2l-.3-.7-.4 1.8c0 1 .2 2.5 1 3.3l1.3.8zm4.2-7.8c0-.2.5-.7.7-1l.8-.6v-.7l.2.5c.2-.2.6-1 1-1.3l-.6 1-1 1-1.4 1.8c.3 0 .5-.3 1-.3 1-.2 1.3-.3 2-1.4.6-1 .8-2.3 1-3.5-1.4.6-3 1.2-3.6 2.5-.3.5-.2 1-.2 2zm-9 13.3c-.4-1-1.5-2.3-1.6-2.8l-.2-1.3c.3 0 .2 0 .2.2 0 0 0 .7.2 1l.5.8c0-.6-.2-.3 0-.8.3.3 0 .8.3 1.4.2.3.4.8.7 1 0-.7.5-2-.4-3.3-.4-.5-.8-.6-1.2-1l-.8-1.3c-.7 1.4-.6 4.3.8 5.2l.7.4c.3 0 .4.2.5.2l.3.3zm6.4-5.6c.6-.5.4-.7 1.8-1.7l.8-.8.8-1c.2.4-.7 1.3-1 1.6h.5c0 .4-.2.2-.7.3-.4.2-1.4 1.3-1.7 1.6.3 0 .5 0 .8-.2.8-.2 1.4 0 2.3-1 .7-1 1-2.2 1.3-3.4-1 .3-2.5 1-3 1.5-1 1-1 1.6-1.3 2.4 0 .2-.3.4-.5.7zm-4.4 8.6c0-.2-.6-.5-.8-.7-.5-.3-.5-.3-1.2-.4l-2-1c.4-.2.5 0 1 .4l.8.3v-.6l.2.3v.3c1 0 .8 0 1.6.6 0-.4 0-.4-.4-.5-.2 0-.2-.2-.4-.5-.3-.3 0 .2-.4-.5-.8-1-1.6-.6-2-.8l-1.5-.5c.3 1.3 1 2.3 1.6 3 .4.2.8.6 1.5.7h2zm-.8 7.1c-.2-.2-.5-.5-1-.7 0-.2-.2 0-.5-.2l-.6-.2h.6l-.4-.3-1-.8c.3-.2.4 0 .5 0 .6.6 1.7 1.5 2.3 1.8l1 .6c0-.5-1-2.3-1.8-2.6l-3.4-1c.2.6 1 2.2 1.4 2.7 1 1.3 1 1 1.8.8h1zm1.7-7.7l-1.3-4.2c.2 0 .2.3.3.8l.3 1 .3-.7c.2.2 0 .6 0 .8-.2.4-.2.3 0 .7l.6 1.7v-1c.2-1 .3-1.5-.2-2.6-.4-.8-1-1.5-1.8-2.3l-.3 1.8c-.2 1 0 2.5.8 3.3.7.5.3 0 1.2 1zm2.5 5.6v-4.5c.2 0 .2.3.2.4v1.4l.4-.7c.2 0 0 .3 0 .5l-.4.8v2l.4-.8c.4-.7 1-1.7.7-2.6l-1-3.4-.8 1.5c-.3.7-.4 1.3-.5 2-.2 1.4.2 1.7.6 2.5l.4.8z"/><path d="M341 232c0-.2.2-2.2 0-2.4v-.4l-.2-.7c.3 0 0 .2.3.5h.2v-.5c0-.4 0-.2.2-.6.2 0 0 0 0 0v.4c0 1.3 0 2.8-.2 4 .2 0 .2-.5.3-.7.4-.7 1-1.8 1-2.6l-.8-3.8-.8 1.5c-.6 1-1 2.6-.7 3.8l.6 1.5zm-10.3 22.3l1 1c.7.5 2.2 1 3 1l1.7-.3-.3-.8-.8.2h-1c-.4 0-.8-.2-1-.3-.7 0-.4 0-1-.2l2 .3c-.5-.3-.4 0-.7-.6.2 0 .8.5 1 .7h1.6v-1c-.8-.3-2-.2-2.7 0-1.6.6-1 .5-2.6.3zm2.1 4.1c0 .3 1.7 2 2 2.3h3.7c-.5 0-1-.4-1.6-.6-.8-.2-1 0-2 0 0-.2.3 0 1-.3-.4 0-1.4-.4-1.5-.4v-.2h.3c1.7.7 2.2 1 3.7 1.5-.5-.3-.6-.5-1-1-1.4-1.8-3-1.2-4.7-1zm12.4-20l.6-1c.2-.6-.2-.6 0-1.4.2 0 0 0 .2.7l.7-1.5c.2.5-1 2.5-1 3l-.4 1c.8-1 2-1.5 2-2.3l.2-4-2 2c-.5 1-.5 2-.3 3.4zm-1.6 22.6c.3 0 .5-.3 1-.4 1.3-.4.7.3 1.6-1l-.2.7c.6-.2.8-.6 1.3-1l-.5.7c-.8.8-1.6.5-2 .7l-1 .5c1-.2 1 0 2 .2 1.7.2 2.2-1.6 2.8-2.6l.4-.8c-1 0-2.3.7-3 1.2-.6.3-.8.5-1.3 1l-.5.4c-.3.2-.5.2-.6.5zm-.2-9.5c.7-.6.5-2 1-2.8 0-.2 0-.3.2-.4l.4-.2c0 .3-.3.5-.4.8l-.3 1v-.2h.2c.4-.7.8-1 1.5-1.3l-.6-2.3-1.2 1c-.3.2-.7.7-1 1.2-.7 1.4.2 2 .2 3.3zm-.4 9.3l1.6-2.4v-1c.2 0 0-.2.3.6.4-.8 0-.7.6-1l-.7 1.4c-.7 1-1 1.4-1.5 2.4l1-1c.2 0 .4-.2.6-.4.3 0 .5-.2.7-.3l.7-3.4c-.6.2-2 1.3-2.6 2-1 1-1 1.4-.7 3.2zm3.4-8.4l2-.2c0 .3-.4.3-1 .3-.8.2-2.4.2-3.3.2.3 0 .6.2 1 .4 0 .2.3.4.6.5.6.3 1.4.3 2 0l2.5-2.3c-1.2.3-.5.4-2.2 0l-1 1s-.3 0-.4.2zm-13.6-4.7c.5 1.2 2 2.5 3.5 2.3.7 0 .8-.3 1.2-.6h-.2v-.2c-1.2-.2-1.3 0-2.5 0l.6-.2-1-.3c-.4 0-.3 0-.7-.3h.4c1.5.4 2 .4 3.4.6 0-.4-1.4-1-2-1-1-.3-1.4.3-2.6-.3zm9.4 12.8l-.5-3c.2 0 .2 0 .3.7l.5 2.8c0-1 .4-1.8 0-3l-1-2c-.2.5-.3 2-.3 2.5 0 1 .3 1.2.8 1.8l.2.2zm4.2-31.5c0-.2.3-.4.4-.6l.5-.3c0 .3-.4.6-.7 1l-.7.7c-.8 1-.8.8-2 1.2 2.4 0 3.7-2.4 4.7-4-2.2.3-1.8.4-2 1 0 .3-.3.6-.3 1z"/><path d="M347 238.6l.8-1c.3-.6.6-.2 1.2-.8l-.8.2 1-1.4c-.5 0-1.8 2-2 2.5l-.8 1c.4-1.3.3-2.5 1-3l3.4-2.3c0 1-.4 2-.8 2.8-.6 1-1.5 1.6-3 2zm-8.6 4.1c0-.5-.8-1-1-1.4l-.4-2c.2 0 .2.5.3.7l.2 1 .3-1c.2.5-.2 1 0 1.5l.7 1c.3-1 .3-2.2-.3-3l-1.6-1.6c-.4.5-.3 2.2 0 3 .3 1 .6 1 1.2 1.4.3 0 .4.2.6.3zm1.4-.2c.5-.5 1.4-1 1.7-1.2l1.2-2c-.3 0-.5.5-.6.8l-.5 1c0-.8.2-.3 0-1-.4.3-.2 1-.6 1.4-.5.3-.5.2-1 .7 0-1 .4-2.2 1.2-2.7l2.4-1.3c.2.8-.5 2.6-1 3.4-.8 1-1.2.8-2 1h-.8zm4.2.3c.7 0 2.4 0 3-.4l.7-.3c0 .3 0 .2-.3.4h1c0 .2.2.2-.5.2-.8 0-1.3.2-2 .3h-2.5c1.6.7 2 1.6 3.7 1 1.5-.6 1.8-1.2 2.8-2.4-2.4.6-2.6-1.4-5 0 0 .3-.7 1-1 1.2z"/><path d="M347.2 244.2c.6 0 .3 0 .8.2-.2.2-1.2 0-1.6 0h-1.7c.6.7 1.4 1 2.7 1 1.2-.2 1.6-.5 2.6-1l-2-.7zm-.7 10.8l-.8-.5c-1-.4-2 0-2.4 0l-1.2-.2c.4.4 1.7.8 2.3 1 1.6.2.5.6 2.2-.4zm.1 1l.5.5h-.4v1l2-.3c-.6-1-1-1.3-1.8-2l-.2 1zm-2.8.7l1.4-1c-.4-.2-1-.2-1.4-.3l-1.3-.5.7.8c.2.3.3.7.6 1zm6.4-19.3c-.6.4-1 1-1.6 1-1 .5-1.8 0-2.3.7 1.4 0 2.3.6 3.5-.5.7-.6 1.3-1.6 1.8-2.4-.2 0-1 .3-1 .5-.2 0-.3.3-.4.4-.2.4 0 0 0 .4zm-4.8 32.8l1 2.2 1.5 1.8 1-.6 1-.4c-.6-.3-.6-.6-1-.6-1 0-.4 0-1.6-.2h1.7c-.6-.5-1-.8-1.6-1l1.5.7v-1c.3 0 0 .6.2 1.2 0 .3.6.6 1 .7.4.2.6 0 1 .3l1.3.4c-.5-.7-.3 0-1-1.7-.4-.7-.8-1-1.3-1.5-1.5-1-3.2-.3-4.8-.3zm1.8-2v-2.6l-.2-2c.2 0 0 0 .2.4v.5c.3-1 .4-.8 1-1.5 0 .2-.6 1-.7 2v2.2c.2 0 .3-.2.4-.3l.3-.7c1.3-2 .5-3 .5-3.5l.4-2-1.7 1.3c-1 1-1.8 2.7-1.2 4 0 .5.3.8.4 1 .2.4.3 1 .5 1.2z"/><path d="M346.5 275.4c.2.2 1.4.5 1.7.6 1 .4 3 .5 3.7-.5.3-.6.5-.7 1-1.2-.8 0-1.3.4-2 .5-.6 0-.6.5-1 1l-.5.2c0-.2.5-.7.8-1h-1.6c0-.3.4-.2 1.2-.2 1.3-.2 1.5-.5 3-.7h.3c-2.2 0-2.7-1.5-5.5.4zM357 274v-1l-1-1.2c.4 0 .5.5 1 .7 0-.5-.3-1.4-.5-2 .3 0 .4.8.5 1 .3 1.4 0 2.4.3 2.8l.6 1c0-1 1-1.6 0-4-.7-1.3-1.3-1.5-2.5-2.4.2.5.3.7.2 1.5 0 .6-.3 1-.3 1.5-.2 1.3.2 1.2.5 1.3l1 .7zm-11.3-2l-.4-1c-1 0-1.2.5-2.6-.4-.3-.2-.3-.2-.5-.6l1.5 1c0-.3-.2-.5-.5-1 0 0 0-.2 0 0h.2l.8 1h1c0-.3-.2-.6-.3-.7l-.4-.6c-.4-.2-.8-.5-1.3-.5-.6 0-1 0-1.5.2l-1.6-.3c0 .4.7 1.3.8 1.5.7 1 2.4 2.2 3.8 1.7l1-.3zm-7.9-7.2h.2c.4.3.8.5 1 1 .5.3.5.5 1 1 1 .8 2 .8 3.4 1 0-.2-.5-.6-.6-.7-1-1-.8-1-1.5-1l-1 .2c0-.2.6-.3 1-.4l-.6-.2c-.5 0-.2 0-.8-.2.2-.3 1.6.2 2.2.7l1.5 1.8-.7-1.6c-.8-1.4-2.8-2-4.2-1.6-.3 0-.8 0-1 .2zm8.9 3.7c-.5-1.7-1.4-2.4-1.6-3.4v-1.3c.4.4-.2.8.8 2.4 0-.4-.2-.6 0-1.3l.2-1.3c0-.3-1.2-1.4-1.5-1.7-.2 1.5-.6 2.8 0 4.3.4 1.5 1.2 1 2.2 2.5z"/><path d="M354.7 276l1-.2-.6-1c-.4-.5-.3-.6 0-1v.7l.3.4.8.7v-1h.3v1l1.2-.3c-.8-1.4-2.3-2-3.7-2.5 0 .4.3 1 .4 1.5 0 .7.3 1 .5 1.6zm-1.7-3l-.7-1c-.3-.8-.3-1.2-1-2-.2 0-.3-.2-.4-.3-.2 0-.4-.2-.5-.3v-.2c.3 0 .8.6 1 .8.5.4 1.5 2.6 2 3.3-.2-.3-.3-.7-.2-1 .3-.8-.6-2.2-1-2.5l-3.3-1.4c.4.3.6.6 1 1.2 0 .5.2 0 1 1 1 1 1 2 2 2.4zm6 0v-.4c.2-.3 0-.2.4-.5l-.2 1-.6 2c.7 0 .7 0 1-.5l.4-1.3v-3l-1 1.2c-.6.7-.3.3 0 1.6zm-10-7c.2 0 .8-.8 1-1 .2.2-.5 1-.6 1-.5.5-.2 0-1 .8 1.5.2 2-1.6 2.6-2.6-.3 0-1.2.3-1.4.5-.2 0-.2 0-.2.3v.3l-.4.7z"/></g><g fill="#ce1126" stroke="#000"><path stroke-width=".24" d="M362.2 283.7l1.7 1-1 2c.7-.2 3.4-1 4.2-1.4-.2-.6-.3-.7-.2-1.5l-.3-1.4-2.2.7c-.8.4-1.5.6-2.3.7zm23.3-.3l-1.8 1 1 2c-.7-.2-3.4-1-4.3-1.4.2-.6.3-.7.2-1.5l.3-1.4 2 .8c1 .3 1.6.5 2.5.6z"/><path stroke-width=".24" d="M368.6 286.5c2-.2 3.8-1.3 3.8-1.3.3.3 2 0 2 0 .6 0 1-.2 1-.2 2 1.3 3.5 1.5 3.5 1.5 1.7 0 1.7-1.5 1.7-1.5 0-1.2-.2-1.2-.2-1.2 1-1.5 0-2.7 0-2.7-.5-.4-3.3.5-3.3.5-1.8.8-2 .4-2 .4-.4-1-2.3-.7-3.2 0-2-.5-2.3-.7-2.3-.7-2-.8-2.4-.3-2.4-.3-.7 1-.4 1.8-.4 1.8v1c-.4 2.6 1.6 2.7 1.6 2.7z"/><path stroke-width=".16" d="M375.4 284.3c4.4 1 4 1.6 4 1.6-.2.4-1.5-.2-1.5-.2-3.5-1.2-2.6-1.5-2.6-1.5zm-2.8 0c-4.4 1-4 1.6-4 1.6.2.4 1.5-.2 1.5-.2 3.5-1.2 2.6-1.5 2.6-1.5z"/><path fill="#aa241e" stroke-width=".16" d="M372.8 281.3c-2 .4-.4 1.8-.3 2.7 0 .4-.5 1.2 0 1.4.5.2 1.5 0 2 0 .7 0 1.2 0 1-1 0-.6-.2-.8-.2-1.7 0-.7 0-1.4-.6-1.5h-2z"/><path fill="none" stroke-width=".16" d="M375.4 282.4c5 0 4.7-.8 4.7-.8m-4.6 2.4c5 .6 4.3 1.3 4.3 1.3m-7.4-1.5c-4.6 1-4.2 1.7-4.2 1.7m3.8-3.2c-4.8.3-4.4-.5-4.4-.5"/></g><path d="M354 276.6c-2.4 1-4 1.4-6.4 2.8-1-1.3-2.2-3.4-3-4.5-.5-.8-1.2-1.5-2-2-1.4-.5-2-.3-2.8.4l-.6-1c-1.2-2.3-2.5-3.3-3.8-5L334 266c0-.2 0-.3-.3-.5.5 1.8 1 3.4 1.2 5.3l-2.3-1.2c-.5-.2-2-.5-2.8-.4l.8.8c1.5 1.3 2.5 3 3.2 5 .6 2.2 2.2 4.5 3.8 6 .3.5 1.3 1.3 2 1.5 1.7.7 1.6 0 2.3-.3 1.5 2.3 2.4 3.5 4 5.3 1.7 2 4.5 2.4 7 1.8l2.6-1c3.2-2 1.7-3.4 1.3-5l6.5-1.7c5.2-1 15-1 21-.2.6 0 6.8 1.7 7.4 2-.5 1-.7 1.6-.6 2.8 0 1 1 1.6 1.8 2 1 .5 1.5.8 2.7 1 1 .3 2 .4 3.2.2 2.3-.4 3.5-1.7 4.5-3 1.7-1.8 2.2-3 3-4.3 0 0 .5.6.8.7.4 0 1.4 0 1.7-.2.8-.3 1.3-1 1.8-1.4 1.7-1.6 3.2-3.7 4-6 .7-2.8 1.8-4 3.8-5.8-2.6 0-3.5.8-5 1.6l.6-2.7c.2-.6.6-1.7.7-2.5l-3.2 3.8-1.6 2c-1 1.5-.8 1.6-1.2 2-3.7-2-5.3 3-7.8 6-4.6-2.5-8.6-3.3-14-4.3-1.2 0-2.3-.3-3.3-.4-7-.8-14.4-.8-21 .2-3.6.5-5.8 1-9 1.8z"/><g fill="#ce1126"><path d="M349.4 287.2c.4-1.2 1-1.5 2-2 3.3-1.5 5-2 8.8-3 2-.7 4.5-1.2 6.7-1.4 1-.2 1.4-.2 3.4-.3 3-.2 4.8-.2 8 0 1.2 0 2.3 0 3.4.3 2.3.3 4.7.7 6.8 1.3 3.4 1 5.7 1.8 8.8 3.2 1.4.7 1.2.7 2 2 1-.7 1.8-2.2 2.3-3.2.3-.5.8-1.2 1-1.8.3-1-.3-1.3-.8-1.7-1.8-1.5-5-2.8-7.8-3.6-11.7-3.3-28-3.5-39.6 0-2.8.7-5.7 2-7.6 3.4l-.7.6c-.7.8.4 2.3.8 3l1 1.7 1.4 1.5z"/><path d="M337.8 276.8c1.3.2 1.8.6 2.7 1.7 2 2.7 2 4.5 5.2 8 .7 1 1.3 1.6 2.4 2 1.3.6 2.6.7 4 .5 1.3 0 2.3-.5 3.3-1 0 0 1.2-.7 1.5-1.2.3-.4.4-1.4.4-1.4-1-.3-2.8 1.6-4 2.4-2 1.3-2.8.8-4.2-.4-1.3-1-1.8-2.3-2.6-3.7-.3-.6-1-1.5-.7-2.4l1.5-1.6-2-3c-.7-1.2-1-2-2-2.7-.7-.5-1.8-1.2-2.7-.7-.7.6-1.2 1.2-1.8 2l-1 1.5z"/><path d="M335.6 271.7c-.3 0-1.4-1-2-1.2l-2.4-.8c.3.4.7.6 1.3 1.5 1.6 2 1.6 3.5 2.8 6 .4.7 1 1.7 1.7 2.4.4.5 1.8 2 2.2 2.2.8.7 1.7.8 2.2.2 0-.4-1-1-1.6-1.4l-2-1.4c-1.4-1.4-.3-3.2.8-4.5l.8-1c.2-.5-1-2-1.7-3l-3-3.5c0 .7.2 1.6.4 2.3.2.5.6 1.8.6 2.2zM357 285l-.5-1.4c-.8 0-4.7 1.8-5.6 2.4-.4.2-1.5 1-1 1.6 1.5 1.6 3.8-.8 5.2-1.8.4-.4 1-.8 2-.8z"/><path d="M342 281.8c-.3 0-.3-.6-1.2-1.2-.3-.3-2.3-1.3-2.6-1.7 0 0-.7-.6-.6-1.2 0-.6.5-.7.5-.7 2 .2 4 4.6 4 4.8zm69-5c-1.3.3-1.8.7-2.6 1.8-2 2.6-2 4.5-5.2 8-.8 1-1.3 1.5-2.5 2-1.2.6-2.4.7-3.8.5-1.4 0-2.4-.4-3.4-1l-1.5-1-.3-1.5c1-.3 2.7 1.6 3.8 2.3 2 1.4 3 1 4.4-.4 1-1 1.6-2.2 2.4-3.7.4-.5 1-1.4.8-2.3l-1.6-1.6 2-3c.7-1.2 1.2-2 2.2-2.7.5-.4 1.7-1 2.5-.6.7.6 1.2 1.2 1.8 2 .5.3.8 1 1 1.4z"/><path d="M413.2 271.8c.4 0 1.5-1 2-1.2l2.5-.8-1.4 1.4c-1.5 2-1.5 3.6-2.7 6-.4.8-1.2 1.8-1.8 2.5l-2 2.2c-1 .6-2 .6-2.4 0 0-.3 1-1 1.6-1.4.8-.4 1.5-.8 2-1.3 1.4-1.5.3-3.2-.8-4.5l-.7-1c.2-1 1-2 1.6-3l3.2-3.5c0 .7-.3 1.6-.4 2.3l-.6 2.2zM391.8 285l.6-1.3c.8 0 4.7 1.8 5.6 2.4.3.3 1.4 1 1 1.7-1.7 1.6-4-.8-5.3-1.8-.5-.5-1-1-2-1z"/><path d="M407 282c.2-.2 0-.7 1-1.3.4-.3 2.4-1.3 2.7-1.7 0 0 .7-.5.6-1.2 0-.5-.5-.6-.5-.6-1.8 0-4 4.5-3.8 4.7z"/></g><path d="M353.5 279.3h-.6l-1 .5c.3.3.2.5.3.7 0 0 0 .3.2.5 0 .3 0 .5.2.8v.7c.2 0 0 .3 0 .3.4 0 .6-.2.8-.3 0 0 .2 0 0 0-.2-.2 0-.5-.2-.6v-.7c0-.2.2 0 .2 0 0 .3.3.4.4.5 0 0 .3.3.5.3.2.2.3.2.5 0-.2 0-.5-.2-.6-.5l-.5-.6c.2-.3.4-.5.4-.8 0-.3 0-.7-.4-.8h-.5zm-.2.3s.3 0 .3.2l.2.6c0 .2 0 .4-.3.4 0 0-.4.3-.5 0l-.2-1s0-.2.3-.2h.3zm1.3-.8l.2.4c0 .3 0 .5.2.7v.5l.2.5v.6c.2 0 0 .3 0 .3l1.8-.6s.2 0 0-.2v-.5s0 .2-.2.3l-.7.4-.2-.3v-.3c0-.2 0-.4-.2-.6h.7s.2.2.3 0v-.4c-.2 0-.2-.3-.3-.3 0 .2 0 .3-.2.4h-.4v-.4s-.2-.4 0-.4c.2-.3.6-.3.8 0h.3l-.3-.6h-.4l-1.4.4zm3.8-1h-.7l-.7.4c-.2 0 .2 0 0 .3.2 0 .2.3.2.5v.4l.3.8v1c.2 0 .5 0 .7-.2.2 0 .2 0 0 0v-.7l-.2-.5c.3 0 .7-.2 1-.4 0-.2.3-.4.3-.7 0-.2 0-.4-.2-.6l-.2-.2h-.4zm.4 0zm-.7.3c.3 0 .5.2.6.4v.6c0 .2 0 .3-.2.3l-.4.2v-.4c-.2 0-.2-.4-.3-.6 0-.2 0-.3.2-.3zm3.1-.9s0 .2.2.3v.4c.2 0 .2.3.2.5v1.1c0 .3-.2.6-.5.5h-.3v-.6l-.2-.6v-.6l-.2-.5s.2-.3 0-.3h-.7c-.2.2 0 .3 0 .4 0 .2 0 .3.2.5v1l.2.4c0 .2 0 .3.2.4.2.3.3.4.5.4.4 0 .8 0 1-.3l.2-.3v-.7c0-.3 0-.5-.2-.7v-1.2h-.5v.2zm2.4-.4h-1c0 .2-.4 0-.4.2 0 0 .2.2 0 .4.2.3.2.7.3 1v1.5c.2 0 0 .3 0 .3h1.2l.7-.3s.2 0 .3-.2v-.4c.2 0 0-.4 0-.6-.2 0-.4 0-.5-.2.2-.2.4-.4.4-.6v-.5l-.5-.2h-.4zm-.5.2c.3 0 .6 0 .7.2v.6c0 .2-.2.2-.3.3 0 .2-.4.3-.4 0v-1zm.4 1.4h.5v1.2l-.6.2c-.2 0-.2-.3-.2-.5v-.8h.2zm1.5-1.9v.8c.2 0 0 .3.2.5v1.7h2v-.7c.2 0 .2-.2 0-.2 0 .2 0 .3-.2.4h-.2c0 .2-.3.2-.4.2 0 0-.3 0-.3-.2v-.6c-.2-.3-.2-.7-.2-1v-.8s.2-.2 0-.2h-.8zm2.2-.3c0 .2.2 0 .2.2v.8l.2 1.5v.6h.8v-.2c-.2 0 0-.2-.2-.3v-1.9c-.2-.2-.2-.3 0-.5v-.2l-1 .2zm3.8 2c-.2 0-.3 0-.4.2 0 .2-.2.2-.4.3-.2 0-.4 0-.5-.3l-.3-.5v-1.3c0-.2 0-.4.2-.5h.6c0 .2.2.4.3.5 0 .2 0 0 0 0 0-.3.2-.4.2-.5l-.4-.2c-.4 0-.8 0-1 .2-.2 0-.3.2-.3.3l-.2.4v1.4l.5.5s.3 0 .5.2c.2 0 .4 0 .6-.2.2 0 .3-.3.4-.4v-.4zm1.2-2.4h-.4v.8c-.2 0-.2.3-.2.4l-.3 1.3s0 .3-.2.5v.2h.7l-.2-.4v-.4h.8v.7h.8c.2 0 0-.3 0-.4l-.3-.7-.4-1c0-.4 0-.7-.2-1 0 0 0-.2-.2-.2zm-.3.7c0 .4 0 .8.3 1.2 0 .2-.2 0-.3.2h-.3v-1.1c.2-.2 0-.4.2-.5zm4.1-.8h-1v3s-.2.3 0 .3h1.3c.2 0 .3-.2.4-.3l.4-.5.2-.6v-.6c0-.2 0-.4-.2-.6l-.2-.4c-.2 0-.3 0-.5-.2h-.4zm0 .2s.3 0 .4.2v.4c.2.2 0 .3.2.5v1s0 .3-.2.5l-.4.2h-.4V276h.4zm2.7-.1c-.2 0-.4 0-.5.2-.2 0-.3.3-.4.4l-.3.8v.7l.2.4c0 .3.2.5.4.6.3 0 .4 0 .6.2.3 0 .6-.2.8-.5l.3-.6v-1.4l-.5-.6c-.2-.2-.3-.2-.5-.2zm0 .2c.2 0 .4.2.4.5.2 0 .2.3.2.5v1.4c0 .2-.2.4-.4.5h-.4c0-.2 0-.4-.2-.5v-2.3l.5-.2zm1.3 3.2h.5s-.2-.2 0-.3c-.2-.3 0-.5 0-.7v-1.1s0-.4.2-.5v.5c0 .2 0 .4.2.6v1.2s0 .4.2.3c.2 0 .2-.2.2-.3l.2-.8c0-.2 0-.4.2-.5 0-.3 0-.6.2-.8v2.2s-.2.2 0 .2h.6c.2 0 .2 0 0 0v-2.9s.2-.3 0-.3h-.7l-.2.6c0 .2 0 .4-.2.6v.6s-.2.2-.2 0v-.9l-.2-.8c0-.2-.3 0-.4-.2h-.4v1.1c0 .6 0 1-.2 1.4v.4l-.3.3v.2zm3 .3h.5s.3.2.3 0c0 0-.2 0 0-.2v-2.5l.3-.2c0-.2 0 0-.2-.2h-.6v.2c.2.2 0 .3 0 .4v2.2s0 .2-.2.3zm1 .3h.7c0-.2-.2-.3 0-.5-.2-.3 0-.5 0-.8v-1.2l.2.4.7 2s0 .2.2.3v-.6l.2-.6v-1c0-.2 0-.4.2-.6 0 0 .3-.2 0-.3 0 0-.3-.2-.4 0v1.9l-.3-.6c0-.2 0-.4-.2-.6 0-.2 0-.3-.2-.5 0-.2 0-.4-.2-.6 0 0-.3 0-.5-.2-.2 0 0 .3 0 .4v2l-.2.5-.2.4zm3-2.8v1.2c-.2.2-.2.4-.2.7v.7l-.2.3c-.2.3 0 .3.2.3h.4s.2 0 0 0v-.9c0-.2 0-.4.2-.5v-1c0-.2 0-.3.2-.4v-.4h-.3s-.2 0-.3-.2zm1 2.3c-.2.2 0 .3 0 .5s0 .4.2.6c0 .2.2.3.4.3 0 .2.4 0 .5 0h.4l.4-.6-.3.2c-.2.2-.5.2-.7 0l-.2-.3v-1.7c0-.2 0-.3.2-.4 0-.3.2-.3.3-.3.3 0 .4 0 .5.2v.4s.2.3.3 0l.2-.4-.3-.3-.4-.2h-.6c-.2 0-.3.2-.4.3l-.3.6v1.1zm3-1.3c0 .5-.3 1-.5 1.3 0 .2 0 .3-.2.5 0 .2 0 .4-.3.6 0 0 0 .4-.2.4s0 .2 0 .2h.5v-.6h.8v1h.5s.3.2.2 0v-1.2c-.2-.2 0-.3 0-.5v-1c-.2-.2 0-.3-.2-.5h-.4zm0 .8v1.4h-.5v-.6l.4-.6v-.2zm1.5 3c0-.2-.2-.3 0-.5v-1.2l.2-.5c0-.2 0 0 0 0l.4 1 .2.6.3 1s0 .3.3.2v-.6c.2 0 0-.3.2-.5 0-.2 0-.5.2-.8 0-.2 0-.5.2-.7 0 0 .3-.3 0-.3l-.4-.2v1.5c0 .2 0 .3-.2.5v-.4l-.3-.7c0-.3 0-.5-.2-.7v-.5l-.6-.3c-.2 0-.3 0-.2.2v1l-.2.8v.6l-.4.5c-.3 0 0 0 .2.2h.3zm3.1-2.1l-.3.7c0 .2-.3.4-.4.6l-.8 1.2s-.2.2 0 .2l.4.2c.2 0 0-.2 0-.3v-.5h.5c.2.2.5.2.5.4v.6c-.2 0-.2 0 0 0 0 .2 0 .2.2.3l.4.2v-3.5h-.4zm0 .6v1.5h-.4c0-.2-.4-.2-.2-.4 0-.2.2-.3.3-.5 0-.3 0-.5.2-.7z" fill="#eac102"/></svg>