<svg xmlns="http://www.w3.org/2000/svg" viewBox="0 0 640 480" version="1"><g fill-rule="evenodd" stroke-width="1pt"><path fill="#ffe800" d="M0 0h640v480H0z"/><path fill="#00148e" d="M0 240h640v240H0z"/><path fill="#da0010" d="M0 360h640v120H0z"/></g><g fill-rule="evenodd"><path d="M269.55 290.834l-72.424 76.485-1.277-1.647 72.42-76.485 1.276 1.643zm50.452 12.5l-94.777 99.908-1.662-1.572 94.777-99.91 1.662 1.574z"/><path d="M478.35 60.236v88.583l17.717 88.58 17.717-88.584v-88.58H478.35z" transform="matrix(-.07 -.07 -.1 .1 265.03 429.55)" stroke="#000" stroke-width="4.104" fill="gray"/><path d="M478.35 60.236v88.583l17.717 88.58 17.717-88.584v-88.58H478.35z" transform="matrix(-.07 -.07 -.1 .1 240.59 390.52)" stroke="#000" stroke-width="4.104" fill="gray"/></g><path d="M301.18 272.84s-17.716 336.61 53.15 336.61 106.3-35.433 106.3-35.433l-.86-185.03-158.59-116.15z" fill-rule="evenodd" transform="matrix(.45 0 0 .64 72.37 -59.76)" stroke="#000" stroke-width="1pt" fill="#ffdf00"/><path d="M344.46 304.2c0 17.717-7.846 269.82 27.587 269.82s88.583-17.717 88.583-17.717l-.86-167.31-115.31-84.79z" fill-rule="evenodd" transform="matrix(.45 0 0 .64 72.37 -59.76)" stroke="#000" stroke-width="1pt" fill="#0000c4"/><path d="M367.52 321.16c0 17.717 4.525 217.42 39.958 217.42h53.15l-.86-149.59-92.248-67.833z" fill-rule="evenodd" transform="matrix(.45 0 0 .64 72.37 -59.76)" stroke="#000" stroke-width="1pt" fill="#e10000"/><path d="M206.202 116.02l72.422 76.485 1.277-1.642-72.42-76.485-1.275 1.642z" fill-rule="evenodd"/><path d="M301.18 272.84s-35.433 336.61 70.866 336.61c88.583 0 88.583-53.15 106.3-53.15l-17.72-124.02-159.45-159.44z" fill-rule="evenodd" stroke="#000" stroke-width="1pt" fill="#ffdf00" transform="matrix(.58 0 0 .62 9.63 -10.18)"/><g stroke="#000"><path d="M269.59 155.24c1.133 0 28.318-94.016 118.94-147.25" transform="matrix(.4 -.03 -.05 .35 135.14 147.37)" stroke-width="2.305" fill="none"/><path d="M421.37-20.327c0 18.133-4.567 31.716-11.328 45.31-5.627-18.125-9.06-27.177-9.06-45.31s6.83-35.114 12.458-48.707c2.23 12.46 7.93 30.574 7.93 48.707z" fill-rule="evenodd" transform="matrix(.14 -.22 .3 .14 175.87 257.36)" stroke-width="1pt" fill="#005b00"/><path d="M454.22-169.28c0 4.066-3.804 7.363-8.495 7.363s-8.496-3.297-8.496-7.363 3.8-7.363 8.492-7.363 8.495 3.297 8.495 7.363z" fill-rule="evenodd" transform="matrix(.18 -.1 .1 .17 177.61 256.68)" stroke-width="1pt" fill="red"/><path d="M421.37-20.327c0 18.133-4.567 31.716-11.328 45.31-5.627-18.125-9.06-27.177-9.06-45.31s6.83-35.114 12.458-48.707c2.23 12.46 7.93 30.574 7.93 48.707z" fill-rule="evenodd" transform="matrix(.18 .12 -.13 .33 181 96.41)" stroke-width="1pt" fill="#005b00"/><path d="M421.37-20.327c0 18.133-4.567 31.716-11.328 45.31-5.627-18.125-9.06-27.177-9.06-45.31s6.83-35.114 12.458-48.707c2.23 12.46 7.93 30.574 7.93 48.707z" fill-rule="evenodd" transform="matrix(.17 -.03 -.03 .33 179.31 159.26)" stroke-width="1pt" fill="#005b00"/><path d="M421.37-20.327c0 18.133-4.567 31.716-11.328 45.31-5.627-18.125-9.06-27.177-9.06-45.31s6.83-35.114 12.458-48.707c2.23 12.46 7.93 30.574 7.93 48.707z" fill-rule="evenodd" transform="matrix(.06 .25 -.17 .2 227.98 45.45)" stroke-width="1pt" fill="#005b00"/><path d="M421.37-20.327c0 18.133-4.567 31.716-11.328 45.31-5.627-18.125-9.06-27.177-9.06-45.31s6.83-35.114 12.458-48.707c2.23 12.46 7.93 30.574 7.93 48.707z" fill-rule="evenodd" transform="matrix(.2 -.2 .2 .24 150.27 241.08)" stroke-width="1pt" fill="#005b00"/><path d="M421.37-20.327c0 18.133-4.567 31.716-11.328 45.31-5.627-18.125-9.06-27.177-9.06-45.31s6.83-35.114 12.458-48.707c2.23 12.46 7.93 30.574 7.93 48.707z" fill-rule="evenodd" transform="matrix(.22 -.22 .25 .2 135.57 282.11)" stroke-width="1pt" fill="#005b00"/><path d="M421.37-20.327c0 18.133-4.567 31.716-11.328 45.31-5.627-18.125-9.06-27.177-9.06-45.31s6.83-35.114 12.458-48.707c2.23 12.46 7.93 30.574 7.93 48.707z" fill-rule="evenodd" transform="matrix(.26 .1 -.2 .32 130.78 147.66)" stroke-width="1pt" fill="#005b00"/><path d="M421.37-20.327c0 18.133-4.567 31.716-11.328 45.31-5.627-18.125-9.06-27.177-9.06-45.31s6.83-35.114 12.458-48.707c2.23 12.46 7.93 30.574 7.93 48.707z" fill-rule="evenodd" transform="matrix(.15 .2 -.32 .22 178.5 103.35)" stroke-width="1pt" fill="#005b00"/><path d="M421.37-20.327c0 18.133-4.567 31.716-11.328 45.31-5.627-18.125-9.06-27.177-9.06-45.31s6.83-35.114 12.458-48.707c2.23 12.46 7.93 30.574 7.93 48.707z" fill-rule="evenodd" transform="matrix(.08 .1 -.14 .16 250.68 102.64)" stroke-width="1pt" fill="#005b00"/><path d="M421.37-20.327c0 18.133-4.567 31.716-11.328 45.31-5.627-18.125-9.06-27.177-9.06-45.31s6.83-35.114 12.458-48.707c2.23 12.46 7.93 30.574 7.93 48.707z" fill-rule="evenodd" transform="matrix(.1 0 -.08 .17 238.09 136.41)" stroke-width="1pt" fill="#005b00"/><path d="M421.37-20.327c0 18.133-4.567 31.716-11.328 45.31-5.627-18.125-9.06-27.177-9.06-45.31s6.83-35.114 12.458-48.707c2.23 12.46 7.93 30.574 7.93 48.707z" fill-rule="evenodd" transform="matrix(0 .14 -.14 .08 287.38 81.13)" stroke-width="1pt" fill="#005b00"/><path d="M421.37-20.327c0 18.133-4.567 31.716-11.328 45.31-5.627-18.125-9.06-27.177-9.06-45.31s6.83-35.114 12.458-48.707c2.23 12.46 7.93 30.574 7.93 48.707z" fill-rule="evenodd" transform="matrix(.07 .1 -.25 .15 220.69 115.6)" stroke-width="1pt" fill="#005b00"/><path d="M421.37-20.327c0 18.133-4.567 31.716-11.328 45.31-5.627-18.125-9.06-27.177-9.06-45.31s6.83-35.114 12.458-48.707c2.23 12.46 7.93 30.574 7.93 48.707z" fill-rule="evenodd" transform="matrix(.13 .22 -.33 .2 207.03 70.11)" stroke-width="1pt" fill="#005b00"/><path d="M269.59 155.24c1.133 0 28.318-94.016 118.94-147.25" transform="matrix(.35 -.2 .14 .28 111.76 227.82)" stroke-width="2.37" fill="none"/><path d="M454.22-169.28c0 4.066-3.804 7.363-8.495 7.363s-8.496-3.297-8.496-7.363 3.8-7.363 8.492-7.363 8.495 3.297 8.495 7.363z" fill-rule="evenodd" transform="matrix(.18 -.1 .1 .17 200.34 224.62)" stroke-width="1pt" fill="red"/><path d="M454.22-169.28c0 4.066-3.804 7.363-8.495 7.363s-8.496-3.297-8.496-7.363 3.8-7.363 8.492-7.363 8.495 3.297 8.495 7.363z" fill-rule="evenodd" transform="matrix(.18 -.1 .1 .17 211.12 218.26)" stroke-width="1pt" fill="red"/><path d="M454.22-169.28c0 4.066-3.804 7.363-8.495 7.363s-8.496-3.297-8.496-7.363 3.8-7.363 8.492-7.363 8.495 3.297 8.495 7.363z" fill-rule="evenodd" transform="matrix(.2 -.1 .07 .13 166.81 232.7)" stroke-width="1pt" fill="red"/><path d="M454.22-169.28c0 4.066-3.804 7.363-8.495 7.363s-8.496-3.297-8.496-7.363 3.8-7.363 8.492-7.363 8.495 3.297 8.495 7.363z" fill-rule="evenodd" transform="matrix(.2 -.1 .07 .13 169.93 231.34)" stroke-width="1pt" fill="red"/><path d="M454.22-169.28c0 4.066-3.804 7.363-8.495 7.363s-8.496-3.297-8.496-7.363 3.8-7.363 8.492-7.363 8.495 3.297 8.495 7.363z" fill-rule="evenodd" transform="matrix(.2 -.1 .07 .13 168.14 234.25)" stroke-width="1pt" fill="red"/><path d="M252.646 167.252c.407.813-.024 1.853-.963 2.322s-2.03.19-2.435-.623.024-1.85.963-2.32 2.03-.19 2.438.624z" fill-rule="evenodd" stroke-width=".298" fill="red"/><path d="M254.936 164.872c.407.813-.024 1.853-.963 2.322s-2.03.19-2.435-.623.024-1.85.963-2.32 2.03-.19 2.438.624z" fill-rule="evenodd" stroke-width=".298" fill="red"/><path d="M255.516 166.022c.407.813-.024 1.853-.963 2.322s-2.03.19-2.435-.623.024-1.85.963-2.32 2.03-.19 2.438.624z" fill-rule="evenodd" stroke-width=".298" fill="red"/></g><path d="M336.61 308.27c0 17.717-35.433 212.6 53.15 265.75 35.433 17.716 88.582-17.717 88.582 0l-17.71-141.74-124.02-124.01z" fill-rule="evenodd" transform="matrix(.58 0 0 .62 9.63 -10.18)" stroke="#000" stroke-width="1pt" fill="#0000c4"/><path d="M372.05 343.7c0 17.717-17.716 159.45 35.433 194.88 35.433 35.433 124.02 25.822 124.02 25.822l-70.87-132.12-88.58-88.58z" fill-rule="evenodd" stroke="#000" stroke-width="1pt" fill="#e10000" transform="matrix(.58 0 0 .62 9.63 -10.18)"/><path d="M183.85 158.08l94.775 99.91 1.662-1.573-94.776-99.91-1.66 1.574z" fill-rule="evenodd"/><path d="M460.63 184.25l17.716 35.433V237.4c-.865-1.305 0 17.716-17.716 17.716-17.717 0-17.717-35.433-17.717-35.433s-17.716 35.433-17.716 70.866 17.716 53.15 17.716 53.15-2.61-36.707 17.717-35.437c20.328 1.27 17.716 17.716 17.716 17.716v35.433h17.717v-141.73l17.717-35.433-27.136-53.15-26.014 53.15z" fill-rule="evenodd" transform="matrix(.14 -.14 .1 .1 86.35 192.15)" stroke="#000" stroke-width="1pt" fill="#cececc"/><path d="M557.82 95.67l-26.323 70.865 17.717 53.15-35.433-17.716 35.437 53.145v35.433h17.716v-35.43l35.434-53.15-35.433 17.716 17.718-53.15-26.83-70.866z" fill-rule="evenodd" transform="matrix(.1 -.16 .14 .1 113.99 183.83)" stroke="#000" stroke-width="1pt" fill="#cececc"/><path d="M422.53 136.96c0 2.068-1.958 3.746-4.37 3.746-2.413 0-4.372-1.678-4.372-3.746s1.96-3.747 4.37-3.747c2.414 0 4.372 1.68 4.372 3.747zm-6.244 7.91c0 35.8 20.917 187.81 22.582 191.56.14 4.44-4.718 6.382-7.077.832-6.55-17.342-20.74-159.91-21.33-193.22-.243-13.734 3.76-14.8 8.327-14.57 3.76.21 8.325 3.725 8.325 7.91 0 4.995-5.83 8.74-10.823 7.492z" fill-rule="evenodd" transform="matrix(.4 0 0 .3 43.8 69.8)" stroke="#000" stroke-width="1pt" fill="#e10000"/><path d="M422.53 136.96c0 2.068-1.958 3.746-4.37 3.746-2.413 0-4.372-1.678-4.372-3.746s1.96-3.747 4.37-3.747c2.414 0 4.372 1.68 4.372 3.747zm-6.244 7.91c31.488 61.414 48.722 166.77 50.387 170.52.14 4.44-4.718 6.382-7.077.832-2.48-3.315-12.667-100.18-49.138-172.18-.244-13.734 3.76-14.8 8.326-14.57 3.76.21 8.325 3.725 8.325 7.91 0 4.995-5.83 8.74-10.827 7.492z" fill-rule="evenodd" transform="matrix(.4 .1 -.1 .3 76 38.2)" stroke="#000" stroke-width="1pt" fill="#0000c4"/><path d="M186.655 151.54c0 1.034-.98 1.873-2.185 1.873-1.207 0-2.186-.84-2.186-1.873s.98-1.873 2.185-1.873 2.183.84 2.183 1.873zm-3.122 3.955c0 17.9 10.458 93.905 11.29 95.78.07 2.22-2.358 3.19-3.538.416-3.275-8.67-10.37-79.952-10.666-96.61-.125-6.864 1.88-7.4 4.16-7.282 1.88.105 4.163 1.863 4.163 3.955 0 2.5-2.915 4.37-5.412 3.747z" fill-rule="evenodd" stroke="#000" stroke-width=".5pt" fill="#e10000"/><path d="M422.53 136.96c0 2.068-1.958 3.746-4.37 3.746-2.413 0-4.372-1.678-4.372-3.746s1.96-3.747 4.37-3.747c2.414 0 4.372 1.68 4.372 3.747zm-6.244 7.91c31.488 61.414 48.722 166.77 50.387 170.52.14 4.44-4.718 6.382-7.077.832-2.48-3.315-12.667-100.18-49.138-172.18-.244-13.734 3.76-14.8 8.326-14.57 3.76.21 8.325 3.725 8.325 7.91 0 4.995-5.83 8.74-10.827 7.492z" fill-rule="evenodd" transform="matrix(.5 .1 -.2 .5 16.7 31.6)" stroke="#000" stroke-width="1pt" fill="#0000c4"/><g fill-rule="evenodd"><path d="M370.454 290.834l72.423 76.485 1.277-1.647-72.423-76.485-1.273 1.643zM320 303.334l94.778 99.908 1.662-1.572-94.777-99.91-1.662 1.574z"/><path d="M428.86 387.79l8.857 8.857 10.63 7.086-7.087-10.63-8.858-8.858-3.543 3.543zm24.4-39.1l8.857 8.857 10.63 7.086-7.087-10.63-8.858-8.858-3.544 3.543z" stroke="#000" stroke-width=".58" fill="gray"/></g><g fill-rule="evenodd" stroke-width="1pt"><path d="M301.18 272.84s-17.716 336.61 53.15 336.61 106.3-35.433 106.3-35.433l-.86-185.03-158.59-116.15z" transform="matrix(-.5 0 0 .6 567.6 -59.8)" stroke="#000" fill="#ffdf00"/><path d="M344.46 304.2c0 17.717-7.846 269.82 27.587 269.82s88.583-17.717 88.583-17.717l-.86-167.31-115.31-84.79z" transform="matrix(-.5 0 0 .6 567.6 -59.8)" stroke="#000" fill="#0000c4"/><path d="M367.52 321.16c0 17.717 4.525 217.42 39.958 217.42h53.15l-.86-149.59-92.248-67.833z" transform="matrix(-.5 0 0 .6 567.6 -59.8)" stroke="#000" fill="#e10000"/><path d="M433.814 116.02l-72.423 76.485-1.273-1.642 72.423-76.485 1.276 1.642z"/><g stroke="#000" fill="#005b00"><path d="M428.17-16.928s81.556 90.618 111.01 154.05c29.45 63.432 54.37 156.32 54.37 156.32s2.266-86.086-36.246-163.11c-52.1-97.42-131.4-142.73-129.13-147.26z" transform="matrix(.2 -.1 .1 .3 309.5 211)"/><path d="M428.17-16.928s81.556 90.618 111.01 154.05c29.45 63.432 54.37 156.32 54.37 156.32s2.266-86.086-36.246-163.11c-52.1-97.42-131.4-142.73-129.13-147.26z" transform="matrix(.2 -.1 .1 .4 291.5 182.6)"/><path d="M428.17-16.928s81.556 90.618 111.01 154.05c29.45 63.432 54.37 156.32 54.37 156.32s2.266-86.086-36.246-163.11c-52.1-97.42-131.4-142.73-129.13-147.26z" transform="matrix(.2 .1 0 .4 296.5 69.4)"/><path d="M428.17-16.928s81.556 90.618 111.01 154.05c29.45 63.432 54.37 156.32 54.37 156.32s2.266-86.086-36.246-163.11c-52.1-97.42-131.4-142.73-129.13-147.26z" transform="matrix(.3 0 0 .4 274.4 114.9)"/><path d="M428.17-16.928s81.556 90.618 111.01 154.05c29.45 63.432 54.37 156.32 54.37 156.32s2.266-86.086-36.246-163.11c-52.1-97.42-131.4-142.73-129.13-147.26z" transform="matrix(.2 .2 0 .3 330 67)"/><path d="M428.17-16.928s81.556 90.618 111.01 154.05c29.45 63.432 54.37 156.32 54.37 156.32s2.266-86.086-36.246-163.11c-52.1-97.42-131.4-142.73-129.13-147.26z" transform="matrix(.2 0 0 .4 280.6 141.9)"/><path d="M428.17-16.928s81.556 90.618 111.01 154.05c29.45 63.432 54.37 156.32 54.37 156.32s2.266-86.086-36.246-163.11c-52.1-97.42-131.4-142.73-129.13-147.26z" transform="matrix(.2 -.1 .1 .4 290.1 196.8)"/><path d="M428.17-16.928s81.556 90.618 111.01 154.05c29.45 63.432 54.37 156.32 54.37 156.32s2.266-86.086-36.246-163.11c-52.1-97.42-131.4-142.73-129.13-147.26z" transform="matrix(.2 0 .1 .4 292.7 166.8)"/><path d="M428.17-16.928s81.556 90.618 111.01 154.05c29.45 63.432 54.37 156.32 54.37 156.32s2.266-86.086-36.246-163.11c-52.1-97.42-131.4-142.73-129.13-147.26z" transform="matrix(.2 .1 -.1 .4 305.1 65.5)"/><path d="M428.17-16.928s81.556 90.618 111.01 154.05c29.45 63.432 54.37 156.32 54.37 156.32s2.266-86.086-36.246-163.11c-52.1-97.42-131.4-142.73-129.13-147.26z" transform="matrix(.2 .1 0 .4 278.9 97.7)"/><path d="M428.17-16.928s81.556 90.618 111.01 154.05c29.45 63.432 54.37 156.32 54.37 156.32s2.266-86.086-36.246-163.11c-52.1-97.42-131.4-142.73-129.13-147.26z" transform="matrix(.2 .2 -.1 .3 339 70)"/><path d="M428.17-16.928s81.556 90.618 111.01 154.05c29.45 63.432 54.37 156.32 54.37 156.32s2.266-86.086-36.246-163.11c-52.1-97.42-131.4-142.73-129.13-147.26z" transform="matrix(.2 0 0 .4 276.4 128)"/></g><path d="M449.692 153.504s21.26 201.966-42.52 201.966c-53.15 0-53.15-31.89-63.78-31.89l10.632-74.412 95.67-95.664z" stroke="#000" fill="#ffdf00" stroke-width=".8"/><path d="M428.434 174.762c0 10.63 21.26 127.56-31.89 159.45-21.26 10.63-53.15-10.63-53.15 0l10.627-85.044 74.414-74.406z" stroke="#000" fill="#0000c4" stroke-width=".8"/><path d="M407.17 196.02c0 10.63 10.63 95.67-21.26 116.928-21.26 21.26-74.412 15.493-74.412 15.493l42.522-79.27 53.148-53.15z" stroke="#000" fill="#e10000" stroke-width=".8"/><path d="M456.172 158.08l-94.777 99.91-1.66-1.573 94.775-99.91 1.662 1.574z"/><path d="M489.212 164.562l-5.315 1.772-1.772 1.77c.217-.043-1.77 1.773 0 3.545 1.772 1.77 5.315-1.774 5.315-1.774s-1.77 5.315-5.315 8.858-7.086 3.544-7.086 3.544 3.93-3.41 1.77-5.317c-2.16-1.904-3.544 0-3.544 0l-3.543 3.545-1.772-1.772 14.174-14.173 1.772-5.315 8.028-2.6-2.713 7.915z" stroke="#000" fill="#cececc" stroke-width=".189"/><path d="M557.82 95.67l-26.323 70.865 17.717 53.15-35.433-17.716 35.437 53.145v35.433h17.716v-35.43l35.434-53.15-35.433 17.716 17.718-53.15-26.83-70.866z" transform="matrix(-.1 -.2 -.1 .1 526 183.8)" stroke="#000" fill="#cececc"/><path d="M422.53 136.96c0 2.068-1.958 3.746-4.37 3.746-2.413 0-4.372-1.678-4.372-3.746s1.96-3.747 4.37-3.747c2.414 0 4.372 1.68 4.372 3.747zm-6.244 7.91c0 35.8 20.917 187.81 22.582 191.56.14 4.44-4.718 6.382-7.077.832-6.55-17.342-20.74-159.91-21.33-193.22-.243-13.734 3.76-14.8 8.327-14.57 3.76.21 8.325 3.725 8.325 7.91 0 4.995-5.83 8.74-10.823 7.492z" transform="matrix(-.4 0 0 .3 596.3 69.8)" stroke="#000" fill="#e10000"/><path d="M422.53 136.96c0 2.068-1.958 3.746-4.37 3.746-2.413 0-4.372-1.678-4.372-3.746s1.96-3.747 4.37-3.747c2.414 0 4.372 1.68 4.372 3.747zm-6.244 7.91c31.488 61.414 48.722 166.77 50.387 170.52.14 4.44-4.718 6.382-7.077.832-2.48-3.315-12.667-100.18-49.138-172.18-.244-13.734 3.76-14.8 8.326-14.57 3.76.21 8.325 3.725 8.325 7.91 0 4.995-5.83 8.74-10.827 7.492z" transform="matrix(-.4 .1 .1 .3 564 38.2)" stroke="#000" fill="#0000c4"/><path d="M453.345 151.54c0 1.034.98 1.873 2.185 1.873 1.207 0 2.186-.84 2.186-1.873s-.98-1.873-2.185-1.873-2.183.84-2.183 1.873zm3.122 3.955c0 17.9-10.458 93.905-11.29 95.78-.07 2.22 2.358 3.19 3.538.416 3.275-8.67 10.37-79.952 10.666-96.61.125-6.864-1.88-7.4-4.16-7.282-1.88.105-4.163 1.863-4.163 3.955 0 2.5 2.915 4.37 5.412 3.747z" stroke="#000" fill="#e10000" stroke-width=".5pt"/><path d="M422.53 136.96c0 2.068-1.958 3.746-4.37 3.746-2.413 0-4.372-1.678-4.372-3.746s1.96-3.747 4.37-3.747c2.414 0 4.372 1.68 4.372 3.747zm-6.244 7.91c31.488 61.414 48.722 166.77 50.387 170.52.14 4.44-4.718 6.382-7.077.832-2.48-3.315-12.667-100.18-49.138-172.18-.244-13.734 3.76-14.8 8.326-14.57 3.76.21 8.325 3.725 8.325 7.91 0 4.995-5.83 8.74-10.827 7.492z" transform="matrix(-.5 .1 .2 .5 623.3 31.6)" stroke="#000" fill="#0000c4"/></g><g fill-rule="evenodd" stroke="#000" stroke-width="1pt"><path d="M296.61 408.618c10.63 6.39 22.254 4.96 31.89 0V323.58h-21.26c10.63 31.89 10.63 63.78-10.63 85.038z" fill="#e10000" stroke-width=".8"/><path d="M513.78 609.45c0 88.582-42.466 108.27-42.466 125.98 17.716 0 29.465-8.248 42.466-19.685 17.716-17.717 19.426-107.68 17.716-106.3H513.78z" transform="matrix(.3 0 0 .7 123.5 -89.9)" fill="#0000c4"/><path d="M478.35 609.45c-.81 51.77-44.794 99.64-36.497 110.24 9.474 9.475 36.497-21.654 71.93-3.937 17.717-17.717 19.427-107.68 17.717-106.3h-53.15z" transform="matrix(.3 0 0 .7 123.5 -89.9)" fill="#0000c4"/><path d="M513.78 609.45c0 88.582-40.696 94.47-40.696 118.09 17.717 0 40.603-12.912 40.696-11.79 17.716-17.718 19.426-107.68 17.716-106.3H513.78z" transform="matrix(.3 0 0 .5 112.5 51)" fill="#ffdf00"/><path d="M478.35 609.45c-.81 51.77-43.73 95.702-35.433 106.3 9.474 9.475 35.433-17.717 70.867 0 17.716-17.717 19.426-107.68 17.716-106.3h-53.15z" transform="matrix(.3 0 0 .5 112.5 51)" fill="#ffdf00"/><path d="M343.39 408.618c-10.63 6.39-22.254 4.95-31.89-.01v-85.03h21.26c-10.63 31.89-10.63 63.78 10.63 85.037z" fill="#e10000" stroke-width=".8"/><path d="M513.78 609.45c0 88.582-42.466 108.27-42.466 125.98 17.716 0 29.465-8.248 42.466-19.685 17.716-17.717 19.426-107.68 17.716-106.3H513.78z" transform="matrix(-.3 0 0 .7 516.5 -89.9)" fill="#0000c4"/><path d="M478.35 609.45c-.81 51.77-44.794 99.64-36.497 110.24 9.474 9.475 36.497-21.654 71.93-3.937 17.717-17.717 19.427-107.68 17.717-106.3h-53.15z" transform="matrix(-.3 0 0 .7 516.5 -89.9)" fill="#0000c4"/><path d="M513.78 609.45c0 88.582-40.696 94.47-40.696 118.09 17.717 0 40.603-12.912 40.696-11.79 17.716-17.718 19.426-107.68 17.716-106.3H513.78z" transform="matrix(-.3 0 0 .5 527.5 51)" fill="#ffdf00"/><path d="M478.35 609.45c-.81 51.77-43.73 95.702-35.433 106.3 9.474 9.475 35.433-17.717 70.867 0 17.716-17.717 19.426-107.68 17.716-106.3h-53.15z" transform="matrix(-.3 0 0 .5 527.5 51)" fill="#ffdf00"/></g><g stroke="#000" fill-rule="evenodd"><path d="M198.56 77.952l-89.676 35.434 89.676 35.434 44.837-17.717 22.42 17.717 22.418 35.433 22.42-35.433 22.418-17.717 1201.9-.002V95.67l-1201.9.002-22.42-17.718c0-17.716 4.704-35.433 22.42-35.433l89.675-.002c0-17.716-44.838-53.15-134.51-53.15-89.675 0-134.51 35.434-134.51 53.15l89.675.002c17.716 0 22.42 17.715 22.42 35.43l-22.44 17.718-44.84-17.717z" transform="matrix(.1 0 0 .2 217.8 324.4)" stroke-width="4.467" fill="#908f8a"/><path stroke-width=".551" fill="#b74d00" d="M277.405 363.3h100.983v5.316H277.405z"/><path stroke-width=".551" fill="#b74d00" d="M277.405 357.987h100.983v5.315H277.405zm0-5.316h100.983v5.317H277.405z"/><path stroke-width=".551" fill="#b74d00" d="M277.405 347.357h100.983v5.315H277.405zm0-5.316l100.983.003v5.315H277.405z"/><path stroke-width=".551" fill="#b74d00" d="M277.405 336.727h100.983v5.315H277.405zm0-5.315h100.983v5.315H277.405z"/><path d="M298.87 333.27l41.34 37.207h5.905l-41.34-37.206h-5.906z" stroke-width=".976" fill="#908f8a"/><path d="M298.87 364.13l41.34-37.207h5.905l-41.34 37.206h-5.906z" stroke-width=".976" fill="#908f8a"/><path d="M287.16 333.27v37.207h5.315V333.27h-5.315z" stroke-width=".926" fill="#908f8a"/><path d="M343.17 333.27l41.34 37.207h5.905l-41.34-37.206h-5.906z" stroke-width=".976" fill="#908f8a"/><path d="M343.17 364.13l41.34-37.207h5.905l-41.34 37.206h-5.906z" stroke-width=".976" fill="#908f8a"/><path d="M365.96 333.27v37.207h5.315V333.27h-5.315zm-34.5 0v37.207h5.315V333.27h-5.315zm-9.8 0v37.207h5.315V333.27h-5.315z" stroke-width=".926" fill="#908f8a"/></g><g stroke="#000" stroke-width=".8" fill="#ffdf00" fill-rule="evenodd"><path d="M402.906 227.91c0 52.81-33.336 95.67-74.412 95.67-41.074 0-74.412-42.86-74.412-95.67s33.336-95.67 74.412-95.67c41.074 0 74.412 42.86 74.412 95.67zm-10.63 0c0 46.942-28.573 85.038-63.78 85.038-35.206 0-63.78-38.097-63.78-85.038 0-46.942 28.573-85.038 63.78-85.038 35.206 0 63.78 38.098 63.78 85.038z"/><path d="M357.45 139.764c-8.902-4.843-18.686-7.522-28.955-7.522s-20.053 2.68-28.954 7.522l4.138 9.794c7.63-4.305 16.017-6.687 24.818-6.687s17.19 2.383 24.82 6.688l4.135-9.794zm.2 189.572c-8.902 4.843-18.686 7.522-28.955 7.522s-20.053-2.68-28.954-7.522l4.138-9.794c7.63 4.305 16.017 6.687 24.818 6.687s17.19-2.383 24.82-6.688l4.135 9.794z"/></g><path d="M379.554 235.867c0 48.532-27.603 87.873-61.654 87.873-34.05 0-61.654-39.343-61.654-87.873 0-48.532 27.603-87.873 61.654-87.873 34.05 0 61.654 39.343 61.654 87.873z" fill-rule="evenodd" fill="#a7cfff"/><path d="M392.28 227.91c.68 15.995-2.78 23.78-7.134 40.414-1.147 1.788-6.58-3.923-9.868-6.742s-4.687 2.544-8.722-1.828c-4.035-4.37-6.63 1.235-9.59-2.457s-30.78-4.234-30.82-4.552c2.754-1.365 16.962.09 14.685-6.716-2.58-7.034-18.654-.21-20.812-9.22-1.464-8.944-32.14-9.326-34.332-11.535.867 3.4 23.838 4.83 23.29 13.542-.5 3.55-22.617 4.588-24.75 7.592-1.827 3.776 17.357-1.025 18.07 3.62-.047 1.91-2.824.04-12.815 2.992-4.995 1.476 9.273 6.198 3.847 8.782-5.427 2.585-16.956 3.713-16.46 4.8 1.764 5.344 26.816 11.72 24.32 12.638-8.852 3.936-13.53 6.523-17.775 8.79-11.543-15.39-18.687-36.65-18.687-60.12 19.03-6.842 14.98-8.24 50.187-8.24s46.788 1.398 77.37 8.24z" fill-rule="evenodd" stroke="#000" stroke-width=".8" fill="#afff7b"/><path d="M392.28 227.91c-4.842 0-9.872 2.04-15.042 2.04s-10.48-2.04-15.88-2.04-11.572 2.72-17.107 2.72c-5.532 0-10.43-2.72-16.003-2.72s-11.14 2.04-16.653 2.04-10.973-2.04-16.33-2.04-10.615 2.04-15.72 2.04-10.063-2.04-14.82-2.04c0-11.737 1.785-22.92 5.014-33.09 16.246 1.2 6.626-9.43 16.246-9.43 5.193 0 10.46 1.115 15.143 5.872 1.468 0 8.688-6.823 16.747-5.872 8.06.95 5.095 16.363 15.822 17.182 5.438 4.078 8.636 6.68 16.068 8.323 10.63.964 41.01-1.5 41.222-.116a112.926 112.926 0 0 1 1.296 17.13z" fill-rule="evenodd" stroke="#000" stroke-width=".8" fill="#fff"/><path d="M549.85 473.94c0-5.664 13.512-9.462 13.512-18.524s-11.914-9.35-12.38-17.86c-.2-3.46 10.32-7.046 14.915-7.335s8.493 7.42 8.493 9.12-4.662-4.19-8.578-4.375-12.313.63-12.313 2.33c0 3.4 14.85 7.598 13.714 18.925-1.132 11.326-12.71 14.656-12.71 18.054s5.056 12.86 5.056 12.86-9.712-7.53-9.712-13.192z" fill-rule="evenodd" transform="matrix(.2 0 0 .5 217.2 59.5)" stroke="#000" stroke-width="1pt"/><path d="M549.85 473.94c0-5.664 13.512-9.462 13.512-18.524s-11.95-9.348-12.38-17.86c-.946-3.962 11.814-6.544 16.41-6.833s9.985 7.92 9.985 9.62-5.41-5.195-9.325-5.38-14.553.63-14.553 2.33c0 3.398 14.85 7.597 13.714 18.924-1.132 11.327-12.71 14.657-12.71 18.055s5.056 12.86 5.056 12.86-9.712-7.53-9.712-13.192z" fill-rule="evenodd" transform="matrix(-.2 0 0 .5 445.8 59.1)" stroke="#000" stroke-width="1pt"/><path d="M332.965 264.846c0 1.333-.65 2.413-1.454 2.413-.8 0-1.45-1.08-1.45-2.417s.65-2.413 1.454-2.413c.804 0 1.455 1.08 1.455 2.414zm16.95 8.964h.466v19.617h-.46zm4.183-1.487h.464v19.616h-.464z" fill-rule="evenodd"/><path fill-rule="evenodd" d="M352.597 281.23l.004-.493 3.98.684-.003.498z"/><path d="M305.356 277.342s15.63 6.797 19.03 10.874c3.398 4.08 2.038 4.078 2.038 4.078l34.662 1.36c0-2.04 6.116-2.04 7.476-6.797 1.36-4.758 1.36-6.117 1.36-6.117l-10.875 3.4.68-6.118h-9.515l-1.36 6.117-20.39-.68 1.36-16.314-4.077.678-.68 15.633c-.68 0-19.032-4.758-19.71-6.117z" fill-rule="evenodd" stroke="#000" stroke-width=".8" fill="#b74d00"/><path d="M273.918 179.568s22.587-6.728 55.266-6.248 55.266 7.69 54.786 7.69-6.248-11.054-6.248-11.054-23.068-6.247-49.02-6.728c-25.95-.48-48.54 4.806-48.057 5.286l-6.727 11.054z" fill-rule="evenodd" stroke="#fede00" stroke-width=".8" fill="#fede00"/><path fill-rule="evenodd" fill="#38a9f9" d="M306.072 169.855l13.562-.262.137 7.9-13.56.264zm-31.297 4.3l-4.783 7.784 16.165-1.995-1.297-7.783-10.085 1.99zm13.778-2.995l13.518-1.187.62 7.876-13.513 1.184zm48.837-.806l-13.538-.91-.475 7.888 13.537.91zm29.182 4.953l4.918 9.69-14.642-3.614 1.63-7.714 8.094 1.634zm-11.736-2.817l-13.453-1.83-.957 7.837 13.453 1.832z"/><path fill-rule="evenodd" stroke="#000" stroke-width=".8" fill="#ffdf00" d="M329.184 183.894l-1.548-8.082-4.524 6.876 1.662-8.058-6.804 4.62 4.62-6.81-8.058 1.668 6.87-4.524-8.082-1.548 8.082-1.548-6.87-4.518 8.058 1.662-4.62-6.81 6.804 4.62-1.662-8.058 4.524 6.876 1.548-8.082 1.542 8.082 4.524-6.876-1.662 8.058 6.81-4.62-4.626 6.81 8.064-1.662-6.876 4.518 8.082 1.548-8.082 1.548 6.876 4.524-8.064-1.668 4.626 6.81-6.81-4.62 1.662 8.058-4.524-6.876z"/><path d="M547.05 293.86c0 9.29-6.634 16.82-14.818 16.82s-14.818-7.53-14.818-16.82 6.634-16.82 14.818-16.82 14.818 7.53 14.818 16.82z" fill-rule="evenodd" transform="matrix(.6 0 0 .5 18.3 21.8)" stroke="#000" stroke-width="1pt" fill="#ffdf00"/><path d="M320.676 170.552c0 .545-1.257.988-2.807.988s-2.81-.443-2.81-.988 1.256-.988 2.806-.988 2.806.442 2.806.988zm6.08-.002c0 .547-.944.99-2.106.99s-2.105-.443-2.105-.99c0-.544.942-.987 2.105-.987s2.105.443 2.105.988z" fill-rule="evenodd"/><path d="M350.53 163.43l.64.32c-1.52-.76-.822-.476 1.603 1.602 1.336-.776 1.576-1.452 2.403-2.403" stroke="#000" stroke-width=".843" fill="none"/><path d="M325.398 172.362l.48.48c-1.14-1.14-.674-.596 1.923.962 2.418.326 4.857-.718 6.25-2.403" stroke="#000" stroke-width=".8" fill="none"/><path d="M281.395 194.854s.93 7.945-5.11 17.877c-6.04 9.936-5.11 6.46-5.11 6.46s2.787 5.46 2.323 5.46-4.646-4.964-4.646-4.964l-5.11 5.462s4.646-8.442 4.18-8.442-1.393-2.98-1.393-2.98l3.712-1.49s5.575-10.428 5.575-9.93-16.725 11.42-16.725 11.42l22.3-18.87zm3.718 2.982c-.465 0 2.322 7.946 4.645 11.918 2.323 3.973 2.323 8.94 2.323 8.94l7.9 3.972-10.22-15.394 6.505 2.482-11.15-11.918zm0 20.857s5.574 5.96 6.04 7.945.463 6.456.463 6.456l-2.322-4.966-3.252 4.47s2.323-6.953 1.858-7.45-3.717 2.484-3.717 2.484 1.394-3.973 1.394-4.47 0-2.98-.464-4.47zm-27.875 13.9c1.858-1.49 5.574-2.482 5.574-2.482s-2.323 3.976-2.787 3.976-1.858 0-2.787-1.49zm64.107-21.848s12.078 7.45 12.078 7.946-7.897-3.473-7.897-3.473l-4.18-4.47zm-21.83-15.395c.93.497 17.652 14.4 17.187 14.4s-7.432-3.972-7.432-3.475v3.476l-3.717-7.942-.93 2.98-5.11-9.435zm4.175 22.345l4.646 9.435 4.645-.993s-8.822-8.442-9.29-8.442zm14.407-5.958c0 1.49.465 8.938.465 8.938s2.787 2.483 2.787 1.987-2.79-10.43-3.256-10.925z" fill-rule="evenodd" fill="#b7e1ff"/><path d="M182.612 89.522s20.98-11.61 44.87-20.254c23.886-8.644 50.68-14.325 54.222-14.325 7.077 0 19.21 17.783 21.233 17.783 2.022 0 10.11-4.94 20.223-4.94s16.178 7.904 18.2 7.904h18.2c2.023 0-6.066-19.76 0-18.77 3.034.493 28.817 4.445 52.833 12.225 24.014 7.78 58.103 21.515 58.103 21.515s-55.714 7.44-70.488 5.24c-2.022.988-.1 13.07-2.933 7.754-4.656-1.063-21.744-3.727-24.778-3.727s-8.69 3.427-16.78 5.402c-8.088 1.973-18.2 4.94-18.2 4.94l13.146 20.744-16.178 7.903s-10.11-23.71-14.156-23.71-6.07 16.794-11.126 15.806c-5.056-.988-7.078-15.808-11.123-19.76-4.043-3.95-25.367-5.39-33.457-7.366-8.09-1.975-21.144-3.5-28.222-5.476-7.077-1.975-14.154 4.94-17.19 4.94-3.03 0 4.047-5.927 1.013-6.915s-5.055 2.964-7.078 2.964c-2.022 0-23.256-3.953-25.278-4.94-2.023-.99 5.055-4.94 3.033-4.94h-8.09z" fill-rule="evenodd" fill="#984000"/><path d="M462.91-64.94c0 21.15-20.5 38.298-45.79 38.298S371.327-43.79 371.327-64.94s20.5-38.298 45.79-38.298S462.91-86.09 462.91-64.94z" fill-rule="evenodd" transform="matrix(.2 0 0 .3 231.6 96.5)" stroke="#772600" stroke-width="3.706" fill="gray"/><path d="M290.822 82.716c1.998-1.997 4.496-4.994 10.99-4.994 1.5-.5 1.5-3.498 4.995-3.498 3.497 0 2.498 2.997 4.996 3.996 2.497 1 22.98-1 22.98-1s1.997 1.5 1.997 3.498c0 1.998-1.5 3.497-1.998 3.497s-20.48-1.498-21.98-1c-1.5.5-2.498 1-5.995 1-3.496 0-4.496-3.496-6.993-3.496-2.498 0-4.996-.5-8.992 1.996z" fill-rule="evenodd" stroke="#772600" stroke-width="1.575" fill="#984000"/><path d="M351.764 81.92h7.993c2.87.035 3.86.902 6.494 1h6.995c2.542-.094 3.885-.69 6.494-1 4.35-.052 2.865-.39 1.997-2.996-.788-1.97-.885-2.883-1.998-3.997-.42-2.383-1.398-3.23-1.5-5.994-.458-2.108-1.3-3.525-.5-5.994 1.153 1.692 1.617 2.39 4.497 2.496 3.013 0 4.18-.062 5.994 1 1.4 1.466 3.267.998 5.996.998 2.303.42 2.688 1.593 4.496 2.497 2.13 1.18 3.51 1.5 6.494 1.5 2.39.426 4.464.773 5.994 1.498 1.275 1.523 3.286 1.9 5.995 1.997 1.515 0 2.685-.157 3.996-.5 2.304.112 4.643 0 7.494 0 1.85 2.164 2.276 2.96 5.495 2.998 2.2 1.546 4.057 1.81 5.994 2.498h7.492c2.68.207 3.537 1.306 5.994 2 2.434 1.13 4.716 1.905 6.494 2.5 1.767.382 4.072.497 6.494.497 1.855.953 4.083 1.038 5.495 1.998 2.067.443 4.89.965 6.494 1.5 2.645.35 3.656 1.18 5.994 1.497 2.013.575-.665 1.068-1.996 1.5-2.948-.11-3.16-1.185-5.994-1.5-1.508-.882-3.793-.764-5.996-1.5h-.5c1.98 1.172 3.885 1.928 2.997 3.997-2.545 0-4.607-.33-6.99-.5-2.516-.485-3.67-1-6.495-1 2.82-.68 3.557.08 5.495 1 .718 2.418-.82 1.498-3.498 1.498-2.283-.82-3.652-1.796-6.494-2h-5.994c2.967.11 3.592 1.23 5.494 2.5.156.776-.04.74-1.498.998-1.548-1.343-3.567-1.804-5.995-2.498-2.364-.084-4.865-.29-6.993-1-1.46-.09-1.235-1.852 1.998 1 1.96 1.153 2.65 2.084 2.498 2.997-2.573-.643-3.848-1.674-5.495-2.497-2.32-.857-4.24-1-6.994-1-2.585-.68.266-1.072 1.996 1.5 3.714 2.63-.49 1.5-1.998.998-2.253-.643-4.586-1.555-6.495-1.998-1.513-.432-2.832-.856-4.495-1 2.59.237 3.47 1.148 4.495 2.998 2.627 1.81-.115.93-2.497.5-1.52-1.32-3.447-1.997-4.496-3.497-2.505-1.253-2.57-2.694-1 .5.41 1.022.334 3.24.5 3.496-1.84-1.987-1.448-2.497-3.497-2.497-1.39-.974-3.45-1.73-4.496-2.998-1.93-.18-2.053-.87-3.997-1.5 1.602 1.883 3.717 3.745 4.995 5.496 2.28 1.272 2.91 2.417 4.497 3.496.642 1.092 2.37 1.997.5.5-2.144-2.113-3.74-2.6-6.995-3.996-1.845-1.488-2.51-2.114-4.496-3.497-2.7-.87-1.65-1.362 0 1.5 1.897 1.73 3.35 3.67 4.997 4.995 1.13 1.473 3.04 3.036 4.496 3.997.45.675 1.797.8 0 1-1.527-1.38-3.72-2.26-5.495-3.498-2.49-.702-3.656-1.995-5.494-3.496-1.17-1.756-3.115-3.115-4.496-4.497-2.89-1.13.57 1.09 1.498 2.5.646 1.82 1.436 3.31 1.998 4.995.834 1.668-2.54-.4-3.497-1-2.197-1.247-3.803-2.08-6.495-2.497-1.794-.39-4.08-.74-5.995-1-2.284-.615 1.213 1.44 2.498 3.497 2.526 2.372-2.5.427-3.996 0-2.468-.494-4.887-.5-7.494-.5-3.202.188-.916.584 0 1.998.985.76 1.69 2.357 1.497 2.998-2.11-.284-3.907-.906-6.494-1-2.09.698-4.604.5-6.994.5-.114 1.258.433.197 1.5 1.5 1.728.7 2.874 1.553 2.497 2.497H354.76c-1.586.434.343.21 1.5 1.998-.647 1.622-1.484 1-3.496 1-1.363-.545-4.08-.79-5.495-1.5-1.41 0-1.3-.365-2.5-.498 4.21 2.98 2.123 2.235 4.497 4.496.41.137 1.356.5.5.5m-32.972 15.983c-.3 0-.96-1.613-1.998-2.998-.698-1.815-1.618-.777-2.498-3.497.104-2.82.204-3.327 0-5.993-2.06-1.434-2.915-1.88-4.497-4.495-2.538-2.123.37-5.72.854-8.355-2.213-.49-3.3 3.443-6.702 4.858-2.447 1.648-.274-3.406-1.468-6.356-.832-4.163-3.247 2.086-4.173 3.857-1.64 1.116-2.138 2.563-4.495.5 0-1.543 1.48-5.847.852-6.684-2.344 1.144-5.426 4.647-7.847 5.185-2.44-.53.53-4.447.53-7.354-.88-.294-4.408 7.726-5.855 7.8-1.446.075-.813-7.798-1.49-7.628-1.063 1.488-3.196 4.63-4.674 5.684-2.836-.366.42-5.23.854-7.028.488-2.15-2.672 4.125-4.35 4.53-1.23 1.067-3.672 1.822-4.497 2 .972-1.84 5.723-5.615 5.38-6.685-2.762.1-6.992 3.766-9.376 4.185-1.557 0-3.716.527-3.996.5.137-2.378 5.828-4.396 6.736-5.84-2.792.448-8.156 2.912-9.73 4.84-1.845.4-4.185.906-5.996 0 .268-2.242 4.456-6.6 5.38-8.027-2.52 1.11-3.793 1.977-6.495 2.498-.495.495-1.957 1.57-1.498.5.797-2.084 2.003-3.034 2.997-4.497-2.235.41-3.084 1.69-5.495 2.996-1.53.067-5.895 4.457-7.38 4.53-3.435 2.516-4.803 2.944-8.493 3.997-2.276.406-3.378.88-4.495 1.997 1.14-2.005 2.88-3.926 4.496-4.994 1.102-1.67 2.135-3.058 4.495-3.996.57-.696 2.156-.872.5-1-1.425 1.272-3.81 2.69-4.996 3.498-1.53.96-3.304 1.944-3.997 1.498.786-2.16 2.23-2.67 3.497-4.496 2.643-1.68.012-.574-1.998 0-1.303 1.16-3.638 2.018-5.496 2.998-2.134.556-3.51 1.84-5.994 2.497 0 .713.71-1.275 1-1.998 2.048-2.223 2.596-2.842 4.994-3.497.574-.86 1.326-.5-.5-.5-1.354 1.208-3.242 1.864-4.994 2.998-1.768.384-4.073.5-6.495.5-3.106.373-2.838.607 0-1 1.607-1.51 2.93-1.132 2.997-2.996-1.877 1.36-4.16 2.357-6.494 3.496-1.93.056-2.44.5-4.495.5.99-1.026 1.583-2.29 2.997-2.998 2.07-2.3-1.313-.444-1.998 0h-7.493c-1.34 1.674-.07.015 1-1 1.29-.67 2.626-1.546 2.497-1.997-1.492 1.295-3.218 1.89-4.496 2.998-1.39.417-2.996.625-2.996 1 1.088-1.605 2.857-2.574 3.996-3.997 1.685-.365 3.12-.88 3.498-1.5h-6.994 4.995c2.52 0 4.687-.223 6.992-.497 3.98-.663-.348-1-2.498-1-.417-.764 1.233-1.196 2.997-1.498 1.51-.715 3.37-1.35 4.996-2 1.578-.43 3.813-1.742 3.997-1.997-1.504.08-1.492.42-2.997.5 2.234-.173 3.84-.5 6.494-.5 2.41-.775 4.473-1.624 6.495-2.5.88-1.075 1.272-.998-1-.998 2.015-.647 4.872-.958 6.495-1.498 2.36-.507 4.47-1.276 5.994-1.998 1.463-.996 2.307-2.154 3.996-2.998 1.96 1.33 1.98 1.498 5.496 1.498 2.823-.034 4.55-.712 5.994-1.998 2.162-.59 2.545-1.63 4.995-1.998 2.234.398 4.51.5 6.994.5 2.427-.637 4.7-1.804 6.492-2.998 1.528-.75 3.342-1.836 4.995-2.498 1.82.94 3.253 1.695 5.496 1.998 2.318-.344 3.524-1.46 5.495-1.998 1.07-1.3 2.63-1.99 4.494-2.497 2.9-1.424 2.674.472 3.996 2 1.47 1.538 3.412.803 5.496 1.497 1.15 1.768 1.994 2.974 3.497 3.996 1.168 1.413 2.553 1.81 4.996 1.998.89 1.188.18 2.044 1.998 2.5.716.758 1.955 1.08 2.997 1.498" stroke="#772600" stroke-width="1.05" fill="none"/><path d="M346.022 114.14v.25c0-.697-.03-.326.5 1 .178 1.092-.243.966-.75 1.748-.086 1.117-.25 1.92-.25 3.247-.16 1.084-.77 2.112-1.248 2.997-.482.94-2.567 1.46-2.498 2.748-1.197.342-1.225-.433-1.25-1.75-.715-.817-.962-1.94-1.498-2.996-.332-1.043-1.04-1.81-1.498-2.997-.738-1.136-1.364-1.463-1.998-2.748-.248-.62-.205-1.387-.75-1.75-.815-1.03-1.346-1.197-2.747-1.25-1.077.255-1.49.726-2.498 1-.77.257-2.27.174-3.246.5-.24.394.48.58.75 1.498-.64.53-.877 1.464-1.25 2.247-.587.747-.983 1.112-1.247 2.25.41.694.06 1.615-.5 2.247-.172 1.16-.73 1.762-.998 2.748-.806.547-1.096 1.06-1.75 1.998-.573.803-1.09.75-2.497.75-1.1-.3-1.254-.898-2.248-1.25-.106-.317-.183-.394-.5-.5" stroke="#782600" stroke-width=".938" fill="none"/><path d="M307.65 125.534s-.455 4.955-3.643 8.258-9.794 7.157-9.794 7.157 8.882-4.225 9.793-3.307c.91.917-5.694 8.258-5.694 8.258s8.655-7.707 9.794-7.707 3.644 7.524 4.555 7.34c.915-.183-2.05-9.542-1.59-11.01.455-1.468 0-9.36 0-9.36l-3.416.368zm20.496-.672s-.456 5.297-3.644 8.828-9.794 7.65-9.794 7.65 8.882-4.512 9.793-3.53c.916.98-5.69 8.827-5.69 8.827s8.655-8.24 9.794-8.24 3.645 8.043 4.556 7.847c.91-.196-2.05-10.2-1.595-11.77.455-1.57 0-10.004 0-10.004l-3.416.392zm-28.693-48.045c0 .987-.967 1.788-2.16 1.788s-2.158-.8-2.158-1.788.966-1.787 2.16-1.787 2.158.8 2.158 1.787z" fill-rule="evenodd" fill="#812e00"/></svg>