<svg xmlns="http://www.w3.org/2000/svg" xmlns:xlink="http://www.w3.org/1999/xlink" viewBox="0 0 640 480"><path d="M0 320h640v160H0z"/><path fill="#fff" d="M0 160h640v160H0z"/><path fill="#ce1126" d="M0 0h640v160H0z"/><g transform="matrix(.8 0 0 .8 -40 0)" fill="#fff" stroke="#c09300"><path d="M450.81 302.4l68.488 63.58-4.876-115.47c-.716-17.5-15.924-13.486-26.97-7.173-11.192 7.172-23.96 7.172-37.447 2.437-13.485 4.735-26.253 4.735-37.444-2.437-11.042-6.313-26.25-10.328-26.97 7.172l-4.875 115.47 70.098-63.58z" stroke-width="1.27" stroke-linejoin="round"/><path d="M393.47 246.49l-4.734 112.32-8.035 7.168 4.88-115.47c2.297-1.578 6.316-4.017 7.89-4.017zm9.62 8.04l-4.017 93.955-8.032 8.22 4.88-108.49c1.58 1.577 6.315 5.45 7.17 6.31zm8.75 7.17l-3.155 78.362-6.455 6.31 4.018-89.406c1.574 1.578 4.73 3.874 5.592 4.734zm9.47 4.02l-3.156 66.787-6.313 5.12 3.16-74.345c1.58.717 4.736 2.438 6.314 2.438zm8.75 0l-2.297 55.657-6.455 6.313 2.44-61.252c1.575 0 5.593 0 6.312-.718z" id="a" fill="#c09300" stroke="none"/><use height="100%" width="100%" xlink:href="#a" transform="matrix(-1 0 0 1 900 0)"/><path d="M453.16 315.06l9.613 43.755-3.158 3.155-3.3-2.44-5.45-39.017 2.294 39.018-3.16 4.02-3.158-4.015 2.296-39.017-5.45 39.018-3.303 2.44-3.155-3.155 9.61-43.754h6.315z" fill="#c09300" stroke-width="1.074"/><g id="b" fill="none" stroke-width="1.27" stroke-linejoin="round"><path d="M428.48 295.84l-19.08 67.705 26.255 4.018 11.188-50.924-18.363-20.8z" fill="#fff" stroke-width="1.189"/><path d="M422.17 318.94l2.296 5.593 12.405-11.848"/><path d="M430.76 304.92l2.596 24.346 7.89-10.328m-3.156 4.012l4.31 14.875m1.69-5.465l-8.718 13.24m2.72 13.217l-2.79-13.198-2.437-13.427-5.84 7.91-2.562-9.12-8.174 8.385 4.153 15.25 5.738-9.434 3.156 9.612 5.89-9.164"/><path d="M414.99 361.97l5.3-7.444 3.452 11.457 4.735-8.032 3.157 9.618"/></g><use height="100%" width="100%" xlink:href="#b" transform="matrix(-1 0 0 1 900 0)"/><g stroke-width="1.27" stroke-linecap="round" stroke-linejoin="round"><path d="M450 393.81c19.943 0 39.024-1.578 50.213-4.734 4.735-.86 4.735-3.298 4.735-6.455 4.736-1.574 2.295-7.17 5.595-7.17-3.3.866-4.016-5.59-8.033-4.73 0-5.595-5.596-6.31-10.33-4.74-9.47 3.16-26.255 3.88-42.18 3.88-15.924-.718-32.567-.718-42.18-3.876-4.733-1.574-10.326-.858-10.326 4.74-4.018-.864-4.736 5.593-8.034 4.73 3.3 0 .86 5.593 5.594 7.17 0 3.158 0 5.597 4.878 6.456 11.045 3.155 30.128 4.733 50.068 4.733z" stroke-width="2.378"/><path d="M422.89 363.54c6.454.86 13.628 1.578 19.225.86 3.153 0 5.45 5.452-.863 6.314-5.593.715-14.345 0-19.08-.862-4.017-.718-12.768-2.295-18.364-3.876-5.594-2.436-1.576-7.168 1.578-6.452 4.88 1.577 11.192 3.157 17.505 4.016zm54.23 0c-6.457.86-13.628 1.578-19.08.86-3.302 0-5.597 5.452.716 6.314 5.596.715 14.347 0 19.078-.862 4.02-.718 12.77-2.295 18.364-3.876 5.597-2.436 1.58-7.168-1.577-6.452-4.874 1.577-11.19 3.157-17.5 4.016z"/><path d="M403.09 360.39c-4.877-.86-7.172 4.732-5.593 7.887.717-1.578 4.017-1.578 4.735-3.155.858-2.437-.718-2.437.858-4.732zm19.08 14.67c0-3.153 3.155-2.765 3.155-5.92 0-1.58-.86-4.02-2.437-4.02-1.58 0-3.158 1.58-3.158 3.156-.718 3.157 2.44 3.63 2.44 6.783zm22.71-9.08c4.73 0 4.262 6.314 1.966 9.47 0-2.295-4.017-3.156-4.017-4.732 0-2.442 3.622-2.442 2.05-4.738zm52.03-5.59c4.878-.86 7.174 4.732 5.595 7.887-.718-1.578-4.017-1.578-4.734-3.155-.86-2.437.72-2.437-.86-4.732zm-19.08 14.67c0-3.153-3.153-2.765-3.153-5.92 0-1.58.86-4.02 2.438-4.02 1.577 0 3.156 1.58 3.156 3.156.72 3.157-2.44 3.63-2.44 6.783zm-22.71-9.08c-4.732 0-4.263 6.314-1.967 9.47 0-2.295 4.015-3.156 4.015-4.732 0-2.442-3.626-2.442-2.048-4.738z"/><path d="M404.67 361.97c1.58 0 4.018.718 4.735 1.577l-4.74-1.58zm7.88 2.44c.862 0 4.018.716 5.596 1.575l-5.6-1.58zm28.7 3.15c-1.578 0-4.734 0-5.593.715l5.59-.72zm-8.75 0c-.86-.862-4.016-.862-5.593 0h5.59zm62.84-5.59c-1.578 0-3.875.718-4.735 1.577l4.735-1.577zm-7.89 2.44c-.86 0-4.017.716-5.595 1.575l5.6-1.58zm-28.7 3.15c1.58 0 4.735 0 5.595.715l-5.6-.72zm8.75 0c.86-.862 4.018-.862 5.595 0h-5.6z" stroke-width=".891"/><g fill="#c09300" stroke="none"><path d="M403.34 374.58c-.534-.102-.815-.525-.68-1.025.164-.61.65-.957 1.112-.794.294.108.83.65.832.84.003.225-.28.755-.402.757-.053 0-.135.046-.182.102-.1.117-.413.174-.68.123zm54.93 3.92c-.2-.074-.515-.518-.515-.724.002-.387.574-1.018.93-1.02.174-.002.654.247.833.433.325.334.254.89-.154 1.204-.2.155-.8.212-1.094.103zm.36 2.48c-.42-.142-.574-.348-.608-.814-.036-.485.012-.56.525-.84l.365-.2.347.155c.475.218.69.45.71.77.014.35-.24.705-.64.884-.356.16-.377.16-.7.05z"/><path d="M407.75 370.09c-.346-.01-.82.307-1.094.47-.65.15-1.404.55-2.03.124-.618-.19-1.44-.04-1.532.718.158.652 1.07 1.025 1.625.594.41-.537 1.53-.853 1.652.063-.457.69-.405 1.605-.78 2.34-.062.457-.253.892-.5 1.28-.463.047-.955-.007-1.345.282-.627.034-1.266.345-1.626.875-.402.577-.79 1.164-.905 1.874.106.726.936.934 1.56.97.668.183 1.336.424 2 .625 1.087.242 2.103.634 3.19.874 1.583.476 3.247.696 4.842 1.124.168.054.325.103.5.124.663.137 1.008-.583 1.063-1.125.33-1.16.58-2.34.907-3.5.225-.467.497-1.518-.406-1.282-.513.31-.95.774-1.592.813-.873.05-.374.945-.03 1.313.076.586-.11 1.287-.5 1.75-.52.33-1.172-.058-1.72-.19-.573.01-1.722-.282-1.186-1.06.19-.578.208-1.21.438-1.783.296-.613.338-1.284.47-1.936-.36-.777-.98.256-1.47.344-.336.235-1.603.335-.935.938.575.438.134 1.198.03 1.75-.036.77-.837.955-1.468.78-.628-.03-1.5-.495-.97-1.185.122-.576.323-1.14.44-1.72.236-.698.436-1.363.686-2.062.11-.62.33-1.207.626-1.75.017-.685.477-1.275.47-1.97-.05-.337-.2-.46-.408-.467zm-3.594 7.25a.353.353 0 0 1 .22.03c.25.107.256.31 0 .532-.113.097-.24.19-.282.188-.468-.04-.606-.11-.625-.28-.02-.152.03-.196.34-.345a1.45 1.45 0 0 1 .343-.125zm-1.036 5.02c-.496-.466-.416-.806.317-1.353.314-.234.505-.208.863.12.553.504.575.823.087 1.255-.24.213-.346.257-.627.26-.293.003-.376-.034-.64-.282zm3.05.92a.86.86 0 0 1-.623-1.088c.13-.434.203-.477.84-.483.716-.01.854.11.86.74.005.352-.022.434-.2.6a1.07 1.07 0 0 1-.877.23zm89.11.08c-.227-.19-.273-.274-.275-.515-.003-.41.233-.712.746-.944.686-.304.96-.262 1.22.19.34.6.325.847-.084 1.25-.225.225-.268.238-.785.24-.507.006-.565-.01-.82-.22zm-85.06 1.15c-.364-.097-.552-.37-.557-.807-.004-.334.02-.387.253-.57.152-.118.39-.22.58-.245.266-.037.363-.013.578.138.55.387.668.77.35 1.14-.34.397-.663.488-1.204.344zm21.92.98c-.08-.1-.26-.16-.278-.287.032-.555.06-1.117.236-1.648.096-.523.012-1.07.194-1.58.187-.926.187-1.88.402-2.802.01-.475.055-.95.193-1.406.157-.722.013-1.476.226-2.19-.023-.267.285-.983.556-.56.39.578.91 1.046 1.42 1.517.435.252.033.624-.27.75-.415.163-.516.62-.486 1.022-.058.414-.225.806-.242 1.23-.087.622-.07 1.254-.15 1.876-.183.61-.114 1.26-.174 1.888.01.398-.18.76-.156 1.16-.048.406-.066.894-.407 1.172-.33.166-.804.138-1.068-.142zm29.7-9.8c-.482.365-.914.795-1.344 1.22-.592.448.487.71.625 1.093.16.586.15 1.21.19 1.812.18.552.26 1.138.22 1.72-.05.62-.863.49-1.22.843-.49.207-.69.69-1.062 1.03-.246.484-.312 1.077-.344 1.626.036.448-.302.95 0 1.344.04.055.086.132.125.187.1.145.342.03.5.063.503-.03 1.03.047 1.5-.157 1.21-.205 2.43-.222 3.656-.28.75.027 1.47-.234 2.218-.22.587.13.85-.502.844-.964-.332-.654-.045-1.43-.312-2.094-.235-.673-.143-1.43-.25-2.125-.015-.55-.71-.752-1.063-.344-.34.346-.89.415-1.154.845-.298.602.626.603.78 1.062.176.465.12.98.156 1.47.115.592-.53.625-.937.687-.538.2-1.29.336-1.595-.313-.19-.48-.164-.992-.218-1.5-.013-.89-.227-1.767-.28-2.655-.052-1.098-.242-2.188-.313-3.28-.01-.458-.07-1.2-.72-1.065zm-.625 8.25l.313.03.03.376.032.375-.406.13a3.28 3.28 0 0 1-.407.093 2.55 2.55 0 0 1-.187-.124c-.22-.16-.164-.386.125-.69.163-.17.24-.202.5-.186zm-29.965-9.28c-.38.135-.862.693-1.25.688-.88.062-.757.92-.125 1.218.083.26.005.588.03.875.124.79-.374 1.43-.28 2.22-.044.87-.307 1.72-.344 2.597-.243.903-.25 1.832-.402 2.75-.104.823-.7.533-1.22.312-.003-.357-.026-.706-.03-1.063.216-.817-.44-1.056-1.094-1.156-.685.065-1.022-.523-.874-1.125.294-.35 1.035-.254 1.5-.313.98.206.94-1.11.437-1.56-.345-.636-1.2-.91-1.438-1.563.094-.867-.48-1.733-1.19-2.157-1.09-.076-1.91.863-2.312 1.78-.453.13-.905.268-1.345.44-.71.176-1.72 1.406-.75 1.874.545.15 2.2.528 1.47 1.28-.413.708-1.202.72-1.907.532-.724 0-1.53-.353-1.5-1.188-.148-.75-.123-1.56-.47-2.25-.147-.84-1.1-.644-1.155.124-.73.534-.634 1.397-.123 2.03.32.73.002 1.578-.314 2.25-.19.876-1.155.906-1.843 1.188-.34.133-1.63-.076-1.158.66.754.264 1.653.504 2.438.31.823-.1 1.538-.664 1.938-1.374.553-.56 1.503-.267 2.22-.28.772-.003 1.562.54 2.312.186.215-.563 1.22-1.494 1.53-.53-.054.863.71 1.326 1.5 1.22.863-.05.543.61.53 1.124.057.934.66 1.425 1.44 1.812.263.072.543.048.81 0 .75-.235 1.554-.568 1.78-1.406.305-.68.31-1.45.533-2.156.177-1.13.406-2.26.437-3.406.277-1.04.198-2.136.407-3.188.132-.782.23-1.563.312-2.344-.093-.417-.273-.487-.5-.406zm-6.78 4.156c.15.02.234.204.25.53.015.366.205.662.436.72.183.046.167.24-.03.375-.116.08-.322.13-.688.13-.578-.004-.937-.154-1.25-.47l-.188-.187.28-.187c.143-.108.4-.332.564-.5.285-.29.473-.424.625-.406zm66.03-7.876a8.365 8.365 0 0 0-1.656.25c-1.04-.065-1.563 1.027-.563 1.563.606 1.534 1.545-.317 2.5-.188 1.44.28 1.56 1.832 1.786 3 .08 1.157.414 2.282.75 3.375.962 1.07-.72 1.74-1.438.906-.61-.664-1.92-1.48-2.656-.562-.904.382-.94 1.59-1.69 1.937-1.207.37-1.36-1.115-2-1.75-.585-.82-1.71-.892-2.623-1.183-.43-.87-.206-2.346-1.095-2.938-.745.303-2.113 1.7-.968 2.343 1.117.96-.488 1.4-1 2.064-.732.814-.85 1.936-.97 2.968-1.258.697-1.503-.786-1.655-1.717-.1-1.112-1.038-.786-1.69-.375-.95.385-1.428 1.29-2.093 2-.08.647.036 1.356.03 2.03.216.812 1.202.43 1.812.376.98-.41 1.38.626.595 1.22-.532.674-2.22.32-2.063 1.404.544.063 1.11.043 1.657 0 1.09-.3 2.26-1.07 2.373-2.28.143-1.06 1.667-.867 2.5-1.095 1.04-.3 2.294-.378 2.53.936.71.746 2.25 1.585 3.032.564.795-.486 1.176-1.34 1.125-2.25-.16-.786 1.27-.814 1.625-.376.52.858 2.15.605 2.938.125.836-.62 1.017-1.707 2.218-1.72 1.785-.535 3.637-.84 5.377-1.5 1.41-.308-.21-1.2-.562-1.72-1.074-.53-2.008 1.642-3.22.563-.935-.717-.87-2.078-1.218-3.126-.237-1.358-.177-2.923-1.156-4-.67-.715-1.583-.887-2.53-.844zm-6.813 9.47c.126-.004.268.058.5.186.44.242.75.643.75.97 0 .212-.054.226-.375.374-.197.09-.42.19-.5.188-.18-.002-.624-.357-.625-.5 0-.06-.058-.287-.125-.47-.117-.32-.1-.316.063-.53.103-.138.187-.216.313-.22zm6.532.343c.37-.025.59.09.75.375.18.33.054.58-.41.78-.204.09-.408.16-.438.157-.03-.003-.198-.102-.375-.22-.27-.176-.31-.263-.314-.467-.003-.316.35-.597.782-.625zm-8.94.093c.11-.017.21.04.342.156.18.155.237.28.28.594.033.22.028.502 0 .625-.047.23-.052.22-.56.22-.642.01-.7-.06-.69-.653.01-.377.013-.478.22-.688.16-.163.297-.234.406-.25zm-5.5 1.438a.57.57 0 0 1 .44.437c.06.32.004.466-.25.598-.226.113-.738.15-.88.063a.613.613 0 0 1-.187-.19c-.068-.12-.055-.18.03-.25.062-.05.127-.12.126-.154 0-.037.07-.163.157-.28a.543.543 0 0 1 .56-.22zm9.25 1.187c.18 0 .33.065.44.16.18.163.175.4-.036.563-.135.105-.87.096-1.125 0-.11-.04-.155-.1-.156-.22-.002-.14.038-.225.28-.342.206-.096.417-.154.595-.155zm-17.17 4.82c-.098-.06-.24-.115-.097-.22.173-.302.518-.407.825-.52a3.436 3.436 0 0 0 1.372-1.12c.05-.33.424-.51.422-.86.003-.474.032-.96-.084-1.425-.127-.426-.45-.752-.825-.974-.256-.203-.674-.26-.768-.615-.053-.343.253-.604.36-.91.223-.42.41-.863.65-1.275.26-.29.66-.017.794.26.19.278.36.577.45.898.304.33.57.72.68 1.16.15.31.384.603.37.967 0 .416.235.787.22 1.206.014.56.013 1.147-.19 1.676-.14.294-.42.47-.608.733-.318.295-.67.58-1.08.736-.288.092-.456.426-.818.345-.514.01-1.037.08-1.547-.003.032.054-.156-.092-.125-.058zm-6.85.45c-.245-.25-.297-.353-.3-.6-.003-.246.045-.344.282-.584.44-.443.653-.453 1.41-.07.722.365.967.4 1.032.14.062-.25.478-.48.874-.48a.82.82 0 0 1 .59.202c.25.196.264.227.27.68.005.463 0 .48-.29.736-.277.244-.322.26-.665.224-.437-.043-.7-.244-.77-.588-.052-.25-.14-.31-.206-.14-.02.054-.13.12-.24.15-.204.05-.55.267-.794.5-.093.086-.255.127-.52.13-.354.003-.404-.018-.677-.3zm-19.82-8.9c-.667.01-1.38.568-1.47 1.22.15.75.776 1.49.374 2.28.278 1.015-.76 1.4-1.47.815-.426-.972-.642-2.036-1.28-2.907-.804-.227-1.154 1.057-1.72 1.5.28.755 1.097 1.433 1.19 2.375.194.917-.362 1.933-1.157 2.408-.688.656-1.628.42-2.47.564-1.025.6.75.82 1.22.845 1.045.105 2.133-.033 2.904-.814.77-.366.71-1.696 1.626-1.843 1.587-.07 3.162.243 4.75.28.85.203 2.162-.1 2.75.53 0 1.108.94 1.79 1.843 2.22.497.138 1.023-.48 1.53-.594.965-.31.672-1.503 1.25-1.97 1.65-.09 3.316-.07 4.97-.094.313.008.406-.44.624-.625-.038-.637-.06-1.27-.158-1.905-.318-.805.052-1.843-.53-2.53-.83-.226-1.537.534-2.376.594-.925.41-1.705 1.267-1.75 2.31-.547.898-1.426-.16-1.124-.905-.034-.325.07-.704-.03-1-.508-.608-1.396-.41-2.095-.5-1.016.04-2.01-.18-3.03-.156-.892-.07-1.82.077-2.686-.157-1.032-.03-.89-1.04-1.063-1.75a1.018 1.018 0 0 0-.624-.188zm2 3.69c.34.006.665.05 1 .093.43.073.89-.146 1.31 0 .977.168 1.954.13 2.938.22.26-.003.445.186.624.345.002.683 0 1.38 0 2.062-.03.257.076.597-.156.78a.7.7 0 0 1-.25.125c-.273-.07-.56-.247-.69-.5-.04-.357.02-.704.03-1.062-.006-.092.04-.236 0-.312a1.248 1.248 0 0 0-.717-.25c-.85-.03-1.68-.09-2.53-.123-.708-.044-1.435.06-2.127-.125-.268-.096-.617-.063-.78-.342-.235-.273.103-.597.343-.72a2.28 2.28 0 0 1 1-.187zm11.28.25c.16-.003.21.05.28.343.046.19.1.42.125.5.037.12-.022.158-.187.22-.495.187-.987.17-1.157-.062-.077-.103.013-.433.157-.56.29-.26.61-.438.78-.44z"/></g></g><path d="M449.98 327.23c32.642-25.106 29.843-61.883 29.843-61.883-.86.172-1.68.258-2.54.258-6.848 0-23.18-3.917-26.99-8.892-4.08 4.503-20.77 8.892-27.573 8.892-.86 0-1.722-.086-2.54-.258 0 0-2.843 36.776 29.8 61.883z" stroke-width="1.15"/><path d="M477.22 268.04c-.28.018-.563.026-.848.026-6.205 0-20.62-3.183-26.175-7.957-5.82 4.41-20.47 7.953-26.576 7.953a4.7 4.7 0 0 1-.845-.086c-.015 1.39.058 2.83.144 4.143.322 4.9 1.182 9.82 2.487 14.553 4.108 14.895 12.516 27.553 24.572 37.155 12.065-9.61 20.483-22.28 24.6-37.185 1.307-4.732 2.17-9.65 2.495-14.55.086-1.285.157-2.692.148-4.055z" stroke-width=".916"/><path d="M439.38 265.03c-5.872 1.845-12.23 3.03-15.75 3.03-.286 0-.563-.04-.844-.093-.014 1.39.07 2.846.156 4.157a72.77 72.77 0 0 0 2.47 14.53c2.764 10.026 7.506 19.033 13.968 26.782V265.03zm20.62-.09v49.25c6.794-7.92 11.733-17.206 14.594-27.562a72.952 72.952 0 0 0 2.47-14.53c.084-1.285.165-2.7.155-4.064-.285.018-.56.032-.848.032-3.73 0-10.42-1.17-16.375-3.125z" fill="#c09300" stroke="none"/><g stroke-width="1.27"><path d="M462.31 253.09c.667.04-.902-3.568-.902-3.568 1.765 1.804 8.43 2.235 8.43 2.235-4-1.766-7.998-15.096-7.528-25.72.432-10.665-1.528-14.86-3.097-16.43-2-2-8.43-3.763-12.664-3.998-2.396-.12-2 1.8-2 1.8-4.43-1.138-8.86-1.57-10.865-.236-1.882 1.255-2.274 7.528-.9 6.43 3.33-2.666 6.233-.235 8.232 2.666 1.763 2.55 1.646 9.764-.903 18.193-2.666 8.86-9.96 17.722-9.96 17.722 3.96 0 9.53-3.528 9.53-3.528l-1.334 5.527c4.196-2 7.53-5.097 7.53-5.097l4 4.195c1.332-1.764 4-4.195 4-4.195s3.33 3.53 8.43 4z" stroke-width="1.218"/><path d="M446.12 227.57s-2.235 16.428-6.43 21.094m9.96-21.524s-.863 16.623-3.764 21.956m6.894-21.286s0 18.192 1.098 21.29m2.862-20.39s.902 15.29 4.666 20.82" fill="none"/><path d="M442.08 219.61c-.196-1.45-.55-2.588-1.06-3.333-1.998-2.9-4.9-5.332-8.232-2.666 0 0 1.137-3.525 3.568-3.642 1.882-.118 6.155 1.41 9.92 7.84 0 0-2.784-.626-3.45-.038-1.256 1.097-.746 1.842-.746 1.842z" fill="#c09300" stroke-width=".354"/><path d="M432.44 209.26c.274-.902.706-1.725 1.255-2.078 2-1.333 6.43-.902 10.86.235 0 0-.392-1.92 2-1.803 4.234.235 10.664 2 12.663 4 .47.51 1.02 1.254 1.49 2.39h-.078c-.98-1.372-3.764-1.293-4.43-1.215-1.06.114-1.726.074-3.138.43-.666.154-1.686.35-2.235.78-.43.354-.784 1.648-1.45 1.648-1.06 0-.98-.274-1.255-.588-.353-.43-.55-1.06-.902-1.02-1.097.197-2.862-.666-5.096-2.43-2.235-1.765-3.098-2.196-6-2-2.86.235-3.763 1.843-3.763 1.843l.08-.196z" fill="#c09300" stroke-width=".354"/><circle cx="448.824" cy="210.672" r="1.176" stroke="none"/></g></g></svg>