<svg xmlns="http://www.w3.org/2000/svg" viewBox="0 0 640 480"><g fill-rule="evenodd"><path fill="#be0027" d="M-.002 0h640.008v480H-.002z"/><path d="M-.002 480l640.008-.3-.032-239.7L-.002 480z" fill="#b4d7f4"/><path d="M-.002 0l640.008.3-.032 239.7L-.002 0z" fill="#239e46"/><path d="M186.23 360.4c-10.713 2.958-16.854 11.27-16.697 19.11l52.73-.21c.475-8.427-6.457-16.22-17.01-19.29 51.627-1.065 96.478-20.404 104.63-32.813-8.066-3.5-17.392 2.134-24.04.837 15.784-7.295 63.073-37.903 55.384-70.717-5.976 18.226-24.08 33.306-31.79 37.354 17.664-26.82 41.785-54.745 20.858-76.37 1.057 12.533-7.965 26.327-11.95 27.364 10.248-28.34 20.025-63.925-2.177-87.383 2.916 8.48 1.738 32.396-2.276 33.47-1.236-19.27-4.525-59.807-24.82-59.23 6.445 5.738 9.266 21.4 9.41 37.22-4.626-10.84-9.883-19-21.126-27-9.095-17.444-25.28-31.897-41.464-42.25 1.817 12.696 3.32 22.713 21.048 35.88-9.243-.574-18.484-18.096-28.362-18.58-7.857-.38-14.024 7.12-26.864 2.804 1.422 4.238 7.412 6.115 8.676 9.25-2.75 1.9-9.28-.296-14.707-3.123 7.467 10.17 19.036 16.15 28.858 14.13 11.685-2.244 24.208-1.056 36.15 5.74-3.05 1.568-14.922 1.557-22.542.604 6.927 7.013 11.572 11.66 23.615 11.584 10.758-.07 16.398-5.74 19.16-2.228 6.747 7.99 11.287 15.982 16.93 25.395-12.466 1.377-8.707-14.1-22.592-22.016-7.8 16.146 8.974 35.29 20.39 43.243.156 12.136 1.93 22.29 7.078 31.53 3.47 6.515 7.956 13.184 6.264 27.887-6.835-4.98-13.515-21.767-11.06-35.095-8.553 2.333-11.9 17.377-7.865 24.95 3.012 5.764 5.022 16.798 1.548 21.73-3.384 4.595-3.74 4.08-3.695 13.943.12 5.9-3.175 12.88-8.545 17.744 1.12-4.158 2.4-11.312 1.158-15.784-4.244 7.2-14.892 14.652-18.245 22.392-3.293 7.76-4.128 21.198-20.062 24.297-20.5 4.067-27.575 7.62-40.766 13.017-1.464-10.02 2.917-30.912 11.295-29.72 8.18 1.455 32.98-8.546 24.11-29.44-1.754 6.586-7.6 13.012-13.918 13.297 6.828-8.856 19.013-18.03 13.08-32.87-3.3 6.31-8.488 13.88-16.355 18.14 8.433-16.162.98-20.997-9.037-7.685-3.782 5.135-6.067 15.427-8.47 28.497-3.934-10.63-3.674-24.622-8.336-35.984-4.87-12.288 6.462-15.533 11.795-14.547 13.057 3.486 34.88 3.484 33.258-18.09-5.64 7.3-15.53 9.55-26.21 6.926 11.996-8.76 21.467-25.235 8.1-33.837-.445 9.12-7.504 19.35-16.93 24.06-2.204-7.7-2.204-15.866-.313-24.82-5.262 5.537-9.105 17.063-12.162 30.165-.23-12.95 2.22-22.283 4.037-29.25 2.752-10.176 9.6-3.555 20.077-2.805 10.09.57 23.985-5.006 21.33-18.69-3.446 5.414-10.52 7.52-17.746 6.95 8.7-5.273 23.86-14.64 15.546-29.045-3.493 5.457-4.624 10.125-14.732 11.8 2.647-6.09 3.087-14.7 10.933-18.11-13.994-2.788-22.007 6.396-26.08 20.78-1.65-9.973-3.617-13.644-4.01-20.94 7.567-8.4 8.36-24.84-8.02-28.515-.97 8.48-.683 10.5 1.18 17.403-7.69-4.568-18.524-7.088-25.74-.63 4.89 5.275 12.455 9.918 24.115 4.166-2.754 9.01-9.918 7.466-19.762 4.03 6.017 11.302 13.61 13.31 21.99 12.007 4.388 11.568 4.58 20.357-8.24 37.203.592-10.47-.152-18.267-8.47-26.73-7.127-6.98-12.92.3-1.78 15.817-6.758-4.976-14.406-15.076-16.708-25.174-2.228 12.475-.222 27.178 6.684 35.42-3.27 3.492-6.983-.37-12.477-8.91 2.078 27.328 13.737 32.6 29.406 26.51.445 15 .445 28.888 1.336 47.007-9.136-13.142-20.718-22.946-27.18-25.396-2.004 7.352 5.572 16.93 9.804 22.276-6.46-1.337-20.497-12.03-20.497-12.03-1.412 12.18 14.334 23.467 24.506 28.516-11.957-.52-17.23-5.05-24.954-12.475.15 33.79 36.608 27.92 43.442 22.724.89 16.634 2.16 35.863 3.052 52.5-10.306-1.8-9.496-4.9-18.315-5.716-24.478-.954-43.895-29.384-50.325-50.297-1.845 3.443-.382 7.044-2.07 11.27-3.973-10.263-9.05-23.52-15.86-29.69 1.735 5.984 1.918 12.066 1.315 23.25-2.337-7.247-4.51-9.47-4.667-17.976.15-6.53 6.3-11.35 5.96-20.535-.252-6.707-6.37-21.243-7.27-32.496-2.96 11.582-4.82 23.79-9.357 30.96 2.257-12.367 1.534-20.902 5.348-29.226 4.404-8.763 8.15-16.586 5.217-25.43-2.813 3.416-1.845 6.52-8.912 14.818-1.535-9.025 9.138-23.47 19.496-29.277 7.306-3.85 16.515-17.618 10.516-27.054-6.87 4.934-9.955 11.6-19.66 22.99 6.923-27.06 24.91-34.138 46.44-34.23 4.765-.023 14.37-1.743 17.067-8.048-6.07 2.343-13.244 2.64-19.63 1.363 4.647-6.822 14.435-5.935 23.555-5.976 7.153-.034 18.32-1.004 22.836-11.193-8.727 3.78-22.337 4.568-30.906 1.89 13.628-7.06 34.975-7.82 45.924-17.087-12.48-9.316-43.706 2.167-63.43 15.695 5.512-5.04 14.225-13.983 19.032-21.202-10.787-5.172-38.068 25.05-47.466 43.008-8.927 5.04-12.497 12.944-15.963 18.458 4.756-16.072 5.26-27.735 9.228-40.97-30.6 10.533-17.88 67.07-24.535 80.595.784-14.933.15-34.116-6-44.008-9.423 7.19-10.184 49.51-1.335 84.74-3.196-9.43-9.226-18.23-11.16-29.706-13.95 25.44 8.175 55.453 26.677 79.16-13.93-7.254-27.7-22.86-36.747-35.94 2.496 45.533 50.046 54.993 57.427 66.184-10.02-4.664-29.173-13.892-37.3-4.223 13.23 3.056 23.785 6.587 32.29 12.16 12.34 15.408 35.707 22.146 76.403 23.848z" fill="#f3e295"/></g></svg>