<svg xmlns="http://www.w3.org/2000/svg" viewBox="0 0 640 480" version="1"><path fill="#c60b1e" d="M0 0h640v480H0z"/><path fill="#ffc400" d="M0 120h640v240H0z"/><path d="M127.3 213.3h-.8l-1-1-.7-.5-.6-.8s-.7-1-.4-2c.3-1 1-1.2 1.4-1.5l1.5-.5 1-.4 1.3-.3.5-.3h1c0-.2.7-.4 1-.4h1.6l1.6.2 2.2-.2h1c.5 0 1.2.4 1.5.5.2.2 1.5.6 2 .8.5 0 1.7.3 2.2.6.5.3 1 .7 1 1 .4.4.5.8.6 1 .2.3.2 1 0 1 0 .4-.4 1-.4 1l-.6 1-.8.5s-.5.4-1 .4c-.4 0-4.8-1-7.6-1s-7.3 1-7.3 1" fill="#ad1519"/><path d="M127.3 213.3h-.8l-1-1-.7-.5-.6-.8s-.7-1-.4-2c.3-1 1-1.2 1.4-1.5l1.5-.5 1-.4 1.3-.3.5-.3h1c0-.2.7-.4 1-.4h1.6l1.6.2 2.2-.2h1c.5 0 1.2.4 1.5.5.2.2 1.5.6 2 .8.5 0 1.7.3 2.2.6.5.3 1 .7 1 1 .4.4.5.8.6 1 .2.3.2 1 0 1 0 .4-.4 1-.4 1l-.6 1-.8.5s-.5.4-1 .4c-.4 0-4.8-1-7.6-1s-7.3 1-7.3 1z" fill="none" stroke="#000" stroke-width=".3" stroke-linejoin="round"/><path d="M133.3 207c0-1.3.6-2.3 1.3-2.3.8 0 1.4 1 1.4 2.4s-.6 2.4-1.4 2.4-1.3-1-1.3-2.3" fill="#c8b100"/><path d="M133.3 207c0-1.3.6-2.3 1.3-2.3.8 0 1.4 1 1.4 2.4s-.6 2.4-1.4 2.4-1.3-1-1.3-2.3z" fill="none" stroke="#000" stroke-width=".3"/><path d="M134 207c0-1.2.3-2.2.7-2.2.3 0 .6 1 .6 2.3 0 1.3-.3 2.3-.6 2.3-.4 0-.7-1-.7-2.2" fill="#c8b100"/><path d="M134 207c0-1.2.3-2.2.7-2.2.3 0 .6 1 .6 2.3 0 1.3-.3 2.3-.6 2.3-.4 0-.7-1-.7-2.2z" fill="none" stroke="#000" stroke-width=".3"/><path d="M133.8 204.5c0-.4.4-.8.8-.8s1 .4 1 .8c0 .5-.5 1-1 1s-.8-.5-.8-1" fill="#c8b100"/><path d="M135.3 204.2v.6H134v-.6h.4V203h-.6v-.6h.6v-.5h.5v.4h.5v.6h-.6v1.2h.3" fill="#c8b100"/><path d="M135.3 204.2v.6H134v-.6h.4V203h-.6v-.6h.6v-.5h.5v.4h.5v.6h-.6v1.2h.3" fill="none" stroke="#000" stroke-width=".3"/><path d="M136 204.2v.6h-2.5v-.6h1V203h-.7v-.6h.6v-.5h.5v.4h.5v.6h-.6v1.2h1" fill="#c8b100"/><path d="M136 204.2v.6h-2.5v-.6h1V203h-.7v-.6h.6v-.5h.5v.4h.5v.6h-.6v1.2h1" fill="none" stroke="#000" stroke-width=".3"/><path d="M135 203.7c.3 0 .5.4.5.8 0 .5-.4 1-1 1s-.7-.5-.7-1c0-.4.2-.7.6-.8" fill="none" stroke="#000" stroke-width=".3"/><path d="M134.7 213.2H130v-1l-.3-1.3-.2-1.6c-1.3-1.7-2.5-2.8-3-2.5l.6-.8c1.2-.7 3.6 1 5.3 3.6l.5.7h3.8l.4-.7c1.8-2.7 4-4.3 5.2-3.6.3 0 .4.4.5.7-.4-.4-1.6.7-3 2.4v1.5l-.3 1v1.2h-4.7" fill="#c8b100"/><path d="M134.7 213.2H130v-1l-.3-1.3-.2-1.6c-1.3-1.7-2.5-2.8-3-2.5l.6-.8c1.2-.7 3.6 1 5.3 3.6l.5.7h3.8l.4-.7c1.8-2.7 4-4.3 5.2-3.6.3 0 .4.4.5.7-.4-.4-1.6.7-3 2.4v1.5l-.3 1v1.2h-4.8z" fill="none" stroke="#000" stroke-width=".3"/><path d="M127 206.8c.7-.5 2.7 1 4.4 3.6m11-3.6c-.8-.5-2.8 1-4.5 3.6" fill="none" stroke="#000" stroke-width=".3"/><path d="M127.8 215.3l-.5-1c1.8-.6 4.5-1 7.3-1 3 0 5.6.4 7.4 1l-.5.8c0 .4-.3 1-.3 1-1.7-.6-4-1-6.6-1-2.6 0-5.2.4-6.5 1 0 0 0-.4-.2-.7" fill="#c8b100"/><path d="M127.8 215.3l-.5-1c1.8-.6 4.5-1 7.3-1 3 0 5.6.4 7.4 1l-.5.8c0 .4-.3 1-.3 1-1.7-.6-4-1-6.6-1-2.6 0-5.2.4-6.5 1 0 0 0-.4-.2-.7" fill="none" stroke="#000" stroke-width=".3"/><path d="M134.6 217.7c2.4 0 5-.4 6-.6.5 0 1-.4.8-.7 0-.2 0-.3-.3-.4-1.3-.6-3.8-1-6.4-1-2.5 0-5 .4-6.4 1-.2 0-.3 0-.4.3 0 .3.3.6 1 .8 1 .3 3.5.7 5.8.7" fill="#c8b100"/><path d="M134.6 217.7c2.4 0 5-.4 6-.6.5 0 1-.4.8-.7 0-.2 0-.3-.3-.4-1.3-.6-3.8-1-6.4-1-2.5 0-5 .4-6.4 1-.2 0-.3 0-.4.3 0 .3.3.6 1 .8 1 .3 3.5.7 5.8.7z" fill="none" stroke="#000" stroke-width=".3"/><path d="M142 213.2l-.4-.5s-.6.3-1.2.2c-.7-.2-1-1-1-1s-.7.6-1.3.6c-.5 0-1-.6-1-.6s-.6.5-1.2.4c-.6 0-1.2-.8-1.2-.8s-.6.8-1.2 1c-.6 0-1-.7-1-.7s-.3.5-1 .6c-1 .2-1.5-.6-1.5-.6s-.6.7-1 1c-.6 0-1.3-.3-1.3-.3v.4l-.4.3v.4c2-.5 4.5-1 7.4-1 2.8 0 5.4.5 7.3 1l.2-.5" fill="#c8b100"/><path d="M142 213.2l-.4-.5s-.6.3-1.2.2c-.7-.2-1-1-1-1s-.7.6-1.3.6c-.5 0-1-.6-1-.6s-.6.5-1.2.4c-.6 0-1.2-.8-1.2-.8s-.6.8-1.2 1c-.6 0-1-.7-1-.7s-.3.5-1 .6c-1 .2-1.5-.6-1.5-.6s-.6.7-1 1c-.6 0-1.3-.3-1.3-.3v.4l-.4.3v.4c2-.5 4.5-1 7.4-1 2.8 0 5.4.5 7.3 1l.2-.5z" fill="none" stroke="#000" stroke-width=".3"/><path d="M134.7 210.7h.2a1 1 0 0 0 0 .4c0 .7.4 1 1 1 .4 0 .8-.2 1-.6v-.3s0 .5.2.5c0 .5.5.8 1 .8.6 0 1-.4 1-1l.4-.5.2.5v.4c0 .5.3 1 1 1 .3 0 .6-.2.8-.5l.2-.2v.3c0 .3 0 .6.4.7 0 0 .4 0 1-.4l.7-.7v.3s-.6.8-1 1c-.3.2-.6.4-1 .3-.2 0-.5-.3-.6-.6-.2.2-.5.2-.7.2-.6 0-1.2-.3-1.4-.8-.3.3-.7.5-1 .5a1.6 1.6 0 0 1-1.3-.7 1.5 1.5 0 0 1-1 .4 1.6 1.6 0 0 1-1.4-.6c-.2.5-.7.7-1.2.7-.4 0-.8 0-1-.4a1.6 1.6 0 0 1-1.3.6 1.5 1.5 0 0 1-1-.6c-.2.5-.8.8-1.4.8-.2 0-.5 0-.7-.2-.2.3-.5.6-.8.6-.3 0-.6 0-1-.2l-1-1 .2-.5.8.6c.5.4 1 .4 1 .4.2 0 .3-.4.3-.7v-.3l.2.2c.2.3.5.5 1 .5.4 0 1-.5 1-1a1 1 0 0 0-.2-.4l.2-.5.3.4c0 .7.5 1 1 1 .6 0 1-.2 1-.7.2 0 .2-.4.2-.4v.4c.3.4.7.7 1.2.7s1-.3 1-1a1 1 0 0 0 0-.2h.2" fill="#c8b100"/><path d="M134.7 210.7h.2a1 1 0 0 0 0 .4c0 .7.4 1 1 1 .4 0 .8-.2 1-.6v-.3s0 .5.2.5c0 .5.5.8 1 .8.6 0 1-.4 1-1l.4-.5.2.5v.4c0 .5.3 1 1 1 .3 0 .6-.2.8-.5l.2-.2v.3c0 .3 0 .6.4.7 0 0 .4 0 1-.4l.7-.7v.3s-.6.8-1 1c-.3.2-.6.4-1 .3-.2 0-.5-.3-.6-.6-.2.2-.5.2-.7.2-.6 0-1.2-.3-1.4-.8-.3.3-.7.5-1 .5a1.6 1.6 0 0 1-1.3-.7 1.5 1.5 0 0 1-1 .4 1.6 1.6 0 0 1-1.4-.6c-.2.5-.7.7-1.2.7-.4 0-.8 0-1-.4a1.6 1.6 0 0 1-1.3.6 1.5 1.5 0 0 1-1-.6c-.2.5-.8.8-1.4.8-.2 0-.5 0-.7-.2-.2.3-.5.6-.8.6-.3 0-.6 0-1-.2l-1-1 .2-.5.8.6c.5.4 1 .4 1 .4.2 0 .3-.4.3-.7v-.3l.2.2c.2.3.5.5 1 .5.4 0 1-.5 1-1a1 1 0 0 0-.2-.4l.2-.5.3.4c0 .7.5 1 1 1 .6 0 1-.2 1-.7.2 0 .2-.4.2-.4v.4c.3.4.7.7 1.2.7s1-.3 1-1a1 1 0 0 0 0-.2h.2z" fill="none" stroke="#000" stroke-width=".3"/><path d="M134.6 213.3c-2.8 0-5.5.4-7.3 1 0 0-.3 0-.3-.2v-.2c2-.6 4.7-1 7.6-1 3 0 5.7.4 7.6 1 0 0 .2.2 0 .3 0 .2 0 .3-.2.2-2-.5-4.5-1-7.4-1" fill="#c8b100"/><path d="M134.6 213.3c-2.8 0-5.5.4-7.3 1 0 0-.3 0-.3-.2v-.2c2-.6 4.7-1 7.6-1 3 0 5.7.4 7.6 1 0 0 .2.2 0 .3 0 .2 0 .3-.2.2-2-.5-4.5-1-7.4-1z" fill="none" stroke="#000" stroke-width=".3" stroke-linejoin="round"/><path d="M131.8 214.4c0-.2.2-.4.5-.4.2 0 .4.2.4.4s-.2.4-.4.4c-.3 0-.5-.2-.5-.4" fill="#fff"/><path d="M131.8 214.4c0-.2.2-.4.5-.4.2 0 .4.2.4.4s-.2.4-.4.4c-.3 0-.5-.2-.5-.4z" fill="none" stroke="#000" stroke-width=".3"/><path d="M134.7 214.5h-1s-.3 0-.3-.3l.3-.3h2a.3.3 0 0 1 .2.2c0 .2-.2.3-.4.3h-1" fill="#ad1519"/><path d="M134.7 214.5h-1s-.3 0-.3-.3l.3-.3h2a.3.3 0 0 1 .2.2c0 .2-.2.3-.4.3h-1" fill="none" stroke="#000" stroke-width=".3"/><path d="M130 215h-.7s-.3 0-.3-.3a.3.3 0 0 1 .2-.3h.7l.6-.2c.2 0 .3 0 .4.2a.3.3 0 0 1-.3.4h-.7" fill="#058e6e"/><path d="M130 215h-.7s-.3 0-.3-.3a.3.3 0 0 1 .2-.3h.7l.6-.2c.2 0 .3 0 .4.2a.3.3 0 0 1-.3.4h-.7" fill="none" stroke="#000" stroke-width=".3"/><path d="M127.3 215.3l.3-.4h.7l-.4.5-.7-.2" fill="#ad1519"/><path d="M127.3 215.3l.3-.4h.7l-.4.5-.7-.2" fill="none" stroke="#000" stroke-width=".3"/><path d="M136.6 214.4c0-.2.2-.4.4-.4.3 0 .4.2.4.4a.4.4 0 0 1-.4.4c-.2 0-.4-.2-.4-.4" fill="#fff"/><path d="M136.6 214.4c0-.2.2-.4.4-.4.3 0 .4.2.4.4a.4.4 0 0 1-.4.4c-.2 0-.4-.2-.4-.4z" fill="none" stroke="#000" stroke-width=".3"/><path d="M139.3 215h.6a.3.3 0 0 0 .3-.3.3.3 0 0 0-.3-.3h-.6l-.7-.2c-.2 0-.3 0-.4.2 0 .2 0 .3.3.4h.7" fill="#058e6e"/><path d="M139.3 215h.6a.3.3 0 0 0 .3-.3.3.3 0 0 0-.3-.3h-.6l-.7-.2c-.2 0-.3 0-.4.2 0 .2 0 .3.3.4h.7" fill="none" stroke="#000" stroke-width=".3"/><path d="M142 215.4l-.3-.6h-.7l.3.7h.6" fill="#ad1519"/><path d="M142 215.4l-.3-.6h-.7l.3.7h.6" fill="none" stroke="#000" stroke-width=".3"/><path d="M134.6 217c-2.3 0-4.4 0-6-.5 1.6-.4 3.7-.7 6-.7 2.4 0 4.5.3 6 .7-1.5.4-3.6.6-6 .6" fill="#ad1519"/><path d="M134.6 217c-2.3 0-4.4 0-6-.5 1.6-.4 3.7-.7 6-.7 2.4 0 4.5.3 6 .7-1.5.4-3.6.6-6 .6z" fill="none" stroke="#000" stroke-width=".3" stroke-linejoin="round"/><path d="M142 212v-.4c-.3 0-.4 0-.5.3 0 0 0 .3.2.3 0 0 .2 0 .3-.3" fill="#c8b100"/><path d="M142 212v-.4c-.3 0-.4 0-.5.3 0 0 0 .3.2.3 0 0 .2 0 .3-.3z" fill="none" stroke="#000" stroke-width=".3"/><path d="M137.4 211.2c0-.2 0-.4-.3-.4v.3c-.2.3 0 .4 0 .5.2 0 .3-.2.4-.4" fill="#c8b100"/><path d="M137.4 211.2c0-.2 0-.4-.3-.4v.3c-.2.3 0 .4 0 .5.2 0 .3-.2.4-.4z" fill="none" stroke="#000" stroke-width=".3"/><path d="M132 211.2c0-.2 0-.4.2-.4 0 0 .2 0 .2.3s0 .4-.2.5l-.2-.4" fill="#c8b100"/><path d="M132 211.2c0-.2 0-.4.2-.4 0 0 .2 0 .2.3s0 .4-.2.5l-.2-.4z" fill="none" stroke="#000" stroke-width=".3"/><path d="M127.3 212v-.4c.3 0 .4 0 .5.3 0 0 0 .3-.2.3 0 0-.2 0-.3-.3" fill="#c8b100"/><path d="M127.3 212v-.4c.3 0 .4 0 .5.3 0 0 0 .3-.2.3 0 0-.2 0-.3-.3z" fill="none" stroke="#000" stroke-width=".3"/><path d="M134.6 208.5l-.8.5.6 1.3h.4l.7-1.3-1-.5" fill="#c8b100"/><path d="M134.6 208.5l-.8.5.6 1.3h.4l.7-1.3-1-.5" fill="none" stroke="#000" stroke-width=".3"/><path d="M132.8 210.5l.4.5 1.3-.4v-.2l-1.3-.5-.4.5" fill="#c8b100"/><path d="M132.8 210.5l.4.5 1.3-.4v-.2l-1.3-.5-.4.5" fill="none" stroke="#000" stroke-width=".3"/><path d="M136.4 210.5l-.3.5-1.2-.4v-.2l1.3-.5.5.5" fill="#c8b100"/><path d="M136.4 210.5l-.3.5-1.2-.4v-.2l1.3-.5.5.5" fill="none" stroke="#000" stroke-width=".3"/><path d="M129.3 209l-.7.7 1 1h.2l.3-1.3-.7-.3" fill="#c8b100"/><path d="M129.3 209l-.7.7 1 1h.2l.3-1.3-.7-.3" fill="none" stroke="#000" stroke-width=".3"/><path d="M128 211.2l.4.5 1.2-.6v-.3H128l-.3.5" fill="#c8b100"/><path d="M128 211.2l.4.5 1.2-.6v-.3H128l-.3.5" fill="none" stroke="#000" stroke-width=".3"/><path d="M131.5 210.5l-.3.6h-1.6v-.4l1.3-.6.5.5" fill="#c8b100"/><path d="M131.5 210.5l-.3.6h-1.6v-.4l1.3-.6.5.5" fill="none" stroke="#000" stroke-width=".3"/><path d="M126.6 211.4v.6l-1.4.2h-.2v-.3l1-1 .6.4" fill="#c8b100"/><path d="M126.6 211.4v.6l-1.4.2h-.2v-.3l1-1 .6.4" fill="none" stroke="#000" stroke-width=".3"/><path d="M129.2 211c0-.4.2-.6.5-.6s.5.2.5.5a.5.5 0 0 1-.5.3.5.5 0 0 1-.5-.4" fill="#c8b100"/><path d="M129.2 211c0-.4.2-.6.5-.6s.5.2.5.5a.5.5 0 0 1-.5.3.5.5 0 0 1-.5-.4z" fill="none" stroke="#000" stroke-width=".3"/><path d="M140 209l.7.7-1 1h-.2l-.3-1.3.8-.3" fill="#c8b100"/><path d="M140 209l.7.7-1 1h-.2l-.3-1.3.8-.3" fill="none" stroke="#000" stroke-width=".3"/><path d="M141.4 211.2l-.5.5-1.3-.6v-.3h1.4l.4.5" fill="#c8b100"/><path d="M141.4 211.2l-.5.5-1.3-.6v-.3h1.4l.4.5" fill="none" stroke="#000" stroke-width=".3"/><path d="M137.8 210.5l.3.6h1.6v-.4l-1.3-.6-.5.5" fill="#c8b100"/><path d="M137.8 210.5l.3.6h1.6v-.4l-1.3-.6-.5.5" fill="none" stroke="#000" stroke-width=".3"/><path d="M142.5 211.4v.6l1.4.2v-.3l-1-1-.5.4" fill="#c8b100"/><path d="M142.5 211.4v.6l1.4.2v-.3l-1-1-.5.4" fill="none" stroke="#000" stroke-width=".3"/><path d="M134.2 210.4a.5.5 0 0 1 .4-.4c.3 0 .5.2.5.4a.5.5 0 0 1-.4.5.5.5 0 0 1-.4-.6" fill="#c8b100"/><path d="M134.2 210.4a.5.5 0 0 1 .4-.4c.3 0 .5.2.5.4a.5.5 0 0 1-.4.5.5.5 0 0 1-.4-.6z" fill="none" stroke="#000" stroke-width=".3"/><path d="M139 211c0-.4.4-.6.6-.6a.5.5 0 0 1 .5.5.5.5 0 0 1-.4.3.5.5 0 0 1-.5-.4" fill="#c8b100"/><path d="M139 211c0-.4.4-.6.6-.6a.5.5 0 0 1 .5.5.5.5 0 0 1-.4.3.5.5 0 0 1-.5-.4z" fill="none" stroke="#000" stroke-width=".3"/><path d="M124.8 212.2l-.6-.7-.7-.4h.6a.5.5 0 0 1 .5 0s.3 0 .4.2v.7l-.2.2" fill="#c8b100"/><path d="M124.8 212.2l-.6-.7-.7-.4h.6a.5.5 0 0 1 .5 0s.3 0 .4.2v.7l-.2.2z" fill="none" stroke="#000" stroke-width=".3"/><path d="M124.8 212c0-.2.4-.2.5 0 .2 0 .3.3.2.5h-.6c-.2-.2-.3-.5-.2-.6" fill="#c8b100"/><path d="M124.8 212c0-.2.4-.2.5 0 .2 0 .3.3.2.5h-.6c-.2-.2-.3-.5-.2-.6z" fill="none" stroke="#000" stroke-width=".3"/><path d="M144.3 212.2l.6-.7c0-.2.6-.4.6-.4h-1s-.3 0-.4.2v.7" fill="#c8b100"/><path d="M144.3 212.2l.6-.7c0-.2.6-.4.6-.4h-1s-.3 0-.4.2v.7z" fill="none" stroke="#000" stroke-width=".3"/><path d="M144.3 212c0-.2-.3-.2-.5 0-.2 0-.2.3 0 .5h.4c.2-.2.2-.5 0-.6" fill="#c8b100"/><path d="M144.3 212c0-.2-.3-.2-.5 0-.2 0-.2.3 0 .5h.4c.2-.2.2-.5 0-.6z" fill="none" stroke="#000" stroke-width=".3"/><path d="M124 223h21.4v-5.5H124v5.6z" fill="#c8b100"/><path d="M124 223h21.4v-5.5H124v5.6z" fill="none" stroke="#000" stroke-width=".4"/><path d="M126.2 226.8a1 1 0 0 1 .4 0H143c-.5-.2-.8-.7-.8-1.2 0-.6.4-1 1-1.3h-16.5a1.4 1.4 0 0 1-.5 0c.6.2 1 .7 1 1.3a1.3 1.3 0 0 1-1 1.2" fill="#c8b100"/><path d="M126.2 226.8a1 1 0 0 1 .4 0H143c-.5-.2-.8-.7-.8-1.2 0-.6.4-1 1-1.3h-16.5a1.4 1.4 0 0 1-.5 0c.6.2 1 .7 1 1.3a1.3 1.3 0 0 1-1 1.2z" fill="none" stroke="#000" stroke-width=".4" stroke-linejoin="round"/><path d="M126.6 226.7h16c.6 0 1 .4 1 .8s-.4.7-1 .7h-16c-.5 0-1-.3-1-.7 0-.4.5-.8 1-.8" fill="#c8b100"/><path d="M126.6 226.7h16c.6 0 1 .4 1 .8s-.4.7-1 .7h-16c-.5 0-1-.3-1-.7 0-.4.5-.8 1-.8z" fill="none" stroke="#000" stroke-width=".4"/><path d="M126.6 223h16c.6 0 1 .4 1 .7 0 .4-.4.6-1 .6h-16c-.5 0-1-.2-1-.6 0-.3.5-.6 1-.6" fill="#c8b100"/><path d="M126.6 223h16c.6 0 1 .4 1 .7 0 .4-.4.6-1 .6h-16c-.5 0-1-.2-1-.6 0-.3.5-.6 1-.6z" fill="none" stroke="#000" stroke-width=".4"/><path d="M149.6 317.4c-1.4 0-2.8-.3-3.7-.8-1-.5-2.4-.8-4-.8-1.3 0-2.6.3-3.6.8s-2.3.8-3.8.8-2.8-.3-3.7-.8c-1-.5-2.4-.8-3.8-.8s-2.7.3-3.7.8-2.3.8-3.8.8v2.4c1.5 0 2.8-.4 3.8-1 1-.4 2.3-.7 3.7-.7 1.4 0 2.7.4 3.7 1 .8.4 2 .8 3.6.8 1.5 0 2.8-.4 3.8-1 1-.4 2.3-.7 3.7-.7 1.6 0 3 .4 4 1 .8.5 2 .8 3.6.8v-2.4" fill="#005bbf"/><path d="M149.6 317.4c-1.4 0-2.8-.3-3.7-.8-1-.5-2.4-.8-4-.8-1.3 0-2.6.3-3.6.8s-2.3.8-3.8.8-2.8-.3-3.7-.8c-1-.5-2.4-.8-3.8-.8s-2.7.3-3.7.8-2.3.8-3.8.8v2.4c1.5 0 2.8-.4 3.8-1 1-.4 2.3-.7 3.7-.7 1.4 0 2.7.4 3.7 1 .8.4 2 .8 3.6.8 1.5 0 2.8-.4 3.8-1 1-.4 2.3-.7 3.7-.7 1.6 0 3 .4 4 1 .8.5 2 .8 3.6.8v-2.4z" fill="none" stroke="#000" stroke-width=".4"/><path d="M149.6 319.8c-1.4 0-2.8-.3-3.7-1-1-.4-2.4-.7-4-.7-1.3 0-2.6.4-3.6 1-1 .4-2.3.8-3.8.8s-2.8-.4-3.7-1c-1-.4-2.4-.7-3.8-.7s-2.7.4-3.7 1c-1 .4-2.3.8-3.8.8v2.3c1.5 0 2.8-.3 3.8-.8s2.3-.7 3.7-.7c1.4 0 2.7.2 3.7.7.8.5 2 1 3.6 1 1.5 0 2.8-.4 3.8-1 1-.4 2.3-.7 3.7-.7 1.6 0 3 .3 4 .8.8.5 2 .8 3.6.8V320" fill="#ccc"/><path d="M149.6 319.8c-1.4 0-2.8-.3-3.7-1-1-.4-2.4-.7-4-.7-1.3 0-2.6.4-3.6 1-1 .4-2.3.8-3.8.8s-2.8-.4-3.7-1c-1-.4-2.4-.7-3.8-.7s-2.7.4-3.7 1c-1 .4-2.3.8-3.8.8v2.3c1.5 0 2.8-.3 3.8-.8s2.3-.7 3.7-.7c1.4 0 2.7.2 3.7.7.8.5 2 1 3.6 1 1.5 0 2.8-.4 3.8-1 1-.4 2.3-.7 3.7-.7 1.6 0 3 .3 4 .8.8.5 2 .8 3.6.8V320" fill="none" stroke="#000" stroke-width=".4"/><path d="M149.6 322c-1.4 0-2.8-.2-3.7-.8-1-.4-2.4-.7-4-.7-1.3 0-2.6.3-3.6.8s-2.3.8-3.8.8-2.8-.3-3.7-.8c-1-.5-2.4-.7-3.8-.7s-2.7.2-3.7.7c-1 .5-2.3 1-3.8 1v2.2c1.5 0 2.8-.3 3.8-1 1-.4 2.3-.6 3.7-.6 1.4 0 2.7.3 3.7.7.8.5 2 1 3.6 1 1.5 0 2.8-.4 3.8-1 1-.4 2.3-.7 3.7-.7 1.6 0 3 .3 4 .8.8.5 2 .8 3.6.8V322" fill="#005bbf"/><path d="M149.6 322c-1.4 0-2.8-.2-3.7-.8-1-.4-2.4-.7-4-.7-1.3 0-2.6.3-3.6.8s-2.3.8-3.8.8-2.8-.3-3.7-.8c-1-.5-2.4-.7-3.8-.7s-2.7.2-3.7.7c-1 .5-2.3 1-3.8 1v2.2c1.5 0 2.8-.3 3.8-1 1-.4 2.3-.6 3.7-.6 1.4 0 2.7.3 3.7.7.8.5 2 1 3.6 1 1.5 0 2.8-.4 3.8-1 1-.4 2.3-.7 3.7-.7 1.6 0 3 .3 4 .8.8.5 2 .8 3.6.8V322" fill="none" stroke="#000" stroke-width=".4"/><path d="M149.6 326.7c-1.5 0-2.8-.3-3.7-.8-1-.6-2.4-1-4-1-1.3 0-2.6.4-3.6 1-1 .4-2.3.7-3.8.7s-2.8-.3-3.7-1c-1-.3-2.4-.6-3.8-.6s-2.7.4-3.7 1c-1 .4-2.3.7-3.8.7v-2.3c1.5 0 2.8-.3 3.8-1 1-.4 2.3-.6 3.7-.6 1.4 0 2.7.3 3.7.7.8.5 2 1 3.6 1 1.5 0 2.8-.4 3.8-1 1-.4 2.3-.7 3.7-.7 1.6 0 3 .3 4 .8.8.5 2 .8 3.6.8v2.3" fill="#ccc"/><path d="M149.6 326.7c-1.5 0-2.8-.3-3.7-.8-1-.6-2.4-1-4-1-1.3 0-2.6.4-3.6 1-1 .4-2.3.7-3.8.7s-2.8-.3-3.7-1c-1-.3-2.4-.6-3.8-.6s-2.7.4-3.7 1c-1 .4-2.3.7-3.8.7v-2.3c1.5 0 2.8-.3 3.8-1 1-.4 2.3-.6 3.7-.6 1.4 0 2.7.3 3.7.7.8.5 2 1 3.6 1 1.5 0 2.8-.4 3.8-1 1-.4 2.3-.7 3.7-.7 1.6 0 3 .3 4 .8.8.5 2 .8 3.6.8v2.3" fill="none" stroke="#000" stroke-width=".4"/><path d="M149.6 329c-1.5 0-2.8-.3-3.7-.8-1-.5-2.4-.8-4-.8-1.3 0-2.6.3-3.6.8s-2.3.8-3.8.8-2.8-.3-3.7-.8c-1-.5-2.4-.8-3.8-.8s-2.7.3-3.7.8-2.3.8-3.8.8v-2.3c1.5 0 2.8-.3 3.8-.8 1-.6 2.3-1 3.7-1 1.4 0 2.7.4 3.7.8.8.6 2 1 3.6 1 1.5 0 2.8-.4 3.8-1 1-.4 2.3-.7 3.7-.7 1.6 0 3 .4 4 1 .8.4 2 .7 3.6.7v2.3" fill="#005bbf"/><path d="M149.6 329c-1.5 0-2.8-.3-3.7-.8-1-.5-2.4-.8-4-.8-1.3 0-2.6.3-3.6.8s-2.3.8-3.8.8-2.8-.3-3.7-.8c-1-.5-2.4-.8-3.8-.8s-2.7.3-3.7.8-2.3.8-3.8.8v-2.3c1.5 0 2.8-.3 3.8-.8 1-.6 2.3-1 3.7-1 1.4 0 2.7.4 3.7.8.8.6 2 1 3.6 1 1.5 0 2.8-.4 3.8-1 1-.4 2.3-.7 3.7-.7 1.6 0 3 .4 4 1 .8.4 2 .7 3.6.7v2.3z" fill="none" stroke="#000" stroke-width=".4"/><path d="M126.2 308l.2.5c0 1.4-1.2 2.6-2.7 2.6h22c-1.5 0-2.7-1-2.7-2.5v-.5a1.3 1.3 0 0 1-.3 0h-16.5" fill="#c8b100"/><path d="M126.2 308l.2.5c0 1.4-1.2 2.6-2.7 2.6h22c-1.5 0-2.7-1-2.7-2.5v-.5a1.3 1.3 0 0 1-.3 0h-16.5z" fill="none" stroke="#000" stroke-width=".4" stroke-linejoin="round"/><path d="M126.6 306.5h16c.6 0 1 .3 1 .7 0 .5-.4.8-1 .8h-16c-.5 0-1-.3-1-.7 0-.5.5-.8 1-.8" fill="#c8b100"/><path d="M126.6 306.5h16c.6 0 1 .3 1 .7 0 .5-.4.8-1 .8h-16c-.5 0-1-.3-1-.7 0-.5.5-.8 1-.8z" fill="none" stroke="#000" stroke-width=".4"/><path d="M123.7 316.7h22V311h-22v5.7z" fill="#c8b100"/><path d="M123.7 316.7h22V311h-22v5.7z" fill="none" stroke="#000" stroke-width=".4"/><path d="M122 286.7c-2.2 1.2-3.7 2.5-3.4 3.2 0 .4.8 1 1.8 1.5 1.5 1 2.5 3 1.7 4 1.4-1 2.2-2.6 2.2-4.4 0-1.7-.8-3.3-2.2-4.3" fill="#ad1519"/><path d="M122 286.7c-2.2 1.2-3.7 2.5-3.4 3.2 0 .4.8 1 1.8 1.5 1.5 1 2.5 3 1.7 4 1.4-1 2.2-2.6 2.2-4.4 0-1.7-.8-3.3-2.2-4.3z" fill="none" stroke="#000" stroke-width=".4"/><path d="M126.8 305.6h15.6V229h-15.6v76.6z" fill="#ccc"/><path d="M138 229.2v76.3m1.7-76.3v76.3m-13 0h15.7v-76.4h-15.6v76.6z" fill="none" stroke="#000" stroke-width=".4"/><path d="M158.4 257.7c-3.4-1.4-9.2-2.4-15.8-2.6-2.3 0-5 .3-7.5.7-9.3 1.6-16.4 5.3-15.8 8.4v.3l-3.5-8.2c-.6-3.2 7.3-7.4 17.6-9 3.3-.6 6.4-1 9.2-.8 6.6 0 12.4.8 15.8 2v9.5" fill="#ad1519"/><path d="M158.4 257.7c-3.4-1.4-9.2-2.4-15.8-2.6-2.3 0-5 .3-7.5.7-9.3 1.6-16.4 5.3-15.8 8.4v.3l-3.5-8.2c-.6-3.2 7.3-7.4 17.6-9 3.3-.6 6.4-1 9.2-.8 6.6 0 12.4.8 15.8 2v9.5" fill="none" stroke="#000" stroke-width=".4" stroke-linejoin="round"/><path d="M126.8 267.3c-4.3-.3-7.3-1.4-7.6-3.2-.3-1.4 1.2-3 3.8-4.4 1.2 0 2.5.3 3.8.3v7.3" fill="#ad1519"/><path d="M126.8 267.3c-4.3-.3-7.3-1.4-7.6-3.2-.3-1.4 1.2-3 3.8-4.4 1.2 0 2.5.3 3.8.3v7.3" fill="none" stroke="#000" stroke-width=".4"/><path d="M142.5 261.5c2.7.4 4.7 1 5.7 2 .6 1-1.8 3.2-5.7 5.5v-7.5" fill="#ad1519"/><path d="M142.5 261.5c2.7.4 4.7 1 5.7 2 .6 1-1.8 3.2-5.7 5.5v-7.5" fill="none" stroke="#000" stroke-width=".4"/><path d="M117 282c-.3-1.2 4-3.6 10-5.8l7.7-3.2c8.2-3.7 14.4-8 13.6-9.4v-.2c.4.4 1 8 1 8 .8 1.3-4.8 5.5-12.4 9-2.6 1.3-7.7 3.2-10 4-4.5 1.6-8.8 4.4-8.4 5.5l-1.5-8" fill="#ad1519"/><path d="M117 282c-.3-1.2 4-3.6 10-5.8l7.7-3.2c8.2-3.7 14.4-8 13.6-9.4v-.2c.4.4 1 8 1 8 .8 1.3-4.8 5.5-12.4 9-2.6 1.3-7.7 3.2-10 4-4.5 1.6-8.8 4.4-8.4 5.5l-1.5-8z" fill="none" stroke="#000" stroke-width=".4" stroke-linejoin="round"/><path d="M125.8 254c2-.6 3-1.4 2.5-3-.4-1-1.4-1-2.8-.6l-2.6 1 2.2 5.8c.3 0 .5-.2.8-.3l.8-.4-1-2.5zm-1.2-2.7l.7-.3c.5-.2 1.2 0 1.4.8.2.5.2 1-.4 1.5a4.4 4.4 0 0 1-.7.3l-1-2.3m7.3-2.5c-.4 0-.7.2-1 .3-.2 0-.5 0-.8.2l1.4 6 4.2-.8-.2-.4v-.4l-2.5.6-1-5.3m8.3 5l2.7-6.4a5.3 5.3 0 0 1-1 0c-.5 1.7-1.2 3.2-1.8 4.7l-2.4-4.3h-2a131.4 131.4 0 0 1 3.5 6h1m8.8-4.6l.6-.8c-.3-.3-1-.6-1.8-.7-1.7-.2-2.7.5-2.8 1.6-.2 2 3.2 2 3 3.4 0 .6-.7 1-1.4.8-.8 0-1.4-.5-1.5-1v-.2a7.3 7.3 0 0 1-.5 1c.5.5 1 .6 1.8.7 1.7.2 3-.5 3.2-1.7.2-2-3.3-2.2-3-3.4 0-.5.3-.8 1.2-.7.7 0 1 .4 1.2 1" fill="#c8b100"/><path d="M278 211.6s-1 .7-1.4 1c-.5 0-1-.6-1-.6s-.6.5-1.2.6c-.5 0-1.3-.6-1.3-.6s-.5.7-1 1c-.4 0-1-.3-1-.3s-.3.4-.7.6h-.4l-.7-.4-.6-.8-.6-.3-.2-1v-.6c-.2-.7.7-1.4 2-1.7 1-.2 1.6-.2 2 0 .6-.5 1.8-.8 3-.8 1.4 0 2.5.2 3 .6.6-.4 1.7-.7 3-.7s2.5.2 3 .7c.5-.2 1.2-.2 2 0 1.4.3 2.3 1 2.2 1.7v.5l-.4 1-.6.2-.6.7-.6.2s-.3.2-.4 0c-.4 0-.7-.5-.7-.5s-.6.4-1 .2c-.5-.3-1-1-1-1s-1 .7-1.4.6c-.6 0-1-.6-1-.6s-.7.6-1.2.5c-.4-.2-1-1-1-1" fill="#ad1519"/><path d="M278 211.6s-1 .7-1.4 1c-.5 0-1-.6-1-.6s-.6.5-1.2.6c-.5 0-1.3-.6-1.3-.6s-.5.7-1 1c-.4 0-1-.3-1-.3s-.3.4-.7.6h-.4l-.7-.4-.6-.8-.6-.3-.2-1v-.6c-.2-.7.7-1.4 2-1.7 1-.2 1.6-.2 2 0 .6-.5 1.8-.8 3-.8 1.4 0 2.5.2 3 .6.6-.4 1.7-.7 3-.7s2.5.2 3 .7c.5-.2 1.2-.2 2 0 1.4.3 2.3 1 2.2 1.7v.5l-.4 1-.6.2-.6.7-.6.2s-.3.2-.4 0c-.4 0-.7-.5-.7-.5s-.6.4-1 .2c-.5-.3-1-1-1-1s-1 .7-1.4.6c-.6 0-1-.6-1-.6s-.7.6-1.2.5c-.4-.2-1-1-1-1z" fill="none" stroke="#000" stroke-width=".3"/><path d="M276.5 207.6c0-1 .6-2 1.3-2 .8 0 1.4 1 1.4 2s-.6 1.8-1.4 1.8c-.7 0-1.3-.8-1.3-2" fill="#c8b100"/><path d="M276.5 207.6c0-1 .6-2 1.3-2 .8 0 1.4 1 1.4 2s-.6 1.8-1.4 1.8c-.7 0-1.3-.8-1.3-2z" fill="none" stroke="#000" stroke-width=".3"/><path d="M277.2 207.6c0-1 .3-1.8.7-1.8.2 0 .5.8.5 1.7 0 1-.3 1.8-.6 1.8-.5 0-.8-.8-.8-1.8" fill="#c8b100"/><path d="M277.2 207.6c0-1 .3-1.8.7-1.8.2 0 .5.8.5 1.7 0 1-.3 1.8-.6 1.8-.5 0-.8-.8-.8-1.8z" fill="none" stroke="#000" stroke-width=".3"/><path d="M271 215.3a4.5 4.5 0 0 0-.5-1c1.8-.6 4.4-1 7.3-1 3 0 5.6.4 7.4 1l-.5.8c0 .4-.3 1-.3 1-1.7-.6-4-1-6.6-1-2.6 0-5.2.4-6.6 1 0 0 0-.4-.2-.7" fill="#c8b100"/><path d="M271 215.3a4.5 4.5 0 0 0-.5-1c1.8-.6 4.4-1 7.3-1 3 0 5.6.4 7.4 1l-.5.8c0 .4-.3 1-.3 1-1.7-.6-4-1-6.6-1-2.6 0-5.2.4-6.6 1 0 0 0-.4-.2-.7" fill="none" stroke="#000" stroke-width=".3"/><path d="M277.8 217.7c2.4 0 5-.4 6-.6.5 0 1-.4.8-.7 0-.2 0-.3-.3-.4-1.4-.6-4-1-6.5-1s-5 .4-6.4 1c-.2 0-.3 0-.4.3 0 .3.3.6 1 .8 1 .3 3.5.7 5.8.7" fill="#c8b100"/><path d="M277.8 217.7c2.4 0 5-.4 6-.6.5 0 1-.4.8-.7 0-.2 0-.3-.3-.4-1.4-.6-4-1-6.5-1s-5 .4-6.4 1c-.2 0-.3 0-.4.3 0 .3.3.6 1 .8 1 .3 3.5.7 5.8.7z" fill="none" stroke="#000" stroke-width=".3"/><path d="M283.5 208.4c0-.2.2-.4.4-.4s.4.2.4.4-.2.4-.5.4a.4.4 0 0 1-.5-.4" fill="#fff"/><path d="M283.5 208.4c0-.2.2-.4.4-.4s.4.2.4.4-.2.4-.5.4a.4.4 0 0 1-.5-.4zm-.2-1.4a.4.4 0 0 1 .4-.5c.2 0 .4.2.4.5 0 .2 0 .4-.3.4a.4.4 0 0 1-.4-.4zm-1-1c0-.2 0-.4.3-.4.2 0 .4.2.4.5s-.2.5-.4.5a.4.4 0 0 1-.4-.4zm-1.5-.4c0-.2.2-.4.5-.4.2 0 .4.2.4.4s-.2.4-.4.4c-.3 0-.5-.2-.5-.4zm-1.4 0c0-.2.2-.3.5-.3 0 0 .3 0 .3.4 0 .2-.2.4-.4.4a.4.4 0 0 1-.6-.3z" fill="none" stroke="#000" stroke-width=".2"/><path d="M287.8 211.2l.2-1c0-1.6-1.2-2.8-2.7-2.8-.5 0-1 0-1.3.3" fill="none" stroke="#000" stroke-width=".3" stroke-linecap="round"/><path d="M283 209.2l.2-.8c0-1-1-2-2.5-2-.6 0-1.2.2-1.6.4" fill="none" stroke="#000" stroke-width=".3"/><path d="M288.2 210c0-.3.2-.5.4-.5s.4.2.4.4-.2.3-.4.3-.4 0-.4-.4zm-.2-1.6c0-.2.2-.4.4-.4a.4.4 0 0 1 .5.4c0 .2-.3.4-.6.4-.2 0-.4-.2-.4-.4zm-1-1a.4.4 0 0 1 .5-.6c.2 0 .4.2.4.5a.4.4 0 0 1-.5.4.4.4 0 0 1-.5-.4zm-1.3-.8c0-.2.2-.4.5-.4s.4.2.4.4c0 .3-.2.5-.4.5a.4.4 0 0 1-.5-.4zm-1.4 0s.2-.3.5-.3.4.2.4.4-.2.4-.4.4c-.3 0-.5 0-.5-.3z" fill="none" stroke="#000" stroke-width=".2"/><path d="M285.3 213.2l-.5-.5s-.6.3-1.2.2c-.7-.2-1-1-1-1s-.7.6-1.3.6c-.6 0-1-.6-1-.6s-.7.5-1.3.4c-.6 0-1.2-.8-1.2-.8s-.6.8-1.2 1c-.6 0-1-.7-1-.7s-.3.5-1 .6c-1 .2-1.5-.6-1.5-.6s-.3.7-1 1c-.4 0-1-.3-1-.3l-.2.4c0 .2-.3.3-.3.3v.4c2-.5 4.5-1 7.4-1 2.7 0 5.3.5 7.2 1v-.5" fill="#c8b100"/><path d="M285.3 213.2l-.5-.5s-.6.3-1.2.2c-.7-.2-1-1-1-1s-.7.6-1.3.6c-.6 0-1-.6-1-.6s-.7.5-1.3.4c-.6 0-1.2-.8-1.2-.8s-.6.8-1.2 1c-.6 0-1-.7-1-.7s-.3.5-1 .6c-1 .2-1.5-.6-1.5-.6s-.3.7-1 1c-.4 0-1-.3-1-.3l-.2.4c0 .2-.3.3-.3.3v.4c2-.5 4.5-1 7.4-1 2.7 0 5.3.5 7.2 1v-.5z" fill="none" stroke="#000" stroke-width=".3"/><path d="M271.3 208.4c0-.2.2-.4.4-.4s.4.2.4.4a.4.4 0 0 1-.3.4c-.2 0-.4-.2-.4-.4" fill="#fff"/><path d="M271.3 208.4c0-.2.2-.4.4-.4s.4.2.4.4a.4.4 0 0 1-.3.4c-.2 0-.4-.2-.4-.4zm.2-1.4c0-.3.2-.5.4-.5s.4.2.4.5c0 .2-.2.4-.5.4s-.5-.2-.5-.4zm1-1c0-.2.3-.4.5-.4.3 0 .5.2.5.5s-.2.5-.5.5a.4.4 0 0 1-.4-.4zm1.4-.4c0-.2 0-.4.4-.4.2 0 .4.2.4.4s-.2.4-.4.4c-.3 0-.5-.2-.5-.4zm1.3 0c0-.2.2-.3.5-.3.2 0 .4 0 .4.4 0 .2-.2.4-.4.4a.4.4 0 0 1-.5-.3z" fill="none" stroke="#000" stroke-width=".2"/><path d="M267.8 211.2a2.8 2.8 0 0 1-.2-1c0-1.6 1.2-2.8 2.7-2.8.5 0 1 0 1.4.3" fill="none" stroke="#000" stroke-width=".3" stroke-linecap="round"/><path d="M272.7 209.2c0-.2-.3-.5-.3-.8 0-1 1.2-2 2.6-2a3 3 0 0 1 1.5.4" fill="none" stroke="#000" stroke-width=".3"/><path d="M266.6 210c0-.3.2-.5.4-.5.3 0 .5.2.5.4a.4.4 0 0 1-.5.3c-.2 0-.4 0-.4-.4zm0-1.6c0-.2.3-.4.6-.4.2 0 .4.2.4.4s-.2.4-.4.4c-.3 0-.4-.2-.4-.4zm1-1c0-.4.3-.6.6-.6a.4.4 0 0 1 .4.5.4.4 0 0 1-.4.4.4.4 0 0 1-.5-.4zm1.4-.8c0-.2.2-.4.5-.4.2 0 .4.2.4.4 0 .3-.3.5-.5.5a.4.4 0 0 1-.5-.4zm1.4 0s.2-.3.5-.3a.4.4 0 0 1 .3.4.4.4 0 0 1-.4.4c-.4 0-.6 0-.6-.3z" fill="none" stroke="#000" stroke-width=".2"/><path d="M278 210.7a1 1 0 0 0 0 .4c0 .7.6 1 1 1 .6 0 1-.2 1.2-.6v-.3c.2 0 0 .5.2.5 0 .5.5.8 1 .8.6 0 1-.4 1-1l.4-.5.2.5a1 1 0 0 0 0 .4c0 .5.3 1 1 1 .3 0 .6-.2.8-.5l.2-.2v.3c0 .3 0 .6.4.7 0 0 .4 0 1-.4l.7-.7v.3s-.4.8-.8 1c-.3.2-.6.4-1 .3-.2 0-.5-.3-.6-.6a1.5 1.5 0 0 1-.7.2c-.7 0-1.3-.3-1.5-.8a1.5 1.5 0 0 1-1 .5c-.6 0-1-.3-1.3-.7a1.5 1.5 0 0 1-1 .4c-.6 0-1-.2-1.3-.6-.4.5-1 .7-1.4.7-.4 0-.8 0-1-.4a1.6 1.6 0 0 1-1.3.6c-.4 0-.8-.3-1-.6-.3.5-1 .8-1.5.8-.2 0-.5 0-.7-.2 0 .3-.3.6-.6.6s-.6 0-1-.2l-1-1 .2-.5.8.6c.5.4 1 .4 1 .4.2 0 .3-.4.3-.7v-.3l.2.2c0 .3.4.5.8.5.6 0 1-.5 1-1a1 1 0 0 0 0-.4v-.5l.4.4c0 .7.5 1 1 1 .6 0 1-.2 1-.7.2 0 .2-.4.2-.4v.4c.3.4.7.7 1.2.7s1-.3 1-1a1 1 0 0 0 0-.2h.3" fill="#c8b100"/><path d="M278 210.7a1 1 0 0 0 0 .4c0 .7.6 1 1 1 .6 0 1-.2 1.2-.6v-.3c.2 0 0 .5.2.5 0 .5.5.8 1 .8.6 0 1-.4 1-1l.4-.5.2.5a1 1 0 0 0 0 .4c0 .5.3 1 1 1 .3 0 .6-.2.8-.5l.2-.2v.3c0 .3 0 .6.4.7 0 0 .4 0 1-.4l.7-.7v.3s-.4.8-.8 1c-.3.2-.6.4-1 .3-.2 0-.5-.3-.6-.6a1.5 1.5 0 0 1-.7.2c-.7 0-1.3-.3-1.5-.8a1.5 1.5 0 0 1-1 .5c-.6 0-1-.3-1.3-.7a1.5 1.5 0 0 1-1 .4c-.6 0-1-.2-1.3-.6-.4.5-1 .7-1.4.7-.4 0-.8 0-1-.4a1.6 1.6 0 0 1-1.3.6c-.4 0-.8-.3-1-.6-.3.5-1 .8-1.5.8-.2 0-.5 0-.7-.2 0 .3-.3.6-.6.6s-.6 0-1-.2l-1-1 .2-.5.8.6c.5.4 1 .4 1 .4.2 0 .3-.4.3-.7v-.3l.2.2c0 .3.4.5.8.5.6 0 1-.5 1-1a1 1 0 0 0 0-.4v-.5l.4.4c0 .7.5 1 1 1 .6 0 1-.2 1-.7.2 0 .2-.4.2-.4v.4c.3.4.7.7 1.2.7s1-.3 1-1a1 1 0 0 0 0-.2h.3z" fill="none" stroke="#000" stroke-width=".3"/><path d="M277.8 213.3c-3 0-5.4.4-7.3 1 0 0-.3 0-.3-.2v-.2c2-.6 4.7-1 7.6-1 3 0 5.7.4 7.6 1 0 0 .2.2 0 .3 0 .2 0 .3-.2.2-2-.5-4.5-1-7.4-1" fill="#c8b100"/><path d="M277.8 213.3c-3 0-5.4.4-7.3 1 0 0-.3 0-.3-.2v-.2c2-.6 4.7-1 7.6-1 3 0 5.7.4 7.6 1 0 0 .2.2 0 .3 0 .2 0 .3-.2.2-2-.5-4.5-1-7.4-1z" fill="none" stroke="#000" stroke-width=".3"/><path d="M275 214.4c0-.2.2-.4.5-.4.2 0 .4.2.4.4a.4.4 0 0 1-.5.4c-.3 0-.5-.2-.5-.4" fill="#fff"/><path d="M275 214.4c0-.2.2-.4.5-.4.2 0 .4.2.4.4a.4.4 0 0 1-.5.4c-.3 0-.5-.2-.5-.4z" fill="none" stroke="#000" stroke-width=".3"/><path d="M278 214.5h-1c-.2 0-.4 0-.4-.3l.3-.3h1.8a.3.3 0 0 1 .3.2c0 .2 0 .3-.2.3h-1" fill="#ad1519"/><path d="M278 214.5h-1c-.2 0-.4 0-.4-.3l.3-.3h1.8a.3.3 0 0 1 .3.2c0 .2 0 .3-.2.3h-1" fill="none" stroke="#000" stroke-width=".3"/><path d="M273.2 215h-.6a.3.3 0 0 1-.4-.3.3.3 0 0 1 .2-.3h.7l.8-.2c.2 0 .3 0 .4.2a.3.3 0 0 1-.3.4h-.8" fill="#058e6e"/><path d="M273.2 215h-.6a.3.3 0 0 1-.4-.3.3.3 0 0 1 .2-.3h.7l.8-.2c.2 0 .3 0 .4.2a.3.3 0 0 1-.3.4h-.8" fill="none" stroke="#000" stroke-width=".3"/><path d="M270.5 215.3l.3-.4h.7l-.4.5-.5-.2" fill="#ad1519"/><path d="M270.5 215.3l.3-.4h.7l-.4.5-.5-.2" fill="none" stroke="#000" stroke-width=".3"/><path d="M279.8 214.4c0-.2.2-.4.4-.4.3 0 .5.2.5.4s-.2.4-.5.4c-.2 0-.4-.2-.4-.4" fill="#fff"/><path d="M279.8 214.4c0-.2.2-.4.4-.4.3 0 .5.2.5.4s-.2.4-.5.4c-.2 0-.4-.2-.4-.4z" fill="none" stroke="#000" stroke-width=".3"/><path d="M282.5 215h.6a.3.3 0 0 0 .5-.3.3.3 0 0 0-.3-.3h-.6l-.7-.2c-.3 0-.4 0-.5.2 0 .2 0 .3.3.4h.7" fill="#058e6e"/><path d="M282.5 215h.6a.3.3 0 0 0 .5-.3.3.3 0 0 0-.3-.3h-.6l-.7-.2c-.3 0-.4 0-.5.2 0 .2 0 .3.3.4h.7" fill="none" stroke="#000" stroke-width=".3"/><path d="M285 215.4v-.6h-.8l.3.7h.6" fill="#ad1519"/><path d="M285 215.4v-.6h-.8l.3.7h.6" fill="none" stroke="#000" stroke-width=".3"/><path d="M277.8 217c-2.3 0-4.4 0-6-.5 1.6-.4 3.7-.7 6-.7 2.4 0 4.5.3 6 .7-1.5.4-3.6.6-6 .6" fill="#ad1519"/><path d="M277.8 217c-2.3 0-4.4 0-6-.5 1.6-.4 3.7-.7 6-.7 2.4 0 4.5.3 6 .7-1.5.4-3.6.6-6 .6z" fill="none" stroke="#000" stroke-width=".3" stroke-linejoin="round"/><path d="M285.2 212v-.4c-.3 0-.4 0-.5.3 0 0 0 .3.2.3l.2-.3" fill="#c8b100"/><path d="M285.2 212v-.4c-.3 0-.4 0-.5.3 0 0 0 .3.2.3l.2-.3z" fill="none" stroke="#000" stroke-width=".3"/><path d="M280.6 211.2c0-.2 0-.4-.3-.4 0 0-.2 0-.2.3s0 .4.3.5l.3-.4" fill="#c8b100"/><path d="M280.6 211.2c0-.2 0-.4-.3-.4 0 0-.2 0-.2.3s0 .4.3.5l.3-.4z" fill="none" stroke="#000" stroke-width=".3"/><path d="M275.2 211.2c0-.2 0-.4.2-.4 0 0 .2 0 .2.3s0 .4-.2.5l-.2-.4" fill="#c8b100"/><path d="M275.2 211.2c0-.2 0-.4.2-.4 0 0 .2 0 .2.3s0 .4-.2.5l-.2-.4z" fill="none" stroke="#000" stroke-width=".3"/><path d="M270.5 212v-.4c.3 0 .4 0 .5.3v.3c-.3 0-.4 0-.5-.3" fill="#c8b100"/><path d="M270.5 212v-.4c.3 0 .4 0 .5.3v.3c-.3 0-.4 0-.5-.3z" fill="none" stroke="#000" stroke-width=".3"/><path d="M277.8 208.5l-.8.5.6 1.3h.5l.7-1.3-1-.5" fill="#c8b100"/><path d="M277.8 208.5l-.8.5.6 1.3h.5l.7-1.3-1-.5" fill="none" stroke="#000" stroke-width=".3"/><path d="M276 210.5l.4.5 1.3-.4v-.2l-1.3-.5-.4.5" fill="#c8b100"/><path d="M276 210.5l.4.5 1.3-.4v-.2l-1.3-.5-.4.5" fill="none" stroke="#000" stroke-width=".3"/><path d="M279.7 210.5l-.4.5-1.3-.4v-.2l1.3-.5.4.5" fill="#c8b100"/><path d="M279.7 210.5l-.4.5-1.3-.4v-.2l1.3-.5.4.5" fill="none" stroke="#000" stroke-width=".3"/><path d="M272.5 209l-.7.7 1 1h.2l.3-1.3-.8-.3" fill="#c8b100"/><path d="M272.5 209l-.7.7 1 1h.2l.3-1.3-.8-.3" fill="none" stroke="#000" stroke-width=".3"/><path d="M271 211.2l.6.5 1.2-.6v-.3h-1.4l-.3.5" fill="#c8b100"/><path d="M271 211.2l.6.5 1.2-.6v-.3h-1.4l-.3.5" fill="none" stroke="#000" stroke-width=".3"/><path d="M274.7 210.5l-.3.6H273v-.4l1.2-.6.5.5" fill="#c8b100"/><path d="M274.7 210.5l-.3.6H273v-.4l1.2-.6.5.5" fill="none" stroke="#000" stroke-width=".3"/><path d="M269.8 211.4v.6l-1.4.2h-.2v-.3l1-1 .6.4" fill="#c8b100"/><path d="M269.8 211.4v.6l-1.4.2h-.2v-.3l1-1 .6.4" fill="none" stroke="#000" stroke-width=".3"/><path d="M272.4 211c0-.4.2-.6.5-.6a.5.5 0 0 1 .4.5.5.5 0 0 1-.5.3.5.5 0 0 1-.6-.4" fill="#c8b100"/><path d="M272.4 211c0-.4.2-.6.5-.6a.5.5 0 0 1 .4.5.5.5 0 0 1-.5.3.5.5 0 0 1-.6-.4z" fill="none" stroke="#000" stroke-width=".3"/><path d="M283.2 209l.7.7-1 1h-.2l-.4-1.3.8-.3" fill="#c8b100"/><path d="M283.2 209l.7.7-1 1h-.2l-.4-1.3.8-.3" fill="none" stroke="#000" stroke-width=".3"/><path d="M284.6 211.2l-.5.5-1-.6h-.2l.2-.3h1.3l.3.5" fill="#c8b100"/><path d="M284.6 211.2l-.5.5-1-.6h-.2l.2-.3h1.3l.3.5" fill="none" stroke="#000" stroke-width=".3"/><path d="M281 210.5l.3.6h1.5v-.4l-1.3-.6-.5.5" fill="#c8b100"/><path d="M281 210.5l.3.6h1.5v-.4l-1.3-.6-.5.5" fill="none" stroke="#000" stroke-width=".3"/><path d="M285.7 211.4v.6l1.4.2h.3v-.3l-1-1-.6.4" fill="#c8b100"/><path d="M285.7 211.4v.6l1.4.2h.3v-.3l-1-1-.6.4" fill="none" stroke="#000" stroke-width=".3"/><path d="M277.4 210.4c0-.2.2-.4.4-.4.3 0 .5.2.5.4 0 .3-.2.5-.5.5a.5.5 0 0 1-.4-.6" fill="#c8b100"/><path d="M277.4 210.4c0-.2.2-.4.4-.4.3 0 .5.2.5.4 0 .3-.2.5-.5.5a.5.5 0 0 1-.4-.6z" fill="none" stroke="#000" stroke-width=".3"/><path d="M282.3 211c0-.4.3-.6.5-.6.3 0 .5.2.5.5 0 0-.2.3-.5.3a.5.5 0 0 1-.5-.4" fill="#c8b100"/><path d="M282.3 211c0-.4.3-.6.5-.6.3 0 .5.2.5.5 0 0-.2.3-.5.3a.5.5 0 0 1-.5-.4z" fill="none" stroke="#000" stroke-width=".3"/><path d="M277 205.4c0-.5.4-.8.8-.8.5 0 1 .3 1 .8s-.5.8-1 .8c-.4 0-.8-.3-.8-.8" fill="#c8b100"/><path d="M278.5 205v.7H277v-.6h.6V204h-.6v-.5h.6v-.6h.5v.6h.7v.5h-.6v1.3h.5" fill="#c8b100"/><path d="M278.5 205v.7H277v-.6h.6V204h-.6v-.5h.6v-.6h.5v.6h.7v.5h-.6v1.3h.5z" fill="none" stroke="#000" stroke-width=".3"/><path d="M279 205v.7h-2.3v-.6h1V204h-.7v-.5h.6v-.6h.5v.6h.7v.5h-.6v1.3h1" fill="#c8b100"/><path d="M278 204.6c.5 0 .7.4.7.8 0 .5-.4.8-1 .8-.3 0-.7-.3-.7-.8 0-.4.2-.7.6-.8" fill="none" stroke="#000" stroke-width=".3"/><path d="M268 212.2l-.6-.7-.7-.4h1s.3 0 .4.2c.2.3 0 .7 0 .7v.2" fill="#c8b100"/><path d="M268 212.2l-.6-.7-.7-.4h1s.3 0 .4.2c.2.3 0 .7 0 .7v.2z" fill="none" stroke="#000" stroke-width=".3"/><path d="M268 212c0-.2.4-.2.5 0 .2 0 .3.3.2.5h-.6v-.6" fill="#c8b100"/><path d="M268 212c0-.2.4-.2.5 0 .2 0 .3.3.2.5h-.6v-.6z" fill="none" stroke="#000" stroke-width=".3"/><path d="M287.5 212.2l.6-.7.8-.4h-1s-.3 0-.4.2v.7" fill="#c8b100"/><path d="M287.5 212.2l.6-.7.8-.4h-1s-.3 0-.4.2v.7z" fill="none" stroke="#000" stroke-width=".3"/><path d="M287.5 212c0-.2-.3-.2-.5 0-.2 0-.2.3 0 .5h.4c.2-.2.2-.5 0-.6" fill="#c8b100"/><path d="M287.5 212c0-.2-.3-.2-.5 0-.2 0-.2.3 0 .5h.4c.2-.2.2-.5 0-.6z" fill="none" stroke="#000" stroke-width=".3"/><path d="M267.2 223h21.4v-5.5h-21.4v5.6z" fill="#c8b100"/><path d="M267.2 223h21.4v-5.5h-21.4v5.6z" fill="none" stroke="#000" stroke-width=".4"/><path d="M286.3 226.8a1 1 0 0 0-.4 0h-16.5c.5-.2 1-.7 1-1.2 0-.6-.5-1-1-1.3h16.8c-.7.2-1 .7-1 1.3 0 .5.3 1 1 1.2" fill="#c8b100"/><path d="M286.3 226.8a1 1 0 0 0-.4 0h-16.5c.5-.2 1-.7 1-1.2 0-.6-.5-1-1-1.3h16.8c-.7.2-1 .7-1 1.3 0 .5.3 1 1 1.2z" fill="none" stroke="#000" stroke-width=".4" stroke-linejoin="round"/><path d="M270 226.7h16c.5 0 1 .4 1 .8s-.5.7-1 .7h-16c-.6 0-1-.3-1-.7 0-.4.4-.8 1-.8" fill="#c8b100"/><path d="M270 226.7h16c.5 0 1 .4 1 .8s-.5.7-1 .7h-16c-.6 0-1-.3-1-.7 0-.4.4-.8 1-.8z" fill="none" stroke="#000" stroke-width=".4"/><path d="M270 223h16c.5 0 1 .4 1 .7 0 .4-.5.6-1 .6h-16c-.7 0-1-.2-1-.6 0-.3.3-.6 1-.6" fill="#c8b100"/><path d="M270 223h16c.5 0 1 .4 1 .7 0 .4-.5.6-1 .6h-16c-.7 0-1-.2-1-.6 0-.3.3-.6 1-.6z" fill="none" stroke="#000" stroke-width=".4"/><path d="M263 317.4c1.4 0 2.7-.3 3.7-.8s2.3-.8 3.7-.8c1.5 0 2.8.3 3.8.8s2.3.8 3.7.8c1.4 0 2.7-.3 3.7-.8s2.2-.8 3.6-.8c1.5 0 2.8.3 3.7.8 1 .5 2.4.8 3.8.8v2.4c-1.4 0-2.8-.4-3.8-1-1-.4-2.2-.7-3.7-.7-1.4 0-2.6.4-3.6 1-1 .4-2.3.8-3.8.8s-3-.4-3.8-1c-1-.4-2.3-.7-3.8-.7-1.4 0-2.7.4-3.7 1-1 .5-2.3.8-3.8.8v-2.4" fill="#005bbf"/><path d="M263 317.4c1.4 0 2.7-.3 3.7-.8s2.3-.8 3.7-.8c1.5 0 2.8.3 3.8.8s2.3.8 3.7.8c1.4 0 2.7-.3 3.7-.8s2.2-.8 3.6-.8c1.5 0 2.8.3 3.7.8 1 .5 2.4.8 3.8.8v2.4c-1.4 0-2.8-.4-3.8-1-1-.4-2.2-.7-3.7-.7-1.4 0-2.6.4-3.6 1-1 .4-2.3.8-3.8.8s-3-.4-3.8-1c-1-.4-2.3-.7-3.8-.7-1.4 0-2.7.4-3.7 1-1 .5-2.3.8-3.8.8v-2.4z" fill="none" stroke="#000" stroke-width=".4"/><path d="M263 319.8c1.4 0 2.7-.3 3.7-1 1-.4 2.3-.7 3.7-.7 1.5 0 2.8.4 3.8 1 1 .4 2.3.8 3.7.8 1.4 0 2.7-.4 3.7-1 1-.4 2.2-.7 3.6-.7 1.5 0 2.8.4 3.7 1 1 .4 2.4.8 3.8.8v2.3c-1.4 0-2.8-.3-3.8-.8s-2.2-.7-3.7-.7c-1.4 0-2.6.2-3.6.7-1 .5-2.3 1-3.8 1s-3-.4-3.8-1c-1-.4-2.3-.7-3.8-.7-1.4 0-2.7.3-3.7.8s-2.3.8-3.8.8V320" fill="#ccc"/><path d="M263 319.8c1.4 0 2.7-.3 3.7-1 1-.4 2.3-.7 3.7-.7 1.5 0 2.8.4 3.8 1 1 .4 2.3.8 3.7.8 1.4 0 2.7-.4 3.7-1 1-.4 2.2-.7 3.6-.7 1.5 0 2.8.4 3.7 1 1 .4 2.4.8 3.8.8v2.3c-1.4 0-2.8-.3-3.8-.8s-2.2-.7-3.7-.7c-1.4 0-2.6.2-3.6.7-1 .5-2.3 1-3.8 1s-3-.4-3.8-1c-1-.4-2.3-.7-3.8-.7-1.4 0-2.7.3-3.7.8s-2.3.8-3.8.8V320" fill="none" stroke="#000" stroke-width=".4"/><path d="M263 322c1.4 0 2.7-.2 3.7-.8 1-.4 2.3-.7 3.7-.7 1.5 0 2.8.3 3.8.8s2.3.8 3.7.8c1.4 0 2.7-.3 3.7-.8s2.2-.7 3.6-.7c1.5 0 2.8.2 3.7.7 1 .5 2.4 1 3.8 1v2.2c-1.4 0-2.8-.3-3.8-1-1-.4-2.2-.6-3.7-.6-1.4 0-2.6.3-3.6.7-1 .5-2.3 1-3.8 1s-3-.4-3.8-1c-1-.4-2.3-.7-3.8-.7-1.4 0-2.7.3-3.7.8s-2.3.8-3.8.8V322" fill="#005bbf"/><path d="M263 322c1.4 0 2.7-.2 3.7-.8 1-.4 2.3-.7 3.7-.7 1.5 0 2.8.3 3.8.8s2.3.8 3.7.8c1.4 0 2.7-.3 3.7-.8s2.2-.7 3.6-.7c1.5 0 2.8.2 3.7.7 1 .5 2.4 1 3.8 1v2.2c-1.4 0-2.8-.3-3.8-1-1-.4-2.2-.6-3.7-.6-1.4 0-2.6.3-3.6.7-1 .5-2.3 1-3.8 1s-3-.4-3.8-1c-1-.4-2.3-.7-3.8-.7-1.4 0-2.7.3-3.7.8s-2.3.8-3.8.8V322" fill="none" stroke="#000" stroke-width=".4"/><path d="M263 326.7c1.4 0 2.7-.3 3.7-.8 1-.6 2.3-1 3.7-1 1.5 0 2.8.4 3.8 1 1 .4 2.3.7 3.7.7 1.4 0 2.7-.3 3.7-1 1-.3 2.2-.6 3.6-.6 1.5 0 2.8.4 3.7 1 1 .4 2.4.7 3.8.7v-2.3c-1.4 0-2.8-.3-3.8-1-1-.4-2.2-.6-3.7-.6-1.4 0-2.6.3-3.6.7-1 .5-2.3 1-3.8 1s-3-.4-3.8-1c-1-.4-2.3-.7-3.8-.7-1.4 0-2.7.3-3.7.8s-2.3.8-3.8.8v2.3" fill="#ccc"/><path d="M263 326.7c1.4 0 2.7-.3 3.7-.8 1-.6 2.3-1 3.7-1 1.5 0 2.8.4 3.8 1 1 .4 2.3.7 3.7.7 1.4 0 2.7-.3 3.7-1 1-.3 2.2-.6 3.6-.6 1.5 0 2.8.4 3.7 1 1 .4 2.4.7 3.8.7v-2.3c-1.4 0-2.8-.3-3.8-1-1-.4-2.2-.6-3.7-.6-1.4 0-2.6.3-3.6.7-1 .5-2.3 1-3.8 1s-3-.4-3.8-1c-1-.4-2.3-.7-3.8-.7-1.4 0-2.7.3-3.7.8s-2.3.8-3.8.8v2.3" fill="none" stroke="#000" stroke-width=".4"/><path d="M263 329c1.4 0 2.7-.3 3.7-.8s2.3-.8 3.7-.8c1.5 0 2.8.3 3.8.8s2.3.8 3.7.8c1.4 0 2.7-.3 3.7-.8s2.2-.8 3.6-.8c1.5 0 2.8.3 3.7.8 1 .5 2.4.8 3.8.8v-2.3c-1.4 0-2.8-.3-3.8-.8-1-.6-2.2-1-3.7-1-1.4 0-2.6.4-3.6.8-1 .6-2.3 1-3.8 1s-3-.4-3.8-1c-1-.4-2.3-.7-3.8-.7-1.4 0-2.7.4-3.7 1-1 .4-2.3.7-3.8.7v2.3" fill="#005bbf"/><path d="M263 329c1.4 0 2.7-.3 3.7-.8s2.3-.8 3.7-.8c1.5 0 2.8.3 3.8.8s2.3.8 3.7.8c1.4 0 2.7-.3 3.7-.8s2.2-.8 3.6-.8c1.5 0 2.8.3 3.7.8 1 .5 2.4.8 3.8.8v-2.3c-1.4 0-2.8-.3-3.8-.8-1-.6-2.2-1-3.7-1-1.4 0-2.6.4-3.6.8-1 .6-2.3 1-3.8 1s-3-.4-3.8-1c-1-.4-2.3-.7-3.8-.7-1.4 0-2.7.4-3.7 1-1 .4-2.3.7-3.8.7v2.3z" fill="none" stroke="#000" stroke-width=".4"/><path d="M286.3 308v.5c0 1.4 1 2.6 2.6 2.6h-22c1.3 0 2.6-1 2.6-2.5v-.5H286" fill="#c8b100"/><path d="M286.3 308v.5c0 1.4 1 2.6 2.6 2.6h-22c1.3 0 2.6-1 2.6-2.5v-.5H286z" fill="none" stroke="#000" stroke-width=".4" stroke-linejoin="round"/><path d="M270 306.5h16c.5 0 1 .3 1 .7 0 .5-.5.8-1 .8h-16c-.6 0-1-.3-1-.7 0-.5.4-.8 1-.8" fill="#c8b100"/><path d="M270 306.5h16c.5 0 1 .3 1 .7 0 .5-.5.8-1 .8h-16c-.6 0-1-.3-1-.7 0-.5.4-.8 1-.8z" fill="none" stroke="#000" stroke-width=".4"/><path d="M267 316.7h22V311h-22v5.7z" fill="#c8b100"/><path d="M267 316.7h22V311h-22v5.7z" fill="none" stroke="#000" stroke-width=".4"/><path d="M290.6 286.7c2 1.2 3.6 2.5 3.4 3.2 0 .4-.8 1-1.8 1.5-1.6 1-2.5 3-1.8 4-1.3-1-2-2.6-2-4.4 0-1.7.8-3.3 2.2-4.3" fill="#ad1519"/><path d="M290.6 286.7c2 1.2 3.6 2.5 3.4 3.2 0 .4-.8 1-1.8 1.5-1.6 1-2.5 3-1.8 4-1.3-1-2-2.6-2-4.4 0-1.7.8-3.3 2.2-4.3z" fill="none" stroke="#000" stroke-width=".4"/><path d="M270 305.6h15.7V229H270v76.6z" fill="#ccc"/><path d="M281.4 229v76.4m1.8-76.3v76.4m-13 .2h15.5V229H270v76.6z" fill="none" stroke="#000" stroke-width=".4"/><path d="M254.2 257.7c3.4-1.4 9.2-2.4 15.8-2.6 2.3 0 4.8.3 7.5.7 9.3 1.6 16.4 5.3 16 8.4-.2 0-.2.3-.2.3l3.6-8.2c.5-3.2-7.4-7.4-17.8-9a53.5 53.5 0 0 0-9-.8c-6.8 0-12.5.8-16 2v9.5" fill="#ad1519"/><path d="M254.2 257.7c3.4-1.4 9.2-2.4 15.8-2.6 2.3 0 4.8.3 7.5.7 9.3 1.6 16.4 5.3 16 8.4-.2 0-.2.3-.2.3l3.6-8.2c.5-3.2-7.4-7.4-17.8-9a53.5 53.5 0 0 0-9-.8c-6.8 0-12.5.8-16 2v9.5" fill="none" stroke="#000" stroke-width=".4" stroke-linejoin="round"/><path d="M285.7 267.3c4.4-.3 7.3-1.4 7.7-3.2.2-1.4-1.2-3-3.8-4.4-1.2 0-2.5.3-4 .3v7.3" fill="#ad1519"/><path d="M285.7 267.3c4.4-.3 7.3-1.4 7.7-3.2.2-1.4-1.2-3-3.8-4.4-1.2 0-2.5.3-4 .3v7.3" fill="none" stroke="#000" stroke-width=".4"/><path d="M270 261.5c-2.6.4-4.7 1-5.7 2-.5 1 1.8 3.2 5.8 5.5v-7.5" fill="#ad1519"/><path d="M270 261.5c-2.6.4-4.7 1-5.7 2-.5 1 1.8 3.2 5.8 5.5v-7.5" fill="none" stroke="#000" stroke-width=".4"/><path d="M295.4 282c.4-1.2-3.8-3.6-9.7-5.8-2.8-1-5-2-7.8-3.2-8.4-3.7-14.5-8-13.8-9.4v-.2c-.3.4-1 8-1 8-.8 1.3 5 5.5 12.5 9 2.4 1.3 7.6 3.2 10 4 4.4 1.6 8.7 4.4 8.3 5.5l1.4-8" fill="#ad1519"/><path d="M295.4 282c.4-1.2-3.8-3.6-9.7-5.8-2.8-1-5-2-7.8-3.2-8.4-3.7-14.5-8-13.8-9.4v-.2c-.3.4-1 8-1 8-.8 1.3 5 5.5 12.5 9 2.4 1.3 7.6 3.2 10 4 4.4 1.6 8.7 4.4 8.3 5.5l1.4-8z" fill="none" stroke="#000" stroke-width=".4" stroke-linejoin="round"/><path d="M264 254.4c.5-2.3 1.2-4.4 2-6.6h-.5a5.2 5.2 0 0 1-.5 0l-1.4 5c-1-1.5-2-2.8-2.7-4.2h-1c-.4.2-.8.2-1 .2a131.2 131.2 0 0 1 4 5.7h.9m5.8-6.7H268v6.2h4.3v-.7h-2.6v-5.5m7 1l2 .3v-.6l-6-.5c.2 0 .2 0 .2.3l-.2.4a19.3 19.3 0 0 1 2 0l-.4 5.5h.8c.3 0 .6 0 1 .2l.4-5.6m2.4 6c.2.2.5.2.8.3.3 0 .6.2.8.3l.7-3v.2l.6 1 .7 2.2c.4 0 .7 0 1 .2.4 0 .7 0 1 .2l-.3-.7c-.4-1-1-2-1.3-3 1.2.2 2-.2 2.2-1 0-.7 0-1-.7-1.5-.4-.3-1.2-.5-1.7-.6l-2.4-.5-1.4 6m3-5.3c.7.2 1.5.3 1.5 1v.5c-.3 1-1 1.2-2 1l.5-2.5m8 7c0 .7 0 1.4-.2 2l.8.5 1 .5.4-7a3.4 3.4 0 0 1-.7-.4l-6 4 .4.2.4.2 1.8-1.2 2.3 1.3zm-1.7-1.5l2-1.3-.2 2.2-1.7-1" fill="#c8b100"/><path d="M182.2 192.4c0-1 1-2 2-2 1.2 0 2.2 1 2.2 2s-1 2-2 2c-1.3 0-2.2-1-2.2-2z" fill="none"/><path d="M205.7 175.4c6.3 0 12 1 15.7 2.4 2 1 5 1.7 8 2 2.5.4 4.7.5 6.7.3 2.7 0 6.5.8 10.2 2.5 3.2 1.4 5.8 3 7.5 4.7l-1.5 1.4-.4 3.8-4 4.7-2.2 1.8-5 4-2.4.2-.7 2-31.6-3.6-32 3.4-.8-2-2.5-.2-5-4-2-1.7-4.2-4.6-.4-3.8-1.5-1.4c1.7-1.6 4.3-3.3 7.4-4.7 3.8-1.7 7.6-2.4 10.2-2.4 2 .3 4.2.2 6.6 0 3-.5 6-1.2 8-2.2 3.7-1.4 9-2.4 15.5-2.4z" fill="#ad1519" stroke="#000" stroke-width=".3"/><path d="M206 217c-11.6 0-22.2-1.3-29.7-3.5-.5-.2-.8-.7-.8-1.2s.3-1 .8-1.2c7.5-2 18-3.5 29.8-3.5 12 0 22.5 1.4 30 3.6.5.3.8.8.8 1.3s-.3 1-.8 1.2c-7.5 2.2-18 3.6-30 3.6" fill="#c8b100" stroke="#000" stroke-width=".4"/><path d="M206 215.6c-10.5 0-20-1.3-27.4-3 7.3-2 17-3.2 27.5-3.2 10.7 0 20.4 1.2 27.7 3-7.3 2-17 3.2-27.6 3.2" fill="#ad1519"/><path d="M207 215.7v-6.4m-1.8 6.4v-6.4" fill="none" stroke="#000" stroke-width=".1"/><path d="M203.6 215.7v-6.4m-1.6 6.4v-6.4" fill="none" stroke="#000" stroke-width=".2"/><path d="M200.5 215.7v-6.4m-2.7 6v-5.7m1.3 5.8v-6" fill="none" stroke="#000" stroke-width=".3"/><path d="M195.3 215v-5m1.3 5.4v-5.6m-4.6 5V210m1 4.8V210m1.2 5v-5m-3.4 4.7v-4.5" fill="none" stroke="#000" stroke-width=".4"/><path d="M189.7 214.5v-4.2m-1.2 4.1v-4" fill="none" stroke="#000" stroke-width=".5"/><path d="M186 214v-3m1.3 3.2v-3.5m-2.5 3.1V211" fill="none" stroke="#000" stroke-width=".6"/><path d="M183.7 213.6v-2.3m-1.3 1.9v-1.7m-1.2 1.5v-1" fill="none" stroke="#000" stroke-width=".7"/><path d="M179.8 212.8v-.6" fill="none" stroke="#000" stroke-width=".9"/><path d="M213.7 215.3v-5.8m-3 6l.2-6m-2.3 6v-6.2" fill="none"/><path d="M206 207.4c-11.8 0-22.5 1.6-30 4 .6-.4.5-1.2-.3-3.2-1-2.4-2.4-2.3-2.4-2.3 8.3-2.6 20-4 32.8-4 13 0 24.7 1.4 33 4 0 0-1.5-.2-2.4 2.2-.8 2-.8 2.8-.2 3-7.5-2.2-18.4-3.7-30.3-3.8" fill="#c8b100" stroke="#000" stroke-width=".4"/><path d="M206 202c-12.8 0-24.4 1.4-32.7 4-.5 0-1 0-1.3-.7-.2-.5 0-1 .7-1.3 8.3-2.5 20.2-4 33.4-4.2 13.3 0 25.3 1.7 33.6 4.2.6.2 1 .8.7 1.3-.2.5-.8.8-1.3.6-8.4-2.6-20-4-33-4" fill="#c8b100" stroke="#000" stroke-width=".4"/><path d="M206 215.6c-10.5 0-20-1.3-27.4-3 7.3-2 17-3.2 27.5-3.2 10.7 0 20.4 1.2 27.7 3-7.3 2-17 3.2-27.6 3.2z" fill="none" stroke="#000" stroke-width=".4" stroke-linejoin="round"/><path d="M197 204.8c0-.5.4-1 1-1s1 .5 1 1c0 .6-.4 1-1 1s-1-.4-1-1" fill="#fff" stroke="#000" stroke-width=".4"/><path d="M206 205.6h-3c-.6 0-1-.4-1-1 0-.5.4-1 1-1h6.4c.5 0 1 .5 1 1 0 .6-.5 1-1 1H206" fill="#ad1519" stroke="#000" stroke-width=".4"/><path d="M190.3 206.5l-2.3.2c-.6 0-1-.3-1.2-.8 0-.7.4-1.2 1-1.2l2.2-.3 2.4-.3c.5 0 1 .3 1 1 .2.4-.2 1-.8 1l-2.3.3" fill="#058e6e" stroke="#000" stroke-width=".4"/><path d="M181 206.7c0-.6.5-1 1-1 .7 0 1.2.4 1.2 1 0 .5-.5 1-1 1-.7 0-1-.5-1-1" fill="#fff" stroke="#000" stroke-width=".4"/><path d="M174 208.5l1.2-1.6 3.3.4-2.6 1.8-2-.7" fill="#ad1519" stroke="#000" stroke-width=".4"/><path d="M222 206.5l2.3.2c.5 0 1-.3 1-.8.2-.7-.2-1.2-.8-1.2l-2.3-.3-2.3-.3c-.7 0-1.2.3-1.2 1 0 .4.3 1 1 1l2.2.3" fill="#058e6e" stroke="#000" stroke-width=".4"/><path d="M213.3 204.8c0-.5.4-1 1-1s1 .5 1 1c0 .6-.4 1-1 1s-1-.4-1-1m15.8 2c0-.7.6-1 1.2-1 .5 0 1 .3 1 1 0 .4-.5 1-1 1-.6 0-1-.6-1-1" fill="#fff" stroke="#000" stroke-width=".4"/><path d="M238.2 208.5l-1-1.6-3.4.4 2.6 1.8 1.8-.7" fill="#ad1519" stroke="#000" stroke-width=".4"/><path d="M177.3 212.8c7.5-2 17.6-3.4 28.8-3.4 11.4 0 21.5 1.3 29 3.4" fill="none" stroke="#000" stroke-width=".4"/><path d="M182.3 183.8l1.4 1 2-3.2c-2.2-1.4-3.7-3.7-3.7-6.3v-1c.3-4 5.3-7.5 11.8-7.5 3.3 0 6.3 1 8.5 2.4 0-.6 0-1.2.2-1.8-2.4-1.3-5.4-2.2-8.7-2.2-7.4 0-13.2 4.3-13.5 9.2v1c0 2.6 1.2 5 3 6.6l-1 1.8" fill="#c8b100"/><path d="M182.3 183.8l1.4 1 2-3.2c-2.2-1.4-3.7-3.7-3.7-6.3v-1c.3-4 5.3-7.5 11.8-7.5 3.3 0 6.3 1 8.5 2.4 0-.6 0-1.2.2-1.8-2.4-1.3-5.4-2.2-8.7-2.2-7.4 0-13.2 4.3-13.5 9.2v1c0 2.6 1.2 5 3 6.6l-1 1.8" fill="none" stroke="#000" stroke-width=".4"/><path d="M182.4 183.8c-2.5-2-4-4.5-4-7.3 0-3.2 2-6 5.3-8-2 1.6-3.2 3.6-3.4 6v.8c0 2.7 1.2 5 3 6.7l-1 1.8" fill="#c8b100"/><path d="M182.4 183.8c-2.5-2-4-4.5-4-7.3 0-3.2 2-6 5.3-8-2 1.6-3.2 3.6-3.4 6v.8c0 2.7 1.2 5 3 6.7l-1 1.8" fill="none" stroke="#000" stroke-width=".4"/><path d="M160 187c-1.3-1.5-2.2-3.5-2.2-5.8 0-1.3.3-2.6 1-3.8 2-4.2 8.4-7.2 16-7.2 2 0 4 .2 6 .6-.5.4-.8 1-1 1.4a25.5 25.5 0 0 0-5-.4c-7 0-12.8 2.7-14.5 6.3a7 7 0 0 0-.7 3.2c0 2.2 1 4.2 2.7 5.6l-2.6 4-1.3-1 1.7-2.7" fill="#c8b100"/><path d="M160 187c-1.3-1.5-2.2-3.5-2.2-5.8 0-1.3.3-2.6 1-3.8 2-4.2 8.4-7.2 16-7.2 2 0 4 .2 6 .6-.5.4-.8 1-1 1.4a25.5 25.5 0 0 0-5-.4c-7 0-12.8 2.7-14.5 6.3a7 7 0 0 0-.7 3.2c0 2.2 1 4.2 2.7 5.6l-2.6 4-1.3-1 1.7-2.7z" fill="none" stroke="#000" stroke-width=".4"/><path d="M162.7 173.3c-1.8 1-3.2 2.5-4 4a8.6 8.6 0 0 0-1 4c0 2.2 1 4.2 2.4 5.8l-1.4 2.6c-1.5-2-2.3-4-2.3-6.4 0-4 2.5-7.6 6.4-10" fill="#c8b100"/><path d="M162.7 173.3c-1.8 1-3.2 2.5-4 4a8.6 8.6 0 0 0-1 4c0 2.2 1 4.2 2.4 5.8l-1.4 2.6c-1.5-2-2.3-4-2.3-6.4 0-4 2.5-7.6 6.4-10z" fill="none" stroke="#000" stroke-width=".4"/><path d="M206 164.4c1.7 0 3.2 1 3.5 2.6.3 1.4.4 3 .4 4.5v1.1c0 3.3.5 6.3 1.2 8l-5.2 5-5.2-5c.7-1.7 1.2-4.7 1.3-8v-1.1c0-1.6.3-3 .5-4.5.3-1.5 1.8-2.6 3.5-2.6" fill="#c8b100"/><path d="M206 164.4c1.7 0 3.2 1 3.5 2.6.3 1.4.4 3 .4 4.5v1.1c0 3.3.5 6.3 1.2 8l-5.2 5-5.2-5c.7-1.7 1.2-4.7 1.3-8v-1.1c0-1.6.3-3 .5-4.5.3-1.5 1.8-2.6 3.5-2.6z" fill="none" stroke="#000" stroke-width=".4"/><path d="M206 166c1 0 1.7.6 1.8 1.4.3 1.2.4 2.6.4 4.2v1c0 3.2.6 6 1.2 7.7l-3.4 3.2-3.4-3.2c.7-1.7 1-4.5 1.2-7.7v-1a28 28 0 0 1 .4-4.2c.2-.8 1-1.4 1.8-1.4" fill="#c8b100"/><path d="M206 166c1 0 1.7.6 1.8 1.4.3 1.2.4 2.6.4 4.2v1c0 3.2.6 6 1.2 7.7l-3.4 3.2-3.4-3.2c.7-1.7 1-4.5 1.2-7.7v-1a28 28 0 0 1 .4-4.2c.2-.8 1-1.4 1.8-1.4z" fill="none" stroke="#000" stroke-width=".4"/><path d="M229.7 183.8l-1.3 1-2-3.2c2-1.4 3.6-3.7 3.6-6.3a7 7 0 0 0 0-1c-.2-4-5.3-7.5-11.7-7.5-3.4 0-6.4 1-8.5 2.4a23 23 0 0 0-.2-1.8c2.3-1.3 5.3-2.2 8.7-2.2 7.4 0 13.2 4.3 13.4 9.2v1c0 2.6-1 5-3 6.6l1 1.8" fill="#c8b100"/><path d="M229.7 183.8l-1.3 1-2-3.2c2-1.4 3.6-3.7 3.6-6.3a7 7 0 0 0 0-1c-.2-4-5.3-7.5-11.7-7.5-3.4 0-6.4 1-8.5 2.4a23 23 0 0 0-.2-1.8c2.3-1.3 5.3-2.2 8.7-2.2 7.4 0 13.2 4.3 13.4 9.2v1c0 2.6-1 5-3 6.6l1 1.8" fill="none" stroke="#000" stroke-width=".4"/><path d="M229.6 183.8c2.6-2 4-4.5 4-7.3 0-3.2-2-6-5.2-8 2 1.6 3.2 3.6 3.3 6v.8c0 2.7-1 5-3 6.7l1 1.8" fill="#c8b100"/><path d="M229.6 183.8c2.6-2 4-4.5 4-7.3 0-3.2-2-6-5.2-8 2 1.6 3.2 3.6 3.3 6v.8c0 2.7-1 5-3 6.7l1 1.8" fill="none" stroke="#000" stroke-width=".4"/><path d="M252 187c1.3-1.5 2.2-3.5 2.2-5.8a8.7 8.7 0 0 0-1-3.8c-2-4.2-8.3-7.2-16-7.2-2 0-4 .2-6 .6.5.4 1 1 1.2 1.4a25.4 25.4 0 0 1 4.8-.4c7 0 13 2.7 14.5 6.3.5 1 .7 2 .7 3.2 0 2.2-1 4.2-2.6 5.6l2.5 4 1.4-1-1.8-2.7" fill="#c8b100"/><path d="M252 187c1.3-1.5 2.2-3.5 2.2-5.8a8.7 8.7 0 0 0-1-3.8c-2-4.2-8.3-7.2-16-7.2-2 0-4 .2-6 .6.5.4 1 1 1.2 1.4a25.4 25.4 0 0 1 4.8-.4c7 0 13 2.7 14.5 6.3.5 1 .7 2 .7 3.2 0 2.2-1 4.2-2.6 5.6l2.5 4 1.4-1-1.8-2.7z" fill="none" stroke="#000" stroke-width=".4"/><path d="M249.3 173.3c2 1 3.3 2.5 4 4a8.7 8.7 0 0 1 1 4c0 2.2-1 4.2-2.4 5.8l1.5 2.6c1.4-2 2.3-4 2.3-6.4 0-4-2.6-7.6-6.5-10" fill="#c8b100"/><path d="M249.3 173.3c2 1 3.3 2.5 4 4a8.7 8.7 0 0 1 1 4c0 2.2-1 4.2-2.4 5.8l1.5 2.6c1.4-2 2.3-4 2.3-6.4 0-4-2.6-7.6-6.5-10z" fill="none" stroke="#000" stroke-width=".4"/><path d="M204.2 181.4c0-1 .8-1.7 1.8-1.7s2 .7 2 1.7-1 1.7-2 1.7-1.8-.7-1.8-1.6" fill="#fff"/><path d="M204.2 181.4c0-1 .8-1.7 1.8-1.7s2 .7 2 1.7-1 1.7-2 1.7-1.8-.7-1.8-1.6z" fill="none" stroke="#000" stroke-width=".4"/><path d="M204.2 178c0-1 .8-1.7 1.8-1.7s2 .7 2 1.7-1 1.7-2 1.7-1.8-.8-1.8-1.7m.4-3.7c0-.7.6-1.3 1.4-1.3.8 0 1.5.6 1.5 1.3 0 .8-.7 1.4-1.5 1.4s-1.4-.6-1.4-1.4m.4-3.3c0-.5.5-1 1-1 .6 0 1 .5 1 1 0 .6-.4 1-1 1-.5 0-1-.4-1-1m.2-2.8c0-.5.4-.8.8-.8.5 0 1 .3 1 .8 0 .4-.5.8-1 .8-.4 0-.8-.4-.8-.8" fill="#fff" stroke="#000" stroke-width=".4"/><path d="M206.2 191.8l1.2.2c-.2.5-.3 1-.3 1.6 0 2.4 2.3 4.4 5 4.4 2 0 3.7-1.3 4.4-3 0 0 .4-1.7.6-1.6.2 0 0 1.7.2 1.6.3 2.3 2.4 3.8 4.7 3.8 2.5 0 4.6-2 4.6-4.4v-.6l1.4-1.4.8 1.8c-.3.6-.4 1.3-.4 2 0 2.3 2 4.2 4.5 4.2 1.5 0 2.8-.7 3.6-2l1-1v1.4c0 1.5.6 2.8 2 3 0 0 1.7.2 4-1.6l3.3-3v1.6s-1.7 2.8-3.7 4c-1 .6-2.7 1.3-4 1-1.4-.2-2.4-1.3-3-2.6a6.7 6.7 0 0 1-3.3 1c-2.7 0-5.2-1.5-6-3.7-1.4 1.3-3 2-5 2-2.2 0-4.2-.8-5.5-2.3a7 7 0 0 1-4.6 1.8c-2.5 0-4.6-1.2-5.8-3-1.2 1.8-3.4 3-5.7 3a7 7 0 0 1-4.7-1.8c-1.2 1.5-3.2 2.4-5.4 2.4-2 0-3.7-.8-5-2-1 2-3.3 3.6-6 3.6a6.7 6.7 0 0 1-3.4-1c-.5 1.3-1.5 2.4-3 2.7-1.2 0-3-.6-4-1.2-2-1.2-3.8-4-3.8-4l.2-1.7s1.2 1.5 3.4 3.2c2.2 1.8 4 1.7 4 1.7 1.3-.4 2-1.7 2-3.2v-1.5l1 1.2c.7 1.2 2 2 3.6 2 2.5 0 4.5-2 4.5-4.3 0-.7-.2-1.4-.5-2l.8-2 1.5 1.6a4.4 4.4 0 0 0 0 .6c0 2.4 2 4.4 4.6 4.4 2.4 0 4.4-1.5 4.7-3.8.2 0 .2-1.6.3-1.7.2 0 .6 1.7.7 1.6.6 1.7 2.4 3 4.5 3 2.6 0 4.7-2 4.7-4.4 0-.6 0-1-.2-1.6l1.2-.2" fill="#c8b100" stroke="#000" stroke-width=".4"/><path d="M238.6 197.7c.3-.8 0-1.6-.5-1.8-.5-.3-1.2.2-1.5 1-.3.8 0 1.6.6 1.8.6.2 1.3-.3 1.6-1m-20.5-4c.2-1-.2-1.7-.8-1.7-.6 0-1.2.6-1.3 1.4-.2 1 .2 1.6.8 1.7.6 0 1.2-.5 1.3-1.3m-23.7 0c-.2-.8.2-1.6.8-1.6.7 0 1.3.6 1.4 1.4 0 1-.3 1.6-1 1.7-.5 0-1-.5-1-1.3m-20.7 4c-.2-.8 0-1.6.6-1.8.6-.3 1.2.2 1.5 1 .3.8 0 1.6-.5 1.8-.6.2-1.3-.3-1.6-1" fill="#fff" stroke="#000" stroke-width=".4"/><path d="M182.6 184c1 .6 2 1.7 2.3 3 0 0 0-.3.5-.7.6-.3 1-.3 1-.3l-.2 1.3c0 .3 0 1.3-.3 2.2-.2 1-.6 1.6-.6 1.6a2 2 0 0 0-1.5-.3 1.8 1.8 0 0 0-1.4 1s-.6-.7-1-1.4c-.6-.8-1-1.7-1.2-2l-.7-1s.5-.3 1-.2c.8.2 1 .4 1 .4-.2-1.2.2-2.5 1-3.4" fill="#c8b100" stroke="#000" stroke-width=".4"/><path d="M183 193.8a1.7 1.7 0 0 1-.6-1c0-.5 0-1 .3-1.2 0 0-1-.5-1.8-.7-.8-.3-2-.3-2.4-.3h-1l.2.5c.2.5.5.7.5.7-1.3.2-2.3 1-3 2 1 .6 2.3 1 3.5 1l-.2.7v.6l1-.4c.3-.2 1.5-.6 2-1 .8-.5 1.5-1.2 1.5-1.2m2.8-.5a1.6 1.6 0 0 0 .2-1.2 1.7 1.7 0 0 0-.6-1s.6-.6 1.4-1c.6-.5 1.7-1 2-1 .4 0 1-.4 1-.4v.6a5.7 5.7 0 0 1 0 .8c1 0 2.4.3 3.3 1-.5 1-1.6 1.7-2.8 2a6.4 6.4 0 0 0 .8 1.2h-1c-.5 0-1.7 0-2.4-.2-1-.2-1.8-.7-1.8-.7" fill="#c8b100" stroke="#000" stroke-width=".4"/><path d="M182.2 192.4c0-1 1-2 2-2 1.2 0 2.2 1 2.2 2s-1 2-2 2c-1.3 0-2.2-1-2.2-2" fill="#ad1519" stroke="#000" stroke-width=".4"/><path d="M206 180.8c1 1 2 2.3 2 3.7 0 0 .2-.3 1-.5.5-.3 1-.2 1-.2l-.5 1.4c0 .4-.3 1.5-.8 2.4a8.2 8.2 0 0 1-1 1.7 2 2 0 0 0-1.6-.7c-.5 0-1 .3-1.5.7 0 0-.6-.7-1-1.7l-.8-2.4c0-.4-.5-1.4-.5-1.4s.5 0 1.2.2 1 .5 1 .5c0-1.4.7-2.8 1.7-3.7m-1.6 11a2 2 0 0 1-.5-1.2c0-.5.2-1 .5-1.3 0 0-.8-.6-1.8-1-.7-.4-2-.6-2.5-.7l-1.2-.3.2.7.4 1c-1.4 0-2.8.7-3.7 1.6.8 1 2.2 1.6 3.6 1.7l-.4.8-.2.8 1.2-.2c.4 0 1.8-.4 2.5-.7l2-1.2m3 0c.3-.3.5-.8.5-1.2 0-.5-.2-1-.5-1.3l1.8-1c.8-.4 2-.6 2.5-.7l1.2-.3v.7l-.5 1c1.4 0 2.7.7 3.6 1.6-1 1-2.2 1.6-3.6 1.7l.4.8.2.8-1.2-.2c-.4 0-1.7-.4-2.5-.7-1-.5-1.8-1.2-1.8-1.2m22-7.8c-1 .6-2 1.7-2.2 3 0 0-.2-.4-.7-.7-.6-.3-1-.3-1-.3l.2 1.3c0 .3 0 1.3.3 2.2.2 1 .6 1.6.6 1.6a2 2 0 0 1 1.4-.3c.6 0 1 .5 1.3 1l1-1.4c.7-.8 1-1.7 1.2-2 0-.3.6-1 .6-1s-.4-.3-1-.2l-1 .4c.2-1.2-.2-2.5-1-3.4" fill="#c8b100" stroke="#000" stroke-width=".4"/><path d="M229.3 193.8c.3-.3.5-.6.6-1a1.6 1.6 0 0 0-.3-1.2s.8-.5 1.7-.7c.7-.3 2-.3 2.3-.3h1l-.2.5a6.2 6.2 0 0 1-.4.7c1.3.2 2.3 1 3 2-1 .6-2.2 1-3.5 1l.2.7v.6l-1-.4-2-1c-.8-.5-1.4-1.2-1.4-1.2m-2.8-.5a1.7 1.7 0 0 1-.2-1.2c0-.3.3-.6.6-1 0 0-.7-.6-1.5-1-.6-.5-1.7-1-2-1a171.4 171.4 0 0 1-1-.4v.6c0 .5.2.8.2.8-1.3 0-2.5.3-3.5 1 .7 1 1.7 1.7 3 2l-.6.7-.2.5h1c.4 0 1.7 0 2.4-.2a11 11 0 0 0 1.7-.7" fill="#c8b100" stroke="#000" stroke-width=".4"/><path d="M226 192.4c0-1 1-2 2-2 1.2 0 2 1 2 2s-.8 2-2 2c-1 0-2-1-2-2m23.2 4.4c-.4-.5-1.5-.4-2.2.2-.8.7-1 1.6-.5 2.2.5.5 1.5.4 2.3-.3.7-.7 1-1.7.4-2.2" fill="#ad1519" stroke="#000" stroke-width=".4"/><path d="M246.3 198c0-.3.3-.7.7-1 .7-.6 1.8-.7 2.2-.2l.2.3s1-2 2.3-2.6c1.3-.7 3.4-.5 3.4-.5 0-1.7-1.2-3-2.8-3-1 0-1.8.5-2.4 1.2l-.2-1s-1.3.2-2 1.7c-.5 1.4.2 3.5.2 3.5s-.4-1-1-1.5c-.3-.6-1.6-1.3-2.2-1.6l-1.4-.8v.6a5 5 0 0 0 0 .8c-1.2 0-2.6 0-3.7.5.5 1 1.4 1.8 2.5 2.2l-.8.7a4 4 0 0 0-.4.5h1.3l2.6.3a14.5 14.5 0 0 0 1.7-.2m-80.3 0c0-.3-.3-.7-.7-1-.7-.6-1.7-.7-2.2-.2v.3s-1-2-2.4-2.6c-1.2-.7-3.4-.5-3.4-.5 0-1.7 1.3-3 3-3 1 0 1.8.5 2.3 1.2l.2-1s1.3.2 2 1.7c.5 1.4 0 3.5 0 3.5s.2-1 .7-1.5c.5-.6 1.7-1.3 2.4-1.6l1.3-.8v.6c.2.5 0 .8 0 .8 1.3 0 2.7 0 3.8.5-.5 1-1.3 1.8-2.5 2.2l.8.7.5.5h-1.2l-2.6.3a14.7 14.7 0 0 1-1.7-.2" fill="#c8b100" stroke="#000" stroke-width=".4"/><path d="M163 196.8c.6-.5 1.6-.4 2.3.2.8.7 1 1.6.5 2.2-.5.5-1.5.4-2.2-.3-.8-.7-1-1.7-.5-2.2m41-6.2c0-1 1-2 2-2 1.3 0 2.2 1 2.2 2s-1 2-2 2c-1.2 0-2-1-2-2" fill="#ad1519" stroke="#000" stroke-width=".4"/><path d="M201.8 160.6c0-2.2 2-4 4.3-4 2.4 0 4.3 1.8 4.3 4s-2 4-4.2 4c-2.3 0-4.2-1.8-4.2-4" fill="#005bbf" stroke="#000" stroke-width=".3"/><path d="M205 149.3v2.2h-2.4v2.2h2.3v6.3h-3l-.2.6c0 .6 0 1 .3 1.6h8c.2-.5.3-1 .3-1.6l-.2-.6h-2.7v-6.3h2.3v-2.2h-2.3v-2.2H205z" fill="#c8b100" stroke="#000" stroke-width=".3"/><path d="M206.5 330.6c-12.6 0-25-3-35.5-8.2-7.7-4-12.8-11.6-12.8-20.4v-32h96.4v32c0 8.8-5 16.5-12.8 20.4-10.5 5-22.8 8.2-35.3 8.2" fill="#ccc"/><path d="M206.5 330.6c-12.6 0-25-3-35.5-8.2-7.7-4-12.8-11.6-12.8-20.4v-32h96.4v32c0 8.8-5 16.5-12.8 20.4-10.5 5-22.8 8.2-35.3 8.2z" fill="none" stroke="#000" stroke-width=".5"/><path d="M206.3 270h48.3v-53.5h-48.3V270z" fill="#ccc"/><path d="M206.3 270h48.3v-53.5h-48.3V270z" fill="none" stroke="#000" stroke-width=".5"/><path d="M206.3 302c0 12.6-10.7 23-24 23-13.4 0-24.2-10.4-24.2-23v-32h48.3v32" fill="#ad1519"/><path d="M168.6 321c1.5.7 3.6 2 5.8 2.5v-54.7h-5.8v52z" fill="#c8b100" stroke="#000" stroke-width=".5"/><path d="M158 301.6c.2 6.7 3 11.7 5.5 15V269H158v32.6z" fill="#c8b100" stroke="#000" stroke-width=".5" stroke-linejoin="round"/><path d="M179.4 324.7a26.6 26.6 0 0 0 5.6 0v-56h-5.6v56z" fill="#c7b500" stroke="#000" stroke-width=".5"/><path d="M190 323.5c2.2-.4 4.7-1.8 5.8-2.5v-52.2H190v54.7z" fill="#c8b100" stroke="#000" stroke-width=".5"/><path d="M158 270h48.3v-53.5H158V270z" fill="#ad1519"/><path d="M158 270h48.3v-53.5H158V270z" fill="none" stroke="#000" stroke-width=".5"/><path d="M201 316c2.4-2 4.6-6.8 5.4-12.2v-35H201V316z" fill="#c8b100" stroke="#000" stroke-width=".5"/><path d="M206.3 302c0 12.6-10.7 23-24 23-13.4 0-24.2-10.4-24.2-23v-32h48.3v32" fill="none" stroke="#000" stroke-width=".5"/><path d="M254.6 270v32c0 12.6-10.8 23-24 23-13.5 0-24.3-10.4-24.3-23v-32h48.3" fill="#ad1519"/><path d="M254.6 270v32c0 12.6-10.8 23-24 23-13.5 0-24.3-10.4-24.3-23v-32h48.3" fill="none" stroke="#000" stroke-width=".5"/><path d="M215 294l.2.6c0 .6-.5 1-1 1-.7 0-1.2-.4-1.2-1v-.4h-1.5v.4c0 1 .7 2 1.8 2.4v4h1.6v-4a2.6 2.6 0 0 0 1.6-1.6h4.4V294h-6m21.8 0v1.4h-4a2.5 2.5 0 0 1-.3.5l4.7 5.2-1.3 1-4.7-5.3h-.2v8.7h-1.5V297h-.2l-4.8 5.2-1.2-1 4.7-5.3a2 2 0 0 1-.2-.6h-4V294h13zm2.6 0v1.4h4.4c.3.8 1 1.3 1.7 1.6v4h1.6v-4c1.2-.3 2-1.3 2-2.4v-.5h-1.7v.6c0 .6-.4 1-1 1s-1-.4-1-1a1 1 0 0 1 0-.4h-6m-6.6 22c1.3-.2 2.5-.5 3.7-1l.8 1.4a17.6 17.6 0 0 1-4.3 1.2c-.4 1-1.4 2-2.7 2-1.2 0-2.3-1-2.5-2a17.5 17.5 0 0 1-4.6-1.2l.8-1.4c1.3.5 2.6 1 4 1 .2-.6.8-1 1.5-1.3v-7h1.6v6.7c.8 0 1.4.6 1.7 1.3zm-11-2.2l-.8 1.4a16.7 16.7 0 0 1-3.7-3c-1 0-1.8 0-2.5-.6-1-1-1.3-2.4-.3-3.5a15.3 15.3 0 0 1-1.2-5h1.7a13 13 0 0 0 1 4.2h1.4l4-4.4 1.4 1-4 4.6c.4 1 .4 2-.2 2.8a15.2 15.2 0 0 0 3 2.6zm-6-4.8c.3-.4 1-.5 1.5 0 .5.3.5 1 0 1.4a1.2 1.2 0 0 1-1.5 0 1 1 0 0 1 0-1.4zm-2.2-4.5l-1.6-.3-.4-4.3 1.7-.5v2.5c0 1 0 1.8.2 2.7zm1.4-5.3l1.6.4v2.2c0-.8.3 2 .3 2l-1.8.7-.3-2.7v-2.6zm5.5 13.7a15.7 15.7 0 0 0 4.8 2.7l.4-1.6a13.7 13.7 0 0 1-4-2l-1.2 1m-.8 1.5a17.4 17.4 0 0 0 4.8 2.6l-1.2 1.2a18.7 18.7 0 0 1-4-2l.4-1.7m2.2-9.4l1.5.8 3-3.3-1-1.4-3.6 4m-1.4-1l-1-1.3 3-3.3 1.6.7-3.6 4m18 10l1 1.4a16.7 16.7 0 0 0 3.5-3c1 0 2 0 2.6-.6 1-1 1.3-2.4.3-3.5h-.2a15 15 0 0 0 1.3-5h-1.6a13.3 13.3 0 0 1-1 4.2 3 3 0 0 0-1.4 0l-4-4.4-1.4 1 4 4.6a2.4 2.4 0 0 0 .2 2.8 15 15 0 0 1-3 2.6zm6.2-4.8a1.2 1.2 0 0 0-1.6 0 1 1 0 0 0 0 1.4 1.2 1.2 0 0 0 1.5 0 1 1 0 0 0 0-1.4zm2-4.5l1.7-.3.3-4.3-1.7-.5v5.2zm-1.3-5.3l-1.7.4v2.2c0-.8-.3 2-.3 2l1.7.7.3-2.7v-2.6M240 313a15.7 15.7 0 0 1-5 2.7l-.3-1.6a13.7 13.7 0 0 0 4-2l1.2 1m.7 1.5a17.5 17.5 0 0 1-4.8 2.6l1 1.2c1.6-.5 3-1.2 4-2l-.3-1.7m-2.2-9.4l-1.6.8-3-3.3 1-1.4 3.5 4m1.3-1l1-1.3-3-3.3-1.6.7 3.6 4m-20-8.6l.4 1.6h4.5l.5-1.6h-5.5m21 0l-.4 1.6h-4.5l-.5-1.6h5.5m-11.6 22c0-.7.5-1.2 1-1.2.7 0 1.2.5 1.2 1 0 .7-.5 1-1 1-.7 0-1.2-.3-1.2-1zm2-8l1.6-.3V305l-1.7-.5v5.2m-1.5 0l-1.7-.4V305l1.7-.5v5.2" fill="#c8b100"/><path d="M211.5 294.2c.2-1 1-1.6 1.8-2V287h1.6v5.3c.7.3 1.3 1 1.6 1.6h4.4v.2h-6a1.2 1.2 0 0 0-1-.6c-.3 0-.7.2-1 .6h-1.5m12.2 0v-.3h4a2.4 2.4 0 0 1 .3-.5l-5-5.6 1.2-1 5 5.5.2-.2v-7h1.6v7.3h.3l5-5.5 1 1-4.8 5.5.3.6h4v.2h-13zm21.6 0a1.2 1.2 0 0 1 1-.6c.5 0 .8.2 1 .6h1.6c-.3-1-1-1.6-2-2V287h-1.5v5.3c-.8.3-1.4 1-1.7 1.6h-4.4v.2h6m-30.2-15l6 6.8 1.3-1-6-6.7c0-.2 0-.4.2-.6h4.4V276h-4.3c-.4-1-1.4-1.6-2.5-1.6-1.5 0-2.7 1-2.7 2.5 0 1 .8 2 1.8 2.3v5.2h1.6v-5.2h.2zm32 0v5.3h-1.7v-5.2a2.5 2.5 0 0 1-.4-.2l-6 7-1-1 6-7s0-.2-.2-.3h-4.4V276h4.4c.4-1 1.4-1.6 2.5-1.6 1.5 0 2.7 1 2.7 2.5 0 1-.8 2-2 2.3zm-16 0v3.3h-1.8v-3.2a2.6 2.6 0 0 1-1.7-1.6h-4V276h4c.4-1 1.3-1.6 2.5-1.6s2.2.7 2.5 1.7h4v1.7h-4a2.5 2.5 0 0 1-1.6 1.6zm-18 4l-1.6.4v4.3l1.7.4V283m1.7 0l1.6.4v4.3l-1.6.4v-5.2m30.5 0l-1.7.4v4.3l1.7.4v-5.2m1.6 0l1.8.4v4.3l-1.7.4v-5.2m-25.4.8l1.6-.7 3 3.3-1 1.4-3.6-4m-1.3 1l-1 1.4 3 3.3 1.6-.7-3.7-4m18.5-1l-1.6-.8-3 3.3 1 1.4 3.6-4m1.2 1l1 1.3-3 3.3-1.5-.7 3.5-4m-20.3 9l.5-1.7h4.5l.5 1.6h-5.5m-6.7-17c0-.7.5-1.2 1.2-1.2.6 0 1 .5 1 1 0 .7-.4 1.2-1 1.2-.7 0-1.2-.5-1.2-1zm12 .7l-.3 1.6H220l-.4-1.6h5.5m0-1.6l-.3-1.5H220l-.4 1.6h5.5m15.8 18l-.5-1.7h-4.5l-.5 1.6h5.5m4.4-17c0-.7.5-1.2 1-1.2.7 0 1.2.5 1.2 1 0 .7-.5 1.2-1 1.2-.7 0-1.2-.5-1.2-1zm-16 0c0-.7.4-1.2 1-1.2s1 .5 1 1c0 .7-.4 1.2-1 1.2s-1-.5-1-1zm6 .7l.6 1.6h4.6l.5-1.6h-5.7m0-1.6l.5-1.5h4.6l.5 1.6h-5.7m-6 5l-1.5.6v4.3l1.6.4V281m1.7 0l1.7.6v4.3l-1.6.4V281" fill="#c8b100"/><path d="M232.7 316.3l3.7-1 .8 1.3a17.6 17.6 0 0 1-4.3 1.2c-.4 1-1.4 2-2.7 2-1.2 0-2.3-1-2.5-2a17.5 17.5 0 0 1-4.6-1.2l.8-1.4c1.3.5 2.6 1 4 1 .2-.6.8-1 1.5-1.3V308h1.6v6.7c.8 0 1.4.6 1.7 1.3zM228 296a2.3 2.3 0 0 1-.2-.6h-4V294h4a2.6 2.6 0 0 1 .2-.5l-5-5.6 1.2-1 5 5.4a2.2 2.2 0 0 1 .2 0V285h1.7v7.3h.3l5-5.5 1 1-4.8 5.5.3.6h4v1.4h-4c0 .2-.2.4-.3.5l4.7 5.2-1.3 1-4.7-5.3h-.2v8.7h-1.5V297h-.2l-4.8 5.2-1.2-1 4.7-5.3M215.2 279l6 6.8 1.3-1-6-6.7c0-.2 0-.4.2-.6h4.4V276h-4.3c-.4-1-1.4-1.6-2.5-1.6-1.5 0-2.7 1-2.7 2.5 0 1 .8 2 1.8 2.3v5.2h1.6v-5.2h.2zm6.5 34.8l-.8 1.4a16.7 16.7 0 0 1-3.7-3c-1 0-1.8 0-2.5-.6-1-1-1.3-2.4-.3-3.5a15.3 15.3 0 0 1-1.2-5h1.7a13 13 0 0 0 1 4.2h1.4l4-4.4 1.4 1-4 4.6c.5 1 .4 2-.2 2.8a15.2 15.2 0 0 0 3 2.6zm-8.4-13v-4c-1-.3-1.8-1.3-1.8-2.4 0-1 .8-2 1.8-2.4v-5h1.6v5.3c.7.2 1.4.8 1.6 1.6h4.4v1.4h-4.4a2.6 2.6 0 0 1-1.7 1.6v4h-1.7m2.3 8.2c.4-.4 1-.5 1.6 0 .5.3.5 1 0 1.4a1.2 1.2 0 0 1-1.5 0 1 1 0 0 1 0-1.4zm-2-4.5l-1.7-.3-.4-4.3 1.7-.5v2.5c0 1 0 1.8.2 2.7zm1.3-5.3l1.6.4v2.2c0-.8.3 2 .3 2l-1.8.7-.3-2.7v-2.6zm5.5 13.7a15.7 15.7 0 0 0 4.8 2.7l.4-1.6a13.7 13.7 0 0 1-4-2l-1.2 1m-.8 1.5a17.4 17.4 0 0 0 4.8 2.6l-1.2 1.2a18.7 18.7 0 0 1-4-2l.4-1.7" fill="none" stroke="#c8b100" stroke-width=".3"/><path d="M222 305l1.5.8 3-3.3-1-1.4-3.6 4m-1.4-1l-1-1.3 3-3.3 1.6.7-3.6 4m-7.6-9.4c0-.6.5-1 1-1 .7 0 1.2.4 1.2 1s-.5 1-1 1c-.7 0-1.2-.4-1.2-1zm25.7 19.4l.8 1.4a16.7 16.7 0 0 0 3.7-3c.8 0 1.7 0 2.4-.6 1-1 1.3-2.4.3-3.5h-.2a15 15 0 0 0 1.3-5h-1.6a13.3 13.3 0 0 1-1 4.2 3 3 0 0 0-1.4 0l-4-4.4-1.4 1 4 4.6a2.4 2.4 0 0 0 .2 2.8 15 15 0 0 1-3 2.6zm8.4-13v-4c1.2-.3 2-1.3 2-2.4 0-1-.8-2-2-2.3V287h-1.5v5.3c-.8.2-1.4.8-1.7 1.6h-4.4v1.4h4.4c.3.8 1 1.3 1.7 1.6v4h1.6zm-2 7.8a1.2 1.2 0 0 0-1.6 0 1 1 0 0 0 0 1.4 1.2 1.2 0 0 0 1.5 0 1 1 0 0 0 0-1.4zm2-4.5l1.7-.3.3-4.3-1.7-.5v5.2zm-1.3-5.3l-1.7.4v2.2c0-.8-.3 2-.3 2l1.7.7.3-2.7v-2.6m1.6-20v5h-1.5v-5a2.2 2.2 0 0 1-.4-.3l-6 7-1-1 6-7v-.3h-4.6V276h4.4c.4-1 1.4-1.6 2.5-1.6 1.5 0 2.7 1 2.7 2.5 0 1-.8 2-2 2.3zm-16 0v3h-1.6v-3a2.6 2.6 0 0 1-1.7-1.7h-4V276h4c.4-1 1.3-1.6 2.5-1.6s2.2.7 2.5 1.7h4v1.7h-4a2.5 2.5 0 0 1-1.6 1.6zm9 33.7a15.7 15.7 0 0 1-5 2.7l-.3-1.6a13.7 13.7 0 0 0 4-2l1.2 1m.7 1.5a17.5 17.5 0 0 1-4.8 2.6l1.2 1.2c1.4-.5 2.7-1.2 4-2l-.5-1.7M213.3 283l-1.7.6v4.3l1.7.4V283m1.7 0l1.6.6v4.3l-1.6.4V283m30.5 0l-1.7.6v4.3l1.7.4V283" fill="none" stroke="#c8b100" stroke-width=".3"/><path d="M247 283l1.8.6v4.3l-1.7.4V283m-8.5 22l-1.6.8-3-3.3 1-1.4 3.5 4m1.3-1l1-1.3-3-3.3-1.6.7 3.6 4m-18.2-20l1.6-.7 3 3.3-1 1.4-3.6-4m-1.3 1l-1 1.4 3 3.3 1.6-.7-3.7-4m18.5-1l-1.6-.8-3 3.3 1 1.4 3.6-4m1.2 1l1 1.2-3 3.3-1.5-.6 3.5-4m-20.3 9l.5-1.7h4.5l.5 1.6h-5.5m0 1.4l.5 1.6h4.5l.5-1.6h-5.5M213 277c0-.7.6-1.2 1.2-1.2s1 .5 1 1c0 .7-.4 1.2-1 1.2s-1.2-.5-1.2-1zm12 .7l-.3 1.6H220l-.4-1.6h5.6m0-1.6l-.5-1.5H220l-.4 1.6h5.6m20 18.6c0-.6.5-1 1-1 .7 0 1.2.4 1.2 1s-.5 1-1 1c-.7 0-1.2-.4-1.2-1zm-4.4-.7l-.5-1.7h-4.5l-.5 1.6h5.5m0 1.4l-.5 1.6h-4.5l-.5-1.6h5.5m-11.6 22c0-.7.5-1.2 1-1.2.7 0 1.2.5 1.2 1 0 .7-.5 1-1 1-.7 0-1.2-.3-1.2-1zm2-8l1.6-.3V305l-1.7-.5v5.2m-1.5 0l-1.7-.4V305l1.7-.5v5.2m15.7-32.6c0-.7.5-1.2 1-1.2.8 0 1.3.5 1.3 1 0 .7-.5 1.2-1.2 1.2-.6 0-1-.5-1-1zm-16 0c0-.7.4-1.2 1-1.2s1 .5 1 1c0 .7-.4 1.2-1 1.2s-1-.5-1-1zm6.2.7l.4 1.6h4.6l.5-1.6h-5.6m0-1.6l.4-1.5h4.6l.5 1.6h-5.6m-6 5l-1.6.6v4.3l1.6.3V281m1.7 0l1.7.6v4.3l-1.6.3V281" fill="none" stroke="#c8b100" stroke-width=".3"/><path d="M227.7 294.7c0-1.4 1.2-2.5 2.6-2.5 1.5 0 2.6 1 2.6 2.5 0 1.3-1.2 2.4-2.7 2.4-1.4 0-2.6-1-2.6-2.3" fill="#058e6e"/><path d="M231 229.7v-.8h-2.3c-.8-.4-1.6-.7-2.3-1.3-.8-.7-1-1-1.6-1.2-1.3-.2-2.3.4-2.3.4s1 .4 1.7 1.3c.7 1 1.5 1.3 1.8 1.4.6.2 2.6 0 3 0 .7 0 2 .3 2 .3" fill="#db4446"/><path d="M231 229.7v-.8h-2.3c-.8-.4-1.6-.7-2.3-1.3-.8-.7-1-1-1.6-1.2-1.3-.2-2.3.4-2.3.4s1 .4 1.7 1.3c.7 1 1.5 1.3 1.8 1.4.6.2 2.6 0 3 0 .7 0 2 .3 2 .3z" fill="none" stroke="#000" stroke-width=".4"/><path d="M238 227.5l.2 1.4c0 .5-.2 1 0 1.4 0 .4 0 .6.2 1l.2.8-.7-.5-.7-.4v1c0 .2.3.8.6 1 .2.5.7 1 1 1.4v1.4s-.4-.6-.8-.8c-.4 0-1.2-.5-1.2-.5s.7.7.7 1.4c0 1-.3 1.7-.3 1.7s-.3-.7-.8-1l-1-1s.4 1.2.4 2v2.3s-.5-.6-1-1l-.8-.7.5 1c0 .6.3 2.4 1.8 4.6 1 1.2 2.3 3.5 5.3 2.8 3-.8 2-4.8 1.3-6.7-.6-1.7-1-3.8-.8-4.5 0-.7.5-3 .4-3.3 0-.4-.2-2 .2-3 .4-1.4.7-2 1-2.4 0-.6.3-1 .3-1.3.2-.5.2-1.3.2-1.3l.7 1.3v1.5s0-1 1-1.6c.8-.5 1.8-1 2-1.4.3-.3.3-.5.3-.5s0 1.8-.6 2.6l-1.7 2 1.2-.2h1s-.7.4-1.5 1.6c-.8 1-.4 1.2-1 2-.6 1-1 1-1.7 1.6-1 1-.5 4.2-.4 4.7.2.5 2 4.6 2 5.5 0 1 .2 3.2-1.5 4.6-1 1-3 1-3.3 1.2-.4.3-1.2 1-1.2 2.8 0 1.7.6 2 1 2.4.6.5 1.2.2 1.3.6l.5.7c.2.2.3.4.2.8 0 .3-.8 1-1 1.7-.4.6-1 2.2-1 2.4 0 .2 0 1 .2 1.3 0 0 1 1 .3 1.2-.4 0-.7-.3-1-.3-.4.2-.7.5-1 .5-.2 0-.2-.3-.3-.8v-.6c-.3 0-.4 0-.5.4 0 .2 0 .8-.2.8-.3 0-.6-.4-.8-.5-.3 0-.8-.2-1-.4 0-.2.5-.8 1-1 .2 0 .6-.2.3-.4s-.4-.2-.7 0c-.2.2-.8 0-.7-.2 0-.3.2-.7 0-.8 0-.2-.3-.5.2-.8.6-.3.8.2 1.4 0 .6 0 .8-.2 1-.5.3-.3.2-1-.2-1.4-.3-.6-.7-.6-1-1l-.2-.8v2.3l-.7-1c-.3-.2-.6-1.2-.6-1.2l-.2 1.3c0 .4.5.7.3.8 0 .2-.7-.7-1-.8l-.8-1c-.3-.5-.5-1-.5-1.4 0-.2-.2-1.2 0-1.5 0-.4.4-1 .4-1h-1.3c-.7 0-1.2-.3-1.5.2-.3.4-.2 1.4.2 2.7l.4 2c0 .3-.5 1-.7 1h-.8c-.2-.2-.5-.3-1.2-.3H228l-1-.4c-.4 0-1 .3-.7.7.2.6-.2.7-.5.7l-1-.2c-.2 0-.8 0-.7-.4 0-.4.2-.4.4-.7.2-.2.2-.4 0-.4h-.6c-.2.2-.5.5-.8.4-.2 0-.4-.4-.4-1s-.6-1.2 0-1c.5 0 1.3.3 1.4 0 .2-.3 0-.5-.2-.8-.4-.2-.8-.4-.3-.7l.7-.5c0-.2.4-.8.7-.6.6.3 0 .7.6 1.3.6.7 1 1 2 .8 1 0 1.3-.2 1.3-.5v-1c-.2-.2 0-1 0-1s-.5.3-.6.6c0 .3-.4.8-.4.8v-2l-.2-.8-.3 1v1s-.7-.6-.5-1.6v-2c.3-.3.8-1.5 2-1.6h2.8l2-.3-3.6-1.8c-.6-.4-1.6-1.5-2-2l-.6-1.5s-.4 0-.8.2a5 5 0 0 0-1.2 1c-.3.2-.7 1-.7 1V242s-.3 1-1 1.6l-1.4 1v-1.8s-.3.8-1 1c-.7 0-1.8 0-2 .4 0 .5.3 1 .2 1.4l-.5.5s-.4-.2-.8-.3c-.5 0-.8.2-.8.2s-.3-.5-.2-.8c0-.2.7-.6.5-.8 0 0-.5 0-.8.2-.3.2-.8.3-.8-.2v-1c-.2-.3 0-.5 0-.5.4-.2 1.2 0 1.3-.3 0-.2-.2-.5-.8-.6-.6 0-.8-.4-.5-.7.3-.2.4-.3.5-.6 0-.2.2-.7.7-.5.5.3.4.8 1 1 .5.2 1.8 0 2-.2l1.5-1c.3 0 1.5-1 1.5-1l-1-.8c-.3-.3-.7-1-1-1-.2-.2-1.4-.6-1.8-.6-.4 0-1.7-.5-1.7-.5l.8-.2c.2-.2.6-.6.8-.5h.3-1.4c-.3-.2-1-.7-1.2-.7h-1s1-.3 1.5-.4h1s-1-.4-1-.7l-.7-1c-.2 0-.3-.5-.6-.5s-.8.4-1 .3c-.4 0-.6-.2-.6-.6v-.5c-.3-.3-.7-.8-.3-1h1.4c0-.2-.5-.6-.8-.8-.5-.2-1-.5-.8-.7l.8-.6c.2-.2.4-.8.7-.6.4.2.8 1.2 1 1 .4 0 .4-.7.4-1 0-.3 0-.8.3-.8s.5.4 1 .5c.4 0 1 0 1 .3s-.3.7-.6 1c-.3.3-.4 1-.3 1.4.2.5.7 1.2 1.2 1.4.4.4 1.2.6 1.7 1l2 1.4c.5 0 1 .3 1 .3s.4-.2 1-.2c.7 0 2 0 2.6-.2.5-.2 1.2-.6 1-1-.2-.6-1.4-1-1.3-1.4 0-.5.5-.5 1.2-.5s1.7 0 2-1c0-1 0-1.5-1-1.8-1-.2-1.7-.2-2-1 0-.7-.3-1 0-1 .2-.3.5-.4 1.3-.5.8 0 1.6 0 2-.2 0-.2.2-.7.5-1l1.4-.3s1.4.7 2.7 1.7l2 2" fill="#ed72aa" stroke="#000" stroke-width=".4"/><path d="M228 226.8v-.6l-.2-.3s1 0 .8.2c0 .2-.2.2-.3.3l-.2.3"/><path d="M228 226.8v-.6l-.2-.3s1 0 .8.2c0 .2-.2.2-.3.3l-.2.3z" fill="none" stroke="#000" stroke-width=".3"/><path d="M232 225.5v-.5s.7 0 1 .3c.6.4 1 1 1 1l-1-.4h-.4c-.2 0-.3 0-.3-.2v-.3h-.3"/><path d="M232 225.5v-.5s.7 0 1 .3c.6.4 1 1 1 1l-1-.4h-.4c-.2 0-.3 0-.3-.2v-.3h-.3z" fill="none"/><path d="M237.3 231.3l-.4-.7c-.2 0-.4-.4-.4-.4" fill="none" stroke="#000" stroke-width=".3"/><path d="M217.4 226.6s.5.4.8.4h.8s.2-.4 0-.8c0-1.2-1-1.4-1-1.4s.2.7 0 1c-.2.5-.6.8-.6.8" fill="#db4446"/><path d="M217.4 226.6s.5.4.8.4h.8s.2-.4 0-.8c0-1.2-1-1.4-1-1.4s.2.7 0 1c-.2.5-.6.8-.6.8z" fill="none" stroke="#000" stroke-width=".4"/><path d="M215.2 227.6s-.4-.7-1.3-.6c-1 0-1.5.8-1.5.8h1.2c.3.3.4 1 .4 1l.8-.6a7.2 7.2 0 0 0 .4-.6" fill="#db4446"/><path d="M215.2 227.6s-.4-.7-1.3-.6c-1 0-1.5.8-1.5.8h1.2c.3.3.4 1 .4 1l.8-.6a7.2 7.2 0 0 0 .4-.6z" fill="none" stroke="#000" stroke-width=".4"/><path d="M214 230.6s-.6 0-1 .6c-.4.5-.3 1.3-.3 1.3s.4-.5 1-.5l1 .2-.2-.8-.4-.8" fill="#db4446"/><path d="M214 230.6s-.6 0-1 .6c-.4.5-.3 1.3-.3 1.3s.4-.5 1-.5l1 .2-.2-.8-.4-.8z" fill="none" stroke="#000" stroke-width=".4"/><path d="M228.2 230.5l.3-.5.3.5h-.6"/><path d="M228.2 230.5l.3-.5.3.5h-.6" fill="none" stroke="#000" stroke-width=".3"/><path d="M229 230.5l.3-.5.4.5h-.8"/><path d="M229 230.5l.3-.5.4.5h-.8" fill="none" stroke="#000" stroke-width=".3"/><path d="M228.6 227.4l.8.2-.7.4v-.6"/><path d="M228.6 227.4l.8.2-.7.4v-.6" fill="none" stroke="#000" stroke-width=".3"/><path d="M229.5 227.6l.7.2-.5.4-.2-.6"/><path d="M229.5 227.6l.7.2-.5.4-.2-.6" fill="none" stroke="#000" stroke-width=".3"/><path d="M224.2 233.7s-.7.2-1 .6c-.4.5-.3 1-.3 1s.5-.5 1.3-.3l1.3.3 1.2-.3s-.7.8-.6 1.3l.2 1.2c0 .7-.6 1.5-.6 1.5l1-.3a4.6 4.6 0 0 0 1.7-.8l1-1s-.3 1 0 1.3v1.6l1-.7.8-.7.3-1s0 1 .3 1.3l.6 1.5s.3-.8.6-1l.7-1-.2-1 .4 1m-11 .4s.5-1 1-1c.3-.4 1-.8 1-1l1-.3m1 5l1.3-.8c.6-.5 1-1.2 1-1.2" fill="none" stroke="#000" stroke-width=".4"/><path d="M216.6 240.4s-.4-.5-1-.4c-.8.2-1.3 1-1.3 1s.6-.2 1 0c.3 0 .6.3.6.3l.3-.4c0-.3.3-.6.3-.6" fill="#db4446"/><path d="M216.6 240.4s-.4-.5-1-.4c-.8.2-1.3 1-1.3 1s.6-.2 1 0c.3 0 .6.3.6.3l.3-.4c0-.3.3-.6.3-.6z" fill="none" stroke="#000" stroke-width=".4"/><path d="M215.8 243.2s-.6 0-1 .3c-.6.4-.7 1.2-.7 1.2s.6-.4 1-.3l1 .2v-.6l-.2-.8" fill="#db4446"/><path d="M215.8 243.2s-.6 0-1 .3c-.6.4-.7 1.2-.7 1.2s.6-.4 1-.3l1 .2v-.6l-.2-.8z" fill="none" stroke="#000" stroke-width=".4"/><path d="M217.2 245.8s0 .8.3 1.3c.4.6 1 .6 1 .6l-.2-.7c0-.5.4-1 .4-1s-.4-.2-.7-.2h-.8" fill="#db4446"/><path d="M217.2 245.8s0 .8.3 1.3c.4.6 1 .6 1 .6l-.2-.7c0-.5.4-1 .4-1s-.4-.2-.7-.2h-.8zm16 1.3s2 1.3 2 2.3c-.2 1-1.2 2.3-1.2 2.3" fill="none" stroke="#000" stroke-width=".4"/><path d="M224.2 252.6s-.4-.6-1-.6c-.8 0-1.5.7-1.5.7s.8 0 1 .2l.5.5.5-.3c.2 0 .5-.6.5-.6" fill="#db4446"/><path d="M224.2 252.6s-.4-.6-1-.6c-.8 0-1.5.7-1.5.7s.8 0 1 .2l.5.5.5-.3c.2 0 .5-.6.5-.6z" fill="none" stroke="#000" stroke-width=".4"/><path d="M222.2 255.3s-1 0-1.4.3c-.4.5-.4 1.3-.4 1.3s.6-.7 1-.6c.5 0 1 .3 1 .3v-.7l-.2-.7" fill="#db4446"/><path d="M222.2 255.3s-1 0-1.4.3c-.4.5-.4 1.3-.4 1.3s.6-.7 1-.6c.5 0 1 .3 1 .3v-.7l-.2-.7z" fill="none" stroke="#000" stroke-width=".4"/><path d="M224 258s-.4.8 0 1.2c.3.5 1 .8 1 .8s-.3-.4-.2-.8c0-.3.7-.8.7-.8l-1.4-.3" fill="#db4446"/><path d="M224 258s-.4.8 0 1.2c.3.5 1 .8 1 .8s-.3-.4-.2-.8c0-.3.7-.8.7-.8l-1.4-.3z" fill="none" stroke="#000" stroke-width=".4"/><path d="M236 259.3s-.8-.2-1.2 0c-.5.3-.8 1.4-.8 1.4s.7-.6 1.2-.5c.5 0 1 .3 1 .3v-.8l-.2-.4" fill="#db4446"/><path d="M236 259.3s-.8-.2-1.2 0c-.5.3-.8 1.4-.8 1.4s.7-.6 1.2-.5c.5 0 1 .3 1 .3v-.8l-.2-.4z" fill="none" stroke="#000" stroke-width=".4"/><path d="M236.4 262.2s-.6.6-.4 1l.6 1.2s0-.8.2-1c.4-.3 1-.4 1-.4l-.7-.5a15.8 15.8 0 0 1-.6-.3" fill="#db4446"/><path d="M236.4 262.2s-.6.6-.4 1l.6 1.2s0-.8.2-1c.4-.3 1-.4 1-.4l-.7-.5a15.8 15.8 0 0 1-.6-.3z" fill="none" stroke="#000" stroke-width=".4"/><path d="M239.4 263s-.3.8.2 1.3c.6.5 1 .6 1 .6s-.3-1-.2-1.3c0-.5.5-.7.5-.7l-1-.2-.6.3" fill="#db4446"/><path d="M239.4 263s-.3.8.2 1.3c.6.5 1 .6 1 .6s-.3-1-.2-1.3c0-.5.5-.7.5-.7l-1-.2-.6.3z" fill="none" stroke="#000" stroke-width=".4"/><path d="M208.8 316.4c2 .6 3 2 3 3.8 0 2.3-2.2 4-5 4-3 0-5.3-1.7-5.3-4 0-1.7 1-3.6 3-3.8l-.2-.4-.7-.7h1.2l.8.5.5-.7.7-.4.6.6.3.5.7-.4.8-.3v.7c-.2.2-.2.7-.2.7" fill="#ffd691" stroke="#000" stroke-width=".5"/><path d="M206.3 326.7s-3.8-2.6-5.5-3c-2-.4-4.5 0-5.5 0 0 0 1.2.8 1.8 1.4.6.6 2.4 1.7 3.4 2 3 .7 6-.3 6-.3m1 .2s2.4-2.6 5-3c3-.4 5 .3 6.2.6l-1.5.8c-.4.4-1.8 1.5-4 1.6-2 0-4.3-.3-4.7-.2h-1" fill="#058e6e" stroke="#000" stroke-width=".5"/><path d="M206.7 323.8a5 5 0 0 1 0-7 4.8 4.8 0 0 1 1.5 3.4 5 5 0 0 1-1.5 3.6" fill="#ad1519" stroke="#000" stroke-width=".5"/><path d="M205.7 329s.6-1.5.6-2.7v-2h.7s.3 1 .3 2v2.3h-.8l-.8.4" fill="#058e6e" stroke="#000" stroke-width=".5"/><path d="M254 190.7c0-.5.5-1 1-1 .6 0 1 .5 1 1 0 .6-.4 1-1 1-.5 0-1-.4-1-1" fill="#fff"/><path d="M254 190.7c0-.5.5-1 1-1 .6 0 1 .5 1 1 0 .6-.4 1-1 1-.5 0-1-.4-1-1z" fill="none" stroke="#000" stroke-width=".4"/><path d="M255.4 188.2c0-.6.5-1 1-1 .7 0 1 .4 1 1 0 .5-.3 1-1 1-.5 0-1-.5-1-1" fill="#fff"/><path d="M255.4 188.2c0-.6.5-1 1-1 .7 0 1 .4 1 1 0 .5-.3 1-1 1-.5 0-1-.5-1-1z" fill="none" stroke="#000" stroke-width=".4"/><path d="M256.4 185.2c0-.5.5-1 1-1 .6 0 1 .5 1 1 0 .6-.4 1-1 1-.5 0-1-.4-1-1" fill="#fff"/><path d="M256.4 185.2c0-.5.5-1 1-1 .6 0 1 .5 1 1 0 .6-.4 1-1 1-.5 0-1-.4-1-1z" fill="none" stroke="#000" stroke-width=".4"/><path d="M256.5 182c0-.5.5-1 1-1 .7 0 1 .5 1 1 0 .6-.3 1-1 1-.5 0-1-.4-1-1" fill="#fff"/><path d="M256.5 182c0-.5.5-1 1-1 .7 0 1 .5 1 1 0 .6-.3 1-1 1-.5 0-1-.4-1-1z" fill="none" stroke="#000" stroke-width=".4"/><path d="M255.7 179c0-.6.5-1 1-1 .7 0 1 .4 1 1 0 .5-.3 1-1 1-.5 0-1-.5-1-1" fill="#fff"/><path d="M255.7 179c0-.6.5-1 1-1 .7 0 1 .4 1 1 0 .5-.3 1-1 1-.5 0-1-.5-1-1z" fill="none" stroke="#000" stroke-width=".4"/><path d="M254 176c0-.4.6-1 1.2-1s1 .6 1 1-.4 1-1 1-1-.3-1-1" fill="#fff"/><path d="M254 176c0-.4.6-1 1.2-1s1 .6 1 1-.4 1-1 1-1-.3-1-1z" fill="none" stroke="#000" stroke-width=".4"/><path d="M252 173.8c0-.6.4-1 1-1s1 .4 1 1c0 .5-.4 1-1 1s-1-.5-1-1" fill="#fff"/><path d="M252 173.8c0-.6.4-1 1-1s1 .4 1 1c0 .5-.4 1-1 1s-1-.5-1-1z" fill="none" stroke="#000" stroke-width=".4"/><path d="M249.5 172c0-.7.4-1 1-1s1 .3 1 1c0 .4-.4.8-1 .8s-1-.4-1-1" fill="#fff"/><path d="M249.5 172c0-.7.4-1 1-1s1 .3 1 1c0 .4-.4.8-1 .8s-1-.4-1-1z" fill="none" stroke="#000" stroke-width=".4"/><path d="M246.5 170.3c0-.6.4-1 1-1s1 .4 1 1c0 .5-.4 1-1 1s-1-.5-1-1" fill="#fff"/><path d="M246.5 170.3c0-.6.4-1 1-1s1 .4 1 1c0 .5-.4 1-1 1s-1-.5-1-1z" fill="none" stroke="#000" stroke-width=".4"/><path d="M243.3 169c0-.4.5-1 1-1 .7 0 1.2.6 1.2 1 0 .7-.5 1-1 1-.7 0-1.2-.3-1.2-1" fill="#fff"/><path d="M243.3 169c0-.4.5-1 1-1 .7 0 1.2.6 1.2 1 0 .7-.5 1-1 1-.7 0-1.2-.3-1.2-1z" fill="none" stroke="#000" stroke-width=".4"/><path d="M240 168.5c0-.5.3-1 1-1 .5 0 1 .5 1 1 0 .6-.5 1-1 1-.7 0-1-.4-1-1" fill="#fff"/><path d="M240 168.5c0-.5.3-1 1-1 .5 0 1 .5 1 1 0 .6-.5 1-1 1-.7 0-1-.4-1-1z" fill="none" stroke="#000" stroke-width=".4"/><path d="M236.6 168.3c0-.5.4-1 1-1s1 .5 1 1c0 .6-.4 1-1 1s-1-.4-1-1" fill="#fff"/><path d="M236.6 168.3c0-.5.4-1 1-1s1 .5 1 1c0 .6-.4 1-1 1s-1-.4-1-1z" fill="none" stroke="#000" stroke-width=".4"/><path d="M233.3 168.5c0-.6.5-1 1-1 .7 0 1 .4 1 1 0 .5-.3 1-1 1-.5 0-1-.5-1-1" fill="#fff"/><path d="M233.3 168.5c0-.6.5-1 1-1 .7 0 1 .4 1 1 0 .5-.3 1-1 1-.5 0-1-.5-1-1z" fill="none" stroke="#000" stroke-width=".4"/><path d="M230 168.5c0-.6.6-1 1-1 .7 0 1.2.4 1.2 1 0 .5-.5 1-1 1-.6 0-1-.5-1-1" fill="#fff"/><path d="M230 168.5c0-.6.6-1 1-1 .7 0 1.2.4 1.2 1 0 .5-.5 1-1 1-.6 0-1-.5-1-1z" fill="none" stroke="#000" stroke-width=".4"/><path d="M231.7 171.2c0-.5.5-1 1-1 .6 0 1 .5 1 1 0 .6-.4 1-1 1-.5 0-1-.4-1-1m.7 3c0-.4.4-1 1-1s1 .6 1 1c0 .7-.4 1-1 1s-1-.3-1-1m0 3.2c0-.6.6-1 1-1 .7 0 1.2.4 1.2 1 0 .5-.5 1-1 1-.6 0-1-.5-1-1m-1 2.7c0-.4.4-1 1-1s1 .6 1 1c0 .7-.4 1-1 1s-1-.3-1-1m-2 2.7c0-.5.6-1 1.2-1s1 .5 1 1c0 .6-.4 1-1 1s-1-.4-1-1" fill="#fff" stroke="#000" stroke-width=".4"/><path d="M227.6 166.5c0-.5.5-1 1-1 .7 0 1 .5 1 1 0 .6-.3 1-1 1-.5 0-1-.4-1-1" fill="#fff"/><path d="M227.6 166.5c0-.5.5-1 1-1 .7 0 1 .5 1 1 0 .6-.3 1-1 1-.5 0-1-.4-1-1z" fill="none" stroke="#000" stroke-width=".4"/><path d="M224.8 165c0-.6.4-1 1-1s1 .4 1 1c0 .5-.4 1-1 1s-1-.5-1-1" fill="#fff"/><path d="M224.8 165c0-.6.4-1 1-1s1 .4 1 1c0 .5-.4 1-1 1s-1-.5-1-1z" fill="none" stroke="#000" stroke-width=".4"/><path d="M221.6 164c0-.6.5-1 1-1 .6 0 1 .4 1 1 0 .5-.4 1-1 1-.5 0-1-.5-1-1" fill="#fff"/><path d="M221.6 164c0-.6.5-1 1-1 .6 0 1 .4 1 1 0 .5-.4 1-1 1-.5 0-1-.5-1-1z" fill="none" stroke="#000" stroke-width=".4"/><path d="M218.3 163.4c0-.5.5-1 1-1 .6 0 1 .5 1 1 0 .6-.4 1-1 1-.5 0-1-.4-1-1" fill="#fff"/><path d="M218.3 163.4c0-.5.5-1 1-1 .6 0 1 .5 1 1 0 .6-.4 1-1 1-.5 0-1-.4-1-1z" fill="none" stroke="#000" stroke-width=".4"/><path d="M215 163.5c0-.6.5-1 1-1 .7 0 1.2.4 1.2 1 0 .5-.5 1-1 1-.7 0-1-.5-1-1" fill="#fff"/><path d="M215 163.5c0-.6.5-1 1-1 .7 0 1.2.4 1.2 1 0 .5-.5 1-1 1-.7 0-1-.5-1-1z" fill="none" stroke="#000" stroke-width=".4"/><path d="M211.7 164c0-.5.5-1 1-1 .6 0 1 .5 1 1 0 .6-.4 1-1 1-.5 0-1-.4-1-1" fill="#fff"/><path d="M211.7 164c0-.5.5-1 1-1 .6 0 1 .5 1 1 0 .6-.4 1-1 1-.5 0-1-.4-1-1z" fill="none" stroke="#000" stroke-width=".4"/><path d="M208.6 165c0-.4.5-1 1-1 .6 0 1 .6 1 1 0 .7-.4 1-1 1-.5 0-1-.3-1-1" fill="#fff"/><path d="M208.6 165c0-.4.5-1 1-1 .6 0 1 .6 1 1 0 .7-.4 1-1 1-.5 0-1-.3-1-1z" fill="none" stroke="#000" stroke-width=".4"/><path d="M156 190.7c0-.5.4-1 1-1s1 .5 1 1c0 .6-.4 1-1 1s-1-.4-1-1" fill="#fff"/><path d="M156 190.7c0-.5.4-1 1-1s1 .5 1 1c0 .6-.4 1-1 1s-1-.4-1-1z" fill="none" stroke="#000" stroke-width=".4"/><path d="M154.5 188.2c0-.6.5-1 1-1 .6 0 1 .4 1 1 0 .5-.4 1-1 1-.5 0-1-.5-1-1" fill="#fff"/><path d="M154.5 188.2c0-.6.5-1 1-1 .6 0 1 .4 1 1 0 .5-.4 1-1 1-.5 0-1-.5-1-1z" fill="none" stroke="#000" stroke-width=".4"/><path d="M153.5 185.2c0-.5.5-1 1-1 .7 0 1 .5 1 1 0 .6-.3 1-1 1-.5 0-1-.4-1-1" fill="#fff"/><path d="M153.5 185.2c0-.5.5-1 1-1 .7 0 1 .5 1 1 0 .6-.3 1-1 1-.5 0-1-.4-1-1z" fill="none" stroke="#000" stroke-width=".4"/><path d="M153.4 182c0-.5.5-1 1-1 .6 0 1 .5 1 1 0 .6-.4 1-1 1-.5 0-1-.4-1-1" fill="#fff"/><path d="M153.4 182c0-.5.5-1 1-1 .6 0 1 .5 1 1 0 .6-.4 1-1 1-.5 0-1-.4-1-1z" fill="none" stroke="#000" stroke-width=".4"/><path d="M154.2 179c0-.6.5-1 1-1 .6 0 1 .4 1 1 0 .5-.4 1-1 1-.5 0-1-.5-1-1" fill="#fff"/><path d="M154.2 179c0-.6.5-1 1-1 .6 0 1 .4 1 1 0 .5-.4 1-1 1-.5 0-1-.5-1-1z" fill="none" stroke="#000" stroke-width=".4"/><path d="M155.8 176c0-.4.5-1 1-1 .6 0 1 .6 1 1s-.4 1-1 1c-.5 0-1-.3-1-1" fill="#fff"/><path d="M155.8 176c0-.4.5-1 1-1 .6 0 1 .6 1 1s-.4 1-1 1c-.5 0-1-.3-1-1z" fill="none" stroke="#000" stroke-width=".4"/><path d="M158 173.8c0-.6.4-1 1-1s1 .4 1 1c0 .5-.4 1-1 1s-1-.5-1-1" fill="#fff"/><path d="M158 173.8c0-.6.4-1 1-1s1 .4 1 1c0 .5-.4 1-1 1s-1-.5-1-1z" fill="none" stroke="#000" stroke-width=".4"/><path d="M160.5 172c0-.7.4-1 1-1s1 .3 1 1c0 .4-.4.8-1 .8s-1-.4-1-1" fill="#fff"/><path d="M160.5 172c0-.7.4-1 1-1s1 .3 1 1c0 .4-.4.8-1 .8s-1-.4-1-1z" fill="none" stroke="#000" stroke-width=".4"/><path d="M163.5 170.3c0-.6.4-1 1-1s1 .4 1 1c0 .5-.4 1-1 1s-1-.5-1-1" fill="#fff"/><path d="M163.5 170.3c0-.6.4-1 1-1s1 .4 1 1c0 .5-.4 1-1 1s-1-.5-1-1z" fill="none" stroke="#000" stroke-width=".4"/><path d="M166.6 169c0-.4.5-1 1-1 .6 0 1 .6 1 1 0 .7-.4 1-1 1-.5 0-1-.3-1-1" fill="#fff"/><path d="M166.6 169c0-.4.5-1 1-1 .6 0 1 .6 1 1 0 .7-.4 1-1 1-.5 0-1-.3-1-1z" fill="none" stroke="#000" stroke-width=".4"/><path d="M170 168.5c0-.5.5-1 1-1 .7 0 1.2.5 1.2 1 0 .6-.5 1-1 1-.7 0-1-.4-1-1" fill="#fff"/><path d="M170 168.5c0-.5.5-1 1-1 .7 0 1.2.5 1.2 1 0 .6-.5 1-1 1-.7 0-1-.4-1-1z" fill="none" stroke="#000" stroke-width=".4"/><path d="M173.4 168.3c0-.5.4-1 1-1s1 .5 1 1c0 .6-.4 1-1 1s-1-.4-1-1" fill="#fff"/><path d="M173.4 168.3c0-.5.4-1 1-1s1 .5 1 1c0 .6-.4 1-1 1s-1-.4-1-1z" fill="none" stroke="#000" stroke-width=".4"/><path d="M176.6 168.5c0-.6.5-1 1-1 .6 0 1 .4 1 1 0 .5-.4 1-1 1-.5 0-1-.5-1-1" fill="#fff"/><path d="M176.6 168.5c0-.6.5-1 1-1 .6 0 1 .4 1 1 0 .5-.4 1-1 1-.5 0-1-.5-1-1z" fill="none" stroke="#000" stroke-width=".4"/><path d="M179.8 168.5c0-.6.5-1 1-1 .7 0 1 .4 1 1 0 .5-.3 1-1 1-.5 0-1-.5-1-1" fill="#fff"/><path d="M179.8 168.5c0-.6.5-1 1-1 .7 0 1 .4 1 1 0 .5-.3 1-1 1-.5 0-1-.5-1-1z" fill="none" stroke="#000" stroke-width=".4"/><path d="M178.2 171.2c0-.5.5-1 1-1 .7 0 1 .5 1 1 0 .6-.3 1-1 1-.5 0-1-.4-1-1m-.6 3c0-.4.4-1 1-1s1 .6 1 1c0 .7-.4 1-1 1s-1-.3-1-1m-.2 3.2c0-.6.5-1 1-1 .7 0 1 .4 1 1 0 .5-.3 1-1 1-.5 0-1-.5-1-1m1 2.7c0-.4.5-1 1-1 .6 0 1 .6 1 1 0 .7-.4 1-1 1-.5 0-1-.3-1-1m1.8 2.7c0-.5.5-1 1-1 .6 0 1 .5 1 1 0 .6-.4 1-1 1-.5 0-1-.4-1-1" fill="#fff" stroke="#000" stroke-width=".4"/><path d="M182.3 166.5c0-.5.5-1 1-1 .6 0 1 .5 1 1 0 .6-.4 1-1 1-.5 0-1-.4-1-1" fill="#fff"/><path d="M182.3 166.5c0-.5.5-1 1-1 .6 0 1 .5 1 1 0 .6-.4 1-1 1-.5 0-1-.4-1-1z" fill="none" stroke="#000" stroke-width=".4"/><path d="M185.2 165c0-.6.4-1 1-1s1 .4 1 1c0 .5-.4 1-1 1s-1-.5-1-1" fill="#fff"/><path d="M185.2 165c0-.6.4-1 1-1s1 .4 1 1c0 .5-.4 1-1 1s-1-.5-1-1z" fill="none" stroke="#000" stroke-width=".4"/><path d="M188.3 164c0-.6.5-1 1-1 .7 0 1 .4 1 1 0 .5-.3 1-1 1-.5 0-1-.5-1-1" fill="#fff"/><path d="M188.3 164c0-.6.5-1 1-1 .7 0 1 .4 1 1 0 .5-.3 1-1 1-.5 0-1-.5-1-1z" fill="none" stroke="#000" stroke-width=".4"/><path d="M191.6 163.4c0-.5.5-1 1-1 .7 0 1 .5 1 1 0 .6-.3 1-1 1-.5 0-1-.4-1-1" fill="#fff"/><path d="M191.6 163.4c0-.5.5-1 1-1 .7 0 1 .5 1 1 0 .6-.3 1-1 1-.5 0-1-.4-1-1z" fill="none" stroke="#000" stroke-width=".4"/><path d="M195 163.5c0-.6.3-1 1-1 .5 0 1 .4 1 1 0 .5-.5 1-1 1-.7 0-1-.5-1-1" fill="#fff"/><path d="M195 163.5c0-.6.3-1 1-1 .5 0 1 .4 1 1 0 .5-.5 1-1 1-.7 0-1-.5-1-1z" fill="none" stroke="#000" stroke-width=".4"/><path d="M198.2 164c0-.5.5-1 1-1 .7 0 1 .5 1 1 0 .6-.3 1-1 1-.5 0-1-.4-1-1" fill="#fff"/><path d="M198.2 164c0-.5.5-1 1-1 .7 0 1 .5 1 1 0 .6-.3 1-1 1-.5 0-1-.4-1-1z" fill="none" stroke="#000" stroke-width=".4"/><path d="M201.3 165c0-.4.5-1 1-1 .7 0 1 .6 1 1 0 .7-.3 1-1 1-.5 0-1-.3-1-1" fill="#fff"/><path d="M201.3 165c0-.4.5-1 1-1 .7 0 1 .6 1 1 0 .7-.3 1-1 1-.5 0-1-.3-1-1z" fill="none" stroke="#000" stroke-width=".4"/><path d="M174.6 229h-.8v-1h-1.6v3.5h1.6v2.5h-3.4v7h1.8v14.3h-3.5v7.3H196v-7.3h-3.6V241h1.8v-7h-3.4v-2.5h1.6V228h-1.6v1h-.8v-1h-1.6v1h-1v-1h-1.7v3.5h1.6v2.5H184v-7.8h1.7v-3.5H184v1h-1v-1h-1.5v1h-1v-1H179v3.5h1.6v7.8h-3.3v-2.5h1.6V228h-1.7v1h-1v-1h-1.7v1zm-6 33.6H196m-27.3-1.8H196m-27.3-1.8H196m-27.3-1.7H196m-27.3-2H196m-23.8-1.6h20.2m-20.2-1.8h20.2m-20.2-2h20.2m-20.2-1.8h20.2m-20.2-1.8h20.2m-20.2-1.8h20.2m-20.2-1.8h20.2m-22-1.7h23.8m-23.8-1.7h23.8m-23.8-1.8h23.8m-23.8-1.8h23.8m-20.4-1.7h17m-10.2-1.8h3.4m-3.4-1.8h3.4m-3.4-1.7h3.4m-3.4-1.8h3.4m-5-2.3h6.7m-12 7.5h3.6m-5-2.2h6.6m-6.8 32.6v-1.8m0-1.8v-1.7m-1.8 1.7v1.8m3.4 0V259m1.7 3.6v-1.8m0-1.8v-1.7m0-2v-1.6m0-1.8v-2m-1.7 7.3v-2m-3.4 2v-2m7 0v2m1.5-2v-1.6m-5.2-1.8v1.7m3.5-1.8v1.7m3.3-1.8v1.7M179 252v-2m1.6-1.8v1.7m0-5.4v1.8m-1.7-3.6v1.8m1.6-3.5v1.8m-3.3-1.7v1.8m-3.5-1.7v1.8m-1.6-3.5v1.8m3.3-1.7v1.8m3.4-1.7v1.8m1.6-3.5v1.8m-3.3-1.8v1.8m-3.5-1.8v1.8m-1.6-3.6v1.8m6.7-1.8v1.8m-3.5-5.3v1.8m15.3-1.8H187m5-2.2h-6.6m6.7 32.6v-1.8m0-1.8v-1.7m1.8 1.7v1.8m-3.4 0V259m-1.7 3.6v-1.8m0-1.8v-1.7m0-2v-1.6m0-1.8v-2m1.8 7.3v-2m3.4 2v-2m-7 0v2m-1.5-2v-1.6m5-1.8v1.7m-3.4-1.8v1.7M184 252v1.7m1.7-1.8v-2M184 248v1.7m0-5.4v1.8m1.7-3.6v1.8M184 241v1.8m3.3-1.7v1.8m3.5-1.7v1.8m1.6-3.5v1.8m-3.3-1.7v1.8m-3.3-1.7v1.8m-1.7-3.5v1.8m3.3-1.8v1.8m3.5-1.8v1.8m1.6-3.6v1.8m-6.7-1.8v1.8m3.4-5.3v1.8m-6.8 18v-2m0-5.4v-1.8m0 5.4v-1.8m0-5.3v-1.7m0-1.8v-1.7m0-3.6V231m0-1.7V227m-8.4 4.5h3.5m3.3-5.3h3.4m3.3 5.3h3.5" fill="#c8b100" stroke="#000" stroke-width=".4"/><path d="M186.8 262.6V258c0-1-.4-3.6-4.6-3.6-4 0-4.4 2.6-4.4 3.5v4.6h9z" fill="#c8b100" stroke="#000" stroke-width=".4"/><path d="M179.3 258.2l-2.2-.3c0-1 .3-2.3 1-2.7l2 1.5c-.2.2-.7 1-.7 1.4zm6 0l2.2-.3c0-1-.2-2.3-1-2.7l-2 1.5c.3.2.8 1 .8 1.4zM183 256l1.2-2c-.5-.3-1.3-.5-2-.5-.5 0-1.3.2-1.8.4l1 2h1.7zm-4-5.6v-5c0-1.2-1-2.3-2.6-2.3s-2.4 1.2-2.4 2.5v5h5zm6.7 0v-5c0-1.2 1-2.3 2.5-2.3s2.4 1.2 2.4 2.5v5h-5zm-1.7-12l.4-4.4h-4.2l.2 4.4h3.6zm3.3 0l-.5-4.4h4.5l-.5 4.4h-3.5zm-10 0l.2-4.4h-4.2l.5 4.4h3.5z" fill="#c8b100" stroke="#000" stroke-width=".4"/><path d="M185.3 262.6v-4c0-.7-.4-2.7-3-2.7s-3 2-3 2.6v4h6zm-7-12.7v-4.3c0-1-.5-2.2-2-2.2-1.2 0-2 1-2 2.2v4.2h4zm8 0v-4.3c0-1 .5-2.2 2-2.2 1.2 0 2 1 2 2.2v4.2h-4z" fill="#0039f0"/><path d="M190.8 269.8c0-9.7 7-17.6 15.6-17.6s15.6 8 15.6 17.6c0 9.7-7 17.5-15.6 17.5s-15.6-7.8-15.6-17.5" fill="#ad1519"/><path d="M190.8 269.8c0-9.7 7-17.6 15.6-17.6s15.6 8 15.6 17.6c0 9.7-7 17.5-15.6 17.5s-15.6-7.8-15.6-17.5z" fill="none" stroke="#000" stroke-width=".6"/><path d="M195.4 269.7c0-7 5-12.8 11-12.8s11 5.6 11 12.7c0 7-5 13-11 13s-11-6-11-13" fill="#005bbf"/><path d="M195.4 269.7c0-7 5-12.8 11-12.8s11 5.6 11 12.7c0 7-5 13-11 13s-11-6-11-13z" fill="none" stroke="#000" stroke-width=".6"/><path d="M201.2 261s-1.3 1.3-1.3 2.6.5 2.5.5 2.5c-.2-.5-.8-.8-1.4-.8-.7 0-1.3.6-1.3 1.3 0 .2 0 .6.2.8l.4 1c0-.4.5-.6 1-.6s1 .4 1 1a1 1 0 0 1 0 .2H199v1h1l-.8 1.4 1-.4.8 1 .8-1 1 .4-.7-1.5h1v-1h-1a1 1 0 0 1-.2-.4c0-.5.6-1 1.2-1 .4 0 .7.3 1 .6l.4-1 .2-.7c0-.7-.6-1.3-1.4-1.3-.7 0-1.2.3-1.4 1 0 0 .6-1.3.6-2.6s-1.4-2.7-1.4-2.7" fill="#c8b100"/><path d="M201.2 261s-1.3 1.3-1.3 2.6.5 2.5.5 2.5c-.2-.5-.8-.8-1.4-.8-.7 0-1.3.6-1.3 1.3 0 .2 0 .6.2.8l.4 1c0-.4.5-.6 1-.6s1 .4 1 1a1 1 0 0 1 0 .2H199v1h1l-.8 1.4 1-.4.8 1 .8-1 1 .4-.7-1.5h1v-1h-1a1 1 0 0 1-.2-.4c0-.5.6-1 1.2-1 .4 0 .7.3 1 .6l.4-1 .2-.7c0-.7-.6-1.3-1.4-1.3-.7 0-1.2.3-1.4 1 0 0 .6-1.3.6-2.6s-1.4-2.7-1.4-2.7z" fill="none" stroke="#000" stroke-width=".3" stroke-linejoin="round"/><path d="M199.2 270h4v-1h-4v1z" fill="#c8b100"/><path d="M199.2 270h4v-1h-4v1z" fill="none" stroke="#000" stroke-width=".3"/><path d="M211.4 261s-1.3 1.3-1.3 2.6.7 2.5.7 2.5c-.2-.5-.7-.8-1.4-.8-.8 0-1.4.6-1.4 1.3v.8l.6 1c0-.4.5-.6 1-.6s1 .4 1 1a1 1 0 0 1 0 .2h-1.2v1h1l-.8 1.4 1-.4.8 1 .8-1 1 .4-.7-1.5h1v-1h-1a.8.8 0 0 1-.2-.4c0-.5.5-1 1-1s1 .3 1 .6l.5-1 .2-.7c0-.7-.6-1.3-1.4-1.3-.7 0-1.2.3-1.4 1 0 0 .6-1.3.6-2.6s-1.4-2.7-1.4-2.7" fill="#c8b100"/><path d="M211.4 261s-1.3 1.3-1.3 2.6.7 2.5.7 2.5c-.2-.5-.7-.8-1.4-.8-.8 0-1.4.6-1.4 1.3v.8l.6 1c0-.4.5-.6 1-.6s1 .4 1 1a1 1 0 0 1 0 .2h-1.2v1h1l-.8 1.4 1-.4.8 1 .8-1 1 .4-.7-1.5h1v-1h-1a.8.8 0 0 1-.2-.4c0-.5.5-1 1-1s1 .3 1 .6l.5-1 .2-.7c0-.7-.6-1.3-1.4-1.3-.7 0-1.2.3-1.4 1 0 0 .6-1.3.6-2.6s-1.4-2.7-1.4-2.7z" fill="none" stroke="#000" stroke-width=".3" stroke-linejoin="round"/><path d="M209.4 270h4v-1h-4v1z" fill="#c8b100"/><path d="M209.4 270h4v-1h-4v1z" fill="none" stroke="#000" stroke-width=".3"/><path d="M206.3 269.6s-1.3 1.5-1.3 2.8.6 2.4.6 2.4c-.2-.5-.7-1-1.4-1-.8 0-1.4.7-1.4 1.5 0 .2 0 .5.2.7l.5 1c0-.4.5-.6 1-.6s1 .5 1 1a1 1 0 0 1 0 .3h-1.2v1h1l-.8 1.5 1-.4.8 1 .8-1 1.2.4-.8-1.5h1v-1h-1a1 1 0 0 1-.2-.3c0-.5.5-1 1-1s.8.2 1 .6l.5-1 .2-.7c0-.8-.7-1.4-1.5-1.4-.7 0-1.2.3-1.4.8 0 0 .7-1 .7-2.4 0-1.3-1.4-2.8-1.4-2.8" fill="#c8b100"/><path d="M206.3 269.6s-1.3 1.5-1.3 2.8.6 2.4.6 2.4c-.2-.5-.7-1-1.4-1-.8 0-1.4.7-1.4 1.5 0 .2 0 .5.2.7l.5 1c0-.4.5-.6 1-.6s1 .5 1 1a1 1 0 0 1 0 .3h-1.2v1h1l-.8 1.5 1-.4.8 1 .8-1 1.2.4-.8-1.5h1v-1h-1a1 1 0 0 1-.2-.3c0-.5.5-1 1-1s.8.2 1 .6l.5-1 .2-.7c0-.8-.7-1.4-1.5-1.4-.7 0-1.2.3-1.4.8 0 0 .7-1 .7-2.4 0-1.3-1.4-2.8-1.4-2.8z" fill="none" stroke="#000" stroke-width=".3" stroke-linejoin="round"/><path d="M204.3 278.6h4v-1h-4v1z" fill="#c8b100"/><path d="M204.3 278.6h4v-1h-4v1z" fill="none" stroke="#000" stroke-width=".3"/><path d="M237.6 223.4h-.3a1.5 1.5 0 0 1-.3.4c-.2.2-.6.2-.8 0a.5.5 0 0 1 0-.4.5.5 0 0 1-.6 0c-.3 0-.3-.5 0-.7v-.5h-.4v.2c-.3.3-.6.3-.8.2a.6.6 0 0 1 0-.3s-.2 0-.3.2c-.4 0-.6-1-.6-1.3l-.2.2s.2.7 0 1.2l-.2 1.2c.8.2 1.8.8 3 1.6 1 .8 1.8 1.7 2 2.3l1.3-.5c.5-.2 1.3-.2 1.3-.2l.2-.2c-.3 0-1.5 0-1.5-.4v-.2a.7.7 0 0 1-.2 0v-.7h.3v-.4h-.3s0 .2-.2.2c-.2.2-.6.3-.8 0a.4.4 0 0 1 0-.4.5.5 0 0 1-.6 0c-.2-.2-.3-.5 0-.8l.2-.3v-.3" fill="#c8b100"/><path d="M237.6 223.4h-.3a1.5 1.5 0 0 1-.3.4c-.2.2-.6.2-.8 0a.5.5 0 0 1 0-.4.5.5 0 0 1-.6 0c-.3 0-.3-.5 0-.7v-.5h-.4v.2c-.3.3-.6.3-.8.2a.6.6 0 0 1 0-.3s-.2 0-.3.2c-.4 0-.6-1-.6-1.3l-.2.2s.2.7 0 1.2l-.2 1.2c.8.2 1.8.8 3 1.6 1 .8 1.8 1.7 2 2.3l1.3-.5c.5-.2 1.3-.2 1.3-.2l.2-.2c-.3 0-1.5 0-1.5-.4v-.2a.7.7 0 0 1-.2 0v-.7h.3v-.4h-.3s0 .2-.2.2c-.2.2-.6.3-.8 0a.4.4 0 0 1 0-.4.5.5 0 0 1-.6 0c-.2-.2-.3-.5 0-.8l.2-.3v-.3z" fill="none" stroke="#000" stroke-width=".3"/><path d="M235.4 224h.2v.3c-.2 0-.2-.2-.2-.2"/><path d="M235.4 224h.2v.3c-.2 0-.2-.2-.2-.2z" fill="none"/><path d="M236.3 224.8l-.3-.2v-.2l.4.3.4.2h-.2l-.3-.2"/><path d="M236.3 224.8l-.3-.2v-.2l.4.3.4.2h-.2l-.3-.2" fill="none"/><path d="M234.6 223.7l-.2-.2c0-.2 0-.2 0 0h.3l.3.2c0 .2 0 .2 0 0h-.4"/><path d="M234.6 223.7l-.2-.2c0-.2 0-.2 0 0h.3l.3.2c0 .2 0 .2 0 0h-.4" fill="none"/><path d="M233.7 223h.2v.2h-.3v-.2"/><path d="M233.7 223h.2v.2h-.3v-.2z" fill="none"/><path d="M237.3 225.5v-.2h-.2v.2h.3"/><path d="M237.3 225.5v-.2h-.2v.2h.3z" fill="none"/><path d="M238 226.2v.2h.3v-.2l-.3-.2-.2-.2c-.2 0-.2 0 0 .2v.2"/><path d="M238 226.2v.2h.3v-.2l-.3-.2-.2-.2c-.2 0-.2 0 0 .2v.2" fill="none"/><path d="M238.8 227v-.3h-.3v.2h.3"/><path d="M238.8 227v-.3h-.3v.2h.3z" fill="none"/><path d="M236 221l-.4.2v.8l.8-.4-.3-.5" fill="#c8b100"/><path d="M236 221l-.4.2v.8l.8-.4-.3-.5" fill="none" stroke="#000" stroke-width=".3"/><path d="M234.6 221.6v.5l1 .2v-.2l-.5-.7-.4.3" fill="#c8b100"/><path d="M234.6 221.6v.5l1 .2v-.2l-.5-.7-.4.3" fill="none" stroke="#000" stroke-width=".3"/><path d="M236.4 222.6l-.4.3-.6-.8.2-.2h1l-.2.6" fill="#c8b100"/><path d="M236.4 222.6l-.4.3-.6-.8.2-.2h1l-.2.6" fill="none" stroke="#000" stroke-width=".3"/><path d="M235.3 222a.3.3 0 0 1 .4 0 .3.3 0 0 1 0 .3.3.3 0 0 1-.3 0 .3.3 0 0 1 0-.3" fill="#c8b100"/><path d="M235.3 222a.3.3 0 0 1 .4 0 .3.3 0 0 1 0 .3.3.3 0 0 1-.3 0 .3.3 0 0 1 0-.3z" fill="none" stroke="#000" stroke-width=".3"/><path d="M233.2 221s0-.3-.2-.5c0-.2-.4-.5-.4-.5h.8c.4.4 0 1 0 1h-.2" fill="#c8b100"/><path d="M233.2 221s0-.3-.2-.5c0-.2-.4-.5-.4-.5h.8c.4.4 0 1 0 1h-.2z" fill="none" stroke="#000" stroke-width=".3"/><path d="M234.2 221.4l-.4.4-.6-.6v-.2h1v.4" fill="#c8b100"/><path d="M234.2 221.4l-.4.4-.6-.6v-.2h1v.4" fill="none" stroke="#000" stroke-width=".3"/><path d="M233 221h.4v.2s0 .2-.2.2v-.3" fill="#c8b100"/><path d="M233 221h.4v.2s0 .2-.2.2v-.3z" fill="none" stroke="#000" stroke-width=".3"/><path d="M238.3 222.5h-.5l-.3.8h.2l.8-.3-.2-.5" fill="#c8b100"/><path d="M238.3 222.5h-.5l-.3.8h.2l.8-.3-.2-.5" fill="none" stroke="#000" stroke-width=".3"/><path d="M236.7 222.8v.5l.8.2v-.2l-.3-.7-.5.2" fill="#c8b100"/><path d="M236.7 222.8v.5l.8.2v-.2l-.3-.7-.5.2" fill="none" stroke="#000" stroke-width=".3"/><path d="M238.4 224l-.5.2-.5-.7v-.2l1 .2v.5" fill="#c8b100"/><path d="M238.4 224l-.5.2-.5-.7v-.2l1 .2v.5" fill="none" stroke="#000" stroke-width=".3"/><path d="M237.3 223.2h.4a.3.3 0 0 1 0 .4.3.3 0 0 1-.3 0 .3.3 0 0 1 0-.4" fill="#c8b100"/><path d="M237.3 223.2h.4a.3.3 0 0 1 0 .4.3.3 0 0 1-.3 0 .3.3 0 0 1 0-.4z" fill="none" stroke="#000" stroke-width=".3"/><path d="M240.2 224.3v.5l-.7.3h-.2l.4-1 .5.3" fill="#c8b100"/><path d="M240.2 224.3v.5l-.7.3h-.2l.4-1 .5.3" fill="none" stroke="#000" stroke-width=".3"/><path d="M240 225.8h-.5l-.3-.7h.2l.8.3v.5" fill="#c8b100"/><path d="M240 225.8h-.5l-.3-.7h.2l.8.3v.5" fill="none" stroke="#000" stroke-width=".3"/><path d="M238.6 224.3l-.2.5 1 .3-.3-.8h-.4" fill="#c8b100"/><path d="M238.6 224.3l-.2.5 1 .3-.3-.8h-.4" fill="none" stroke="#000" stroke-width=".3"/><path d="M239.5 225.2a.3.3 0 0 0 0-.3.3.3 0 0 0-.4 0 .3.3 0 0 0 0 .2.3.3 0 0 0 .5 0" fill="#c8b100"/><path d="M239.5 225.2a.3.3 0 0 0 0-.3.3.3 0 0 0-.4 0 .3.3 0 0 0 0 .2.3.3 0 0 0 .5 0z" fill="none" stroke="#000" stroke-width=".3"/><path d="M240.8 227h.8c.2 0 .5.3.5.3.2 0 .2-.4-.2-.7-.4-.3-.8.2-.8.2l-.2.2" fill="#c8b100"/><path d="M240.8 227h.8c.2 0 .5.3.5.3.2 0 .2-.4-.2-.7-.4-.3-.8.2-.8.2l-.2.2z" fill="none" stroke="#000" stroke-width=".3"/><path d="M240.3 226l-.3.6.8.5h.2v-1h-.7" fill="#c8b100"/><path d="M240.3 226l-.3.6.8.5h.2v-1h-.7" fill="none" stroke="#000" stroke-width=".3"/><path d="M241 227v-.2h-.3s-.2.2 0 .3h.2" fill="#c8b100"/><path d="M241 227v-.2h-.3s-.2.2 0 .3h.2zm38-22v.7h-2.3v-.6h1V204h-.7v-.5h.6v-.6h.5v.6h.7v.5h-.6v1.3h1" fill="none" stroke="#000" stroke-width=".3"/><path d="M134.4 217v-1m-.4 1v-1m-.2 1v-1m-.3 1v-1m-.3 1v-1" fill="none"/><path d="M132.7 217v-1m.2 1v-1m-.7 1v-1m.2 1v-1m-.9 1v-1m.2 1v-1m.3 1v-1m-.7 1v-1m-.3 1v-1m0 1v-1m-.6.8v-.6m.2.6v-.6m-.4.5v-.5m-.2.5v-.4m-.3.3v-.3m-.3.3v-.2" fill="none" stroke="#000" stroke-width=".1"/><path d="M129.2 216.6v-.2" fill="none" stroke="#000" stroke-width=".2"/><path d="M135.7 217v-1m-.5 1v-1m-.4 1v-1m143 1v-1m-.4 1v-1m-.4 1v-1m-.2 1v-1m-.2 1v-1" fill="none"/><path d="M276 217v-1m.3 1v-1m-.8 1v-1m.3 1v-1m-.8 1v-1m0 1v-1m.3 1v-1m-.6 1v-1m-.3 1v-1m-.2 1v-1m-.4.8v-.6m.2.6v-.6m-.5.6v-.6m-.2.5v-.4m-.3.4v-.4m-.2.3v-.2" fill="none" stroke="#000" stroke-width=".1"/><path d="M272.5 216.6v-.2" fill="none" stroke="#000" stroke-width=".2"/><path d="M279 217v-1m-.5 1v-1m-.4 1v-1" fill="none"/></svg>