<svg xmlns="http://www.w3.org/2000/svg" viewBox="0 0 640 480" version="1" xmlns:xlink="http://www.w3.org/1999/xlink"><path fill="#006" d="M0 0h640v480H0z"/><path fill-rule="evenodd" fill="#006" d="M0 0h400v200H0z"/><g stroke-width="1pt"><path d="M0 0v25.562L317.137 228.63h39.92v-25.56L39.917 0H0zm357.056 0v25.56L39.92 228.63H0v-25.562L317.137 0h39.92z" fill="#fff"/><path d="M148.773 0v228.63h59.51V0h-59.51zM0 76.21v76.21h357.056V76.21H0z" fill="#fff"/><path d="M0 91.452v45.726h357.056V91.452H0zM160.675.002V228.63h35.706V0H160.68zM0 228.63l119.02-76.21h26.61L26.614 228.63H0zM0 0l119.02 76.21H92.405L0 17.042V.002zm211.425 76.21L330.445 0h26.61L238.038 76.21h-26.612zm145.63 152.42l-119.018-76.21h26.613l92.406 59.168v17.04z" fill="#c00"/></g><path d="M395.805 354.265a15.467 15.467 0 0 0-2.375.22c-3.967.69-10.219 13.607-13.678 21.17-5.405 6.604-8.292 11.735-10.565 15.538-.883 1.477-2.246 3.192-1.828 5.156-8.186 2.006-8.593 9.032-8.593 11.77 0 2.902.915 4.353.915 4.353l4.899 9.172.035.11c5.216 10.783 12.938 25.303 17.258 26.508 6.135 1.712 22.021-4.154 33.93-14.222 19.527 8.044 44.545 14.698 72.504 14.698 27.959 0 52.94-6.657 72.468-14.699 11.91 10.07 27.797 15.933 33.93 14.223 4.335-1.208 12.079-15.823 17.292-26.618l4.903-9.176s.912-1.45.912-4.352c0-2.736-.44-9.763-8.628-11.773.41-1.963-.908-3.677-1.79-5.155-2.291-3.834-5.172-9.009-10.642-15.69-3.47-7.581-9.699-20.334-13.637-21.025-5.548-.964-17.515 1.85-17.515 2.818 0 .023-.067.526-.073.585l-24.031 22.698c0 .65 1.275 17.074 5.777 31.59-16.087 5.856-35.832 9.98-58.975 9.98-23.158 0-42.956-4.118-59.05-9.98 4.505-14.516 5.815-30.94 5.815-31.59l-24.02-22.698c-.006-.059-.074-.562-.074-.585 0-.847-9.16-3.131-15.169-3.035zm6.142 28.19c3.021-.037 6.239 2.451 8.885 5.23-.09.544-.183 1.103-.292 1.608-.73 3.36-1.984 7.795-3.73 12.43-6.868-4.012-12.472-8.184-16.745-12.064 2.607-2.773 6.793-6.544 11.225-7.16a4.52 4.52 0 0 1 .659-.036zm172.646 0c.218.003.44.006.658.035 4.432.62 8.655 4.396 11.262 7.168-4.283 3.889-9.895 8.084-16.783 12.102-1.753-4.645-2.999-9.1-3.73-12.467-.11-.506-.201-1.062-.292-1.61 2.65-2.784 5.857-5.264 8.885-5.229zm-194.22 32.029c3.194 2.445 7.366 5.232 12.395 8.19-1.393.88-2.874 1.536-4.423 1.895-2.066.48-4.238.386-6.435-.072-.688-1.697-1.267-3.832-1.427-6.69a82.235 82.235 0 0 1-.11-3.328zm215.83 0c-.017 1.023-.08 2.132-.147 3.323-.16 2.858-.702 4.992-1.39 6.692-2.2.459-4.406.55-6.47.07-1.551-.359-2.995-1.015-4.387-1.9 5.03-2.954 9.198-5.742 12.393-8.19z" fill-rule="evenodd" stroke="#fff" stroke-width="11.7" fill="#a43907"/><path d="M445.63 595.48s5.625-8.75 10.313-8.125c4.687.625 9.062 6.25 9.375 6.562.312.313 7.187-7.187 6.875-7.5-.313-.312-7.188-16.562-10.938-17.187s-11.847 1.196-11.847 1.82-3.778 24.43-3.778 24.43z" fill-rule="evenodd" transform="matrix(-1.48 0 0 1.54 1073.61 -525.43)" stroke="#000" stroke-width="1.16" fill="#a43907"/><path d="M433.13 586.11c0 .625 1.875 23.75 10 31.875s21.25 13.125 25.938 11.875c4.687-1.25 15.312-24.687 15.312-24.687s-11.25 11.25-19.687 9.375c-8.438-1.875-13.438-15.938-15-22.813-1.563-6.875-.313-20.313-.313-20.313l-16.25 14.688z" fill-rule="evenodd" transform="matrix(-1.48 0 0 1.54 1073.61 -525.43)" stroke="#000" stroke-width="1.16" fill="#a43907"/><path d="M445.63 595.48s5.625-8.75 10.313-8.125c4.687.625 9.062 6.25 9.375 6.562.312.313 7.187-7.187 6.875-7.5-.313-.312-7.188-16.562-10.938-17.187s-11.847 1.196-11.847 1.82-3.778 24.43-3.778 24.43z" fill-rule="evenodd" transform="matrix(1.48 0 0 1.54 -99.78 -525.43)" stroke="#000" stroke-width="1.16" fill="#a43907"/><path d="M433.13 586.11c0 .625 1.875 23.75 10 31.875s21.25 13.125 25.938 11.875c4.687-1.25 15.312-24.687 15.312-24.687s-11.25 11.25-19.687 9.375c-8.438-1.875-13.438-15.938-15-22.813-1.563-6.875-.313-20.313-.313-20.313l-16.25 14.688z" fill-rule="evenodd" transform="matrix(1.48 0 0 1.54 -99.78 -525.43)" stroke="#000" stroke-width="1.16" fill="#a43907"/><path d="M379.995 375.325c-5.548 6.769-8.51 12-10.823 15.868-2.312 3.868-.952 9.25 4.388 16.93 5.756 8.274 53.087 40.62 114.732 40.62 61.648 0 108.976-32.346 114.733-40.623 5.34-7.677 6.663-13.06 4.352-16.927-2.313-3.868-5.239-9.1-10.787-15.868 0 10.152-39.21 46.835-108.298 46.835s-108.297-36.683-108.297-46.835z" fill-rule="evenodd" stroke="#000" stroke-width="1.755" fill="#a43907"/><path d="M467.82 625.48c.625-.937 7.187-11.875 7.187-11.875l-3.598-2.538c-1.11 3.094-5.156 4.1-5.78 7.85s2.812 7.5 2.19 6.563z" fill-rule="evenodd" transform="matrix(1.48 0 0 1.54 -98.8 -524.06)" stroke="#000" stroke-width="1.16" fill="#a43907"/><path d="M475 622.98s1.25-5.312-2.812-5.937c-4.063-.625-6.214 2.973-5.625 1.562.654-1.567 3.125-3.125 3.437-8.437.313-5.313-.312-8.125-.312-8.125s1.562-6.876 8.125-5.938c6.562.938 6.875 5.938 6.875 7.813s-.625 2.812-.625 2.812L475 622.98z" fill-rule="evenodd" transform="matrix(1.48 0 0 1.54 -99.78 -525.43)" stroke="#000" stroke-width="1.16" fill="#a43907"/><path d="M568.3 406.338l1.973 3.453 1.332-.83-.884-2.28.168-.445 2.318-1.446 6.067 10.607-.15.516-1.2.88.547.958 5.776-3.605-.547-.954-1.31.687-.51-.106-6.067-10.61 2.32-1.446.434.073 1.52 1.883 1.335-.834-1.972-3.452-11.147 6.96zm-14.253 8.17l.48.992 1.216-.513.478.155 5.21 10.764-.162.494-1.117.716.48.993 5.687-3.005-.48-.993-1.256.536-.48-.155-2.47-5.108 5.807-3.065 2.47 5.11-.143.482-1.158.737.48.993 5.667-2.99-.48-.993-1.215.515-.478-.154-5.21-10.763.163-.493 1.116-.718-.48-.993-5.667 2.99.48.994 1.256-.535.46.166 2.147 4.44-5.807 3.064-2.146-4.437.165-.494 1.155-.74-.48-.993-5.687 3zm-3.337 9.15l.305 1.066 1.628-.39.432.198 1.275 4.437c-.55.214-.952.365-1.168.432-3.32 1.037-6.004-.613-7.128-4.53-1.093-3.806.24-6.687 3.455-7.692a4.747 4.747 0 0 1 1.89-.21l.43.29 1.073 2.178 1.574-.493-1.06-3.697c-1.736.02-3.335.26-4.76.704-4.786 1.496-7.014 5.44-5.733 9.9 1.3 4.523 5.26 6.7 9.788 5.285 1.574-.494 3.083-1.297 4.575-2.404l-1.454-5.068.257-.413 1.22-.5-.305-1.066-6.298 1.967zm-13.338 12.512l6.428-2.024-.32-1.064-1.473.346-.45-.24-3.483-11.577.253-.41 1.407-.562-.32-1.064-6.428 2.025.32 1.063 1.452-.337.435.196 3.484 11.578-.24.456-1.385.554.32 1.064zm-34.8 5.693l11.316-1.036-.345-4.047-1.433.13-.155 2.432-.243.387-4.888.443-.502-5.88 2.74-.252.322.29.35 1.61 1.242-.114-.447-5.25-1.246.115-.073 1.65-.267.34-2.74.253-.458-5.383 4.194-.383.3.27.484 1.962 1.475-.138-.3-3.55-10.623.97.095 1.11 1.295-.005.364.286 1.03 12.056-.308.39-1.276.23.095 1.11zm-16.845-14.916l.02 1.112 1.228.09.345.356.21 12.053-.332.37-1.225.133.02 1.112 5.985-.104-.02-1.11-1.27-.09-.345-.36-.1-5.72 6.112-.106.1 5.72-.31.37-1.267.134.02 1.11 5.965-.103-.02-1.113-1.23-.092-.343-.357-.21-12.054.33-.37 1.226-.135-.02-1.113-5.965.104.02 1.113 1.275.092.323.358.087 4.97-6.113.11-.086-4.97.332-.37 1.267-.136-.02-1.112-5.985.106zm-12.847-.43l-.038 4.02 1.46.016.36-2.426.342-.29 2.54.03-.117 12.35-.364.36-1.376.095-.01 1.112 6.326.076.01-1.112-1.375-.13-.356-.367.116-12.35 2.54.03.314.3.337 2.437 1.455.017.038-4.018-12.206-.146zm-19.483 12.838l11.06.548.18-4.058-1.402-.07-.456 2.387-.288.35-4.778-.237.258-5.897 2.677.132.275.333.135 1.642 1.217.06.23-5.26-1.214-.06-.278 1.623-.303.302-2.676-.133.236-5.397 4.1.203.256.308.22 2.016 1.442.07.156-3.56-10.38-.514-.05 1.11 1.252.177.316.333-.53 12.09-.345.345-1.264.05-.048 1.11zm-25.347-6.56l5.87 1.98.324-1.06-1.282-.55-.208-.45 3.536-11.517.407-.197 1.35.34.324-1.06-5.87-1.98-.32 1.06 1.26.544.22.41-3.535 11.515-.42.24-1.33-.33-.324 1.06zm-10.438-4.053a11.392 11.392 0 0 0 3.572 1.99c3.22 1.086 5.773-.103 6.563-2.674.39-1.275.12-2.654-.772-3.838-.906-1.21-1.848-1.887-2.33-2.502-.828-1.04-1.18-1.875-.874-2.87.37-1.188 1.517-1.753 2.95-1.27.63.212 1.048.47 1.34.784l.184.396-.355 2.36 1.412.477 1.075-3.5c-1.09-.893-2.247-1.57-3.465-1.98-2.808-.946-5.205.296-5.94 2.694-.327 1.06-.18 2.273.464 3.42.618 1.09 1.43 1.77 2.08 2.466 1.156 1.247 1.625 2.263 1.267 3.43-.364 1.188-1.572 1.735-3.163 1.2a5.534 5.534 0 0 1-1.634-.887l-.155-.41.483-2.698-1.495-.504-1.2 3.91zm-13.266-5.554l9.996 4.997 1.672-3.665-1.265-.632-1.31 2.013-.39.21-4.32-2.16 2.43-5.325 2.42 1.21.13.417-.49 1.568 1.1.55 2.166-4.753-1.1-.55-.858 1.384-.39.155-2.42-1.21 2.222-4.873 3.703 1.85.12.39-.54 1.942 1.3.654 1.468-3.216-9.382-4.69-.457 1.002 1.09.67.167.436-4.98 10.916-.447.18-1.182-.467-.456 1.002zm-1.684-18.19l-5.03-3.467-.585.93.99.82.086.496-6.333 10.065-.466.113-1.11-.63-.585.93 5.03 3.465c1.72 1.187 3.19 1.793 4.832 1.62 2.136-.214 3.957-1.46 5.364-3.695 2.504-3.98 1.8-7.888-2.198-10.643zm-2.098.075l1 .69c2.74 1.886 2.98 4.526.74 8.09s-4.667 4.39-7.407 2.504l-1-.69 6.667-10.594zm40.078 15.69l-.224 1.088 1.167.38.258.382-2.438 11.838-.395.284-1.213-.15-.224 1.087 5.685 1.257.224-1.088-1.207-.383-.25-.426 1.03-4.997.343.075c2.035.45 2.363 1.52 2.553 3.77.107 1.135.08 2.176.948 3.296.398.53 1.088.96 1.956 1.153a13.78 13.78 0 0 0 2.052.27l.22-1.068-.262-.06c-1.35-.297-1.886-.763-2.06-2.08-.153-1.194-.067-2.43-.49-3.545-.317-.812-.917-1.385-1.834-1.844 2.373.038 3.83-.986 4.25-3.03.507-2.466-.83-4.155-3.956-4.846l-6.128-1.356zm3.872 2.18l.928.205c1.954.432 2.772 1.68 2.397 3.502-.425 2.045-1.645 2.75-3.8 2.273-.224-.05-.465-.102-.72-.183l1.19-5.797zm74.094 1.29l.173 1.098 1.33-.11.41.256 1.882 11.943-.3.42-1.293.333.172 1.1 6.264-1.07-.173-1.1-1.37.12-.414-.296-.796-5.042.38-.064c2.243-.382 2.972.483 3.996 2.494.525 1.014.886 1.99 2.18 2.688.602.335 1.466.463 2.422.3a16.52 16.52 0 0 0 2.192-.56l-.17-1.074-.29.05c-1.488.253-2.207.03-2.87-1.122-.597-1.046-.965-2.226-1.81-3.095-.623-.63-1.447-.925-2.55-.99 2.435-.9 3.54-2.423 3.216-4.484-.393-2.487-2.382-3.53-5.827-2.94l-6.757 1.154zm4.757.5l1.022-.175c2.155-.368 3.45.47 3.74 2.306.325 2.063-.66 3.197-3.036 3.603-.24.042-.51.087-.8.114l-.922-5.844z"/><path d="M467.82 625.48c.625-.937 7.187-11.875 7.187-11.875l-3.598-2.538c-1.11 3.094-5.156 4.1-5.78 7.85s2.812 7.5 2.19 6.563z" fill-rule="evenodd" transform="matrix(-1.48 0 0 1.54 1072.67 -524.06)" stroke="#000" stroke-width="1.16" fill="#a43907"/><path d="M475 622.98s1.25-5.312-2.812-5.937c-4.063-.625-6.214 2.973-5.625 1.562.654-1.567 3.125-3.125 3.437-8.437.313-5.313-.312-8.125-.312-8.125s1.562-6.876 8.125-5.938c6.562.938 6.875 5.938 6.875 7.813s-.625 2.812-.625 2.812L475 622.98z" fill-rule="evenodd" transform="matrix(-1.48 0 0 1.54 1073.61 -525.43)" stroke="#000" stroke-width="1.16" fill="#a43907"/><path d="M396.85 605.91s-75.43-21.26-74.99-102.14l.58-106.91h148.82l.584 106.3c.44 80.882-74.993 102.76-74.993 102.76z" fill-rule="evenodd" fill-opacity=".996" transform="matrix(1.48 0 0 1.54 -99.33 -521.46)" stroke="#fff" stroke-width="3.867" fill="#0072c4"/><g fill-rule="evenodd"><path d="M392.306 128.963c.184 0 1.534-1.282 2.77-2.412 1.727-.86 3.324-2.08 5.08-2.893 1.307-.757 3.89-1.344 5.077-1.93 1.555-.815 2.824-1.752 4.156-3.38.155-2.16.46-3.71.46-6.275 1.834-.884 3.464-1.74 5.075-2.414 2.31-.65 2.812-1.574 5.08-1.93 1.46-.51 3.87-.485 6-.485 2.297 0 3.747 1.634 5.81 2.02 2.447.987 3.59 1.67 5.54 3.38 1.102 1.395 1.788 2.53 3.667 3.58 1.488.762 2.88 1.92 4.617 2.412 1.905 1.106 3.597 1.746 5.077 3.38 1.355.966 1.915 2.398 3.23 3.38 1.526 1.265 2.972 2.404 4.618 3.38 1.978 1.325 3.94 2.33 7.143 2.044 1.695-.1 3.52-.297 5.54.08 2.26 0 4.462-.04 6.462.484 2.355 0 4.26.318 6.463.48 2.064.388 4.168.485 6.463.485 2 .52 4.204.48 6.463.48h12.926c2.35 0 4.732.097 6.462.485 2.33 0 4.332-.22 6.462-.484 2.507 0 4.42-.46 6.926-.48h7.85c2.015.55 4.59.93 6 1.93 1.85.527 2.77 1.403 4.617 1.93 1.416.727 3.565 1.876 4.617 3.38 1.303 1.362 2.64 3.313 3.693 5.31 1.285 1.854 1.774 3.973 2.77 6.275.528 2.204.895 4.3.923 6.756.502 2.094.464 4.397.464 6.76-.528 2.2-.643 4.65-1.386 6.757-.08 2.356-.55 4.487-.923 6.276-.41 1.975-.893 3.246-.923 5.792v6.758c-.16 2.217-.646 3.845-.92 6.275-1.12 2.108-2.188 4.573-3.23 7.24-1.54 1.072-2.87 2.595-3.696 3.863-.984.61-1.555 1.533-1.385 1.93 1.844.644 1.385 1.928 1.385 4.346.24 1.86.42 4.17.923 6.278.17 2.303.662 3.712 1.385 5.308.73.95.87.483-.923.483-1.335 1.046-2.685.5-3.23-1.45-1.08-1.3-1.433-2.87-1.848-5.31-.256-2.233-.613-4.41-1.386-5.79-.235-2.72-.96-2.693-3.692-2.897-1.3-1.152-3.016-1.45-5.54-1.45-2.512 0-2.723-.255-2.77 2.416v6.757c-.433 1.96-1.386 3.548-1.846 5.31-1.377 1.01-2.093 2.7-3.693 3.86-.76 2.194-1.87 2.575-4.156 2.898-.8-.998-2.102-2.3-2.77-3.378 1.293-2.17 2.422-2.496 3.233-4.827a101.19 101.19 0 0 0 2.307-4.83c-.985-1.515-1.87-2.2-2.77-4.344-.76-1.17-1.81-3.68-2.307-5.31-1.517-.528-3.904-.613-5.08-1.45-2.24-.52-2.866 1.93-5.54 1.93h-6.462c-2.858 0-3.572 1.597-6.002 1.45-.714.23-2.445-.102-5.08 0-1.928.67-4.252.48-6.462.48-2.34-.03-4.257-.567-6-.964-2.12-.58-4.23-1.17-6.463-1.447-2.71 0-3.72.215-5.54 1.446-1.44.855-3.528 2.807-5.08 3.862-.655 1.602-.996 4.313-1.846 6.276-.49 1.884-1.287 3.078-1.845 4.83-.625 1.632-1.216 3.313-1.385 5.792-.155 3.254-.866 2.856-2.77 1.93-.792-1.345-2.056-2.826-2.77-4.343.42-2.458.894-3.68.925-6.277-.45-1.873-1.498-1.812-2.77-.482 0 2.53.117 4.478-.924 5.794-.52 1.996-1.354 2.858-2.77 3.863-.69 1.793-2.224 2.613-3.69 3.38-.236-.08 0-.646 0-1.93-1.107-2.207-.08-4.04-.08-6.76.03-2.436-.11-4.05.596-6.274 0-2.34-1.085-4.566-1.44-6.275-.858-1.792-1.353-2.68-3.693-3.38-1.645-.652-4.014-1.536-5.08-2.895-1.34-1.74-2.195-2.453-4.153-3.38-2.124-.77-3.155-1.472-4.616-2.413-1.427-1.574-2.587-2.256-3.232-4.343-.964-1.486-1.13-4.243-1.847-6.278-.157-2.12-.764-4.088-1.384-5.792-.272-2.12-.606-3.67-1.383-5.792-.257-1.984-.83-4.06-1.384-6.273 0-2.362.04-4.667-.462-6.76v-6.757c-.33-1.95-.453-4.807-.92-6.276 0-2.626-.28-4.11-.924-5.793-1.056-1.706-1.142-2.47-2.77-2.897-1.176 1.5-3.114 2.112-5.54 2.415-1.695-.388-4.086-.64-6.002-1.45-1.85-.456-3.117-1.188-4.617-1.93-.82-1.263-1.8-2.69-2.77-3.863-.286-2.52-.836-3.82-.923-6.275 0-1.843.044-.865 1.846-3.38z" fill="#bcbcbc"/><path d="M419.65 146.357l.328-.34c-.742.774-.47.4 1.306-.343.993-.625 2.88-1.727 3.59-2.39.854-.39 2.21-.9 2.938-1.705.91-.97 1.82-1.78 2.938-2.735 1.293-1.097 2.498-1.457 3.918-2.39 1.847-.137 2.516-.928 4.243-.34 1.625.367 2.297.377 3.595-1.025 1.31-.84 2.753-1.653 3.265-3.072v-2.047c-.026 2.23-.428 2.955-1.96 3.755-1.068 1.224-2.4 2.608-2.938 3.756-1.036 1.5-1.256 2.34-2.284 3.073-.844 1.075-2.292 1.644-2.61 3.412.464.813.04 1.258.977 1.366.946.813 1.93.467 3.265 0 1.328-1.536 1.925-2.53 2.612-4.094 1.095-1.497 1.708-2.21 2.284-3.414 1.135-.822 1.856-1.463 2.286-2.73 1.313-.77 2.393-1.577 3.263-2.39.976-.627 1.494-1.137 2.938-1.365-.02 1.833-.29 2.7-.977 3.755-.325 1.9-.26 2.802.326 4.096.937.58.77 1.084 1.305 2.39.532-1.13.802-3.415.98-4.78v-.342c0 1.493.136 3.473-.327 4.438.022 1.99.464 2.878.98 4.437.55.753.938 1.24 1.632 1.708.064-1.97.556-3.267.652-5.12.455 1.43.303 3.32.653 4.778.118 1.607.7 2.852 1.306 4.097.745.46.998 1.813 1.306.683.77-2.402.79-5.03 1.304-7.51.094-1.26.195-3.133.654-4.096l-.654 4.094c.094-1.26.195-3.132.654-4.095v-.34c.305 1.795.593 3.53.653 5.46 0 1.534-.1 3.1.328 4.435 1.086-.503 1.715-1.68 2.285-3.073.87-1.65 1.465-2.382 2.61-3.754l-2.61 3.753c.87-1.65 1.465-2.38 2.61-3.753v-.34c-.18 1.572-.325 3.055-.325 4.776 0 1.574-.018 3.358.326 4.438.385 1.81.91 2.146.98 4.096 0 .95-.124 1.92.327 2.39 1.407.366 1.41-.453 1.633-2.39.017-2.203.58-3.704.65-5.803 0-2.59.367.316.654 1.366.66 1.52.863 2.87.98 4.436 0 .95-.124 1.92.325 2.39 1.26-.522 1.76-1.995 2.612-2.73.65-1.617 1.322-2.33 1.96-3.41 1.69-.356 1.607-1.05 1.63-3.074 0-1.633-.127-3.352.328-4.78.523-1.483 1.016-3.134 1.305-4.436.61-.364 1.27.538 1.63 1.366.716 1.1.654 2.705.654 4.437.316 1.51.944 2.69 1.634 4.095.818 1.575 1.483 2.53 2.285 3.41.343 1.08.326 2.865.326 4.438 1.27-1.446 1.514-3.6 1.63-5.803-.17-1.5-.2-3.368-.652-4.78-.052-1.503-.32-3.055-.653-4.095-1.1-.53-1.274-1-.324-2.39 1.05-.908 2.185-.557 3.918-.34.876.915 1.236 1.405 1.305 3.41 0 1.82.076 3.218.652 4.44.64.982 1.273 1.657 1.63 3.413.503.428.89 1.12 1.635.342.41-1 .65-3.062.98-4.097.32-1.295.894-1.93 1.633-2.39 0 1.9-.022 3.066.653 4.44.638 1.524 1.082 2.097 1.63 3.755.697.485.786 1.53 1.633 2.046.2-1.6.326-3.437.326-5.46v-4.78c.12-1.625.514-2.54.98-3.75 1.05 1.31.98 1.85.98 3.75 1.073-.4 1.253-1.17 1.63-2.386.767-.675.976-.99 1.306.68.23 1.787.665 3.395.98 5.122.67.788 1.447 2.696 2.285 3.414.576.976 1.22 1.92 1.96 2.73.51 1.124.64 1.71 1.96 2.048 0-2.31.076-4.627-.327-6.826 0-1.96-.428-2.66-.653-4.437-.545-1.178-.865-2.913-.654-3.413 1.53 1.517 2.22 2.398 2.937 4.096.767 1.64 1.41 2.74 1.96 4.435.754.648 2.09 2.59 2.61 3.414 1.166 1.04 1.734 2.125 2.94 3.07.622.587 1.94.915 2.284.683-.06-2-.363-3.72-.98-5.46-.02-1.91-.457-2.948-.977-4.096-1.286-1.11-2.26-1.864-2.94-3.415-.506-.432-.605-.755-.654-1.705 1.875 1.55 3.186 2.935 4.57 4.776.935 1.213 1.41 1.763 2.612 2.39.65.73 2.544 1.638 3.915 2.048.823 1.09 1.922 1.718 3.265 2.05l-3.264-2.05c.824 1.09 1.923 1.718 3.266 2.05v.34c-.162-2.135-.946-3.695-1.957-5.462-.85-1.868-1.63-2.56-2.94-3.755-.853-1.352-1.81-2.15-3.263-3.07-.9-1.06-2.25-2.82-2.937-3.415 1.392-.874 3.027.592 4.57 1.366 1.274 1.38 2.465 3.18 3.264 4.095.87 1.754 1.538 2.84 2.94 4.438 1.406.835 2.38 1.66 3.59 2.73 1.87.52 1.125-.165.654-1.705-.647-1.926-.072-1.956 1.305-.682.907.647 1.92 1.725 3.262 2.39.58.752 1.457 1.17 2.286.682.346-.482.327-.427.327-1.024-.687-2.117-1.325-3.766-2.938-4.437-.74-.942-1.943-2.063-2.938-3.072-.65-1-1.41-1.575-1.96-2.73l1.96 2.73c-.65-1-1.41-1.575-1.96-2.73h-.327c1.97.074 2.67.574 4.24 1.367 1.12.408 2.328 1.475 2.94 2.388.636.845 1.656 1.753 2.285 2.73 1.004.773 2.11 1.652 3.266 2.39 1.087 1.425 1.282 2.352 1.307 4.44.627.964.74 2.938.98 4.094-.24 1.876-.88.402-.978-.684-.277-1.507-.85-1.428-1.96-1.023 0 2.062.228 2.626.98 4.096-.204 1.41-.672 2.44-1.306 3.413-.76.454-.924-1.004-1.63-1.707-.075-2.11-.67-2.343-1.96-3.414v1.366c.73 1.457 1.498 2.785 1.633 4.78.503 1.52.652 2.482.652 4.436 0 1.67.027 3.3-.326 4.78 0 1.85-.307 2.645-.328 4.437v9.558c-.25 1.207-.327 2.78-.327 4.436l.327-4.438c-.25 1.208-.327 2.782-.327 4.437v.34c-.62-1.715-1.296-3.267-1.632-5.12-1.057-1.047-1.73-2.126-2.285-3.413-.25-1.465-.406-3.254-.653-4.44-.46-1.202-.947-2.485-1.96-1.705-.4 2.544.106 4.06.98 6.484.513 1.606.457 2.87.98 4.436.757 1.805 1.365 2.064 0 4.095-.673 1.085-1.034 1.428-1.306 2.733-1.21.632-1.51.913-1.633 2.39-.405-1.328-1.392-2.884-1.96-4.438-.583-1.634-1.305-3.313-1.63-4.778-.792-1.144-1.72-2.993-2.612-3.756-.82-1.1-1.997-2.94-2.612-4.094-1.25-1.458-1.526-2.3-2.61-3.07-.28-.684-.612-1.535-1.306-1.026 0 1.633-.13 3.35.326 4.778.33 2.014.91 3.13.98 5.12v3.757c-.785-1.923-1.622-3.64-2.286-5.462-.713-1.018-1.41-3.003-2.285-3.754-.554-1.325-.987-2.42-1.63-3.41-.168-.995-.607-.98-.98-1.71.02 1.935.61 2.613.98 4.095.635 1.3.84 3.48.652 4.096-.824-2.39-1.57-5.007-2.613-7.166-.99-1.402-1.955-3.204-2.61-4.437-.972-1.173-1.97-1.21-2.938-2.05-.883-.436-1.727-.925-2.286-1.706.257 1.8.927 2.925 1.305 4.44.214 1.715.97 3.09 1.305 4.437-.363 2.335-.89-.648-1.306-1.707-.345-1.92-.98-2.99-1.633-4.096-.874-.622-1.67-1.727-2.61-2.39-.917-.367-.654.067-.654 1.366 0 2.112.077 3.507.653 4.78.65 1 .652 2.306.652 4.094-.055 1.68-.324 3.03-.324 4.78V188c-.75-1.45-1.46-2.275-1.96-4.096-1.132-1.55-1.468-2.688-2.285-4.436-.724-.305-1.9-.556-2.61 0 .127 1.727.89 2.487.98 4.436-1.3 1.333-1.067 1.713-1.96-.34-.744-1.557-1.61-1.484-2.61-2.39-1.64-.214-1.12-1.263-1.634-2.73 0-1.315.13-2.642-.327-3.756-1.79 0-2.815-.064-3.916 1.025-.518 1.08-.335 3.033 0 4.436v4.775c-.372 1.196-1.11 1.26-1.306 2.73-.63 1.458-.84 3.066-1.304 4.098-1.163 1.05-.658 1.182-1.306-.683v-10.924c0-1.854.267-2.758.326-4.435-.677-1.413-.86-1.68-2.938-1.705-.506.882-.313 2.52 0 3.414 0 1.652.075 3.23.326 4.434 0 1.813.216 2.912.33 4.438-.063 1.81-.4 3.25-1.307 4.097-1.177.306-.128 1.055-1.305 1.364-1.18-.592-2.568-1.396-3.59-2.39-1.27-.404-2.466-.682-4.244-.682-2.164-.028-2.2-.29-2.938-2.05-.662-1.88-.973-3.514-1.306-5.46-.72-1.598-.887-2.687-1.307-4.437-.548-1.043-1.133-1.83-1.957-2.39-.473 1.726-.917 3.17-.98 5.12-.382.8-.462 2.834-.652 3.754-.655-1.01-.912-2.996-1.305-4.436-.62-2.07-1.15-3.414-3.267-2.73-2.197.027-2.26.09-2.286 2.39.946 1.48 1.956 2.918 2.612 4.094v4.777c0 1.973.114 2.544-1.307 3.072-.54-2.05-1.688-4.004-2.938-5.804-.17-1.39-.6-1.023-1.957-1.023-.91 0-1.838-.128-2.287.34 0 1.19.098 2.842 0 3.074-.787.146-1.105-.007-1.632-.682-.57.993-.14 2.393 0 3.755-.414 1.518-.91 2.905-1.632 3.753-.144-.453-.47-.34 0-.34-2.24-.86-3.993-1.39-5.875-2.046-1.134.146-1.957 1.19-2.613 2.046-1.66.56-2.394 1.002-4.245 1.025-1.776 0-2.64.28-4.244.343-1.153.262-2.66.34-4.242.34-.878-.26-2.41-.268-2.94-.682.675-1.004 1.426-1.512 1.96-3.07.894-.636 1.732-1.45 2.612-2.39.86-.612 1.87-1.882 2.61-2.73.51-1.644 1.21-1.93 2.285-2.73 1.94.075 2.32.69 4.244 1.023 1.88.71 2.92.92 3.916-.34 1.56-.66 2.882-1.69 4.57-2.05 1.307-.654 2.144-1.29 3.264-2.05 1.39-.837 2.05-1.696 3.266-2.73.347-1.392 1.33-2.467.98-4.097-1.767-.462-2.89-.277-3.918.683-1.43 1.177-1.7 1.666-3.265 2.73-1.352.385-1.93.98-3.59 1.366-1.365.477-3.01.343-4.57.343-1.428 0-3.322-.143-4.245.34 1.452-.978 3.197-1.994 4.57-2.39 1.318-.885 1.816-1.333 3.592-1.365.823-1.08 1.673-1.106 1.956-2.73.553-2.02-1.204-1.38-2.61-.685-1.327.244-2.79 1.183-3.918 1.707-1.09.38-2.68.663-4.244.683-.41-.615.323-1.106.654-2.05 1.525-.54 1.77-.738 1.96-2.388-1.73.24-2.39.808-3.92 1.024-1.665.438-3.394.63-5.22.685h-4.572c-1.604-.062-2.47-.342-4.243-.342-1.3-.68-1.307-1.002-1.307-3.072 1.024-1.175 2.02-1.02 3.917-1.02 1.46-.72 2.597-1.1 3.59-1.708 1.183-.253 1.99-.76 1.633-1.363h-4.57c-1.76-.746-.08-1.087.98-1.708 1.587 0 3.225.093 4.243.682 1.96-.077 2.645-.698 4.24-2.05 1.25-1.03 1.864-1.688 3.265-2.39 1.006-1.11 1.956-1.722 2.612-2.73 1.342-1.28 2.23-1.987 2.937-3.07.865-.477 1.393-1.09.98-1.708-2.045.25-2.873.993-4.244 2.048-.796.793-1.57 1.503-2.612 2.048-1.47.875-2.385 1.23-4.242 1.366-1.676 0-2.964-.28-4.57-.34-1.774-.186-.142-.6.325-1.365.688-.48 1.22-1.54.655-2.39-1.364-.475-3.007-.34-4.57-.34h-4.57c-1.724-.067-2.454-.463-3.59-1.025-.352-.958.063-.683 1.306-.683 1.574-.062 2.69-.276 4.245-.683 1.535-.44 1.727-.95 1.958-2.733-1.506 0-3.21.02-4.243-.34h-2.94zm-28.274-7.74c-.287-2.52-.836-3.82-.924-6.274 0-1.843.045-.865 1.847-3.38.18 0 1.53-1.282 2.77-2.412 1.723-.86 3.32-2.08 5.075-2.893 1.307-.757 3.89-1.344 5.077-1.93 1.556-.815 2.825-1.752 4.156-3.38.16-2.16.463-3.71.463-6.275 1.837-.884 3.466-1.74 5.078-2.414 2.313-.65 2.813-1.574 5.08-1.93 1.46-.51 3.873-.485 6-.485 2.3 0 3.748 1.634 5.81 2.02 2.448.987 3.59 1.67 5.54 3.38 1.104 1.395 1.79 2.53 3.67 3.58 1.486.762 2.88 1.92 4.615 2.412.015 1.744.386 1.443-.858 1.443-.132 1.786-.56 1.675-2.286 1.707a8.002 8.002 0 0 1-2.937-2.732c.653-1.773.22 1.435 0 2.048-.84.69-1.338 1.427-2.285.684-.53-1.666-.98-2.817-.98-4.78-.25-2.132-.845-.584-1.306.343-.442 1.72-.24 2.343.326 3.753-1.667 0-2.943-.157-4.246-.34-1.21-.302-2.572.068-3.918.682-1.71 1.073-1.177 1.08-.326 2.39 1.51.444 2.593 1.28 3.92 2.048 1.505-.3 3.08-.635 4.57-1.025 1.555-.54 2.98-.195 4.57 0 .788.415 1.825.498 2.284 1.027 0 1.055.084 2.158-.326 2.73-.68.452-1.324 1.7-2.286 2.047-1.44.824-2.95 1.343-4.57 1.706-2 .077-2.73.516-4.243 1.367-.25 1.725-.755 2.212-2.29 2.73-1.525.667-2.74 1.025-4.57 1.025-.907 0-1.834.13-2.284-.34 1.454-1.66 1.89-2.44 2.612-4.096.28-.69.872-1.134.326-1.707-1.933.075-2.44.062-2.61 2.047-.22 1.798-.91 2.1-2.286 2.73.37-1.664.43-2.943.98-4.436-1.157.26-2.663.34-4.246.34-.99.628-1.4.87-.98 2.05-1.31.456-2.91.175-4.57 0-1.385-.076-.62-.705-1.63-1.366-.662-1.3-1.423-1.616-2.94-1.707-.75.94-2.144 1.33-2.937 2.048-1.43.5-2.34.086-3.59-.682-1.63.05-1.41.577-.98 1.708.623.434-.037.907.98 1.024.94.852 1.74 1.025 3.59 1.025 1.416-.37 2.975-.34 4.57-.34 1.613.05 1.308.43 1.308 2.046-1.054.747-2.59.684-4.245.684-1.576-.197-2.784-.605-3.917-1.025-1.53-.114-2.75-.406-3.917 0-.526.582-2.11.837-.326 1.024.7.66 4.478.342 4.747 1.466.89.99.693 2.29-.83 2.29-.924-.483-1.64-.364-2.285 0-1.086.285-2.377.078-4.274.22 2.478.204-1.8-2.69-2.77-3.862z" fill="#fefefe"/><path d="M401.687 127.25c-.108 0-1.083.677-1.96 1.364-1.433.768-2.965 2.075-3.916 2.73-.745.6-.74.862-1.63 1.026 1.558-.22 2.25-.617 3.59-1.366 1.698-.204 3.34-.564 4.247-1.365.85-.3-.064-1.66-.327-2.39zm15.025-16.05c.187 0 .57 1.067 1.304 1.706.47 1.31.903 2.235.98 3.755.4-1.664 1.084-3.005 1.305-4.775-.504-.9-.54-1.32-1.955-1.365 0 .92.108.32-1.63.68z" fill="#bcbcbc"/><path d="M349.36 417.73c-.494 0 .87-.492 1.326-.663.364-.767.653-1.31 1.326-1.767 1.107.085 1.65.404 2.21 1.104.93.254 1.265.697 2.43.884.434.366 1.02.408 0 .663-.692.37-1.563.446-2.65.446-1.14.082-1.955.333-2.653.663-1.48 0-1.246.05-1.99-1.327z" transform="matrix(1.48 0 0 1.54 -109.52 -520.08)" stroke="#000" stroke-width=".875" fill="#c4c4c2"/><path d="M422.576 111.54v.34c0-.92-.02-.45.327 1.366.54 1.145.653 2.373.653 4.097.857-.64 1.572-1.916 1.96-3.073 0-2.695-.366-2.536-2.94-2.73zm12.084 39.25h.327c-.96 0-.42.06 1.306-1.024 1.117-.778 2.03-1.93 3.592-2.39 1.51-1.24 2.673-1.82 4.242-2.388.766-.367 1.44-1.005 2.286-.34-.243 1.683-.522 2.32-1.96 3.07-.742.973-1.912 1.54-2.936 2.048-1.062.488-2.23.513-2.612 1.707-1.776.817-1.994.68-4.244-.683zm6.205 9.902c.583-.46 2.627-2.592 3.59-3.412 1.09-1.503 2.193-2.653 3.265-3.414.952-1.465 2.17-2.446 2.94-3.755.906-1.144 1.573-2.12 2.61-3.41 0 1.49-.136 3.47.325 4.438 0 2.062-.227 2.626-.978 4.096-.74 1.21-1.294 2.01-2.938 2.732-1.487.822-2.376 1.11-3.595 2.047-.93.598-1.897 1.193-2.94 1.707-.932.42-.504.235-2.283-1.025zm-10.12 7.848h.327c-.96 0-.42.058 1.306-1.025 1.393-1.457 2.503-1.963 4.245-2.73 1.325-.108 2.928-.452 3.917-1.025.79-.146 1.34-.648 1.958 0 1.025 1.45 1.307 1.858-.327 2.73-.78.694-2.155 1.392-3.26 1.708-.814.702-2.43.746-3.92 1.024-1.33 0-2.072.157-2.61-.683l2.61.68c-1.33 0-2.072.156-4.24-.684zm14.035 0v-.342c0 .953-.04.448.653-1.366 1.224-1.91 1.684-2.963 3.265-3.414.74-.936 2.023-1.178 3.59-1.707.59 1.03.137 2.226 0 3.418-.425 1.275-1.59 2.174-2.284 3.073-1.018.723-1.433 1.418-2.938 1.706-1.246 0-.585-.032-2.286-1.365z" fill="#bcbcbc"/><path d="M412.788 124.16c0 .942-.73 1.706-1.632 1.706-.9 0-1.632-.764-1.632-1.707 0-.947.73-1.71 1.632-1.71.902 0 1.632.763 1.632 1.706z"/></g><g stroke-opacity=".996" fill-rule="evenodd" fill-opacity=".996" stroke="#002b0d" stroke-width="1pt" fill="#005120"><path d="M351.79 479.6h.884c-2.77 0-1.115-.185 3.535 3.535 1.944-1.623 1.92-1.842 3.532.884.93 1.55 1.203-.16 2.65-1.77.7 3.21 1.146 6.58 3.537 3.534 2.73 0 5.59-.227 7.07.884 1.79 3.325 1.205-.564 2.653.884 3.892.467 3.818-3.338 8.057-4.322 2.637 3.293 3.79.76 7.074-.883 2.438.68 4.736 4.38 5.2.784 1.996-3.255 2.17-2.98 3.536 0 1.94 1.75 2.76-.873 4.42-1.766 2.957 1.73 6.257 1.97 10.605.884.736 2.945 2.592 1.668 4.42.884 3.91 1.643 5.273 2.146 9.722 0 2.204-2.604.956.073 2.65 1.768 3.297-1.023 2.387-1.24 6.19-.884 3.82 0 4.13-.094 5.302-2.653 1.92 1.92 2.61 3.304 5.3.884 4.12.12 2.846.52 5.304-.884 1.818 4.026 2.245 1.117 4.42 2.65-1.433 3.632-3.633 5.335-6.188 7.072-1.7 2.815-2.764 5.856-6.188 7.07-2.5 2.55-5.16 4.026-7.956 6.188-3.832.957-8.05.883-12.375.883h-37.12c-2.64 1.32-6.96 1.95-10.61 2.65-4.074 0-8.693.05-11.49-.883-1.894-1.894-5.22-4.01-7.07-6.187-1.874-1.51-1.93-4.46-3.536-6.186-1.48-2.53-1.935-6.486-3.534-8.84v-6.18z" transform="matrix(1.48 0 0 1.54 -103 -521.43)"/><path d="M437.52 487.56v.884c0-2.47.11-1.158-1.768 3.535-.38 1.14-1.212 1.404-2.652 1.764m-3.53-2.656h.884c-3.273 3.09-5.476 4.514-6.188 7.954l6.188-7.955c-3.273 3.09-5.476 4.514-6.188 7.954m-7.076-12.364c0 .08-.124 3.152-.884 4.42m-2.646 1.76v.883-.885zm-7.07-5.3h.884-.884c.294 0 .59 0 0 0zm-49.5 0c.422 0 2.16 2.805 4.42 4.42-.563 2.584-1.427 5.576 0 7.953m2.65-7.075c.422 0 2.16 2.806 4.42 4.42l-4.42-4.42c.422 0 2.16 2.806 4.42 4.42v.883c0-2.73-.227-5.59.883-7.072.983 1.664 2.224 4.338 2.652 1.77 4.978-.18 7.38-1.577 10.607-2.65 0 1.3-.21.673.884 1.765m60.104-3.535h.884c-1.667 1.39-2.946 4.22-4.42 6.186m-32.704-8.836h7.07" transform="matrix(1.48 0 0 1.54 -103 -521.43)"/></g><path d="M413.61 239.342c-15.702 0-20.906 16.41-36.61 16.41-.302 0-.588-.024-.883-.035v.993c-.06 11.375.835 21.97 2.466 31.864 14.485-1.058 19.866-16.41 35.028-16.41 15.707 0 20.948 16.446 36.65 16.446s20.946-16.447 36.65-16.447 20.943 16.447 36.647 16.447 20.944-16.447 36.647-16.447c15.123 0 20.52 15.244 34.92 16.373 1.724-10.158 2.635-21.07 2.574-32.784v-.037c-.294.012-.58.037-.883.037-15.702 0-20.906-16.41-36.61-16.41s-20.944 16.41-36.647 16.41-20.944-16.41-36.648-16.41-20.945 16.41-36.648 16.41-20.943-16.41-36.646-16.41zm0 64.064c-12.214 0-18.09 9.902-27.485 14.313a151.43 151.43 0 0 0 11.664 24.833c4.46-3.374 9.2-6.292 15.82-6.292 15.694-.01 20.933 16.4 36.64 16.4 15.704 0 20.944-16.41 36.65-16.41 15.7 0 20.942 16.41 36.645 16.41s20.944-16.41 36.648-16.41c6.472 0 11.15 2.795 15.527 6.07a152.782 152.782 0 0 0 11.7-24.724c-9.243-4.47-15.122-14.203-27.226-14.203-15.703 0-20.944 16.41-36.647 16.41s-20.945-16.41-36.65-16.41c-15.702 0-20.943 16.41-36.646 16.41s-20.942-16.41-36.646-16.41zm73.284 64.052c-15.703 0-20.944 16.448-36.647 16.448-14.85 0-20.347-14.703-34.182-16.3 18.49 20.597 39.458 33.068 53.757 39.92 4.836-3.752 9.844 4.564 17.072 4.564 7.178 0 12.16-8.36 16.963-4.636 14.14-6.885 34.853-19.375 53.242-39.775-13.387 1.953-18.935 16.222-33.56 16.222-15.704 0-20.945-16.447-36.65-16.447z" fill-rule="evenodd" fill="#fff"/><g transform="matrix(1.18 0 0 1.18 -406.92 -18.22)"><path d="M332.54 541.35c1.744-.58 10.173-3.197 10.464-2.907.29.29 16.278 15.697 16.278 15.697l-13.37 2.616-13.372-15.406z" stroke-opacity=".996" transform="matrix(1.25 0 0 1.3 259.35 -430)" stroke="#512007" stroke-width=".475" fill="none"/><path d="M413.64 471.01c.29-4.65 8.72-31.103 8.72-31.103m-5.82 31.413c0-.29 6.686-31.127 6.686-31.127m-4.396 31.177c.29-1.744 5.558-31.175 5.558-31.175M413.93 467.23c1.453-.872 5.813-2.035 5.813-2.035m-3.783-2.615c1.453 0 4.36-1.163 4.36-1.163m-3.49-2.327c0-.29 4.36-1.163 4.36-1.163m-3.78-3.197l4.65-.872m-2.61-2.908c0 .29 3.197.29 3.197.29m-2.327-3.78c.58 0 3.197.58 3.197.58" stroke-opacity=".996" transform="matrix(1.06 0 0 1.03 276.8 -177.96)" stroke="#512007" stroke-width=".594" fill="none"/><path d="M413.64 471.01c.29-4.65 8.72-31.103 8.72-31.103m-5.82 30.223c0-.29 6.686-29.94 6.686-29.94m-3.776 27.62c.29-1.744 4.94-27.614 4.94-27.614m-10.46 27.034c1.453-.872 5.813-2.035 5.813-2.035m-3.783-2.615c1.453 0 4.36-1.163 4.36-1.163m-3.49-2.327c0-.29 4.36-1.163 4.36-1.163m-3.78-3.197l4.65-.872m-2.61-2.908c0 .29 3.197.29 3.197.29m-2.327-3.78c.58 0 3.197.58 3.197.58" stroke-opacity=".996" transform="matrix(-1.25 0 0 1.76 1290.4 -502.06)" stroke="#512007" stroke-width=".41" fill="none"/><path d="M413.64 471.01c.29-4.65 8.72-31.103 8.72-31.103m-5.82 30.223c0-.29 6.686-29.94 6.686-29.94m-3.776 27.62c.29-1.744 4.94-27.614 4.94-27.614m-10.46 27.034c1.453-.872 5.813-2.035 5.813-2.035m-3.783-2.615c1.453 0 4.36-1.163 4.36-1.163m-3.49-2.327c0-.29 4.36-1.163 4.36-1.163m-3.78-3.197l4.65-.872m-2.61-2.908c0 .29 3.197.29 3.197.29m-2.327-3.78c.58 0 3.197.58 3.197.58" stroke-opacity=".996" transform="matrix(-1.25 0 0 1.3 1321.3 -301.92)" stroke="#512007" stroke-width=".475" fill="none"/><path d="M395.32 572.16c0-.29.872-72.96.872-72.96s2.616-.29 2.616 0-.29 72.67-.58 72.96-3.2.58-2.908 0zm28.49-69.76c0 .582-.582 61.333-.582 61.333l-2.035 2.326.582-63.66h2.035z" stroke-opacity=".996" fill-rule="evenodd" transform="matrix(1.25 0 0 1.3 259.35 -430)" stroke="#512007" stroke-width=".475" fill="#dd8b59"/><path d="M363.06 560.24s2.907 29.94 36.335 29.068 42.73-30.23 42.73-30.23-14.244-.582-14.535-.582c-.29 0-11.627 13.953-26.16 13.662s-19.185-3.78-22.383-6.685c-3.197-2.907-6.104-7.267-6.104-7.267l-16.86-6.686.873 6.395 6.104 2.325zm90.24-3.11c-.29-.872-1.007-3.866-1.007-3.866v-3.488l1.61-3.532s-25.29 3.623-25.29 3.914c0-.335-.156 6.885-.156 6.885l24.843.087z" stroke-opacity=".996" fill-rule="evenodd" transform="matrix(1.25 0 0 1.3 259.35 -430)" stroke="#512007" stroke-width=".475" fill="#dd8b59"/><path d="M448.52 549.78l-.58 6.104h4.068l-.29-6.104h-3.198zm-4.36.29l-.29 6.394 2.615-.29.29-6.104h-2.615zm-4.36 6.39v-4.94l2.616-.873.29 4.94-2.906.873zm-4.95-.28l.582-4.36 2.906.29.29 4.65-3.778-.58zm-5.52 0l.29-3.78 2.908-.29v4.36l-3.198-.29zm-67.44 3.77c.872 0 7.558 1.453 7.558 1.453l6.976 9.302" stroke-opacity=".996" transform="matrix(1.25 0 0 1.3 259.35 -430)" stroke="#512007" stroke-width=".475" fill="none"/><path d="M366.84 561.12c.29.29 6.104 19.766 34.01 19.766s34.59-22.09 34.59-22.09" stroke-opacity=".996" transform="matrix(1.25 0 0 1.3 259.35 -430)" stroke="#512007" stroke-width=".475" fill="none"/><path d="M439.8 559.37s-13.37 29.068-38.95 27.033c-25.58-2.034-29.65-11.627-31.685-16.568-2.035-4.942-3.197-9.01-3.197-9.01" stroke-opacity=".996" transform="matrix(1.25 0 0 1.3 259.35 -430)" stroke="#512007" stroke-width=".475" fill="none"/><path d="M373.23 558.21c.29-1.745.29-54.357.29-54.357l-1.744-.29-.29 53.775 1.744.872zm-41.57-17.15l22.09 10.755-.58 1.453s-21.22-9.883-21.22-10.174c0-.29.29-1.453-.29-2.034z" stroke-opacity=".996" fill-rule="evenodd" transform="matrix(1.25 0 0 1.3 259.35 -430)" stroke="#512007" stroke-width=".475" fill="#dd8b59"/><path d="M341.84 537.86c0 .872 3.198 18.603 3.198 18.603s2.035.29 2.035 0-3.49-18.312-3.49-18.312l-1.743-.29zm20.34.58c1.163 0 20.93-3.197 20.93-3.197l-.292 3.197-19.475 2.035-1.163-2.035z" stroke-opacity=".996" fill-rule="evenodd" transform="matrix(1.25 0 0 1.3 259.35 -430)" stroke="#512007" stroke-width=".475" fill="#dd8b59"/><path d="M365.09 514.32c.58 0 6.976 3.198 9.592 2.326s.872-2.907 1.453-2.907c.582 0 2.616 1.45 3.78.29 1.162-1.166 2.034-4.65 1.453-4.36-.582.29-15.988 5.81-16.278 4.65z" stroke-opacity=".996" fill-rule="evenodd" transform="matrix(1.25 0 0 1.3 259.35 -430)" stroke="#512007" stroke-width=".475" fill="#fecf3e"/><path d="M362.48 521.58c1.163.29 23.836-6.104 23.836-6.104s0 2.035-.29 2.035-23.546 6.108-23.546 6.108v-2.035z" stroke-opacity=".996" fill-rule="evenodd" transform="matrix(1.25 0 0 1.3 259.35 -430)" stroke="#512007" stroke-width=".475" fill="#dd8b59"/><path d="M415.09 512.57s1.454 3.488 2.907 2.907 2.907-1.744 2.907-1.744 1.163 2.907 3.197 2.325c2.04-.58 3.2-3.78 3.2-3.78s2.036.583 2.908.292c.873-.29 2.035-4.94 2.035-4.94l-17.15 4.94zm-1.75 28.2c-.29.58 1.454 2.035 2.907 2.035s2.035-2.035 2.325-1.454c.29.586.29 3.2 4.07 2.33s3.78-3.49 3.78-3.49-1.164.87 1.452 1.16c2.616.294 5.232-3.776 4.942-3.776-.29 0-18.894 3.49-19.476 3.198z" stroke-opacity=".996" fill-rule="evenodd" transform="matrix(1.25 0 0 1.3 259.35 -430)" stroke="#512007" stroke-width=".475" fill="#fecf3e"/><path d="M363.35 513.15c-.29 1.163.29 2.617.29 2.617l18.894-6.395s.872-1.454 0-1.454-19.475 5.814-19.184 5.232zm25-4.07c.58 0 19.475-6.104 19.475-6.104s.29 2.616 0 2.616-17.73 5.232-17.73 5.232l-1.745-1.744z" stroke-opacity=".996" fill-rule="evenodd" transform="matrix(1.25 0 0 1.3 259.35 -430)" stroke="#512007" stroke-width=".475" fill="#dd8b59"/><path d="M413.34 521.88s-2.907 3.197-2.035 7.557c.872 4.36 2.035 8.14 2.326 8.14s3.49-5.814 6.98-6.105 9.883 3.198 9.883 3.198-.87-6.977-.58-10.174c.29-3.198 5.23-8.72 5.23-8.72l-21.8 6.104z" stroke-opacity=".996" fill-rule="evenodd" transform="matrix(1.25 0 0 1.3 259.35 -430)" stroke="#512007" stroke-width=".475" fill="#fecf3e"/><path d="M386.89 516.64s-.58 2.616-.29 2.616 24.707-6.395 24.707-6.395v-1.74l-24.417 5.523z" stroke-opacity=".996" fill-rule="evenodd" transform="matrix(1.25 0 0 1.3 259.35 -430)" stroke="#512007" stroke-width=".475" fill="#dd8b59"/><path d="M355.5 551.82s-5.813-.872-5.523.58c.29 1.454 2.907 2.908 3.198 3.78.29.872-.872 4.07.872 3.78 1.744-.292 3.488-1.455 3.488-2.327s-.29-4.94-.29-4.94l-1.745-.873z" stroke-opacity=".996" fill-rule="evenodd" fill-opacity=".996" transform="matrix(1.25 0 0 1.3 259.35 -430)" stroke="#512007" stroke-width=".475" fill="#b6b6b4"/><path d="M387.76 537.28v2.034l20.93-2.906-.582-1.454-20.348 2.326z" stroke-opacity=".996" fill-rule="evenodd" transform="matrix(1.25 0 0 1.3 259.35 -430)" stroke="#512007" stroke-width=".475" fill="#dd8b59"/><path d="M363.06 540.77c.29 0 0 2.616 2.325 2.035 2.326-.582 2.907-2.035 2.907-2.035s.58 3.197 3.78 2.907c3.196-.29 4.94-3.78 4.94-3.78s.29 2.617 2.326 1.745 2.616-2.907 2.616-2.907l-18.313 2.616-.58-.58zm0-17.15s-2.616.872-1.744 6.104 2.907 8.14 3.197 8.14c.29 0 2.616-4.942 6.104-5.814 3.49-.873 9.593 2.616 9.593 2.616s-.582-4.65.29-9.01c.873-4.362 3.78-7.56 3.78-7.56s-20.348 5.524-21.22 5.524z" stroke-opacity=".996" fill-rule="evenodd" transform="matrix(1.25 0 0 1.3 259.35 -430)" stroke="#512007" stroke-width=".475" fill="#fecf3e"/><path d="M411.89 538.73l.29 1.744s20.93-2.616 20.93-2.907c0-.29 0-2.034-.29-2.034-.292 0-20.64 3.488-20.93 3.197zm-.29-18.6l.29 2.034 24.708-6.685s.582-1.748.29-1.748S412.18 521 411.6 520.13z" stroke-opacity=".996" fill-rule="evenodd" transform="matrix(1.25 0 0 1.3 259.35 -430)" stroke="#512007" stroke-width=".475" fill="#dd8b59"/><path d="M414.22 510.83s-.29 1.744 0 1.744 18.313-4.36 18.313-4.65c0-.29 1.744-2.036.29-1.745-1.453.29-18.02 5.52-18.603 4.65zm38.66 33.72l-18.03-28.49m-2.32 19.77c.29-.872 1.163-18.312 1.163-18.312" stroke-opacity=".996" transform="matrix(1.25 0 0 1.3 259.35 -430)" stroke="#512007" stroke-width=".475" fill="none"/><path d="M388.93 509.96c1.163.29 3.198 3.197 4.36 2.616 1.163-.58 2.907-2.325 2.907-2.325s-.29 3.49 2.035 2.91c2.325-.58 2.616-2.906 2.616-2.906s1.744.873 3.197 0c1.454-.87 2.907-5.232 2.326-5.232s-16.855 5.234-17.44 4.943zm-.58 8.43c0 .58-2.907 5.232-2.035 9.592s2.616 8.43 2.907 8.43 4.65-4.65 8.43-5.523c3.778-.876 9.3 2.903 9.01 2.903-.29 0-1.453-4.36-1.453-7.558 0-3.198 4.36-13.08 4.36-13.08l-21.22 5.232zm0 20.93c0 .29.872 2.326 2.907 2.326 2.034 0 2.325-2.035 2.325-2.035s-.29 3.49 2.907 3.2c3.193-.29 4.36-3.49 4.36-3.49s.29 1.748 2.903.876c2.616-.873 6.104-3.78 5.813-3.78-.29 0-20.93 3.78-21.22 2.907z" stroke-opacity=".996" fill-rule="evenodd" transform="matrix(1.25 0 0 1.3 259.35 -430)" stroke="#512007" stroke-width=".475" fill="#fecf3e"/><use xlink:href="#a" transform="translate(-6.56 7.28)" height="496.063" width="992.126"/><use xlink:href="#a" transform="translate(6.56 3.76)" height="496.063" width="992.126"/><use xlink:href="#a" transform="translate(0 11.03)" height="496.063" width="992.126"/><path id="a" d="M408.98 476.96a1.89 1.89 0 1 1-3.78 0 1.89 1.89 0 0 1 3.78 0z" stroke-opacity=".996" fill-rule="evenodd" fill-opacity=".996" transform="matrix(.04 -1.07 1.02 .04 251.6 667.92)" stroke="#512007" stroke-width=".581" fill="#be0f17"/><path d="M398.23 500.07c0-.29 9.01 3.78 9.01 4.07 0 .29 31.975 42.73 32.266 42.73m-15.986-42.73l8.14 3.49 2.615 6.393M372.94 503.56c-.29 0 9.01 6.976 9.01 6.976l1.164 5.814M341.26 546c4.07-1.744 32.265-26.452 32.265-26.452M333.7 541.35c3.49-2.907 31.684-26.742 31.684-26.742m21.216 4.072l29.94 49.706m-3.53-29.156s3.532 11.71 7.02 13.455 7.557 4.65 7.557 4.65" stroke-opacity=".996" transform="matrix(1.25 0 0 1.3 259.35 -430)" stroke="#512007" stroke-width=".475" fill="none"/><path d="M412.61 539.48s2.48 13.793 5.97 16.41 6.976 5.522 6.976 5.522" stroke-opacity=".996" transform="matrix(1.25 0 0 1.3 259.35 -430)" stroke="#512007" stroke-width=".475" fill="none"/><path d="M390.96 439.03s3.488 19.185 10.465 23.545c6.976 4.36 12.79 8.14 12.79 8.14" stroke-opacity=".996" transform="matrix(1.25 0 0 1.3 256.26 -299.49)" stroke="#512007" stroke-width=".475" fill="none"/><path d="M390.67 438.74s7.557 15.116 13.952 19.767c6.395 4.65 15.115 9.01 15.115 9.01M366.26 439.9c2.034 3.488 1.744 10.174 4.07 12.5 2.324 2.325 5.813 7.557 5.813 7.557" stroke-opacity=".996" transform="matrix(1.25 0 0 1.3 256.26 -299.49)" stroke="#512007" stroke-width=".475" fill="none"/><path d="M366.84 440.19c1.163 1.744 4.406 10.428 6.395 13.08 1.454 2.326 16.278 17.15 16.278 17.15" stroke-opacity=".996" transform="matrix(1.25 0 0 1.3 256.26 -299.49)" stroke="#512007" stroke-width=".475" fill="none"/><path d="M384.57 471.15a2.18 2.18 0 1 1-4.36 0 2.18 2.18 0 0 1 4.36 0zm10.75 4.65a1.89 1.89 0 1 1-3.78 0 1.89 1.89 0 0 1 3.78 0zm13.66 1.16a1.89 1.89 0 1 1-3.78 0 1.89 1.89 0 0 1 3.78 0zm11.92-4.5c0 .963-.716 1.744-1.6 1.744-.882 0-1.597-.78-1.597-1.744 0-.963.715-1.744 1.598-1.744.887 0 1.6.78 1.6 1.744zm9.59-5.67c0 .883-.846 1.6-1.89 1.6s-1.89-.717-1.89-1.6c0-.883.847-1.6 1.89-1.6s1.89.717 1.89 1.6z" stroke-opacity=".996" fill-rule="evenodd" transform="matrix(1.25 0 0 1.3 256.26 -299.49)" stroke="#512007" stroke-width=".475"/><path d="M374.1 404.44c-.872.582-15.406 4.07-13.37 3.78 2.033-.29 13.66 2.906 13.37 2.034s0-5.232 0-5.814zm24.71-4.36c-.582 0-9.012 3.198-8.72 3.198s9.592 2.616 9.3 2.034c-.29-.58-.29-4.36-.58-5.232zm25.29 2.91c-.582.29-10.465 2.616-8.72 2.907s8.43 2.616 8.43 2.035c0-.582 0-4.65.29-4.942z" stroke-opacity=".996" fill-rule="evenodd" fill-opacity=".996" transform="matrix(1.25 0 0 1.3 256.26 -299.49)" stroke="#512007" stroke-width=".475" fill="red"/><path d="M413.64 471.01c.29-4.65 8.72-31.103 8.72-31.103m-5.82 30.223c0-.29 6.686-29.94 6.686-29.94m-3.776 27.62c.29-1.744 4.94-27.614 4.94-27.614m-10.46 27.034c1.453-.872 5.813-2.035 5.813-2.035m-3.783-2.615c1.453 0 4.36-1.163 4.36-1.163m-3.49-2.327c0-.29 4.36-1.163 4.36-1.163m-3.78-3.197l4.65-.872m-2.61-2.908c0 .29 3.197.29 3.197.29m-2.327-3.78c.58 0 3.197.58 3.197.58" stroke-opacity=".996" transform="matrix(1.25 0 0 1.3 256.26 -299.49)" stroke="#512007" stroke-width=".475" fill="none"/><path d="M413.64 471.01c.29-4.65 8.72-31.103 8.72-31.103m-5.82 31.413c0-.29 6.686-31.127 6.686-31.127m-4.396 31.177c.29-1.744 5.558-31.175 5.558-31.175M413.93 467.23c1.453-.872 5.813-2.035 5.813-2.035m-3.783-2.615c1.453 0 4.36-1.163 4.36-1.163m-3.49-2.327c0-.29 4.36-1.163 4.36-1.163m-3.78-3.197l4.65-.872m-2.61-2.908c0 .29 3.197.29 3.197.29m-2.327-3.78c.58 0 3.197.58 3.197.58" stroke-opacity=".996" transform="matrix(1.25 0 0 1.36 225.31 -323.36)" stroke="#512007" stroke-width=".475" fill="none"/><path d="M413.64 471.01c.29-4.65 8.72-31.103 8.72-31.103m-5.82 30.223c0-.29 6.686-29.94 6.686-29.94m-3.776 27.62c.29-1.744 4.94-27.614 4.94-27.614m-10.46 27.034c1.453-.872 5.813-2.035 5.813-2.035m-3.783-2.615c1.453 0 4.36-1.163 4.36-1.163m-3.49-2.327c0-.29 4.36-1.163 4.36-1.163m-3.78-3.197l4.65-.872m-2.61-2.908c0 .29 3.197.29 3.197.29m-2.327-3.78c.58 0 3.197.58 3.197.58" stroke-opacity=".996" transform="matrix(-1.25 0 0 1.32 1259.2 -307.28)" stroke="#512007" stroke-width=".474" fill="none"/><path d="M426.42 558.5l27.614.582.29-2.035-28.486-.29.582 1.743zm1.17-7.27c3.198 0 27.324-4.65 27.324-4.65s.872-2.907 0-2.907-27.324 5.523-27.324 5.523v2.034z" stroke-opacity=".996" fill-rule="evenodd" transform="matrix(1.25 0 0 1.3 259.35 -430)" stroke="#512007" stroke-width=".475" fill="#dd8b59"/><use xlink:href="#a" transform="translate(0 5.52)" height="496.063" width="992.126"/></g></svg>