<svg xmlns="http://www.w3.org/2000/svg" viewBox="0 0 750 375"><path fill="#00247d" d="M0 0h750v375H0z"/><path fill="#FFF" d="M0 0v21l333 166.5h42v-21L42 0H0zm375 0v21L42 187.5H0v-21L333 0h42z"/><path fill="#FFF" d="M156.2 0v187.5h62.5V0h-62.5zM0 62.5V125h375V62.5H0z"/><path fill="#cf142b" d="M0 75v37.5h375V75H0zM168.7 0v187.5h37.5V0h-37.5zM0 187.5L125 125h28L28 187.5H0zM0 0l125 62.5H97L0 14V0zm222 62.5L347 0h28L250 62.5h-28zm153 125L250 125h28l97 48.5v14z"/><path fill="#6a4c2d" stroke="#000" stroke-width=".8" d="M552.7 265.6s-2 5.4-3.3 5.4-5.5-2.3-5.5-2.3-3.3 5-5 5.3c-1.6.3-6-.7-6-.7s-4 0-4.2-.6c-.2-.6 0-1.8 0-1.8s-6 4.6-7.2 4.3c-1.3-.3-5.8-6-5.8-6l-.7 3-8.4-.3-7.4-4.7s-4.2 7-4.3 6.7-7.3 1.7-7.3 1.7l-.4-1.4-4.8-2.8 3.7-5.3-1.7-.8-2.7 2.2-5.6 3.6-5.5-2.5 2.3-4.5.3-3.2 4.3-6.6 52.6-51.2 26 48-4 14.4z"/><path fill="#FFF" stroke="#000" stroke-width=".8" d="M590 268.7l13.8-.5-5.8-3 52.2-2-7.4-2.7-6.5-9-27-2s-2-1.4-5.4-.7c-.4-2-3-4.8-3-4.8l-16.6-1.3-10.4 7 7.2 18 9 1z"/><path fill="#474747" stroke="#000" stroke-width=".828" d="M536.7 115l1.4-4.6s2.6-4 2.6-6c0-1.8 1.7-3.8 1.7-3.8s5.6-1.6 6.7 2c6-9.2 13-.6 13-.6l2-2.3 4-4.8s5.5 5 5.5 6 1 .3 1 .3l6-.5s3 2.3 2.4 6.6c2 1.2 4 8.7 4 8.7l-50-1z"/><path fill="#656263" stroke="#000" stroke-width=".8" d="M590 171c1.2-.7 4.5-1.7 4-6.6s-4.5-5.3-7-5.2c-2.2.2-4.3 2.2-4.3 2.2l-7.7-5s3.8-24.3 8-26c3.8-2.7 4.5-4 4.5-4.5 0-1-1.4-2.5-1.4-2.5l-25-3-24 3s-1.7 2.7-1.5 3.8c.3 1 .3 2.3 4.6 5.6 4.8 3.6 8 24.4 8 24.4s-6.6 3.3-7 3c-.4-.5-2.4-1-3.5-.7-1 0-4.5 2-4.5 6.5 0 4.6 3.4 7.3 3.4 7.3s22.8-2.7 26.2 3.6c3.3-7.5 25-5 27.5-6z"/><path stroke="#000" stroke-width=".8" d="M614.7 145.6s.2-2.7 2-4c2-1.2 14.6-1.8 17.6 0 3 2 4.2 11.3 4.2 11.3s2 3 2 5.5.4 4 .4 4 10 13.2 10 25c1 8 1 29.6-2.3 37.8 0 10.3-4.4 17-4.4 17s1 1.7 1 3.6c-.2 2-1.2 3.6-1.2 3.6l15 7.4-5.5-2 5.4 4.5-6.4-3 3.7 3.8c0-.2-9-4-9-4l4 3.7c-.3 0-6.7-3-6.7-3l4 4-6-2.6.3 2s-4.6 0-4.6-3.5c-2.3-1.5-3.8-3.3-3.8-3.3L624 252l-11.7-35.4 2.8-60 .8-3-1.3-8z" stroke-linejoin="round"/><path fill="#fb0" stroke="#000" stroke-width=".8" d="M606.7 337s-6-12.7-9-13c-2.8-5 9.4-47.7 33-50 13 1 1.2 15-7.4 10.6 1 3.8 5.3 9 5.3 9s-17 7.4-22 43.5zm-81.4 2s5-14.6 8-14.8c3-.2-8-48.5-32.2-48.8-13 1-1 15 7.7 10.8-1 3.7-5.4 9-5.4 9s17 7.5 22 43.7z"/><path fill="#00713d" stroke="#000" stroke-width=".8" d="M547.5 248s-6 2-2 8.5c.2-2.6 3-4 3-4s-4.2 4.8 0 9c.6-4 3-5.2 3-5.2s-3 9 0 10.7c.5-3.5 2.8-5 2.8-5s-2.8 8-.3 9.7c.3-3 2.3-4.4 2.3-4.4s-1.2 8.3 2 9c0-3 2.4-6 2.4-6s-1 7 4 7.2c0-2.6 1-5.5 1-5.5s2.2 7.2 5.5 6v-6s2 6.8 6 5.5c-.5-2 .4-4.2.4-4.2s2 4.2 6 2.8c.5-1-.3-3.6-.3-3.6s5.5 5.8 7.2 2.3-4.4-4.6-4.4-4.6h4.3s-1.3-3.4-7-4.2c2-.8 4-.2 4-.2s-1.2-4.4-7-4.8c2.3-.8 4.8-.3 4.8-.3s-.7-4-7-5.3c1-1 3.7-.6 3.7-.6s-2.5-4-5.4-3.7c-3 0-28.7-2.8-28.7-2.7z"/><path fill="none" stroke="#3ec26d" stroke-width=".8" d="M573 269.2s2.3 1 2.3 2m-1-3.8s3 2 3 3.5m-.3-4.7s2.3 1.5 2.4 3.8m1.6-2.7s1 2.5.6 3m1.6-1.7c.2 2-.2 2.2-.2 2.2M554.4 256s2.8 1.8 2.5 4.3m-2.7-2s1.2 1 1 2m2.3-4.3s1.8 2.6 1.3 4.4m1.7-2.7s1 1.6 0 2.5m1.5-1.7s1 1.6 0 2m-1.2 3.2s2.7.6 3 2.5m-1.4-4.2s2.7 0 3 3m.6-4s1.8 3 1.5 4m2-3.8s.6 3 0 4m2-2.8v3.5m-3.3-8.3s1.7.7 1.6 2.3m0-3.8s2.2 1.2 2 3.6m.5-4.6s2 2.2 1.2 4.7m2-4.2s-.6 2.7-.3 3.8m2.4-2s-1.2 1-.6 2m-10 8.7s.4 2 0 2.5m-2.7-3.8s1.3 2.4.8 3.6m-3.7-3.6s1.5 1.7 1.5 3m-3.7-2.7s1.4 1.4 1.3 2m-2.6 0s1.4 1.5 1.3 1.8" stroke-linecap="round"/><path fill="#FFF" stroke="#000" stroke-width=".8" d="M529 173.5c6.4 0 13-.2 19.3-.4 0 0 12.8 0 14.2 4.4 2.4-5.5 13.4-5.2 13.4-5.2 6.5 0 13.2-.3 20-.6 0 16 0 32.2.2 48.3-4 18.6-17.5 32-32.5 37.5-17.8-5.7-29-20.8-32.7-38l-2-45.8z"/><path fill="#006b00" stroke="#000" stroke-width=".8" d="M536 173.3l28 75 25.4-76.6c-7.8.5-24.8-1.3-27 6-3-6.5-21-4-26.5-4.4z"/><path fill="#ffc900" stroke="#006b00" stroke-width=".4" d="M555 214c1 .5 1-20.4 2.5-21l1-4.4c-1-2.2-6.6-2-8.6-.2l1 4c3 4.3 2.3 22 4 21.5z" stroke-linecap="round"/><path fill="#cdad56" stroke="#000" stroke-width=".8" d="M547.5 52.3s2-2.3 2-2.8c.2-.6 9-1 14.4-11 3-5 0-2 0-2l-.3-2.6s3.7-3.7 2.3-5.6c-1.2-2-.8 2.4-3 2.3s-1-4.7-1-4.7 0-.4-.8-.7c-1 0-.6 1.7-1.4 2-.8 0-1.5-4-1.5-4s-1.4-1.7-2.6 4c.7 6 4.5 5 4.5 9 0 3.8-3.4 7-4.4 7-1 0-.6-3.3-.6-3.3s-.6-1.7-1-1.7 2-.3 1.7-4.8c-1-5.5-1.6 1.2-3 1-1.5-.3-.5-5 0-5.6s-.5-3-3.7 3c-.3 2.6-.6-1-1.3-.7-1 2.2-.8 4 .8 6 2.2 2 3.7 4 3.6 5.2 0 1-1.3 3.5-3 3.5-1.5 0 .2-3 0-4 0-1-2.7-4.5-2.7-4.5s-2-3-1.7-3c0-.2-.2-.7-1 2.5-1 3-2-2-2-2s-1.4 3.8 1.3 6c-2 0-2.2.7-2.2.7 0 1 3 1.5 3.3 3.4.4 2-2.8 3-2.8 3s1.3 2 5-1.6c.2 2.3-1.3 4-1.3 4 1.3.5 2.3.5 2.5 2z" stroke-linejoin="round"/><path fill="#cdad56" stroke="#000" stroke-width=".7" d="M535 52.3s-1.6-2.6-1.7-3c0-.5-8.3.6-12.2-9.5-2.3-4.7 0-2 0-2l.4-2.2s-2.7-3.3-1.6-5 .7 2.2 2.2 2.2c1.7 0 .7-4.3.7-4.3s.2-.5.7-.7c.8 0 1 2.5 1.8 2.7s2-3 2.6-3.6c.6-.3.6-2.7 1.6 2.5-.6 5.5-5 4.4-5 8 0 3.6 2.8 6.4 3.6 6.5 1 .2.6-3 .6-3s.4-1.4.7-1.4c.4 0-2.6.6-2.3-3.5.7-3.7 2.2.4 3.4 0 1.2 0 0-4 .2-4.5 0-.6 2-3 2.6 2.4.2 2.5 1.6-2 2.2-2 1 2-.4 4.7-1.7 6.6-2 2-2.8 4-2.7 5 0 1 .5 2.2 2 2.2 1.2 0 .3-1.8.4-2.7s2.4-3.7 2.4-3.7c.4-.7 0-2 .5-2.7.8 0 1-1 2 2 .6 2.7 1.6-2 1.6-2s1 3.5-1.5 5.6c1.8 0 2 .6 2 .6 0 1-1 1.4-1.2 3.2s1 2.7 1 2.7-1.2 1.7-4.5-1.7c0 2.2 1.2 3.6 1.2 3.6-1 .6-2 .5-2 2z" stroke-linejoin="round"/><path fill="#ffc900" d="M584.7 184.5c-1.6-1.5-1.8-.2-2.7-.5-.4-.2-.7-.6-1-1-.3-.3-.7-.4-1-.5-.3.4-.4 1-.6 1.3s.4 1.2.4 2c0 1-.5 1.7-1.8 2 .4-.6.6-.7.5-1.5 0-.5-1.3-1.3-1-1.7 0-.6.5-1.4.2-2-.5.3-1.2 0-1.7.3-.5 0-.5 1-1 1.2-.7.3-2 0-3.2-.5.7-.6 1.2-.2 2-.7.3-.2.3-1.3.6-1.6l1.6-.8c-.3-.4-.3-1-.6-1.3-.4-.4-1.8-.3-2-.6-.7-.8-.6-1.7-1.2-2.4 1.6.6 1.4 1.4 1.8 1.3.8-.4 1.5-.5 2-.3.3.2 1 1.2 1.5 1.4l.5-1.5c.2-.5-.6-1.3-.5-1.7.3-1 1-1.7 1.4-2.6 0 .7 0 1.4.2 2.3 0 .4 1 .6 1 1 0 .5-.5 1.5-.5 2 .5 0 1.2 0 1.6-.2.5 0 .8-1 1.3-1 1-.3 1.6-.3 2.6 0-.7.6-1.3.5-1.7 1-.4.4 0 1.3-1 2H581l1 1c0 .5 1.5.7 2 1 .5.8 1 1.6.6 2.4zm-43.2.7c1.7-1.5 2-.2 2.7-.5.4-.2.7-.6 1-1l1-.5c.3.4.5 1 .6 1.3.2.5-.4 1.2-.4 2 0 1 .5 1.8 1.8 2-.4-.6-.6-.6-.5-1.5 0-.4 1.3-1.2 1-1.6 0-.7-.5-1.5-.2-2 .5.2 1.2 0 1.7.3.5.2.5 1 1 1.3.7.3 2 .2 3.3-.5-.7-.5-1.3-.2-2-.7-.4-.3-.4-1.4-.7-1.7-.4 0-1.2-.3-1.5-.6.3-.3.3-1 .6-1.3 0-.2 1.5-.2 2-.5.4-.7.3-1.7 1-2.4-1.7.7-1.5 1.5-2 1.4-.6-.3-1.4-.4-2-.2-.2.2-1 1.2-1.4 1.4l-.5-1.5s.8-1.2.6-1.7c-.3-1-1-1.7-1.4-2.6 0 1-.2 1.6-.3 2.5 0 .5-1 .8-1 1.2 0 .4.4 1.5.3 2-.5-.2-1.2 0-1.6-.2-.5 0-.8-1.2-1.3-1.3-1-.3-1.6 0-2.5 0 .6.6 1 .5 1.6 1 .3.3-.2 1 .8 1.8.4.2 1.4 0 1.8.2l-1 1c-.3.4-1.7.5-2 1-.7.6-1 1.5-.8 2.2z"/><path fill="#ffc900" stroke="#006b00" stroke-width=".4" d="M583.2 189.3c-1.5 1.2-11.3 3.7-11.4 12.3 0 8.5 1.7 10.5 0 10.7-3.7 0-4.2-9.6-4-13.8V195s2.5.6 2.3 2.7c0 2 2.7-5 1.8-7 1.6 1.5 3.7 1 3.7.8 0 0-1.2-1.4-1.7-2.4s1.8.7 1.8.7 0-1.6-2-1.5c-2.6 0 .5-.7.5-.7s1.6 1.4 2.6 0c-1-1.3-2.7-2-2.7-2s-1.5-2.7-3.5-3.2c-2.2-.5-2 1-4.4.8-.4 1-.4 1 .6 1.5-1.7 1.2-.8 3.6-.8 3.6s2.7-1 2.6 1c0 2-1.6 1.5-2.6.3-1-.5-1.3.5-1.3.5l1.5 1.6s-3 0-3.6 1.8c1.5 0 2.4.3 2.4.3s-3.2 1.5-3.5 2.3-.4-1-.5-1l-3-1-1 4.7s2 2 3 1.4c1.2-.8 3.2-2.7 4.4-2-3.5 2.5-7 6.4-9 7-.5-.5-2.2-2-3-1.3-.6.8 0 2 .8 1.8 1 0-3 1-2.2 2.5 1 1.6.8 1.5 1.5 1 .7-.3-.6-.5 2-1.2s2.5-1.5 2.5-1.5-.5 1.2-2 1.5c-1.3.3-2.4.3-2 .7.2.5.8 1.2.6 1.7s3-2.3 3.7 0c2.4-.2 3.8-2.8 2.8-4.4 0 1.7 1 2.2.5 3-.6.7 4.8-2.5 2-4.5.8 1.6 1 3 1 3s1-.2 1.5-.6c.3-.4-.7 1.2-.3 1.5.5.3 2.4 2.2 1.6 3.5-.4-.8-.5-2-1-2-.8.3-3.3 2-4.8 2.2s2 5.5 2 5.5-2.4-.3-2.7 0-2-2-2.2-.7c-.4 1.6.6 1 .6 1s-1.4-.7-2 0c-.8.8-1.5 1.6-1 2 .5.2 2.7.2 3 0s-2.5.3-2.7.7c-.2.3-.6 1.5 0 2s2-.3 2.2-.6l.2 1s2.7.3 2.7-2.4c0-2.6.3 2 .3 2s2.6.4 2.7-2.3c0-2.7.3 2 .3 2s1.8-.7 1.8-1c0-.5 0 5.3-1.3 7-2-1.4-3 .8-3 .8s0 3-.2 4c-.2.8 1.3-.4 1.4-1l2-1.2.5-1.3s-.5 1.5-1 1.7c-1 .2-1.6 1-1.3 1.6s1.4 1 1.8 1.7c.5.7 2-3.8 2-3.8v1s2-.4 2-1.3c.3-1-1.8-1.7 0-3 1.6-1.5 0 1.2 0 1.2s.5 2 1 2c.3 0 1.3-4 .3-4.8-1-1 1.5 1.2 1.5 1.2s1.5-4 0-4.6l-2.3-.7s.8-1 .4-1.2c-.5 0 2 2.4 2.5 1.8.3-.7 1-2.6-2-3.7-3-1 0-4 0-4s1.7 2.2 3 1c1.3-1.2 0-1.2 0-1.2s3.6-2.4 3.7-3.6h-2s2.2-1.3 1.7-3.6c-.8 1.2-2 1.2-2 1.2s2-1.8 1.6-3.5c-1 .7-1 1.4-1.7 1.2-.8-.3-2-7 .8-7.5 3-.3 1.4 3.4 1.5 3.4 0 0 4.3-1.6 0-4.4 1-.4 3.2 1.5 3.2 1.5s-1-4.6-5.5-1.7c1-1.2 1.7-2 2.6-1.7s4.2-.2 4.2-1c-.8-.8-2.5.2-3.5 0-1-.5 6.5-1 6-4.7z" stroke-linejoin="round" stroke-linecap="round"/><path fill="none" stroke="#006b00" stroke-width="1.3" d="M481.3 118.5s12.3-6.4 18.4 1.6m5 12.3c-.4 0-4.4 4-5.3 4m13.4 9s11.4 1 18.7-10.5" transform="matrix(.3316 0 0 .35352 391.45 150.228)" stroke-linecap="round"/><path fill="none" stroke="#006b00" stroke-width="1.3" d="M525 141.8s1 6 2.8 6c2 0-3 1.7-5 .4 2.3 2.8 3.5 7.7 0 9.5" transform="matrix(.3316 0 0 .35352 391.45 150.228)" stroke-linecap="round"/><path fill="#e80000" stroke="#006b00" stroke-width="1.3" d="M519.3 219s-4 4.2-9 4.6" transform="matrix(.3316 0 0 .35352 391.45 150.228)" stroke-linecap="round"/><path fill="none" stroke="#006b00" stroke-width="1.3" d="M524 199.4s-2.6-12.3-1-15.3c1-4 4.8-5.3 8-10.5m-8.4 17s-3 7.3-16.5 5m20.3-23.5s1 10-11.3 6.3m-3.7-50.3s-5 4.3-3 10" transform="matrix(.3316 0 0 .35352 391.45 150.228)" stroke-linecap="round"/><path fill="#006b00" d="M567 191.7l2.6-1.3c.4-.4 1-1.3 1.3-2 0-.6-1.6-1.6-.8-3 .5-.6 1.3-.7 2.5 0 1.2.8-1-2.4-2.4-2.5-1.2-.3-2 .7-2.3.5-.2-.2.2 1-.3 1s1 .7 1 1.3c-.2.4 1.5 2.2 1.4 2.7 0 .4-2.3 3-3 3z"/><path fill="#ffc900" stroke="#ffc900" stroke-width="1.3" d="M534.3 97c2.8-.5 3.2.2 2.7 2.6-1.3-.7-1.8-1.3-2.7-2.5z" stroke-linejoin="round" transform="matrix(.3316 0 0 .35352 391.45 150.228)" stroke-linecap="round"/><path fill="#e80000" stroke="#006b00" stroke-width="1.3" d="M514.7 233.5s-1 6.4 1.5 7c0-2.5.5-4.2 1.2-5-.6 0-2.6-2-2.7-2zm-5.7-8c-2.3-.2-6.2 1.7-5 4 1.8-1.6 3.5 0 5-1.5.3-.4.2-1.8 0-2.4zm0-4.5s-3.6-.5-4.2 2c2.6-.3 3.3-.6 4.2 0 .2-.6 0-1.8 0-2z" stroke-linejoin="round" transform="matrix(.3316 0 0 .35352 391.45 150.228)"/><path fill="#e80000" stroke="#006b00" stroke-width="1pt" d="M493.5 185s2.2.8 3 3c1.6-1 2.4-5.8-3-3zm-5.5 5.4c.2 0 4.7-2.8 5.2-.2-1 1-1.4 1.6-2 1.8-.7 0-2-1.8-3-1.6zm-.3 8.8s3-2.5 4-.8c1 1.6-1 1.5-1 1.5s-1-.6-3-1zm-4-49.2s-3.6-1.4-5 1c2.3.4 3 1.2 4.2 2-.5-1-1-2.6.6-3zm-7 18.5s.3-4 2-5.8c1.4.6 1.7 1.6 2.4 2.8-1.3.3-3.2.4-4 3zm9.6-3s-4 2-2.6 3.8c1.2-1.3 2.7-1 2.7-1v-2.8z" stroke-linejoin="round" transform="matrix(.3316 0 0 .35352 391.45 150.228)"/><path fill="#ffc900" stroke="#006b00" stroke-width="1pt" d="M480.6 125.6c-1.4 1.6 1.8 5 5 4.5 1-3.5-4-5.5-5-4.3z" stroke-linejoin="round" transform="matrix(.3316 0 0 .35352 391.45 150.228)"/><path fill="none" d="M550.8 192c-.2.7.7 1.6 1.2 1.3.2-.6-1-1.7-1.2-1.2z"/><path fill="#e80000" stroke="#006b00" stroke-width="1pt" d="M484.3 122.8s.6 3 3.4 2c-.4-2.2-2.4-4-2.4-4 0 .8.4 1.8-1 2zm2 8.5s1.5 1.7 4.6-1.8c-1.6.4-4-.8-4-.8s0 2.4-1 2.6z" stroke-linejoin="round" transform="matrix(.3316 0 0 .35352 391.45 150.228)"/><path fill="#ffc900" stroke="#006b00" stroke-width="1pt" d="M480.5 119c-1.4 1.4.5 3.6 3.8 3 1-3.6-3-4.3-3.8-3z" stroke-linejoin="round" transform="matrix(.3316 0 0 .35352 391.45 150.228)"/><path fill="#ffc500" d="M551.2 187s4.3-1.2 6.7.7c2.2 1.8 2.2 0 2.2 0s3.5 1.4 4.5 1-.8 0 .6-.7c1.2-.8-2.7.2-3-1.5-.7-1 0-2.4-1.4-2-1-1.2.6-2 .2-3.5-1 .8-1.6-.2-2.4 1.6-1.8-.3-.2-3-2.3-3.2 0 2-1.4 2-1.5 3-1 .7-4.8 3-3.7 4.6z"/><path fill="#c01500" stroke="#000" stroke-width=".8" d="M501 329.2c2.7-.6 18 3.4 24 9.8-1.2-11.3-4.4-20-4.4-20s-9-2.6-10.4-1.3c-1.8 2-7.3 7.7-9.3 11.5zm-4.8-52.2c-1 .2-2 1-3.2 2.7-1.3 3-2.2 10.8-4 12.6s-3.4 2-3.4 3.6c0 1.4.2 5 5 6.6 5 .2 12.6-7.7 12.6-7.7s4-4.5 5.6-9c-9.3 3-16-5.5-12.6-9zm135 50.4c-2.8-.6-18.3 3.4-24.2 9.7 1.3-11 4.4-19.6 4.4-19.6 1-.3 9-2.6 10.2-1.4 1.8 1.8 7.7 7.6 9.6 11.4zm4.4-52c1 .3 1.4 1.7 2.3 3.5 1 3 2.3 7.2 4 9 2 2 3.5 4.4 3.5 6s-.4 4-5.2 5.2c-4.8.2-11.8-6-11.8-6s-4-4.2-5.5-9c9.4 3.3 15.4-5 12.6-8.8z"/><path fill="#fb0" stroke="#000" stroke-width=".8" d="M490.8 319.4s9.7 6.6 10 9.7c26-38.4 92.4-50.5 130.2-2.5 5-6.7 10.3-8.8 10.3-8.8-40-52-119.2-45.6-150.5 1.8z"/><g fill="#1e5aa6" stroke="#000" stroke-width=".8"><path d="M589.6 171.7h3.8l-6.8 8.5 8 9.5-15.8 20 15 18.3c-1.6 4-3.5 7.7-6 11l-8.8-9.5 15.7-19.6-13-14.8 8-23.6zm-54.2 1.7h-4l7.5 8.3-8 10 16.5 18.2-13.8 18.3c1.6 4 4 8.6 6.6 12l8.2-10.4-17-19 12.5-15.7-8.6-22z"/><path d="M554.2 222.2l-6 8 21.3 24.6c3.8-2 6.8-4 10-6.7l-11-12.6L573 222l6.3 7.6-20.3 26c-3.3-1.5-7-3.8-10.5-6.6l10.7-13.7-5-13zm-6.6-12.4l4 5-2.7-6.7-1.5 2zm27.8 4.2l3.2-4-1.2-1.7-2 5.8z"/></g><g font-family="Timmons" font-size="14" font-weight="bold"><text x="-328.3" y="362.4" transform="matrix(.403 -.473 .473 .403 461.4 21.482)"><tspan x="-328.3" y="362.4">L</tspan></text><text x="-292.3" y="384.3" transform="matrix(.436 -.442 .442 .436 461.4 21.482)"><tspan x="-292.3" y="384.3">E</tspan></text><text x="-239.8" y="451.7" transform="matrix(.4737 -.33822 .35254 .46837 461.4 21.482)"><tspan x="-239.8" y="451.7">O</tspan></text><text x="-188.5" y="430" transform="matrix(.51446 -.3478 .3478 .51446 461.4 21.482)"><tspan x="-188.5" y="430">T</tspan></text><text x="-115.4" y="451.5" transform="matrix(.56 -.268 .268 .56 461.4 21.482)"><tspan x="-115.4" y="451.5">E</tspan></text><text x="-94.1" y="453" transform="matrix(.567 -.252 .252 .567 461.4 21.482)"><tspan x="-94.1" y="453">R</tspan></text><text x="-68.4" y="455" transform="matrix(.576 -.232 .232 .576 461.4 21.482)"><tspan x="-68.4" y="455">R</tspan></text><text x="112" y="445.7" transform="rotate(-4.6 467.783 -5492.19) scale(.621)"><tspan x="112" y="445.7">R</tspan></text><text x="180.2" y="430.8" transform="matrix(.62 0 0 .62 461.4 21.482)"><tspan x="180.2" y="430.8">R</tspan></text><text x="414.8" y="275.2" transform="matrix(.54 .307 -.307 .54 461.4 21.482)"><tspan x="414.8" y="275.2">R</tspan></text><text x="483.9" y="193.1" transform="rotate(39.8 201.03 648.008) scale(.621)"><tspan x="483.9" y="193.1">E</tspan></text><text x="309.1" y="414" transform="matrix(.59837 .11248 -.09645 .5911 461.4 21.482)"><tspan x="309.1" y="414">O</tspan></text><text x="105.1" y="459.3" transform="matrix(.56007 -.08172 .08475 .60547 461.4 21.482)"><tspan x="105.1" y="459.3">O</tspan></text><text x="-45.7" y="455.8" transform="matrix(.582 -.215 .215 .582 461.4 21.482)"><tspan x="-45.7" y="455.8">A</tspan></text><text x="518.3" y="144.7" transform="rotate(45.196 204.897 565.016) scale(.621)"><tspan x="518.3" y="144.7">A</tspan></text><text x="271.2" y="388.3" transform="rotate(11.357 122.69 2331.003) scale(.621)"><tspan x="271.2" y="388.3">A</tspan></text><text x="40.3" y="455.2" transform="matrix(.61 -.115 .115 .61 461.4 21.482)"><tspan x="40.3" y="455.2">M</tspan></text><text x="94.4" y="448.1" transform="matrix(.618 -.064 .064 .618 461.4 21.482)"><tspan x="94.4" y="448.1">P</tspan></text><text x="155.1" y="437.6" transform="matrix(.62 0 0 .62 461.4 21.482)"><tspan x="155.1" y="437.6">P</tspan></text><text x="405.1" y="276.7" transform="matrix(.54 .306 -.306 .54 461.4 21.482)"><tspan x="405.1" y="276.7">P</tspan></text><text x="232.1" y="409.8" transform="rotate(6.586 44.083 4020.832) scale(.621)"><tspan x="232.1" y="409.8">I</tspan></text><text x="530.4" y="132.1" transform="rotate(46.59 205.751 546.6) scale(.621)"><tspan x="530.4" y="132.1">T</tspan></text><text x="464.2" y="218.5" transform="rotate(36.82 198.426 703.928) scale(.621)"><tspan x="464.2" y="218.5">T</tspan></text><text x="313.7" y="362" transform="matrix(.596 .175 -.175 .596 461.4 21.482)"><tspan x="313.7" y="362">M</tspan></text><text x="513.7" y="123.2" transform="rotate(47.66 206.381 533.067) scale(.621)"><tspan x="513.7" y="123.2">G</tspan></text></g><path fill="none" stroke="#fff700" stroke-width=".8" d="M620.3 146.3s3.8-3.2 6.5-3.3m-5.8 2.8s22.3-3.2 23-4m-23 4.2l25-2m-25 2s26.4-1.2 28 .2m-28.2-.2s26 .2 26.4.8M621 146l24.8 2m-25.2-1.8s25.4 2.2 28 5.4m1.4 4.6c-.2 0-8.8-10.3-29.5-10m0 0s14.5 1 19 6M621 146s9.2-1.7 19 10" stroke-linecap="round"/><path fill="#d5dfff" stroke="#000" stroke-width=".828" d="M615 156.7s13 .6 13 1.8-9.6 3.6-9.7 9 7.3 5.5 7.8 12.3c.7 6.7-5.7 7.7-7 9.4-1.2 1-4.3 10.4-3.8 16s2 24.3 5 28c2.2 2 5.5 7.5 9.2 5.8 3.6-2 1.2-8.2.8-10-.4-1.8 1.5-4.7 1.5-7.4s-1.4-4.8-1.3-5.4c.2-.6 10.2 2.5 9.6 12.4-.6 10-4.7 7-4.7 7s1.3 12.2-1.8 13.8c-5.8 3-10-.6-10-.6l.7 2.5-4.4-2.3s-5.6-8-6.8-11.5c-1.3-3.5-2.8-19.2-2.3-22.7.5-3.4 1-23.4.6-24.3-.2-1-1.2-17.7-.6-20.2s4.5-13.7 4.3-13.7z"/><path fill="#ff7000" stroke="#000" stroke-width=".8" d="M601.2 153.4s9-8.7 14-7.7c2.7 0 .2 2 .2 2s4.6.3 5.2 2.3c0 1-2.2 1.2-2.2 1.2s2 .3 2 2c.2 1.6-19 .3-19.2.2z"/><path fill="none" stroke="#000" stroke-width=".8" d="M601.7 153s9.6-1.2 13.6-5.3m-4 2.7s7-.3 7 .8"/><path fill="#FFF" stroke="#000" stroke-width=".8" d="M636.5 253.6s6-1.4 7.7-3.6c1-.7 6.3 8-7.7 3.6z" stroke-linejoin="round"/><path fill="none" stroke="#FFF" stroke-width=".8" d="M634.8 203.5s.8 4.7-1.3 7.8c-1.2 1.3-4.6 3.4-4.6 5 0 1.4 1 3.5 1 5.2-.4 1.8-2.3 3.6-2 5 0 1.6 2 9.7 1.7 9.8m-6-48S619 190 618 195" stroke-linecap="round"/><path fill="#c75b00" stroke="#000" stroke-width=".8" d="M621.7 150.4s1.7 4.5 7 .2c-3.4-4.6-7 0-7-.2z"/><path d="M625.6 150.2c0 .2-.2.4-.5.4s-.4-.2-.4-.4.3-.4.6-.4.6.2.6.4z"/><path fill="#FFF" stroke="#000" stroke-width=".8" d="M578.4 140s10 10.7 16.6 10.6c1 3.2-3 6.2-4.7 7.6-3.3-1-6.3.2-14-9.3.5-6 2.2-9 2-9zm13.6-25.4c1.3-4 4-7.2 6-7.6-.5-3 5-16.7 20.4-22 1 7-6.7 14-6.7 14s22.8-4 27.4-9.7C639 92 634 108 610 108c9.2 8.6-3 15.6-8 13.4 9.4-7.3-2.8-11.7-9.7-7z"/><path fill="#cccccd" stroke="#CCC" stroke-width=".8" d="M599.8 109c4.6-3 6.3-3 10-2.5l-2.7.5s0 .4 1.6 2c-1.8-.6-3.5-1.6-8.7 0z"/><path fill="none" stroke="#000" stroke-width=".8" d="M598 107s9-4.8 14.2-8.2"/><path fill="#00F" stroke="#000" stroke-width=".8" d="M590.2 158.2s12.6 3.4 14-14.6c-2.8-7.8-6.5-24.5-.7-29.4-5.4-3.7-11 0-11 0-.5 1-5.2 7.7 1 19.5-15-4-8.8 10.3-8.8 10.3.6-2.3 8.6-4.4 10.6 7 .8 3-5.4 7.3-5 7.2z"/><path fill="#00F" stroke="#000" stroke-width=".8" d="M604.3 143.8s13.2-7 13-23.8c-11.4.2-15.4 14.8-15.4 14.8l2.2 9z"/><path fill="#FFF" stroke="#000" stroke-width=".8" d="M545 143s-10 8.4-15.4 5.7c-4 2.5-9-2-9-2s5.7 21 26 6c-.3-4.7-1.4-9.4-1.6-9.8z"/><path fill="#00F" stroke="#000" stroke-width=".8" d="M529.5 148.4c.8-4.4 4.2-6.5 7-2.4 3.6.7 7.3-14.3-5.7-11.8 3.6-19.6-7.4-27-7.4-27s-4 21.8-2 25.8c1.7 4-2.7-7.4-16.7-10.6-.3 16.4 15.7 24 15.7 24s4.5 4.2 9 2z"/><path fill="none" stroke="#000" stroke-width=".8" d="M530.8 134s-6.2 5.3-4.8 12.4m-4.6-13s-1.4 5 1.7 12.2m-2.5 1.7s2.8-4.6 9 1.3"/><path fill="#FFF" stroke="#000" stroke-width=".8" d="M521.7 115.4s-9.4 0-3.8 9.4c-4.3 1.3-13.6-4.7-7-12.7-21-.3-29.6-10.3-29.6-19.6 6 6.4 20.8 3.8 26 7.7-6.4-6-5-14-5-14s17.8 5.4 21 21c-1 3.3-1.6 8.7-1.8 8.5z"/><path fill="none" stroke="#000" stroke-width=".8" d="M507.3 99.6c3.5 3.5 12.3 4.6 16.8 8.5"/><path fill="#cccccd" stroke="#CCC" stroke-width=".6" d="M511.4 110s7.3-1 9.4 1.6c-2.8 0-3.8-.7-8 .8 1.2-.6 1-1.6 1.6-1.6s-2.7-.8-3-.8z"/><path fill="#923f00" stroke="#000" stroke-width=".8" d="M548 52.6s4-3.5 8.3-.3c-2 6-9 3.6-9 3.6s0 3-.6 4.2c1.5 1 2.6 4.6 2.6 4.6s7.4-1.8 9 1.3c2.7-.2 4.7 0 4.7 0s5.7-1.3 7.7-1.3 8.4 1.6 9 2.8c.6 1 2.7 9 4 9 1.6-.2-3.3 1.8-4.6-.2-1-2-.7 2.6-.7 2.6s4 4.2 4.5 5c.4 1-2.5 8.8-.3 14-2 .3-2 2.3-2 2.3-.2 2.4-3.2 3-3.2 3l-.7-3.2-2 1.3.8-2.5s2.7-6.5 3-8.7c.2-2-2.5-6-4.6-6-2.2 0-3.7 7-3.7 7s-1 5-.6 5.5L568 95s-1 3-1.8 4-2.2 1.4-2.2 1.4-1-3-.7-4.3 5.8-5.6 5.3-9 0-2.4 0-2.5c-.2 0-3-2.5-3-3.8-.2-1.3-3.6 1.7-8 .8-1.5 2.4-1.7 8.3-1.7 8.3s-.6 7.3.3 8c1 1-2.3 2.7-2.3 2.7l-2.3 3.2-.8-2-2 1.3 1-2.5c0-1.8 2.4-6.7 2.4-10.8s.3-8.6.3-8.6-4.4 0-4.3 4.5c0 4.5-1 4.7-.8 6s1.4 5 1 6c-.3 1-1.7 1.4-1.7 1.4l-.5.5s-4.4 2-4.2 3-.2-2.5-.2-2.5v-3.5s2.5-1.7 2.5-5.8-.6-4.7-.5-5.7c.2-1 .8-4.4.7-4.7 0-.4-2.5 1-3.2 1-.7 0 1.3-2.5 1.6-4.3s-2.2 1.6-4.3-.4c1-2.2 2.5-2.8 2.7-4.5s-1.7 1.7-3.3.5c0-1.6 2-3 2-3h-2c-1-.3 1-2 1.3-4.4S538 62 538 61.8s-2.5-2-3-3-.2-1.7-.2-1.7-4 2.7-8.5-3.3c4.2-3.6 8.7-1 8.7-1s1.2-3.3 6.6-3c5.5.2 6.5 3.3 6.3 3z"/><path fill="#00F" stroke="#000" stroke-width=".8" d="M577.6 113.8s10 .3 10.2 5.6c0 5.3-3 4-3.2 4l-7.3-1 .3-8.6z"/><path fill="#fffeff" stroke="#000" stroke-width=".8" d="M568 112.3s12.4 0 11.7 5.3c-.7 5.4-3.8 4.3-3.8 4.3l-6-.7-2-9z"/><path fill="#00F" stroke="#000" stroke-width=".8" d="M561 111.7l7.2.6s4.3.6 4 4.7c0 4.2-4.3 4.3-4.3 4.3l-7-.4v-9.4z"/><path fill="#FFF" stroke="#000" stroke-width=".8" d="M544.2 113.8s-10 .3-10.2 5.6c0 5.3 3 4 3.2 4l7.3-1-.3-8.6z"/><path fill="#00F" stroke="#000" stroke-width=".8" d="M553.8 112.3s-12.4 0-11.7 5.3c1 5.4 4 4.3 4 4.3l6-.7 2-9z"/><path fill="#FFF" stroke="#000" stroke-width=".8" d="M560.8 111.7l-7.2.6s-4.3.6-4 4.7 4.3 4.3 4.3 4.3l7-.4-.3-9.4z"/><path fill="#5e0043" stroke="#000" stroke-width=".8" d="M580 171.5s5.2-7.7 7.4-6.8c2 .6.5 6.5-.5 7l-7-.2zm-35.4 1.3c-1.6-2.2-4-8.5-6-6.8-2 .7-.6 6.5.3 7l5.5-.2z"/><path fill="none" stroke="#000" stroke-width=".8" d="M548 157.8s10 6.2 13.4 6.3 13.8-8 13.8-8"/><path fill="#5e0043" stroke="#000" stroke-width=".8" d="M549 133.4l2-2.4 9.6 5 10-4.4 1.8 2-11 7.7-12.4-8z"/><path fill="#474747" stroke="#474747" stroke-width=".8" d="M541.4 133.3c.7 1 7 8.6 8 15 1.2 6.2-.5-8.7-.5-8.7s7.5 3.7 7.7 6.2 3.7-.2 4-.6l-22.5-14.6 3 2.7zm38.2-.3s-8.2 10.6-7.2 22.3c-1.7-5.6-.3-15-.3-15l-1.6 1.3s-2 8-4.2 9c-.3-1-.2-1.2-.2-1.2s-2.5 3.2-3 3.5.2 10.7.2 10.7.8 7.7 1.8 7.6l-2.5 1.3-1-20.4 2.3-2.3s3-3.8 3.3-7.4c-1.3 1-3 1.5-3 1.5s-.2 5-1.4 6c-1.2.7-1.3 2-1.3 2l-.2-6.7 18.7-12.5z" stroke-linejoin="round"/><path fill="none" stroke="#000" stroke-width=".8" d="M561 145.3l1.5 32.2" stroke-linecap="round"/><path fill="none" stroke="#000" stroke-width=".8" d="M541 160.7s3.8 2 5.2 8.7c12-.8 16 3.4 16 3.4s9.8-4.7 14.4-3.8c1.6-3.4 6.2-7.8 6.2-7.8"/><path fill="#b4b6b9" stroke="#000" stroke-width=".8" d="M536 129l25 16.4 22.3-15s4.7-2.7 4.3-4.5c-.4-2-2-1.4-2.8-1-.8.3-23.5 16.3-23.5 16.3l-24-15.2s-1.8-.5-2 .7c-.4 1 .5 1.7.8 2.3z"/><path fill="#474747" stroke="#474747" stroke-width=".8" d="M580.6 125s-6.4-2.8-6.4-.5.2 2.6 1.2 4c1 1.6-.8 2.5-.8 2.5l-.6-1.6c-.4-1-3.8-1.8-4-3-.4-1.2.6-3-1.4-3.3-2 0-4 1-4.4 3.3s-3 7.8-3 7.8l.3-12.3c4.4.3 12.8 1.3 19.2 2-2-.2.7.2.6.8 0 .6-.8.6-.7.5zm-22.6-3.3c-1 0-6.8.7-8.2 1.5-1.5 1 2.3 2.2 1.8 3.3s-.5 3.5-2.3 3c-1.8-.5-8-3.5-8-4.5s-1.5-1-1.5-1 17.4-2.4 18.2-2.3z" stroke-linejoin="round"/><path fill="none" stroke="#000" stroke-width=".8" d="M560.8 120.3v15.3M549 102.3l-7 11.7"/><path fill="#474747" stroke="#000" stroke-width=".828" d="M562 102s3 4.2 2.5 5.4c1.3 1 2.8 4.8 2.8 4.8"/><path fill="none" stroke="#000" stroke-width=".8" d="M573.6 101.4s-6.5 9.2-6.3 10"/><path d="M540 57.4c0 .5-1 .7-2 .4s-1.3-1-1.2-1.4c.2-.5 1-.7 2-.5s1.4.7 1.2 1.3zm2.7-.2c0 .5 1 .7 1.8.4s1.5-1 1.4-1.4c-.4-.5-1-.7-2-.4s-1.6 1-1.4 1.4z"/><path fill="#ff7000" stroke="#000" stroke-width=".8" d="M619.4 248.8s-2.4.5-2.3.7c.3.3-7 .5-7 .3-.2-.3-1 1.2-1 1.2l1-.7s2 1.8 2.3 1.7-.2.6 0 .8c0 .2.6-.3.6-.3l11.7-.2-5.2-3.5z" stroke-linejoin="round"/><path fill="#ff7000" stroke="#000" stroke-width=".8" d="M623.8 252.5l-9.6.3s-2.4 2.2-2.6 2.7c0 .6 1.6.7 1.6.7l.5 1.8 1.3-.4s8.2 1.2 15.7-.5c3.8-1 4.5-2.7 1.8-3.7s-8.6-.6-8.7-.7z" stroke-linejoin="round"/><path fill="#d5dfff" stroke="#000" stroke-width=".828" d="M590.8 272.4l17.4-.8-3.3-2.8 47-1.8-1.6-3.8-52.6 2 6.3 3-14.2.4.5 1.5h-3.7s4 1.6 4.3 2.3zm19.5-96c-1.4-.7-7.5-1.5-14.3 3l.3 15.5s10-5.5 14.8-4.2c0-5 0-11-.7-14.3z"/><path fill="none" stroke="#000" stroke-width=".8" d="M514.2 223.7l-41 40.7m59.3-40.4l-33.3 43.8m31.8-55.2l-44.4 53.7m-1.3-.7l4.3-5m50-21L522 263.3m-.7 3.2l.4 9M547 248l-18 22.7m15-1.7l7.5-12.2m-4.5-2.4l-9 10m6.2-19.4l-6 7.4m-2-18.4s-18.4 27.3-18 29.5m16.2-33c-.4.3-16 21-16 21m-1 6.5l-2.7 3.4m-3.7 5.2l-4.2 5.6"/><path fill="#8a9396" stroke="#2b2b2b" stroke-width=".8" d="M512.2 161.2s-1.3 4 0 6 9.2 18 9.2 18 5.3-6.8 7.3-7c2 0 1 17.3 1 17.3s-3 3-5 3c-2-.3 4.7 6.7 4.6 12.6s-9 35.6-12.2 36c-3 .7 1.6-5.3 1.4-7s-1-.4-1.8-2.2 1-4.5.7-6.3c-.3-1.8-2-1.4-2-2.7-.3-1.3 1-1.6.8-3 0-1.5-2-1-2-2.4.3-1.2.5-.7.3-3s-.6 1.6-2.5 1.8-3.6 4.7-3.6 4.7-4 5.5-7.8 3c2.3 5 .5 7.2-.4 7.3-1 .3.7 4-1.4 4.3s1.6 8.4-1 9c2.8 1.4.6 3 .6 3s-6.2.5-4.8 8.6c-18.3-6.5-27.3-17.7-27-29 0-11.3 3.6-21.5 12.4-25.3 2.5-9.4 7-19.5 7-19.5s-1-4-.3-6.8c.5-2.7 3-5.4 3-5.4s-.3-6.4-.2-9.6c.3-3.2 1.6-4.7 1.8-6.4s-.5-11 1.3-12.6 5.2-1.5 7-2.5c1.8-1.2 4.2-3.2 6.5-3s4.3 1.8 4.3 1.8 9 0 9.4 3.4c.7 3.4-1.7 4.7-1.7 4.7s1.3 4.8-4 9.3z"/><path fill="#cecfcf" stroke="#2b2b2b" stroke-width=".8" d="M504.4 148.8c.3.5-.4 1.4-1.4 2s-2.2.6-2.5 0c-.3-.4.4-1.3 1.4-2s2-.6 2.3 0z"/><path d="M503 149.7c0 .3-.4.6-.8.6-.3 0-.6-.3-.6-.6 0-.4.3-.6.6-.6.4 0 .7.4.7.8z"/><path fill="none" stroke="#2b2b2b" stroke-width=".4" d="M516 155.6s2.2 9.8-.4 16.5m1-20.6s4.4 5.6 3.8 12.6m-3.4-14c.2 0 3.7 3 3.5 5.2M518 149s2.3 1.5 2.8 3.2"/><path fill="none" stroke="#000" stroke-width=".8" d="M516.8 148s-8.3 13.5-7.2 22"/><path fill="none" stroke="#2b2b2b" stroke-width=".4" d="M517.4 147.5s-11 6.6-13.2 28"/><path fill="none" stroke="#000" stroke-width=".8" d="M516.2 151.5l-4.4 3.3"/><path fill="none" stroke="#2b2b2b" stroke-width=".4" d="M500 177s6.3-25.8 17.2-29.5"/><path fill="#2b2b2b" stroke="#2b2b2b" stroke-width=".8" d="M521.5 185.5s6-7.4 7.3-7 1 17 1 17-4.5 3.3-5.4 3.2c-1 0 5 8 4.8 11l-.3 3s0-1.8-1.6-4.7-.5-6-9.4-13.4c-2-4.5 4.5 2.7 5.8 1.6 1.4-1-2.4-10.5-2.3-10.7z"/><path fill="none" stroke="#2b2b2b" stroke-width=".8" d="M511 143.8s-2.5.7-2.8 1.7c-.3 1-1.8 2-2.6 1.7-.8-.4-2.3-1.6-2.3-1.6"/><path fill="#2b2b2b" stroke="#2b2b2b" stroke-width=".8" d="M497 152.5s-3.8 3.7-2 4c1.8.6 3.7-2.8 3.7-2.8s0 5.8 1.6 5l6.2-4.3h2c.3 0 4.2 3.5 6.8 2.2-1.5 4-3.2 4.3-3.2 4.3s-2.5 3.3-6 2.5c-3.5-.8-4.4-2.2-4.4-2.2s-3 .2-3.8-1c-1-1.5-1.2-2.3-1.2-2.3s-1.7 1.8-2.2 1c-.4-.8 0-5.4 2.6-6.5z" stroke-linejoin="round"/><path fill="none" stroke="#2b2b2b" stroke-width=".8" d="M518 147.3s-7-2-9.2 1.3c-2.4 3.4-1.8 5.3-.6 5.7"/><path d="M519 147c0 1-.5 1.6-1.2 1.6s-1.3-.7-1.3-1.5.6-1.3 1.3-1.3 1.3.7 1.3 1.5z"/><path fill="#2b2b2b" stroke="#2b2b2b" stroke-width=".8" d="M499 164.6s3 4.4 6.2 5.5-2.3 2.5-5.7 0c-2.4-3-1.7-5.5-1.7-5.5s.6-.6 1.2.2zm24 25.4s-7.8-10.8-10-11.4c-2.4-.6 1.6-1 4 1.2 2.5 2.3-.6-3.8-.6-3.8l6.6 14z"/><path fill="#2b2b2b" stroke="#2b2b2b" stroke-width=".8" d="M498.3 253.4c3-.8 16.2 7.5 19 9.6 3 2 9.3.8 9.3.8s-3 1.7-4.6 2c-1.8.6 5.3.6 5.3.6s-17 4.6-34-4.4c-1.5-7 3.7-8.6 5-8.6z" stroke-linejoin="round"/><path fill="#2b2b2b" stroke="#2b2b2b" stroke-width=".8" d="M517.5 192.8s-2.2-.4-3.3-1.7c-1-1-2.7-4.3-4.4-5.6-1.7-1.4-10-6-13-5.7s-4-.3-4.4-.7-1.6 0-1.4 1.7c.2 1.5-2.3 5-1.4 6.6 1 1.6 5.2 8.2 6 8.4 1 .2.4 3.8.4 3.8s4 4 4.8 4c1 .4 2 1 2 2-.2 1-4.3 6-4.3 6s-4.5 2.2-4.5 3.5c0 1.3 1 4 4.6 5 3.5.7 13 0 13.4-.8.5-.8 1.2-5.6 1-6s-2.7-2-4-1.8c-1 .2-2.2 1-2 1.4 0 .2-1.7 1-1.7.2s3.5-4.7 3.8-4.4c.5.3 5.5.8 6.4 3.3 1 2.3 1 4 3.5 4 2.5-.5 6-3 6.4-7.8s-3-8.3-3.7-8.8-3.5-2-3.7-3c-.3-.6-1-3-.5-3.7z"/><path fill="#2b2b2b" stroke="#2b2b2b" stroke-width=".8" d="M471 214.7s8.3-2.2 10.4-2c2.2 0 10.3 3.7 12.7 6 2.6 2.4 7.4 8 10.6 7.4 3.2-.3 4-1 4-1l-1 2.4s-2.7.7-4 .4c-1.3-.3-4-1-6.4-3.6-2.4-2.4-10.2-9-17-8.6-6.5.5-10.3 7-10.3 7s0-3.2.2-4-1.4 1.6-1.4 1.6l2.3-5.3z"/><path fill="#2b2b2b" stroke="#2b2b2b" stroke-width=".8" d="M501.7 221.2s2 .6 5.5.6 5.3-1.5 5.3-1.5l-.2-1.4.6-2s2.4 2.6 2.3 3.2-1 .7-1 .7l-.4-1.4-1 1.2s-5 3.8-7.8 3.3c-2.7-.5-5.3-2.3-4.6-3 .7-.2 1 0 1 0zm-12.2 7s-3 0-4.4.6-1.6 1.5-2.5 1.4c-1 0-1.6-1.3-1.4-1.8.5-.8 2.3-1.7 5.7-1.5 3.4 0 3 1 3 1zm10.5 8.2s0-4.4-1.8-6c-1.7-1.8-3.7-1.8-4.7-1.6-1 .2 3.4 2 4 3.3s1.7 5 1.3 5.8c-.3.8-1-2.4-3.7-3.4s-6-.4-5.3.8 3.7.2 5.2 2.7 2.5 5.2 2.5 5.2l.5-2 1.3-.2v-3.6l.8-.8z"/><path fill="#2b2b2b" stroke="#2b2b2b" stroke-width=".8" d="M498 250.2l-2.8-5.5s-1-3.5-3.2-4.4c-2.3-1-5.4-.8-5.5.3s5 2.7 5.3 3.4c.3.6.2 1.7-.2 1.8-.5 0-2.7-.8-3.8-.6-1.2.3-1.8 1.8-3.5 1.3-1.6-.4-3-5.7-2.4-6.3.4-.5-1.4 1-1.8-.4s.5-5.8 0-6.3c-.8-.6-4-2.5-4-2.8 0-.4.2-21.5 17.8-4-7.4-9-10.4-8-11.8-8-1 0-8 .5-9.6 9.3-1.7 8.7-3.8 3.3-3.8 3.3s-.3 3.7 1.5 4.8c1.8 1.3-1 4.4-1 4.4s-3.2-8-2.7-11.5c-.6 2.7-.6 9.6 3.6 17.2 4.8 5.3 9.4 10 21.6 15.4 6.4-10 6-11 6-11.2z" stroke-linejoin="round"/><path fill="#8a9396" stroke="#2b2b2b" stroke-width=".8" d="M486.4 250.3s3.5.4 4.5 2.3c1 1.8 1.2 4.6 1.2 4.6.6-1.2 1-2.2 2-3s2-1 2-1.7-3.7-4.6-5.6-4.8-5.2 2-5.2 2-.6 1 1 .6z" stroke-linejoin="round"/><g fill="none" stroke-width=".8" stroke-linecap="round"><path stroke="#8a9396" d="M494.5 259.6s9.2 4.2 24.4 4.5"/><path stroke="#2b2b2b" d="M525.3 216.8s-.8 7.7-6.7 23"/><path stroke="#2b2b2b" d="M524 221.5s-1.7 5.6-6.6 9.7" stroke-linecap="butt"/></g></svg>