<svg xmlns="http://www.w3.org/2000/svg" viewBox="0 0 640 480"><path fill-rule="evenodd" fill="#be0027" d="M0 0h640v480H0z"/><path fill-rule="evenodd" fill="#3b5aa3" d="M25.6 27.343h589.54v428.37H25.6z"/><path d="M314.345 413.235c2.423 1.33 6.257 1.26 8.414.105 137.785-73.3 137.865-274.325.2-346.592-2.56-1.348-6.278-1.275-8.82.104-134.27 73.46-134.63 272.206.2 346.393z" fill-rule="evenodd" fill="#cbe0e5"/><path d="M314.345 416.86c2.142 1.748 6.462 1.58 8.414.106 101.54-76.02 102.13-123.41 97.63-123.407l-200.964.1c-3.073.003 1.77 48.107 94.914 123.2z" fill-rule="evenodd" fill="#add2d9"/><path d="M235.345 331.223c8.713-2.267 19.238-2.866 27.813 1.715 7.618 3.98 12.032 3.942 20.24 4.05 8.59.117 15.344 6.43 24.633 6.676 17.107.448 24.31 8.93 11.017 8.946-6.286.01-19.76-4.19-26.262-3.287-13.587 1.402-22.21 4.41-34.994 18.632l14.777 10.125c12.782-5.21 14.924-11.07 22.002-11.303 7.995-.257 10.712-5.21 19.96-5.222 10.504 1.91 24.733-1.304 33.07-3.17 14.782-3.44 7.75-13.77-1.21-17.516-7.247-3.088-20.81-.117-29.233-3.177-6.375-2.475-1.13-6.454 2.293-7.304 3.46-.638 7.17.494 11.472 1.186 7.68.664 17.33-.074 24.073-1.13 13.944-2.16 13.356-6.25 20.09-6.36 4.91-.235 8.647-1.703 11.99-4.106 3.932-2.63 8.02-8.024 12.785-7.82l12.756.54-17.966 40.404-50.756 51.662-26.286 9.97-57.78-37.613-29.136-44.69 4.654-1.21z" fill-rule="evenodd" fill="#fdf9a1"/><path d="M301.747 291.937l116.016-.54 2.04-10.28s-4.14-.617-7.48-.813c-4.164-.255-11.304 4.357-16.087 4.33-3.383-.025-7.26-6.08-10.647-5.954-5.917-.055-6.44 5.267-12.015 5.413-4.497-.154-6.413-3.588-12.236-3.247-6.107.345-5.65 3.706-13.367 3.515-10.19-.25-14.28-9.093-22.433-9.192-13.605-.162-14.05 12.985-23.793 16.77z" fill-rule="evenodd" fill="#179a3b"/><path d="M301.747 294.416l119.414-.608v-3.244l-122.13.608 2.72 3.244z" fill-rule="evenodd" fill="#fdf9a1"/><path d="M350.818 330.303c1.84 7.053 3.78 9.45 11.196 11.25 7.326 1.8 18.502-5.342 11.557-12.237-6.61-6.415-13.56-8.044-19.484-13.82-12.47-12.32-31.255-42.503-31.273-63.79-.014-18.278-1.777-55.796-1.79-91.33.01-2.303-6.943 6.455-6.932 8.795.32 31.35.27 55.046 1.545 86.658 1.975 23.108 13.003 38.668 22.685 52.712 4.337 6.73 10.607 13.986 12.5 21.766z" fill-rule="evenodd" fill="#a79270"/><text font-family="helvetica" font-size="25.614" stroke="#fff" y="269.487" x="465.114" stroke-width="1.638" fill="#bd0728" transform="matrix(1.33 0 0 1.33 -363.07 -108.06)"><tspan>G</tspan></text><text font-family="helvetica" font-size="25.614" stroke="#fff" y="269.607" x="488.065" stroke-width="1.638" fill="#bd0728" transform="matrix(1.33 0 0 1.33 -363.07 -108.06)"><tspan>U</tspan></text><text font-family="helvetica" font-size="25.614" stroke="#fff" y="269.59" x="516.053" stroke-width="1.638" fill="#bd0728" transform="matrix(1.33 0 0 1.33 -363.07 -108.06)"><tspan>A</tspan></text><text font-family="helvetica" font-size="25.614" stroke="#fff" y="269.542" x="539.532" stroke-width="1.638" fill="#bd0728" transform="matrix(1.33 0 0 1.33 -363.07 -108.06)"><tspan>M</tspan></text><path d="M259.623 160.893c-1.54 2.972 3.606-.868 4.772-1.282 6.67-2.37 9.283-10.795 20.773-5.722 9.045 3.907 21.187 1.636 14.84 5.593-7.842 4.694-23.462 9.896-23.77 33.177 1.306 2.277 1.4 1.918 2.49-.523 2.374-5.426 13.695-20.162 19.297-18.936 2.255.584 8.877-6.66 9.032-4.592.6 5.814-8.993 17.575-8.89 33.318.023 3.646 4.508 4.827 6.67 2.262 2.148-2.262 3.358-4.6 7.12-7.572 6.653-5.46 4.817-28.61 5.638-27.522 4.71 6.1 5.432 23.295 12.447 30.348 5.83 5.86 10.542 3.055 9.27-5.086-2.532-16.32-10.246-11.653-13.917-28.532-.746-3.288-.93-6.258 3.423-4.883 5.32 1.542 8.444 4.013 12.414 10.016 3.968 5.726 11.41 11.213 15.71 14.582 7.504 5.766 10.138.732 6.558-6.668-3.963-8.302-12.898-15.186-21.023-18.197-6.156-2.127-8.35-2.33-13.774-3.37-1.508-.32-3.065-3.41-.385-5.115 5.744-3.51 12.617-7.477 19.585-7.677 6.71-.17 12.024 5.21 16.73 6.555 9.382 2.46 9.334-3.495 5.198-7.912-3.393-3.73-10.58-9.984-17.29-9.154-13.535 1.66-12.68 1.28-20.984 6.79-3.047 1.794-6.43 3.775-5.167 1.6 3.037-5.467.206-4.528 4.9-10.09 3.65-4.074 6.33-7.007 9.947-8.024 3.437-.827 7.976-4.477 9.38-6.33 3.372-4.663.465-7.325-4.745-5.763-4.52 1.244-6.953 4.254-10.06 5.086-7.29 2.296-13.175 18.977-14.073 21.34-1.163 2.822-2.448 1.423-2.21-.967 1.052-11.778 2.047-31.498-2.11-39.616-6.263-11.97-5.683-6.387-8.087-.707-3.62 9.024-2.36 17.435-.082 26.28.997 4.414 4.695 9.437 5.358 12.902.477 2.72-1.58-.85-2.777-2.48-3.93-6.017-6.804-10.086-13.206-13.36-4.372-2.77-16.154-3.143-20.256-1.88-1.776.546 1.97 3.08 3.556 4.34 4.29 3.412 12.425 4.475 17.9 7.84 4.7 2.89 8.277 4.75 9.835 8.742.65 2.966 1.61 7.368-.343 7.26-5.128-.293-13.096-4.73-29.457-2.906-8.355 1.106-15.61 8.253-20.233 16.843z" fill-rule="evenodd" fill="#239e46"/><path fill-rule="evenodd" d="M295.28 310.558h4.747v7.912h-4.747z"/><path d="M271.712 257.85c18.825 26.066 49 41.263 49.603 53.1-19.064-.075-39.73.01-58.794-.064 13.51-16.24 21.74-27.205 9.195-53.037z" fill-rule="evenodd" fill="#fdf9ff"/><path d="M254.595 311.542c25.576 5.702 56.11 8.845 75.612-.798.16 5.7-6.34 13.907-11.67 13.907H269.46c5.7-.814 8.95-2.552 18.226-3.034l-26.055.32c-2.875.107-7.992-7.622-7.033-10.392z" fill-rule="evenodd" fill="#a68861"/><path d="M312.597 425.057c2.6 1.425 6.71 1.35 9.023.114 147.763-78.65 147.843-294.325.216-371.88-2.744-1.444-6.73-1.365-9.455.11-143.982 78.82-144.37 292.06.22 371.66zm.734-17.755c2.275 1.257 5.86 1.192 7.88.098 123.687-72.793 125.2-265.096.19-334.03-2.394-1.757-5.874-1.207-8.253.1-118.46 70.053-125.066 254.428.187 333.83z" fill-rule="evenodd" fill="#be0027"/><text font-size="25.614" y="269.487" x="465.114" font-family="helvetica" fill="#bd0728" transform="matrix(1.33 0 0 1.33 -363.07 -108.06)"><tspan>G</tspan></text><text font-size="25.614" y="269.607" x="488.065" font-family="helvetica" fill="#bd0728" transform="matrix(1.33 0 0 1.33 -363.07 -108.06)"><tspan>U</tspan></text><text font-size="25.614" y="269.59" x="516.053" font-family="helvetica" fill="#bd0728" transform="matrix(1.33 0 0 1.33 -363.07 -108.06)"><tspan>A</tspan></text><text font-size="25.614" y="269.542" x="539.532" font-family="helvetica" fill="#bd0728" transform="matrix(1.33 0 0 1.33 -363.07 -108.06)"><tspan>M</tspan></text></svg>