<svg xmlns="http://www.w3.org/2000/svg" xmlns:xlink="http://www.w3.org/1999/xlink" viewBox="0 0 640 480" version="1"><path fill="#171796" d="M0 0h640v480H0z"/><path fill="#fff" d="M0 0h640v320H0z"/><path fill="red" d="M0 0h640v160H0z"/><path d="M320.03 364.15c51.322 0 93.31-41.99 93.31-93.31V159.964H226.72V270.84c0 51.322 41.99 93.31 93.308 93.31z" fill="red"/><path d="M320.03 362.654c50.343 0 91.53-41.19 91.53-91.53V161.76H228.5v109.365c0 50.342 41.188 91.53 91.53 91.53z" fill="#fff"/><g fill="red"><path d="M267.133 165.2H231.91v38.7h35.223zm0 77.4h35.225v-38.7h-35.225zm-35.223 28.31c0 3.513.217 6.98.622 10.39h34.6v-38.7H231.91v28.31zm105.675-28.31h-35.227v38.7h35.227zm0 77.398h35.224V281.3H337.58zm35.225 21.17A89.19 89.19 0 0 0 392.92 320h-20.11v21.168zm-105.674-21.17h35.224V281.3h-35.224zm-20.144 0a89.168 89.168 0 0 0 20.144 21.194v-21.194h-20.144zm79.114 38.702c3.898-.274 7.73-.8 11.476-1.567v-37.135h-35.224v37.14a87.06 87.06 0 0 0 11.443 1.558c4.106.254 8.207.24 12.307 0z"/><path d="M407.375 281.3c.407-3.422.625-6.9.625-10.426v-28.272h-35.193v38.7h34.568zm-69.79-38.7h35.224v-38.7H337.58zm0-77.4H302.36v38.7h35.225zM408 203.9v-38.7h-35.19v38.7z"/></g><path d="M409.972 158.83l21.84-49.51-16.64-26.87-27.567 10.207-19.355-22.125-25.504 14.616-22.742-18.626-22.74 18.626-25.505-14.616-19.36 22.123-27.57-10.206-16.645 26.872L230 158.842c27.485-12.44 57.96-19.37 90.005-19.37 32.03 0 62.49 6.93 89.97 19.36z" fill="#fff"/><path d="M253.008 94.842l-.04.047-27.338-10.127-15.3 24.7 5.86 13.325 14.847 33.7a219.67 219.67 0 0 1 34.582-11.96L253.01 94.84z" fill="#0093dd"/><path d="M251.435 119.268a13.258 13.258 0 0 1 1.533 6.2c0 7.36-6.002 13.363-13.362 13.363-6.486 0-11.917-4.66-13.116-10.804 2.308 4.08 6.69 6.844 11.694 6.844 7.395 0 13.428-6.03 13.428-13.43 0-.74-.06-1.464-.177-2.173z" fill="#fff" stroke="#000" stroke-width=".28"/><path d="M227.59 113.915l.93-4.794-3.677-3.212-.17-.15.213-.072 4.618-1.59.945-4.794.04-.22.17.146 3.687 3.207 4.622-1.58.215-.072-.046.22-.933 4.797 3.68 3.216.17.147-.215.07-4.618 1.594-.947 4.793-.045.22-.168-.148-3.687-3.206-4.623 1.578-.216.073z"/><path d="M233.64 107.59l3.447 3.007 4.315-1.485zm.027-.15l7.766 1.517-3.436-3.004zm-8.337-1.634l7.764 1.52-3.448-3.006zm7.735 1.674l-7.765-1.52 3.436 3.002zm.435-.293l5.198-5.964-4.32 1.474zm-5.584 6.405l5.2-5.964-4.328 1.484zm5.318-5.862l-5.2 5.964 4.32-1.474zm5.583-6.405l-5.2 5.964 4.328-1.487zm-5.62 5.88l-2.565-7.482-.884 4.48zm2.757 8.04l-2.566-7.484-.88 4.49zm-2.42-7.535l2.567 7.484.888-4.478zm-2.754-8.04l2.565 7.487.88-4.49z" fill="#f7db17"/><path d="M297.5 87.406l-.047.038-25.29-14.493-19.155 21.895 12.61 49.686a219.78 219.78 0 0 1 36.117-6.033l-4.237-51.09z" fill="#171796"/><path d="M262.49 132.196a232.25 232.25 0 0 1 38.195-6.38l-1.07-12.913a245.548 245.548 0 0 0-40.315 6.732l3.187 12.56zm-6.34-24.97a257.957 257.957 0 0 1 42.405-7.083l-1.052-12.678a270.72 270.72 0 0 0-44.483 7.43l3.13 12.33z" fill="red"/><g transform="translate(-160) scale(.00237)"><path d="M212105 36890l-23 13-9517-7794-9497 7778 1788 21560c2543-210 5113-322 7709-322 2608 0 5190 113 7744 325l1795-21560z" fill="#0093dd"/><g id="a"><path d="M202545 46585c-18-2-44 10-69 45-186 250-359 469-545 720-195 61-242 180-167 348-261-26-291 193-302 432-250-379-522-482-814-307-11-230-187-338-439-392-180-10-319-65-436-145-60-42-110-64-170-106-126-88-226-5-172 74 267 434 535 868 802 1302-14 80 6 151 88 204 47 133 93 265 140 397-11 38-21 75-32 113-221-105-443-118-664-133-170-8-287-50-361-137-54-63-91-26-92 82-3 534 162 1014 599 1492-231 4-462 11-694 21-79 6-95 39-73 104 126 304 339 579 822 766-208 112-327 285-357 520-9 224-75 382-212 455-60 32-81 65-24 106 253 185 565 193 895 112-157 270-226 553-198 850 208 56 412 15 614-52-29 61-44 175-52 309-7 115-41 229-104 343-32 33-65 84 4 102 336 91 648 52 915-47 0 243 2 487 76 727 18 58 70 102 125 26 155-214 322-396 527-517 31 90 75 168 156 215 96 55 147 170 153 343 0 30-2 60 35 90 149 7 514-380 589-597 206 121 284 246 439 461 55 76 99 29 128-25 62-243 67-481 66-724 267 99 579 138 915 47 69-19 36-70 4-102-62-114-105-250-113-365-9-133-14-226-43-287 202 68 405 108 614 52 29-297-53-579-211-850 330 80 655 73 908-112 57-41 35-74-24-106-136-73-203-231-212-455-30-235-149-409-357-520 483-187 696-463 822-766 22-66 6-99-73-104-231-10-480-24-711-27 437-478 606-961 604-1495-1-108-38-146-92-82-74 87-179 137-348 146-222 15-435 24-656 128-11-38-21-75-32-113 46-132 106-260 153-393 82-53 102-123 88-204 267-434 513-868 781-1302 54-79-46-162-171-74-60 42-110 64-170 106-117 80-257 134-437 145-251 54-417 167-428 397-293-175-564-73-814 307-11-239-41-457-302-432 75-168 17-291-178-352-186-250-458-470-644-720-31-35-51-47-69-45z"/><g fill="#f7db17"><path d="M205075 47978c-51-26-124 17-162 95s-33 170 19 196c40 20 84-6 119-56l22-36c2-3 4-6 5-9 38-78 49-163-2-188zm-5008 0c52-26 124 17 162 95s39 165-13 191-103-24-141-102-60-158-9-184zm4539 905c-32 0-59 27-59 59s26 59 59 59 59-26 59-59c0-32-26-59-59-59zm-4032 0c-32 0-59 26-59 59 0 32 26 59 59 59s59-26 59-59-26-59-59-59zm4294-304c-754-91-1506-133-2260-133s-1509 41-2269 115c-26 8-21 90 14 86 756-73 1507-113 2256-113 743 0 1485 40 2228 129 39 4 54-80 32-84z"/><path d="M200319 48495c768-75 1530-117 2289-116 754 0 1507 42 2261 133l111-184c-32 10-62 9-90-5-76-38-92-161-36-274 56-114 164-175 240-138 39 19 62 62 68 114l446-739c-204 130-328 214-581 252-281 41-409 139-368 307 38 156-57 133-201 54-314-171-541 71-652 353-73 186-159 181-168-13-4-70 0-131-7-200-21-223-89-286-216-224-161 78-175 25-137-58 28-60 86-128 66-221-9-67-66-92-151-98-182-244-467-483-649-727-182 244-374 483-556 727-86 5-142 30-152 98-20 93 52 157 80 217 38 82 23 135-137 57-127-61-186-3-207 220-7 69-10 139-13 209-9 194-95 199-168 13-111-282-352-524-667-353-145 79-203 102-182-54 23-172-107-266-388-307-253-37-377-122-581-252l419 682c12-25 29-45 53-57 76-38 184 24 240 138 56 113 40 237-36 274-10 5-21 8-32 10l100 163zm4389 911c-7 3-7 4-24 11-46 19-80 66-134 124-57 60-128 125-211 188-12 10-25 19-44-6s-7-35 6-44c80-62 149-124 204-182 30-32 56-63 77-92-95-11-190-21-284-30-79 24-157 55-222 95-59 35-107 77-137 125-8 14-16 27-44 11-27-16-19-30-11-44 35-58 91-107 158-147 33-20 69-38 106-54-107-9-214-18-321-25-22 13-42 29-61 47-20 19-39 42-56 67-9 13-18 26-44 8s-18-31-8-44c19-29 41-54 64-77l9-9c-80-5-161-10-241-14-2 2-5 5-8 7-21 18-40 38-55 59s-28 43-38 67c-6 15-12 29-41 18-29-12-23-26-17-41 12-29 27-55 45-81 8-11 18-22 27-33-115-5-230-9-344-12-4 5-9 8-14 11-25 15-47 32-66 51s-35 40-48 63c-8 14-16 28-43 12-28-16-20-29-12-43 16-28 35-54 59-77 7-7 14-13 21-19-122-2-244-4-365-4-120 0-240 1-360 3 8 7 15 13 22 20 23 23 42 49 59 77 8 14 16 27-12 43s-35 2-44-12c-13-23-29-44-48-63s-41-36-66-51c-6-3-12-7-15-12-115 2-230 6-345 11 11 11 20 23 29 35 19 25 33 52 45 81 6 15 12 29-17 41s-35-3-41-18c-9-24-22-46-38-67-15-21-34-41-55-59-4-3-7-6-10-10-81 4-162 8-243 13 4 4 9 8 13 12 24 23 45 48 64 77 9 13 18 26-8 44s-35 5-44-8c-18-26-36-48-56-67s-41-35-64-49c-1-1-3-2-5-3-110 7-220 14-330 23 43 18 85 38 122 61 67 40 124 89 158 147 8 14 16 27-11 44-27 16-35 3-44-11-29-48-78-90-137-125-72-44-159-77-246-102h-2c-90 7-179 15-268 24 22 33 51 68 86 106 55 58 124 120 204 182 13 9 25 19 6 44s-32 15-44 6c-83-64-155-128-211-188-37-38-99-111-135-140-196-90-354-127-575-147-153-14-318-9-458-79 36 85 75 164 126 229 53 68 120 121 209 147 8 2 21 16 22 25 28 157 84 286 169 386 52 60 114 110 188 149-75-81-132-166-172-251-67-142-90-286-77-420 1-16 3-32 34-29 32 3 30 19 29 35-11 123 9 256 72 387 56 118 159 237 291 346 24 19 0 63-29 55-154-44-290-123-383-231-89-104-149-237-180-397-94-32-165-90-222-164-47-60-85-131-118-205 28 428 182 801 456 1137 61 75 165 182 255 216 92 35 95 100-20 101-34 1-69 1-105 1 84 31 164 66 233 105 127 73 217 162 224 273 1 16 2 32-29 34-32 2-33-14-34-29-6-86-82-160-192-223-113-65-259-117-402-160-154 0-312-1-459 3 39 28 80 57 131 84 82 44 188 86 343 122 89 21 166 52 233 91 71 42 130 93 177 150 10 12 20 25-5 45s-34 8-45-5c-42-52-95-98-159-135-61-36-133-64-216-84-161-38-272-81-358-128-75-40-131-82-184-123 180 393 450 573 835 689 23 7 43 13 61 19 3 1 6 1 9 2 86 21 175 40 266 55 92 15 166 28 261 37 16 1 32 3 29 34-3 32-19 30-34 29-99-9-174-22-266-38-58-10-115-21-171-33-26 6-64 9-107 12-232 14-420 225-435 494 0 5 0 11-1 16 88-80 179-157 273-212 117-68 239-103 364-69 15 4 31 8 22 39-8 31-23 27-39 22-106-28-212 3-316 63-108 63-213 158-315 253-24 147-82 285-205 377 61 34 104 65 163 45 86-39 172-78 261-108 91-31 184-52 282-57 16-1 32-1 33 31s-14 32-31 33c-91 4-179 24-264 53-75 26-149 58-222 91 221 47 460-1 667-79 60-22 105-42 133-41 51-30 112-53 172-79 66-28 132-51 182-57 16-2 32-4 35 28 4 32-12 33-28 35-112 13-127 21-222 79 0 21-66 57-126 96-36 24-70 52-87 67-95 86-144 181-188 287-29 70-52 145-68 224 55-108 121-211 201-303 94-108 208-201 345-265 14-7 29-13 42 15 13 29-1 35-15 42-129 60-236 147-324 250-90 103-161 222-219 345-31 64-8 1-42 86 110-122 212-224 323-307 132-100 283-157 418-133 15 3 31 6 26 37s-21 28-37 26c-116-21-250 32-369 121-121 92-244 223-366 361 184 26 366-26 542-85 91-30 183-135 239-152 19-24 38-46 57-67 33-37 67-71 102-100 12-10 24-20 45 4s8 34-4 45c-33 28-65 60-96 94-32 35-62 73-92 113-6 8-13 17-24 16-60 70-151 162-172 240-57 210-25 370-122 576 71-38 128-81 175-134 53-60 94-135 128-230 37-104 95-195 167-270 75-77 165-136 261-172 15-5 30-11 41 19s-4 35-19 41c-87 32-169 86-238 157-66 68-119 151-153 247-37 102-81 183-141 250-44 50-95 91-156 127 52-3 78-10 121-7 79-6 211-66 279-119 66-51 116-120 154-206 6-15 13-29 42-16s23 27 16 42c-42 96-99 174-173 231-56 43-121 75-196 93 161-5 311-42 467-100 65-24 87-168 127-208 32-58 66-112 105-158 47-56 101-101 164-127 15-6 29-12 41 18 12 29-3 35-17 41-52 21-98 60-139 108-36 42-68 93-98 147 10 73-51 228-53 305-7 205-2 409 53 612 53-71 107-134 162-192 0-5 0-10 1-15 18-106 33-219 40-332 7-112 7-223-6-329-2-16-4-32 27-35 32-4 34 12 35 28 14 111 14 226 7 340-6 90-16 180-30 269 54-51 53-51 77-103 37-80 59-159 67-237 9-80 5-157-13-230-4-15-7-31 24-38s35 8 38 24c19 80 25 165 14 252-8 65-24 132-49 199 56-42 114-82 178-122-4-75-5-153-3-227 2-68 7-134 18-190 4-20 7-40 47-33s37 27 33 48c-9 50-14 111-16 177-2 78 0 162 4 243 5 82 49 185 125 230 103 62 158 163 186 274 16-145 17-280 3-400-17-143-55-267-114-368-8-14-16-27 12-44 27-16 35-2 43 12 63 110 104 241 122 393 17 146 13 310-13 488 102-82 381-258 352-594-7-27-16-52-28-75-7-14-14-28 14-42s35 0 42 14c17 33 30 69 39 110 5 24 8 49 11 76 13-7 45-43 51-39 24 16 58 38 80 54-21-60-35-120-42-178-10-87-5-172 14-252 4-15 7-31 38-24s27 23 24 38c-18 73-22 151-13 230 9 77 31 157 67 237 4 8 8 16 5 25 24 21 47 42 70 65-13-84-22-170-28-255-8-115-7-230 7-341 2-16 4-32 35-28s29 20 27 35c-13 106-13 217-6 329 7 113 22 225 40 332 1 2 1 5 1 7 54 59 95 120 152 196 55-203 73-407 66-612-2-76-69-227-65-302-30-55-63-107-100-151-41-49-87-87-139-108-15-6-29-12-18-41 12-29 27-24 41-18 62 26 117 71 164 127 38 45 72 98 103 154 57 7 78 179 143 212 154 57 298 94 453 100-75-19-140-50-195-93-74-57-131-135-173-231-6-15-13-29 16-42s35 2 42 16c38 86 88 156 154 206 85 66 289 124 400 127-61-37-113-78-157-128-59-67-104-148-141-250-34-95-87-179-153-247-68-71-150-124-238-157-15-6-29-11-19-41 11-29 26-24 41-19 96 36 186 94 261 172 72 74 130 166 167 270 34 95 75 169 128 230 47 54 105 98 177 135-98-207-66-367-122-577-35-129-232-277-193-320 45-51 133 88 248 127 175 59 357 111 540 85-122-138-244-269-366-361-119-90-237-140-352-120-16 3-31 6-37-26-5-31 10-34 26-37 135-24 269 32 401 132 111 84 201 175 311 298-18-47 0-14-30-77-59-123-130-241-220-345-89-102-196-189-324-250-14-7-28-13-15-42 13-28 28-22 42-15 137 65 251 157 345 265 81 93 147 198 203 307-15-81-39-157-68-227-44-106-93-201-188-287-62-56-209-140-208-179-29-15-33-11-63-24-61-26-121-46-164-52-16-2-32-4-28-35 4-32 19-30 35-28 50 6 115 28 182 56 33 14 66 43 98 60 53 4 139 47 208 74 206 78 446 126 666 79-73-33-147-65-223-91-85-29-172-49-264-53-16-1-32-1-31-33s17-31 33-31c98 4 191 26 282 57 89 30 175 69 261 108 59 27 101-7 163-45-123-92-181-230-205-376l-2-2c-102-95-207-190-315-253-104-60-210-91-316-63-15 4-31 8-39-22-8-31 7-35 22-39 125-33 247 1 364 69 94 55 186 132 274 213 0-6-1-11-1-17-15-270-203-480-435-494-78-5-189 21-186-32 4-59 97-44 234-86 385-116 655-296 836-690-54 41-110 83-186 124-86 47-198 91-358 128-82 19-154 48-216 84-64 38-117 84-159 135-10 12-20 25-45 5s-14-32-5-45c47-57 106-108 177-150 67-39 145-70 233-91 155-36 261-78 343-122 51-27 92-55 131-84-148-4-305-3-459-3-143 44-289 96-402 160-110 63-186 136-192 223-1 16-2 32-34 29-32-2-31-18-29-34 8-111 97-200 224-273 69-39 149-74 233-105-35 0-70 0-104-1-116-2-112-66-20-101 90-34 190-141 251-216 271-334 412-714 456-1130-33 72-69 140-115 198-57 73-128 131-222 164-31 160-91 293-180 397-92 108-216 185-369 230-29 8-52-35-29-55 132-109 221-226 278-344 62-131 83-264 72-387-1-16-3-32 29-35 31-3 33 13 34 29 12 134-10 278-78 420-40 85-97 170-172 251 73-39 136-89 187-149 85-100 141-229 170-386 1-8 14-22 22-25 89-27 155-79 209-147 51-65 90-143 126-228-140 69-304 64-457 78-213 19-369 68-554 152z"/><path d="M204649 49231c-680-88-1359-113-2041-114-684 0-1369 40-2058 112-20 6-15 33-14 46 2 28 37 35 121 27 643-60 1285-93 1932-93 674 0 1351 21 2038 102 33 9 77-85 22-81z"/><path d="M200570 49160c683-71 1362-110 2038-110 675 0 1349 40 2025 127l31-127c-17 9-37 15-58 15-67 0-123-55-123-123s55-123 123-123c51 0 94 31 113 75l60-170c-724-84-1446-122-2171-122-729 0-1459 38-2193 107l58 164c22-32 59-54 101-54 68 0 123 55 123 123s-55 123-123 123c-12 0-25-2-36-6l33 94-2 7zm3067-416c-68 0-123 55-123 123s55 123 123 123 123-55 123-123-55-123-123-123zm0 64c-33 0-59 27-59 59s26 59 59 59c32 0 59-27 59-59s-26-59-59-59zm-1082-91c-67 0-123 55-123 123s55 123 123 123 123-55 123-123-55-123-123-123zm0 64c-32 0-59 26-59 59s26 59 59 59 59-26 59-59c0-32-26-59-59-59zm-1064-40c-68 0-123 55-123 123s55 123 123 123c67 0 123-55 123-123s-55-123-123-123zm0 64c-33 0-59 26-59 59s26 59 59 59c32 0 59-26 59-59 0-32-26-59-59-59z" fill-rule="evenodd"/></g><path d="M202601 47974c-14-68-49-129-100-175-51-47-116-78-187-88-33-4-39-58-7-68 60-20 114-67 157-133 45-69 79-157 95-256 5-34 64-35 69-1 15 84 51 153 97 208 55 66 125 112 193 138 31 12 25 63-8 68-59 9-105 42-141 87-50 62-81 145-100 221-8 33-62 31-69-2zm33-118c20-52 47-103 81-146 28-34 60-64 99-84-51-30-100-70-143-120-28-34-53-73-73-116-19 59-45 112-75 158-31 47-67 86-108 116 50 19 95 47 134 82 34 31 63 68 85 110zm799 5115l-515 206c-17 7-35 14-48-21-14-34 4-41 21-48l515-206c17-7 35-14 48 21 14 34-4 41-21 48zm59-326l-604 328c-16 9-33 18-51-15s-1-42 15-51l604-328c16-9 33-18 51 15s1 42-15 51zm-1826-65l604 328c16 9 33 18 15 51s-34 24-51 15l-604-328c-16-9-33-18-15-51s34-24 51-15zm51 322l515 206c18 7 35 14 21 48-14 35-31 28-49 21l-515-206c-17-7-34-14-21-48 14-35 31-28 48-21zm224 434c137 33 261 48 358 31 88-16 155-60 191-146v-493c-107-1-212-15-303-41-109-31-170-98-201-178-41-107-27-235-4-329 5-18 9-36 45-27s32 27 27 45c-20 82-33 194 1 284 23 60 69 110 152 133 91 25 198 38 307 38 107 0 214-13 304-40 82-24 148-69 192-123s65-117 57-176c-5-36-24-62-49-80-34-24-82-35-128-37-47-2-94 7-142 16-25 5-50 9-77 13-19 2-37 5-42-32s14-40 32-42c23-3 48-8 73-12 52-10 105-20 159-18 60 2 121 18 168 51 42 29 72 72 80 131 11 80-16 163-73 233-53 65-131 119-229 147-83 24-178 38-274 42v483c3 5 3 11 2 16 37 82 102 125 188 141 97 18 221 2 358-31 18-5 36-9 45 27 8 37-9 41-28 45-146 35-279 51-388 32-92-17-165-58-215-132-49 74-124 115-215 132-109 20-242 4-388-32-18-4-37-8-28-45 8-36 27-32 45-27zm356 210l402-9c19 0 38-1 38 37 1 38-18 38-37 38l-402 9c-19 0-37 1-38-37s18-38 37-38zm593-3082c151-125 293-227 423-297 133-72 254-111 359-106 19 1 37 1 36 39-1 37-20 37-39 36-92-4-200 32-322 97-125 67-263 166-410 289-14 12-29 24-53-5s-9-41 5-53zm-605 56c-141-130-298-240-445-314-139-71-268-108-363-100-19 2-37 4-40-34-4-37 15-39 34-40 110-10 252 31 404 107 152 77 315 191 461 325 14 13 28 25 2 53-25 27-39 15-53 2zm-213 1004c37-83 83-155 136-219 53-63 112-119 174-170 14-12 29-24 52 5 24 29 9 41-5 53-59 48-114 101-164 160-49 59-91 125-125 201-8 17-15 34-49 19s-27-32-19-49zm371-1734c49 66 88 139 114 223 26 82 40 175 39 279 5 80 6 165-7 249-13 86-42 170-97 246-43 60-101 97-165 113-53 13-109 10-164-7 29 100 51 208 6 308-8 18-33 27-51 18-43-22-86-43-128-62s-84-36-127-51l-1-1c-95-37-173-73-236-112-65-39-115-80-150-124l1 2c-44-49-72-106-88-170-14-55-20-114-22-174-72-39-138-78-194-116-64-43-118-87-161-131-13-14-26-27 1-53s40-12 53 1c39 40 89 80 150 121 60 40 128 81 204 121 124 13 247 51 370 109 106 50 211 115 317 192 13 7 19 16 27 20 8 6 16 13 25 19 51 22 104 28 152 16 47-11 90-39 122-84 48-66 72-139 84-214 12-77 11-157 6-234v-2c1-97-12-183-35-258-24-76-58-142-102-201-11-15-22-30 7-52s41-7 52 7zm-375 1047c-104-77-207-141-311-190-105-49-210-83-314-98 2 48 8 93 18 135 13 52 35 99 71 138l1 1c30 37 73 72 130 107 60 36 134 71 225 106l-1-1c45 16 89 34 133 54 31 14 61 28 93 44 19-83-10-179-37-267-2-8-5-15-9-29zm776-1003c-44 59-79 125-102 201-24 76-36 161-35 258v2c-5 77-6 158 6 234 12 75 37 148 84 214 32 45 75 72 122 84 48 12 101 6 152-16 8-6 17-13 25-19 6-4 13-12 27-20 105-77 211-143 317-192 123-58 246-95 370-109 75-40 144-80 204-121s111-81 149-121c13-13 26-27 53-1s14 39 0 53c-43 44-97 88-161 131-57 38-122 77-194 116-2 61-8 119-22 174-16 63-44 121-88 170l1-2c-35 44-85 85-150 124-63 38-141 75-237 112l-1 1c-43 15-85 32-127 51-43 19-85 40-128 62-18 9-43 0-51-18-45-100-23-208 6-308-55 18-111 20-164 7-64-15-122-53-165-113-55-76-84-160-97-246-13-85-12-169-7-249-1-104 13-196 39-279 26-84 65-158 114-223 11-15 22-30 52-7 30 22 19 37 7 52zm940 715c-105 15-209 49-314 98-104 49-207 113-311 190-4 13-6 21-8 29-27 88-56 184-37 267 31-15 62-30 93-44 44-20 87-38 133-54l-1 1c91-35 165-70 225-106 58-34 100-70 131-107l1-1c35-39 57-86 71-138 11-42 16-87 19-135z"/><path d="M203459 50602c-119 0-216 97-216 216s97 217 216 217 216-97 216-217c0-119-97-216-216-216zm0 69c-81 0-147 66-147 147s66 147 147 147 147-66 147-147-66-147-147-147zm0 60c-48 0-87 39-87 87s39 87 87 87 87-39 87-87-39-87-87-87zm-1697-124c119 0 217 97 217 216s-97 217-217 217c-119 0-216-97-216-217 0-119 97-216 216-216zm0 69c81 0 147 66 147 147s-66 147-147 147-147-66-147-147 66-147 147-147zm0 60c48 0 87 39 87 87s-39 87-87 87-87-39-87-87 39-87 87-87z" fill-rule="evenodd"/></g><use height="100%" width="100%" xlink:href="#a" transform="rotate(-2.173 -55532.79 156275.842)"/><use height="100%" width="100%" xlink:href="#a" transform="rotate(2.18 459865.852 156275.76)"/></g><path d="M387.186 94.883l-.06.02-19.197-21.94-25.24 14.466-4.26 51.094a219.715 219.715 0 0 1 36.12 6.045l12.63-49.687z" fill="#171796"/><path d="M347.668 98.03c.877-.213 1.742-.258 2.58.256.37.152.646.346.816.595.39-.3.785-.58 1.195-.82.572-.427 1.16-.804 1.792-1.015.906-.46 1.81-.732 2.714-.815.957-.165 1.92-.174 2.876-.117.8.048 1.572.268 2.31.693.667.33 1.333.666 2 .997.707.394 1.414.75 2.12 1.048.896.355 1.903.474 2.977.514.526.02 1.043.02 1.55-.116.41-.11.666.15.213.43-3.318 2.035-5.918.224-8.136-.587.813.55 1.528 1.12 2.133 1.7.846.813 1.79 1.637 3.457 2.398 1.012.46 2.114.822 3.53.834.478.006.995-.013 1.554-.105.284-.045.405-.02.41.128.004.1-.022.3-.19.41-.856.574-1.66.726-2.56.783-1.71.11-3.54-.453-5.214-1.35-1.34-.722-2.242-1.6-3.308-2.385-1.064-.784-1.984-1.22-2.972-1.43-.974-.207-2.03-.183-2.918.09.266.054.49.18.628.338.458.27 1.046.39 1.896.487.445.053.307.36-.375.726-.41.53-.944.812-1.652.743-.977.647-1.325.256-1.652-.168-.04.268-.12.53-.234.785a.602.602 0 0 1-.015.426c.157.24.233.476.18.734.027.14.07.27.22.395.204.185.334.4.36.66.003.172.1.314.235.442.2.164.4.308.6.553.59.214.862.667.96 1.25.445.146.63.47.718.853.253.106.485.234.618.46.91.002 1.8.002 2.63.09.78.083 1.417.568 1.986 1.2.382.058.77.077 1.17-.013.41-.18.843-.32 1.315-.36.78-.065 1.56-.106 2.306.07.504.123.898.39 1.22.756.465.53 1.18.458 1.79.198.83-.355 1.52-.343 2.37.03a2.33 2.33 0 0 1 1.087-.17c.31-.335.64-.418.98-.428.55-.02.952.066.848.775-.03.192-.143.377-.287.443-.253.548-.736.71-1.35.657-.066.377-.22.656-.467.836.28.87.01 1.22-.634 1.208-.136.25-.337.407-.68.358a1.38 1.38 0 0 1-.873.516c.04.227.136.334.297.578.44.664-.22.932-.82.94.153.44.172.878.117 1.316.615.37.698.763.13 1.15.416.724.255 1.257-.522 1.646-.012.405-.052.813-.322 1.04-.184.157-.45.185-.274.48.315.52.246 1.18-.22 1.198-.1-.008-.19.006-.197.165 0 .052-.05.11-.14.16a9.66 9.66 0 0 0-1.564 1.04c-.07.05-.142.08-.213.018-.35.763-1.004 1.54-1.727 2.317-.11.574-.435.963-.973 1.164a.41.41 0 0 1-.32.327c.3.335.414.658.123.975-.358.39-.83.774-1.3.895-1.004.256-1.632.208-2.035-.176-.355-.34-.216-.596.01-.7-.62.047-.745-.28-.728-.716.036-.217.11-.188.327-.18.336.008.64-.174.957-.278.124-.21.285-.39.484-.54.11-.702.555-1.09 1.157-1.32.486-.186.95-.655 1.4-1.262l.836-1.434a1.237 1.237 0 0 1-.254-.76 1.478 1.478 0 0 1-.557-.516c-.436-.032-.616-.23-.68-.5a1.1 1.1 0 0 1-.327-.044c-.214.138-.43.26-.697.247a6.86 6.86 0 0 1-1.09.91c-.13.36-.39.506-.702.55-.895.107-1.43 1.224-1.924 1.68-.2.147-.323.407-.41.72-.043.59-.145 1.05-.467 1.057-.29-.012-.335-.043-.344-.073a1.186 1.186 0 0 0-.378.016c.24.267.28.6.056.895-.222.29-.542.38-.85.4-.637.045-1.154-.012-1.633-.206-.457-.19-.512-.46-.498-.727-.33-.155-.396-.31-.36-.465.044-.2.227-.3.457-.237.2-.094.398-.16.597-.196.578-.623 1.173-1.16 1.827-1.408a2.97 2.97 0 0 1 .68-.613c.078-.56.446-1 .896-1.41.04-.203.106-.407.22-.61-.026-.12.007-.177.01-.29-.183-.34-.292-.75-.157-1.087a1.314 1.314 0 0 1-.05-.54c-1.076.64-1.408.422-1.53-.097-.395.33-.76.482-1.025.01-.382.112-.766.24-1.147.09-.25.096-.5.183-.787.202-.116.23-.273.46-.484.69-.01.483-.18.967-.49 1.45a9.272 9.272 0 0 1-.695 1.55.985.985 0 0 1-.107.5c.083.593-.116.882-.443 1.03a2.41 2.41 0 0 1-.418.72c-.01.08-.017.16-.026.236.13.35.153.7-.203 1.05-.287.18-.592.37-.896.52-.356.175-.69.092-.99-.017-.527-.19-.487-.375-.42-.555a.644.644 0 0 1-.52-.007c-.127-.08-.21-.163-.336-.246-.113-.206-.153-.393.124-.54.35-.154.586-.27.86-.55.095-.213.216-.374.387-.417.167-.388.37-.65.648-.723.205-.48.423-1.01.68-1.47.09-.14.158-.286.115-.444-.004-.13.006-.254.115-.328.06-.053.17-.1.033-.174a1.36 1.36 0 0 1 .165-1.154c.28-.422.593-1.44.297-1.94-.055-.28-.11-.6-.074-.863-.102-.007-.178.007-.28-.064-.227-.14-.417-.007-.59.246-.125.318-.25.598-.376.598-.118.82-.52 1.458-.94 1.622-.098.377-.16.753-.107 1.13.043.41 0 .69-.19.737-.208.05-.403.17-.523.505a1.05 1.05 0 0 0-.074.337c.29.3.202.67-.076.946-.625.615-1.403.525-2.225.283-.596-.236-.74-.484-.68-.74-.845-.07-.677-.716.022-.91.75-.21 1.36-.693 1.86-1.38.045-.815.232-1.37.67-1.457.043-.5.2-.95.41-1.377.22-.387.356-.81.278-1.328-.466-.29-.485-.592-.056-.9.142-.083.126-.168-.05-.254-.284-.028-.25-.3-.23-.557-.012-.13-.08-.2-.206-.202-.63-.093-.474-.35-.204-.63.114-.13.19-.318.07-.394-.096-.06-.162-.276-.183-.465-.387-.292-.22-.59 0-.877-.22-.185-.32-.455-.35-.77-.72-.03-.987-.396-.598-.927a3.38 3.38 0 0 1 .63-.646c.164-.268.323-.536.244-.803-.206-.523.453-.92 1.017-1.327a.88.88 0 0 1-.122-.41c-.32-.305-.237-.59.114-.86a1.064 1.064 0 0 1-.13-.417c-.79.156-.784-.315-.417-1.074-.457-.26-.33-.73.5-1.44a.953.953 0 0 1 .09-.376 1.92 1.92 0 0 0-1 .304c-.315.206-.628.18-.943.05a1.496 1.496 0 0 0-.417-.41.622.622 0 0 1-.22-.63c-.93.05-1.107-.636-.55-1.04.31-.248.538-.506.623-.788.25-.64.785-1.07 1.304-1.518 0-.182.04-.365.1-.55-.23-.154-.474-.265-.74-.286a1.176 1.176 0 0 0-.573-.64c-.17-.103-.23-.2-.12-.435-.494-.44-.37-.71-.245-.96z"/><g fill="#f7db17"><path d="M364.524 121.963a1.37 1.37 0 0 1-.176.007 8.45 8.45 0 0 1-.79.696c-.23-.265-.572.027-.238.188l-.17.118c-.11.29-.21.413-.532.462-.05.007-.1.017-.15.03a2.953 2.953 0 0 1 .015-.36 3.48 3.48 0 0 1 .07-.42c.004-.027.01-.05-.04-.063-.05-.01-.056.02-.06.045a3.875 3.875 0 0 0-.074.433 2.75 2.75 0 0 0-.018.396c-.813.262-1.283 1.108-1.837 1.71-.24.206-.36.49-.448.79-.048.158-.065.886-.23.897-.077.003-.16 0-.247 0-.087-.132-.206-.135-.355-.01-.34-.006-.7-.01-1 .04-.206.22.36.14.66.324.14.084.198.247.143.475-.276.66-1.824.446-2.338.174-.24-.126-.25-.27-.24-.476.107 0 .216-.008.325-.024.185-.026.368-.08.548-.183.05-.027.102-.055.045-.157-.057-.103-.11-.075-.16-.046a1.25 1.25 0 0 1-.463.154 2.57 2.57 0 0 1-.486.017c-.014 0-.03-.002-.04 0-.09-.052-.16-.114-.12-.168.04-.053.186.004.214.013.24-.11.448-.182.707-.232.546-.582 1.1-1.13 1.85-1.43.227-.27.47-.484.765-.678.104-.65.42-.995.89-1.426.058-.268.124-.46.257-.695-.03-.15-.007-.244 0-.395-.18-.342-.287-.638-.145-1.02-.09-.277-.077-.464-.043-.72a.35.35 0 0 0-.003-.144 6.223 6.223 0 0 1 .85-.574c-.02.256-.01.524.04.803l-.004.002a1.28 1.28 0 0 0-.198.265.53.53 0 0 0-.074.277c0 .027 0 .053.05.05.05 0 .05-.025.05-.05a.43.43 0 0 1 .06-.226c.044-.08.108-.16.184-.24a.105.105 0 0 0 .02-.026c.248-.007.492-.14.736-.336.22-.18.44-.412.658-.656-.002.356-.005.71-.01 1.067-.213.19-.395.422-.538.705-.01.023-.023.045.022.068.047.024.06 0 .068-.023a2.27 2.27 0 0 1 .49-.65h.008c.052 0 .052-.026.052-.052a3.17 3.17 0 0 1 .917-.527c-.044.312-.065.618-.01.912.06.322.21.626.52.89.004.006.012.008.02.01z"/><path d="M349.043 112.947c.04-.073.142-.168.175-.16l.02-.006c.11-.204.227-.4.348-.574a3.98 3.98 0 0 1 .497-.6c.02-.02.038-.035.074 0 .035.038.016.055 0 .074a3.91 3.91 0 0 0-.486.582 5.82 5.82 0 0 0-.34.57c.038.047.055.12.036.173.035.324.078.507.223.694a.202.202 0 0 1 .05-.035c.06-.145.14-.273.24-.386a1.65 1.65 0 0 1 .45-.35c.124-.104.223-.208.304-.317.08-.106.145-.215.19-.327.01-.023.02-.047.07-.028.046.02.037.044.027.07-.05.12-.116.235-.2.35a2.056 2.056 0 0 1-.33.333l-.01.005c-.17.093-.31.202-.425.33a1.247 1.247 0 0 0-.21.327c.075.055.108.205.037.3-.214.31-.47.493-.07.758a.635.635 0 0 0 .19.512c.095.096.086.435-.142.68-.213.215-.05.158.17.184l.05.017c.08-.157.176-.297.28-.427a4.34 4.34 0 0 1 .327-.363c.16-.157.285-.328.375-.5.086-.17.14-.342.15-.508 0-.026 0-.052.055-.048.052.002.05.03.047.054a1.41 1.41 0 0 1-.16.55c-.095.18-.227.36-.393.52a3.78 3.78 0 0 0-.32.356 2.6 2.6 0 0 0-.27.41c.268.16.183.45.223.714.052.008.097.02.137.04a.03.03 0 0 1 .01-.015l.154-.247.247-.394c.016-.02.03-.046.07-.017.048.03.034.05.02.072l-.25.39-.156.247a.052.052 0 0 1-.007.01c.163.134.175.376-.027.56-.396.3-.284.392.086.63.046.347.048.627-.027.923l.002.026c.01.095.017.195.024.292l.025.296c.003.025.005.05-.047.056-.052.005-.054-.02-.057-.047l-.023-.3a.644.644 0 0 1-.005-.075l-.063.142c-.265.58-.54 1.053-.6 1.705-.637.153-.542.78-.578 1.336-.503.678-1.086 1.22-1.894 1.49-.153.05-.52.14-.556.333-.004.07.248.218.41.13.444-.426.667-.19.155.247-.04.082-.007.174.08.252.463.414 1.608.55 2.13.22.385-.24.587-.507.25-.875.022-.52.225-1.03.775-1.178.064-.12.045-.34.017-.46-.052-.453.02-.856.13-1.29.02-.056.06-.1.15-.125.208-.042.61-.646.734-1.227.03-.125.05-.256.076-.386.033-.202.11-.237.213-.12.097-.13.095-.207.154-.357.214-.31.52-.56.883-.383a3.036 3.036 0 0 1-.176-.832 2.7 2.7 0 0 1 .114-1.03c.015-.05.03-.098.11-.087l.31-.736.313-.74c.01-.024.02-.048.067-.03.047.02.038.046.028.07l-.31.74-.31.736c.043.034.03.077.015.12a2.515 2.515 0 0 0-.102.943c.024.345.11.68.238.952.01.026.026.052.02.078.17.1.17.123.16.35-.003.18.02.354.064.567.34.627-.014 1.674-.344 2.198a1.09 1.09 0 0 0-.134.835c.204.196.07.4-.11.537-.013.047 0 .1.003.15.016.203-.057.373-.164.54-.277.5-.49 1.034-.713 1.558-.403.11-.486.346-.647.722-.235.066-.26.134-.358.35a2.71 2.71 0 0 1-.876.593c-.287.13-.01.256.19.393.184.134.423-.16.573-.382.162-.247.328-.174.22.018a1.95 1.95 0 0 0-.214.674c-.063.17.586.3.7.305.394.02.89-.365 1.202-.562.257-.26.217-.49.103-.81l.002-.02a1.97 1.97 0 0 1-.476-.05 3.432 3.432 0 0 1-.56-.184c-.023-.01-.047-.02-.03-.07.02-.046.047-.037.07-.027.186.074.364.14.544.176.15.033.302.05.466.045l.026-.25a2.7 2.7 0 0 0 .46-.803c.437-.207.44-.42.38-.89.097-.19.12-.3.11-.516a9.93 9.93 0 0 0 .724-1.596c.347-.46.513-.893.473-1.44.03-.213.11-.334.265-.327a3.82 3.82 0 0 0 .308-.505.46.46 0 0 0 .057.005.08.08 0 0 1 0-.038c.03-.127.062-.238.105-.33a.798.798 0 0 1 .142-.226.918.918 0 0 0 .07-.456 1.107 1.107 0 0 0-.153-.443.492.492 0 0 1-.115-.183c-.02-.074-.006-.148.067-.22.02-.02.037-.037.073 0s.02.056 0 .072c-.043.04-.05.077-.038.115a.456.456 0 0 0 .097.15l.004.01c.09.157.153.32.17.49a1.01 1.01 0 0 1-.084.513s-.01.013-.01.016a.722.722 0 0 0-.13.2 1.69 1.69 0 0 0-.096.307l-.004.02c.245 0 .46-.077.695-.193l.015-.013c.117-.093.242-.237.347-.427.086-.16.157-.354.2-.577.002-.026.007-.05.06-.043.05.01.044.035.042.06a2.035 2.035 0 0 1-.21.61c-.08.147-.175.27-.27.363.38.114.708.002 1.07-.11-.053-.506-.046-.893.008-1.196.06-.33.17-.56.31-.736.017-.02.03-.04.074-.01.04.036.026.054.01.076-.13.163-.235.38-.29.692-.052.29-.06.66-.01 1.147.003-.003.01-.003.018-.006.15.26.232.445.542.243.114-.076.233-.15.327-.25.035-.04.023-.06.05-.09.298-.316.596-.61.893-.87.298-.264.597-.49.895-.67.023-.016.046-.03.073.015.026.046.004.058-.017.072a6.45 6.45 0 0 0-.882.66c-.25.222-.505.468-.76.734.016.045.023.123.03.242.026.35.09.56.59.37.28-.107.308-.12.567-.273a1.34 1.34 0 0 1 .304-.157 7.99 7.99 0 0 1 .49-.358c.16-.106.32-.203.48-.29.026-.188.07-.373.13-.55.155-.456.413-.878.738-1.276l.017-.014c.27-.147.49-.32.666-.517.178-.195.31-.415.41-.654.01-.023.02-.047.07-.03.046.02.037.047.027.07-.105.25-.245.48-.427.686a2.525 2.525 0 0 1-.69.536c-.314.39-.565.797-.712 1.235a2.69 2.69 0 0 0-.115.475c.01.003.02.012.028.03.025.048 0 .06-.02.07a.06.06 0 0 0-.02.012 2.81 2.81 0 0 0 .023.805c.223-.007.446-.13.67-.31.24-.196.484-.464.726-.736 0-.007 0-.012.01-.017a1.7 1.7 0 0 1 .233-.503.95.95 0 0 1 .397-.327c.025-.01.05-.022.07.028.02.048-.002.057-.03.07a.862.862 0 0 0-.354.29 1.66 1.66 0 0 0-.225.49c0 .368-.005.738-.01 1.108l.04-.03c.273-.212.586-.368.925-.492.035-.013.076.02.068.058-.052.333-.08.663-.026.966.052.284.18.55.436.787a2.78 2.78 0 0 1 .48-.627c.096-.097.196-.188.3-.273.076-.07.152-.14.225-.21l.228-.21c.02-.02.04-.036.075.002.037.038.018.057 0 .073l-.23.21-.226.212h-.003c-.096.08-.19.16-.28.25l.014.29.004.157c.22.06.35.062.573.057.074.44.11.508.494.518a3.244 3.244 0 0 1 .014-.456c.02-.17.054-.336.114-.493.01-.023.02-.047.067-.03.05.02.04.042.03.066a1.89 1.89 0 0 0-.11.467 3.1 3.1 0 0 0-.015.448h.03c.152.316.332.47.654.61.09-.143.156-.285.2-.427a1.37 1.37 0 0 0 .055-.476c-.002-.026-.002-.052.048-.054.052-.002.054.02.057.047.01.17-.01.34-.063.51-.05.17-.134.34-.248.508-.01.015-.02.03-.037.03.014.18.045.316.11.454a3.02 3.02 0 0 1 .153-.3c.078-.135.168-.26.277-.367.02-.02.036-.036.073 0 .036.035.02.054 0 .073-.1.1-.184.22-.26.348a3.984 3.984 0 0 0-.183.363c.036.06.08.12.133.192-.607 1.04-1.256 2.483-2.453 2.957-.62.243-.89.56-1.012 1.22-.23.18-.397.362-.55.613-.402.136-.762.338-1.2.32 0 .28.094.404.376.406.538-.27.66-.32.707-.283.066.057-.076.444-.522.756-.067.042-.065.068-.025.14.376.59 1.364.378 1.895.24.38-.1 1.065-.55 1.255-.93.073-.176-.092-.4-.26-.586-.757.116-.612-.61.04-.308.22-.067.248-.07.31-.314.58-.225.82-.47.955-1.092.586-.63 1.173-1.28 1.595-2.034.115-.14.184-.393.15-.523a1.07 1.07 0 0 0 .2-.42c.038-.153.062-.302.057-.454 0-.026-.003-.052.05-.054.052-.004.052.022.054.05.007.16-.017.32-.057.48a4.48 4.48 0 0 1-.12.37c.035.093.054.16.14.134.504-.408 1.016-.695 1.563-1.034.038-.23.188-.345.417-.354.094 0 .127-.026.16-.112.128-.32-.033-.54-.187-.805-.142-.398.11-.49.365-.68.266-.2.247-.72.257-1.02l-.03-.156a2.623 2.623 0 0 0-.09-.32c-.01-.024-.017-.05.03-.067.05-.017.057.007.067.033.04.117.07.226.094.333l.027.126c.254-.13.52-.284.62-.566.087-.314-.084-.61-.236-.876a9.567 9.567 0 0 1-.594.255c-.023.01-.047.02-.066-.028-.02-.048.004-.06.028-.067a10.22 10.22 0 0 0 .687-.303 1.29 1.29 0 0 0 .313-.263c.182-.265-.308-.5-.48-.61 0-.006.003-.013.003-.02l-.735-.68c-.02-.015-.038-.034-.002-.072.038-.04.056-.022.075-.003l.683.625c.037-.386.042-.755-.08-1.14-.037-.123-.082-.243-.125-.364a1.116 1.116 0 0 1-.48-.397 1.037 1.037 0 0 1-.157-.495c-.003-.026-.003-.052.05-.057.052-.002.052.024.056.05a.94.94 0 0 0 .14.446c.09.136.22.254.414.35.206.108.64.054.89-.067.35-.198-.106-.596-.213-.83-.075-.17-.093-.34-.127-.52l.095-.02a1.044 1.044 0 0 0-.14-.146.602.602 0 0 0-.185-.112c-.024-.01-.05-.016-.03-.066.016-.05.042-.04.066-.03a.71.71 0 0 1 .22.132c.066.057.128.126.187.206a.875.875 0 0 0 .102-.02c.343-.067.532-.26.74-.506a3.597 3.597 0 0 0-.373-.386 10.09 10.09 0 0 0-.427-.36c-.02-.017-.04-.034-.01-.074.034-.04.053-.024.074-.007.148.12.295.24.433.364.14.13.272.264.393.41.01.015.023.03.013.048.314.03.367-.034.525-.316a1.53 1.53 0 0 0-.19-.41 2.5 2.5 0 0 0-.315-.386c-.02-.02-.036-.038 0-.074.038-.036.056-.017.073 0 .122.128.236.263.326.403.09.138.16.28.2.435.148.002.306.01.43-.067.277-.163.045-.75-.027-.98.005 0 .008-.003.012-.008a2.762 2.762 0 0 0-.11-.07c-.063-.04-.13-.08-.193-.122-.022-.014-.044-.028-.018-.07.03-.046.05-.032.07-.018l.195.124.14.09.066-.05c.2-.16.274-.375.335-.597.096-.343.115-.19.513-.25.43-.067.66-.114.915-.616.133-.066.2-.123.225-.286.043-.295.02-.447-.32-.473-.474-.038-.763.057-1.083.37l.127.194c.014.02.028.044-.014.074s-.056.007-.07-.014l-.12-.184c-.433-.04-.78.027-1.18.18l-.122-.05c.087.113.15.222.2.33.07.15.107.295.11.432 0 .026.005.053-.05.055-.05.002-.05-.024-.052-.05a1.036 1.036 0 0 0-.1-.396 1.842 1.842 0 0 0-.298-.443l-.004-.002a2.62 2.62 0 0 0-.96-.176l.16.153c.07.065.138.13.204.2.02.016.038.033 0 .07-.035.04-.054.02-.073 0a7.742 7.742 0 0 1-.203-.2 6.458 6.458 0 0 1-.205-.197l-.02-.022a2.72 2.72 0 0 0-.85.22c-.194.08-.39.143-.58.18.14.136.26.29.355.466.1.18.175.38.225.6.005.026.01.05-.037.06-.05.014-.057-.012-.062-.036a2.147 2.147 0 0 0-.214-.573 1.89 1.89 0 0 0-.354-.455c-.014-.012-.026-.026-.02-.045a1.78 1.78 0 0 1-.527.003l.21.348c.013.025.022.048-.023.07-.048.02-.06 0-.07-.024l-.194-.408a1.446 1.446 0 0 1-.473-.187c.05.186.088.39.116.6.038.283.06.584.07.9 0 .028 0 .054-.05.054-.053 0-.053-.026-.053-.05a7.85 7.85 0 0 0-.066-.89 4.7 4.7 0 0 0-.15-.71 1.662 1.662 0 0 1-.213-.2 2.1 2.1 0 0 0-.57-.442.95.95 0 0 1-.21.728c-.014.02-.028.04-.07.01-.04-.033-.027-.052-.01-.073a.846.846 0 0 0 .175-.72 3.13 3.13 0 0 0-1.05-.254 5.312 5.312 0 0 1 .55.872c.146.122.225.27.27.43.04.16.05.33.06.502 0 .025 0 .05-.05.054-.053.004-.053-.022-.055-.05a2.087 2.087 0 0 0-.056-.48.714.714 0 0 0-.243-.38.09.09 0 0 1-.013-.015 5.64 5.64 0 0 0-.268-.476 4.61 4.61 0 0 0-.33-.456l-.005-.005a4.674 4.674 0 0 0-.375-.007c.02.028.042.057.06.087a.577.577 0 0 1 .086.25c.005.024.007.05-.045.055-.052.005-.055-.02-.057-.048a.498.498 0 0 0-.07-.203.675.675 0 0 0-.112-.138c-.26.007-.52.03-.767.05.26.334.47.68.63 1.036.18.395.3.803.37 1.225.004.026.01.052-.044.06-.05.01-.054-.017-.06-.044a4.793 4.793 0 0 0-.362-1.2 5.12 5.12 0 0 0-.66-1.068l-.04.003c-.2.02-.404.06-.598.115.087.054.163.11.23.163.09.074.16.147.222.22.017.022.033.04-.007.074-.04.034-.057.016-.073-.006a1.573 1.573 0 0 0-.21-.208 2.403 2.403 0 0 0-.297-.204 4.91 4.91 0 0 0-.31.11c-.056.023-.11.044-.167.06.175.126.344.264.505.418.194.187.377.398.54.642.014.02.03.043-.014.07-.043.03-.057.008-.073-.013a3.796 3.796 0 0 0-.522-.628 4.668 4.668 0 0 0-.563-.457c-.214.047-.43.06-.645.052.132.262.25.527.336.795.093.29.16.58.18.877.004.026.006.052-.046.057-.053.005-.056-.02-.058-.048-.02-.29-.085-.57-.178-.854a6.224 6.224 0 0 0-.358-.835 7.972 7.972 0 0 1-.396-.042c.076.24.143.49.2.744.066.298.12.604.16.914.003.026.005.053-.044.06-.052.007-.055-.02-.06-.045a9.248 9.248 0 0 0-.158-.905 9.28 9.28 0 0 0-.22-.81c-.375-.407-.79-.8-1.297-1.013a1.704 1.704 0 0 1 .376 1.123c0 .026 0 .052-.05.05-.054 0-.054-.03-.05-.053a1.633 1.633 0 0 0-.12-.67 1.676 1.676 0 0 0-.353-.525 1.953 1.953 0 0 0-.358-.07 15.624 15.624 0 0 0-1-.068c.255.23.456.444.437.703 0 .024-.004.05-.056.045-.052-.004-.05-.03-.047-.056.015-.24-.22-.456-.5-.702-.2-.007-.4-.01-.6-.012.11.11.204.223.28.334.105.152.178.303.214.455v.006c.02.235.077.44.18.612.103.168.25.298.45.39.025.013.05.022.027.07-.02.047-.044.037-.067.025-.22-.1-.383-.247-.497-.432a1.51 1.51 0 0 1-.196-.65 1.255 1.255 0 0 0-.198-.415 2.675 2.675 0 0 0-.344-.397c-.22 0-.442-.003-.665-.003.094.264.158.534.203.81.052.335.076.68.083 1.027 0 .026 0 .052-.054.052s-.053-.027-.053-.05a7.143 7.143 0 0 0-.08-1.015 4.475 4.475 0 0 0-.21-.826h-.06a1.003 1.003 0 0 0-.49-.437.604.604 0 0 1-.106.282c-.012.02-.03.043-.072.014-.042-.028-.028-.05-.014-.07a.495.495 0 0 0 .09-.27l-.105-.046c-.107-.446-.207-.63-.562-.782-.003.124-.01.25-.033.38-.027.164-.08.327-.176.484-.014.02-.03.044-.07.015-.046-.027-.032-.05-.018-.07.09-.145.138-.294.164-.443.022-.134.03-.272.03-.404l-.062-.02c-.095-.623-.21-.97-.856-1.218.007.08.01.164.005.247a1.38 1.38 0 0 1-.09.43c-.01.02-.02.047-.066.03-.045-.02-.035-.044-.03-.068.054-.135.078-.268.085-.398a1.9 1.9 0 0 0-.02-.37c-.137-.155-.333-.304-.502-.47a2.28 2.28 0 0 1-.09.687 3.06 3.06 0 0 1-.385.834c-.014.023-.028.046-.07.018-.046-.028-.032-.05-.018-.07a3 3 0 0 0 .374-.807 2.2 2.2 0 0 0 .08-.772 1.04 1.04 0 0 1-.177-.26l-.015.033-.075.17c-.012.024-.022.05-.07.03-.047-.02-.037-.046-.028-.07l.074-.17.06-.138c-.004-.03-.01-.058-.01-.09-.02-.198-.128-.352-.273-.482a1.482 1.482 0 0 1-.25.475c-.02.02-.033.04-.076.01-.04-.034-.023-.053-.008-.074.07-.09.125-.18.168-.266.035-.076.06-.15.08-.23a.962.962 0 0 1-.15-.246.796.796 0 0 1-.1.17c-.05.067-.115.13-.195.197-.02.017-.04.033-.075-.007-.03-.04-.01-.057.01-.073.073-.06.13-.118.175-.177a.65.65 0 0 0 .098-.176c.034-.09.046-.032.015-.18.055-.295-.054-.47-.21-.714a.07.07 0 0 1 .01-.02.89.89 0 0 0-.316.084 2.76 2.76 0 0 0-.455.265c-.022.016-.043.03-.072-.012-.03-.043-.01-.057.015-.07a3.16 3.16 0 0 1 .47-.274.9.9 0 0 1 .4-.092.37.37 0 0 0 .01-.227c-.473.177-.847.26-1.148.28a1.64 1.64 0 0 1-.76-.117c-.023-.01-.047-.02-.026-.068.02-.05.047-.04.07-.03.188.08.414.13.71.11.298-.02.66-.1 1.13-.276 0-.004 0-.01-.002-.014.085-.19.154-.373.2-.56a1.705 1.705 0 0 1-.5.04h-.032c-.026 0-.052-.003-.052-.052 0-.053.028-.053.052-.053h.033c.177.005.352.01.525-.047.012-.062.02-.124.03-.185.027-.206.27-.256.44-.07.142.15.272.312.412.378.284.135.604.014.834-.17l-.21-.07c-.025-.007-.05-.016-.032-.063.015-.05.04-.043.063-.034.09.03.18.056.27.087a.947.947 0 0 0 .064-.063c.587.05.97-.073 1.346-.453a6.927 6.927 0 0 1-.893-.03c-.285-.034-.52-.09-.692-.176-.024-.012-.048-.024-.024-.07.026-.046.05-.034.07-.022.16.08.387.137.66.168.277.03.604.04.976.028h.005c.035-.038.068-.078.104-.12.16-.067.322-.14.44-.273-.685-.074-1.336-.21-1.95-.53-.16-.177-.41-.276-.678-.345-.498-.06-.938.062-1.344.273-.104-.1-.187-.19-.292-.286-.155-.02-.302-.102-.46-.12-.207-.025-.425.016-.634-.008-.026-.003-.052-.006-.045-.058.006-.053.03-.05.058-.046.21.024.427-.017.635.007.2.025.393.113.594.136.673-.254 1.23-.394 1.71-.373a5.68 5.68 0 0 1 1.73-.218.102.102 0 0 1-.022-.02c-.07-.07-.036-.104 0-.137.315-.32.39-.615.287-.88-.105-.276-.39-.534-.785-.77-.422.047-.827-.067-1.275-.017a3.95 3.95 0 0 0-.825.182c.226.08.422.212.583.402.2.235.342.555.418.957.01.047.016.097-.08.113-.094.018-.103-.032-.112-.08-.07-.366-.197-.656-.375-.866-.19-.267-.617-.372-.75-.426-.45.045-.89.095-1.275.194-.29.075-.543.177-.737.328.29-.06.59-.05.85.08.25.124.46.356.593.733.02.045.03.093-.06.124-.092.03-.11-.015-.123-.062-.11-.325-.286-.52-.492-.62-.41-.205-1.257-.027-1.614.238a4.23 4.23 0 0 0-.624.594c-.038.045-.078.088-.166.012-.09-.08-.05-.12-.01-.165.214-.244.432-.46.66-.626.215-.16.44-.278.672-.33.237-.265.588-.424.993-.528.396-.104.85-.157 1.308-.2-.135-.274-.308-.438-.507-.525-.213-.094-.457-.11-.723-.082-.552.19-1.042.486-1.514.82.042 0 .084 0 .125.002.14.01.265-.012.38.033.046.017.094.033.06.126-.04.11-.346.042-.452.034a1.352 1.352 0 0 0-.4.037c-.022.006-.046.013-.067.006-.576.357-.988.717-1.467 1.12l-.08.03c-.426-.016-.72.043-.896.176-.158.12-.17.31-.14.566-.073.24-.165.503-.19.782-.5.43-1.056.857-1.314 1.483a1.42 1.42 0 0 1-.273.488.538.538 0 0 1 .25.097c.022.02.044.038.063.062.01-.108.027-.214.053-.316.036-.145.088-.28.156-.39.012-.02.03-.042.07-.013.044.028.03.05.015.07a1.2 1.2 0 0 0-.144.36 2.61 2.61 0 0 0-.066.51c-.002.053-.097.057-.104.005a.287.287 0 0 0-.11-.2.52.52 0 0 0-.27-.087 2.92 2.92 0 0 1-.35.317c-.1.08-.192.168-.214.3-.014.226.266.266.53.283.606.036.124.38.456.68.162.112.312.242.425.4.23.084.373.065.53-.006.03-.41-.006-.62.174-.62h.02a.768.768 0 0 1 .18-.387c.017-.02.034-.04.074-.006.04.034.024.053.007.074a.807.807 0 0 0-.12.205.75.75 0 0 0-.043.17c.03.062.024.183.022.4.342-.17.655-.212 1.006-.23.657-.767.936-.572.36-.013l-.092.175a1.4 1.4 0 0 0-.185.603c-.17.147-.994.825-.686 1.076.216-.03.35-.02.268.14-.1.215-.41.663-.306.91.038.09.17.08.3.05l.03-.027a6.2 6.2 0 0 0 .656-.61 3.8 3.8 0 0 0 .565-.796c.02-.043.043-.083.104-.07a9.07 9.07 0 0 1 .225-.708c.087-.244.187-.49.293-.737.017-.036.067-.043.09-.01.09.13.178.225.266.286a.393.393 0 0 0 .232.083.42.42 0 0 0 .232-.08c.086-.06.17-.15.26-.272.013-.022.03-.043.072-.012.04.03.027.05.01.074a1.18 1.18 0 0 1-.284.295.49.49 0 0 1-.292.097.504.504 0 0 1-.29-.105 1.134 1.134 0 0 1-.238-.24 11.11 11.11 0 0 0-.486 1.368c.056.046.033.088.01.13-.17.32-.38.598-.6.842-.18.2-.373.375-.56.533.026.177.07.343.152.513.36-.308.693-.62.987-.943.29-.325.55-.66.75-1.007.012-.02.024-.045.07-.02.043.027.03.05.02.072a5.98 5.98 0 0 1-.35.53c.02.034 0 .048-.018.065-.038.03-.06.154-.07.313-.013.215 0 .483.025.675 0 .026.006.052-.046.06-.05.007-.054-.02-.06-.046-.024-.2-.036-.476-.024-.694 0-.057.01-.11.015-.156-.077.092-.16.184-.24.277a11.547 11.547 0 0 1-1.015.964c.01.02.02.038.032.057-.316.23-.575.31-.22.62.12-.085.238-.17.356-.256l.38-.272c.02-.014.042-.03.073.012.03.042.01.056-.012.073l-.38.273-.37.265a.623.623 0 0 0 .09.362.528.528 0 0 1 .08-.007l.796-.58c.02-.016.044-.03.074.013.03.042.01.057-.012.073-.255.188-.514.376-.772.563a.714.714 0 0 1-.093.116c-.26.19-1.17.75-1.074 1.14.218-.06.436-.136.644-.243.216-.11.427-.26.626-.464.02-.02.036-.037.074 0 .035.034.02.053 0 .072a2.544 2.544 0 0 1-.65.482v.01l-.004.106c-.003.037-.003.073-.005.108 0 .027 0 .053-.053.05-.052 0-.05-.03-.05-.054.003-.035.003-.07.005-.106.004-.02.004-.04.004-.06a3.62 3.62 0 0 1-.562.202c.078.367-.114.683-.31.998-.112.09-1.022.827-.643 1.047a.98.98 0 0 0 .33.087z"/><path d="M349.455 100.128c-.19-.114-.434-.254-.67-.3a1.44 1.44 0 0 0-.505-.563c-.176-.114-.176-.104-.11-.23.2-.02.283-.076.285-.13a.897.897 0 0 1 .27.043.4.4 0 0 1 .202.14c.016.02.03.042.073.01s.026-.053.01-.075a.542.542 0 0 0-.252-.175 1.023 1.023 0 0 0-.37-.047c-.01 0-.02 0-.03.008a.743.743 0 0 0-.332-.054c-.135-.127-.25-.276-.194-.46.007.006.02.008.03.01.107.03.207.062.292.102.083.036.152.08.2.133.016.02.035.037.073 0 .038-.035.02-.054.004-.073a.744.744 0 0 0-.23-.16 2.052 2.052 0 0 0-.223-.082c.782-.16 1.48-.147 2.18.268.368.152.54.327.74.597l-.2.17c-.457-.015-.793.05-1.004.21-.19.14-.227.397-.234.653z"/></g><path d="M365.002 121.77c-.154.095-.28.162-.438.188a.072.072 0 0 0 .02-.02c.1-.19.22-.36.352-.51.017-.02.036-.04.052-.06l.007.19.007.215zm1.96 4.196a2.3 2.3 0 0 1-.376.428 3.99 3.99 0 0 1-.477.363c-.025.014-.05.03-.077-.014-.03-.043-.007-.057.014-.07.165-.11.32-.23.463-.354.14-.13.265-.265.36-.41.016-.026.03-.047.075-.02.043.03.03.05.014.073zm1.298-1.546c-.068.1-.132.2-.198.3-.014.023-.028.044-.073.015-.047-.028-.03-.05-.02-.07.068-.1.13-.202.198-.302.014-.02.03-.042.074-.014.042.025.028.05.014.07zm-.707-.1a1.11 1.11 0 0 1-.183.423c-.095.13-.235.246-.436.338-.024.016-.047.026-.07-.022-.02-.047.004-.06.027-.068a.987.987 0 0 0 .4-.307.972.972 0 0 0 .166-.383c.005-.027.012-.05.062-.04.05.01.045.036.038.06zm1.27-1.55a.934.934 0 0 0-.138.178 1.15 1.15 0 0 0-.1.22c-.01.022-.016.048-.066.032-.05-.017-.046-.043-.037-.067a1.136 1.136 0 0 1 .26-.433c.02-.02.037-.036.074 0 .035.035.02.054 0 .073zm1.037.103c-.044.147-.087.296-.14.443-.056.152-.122.3-.207.45-.015.02-.027.045-.072.02-.04-.027-.03-.05-.015-.072.083-.145.145-.29.2-.43.052-.146.094-.293.14-.44.006-.026.014-.05.063-.035.05.01.043.034.036.06zm-.47-6.075c.322.474.393.963.405 1.453a7.29 7.29 0 0 1 .125-.53c0-.004.007-.018.007-.018a1.6 1.6 0 0 0 .263-.566c.043-.188.043-.377.01-.565-.005-.026-.01-.05.042-.06.05-.01.057.018.062.044.036.2.036.405-.01.607a1.68 1.68 0 0 1-.272.596c-.088.33-.152.66-.213.993l-.016.06c-.01.05-.104.042-.104-.01 0-.038 0-.073.003-.11.007-.62.014-1.24-.386-1.83-.016-.02-.032-.04.013-.072.044-.03.06-.008.074.013zm-.79 1.017l-.012.12c-.002.04-.007.08-.01.12-.002.026-.004.052-.056.047-.052-.005-.05-.03-.048-.057.003-.04.008-.08.01-.12.002-.04.007-.08.012-.12.002-.025.005-.052.057-.047.052.005.05.03.047.057zm-.22 1.38c.08.262.142.53.187.805.03.187.05.377.06.57a.983.983 0 0 1 .07-.1c.086-.107.2-.2.334-.278.026-.014.05-.026.076.02.026.044.004.058-.02.07a1.048 1.048 0 0 0-.303.254.704.704 0 0 0-.146.322c-.01.052-.104.043-.104-.01a5.054 5.054 0 0 0-.065-.83 5.904 5.904 0 0 0-.183-.793c-.007-.026-.016-.05.034-.064.05-.01.056.01.063.037zm1.1.492a3.564 3.564 0 0 1 .064 1.19c-.003.027-.008.053-.06.046-.052-.007-.047-.033-.045-.06.02-.177.024-.362.015-.556a3.603 3.603 0 0 0-.08-.597c-.005-.027-.012-.05.04-.063.05-.012.057.014.06.04zm.943-.175c.035.194.054.384.045.566a1.47 1.47 0 0 1-.12.53 1.19 1.19 0 0 0-.037.584c.037.2.11.398.2.6.015.024.025.047-.023.07-.047.02-.06-.004-.07-.027a2.54 2.54 0 0 1-.207-.624 1.298 1.298 0 0 1 .04-.633l.002-.005a1.36 1.36 0 0 0 .11-.495 2.25 2.25 0 0 0-.043-.543c-.007-.024-.01-.05.04-.057.05-.01.056.016.06.042zm.455-1.564c-.024.097-.048.197-.074.296-.024.097-.047.197-.073.296 0 .026-.01.05-.06.038-.05-.012-.043-.038-.04-.064l.078-.296c.023-.097.047-.197.073-.296.007-.026.01-.05.064-.038.05.012.045.038.038.064zm-.468-2.598c.03.09.055.18.084.27.007.027.014.05-.036.064-.05.017-.057-.01-.064-.033-.028-.09-.054-.18-.083-.27-.005-.022-.012-.05.037-.06.05-.014.057.01.064.033zm.24-1.974c.002.123.002.247-.007.775a.773.773 0 0 0-.235.386 1.38 1.38 0 0 0-.007.585c.01.026.01.05-.04.06-.05.01-.055-.015-.06-.04a1.423 1.423 0 0 1 .01-.63.862.862 0 0 1 .265-.433l-.02-.33c-.004-.122-.004-.246-.006-.367 0-.028 0-.054.05-.054s.05.026.05.052zm-1.96-.686c.303.198.564.418.744.68.183.262.287.563.275.92a.053.053 0 0 1-.077.044c-.17-.074-.344-.147-.515-.22.114.736.086 1.324-.075 1.774-.17.477-.486.8-.937.986a.052.052 0 0 1-.07-.064c.087-.28.14-.56.16-.84a3.49 3.49 0 0 0-.037-.835c-.005-.026-.01-.053.043-.06.052-.01.057.017.06.043.046.287.06.576.037.863-.02.255-.06.5-.132.757a1.5 1.5 0 0 0 .776-.88c.16-.452.185-1.054.057-1.817-.005-.04.038-.074.07-.058l.53.23c-.003-.3-.1-.556-.254-.78-.173-.25-.422-.46-.716-.653-.02-.016-.04-.03-.013-.075.028-.043.05-.028.07-.014zm5.13-1.01l-.04.1c-.016.034-.028.07-.042.103-.01.024-.02.047-.066.028-.048-.015-.038-.04-.03-.062.016-.033.03-.07.044-.102.014-.033.026-.07.04-.102.01-.022.02-.046.067-.027.047.02.038.042.028.066zm-1.205-.027c.1.04.18.095.246.16a.83.83 0 0 1 .16.224c.015.024.027.047-.02.07-.05.022-.06 0-.07-.023a.78.78 0 0 0-.14-.196.592.592 0 0 0-.21-.138c-.024-.01-.047-.02-.03-.066.02-.048.044-.038.068-.03zm-1.792.514c.13.145.216.313.26.505.046.187.053.396.03.62-.003.025-.005.05-.058.046-.052-.005-.05-.03-.045-.057.022-.21.017-.41-.026-.58a1.034 1.034 0 0 0-.237-.46c-.016-.02-.035-.037.005-.073.038-.036.057-.014.073.005zm-6.055.583l-.022.204-.02.204c0 .026-.003.052-.055.047-.05-.004-.05-.03-.04-.056l.02-.208.02-.204c0-.026.004-.05.056-.047.052.005.05.03.047.057zm1.122-.592c.03.097.058.194.09.29l.025.09c.007.025.014.05-.036.063-.05.018-.06-.005-.068-.03l-.026-.09-.088-.292c-.008-.023-.016-.05.034-.064.05-.014.057.01.064.036zm2.305 1.547c.012.043.02.086.02.126a1.11 1.11 0 0 1 0 .13c0 .026-.004.05-.056.047-.056-.005-.05-.03-.05-.057a.837.837 0 0 0 0-.11.552.552 0 0 0-.02-.11c-.007-.026-.014-.05.035-.064.05-.014.057.012.064.038zm.795-1.753c.05.05.082.104.094.156a.234.234 0 0 1-.024.168c-.012.024-.026.048-.07.022-.046-.024-.034-.048-.023-.07a.14.14 0 0 0 .015-.1.25.25 0 0 0-.067-.108c-.02-.02-.035-.035 0-.073.036-.036.055-.02.074 0zm-5.5.278a.934.934 0 0 0 .254.663c.12.137.182.272.216.41.033.135.035.267.042.398 0 .03.003.056-.05.058-.052.003-.052-.023-.054-.05-.005-.127-.01-.255-.038-.38a.86.86 0 0 0-.192-.366 1.054 1.054 0 0 1-.216-.346 1.126 1.126 0 0 1-.066-.39c0-.025 0-.05.052-.05s.052.025.052.05zm2.226 1.497c.123.23.192.455.218.682.028.222.014.45-.026.69a1.16 1.16 0 0 0 .166.8c.14.24.36.464.644.673a2.86 2.86 0 0 1-.128-.9c.015-.34.12-.67.358-.98.102-.133.17-.27.218-.41.05-.14.076-.282.095-.42.006-.025.01-.05.06-.044.05.004.048.03.046.057-.02.145-.047.292-.097.44a1.52 1.52 0 0 1-.236.438 1.587 1.587 0 0 0-.335.922c-.016.324.055.66.164 1.007.015.045-.04.083-.078.06-.358-.243-.63-.508-.798-.79a1.256 1.256 0 0 1-.178-.87c.037-.23.05-.45.023-.666a1.81 1.81 0 0 0-.207-.645c-.012-.022-.026-.045.022-.07.045-.025.06-.002.07.022zm-.894 1.367c0 .247-.068.493-.192.74a3.387 3.387 0 0 1-.377.578c.08-.03.16-.062.237-.1a2.212 2.212 0 0 0 .7-.497c.097-.1.194-.216.294-.353.014-.022.03-.043.073-.012.043.03.026.052.012.073a3.59 3.59 0 0 1-.308.365 2.48 2.48 0 0 1-.27.242 24.48 24.48 0 0 1 .07.34c.004.027.01.05-.04.063-.05.012-.058-.014-.063-.04l-.038-.183a1.542 1.542 0 0 0-.024-.114 2.21 2.21 0 0 1-.37.21c-.14.068-.28.117-.42.17-.048.016-.09-.045-.06-.083.2-.237.367-.472.484-.707.116-.232.182-.462.182-.692 0-.026 0-.052.052-.052s.05.026.05.052zm-1.088-.087v.234c0 .03 0 .056-.052.056s-.052-.026-.052-.052v-.233c0-.026 0-.053.052-.053s.052.027.052.053z"/><path d="M363.052 113.675c.142.348.18.673.126.976a1.85 1.85 0 0 1-.413.855l-.007.007a1.89 1.89 0 0 0-.474.63c-.078.16-.137.335-.182.517.056-.08.113-.153.182-.22.135-.14.296-.245.51-.305a4.231 4.231 0 0 0 1.156-.909c.017-.02.036-.038.074-.005s.02.05.004.07c-.17.194-.355.365-.554.52-.2.152-.41.29-.635.413l-.016.005a1.026 1.026 0 0 0-.47.276 2.287 2.287 0 0 0-.322.443c-.026.042-.104.013-.095-.037.052-.294.13-.57.25-.823.117-.25.28-.473.496-.66.204-.25.34-.517.39-.8.048-.286.013-.59-.122-.92-.01-.024-.02-.048.03-.07.047-.018.06.005.07.03zm2.21 3.545c-.032.095.037.183.176.363l.095.123c.188.25.256.53.26.827.006.29-.05.59-.106.882-.01.05-.094.047-.102-.003a1.79 1.79 0 0 0-.386-.86 3.432 3.432 0 0 0-.79-.692c-.02-.014-.046-.028-.017-.073.028-.043.05-.03.07-.015.323.216.603.45.814.716.16.202.28.42.352.66a3.4 3.4 0 0 0 .06-.612 1.28 1.28 0 0 0-.24-.766c-.037-.05-.068-.088-.094-.12-.164-.212-.24-.314-.193-.46.01-.024.017-.05.067-.034.05.017.04.043.034.067zm.944-.06c.038.04.08.08.116.122.038.04.08.08.117.123.015.02.03.038-.007.074-.038.03-.057.012-.073-.007-.037-.04-.077-.08-.115-.123-.038-.04-.08-.08-.116-.122-.018-.02-.037-.04 0-.075.04-.035.058-.016.074.003zm1.157.37c-.074.233-.145.463-.216.695-.073.232-.144.462-.218.694-.01.023-.018.05-.068.03-.05-.015-.042-.04-.033-.064.074-.234.145-.463.216-.696l.218-.693c.007-.026.014-.05.064-.036.05.02.04.04.03.07zm.654 3.88a.242.242 0 0 0 0 .173c.01.024.02.05-.03.067-.048.02-.058-.005-.067-.03a.347.347 0 0 1 0-.25c.01-.026.02-.05.066-.03.05.018.04.042.03.066zm-.687-1.14c-.03.12-.064.245-.095.365-.03.124-.062.244-.095.368-.007.026-.014.05-.064.038-.05-.01-.045-.034-.038-.06.03-.124.064-.244.095-.37.03-.12.064-.243.095-.364.007-.026.012-.05.064-.038.05.012.045.038.038.064zm-.99-.004l.09.09c.018.02.035.035 0 .073-.04.032-.058.015-.074 0l-.09-.09c-.02-.02-.036-.04 0-.077.038-.036.056-.02.073 0zm-1.165-.556a7.324 7.324 0 0 1-.073.205c-.024.07-.047.137-.074.206-.01.028-.016.05-.066.035-.047-.017-.04-.043-.03-.066a5.08 5.08 0 0 1 .073-.208 5.08 5.08 0 0 1 .073-.206c.01-.026.017-.05.067-.033s.04.044.033.067zm-1.665 1.76a.693.693 0 0 0-.138.222 1.29 1.29 0 0 0-.062.252c-.005.026-.01.052-.06.042-.05-.01-.046-.033-.042-.06.017-.09.036-.18.07-.27a.77.77 0 0 1 .155-.255c.017-.015.036-.034.074 0 .038.037.02.056.002.075zm-4.77 4.67a.663.663 0 0 1-.1.16 1.098 1.098 0 0 1-.16.154c-.02.016-.04.033-.073-.01-.033-.04-.012-.057.007-.073a.817.817 0 0 0 .23-.27c.012-.022.02-.046.068-.03.048.02.036.048.026.07zm.747-.395a.352.352 0 0 1-.1.135.612.612 0 0 1-.163.093c-.026.01-.05.02-.066-.03-.02-.05.007-.06.03-.068a.427.427 0 0 0 .13-.073.285.285 0 0 0 .075-.097c.01-.024.02-.048.068-.026.05.02.04.04.03.064zm.99-.605a.48.48 0 0 1-.06.086.524.524 0 0 1-.107.085c-.022.02-.045.03-.07-.012-.027-.045-.006-.06.018-.07a.38.38 0 0 0 .135-.134c.014-.02.026-.044.07-.016.046.026.032.048.02.07zm1.493-3.877c-.05.14-.082.278-.094.415a1.4 1.4 0 0 0 .024.41c.005.026.012.05-.038.062-.05.012-.057-.014-.06-.04a1.397 1.397 0 0 1-.028-.444c.015-.147.048-.294.098-.438.01-.026.016-.05.066-.033.05.016.04.042.033.066zm1.013-10.316a.872.872 0 0 1-.09.343 1.4 1.4 0 0 1-.235.337c-.016.02-.035.038-.073.002-.038-.04-.02-.058-.002-.077.094-.104.168-.21.218-.31a.768.768 0 0 0 .08-.304c0-.026 0-.05.056-.05.053.003.05.03.05.055zm-1.036-.915c.09.156.145.315.176.474.03.156.038.315.028.472 0 .026 0 .052-.05.05-.052-.003-.05-.03-.05-.055a1.76 1.76 0 0 0-.026-.446 1.463 1.463 0 0 0-.163-.443c-.01-.02-.026-.045.02-.07.044-.027.06-.003.07.018zm-1.372 1.702a1.51 1.51 0 0 1-.405-.417.653.653 0 0 1-.095-.437c.005-.026.01-.05.06-.042.052.01.047.033.042.06-.02.122.01.243.08.366.077.128.202.256.377.387.022.018.043.035.012.077-.03.043-.052.026-.073.012zm1.52 2.58v.226c0 .026 0 .052-.053.052s-.052-.026-.052-.052v-.225c0-.026 0-.053.052-.053s.052.027.052.053zm-1.942-1.954c.306.288.49.637.586 1.023.06.24.083.493.09.76 0 0 .005-.004.01-.004.14-.05.244-.17.32-.37.08-.21.12-.5.124-.866a.11.11 0 0 1 .007-.026 1.9 1.9 0 0 0 .22-.536 3.49 3.49 0 0 0 .085-.543c.004-.045.066-.064.095-.026.178.252.335.512.456.792.12.28.2.576.232.898 0 .026.003.052-.05.057-.05.006-.054-.02-.056-.046a2.905 2.905 0 0 0-.223-.865 3.868 3.868 0 0 0-.364-.656 2.897 2.897 0 0 1-.072.417 1.94 1.94 0 0 1-.225.554c-.007.375-.05.67-.13.887-.086.23-.214.373-.38.43-.018.004-.03.01-.046 0-.002.13-.01.26-.02.393 0 .026-.004.052-.056.048-.054-.004-.05-.03-.05-.056.036-.432.027-.842-.07-1.21a1.977 1.977 0 0 0-.555-.975c-.02-.018-.038-.037-.002-.075s.055-.02.074-.002zm1.137 4.865c-.02.137-.042.272-.063.41-.02.135-.043.272-.064.408-.002.026-.007.052-.06.042-.05-.007-.047-.033-.042-.06l.068-.407c.02-.137.043-.272.064-.41.005-.026.007-.05.06-.042.05.01.047.033.042.06zm-2.184.927l.057.31c.004.026.01.05-.043.06-.05.01-.057-.017-.062-.043l-.056-.315c-.005-.026-.01-.05.042-.06.05-.01.057.018.06.044zm1.89-2.508a2.27 2.27 0 0 1-.16.597c-.083.196-.197.38-.346.56l-.002.004a1.127 1.127 0 0 0-.306.636 1.8 1.8 0 0 0 .064.684c.007.027.012.05-.038.065-.05.01-.057-.014-.064-.04a1.89 1.89 0 0 1-.066-.723c.03-.24.13-.472.33-.692a2.1 2.1 0 0 0 .33-.53 2.1 2.1 0 0 0 .152-.57c.003-.026.008-.052.057-.045.052.008.048.034.045.06zm-.494-.734c.035.2.005.395-.078.594a2.22 2.22 0 0 1-.387.58l-.004.003a1.83 1.83 0 0 0-.403.48c-.1.172-.173.35-.247.53-.01.024-.02.047-.07.028-.046-.02-.037-.042-.027-.066.073-.186.15-.37.254-.547.104-.177.237-.348.42-.505.163-.18.288-.364.366-.547a.915.915 0 0 0 .07-.532c-.003-.024-.008-.05.044-.06.05-.01.057.017.062.043zm-2.412 1.144c.058.398-.003.74-.153 1.038-.147.3-.38.555-.668.785-.02.016-.04.033-.077-.01-.034-.04-.012-.057.01-.073.274-.22.5-.467.64-.75.14-.28.198-.6.144-.978-.004-.026-.01-.052.044-.06.053-.006.055.02.06.046zm-3.077 1.704c.03.062.06.123.088.185.037.066.068.13.098.197.012.023.022.047-.023.068-.048.022-.06 0-.07-.023-.03-.067-.063-.13-.094-.197l-.09-.182c-.01-.024-.02-.048.026-.07.048-.02.06 0 .07.025zm-1.22.024a2.69 2.69 0 0 0 .073.69c.06.222.154.438.31.644l.005.01c.08.158.127.317.158.478.02.12.036.237.043.356.15-.16.263-.32.346-.488a1.44 1.44 0 0 0 .15-.605c0-.026 0-.052.05-.05.053 0 .053.027.05.053a1.55 1.55 0 0 1-.158.647c-.102.208-.25.407-.448.6-.03.03-.087.01-.09-.036a3.252 3.252 0 0 0-.046-.454 1.762 1.762 0 0 0-.142-.448 1.94 1.94 0 0 1-.324-.677 2.703 2.703 0 0 1-.08-.72c0-.025 0-.05.053-.05s.054.025.054.052zm.165 4.168a2.63 2.63 0 0 1 .18-.766c.01-.022.02-.046.067-.027.05.02.038.042.03.066a2.524 2.524 0 0 0-.173.732c-.002.027-.002.053-.056.048-.053-.003-.05-.03-.048-.055zm-.142 1.162c.02-.154.043-.308.064-.462.002-.026.007-.052.06-.045.05.007.047.033.044.06-.02.153-.042.307-.064.46-.002.027-.007.053-.06.046-.05-.003-.046-.03-.044-.055zm-.8 1.946c.077-.076.15-.166.22-.266.07-.102.137-.213.203-.33.01-.023.022-.044.07-.02.042.026.03.047.02.07a4.037 4.037 0 0 1-.21.34c-.076.104-.15.2-.235.28-.02.018-.038.035-.073 0-.036-.036-.017-.055 0-.074zm-1.153-6.53v.192c0 .026 0 .053-.052.053-.05 0-.05-.027-.05-.053v-.192c0-.026 0-.052.05-.052.056 0 .056.026.056.052zm-1.953 4.5a2.863 2.863 0 0 0-.01-.143l-.01-.145c0-.026 0-.052.05-.055.053-.002.056.022.056.05l.01.142c0 .048.004.095.01.143 0 .026 0 .052-.05.054-.053.002-.056-.02-.056-.05zm4.904-8.002c-.1.343-.178.7-.17 1.007.004.296.087.543.3.68.25.16.358.403.462.638l.02.046c.03-.116.056-.24.068-.362.017-.15.017-.298-.005-.43-.01-.027-.01-.053.04-.062.05-.01.056.017.06.043.022.142.022.3.005.46-.02.178-.06.358-.11.514-.015.042-.077.047-.096.006a5.946 5.946 0 0 1-.078-.17c-.097-.22-.2-.447-.424-.592-.25-.157-.346-.435-.35-.764-.008-.318.07-.685.172-1.038.007-.026.014-.05.064-.036.05.013.043.037.036.063zm-.344-1.31a2.52 2.52 0 0 1-.02.762 4.006 4.006 0 0 1-.233.76 2.41 2.41 0 0 0-.166 1c.02.34.108.676.26.996.016.024.028.048-.02.07-.05.023-.06 0-.07-.025a2.537 2.537 0 0 1-.1-2.08 3.8 3.8 0 0 0 .228-.744c.045-.238.054-.475.02-.73-.002-.027-.006-.053.046-.06.05-.007.055.02.06.045zm-2.277 3.24a.79.79 0 0 0-.06.47c.03.16.097.32.195.48.014.023.026.047-.017.073-.04.022-.055 0-.07-.02a1.504 1.504 0 0 1-.203-.52.876.876 0 0 1 .066-.53c.013-.02.02-.046.07-.025.047.022.035.045.026.07zm-.993-.354c.016.092.02.2.01.31a.858.858 0 0 1-.07.27v.003a.397.397 0 0 0-.038.263c.02.092.067.185.13.28.015.02.03.042-.014.073-.042.035-.056.01-.073-.01a.852.852 0 0 1-.147-.32.484.484 0 0 1 .047-.33.76.76 0 0 0 .062-.235c.01-.098.005-.197-.01-.282-.004-.024-.01-.05.043-.06.052-.007.057.02.06.045zm5.806-8.602a2.318 2.318 0 0 0 .313 1.468c.01.02.022.045-.02.07-.048.027-.06.003-.07-.018a2.59 2.59 0 0 1-.29-.723 2.33 2.33 0 0 1-.04-.806c.003-.022.006-.05.058-.04.052.004.05.03.045.056zm-.728.705c.136.24.252.497.34.78.087.282.146.592.168.936.002.03.002.056-.05.058-.052.003-.052-.024-.055-.05a3.77 3.77 0 0 0-.49-1.668c-.01-.025-.025-.046.02-.07.045-.028.06-.005.07.017zm-3.608.11c-.347.497-.5.9-.527 1.248-.03.346.064.635.2.903l.004.007c.094.275.137.547.13.822a2.58 2.58 0 0 1-.16.82c-.008.026-.015.05-.065.03-.05-.015-.04-.042-.03-.065.094-.263.146-.524.153-.787a2.25 2.25 0 0 0-.123-.782 1.7 1.7 0 0 1-.21-.95c.03-.366.186-.788.546-1.3.015-.02.03-.043.074-.014.042.03.028.052.012.073zm3.364-1.425c.03.15.017.305-.052.457-.06.14-.168.272-.327.398a.81.81 0 0 0-.3.486c-.044.205-.034.44.016.7.008.03.01.055-.04.065-.05.01-.056-.017-.06-.043-.05-.277-.06-.524-.01-.74a.913.913 0 0 1 .334-.545.986.986 0 0 0 .297-.357c.06-.13.07-.266.045-.394-.004-.026-.01-.05.04-.06.05-.01.058.015.062.04zm-3.562.305c.07.22.07.436.007.652-.065.213-.19.424-.388.63l-.004.005a1.21 1.21 0 0 0-.37.576 2.87 2.87 0 0 0-.116.737c-.003.026-.003.052-.055.05-.053-.003-.05-.03-.05-.055a3.04 3.04 0 0 1 .12-.763 1.28 1.28 0 0 1 .4-.62c.18-.195.3-.392.36-.59a1.01 1.01 0 0 0-.008-.59c-.008-.027-.018-.05.032-.065.05-.014.057.01.064.036zm2.038.107a.763.763 0 0 0 0 .232c.012.074.04.145.088.213.014.022.03.043-.014.074-.043.03-.057.01-.074-.01a.628.628 0 0 1-.104-.254.816.816 0 0 1 0-.263c.002-.025.007-.05.06-.044.052.006.047.032.044.06zm-.097-.536a.853.853 0 0 0-.43.4c-.1.188-.16.43-.18.726.013.014.02.026.02.036.1.135.168.296.21.476.048.197.065.42.058.66 0 .027 0 .053-.05.05-.053 0-.05-.028-.05-.05a2.423 2.423 0 0 0-.055-.636c-.038-.16-.097-.3-.18-.42-.386.36-.576.758-.588 1.192-.014.453.164.946.505 1.472.014.02.03.045-.014.073-.043.03-.057.005-.07-.016-.354-.55-.537-1.06-.523-1.535.015-.467.218-.894.638-1.278v-.003c.017-.325.08-.59.193-.8a.955.955 0 0 1 .483-.447c.023-.008.047-.018.07.03.017.047-.007.06-.03.07zm-.578-.75c-.005.044-.01.077-.012.113-.026.242-.052.52-.24.69a.83.83 0 0 0-.217.315 1.61 1.61 0 0 0-.088.39c-.002.025-.005.05-.057.044-.05-.005-.043-.03-.04-.06a1.71 1.71 0 0 1 .094-.414.92.92 0 0 1 .245-.358c.155-.14.184-.4.205-.625a2.69 2.69 0 0 0 .013-.114c.002-.026.007-.05.06-.045.05.007.047.033.044.06zm5.662 6.042c.062.128.11.26.144.396.038.135.05.275.047.42 0 .026-.002.052-.054.05-.052-.003-.05-.03-.05-.055a1.433 1.433 0 0 0-.037-.395c-.03-.126-.08-.25-.14-.375-.012-.022-.02-.046.026-.067.048-.022.057 0 .07.023zm.016 1.858c.046.214.048.432.01.65-.038.218-.12.44-.237.666l-.24.562c-.01.023-.02.047-.068.028-.048-.02-.038-.045-.03-.07.082-.186.16-.376.24-.563l.003-.01a2.15 2.15 0 0 0 .23-.634 1.606 1.606 0 0 0-.005-.612c-.005-.026-.01-.052.04-.062.05-.012.057.014.06.04zm-1.18-1.73c.34.377.56.775.664 1.195.106.42.095.86-.033 1.32-.007.03-.015.05-.064.04-.05-.015-.043-.04-.036-.064.123-.444.135-.866.033-1.268-.102-.403-.315-.787-.642-1.152-.017-.02-.033-.038.005-.074s.057-.014.073.005zm-.103 2.086a5.328 5.328 0 0 1-.867 1.322 2.52 2.52 0 0 0-.54.94c-.014.046-.104.03-.1-.02a1.453 1.453 0 0 0-.05-.47 1.866 1.866 0 0 0-.21-.47c-.19-.278-.27-.56-.256-.84.017-.28.128-.557.327-.834.114-.194.195-.39.252-.585a2.39 2.39 0 0 0 .092-.588c0-.026.002-.052.055-.05.052.002.05.028.05.054a2.61 2.61 0 0 1-.36 1.227l-.003.005c-.188.263-.294.524-.308.78-.015.263.064.52.24.78v.004c.1.166.174.332.222.5.02.08.038.157.047.235a2.65 2.65 0 0 1 .47-.73 4.92 4.92 0 0 0 .5-.65c.14-.215.255-.43.354-.646.013-.024.023-.048.07-.026.047.02.036.045.026.068zm-3.094-.995c-.007.258.017.5.07.727.05.225.136.436.255.63.018.022.03.046-.013.072-.045.028-.057.004-.07-.017a2.254 2.254 0 0 1-.27-.66 2.994 2.994 0 0 1-.07-.756c0-.026.003-.053.052-.05.05.002.05.028.05.052zm-1.76.943v.302c0 .027 0 .053-.053.053s-.052-.026-.052-.052v-.303c0-.026 0-.052.056-.052.052 0 .052.026.052.052zm.582-1.61c.005.178-.02.35-.073.517a1.437 1.437 0 0 1-.273.474c-.016.02-.033.045-.073.01-.045-.034-.026-.053-.01-.074.12-.14.2-.287.25-.44a1.37 1.37 0 0 0 .07-.482c0-.025 0-.052.05-.052.053 0 .053.028.053.05zm-1.585 3.124c-.285-.708-.353-1.27-.282-1.727a1.99 1.99 0 0 1 .568-1.1c.187-.192.35-.382.457-.62.107-.236.157-.52.12-.904-.004-.026-.006-.052.046-.057.05-.005.05.02.057.047.038.403-.014.704-.128.958-.11.255-.283.45-.477.65a1.87 1.87 0 0 0-.535 1.046c-.07.44 0 .986.277 1.676.01.023.02.047-.028.066-.048.02-.06-.005-.07-.028zm-.915-1.164a.72.72 0 0 0-.045.344c.012.114.054.23.125.346.015.022.03.045-.016.07-.045.03-.057.006-.07-.015a.942.942 0 0 1-.14-.39.83.83 0 0 1 .05-.39c.01-.024.02-.047.067-.03.05.018.034.042.03.066zm4.498-3.194c.187.263.296.535.318.82.02.284-.043.578-.204.884-.012.02-.024.045-.07.02-.046-.022-.032-.046-.02-.068.15-.286.213-.56.192-.827a1.51 1.51 0 0 0-.3-.768c-.015-.02-.03-.042.013-.073.043-.03.057-.01.073.012zm1.406-1.1a2.402 2.402 0 0 1 .07 1.67c-.014.048-.1.04-.1-.013a1.784 1.784 0 0 0-.162-.702 1.523 1.523 0 0 0-.43-.53c-.018-.018-.04-.035-.007-.075.034-.04.053-.024.074-.007.2.16.353.35.457.57.064.136.112.283.14.44.03-.173.045-.346.038-.52a2.25 2.25 0 0 0-.175-.79c-.01-.025-.02-.048.028-.07.048-.02.06.005.07.03zm.834-1.14c.185.183.315.424.396.723.078.29.106.64.092 1.032v.002a2.02 2.02 0 0 0-.007.484.95.95 0 0 0 .137.41c.015.02.03.045-.014.073-.045.03-.06.006-.073-.016a1.06 1.06 0 0 1-.154-.455 2.28 2.28 0 0 1 .007-.507v.003a3.518 3.518 0 0 0-.088-1.005 1.478 1.478 0 0 0-.367-.675c-.02-.02-.038-.035 0-.073.035-.038.054-.02.073 0zm-2.214-.22c-.12.147-.194.32-.23.512-.035.194-.03.407.005.64.005.026.01.05-.043.06-.05.008-.054-.018-.06-.044a2.023 2.023 0 0 1-.004-.675c.038-.21.12-.4.252-.56.016-.02.033-.04.073-.01.04.033.024.05.007.073zm-4.34 2.922a1.98 1.98 0 0 1-.345 1.07 2.485 2.485 0 0 1-.8.705c-.023.014-.046.026-.072-.02-.027-.044-.005-.056.018-.07.31-.182.576-.4.768-.675.196-.273.315-.605.33-1.015 0-.026.006-.052.058-.05.052.003.05.03.05.055zm-.112-1.493c.025.16.016.317-.02.474a2.172 2.172 0 0 1-.175.463c-.012.023-.024.045-.07.023-.047-.024-.035-.048-.023-.07.076-.15.135-.298.168-.442.034-.145.043-.287.022-.437-.003-.026-.007-.05.045-.06.052-.006.057.02.06.046zm2.94-.215v.146l.05.763.005.065c.002.026.002.052-.048.057h-.016c-.003.01-.015.014-.04.014-.05 0-.05-.027-.05-.053v-.844l-.015-.206c-.003-.026-.005-.052.047-.057.05-.002.055.022.057.048v.016c.01.01.01.027.01.044zm.71-1.31c-.21.252-.293.496-.297.736-.005.24.068.478.177.715.247.4.327.79.3 1.19-.022.393-.153.784-.326 1.175-.012.024-.02.047-.07.026-.046-.02-.034-.045-.025-.07.17-.38.29-.76.314-1.14a1.848 1.848 0 0 0-.287-1.127l-.003-.004c-.116-.25-.195-.505-.19-.766.005-.262.097-.528.32-.8.017-.02.033-.04.074-.007.04.033.023.052.007.073zm-4.56-8.128c.345-.263.68-.412 1.035-.45.35-.036.713.04 1.106.225.135-.003.265-.003.395-.005.133-.002.268-.005.4-.005.027 0 .053 0 .053.052s-.026.05-.052.05c-.135 0-.268.003-.4.003-.12.003-.24.003-.36.005l-.008.007c-.422.372-.782.576-1.102.642a1.06 1.06 0 0 1-.872-.19c-.025-.02-.05-.038-.016-.09.036-.05.064-.036.09-.017a.96.96 0 0 0 .773.168c.28-.06.597-.23.97-.546-.342-.15-.655-.21-.956-.178-.326.033-.643.176-.968.424-.026.02-.052.04-.09-.01-.038-.052-.014-.07.012-.09z"/><path d="M351.64 100.993a.26.26 0 0 1 .26.26.26.26 0 0 1-.26.26.26.26 0 0 1-.26-.26.26.26 0 0 1 .26-.26zm1.794 1.577c.188-.098.332-.203.453-.31.12-.106.213-.215.294-.324.018-.02.035-.043.077-.012.043.03.027.052.012.074a2.265 2.265 0 0 1-.31.343c-.125.116-.277.22-.474.32-.023.016-.047.028-.07-.02-.022-.042 0-.06.023-.07zm3.7-1.532a.522.522 0 0 1 .29.002.766.766 0 0 1 .28.154c.018.017.04.033.006.074-.033.04-.052.023-.074.007a.666.666 0 0 0-.24-.133.463.463 0 0 0-.236-.002c-.026.007-.05.014-.064-.038-.014-.05.012-.057.036-.064zm-2.116.085a.852.852 0 0 1 .38-.426c.172-.09.387-.128.65-.105.027.003.053.005.048.057-.005.05-.03.05-.057.044-.248-.022-.445.01-.596.092a.728.728 0 0 0-.335.376c-.01.024-.02.047-.068.026-.048-.02-.038-.046-.026-.07zm.242.347a.423.423 0 0 1 .115-.24.558.558 0 0 1 .268-.147c.026-.007.05-.014.064.035.014.05-.012.057-.035.064a.445.445 0 0 0-.218.12.346.346 0 0 0-.088.184c-.005.026-.01.05-.06.042-.05-.007-.047-.033-.042-.06zm-3.522 1.17c-.057.09-.11.182-.147.282a.823.823 0 0 0-.044.332c.003.026.005.052-.047.054-.053.003-.056-.02-.058-.047a.944.944 0 0 1 .05-.37c.04-.11.097-.21.158-.304.015-.02.03-.045.072-.017.043.03.03.05.014.07zm1.01.453v.156c0 .022 0 .05-.053.05s-.052-.028-.052-.05v-.16c0-.026 0-.053.052-.053s.052.026.052.052zm-.658-1.128a.96.96 0 0 0 .31.06c.105 0 .212-.015.316-.04.026-.004.05-.01.062.04.012.05-.014.056-.038.063a1.4 1.4 0 0 1-.34.04.995.995 0 0 1-.347-.066c-.026-.01-.05-.02-.03-.067.018-.05.042-.038.065-.03zm.65-1.895a.318.318 0 0 0-.21.065.377.377 0 0 0-.13.19c-.006.026-.013.05-.063.035-.05-.014-.043-.04-.035-.064a.49.49 0 0 1 .168-.242.43.43 0 0 1 .272-.085c.026 0 .053 0 .053.05s-.027.05-.053.05zm-1.05.108a.796.796 0 0 0-.187.11.254.254 0 0 0-.083.112c-.01.026-.017.05-.066.033-.05-.016-.04-.04-.034-.066.02-.06.06-.11.117-.16a.863.863 0 0 1 .215-.127c.024-.01.048-.02.067.03.02.046-.007.058-.03.068zm-.647.018a.82.82 0 0 0-.163.147.67.67 0 0 0-.107.183c-.01.024-.017.05-.066.03-.048-.016-.04-.042-.03-.066a.737.737 0 0 1 .122-.213.9.9 0 0 1 .18-.168c.02-.018.044-.03.074.01s.01.057-.014.073zm-.833.666a1.702 1.702 0 0 0-.378.392c-.014.02-.03.042-.073.01-.047-.03-.03-.05-.016-.072.06-.083.123-.16.19-.228.066-.068.137-.13.21-.184.022-.017.043-.03.074.01.03.042.01.056-.01.072zm.084.918c-.05.054-.1.11-.15.16l-.15.162c-.017.02-.036.038-.074.002-.038-.035-.022-.054-.003-.073l.15-.16.15-.16c.018-.02.037-.04.075 0 .038.035.02.054.002.073zm-.84.244v.322c0 .026 0 .052-.053.052-.05 0-.05-.026-.05-.052v-.322c0-.026 0-.052.05-.052.056 0 .056.026.056.052zm1.076 1.416c-.015.176-.032.352-.05.53 0 .016 0 .033-.003.05-.003.025-.005.05-.057.047-.052-.005-.05-.03-.048-.057.003-.017.003-.033.005-.05l.05-.528c.002-.027.005-.053.057-.048.052.005.05.03.047.057zm-.632-.468c-.002.114-.007.23-.01.343 0 .026-.004.053-.056.05-.052-.002-.05-.028-.05-.052.003-.116.007-.23.012-.346 0-.026.002-.052.055-.05.05.003.045.03.045.055zm-.588-4.49a.73.73 0 0 1 .467.468c.01.026.017.05-.033.066-.05.017-.057-.01-.066-.033a.65.65 0 0 0-.156-.254.696.696 0 0 0-.25-.155c-.023-.01-.047-.02-.03-.067.02-.05.043-.04.066-.03zm5.162 6.732c.1.225.155.45.157.673 0 .225-.04.45-.14.675-.01.024-.02.048-.066.03-.047-.02-.037-.046-.028-.07a1.547 1.547 0 0 0-.022-1.266c-.012-.023-.022-.047.026-.068.048-.022.06.002.07.026zm-1.682 1.946c.073-.254.18-.474.303-.676.123-.2.263-.384.403-.564.16-.21.268-.436.325-.668a1.82 1.82 0 0 0 .02-.76c-.002-.025-.01-.048.045-.058.05-.01.057.017.06.043.047.26.045.533-.02.8-.06.247-.17.49-.343.71a6.316 6.316 0 0 0-.396.554c-.118.198-.223.41-.29.65-.008.03-.016.05-.065.04-.05-.015-.043-.04-.036-.065zm-2.164-.572a.718.718 0 0 1 .16-.25.902.902 0 0 1 .262-.186c.024-.012.047-.02.07.024.02.047 0 .06-.027.07a.795.795 0 0 0-.23.162.573.573 0 0 0-.136.216c-.01.024-.018.05-.066.03-.047-.016-.04-.042-.03-.066zm-.42-.15c.08-.106.162-.203.254-.288.095-.088.202-.16.325-.21.023-.01.047-.02.066.027.02.05 0 .06-.03.067a.967.967 0 0 0-.29.19 2.06 2.06 0 0 0-.24.274c-.017.022-.03.043-.073.01-.043-.03-.026-.052-.01-.074zm2.244-2.224c.09.04.174.06.257.06a.826.826 0 0 0 .242-.03c.022-.007.045-.014.06.036.014.05-.01.057-.036.064a.794.794 0 0 1-.57-.036c-.022-.01-.046-.02-.025-.068.02-.048.045-.036.07-.026zm-1.118-.144c.026-.032.052-.06.078-.09l.01-.013c.017-.02.035-.038.073-.005.038.036.022.055.005.074l-.01.012c-.025.03-.05.06-.08.09-.017.02-.033.038-.073.005-.038-.034-.022-.055-.005-.074zm24.136 6.962c.05.055.093.112.13.173.036.062.065.126.088.194.01.023.017.05-.033.06-.05.017-.057-.01-.066-.033a.76.76 0 0 0-.078-.174.796.796 0 0 0-.12-.154c-.017-.02-.036-.04.002-.074.038-.037.057-.018.073 0zm-26.795 12.575c.114.105.232.2.363.266a.95.95 0 0 0 .43.104c.027 0 .053 0 .053.052 0 .05-.03.05-.056.05-.178 0-.334-.047-.48-.118-.14-.07-.267-.17-.385-.28-.02-.016-.038-.035 0-.073.033-.038.052-.02.07 0z"/><g fill="red"><path d="M368.9 99.6a8.222 8.222 0 0 0 1.655-.08c-.52.378-1.187.63-1.905.75a.77.77 0 0 0 .27-.34.426.426 0 0 0-.02-.33zm-1.42-.148c.385.064.786.11 1.182.135.004.01.012.017.016.026.064.088.083.173.055.256-.033.09-.123.19-.27.293-.04.028-.08.057-.024.135a5.63 5.63 0 0 1-1.218.02.177.177 0 0 0 .04-.032c.145-.154.238-.31.264-.474a.627.627 0 0 0-.05-.362zm-10.49-3.014c.668-.088 1.348-.11 2.04-.093a.985.985 0 0 1 .5.406c.114.2.154.46.107.788-.007.047-.014.097.083.11.097.013.104-.037.11-.084.05-.37.003-.67-.132-.907a1.046 1.046 0 0 0-.256-.294c.062.003.124.005.185.01.797.043 1.415.27 2.107.614a.118.118 0 0 1 .017.02c.15.153.2.312.177.475-.026.173-.13.36-.296.55-.03.04-.064.076.01.14.075.064.108.026.14-.012.186-.22.31-.44.34-.652a.696.696 0 0 0-.035-.348c.583.29 1.175.566 1.75.87.013.007.025.01.037.02 0 .01.006.025.01.036a.484.484 0 0 1-.05.425c-.09.125-.248.234-.477.32-.045.016-.09.033-.056.125.032.09.08.074.124.057.27-.102.46-.232.57-.393a.63.63 0 0 0 .106-.454c.38.206.763.42 1.154.607v.003c.07.138.082.26.027.375-.057.12-.19.235-.4.34-.043.02-.09.042-.045.13.042.09.087.066.13.045.254-.124.415-.27.49-.43a.544.544 0 0 0 .043-.345c.135.06.273.116.413.168a8.1 8.1 0 0 0 1.32.35.466.466 0 0 1 .11.377.736.736 0 0 1-.21.368c-.034.035-.067.068 0 .137a.27.27 0 0 0 .03.026c-1.48-.15-2.797-.86-4.176-1.392-.162-.063-.33-.125-.49-.19-.51-.19-1.025-.452-1.537-.66a.16.16 0 0 0-.066-.033c-.035-.01-.07-.023-.104-.032-.02-.01-.044-.016-.065-.026.003.003.008.005.01.008a8.477 8.477 0 0 0-1.417-.33 6.112 6.112 0 0 0-1.627-.018l-.09-.014c.05-.292.01-.548-.134-.77a1.25 1.25 0 0 0-.47-.415z"/><path d="M354.565 97.09a8.688 8.688 0 0 1 2.074-.603c.32.128.53.285.652.47.116.182.145.395.104.642a4.197 4.197 0 0 0-1.84.222c-.156-.33-.367-.53-.614-.638a1.243 1.243 0 0 0-.38-.1zm7.458 3.772a9.414 9.414 0 0 0-.56-.334 6.92 6.92 0 0 0-3.037-.86c.01-.007.016-.017.026-.024.377-.384.46-.746.332-1.085-.1-.267-.33-.51-.647-.73.355-.02.684 0 1.054.053.526.073 1.2.25 1.817.497.152.333.195.625.128.87-.07.26-.263.475-.576.653-.043.024-.086.047-.04.133.048.085.09.06.133.035.364-.202.586-.46.67-.77.063-.24.044-.51-.062-.812.418.187.795.41 1.058.654a30.6 30.6 0 0 1 1.014.728c.004.42-.12.66-.324.785-.215.13-.523.147-.874.112-.046-.005-.096-.01-.106.087v.005z"/><path d="M364.052 102.39c-.616-.482-1.218-.985-1.865-1.42.358.03.678 0 .92-.143.234-.145.388-.396.414-.806.39.3.76.618 1.116.957.177.168.355.334.538.498 0 .002.003.004.003.01.043.15.057.28.045.39a.46.46 0 0 1-.11.263.547.547 0 0 1-.273.154c-.174.05-.4.06-.676.03-.045-.006-.093-.01-.105.072z"/><path d="M366.178 103.79c-.213-.11-.417-.223-.614-.34-.472-.28-.915-.6-1.348-.933.265.02.488.007.668-.043a.75.75 0 0 0 .365-.21c.09-.1.14-.224.16-.375a.922.922 0 0 0-.005-.218c.424.363.87.7 1.35.993.252.154.505.3.757.434-.003.017 0 .033.002.052.03.195-.078.318-.277.396-.234.09-.58.13-.975.152-.045.002-.088.005-.093.08z"/><path d="M368.448 104.68a11.886 11.886 0 0 1-2.054-.782c.365-.026.687-.068.92-.16.262-.105.414-.266.404-.524a10.8 10.8 0 0 0 1.273.55c.08.168.085.305.01.42-.082.143-.27.262-.5.364-.046.02-.09.04-.05.128v.002z"/><path d="M373.18 104.2c.06-.01.44-.11.243.035-1.394.912-3.162.91-4.828.48.26-.115.47-.255.576-.43a.57.57 0 0 0 .06-.443 8.83 8.83 0 0 0 1.625.367.376.376 0 0 1-.088.25c-.088.11-.237.215-.48.322-.046.02-.09.038-.05.128.037.09.082.07.127.05.276-.12.454-.25.558-.38a.55.55 0 0 0 .13-.352 8.963 8.963 0 0 0 2.134-.034zm-9.638 24.005c-.104.11-.19.23-.277.372-.405.135-.763.337-1.2.318 0 .282.093.405.375.407.538-.27.66-.32.707-.282.066.057-.076.444-.522.756-.068.043-.066.07-.026.14.373.59 1.36.38 1.892.24.38-.1 1.064-.55 1.254-.93.072-.172-.093-.4-.26-.585-.42.068-.563-.13-.497-.26-.443-.158-.936-.19-1.45-.17zm-15.152-4.775c-.307.25-.65.45-1.05.583-.153.05-.52.14-.556.33-.005.07.247.22.408.132.445-.427.668-.19.156.246-.04.087-.007.18.08.258.463.415 1.608.55 2.13.22.385-.24.587-.507.25-.874a1.74 1.74 0 0 1 .026-.246l-.637-.064-.39-.227-.416-.353zm9.974 3.47c-.038.004-.078.01-.116.016-.206.223.36.14.66.325.14.087.198.25.143.478-.273.66-1.82.447-2.335.175-.24-.125-.25-.27-.24-.475.107 0 .216-.008.325-.024.184-.025.367-.08.547-.182.05-.027.102-.06.045-.157-.056-.103-.11-.075-.16-.046a1.294 1.294 0 0 1-.462.153 2.57 2.57 0 0 1-.486.017h-.04c-.09-.052-.158-.114-.12-.168.038-.053.187.004.215.013.24-.11.446-.182.705-.232.035-.035.068-.073.104-.11.47.04.92.113 1.22.22zm-7.154-.406c-.096.057-.13.137-.198.287-.27.276-.528.44-.874.596-.287.13-.01.256.192.394.182.134.422-.16.57-.383.164-.246.33-.173.224.02-.12.21-.204.513-.216.672-.062.17.588.3.7.304.395.02.893-.367 1.203-.564.26-.263.22-.493.108-.813l.003-.02a1.97 1.97 0 0 1-.477-.05 3.432 3.432 0 0 1-.558-.184c-.024-.01-.047-.02-.028-.068.01-.03.026-.038.042-.036l-.683-.158zm2.77-26.378c.11-.005.218-.01.324.002.202.024.394.112.595.135.67-.253 1.23-.393 1.71-.372a5.68 5.68 0 0 1 1.725-.214.076.076 0 0 1-.02-.02c-.07-.067-.037-.103 0-.136.314-.32.387-.615.285-.88-.103-.275-.387-.534-.783-.77-.423.047-.828-.067-1.276-.017a4.06 4.06 0 0 0-.823.183c.224.08.42.213.582.403.2.233.34.553.415.956.01.047.016.094-.08.113-.094.02-.103-.03-.113-.08-.067-.368-.195-.657-.373-.868-.19-.268-.618-.372-.75-.427-.45.045-.89.095-1.276.194-.29.072-.544.174-.738.326.29-.062.59-.05.85.08.25.123.46.356.593.732.016.042.03.09-.063.12s-.11-.014-.123-.06c-.11-.325-.287-.52-.493-.62-.41-.205-1.256-.027-1.614.24a4.23 4.23 0 0 0-.623.59c-.02.027-.045.05-.073.053.766.053 1.54.094 2.136.333zm-2.278-.434c-.017-.042.012-.073.038-.104.216-.244.434-.46.66-.626.217-.16.442-.277.674-.332.237-.263.588-.42.996-.526.395-.102.848-.154 1.305-.2-.135-.27-.308-.435-.507-.523-.213-.09-.46-.105-.723-.08-.552.19-1.042.487-1.514.82.047 0 .09 0 .13.004.14.01.265-.01.38.034.05.017.094.033.06.126-.04.11-.346.042-.452.035a1.352 1.352 0 0 0-.4.037c-.024.005-.046.012-.067.005-.495.307-.87.617-1.27.956.303.107.54.232.694.38z"/></g><path d="M409.028 156.5l20.742-47.013-15.3-24.705-27.287 10.103-12.63 49.687a219.388 219.388 0 0 1 34.472 11.93z" fill="#0093dd"/><path d="M382.576 113.013a251.716 251.716 0 0 1 39.59 13.704l-8.003 18.147a231.952 231.952 0 0 0-36.474-12.623z" fill="#fff"/><path d="M415.45 141.95l5.347-12.12a248.557 248.557 0 0 0-39.055-13.518l-3.152 12.398a235.895 235.895 0 0 1 37.045 12.822l-.185.417z" fill="red"/><path d="M385.59 125.755c.358-.226.74-.17 1.124-.11.31-.116.668-.156 1.057-.142.17-.09.36-.154.58-.194.116-.09.12-.19.016-.296a.62.62 0 0 1-.158-.353c-.616-.356-.844-.902-1.08-1.442-.35-.09-.513-.21-.55-.344-.17-.016-.34-.033-.508-.052-.8.088-1.006-.17-1.29-.38-.237-.08-.444-.21-.576-.46l-.263-.33c-.22-.278-.15-.645.178-.624.233.028.463.028.676-.064.25-.112.62-.11.903-.086.334-.02.545-.235.87-.54-.003-.13-.003-.257-.005-.387-.05-.14.015-.2.2-.182a.98.98 0 0 1 .867.508c.504.087.902.33 1.17.753.67.005 1.124.26 1.18.507.04.182-.158.39-.46.614 0 .047.003.094.003.14.18.156.3.312.36.466.378.145.738.34 1.075.623.96-.11 2.578.585 4.766 1.98a18.58 18.58 0 0 1 4.12 1.218c.28.01.56.016.837.025 2.373-.35 4.67-.08 6.805 1.55.807.097 1.53.35 2.23.64.52.213 1.046.296 1.58.346a7.93 7.93 0 0 1 2.604.697c.973.218 1.883.524 2.447 1.206.403.484.306.93-.204 1.114-.308.65-.922.678-1.84.358-.634.116-1.33-.39-1.964-.867-.88-.284-1.687-.79-2.486-1.33-.416-.31-.835-.51-1.243-.597-.32-.067-.605-.112-.797 0-.096.058-.084.09 0 .16.22.187.38.467.43.804.043.296-.005.637.012 1 .02.38.25.66.633.896.264.16.576.33 1.03.396.215.043.276.17.27.332.12.578.232 1.16.443 1.685.06.15.174.22.344.346.586.422.28.894-.25.996-.47.412-.87.69-1.35.798-.38.128-.54-.028-.666-.215a.483.483 0 0 1-.443-.25c-.466-.342-.067-.94 1.05-.684.023-.13.117-.17.212-.168-.065-.29-.103-.61.02-.914-.097-.064-.182-.145-.327-.192-.403-.128-.784-.313-1.085-.595-.572-.538-1.465-.99-2.325-1.44-.71-.037-1.24-.364-1.797-.64l-.754-.01c-.22-.074-.4.002-.535.16-.223.27-.48.226-.787.19-.35-.04-.706-.014-1.057-.02-.172.044-.342.098-.53.1-.395-.02-.782-.025-1.045.195-.218.23-.436.213-.654.128a.978.978 0 0 1-.35-.242c-.275-.056-.452-.124-.512-.207-.463-.13-.593-.26-.572-.39-.613-.147-.32-.63.077-.647.47-.02.898.07 1.358.135.387.11.864.047 1.18-.24.203-.183.28-.34.53-.48-.796-.05-1.38-.19-1.813-.463-1.16-.733-2.09-.91-2.83-.29-.196.112-.35.157-.56.076a1.063 1.063 0 0 0-.584-.027c-.42.095-.834.043-1.253-.11a4.09 4.09 0 0 1-1.84.063c-.518.272-.898.303-1.14.094a8.548 8.548 0 0 1-.646-.397c-.33-.05-.472-.132-.486-.242-.42-.045-.473-.2-.47-.367-.176-.202-.11-.356.065-.486.313-.13.638-.18.998.005.217.102.376.2.506.303.24-.03.446 0 .626.066.134-.21.51-.217.924-.194.206-.137.452-.234.768-.263-.01-.05-.018-.1-.026-.147-.414-.11-.628-.41-.834-.712-.637-.012-1.095-.28-1.55-.56-.374.032-.675-.092-.967-.267-.238.02-.5.03-.75-.034a2.55 2.55 0 0 1-1.4 0c-.31.03-.56-.002-.816-.026-.29.333-.617.393-.975.222-.197-.25-.476-.414-.83-.507-.267-.087-.35-.204-.398-.33-.327-.2-.26-.4.055-.55.237-.115.533-.136.983.086.147.054.31.092.496.106z"/><path d="M401.218 130.518c-.03-.054-.097-.192-.336-.054-.742-.04-1.57-.03-2.195-.398-.65-.382-1.318-.78-2.036-.752.218-.2.48-.34.79-.422.414-.11.9-.116 1.44-.028.76.123 1.43.27 1.946.465.497.183.848.415 1.002.714a.406.406 0 0 0 .043.047c.2.13.37.26.516.397.11.1.204.207.285.32a2.5 2.5 0 0 1-.714-.042 2.875 2.875 0 0 1-.74-.256z" fill="#fff"/><path d="M402.925 94.71l.042.223.934 4.835-3.71 3.237-.17.15.215.075 4.655 1.61.945 4.834.045.223.17-.15 3.72-3.225 4.662 1.597.217.07-.046-.223-.934-4.838 3.715-3.238.17-.15-.215-.073-4.655-1.613-.945-4.834-.046-.222-.17.15-3.724 3.228-4.66-1.6z"/><path d="M400.65 102.95l3.47-3.024 4.362 1.503zm8.41-1.632l3.482-3.027 4.35 1.51zm7.862-1.368l-3.47 3.024-4.363-1.502zm-8.412 1.635l-3.48 3.024-4.35-1.506zm-5.092-6.43l4.353 1.494.886 4.525zm5.622 6.465l4.36 1.503.872 4.52zm5.114 6.125l-4.354-1.49-.88-4.53zm-5.622-6.465l-4.36-1.5-.873-4.52zm3.022-7.627l.884 4.517-3.482 3.027zm-2.79 8.1l.88 4.53-3.477 3.017zm-2.746 7.495l-.884-4.518 3.48-3.026zm2.79-8.1l-.88-4.53 3.477-3.015z" fill="#f7db17"/></svg>