<svg xmlns="http://www.w3.org/2000/svg" viewBox="0 0 640 480"><defs><clipPath id="a"><path fill-opacity=".67" d="M-85.31 0h682.67v512H-85.31z"/></clipPath></defs><g clip-path="url(#a)" fill-rule="evenodd" transform="translate(79.98) scale(.9375)"><path fill="#fff" d="M-191.96 0h896v512h-896z"/><path fill="#da0000" d="M-191.96 343.84h896V512h-896z"/><g stroke-width="1pt" fill="#fff"><path d="M-21.628 350.958h49.07v3.377h-49.07zm7.316 16.884h3.377v3.28h-3.377zm41.882-.106v3.377h-9.807v-3.377zm5.274-16.778h3.377v20.16h-3.375z"/><path d="M52.38 367.736v3.377H33.793v-3.377zm-34.617-7.887h3.377v11.27h-3.377z"/><path d="M49.614 350.958h3.377v20.16h-3.375zm-8.442 0h3.377v20.16h-3.38zm-44.8 8.024v3.377h-17.91v-3.38zm39.3 0v3.377h-17.91v-3.38z"/><path d="M17.763 359.85h3.377v11.27h-3.377z"/><path d="M17.763 359.85h3.377v11.27h-3.377z"/><path d="M17.763 359.85h3.377v11.27h-3.377zm-39.3 0h3.377v11.27h-3.377zm28.807 0h3.376v11.27H7.27zm-14.272 0h3.377v11.27h-3.377z"/><path d="M9.64 367.736v3.377H-5.5v-3.377zm1.006-8.754v3.377H1.048v-3.38z"/></g><g stroke-width="1pt" fill="#fff"><path d="M-102.228 350.958h49.07v3.377h-49.07zm7.316 16.884h3.377v3.28h-3.377zm41.882-.106v3.377h-9.807v-3.377zm5.274-16.778h3.377v20.16h-3.375z"/><path d="M-28.22 367.736v3.377h-18.586v-3.377zm-34.617-7.887h3.377v11.27h-3.377z"/><path d="M-30.986 350.958h3.377v20.16h-3.375zm-8.442 0h3.377v20.16h-3.38zm-44.8 8.024v3.377h-17.91v-3.38zm39.3 0v3.377h-17.91v-3.38z"/><path d="M-62.837 359.85h3.377v11.27h-3.377z"/><path d="M-62.837 359.85h3.377v11.27h-3.377z"/><path d="M-62.837 359.85h3.377v11.27h-3.377zm-39.3 0h3.377v11.27h-3.377zm28.807 0h3.376v11.27h-3.377zm-14.272 0h3.377v11.27h-3.377z"/><path d="M-70.96 367.736v3.377H-86.1v-3.377zm1.006-8.754v3.377h-9.598v-3.38z"/></g><g stroke-width="1pt" fill="#fff"><path d="M58.297 350.958h49.07v3.377h-49.07zm7.316 16.884h3.376v3.28H65.61zm41.88-.106v3.377h-9.806v-3.377zm5.276-16.778h3.375v20.16h-3.377z"/><path d="M132.303 367.736v3.377H113.72v-3.377zm-34.616-7.887h3.377v11.27h-3.377z"/><path d="M129.54 350.958h3.376v20.16h-3.377zm-8.443 0h3.377v20.16h-3.377zm-44.8 8.024v3.377h-17.91v-3.38zm39.3 0v3.377h-17.91v-3.38z"/><path d="M97.687 359.85h3.377v11.27h-3.377z"/><path d="M97.687 359.85h3.377v11.27h-3.377z"/><path d="M97.687 359.85h3.377v11.27h-3.377zm-39.3 0h3.378v11.27h-3.377zm28.807 0h3.377v11.27h-3.375zm-14.272 0H76.3v11.27h-3.377z"/><path d="M89.563 367.736v3.377h-15.14v-3.377zm1.007-8.754v3.377h-9.598v-3.38z"/></g><g stroke-width="1pt" fill="#fff"><path d="M622.682 350.958h49.07v3.377h-49.07zm7.316 16.884h3.377v3.28h-3.377zm41.882-.106v3.377h-9.807v-3.377zm5.274-16.778h3.377v20.16h-3.375z"/><path d="M696.69 367.736v3.377h-18.586v-3.377zm-34.617-7.887h3.377v11.27h-3.377z"/><path d="M693.924 350.958h3.377v20.16h-3.375zm-8.442 0h3.377v20.16h-3.38zm-44.8 8.024v3.377h-17.91v-3.38zm39.3 0v3.377h-17.91v-3.38z"/><path d="M662.073 359.85h3.377v11.27h-3.377z"/><path d="M662.073 359.85h3.377v11.27h-3.377z"/><path d="M662.073 359.85h3.377v11.27h-3.377zm-39.3 0h3.377v11.27h-3.377zm28.807 0h3.376v11.27h-3.377zm-14.272 0h3.377v11.27h-3.377z"/><path d="M653.95 367.736v3.377h-15.14v-3.377zm1.006-8.754v3.377h-9.598v-3.38z"/></g><g stroke-width="1pt" fill="#fff"><path d="M138.742 350.958h49.07v3.377h-49.07zm7.316 16.884h3.377v3.28h-3.377zm41.882-.106v3.377h-9.807v-3.377zm5.274-16.778h3.377v20.16h-3.375z"/><path d="M212.75 367.736v3.377h-18.586v-3.377zm-34.617-7.887h3.377v11.27h-3.377z"/><path d="M209.984 350.958h3.377v20.16h-3.375zm-8.442 0h3.377v20.16h-3.38zm-44.8 8.024v3.377h-17.91v-3.38zm39.3 0v3.377h-17.91v-3.38z"/><path d="M178.133 359.85h3.377v11.27h-3.377z"/><path d="M178.133 359.85h3.377v11.27h-3.377z"/><path d="M178.133 359.85h3.377v11.27h-3.377zm-39.3 0h3.377v11.27h-3.377zm28.807 0h3.376v11.27h-3.377zm-14.272 0h3.377v11.27h-3.377z"/><path d="M170.01 367.736v3.377h-15.14v-3.377zm1.006-8.754v3.377h-9.598v-3.38z"/></g><g stroke-width="1pt" fill="#fff"><path d="M219.482 350.958h49.07v3.377h-49.07zm7.316 16.884h3.377v3.28h-3.377zm41.882-.106v3.377h-9.807v-3.377zm5.274-16.778h3.377v20.16h-3.375z"/><path d="M293.49 367.736v3.377h-18.586v-3.377zm-34.617-7.887h3.377v11.27h-3.377z"/><path d="M290.724 350.958h3.377v20.16h-3.375zm-8.442 0h3.377v20.16h-3.38zm-44.8 8.024v3.377h-17.91v-3.38zm39.3 0v3.377h-17.91v-3.38z"/><path d="M258.873 359.85h3.377v11.27h-3.377z"/><path d="M258.873 359.85h3.377v11.27h-3.377z"/><path d="M258.873 359.85h3.377v11.27h-3.377zm-39.3 0h3.377v11.27h-3.377zm28.807 0h3.376v11.27h-3.377zm-14.272 0h3.377v11.27h-3.377z"/><path d="M250.75 367.736v3.377h-15.14v-3.377zm1.006-8.754v3.377h-9.598v-3.38z"/></g><path fill="#239f40" d="M-191.96 0h896v168.16h-896z"/><g stroke-width="1pt" fill="#fff"><path d="M300.692 350.958h49.07v3.377h-49.07zm7.316 16.884h3.377v3.28h-3.377zm41.882-.106v3.377h-9.807v-3.377zm5.274-16.778h3.377v20.16h-3.375z"/><path d="M374.7 367.736v3.377h-18.586v-3.377zm-34.617-7.887h3.377v11.27h-3.377z"/><path d="M371.934 350.958h3.377v20.16h-3.375zm-8.442 0h3.377v20.16h-3.38zm-44.8 8.024v3.377h-17.91v-3.38zm39.3 0v3.377h-17.91v-3.38z"/><path d="M340.083 359.85h3.377v11.27h-3.377z"/><path d="M340.083 359.85h3.377v11.27h-3.377z"/><path d="M340.083 359.85h3.377v11.27h-3.377zm-39.3 0h3.377v11.27h-3.377zm28.807 0h3.376v11.27h-3.377zm-14.272 0h3.377v11.27h-3.377z"/><path d="M331.96 367.736v3.377h-15.14v-3.377zm1.006-8.754v3.377h-9.598v-3.38z"/></g><g stroke-width="1pt" fill="#fff"><path d="M381.422 350.958h49.07v3.377h-49.07zm7.316 16.884h3.377v3.28h-3.377zm41.882-.106v3.377h-9.807v-3.377zm5.274-16.778h3.377v20.16h-3.375z"/><path d="M455.43 367.736v3.377h-18.586v-3.377zm-34.617-7.887h3.377v11.27h-3.377z"/><path d="M452.664 350.958h3.377v20.16h-3.375zm-8.442 0h3.377v20.16h-3.38zm-44.8 8.024v3.377h-17.91v-3.38zm39.3 0v3.377h-17.91v-3.38z"/><path d="M420.813 359.85h3.377v11.27h-3.377z"/><path d="M420.813 359.85h3.377v11.27h-3.377z"/><path d="M420.813 359.85h3.377v11.27h-3.377zm-39.3 0h3.377v11.27h-3.377zm28.807 0h3.376v11.27h-3.377zm-14.272 0h3.377v11.27h-3.377z"/><path d="M412.69 367.736v3.377h-15.14v-3.377zm1.006-8.754v3.377h-9.598v-3.38z"/></g><g stroke-width="1pt" fill="#fff"><path d="M462.162 350.958h49.07v3.377h-49.07zm7.316 16.884h3.377v3.28h-3.377zm41.882-.106v3.377h-9.807v-3.377zm5.274-16.778h3.377v20.16h-3.375z"/><path d="M536.17 367.736v3.377h-18.586v-3.377zm-34.617-7.887h3.377v11.27h-3.377z"/><path d="M533.404 350.958h3.377v20.16h-3.375zm-8.442 0h3.377v20.16h-3.38zm-44.8 8.024v3.377h-17.91v-3.38zm39.3 0v3.377h-17.91v-3.38z"/><path d="M501.553 359.85h3.377v11.27h-3.377z"/><path d="M501.553 359.85h3.377v11.27h-3.377z"/><path d="M501.553 359.85h3.377v11.27h-3.377zm-39.3 0h3.377v11.27h-3.377zm28.807 0h3.376v11.27h-3.377zm-14.272 0h3.377v11.27h-3.377z"/><path d="M493.43 367.736v3.377h-15.14v-3.377zm1.006-8.754v3.377h-9.598v-3.38z"/></g><g stroke-width="1pt" fill="#fff"><path d="M543.372 350.958h49.07v3.377h-49.07zm7.316 16.884h3.377v3.28h-3.377zm41.882-.106v3.377h-9.807v-3.377zm5.274-16.778h3.377v20.16h-3.375z"/><path d="M617.38 367.736v3.377h-18.586v-3.377zm-34.617-7.887h3.377v11.27h-3.377z"/><path d="M614.614 350.958h3.377v20.16h-3.375zm-8.442 0h3.377v20.16h-3.38zm-44.8 8.024v3.377h-17.91v-3.38zm39.3 0v3.377h-17.91v-3.38z"/><path d="M582.763 359.85h3.377v11.27h-3.377z"/><path d="M582.763 359.85h3.377v11.27h-3.377z"/><path d="M582.763 359.85h3.377v11.27h-3.377zm-39.3 0h3.377v11.27h-3.377zm28.807 0h3.376v11.27h-3.377zm-14.272 0h3.377v11.27h-3.377z"/><path d="M574.64 367.736v3.377H559.5v-3.377zm1.006-8.754v3.377h-9.598v-3.38z"/></g><g stroke-width="1pt" fill="#fff"><path d="M-183.788 350.958h49.07v3.377h-49.07zm7.316 16.884h3.377v3.28h-3.377zm41.882-.106v3.377h-9.807v-3.377zm5.274-16.778h3.377v20.16h-3.375z"/><path d="M-109.78 367.736v3.377h-18.586v-3.377zm-34.617-7.887h3.377v11.27h-3.377z"/><path d="M-112.546 350.958h3.377v20.16h-3.375zm-8.442 0h3.377v20.16h-3.38zm-44.8 8.024v3.377h-17.91v-3.38zm39.3 0v3.377h-17.91v-3.38z"/><path d="M-144.397 359.85h3.377v11.27h-3.377z"/><path d="M-144.397 359.85h3.377v11.27h-3.377z"/><path d="M-144.397 359.85h3.377v11.27h-3.377zm-39.3 0h3.377v11.27h-3.377zm28.807 0h3.376v11.27h-3.377zm-14.272 0h3.377v11.27h-3.377z"/><path d="M-152.52 367.736v3.377h-15.14v-3.377zm1.006-8.754v3.377h-9.598v-3.38z"/></g><g stroke-width="1pt" fill="#fff"><path d="M-21.628 143.442h49.07v3.377h-49.07zm7.316 16.884h3.377v3.28h-3.377zm41.882-.106v3.377h-9.807v-3.377zm5.274-16.778h3.377v20.16h-3.375z"/><path d="M52.38 160.22v3.377H33.793v-3.377zm-34.617-7.887h3.377v11.27h-3.377z"/><path d="M49.614 143.442h3.377v20.16h-3.375zm-8.442 0h3.377v20.16h-3.38zm-44.8 8.024v3.377h-17.91v-3.377zm39.3 0v3.377h-17.91v-3.377z"/><path d="M17.763 152.333h3.377v11.27h-3.377z"/><path d="M17.763 152.333h3.377v11.27h-3.377z"/><path d="M17.763 152.333h3.377v11.27h-3.377zm-39.3 0h3.377v11.27h-3.377zm28.807 0h3.376v11.27H7.27zm-14.272 0h3.377v11.27h-3.377z"/><path d="M9.64 160.22v3.377H-5.5v-3.377zm1.006-8.754v3.377H1.048v-3.377z"/></g><g stroke-width="1pt" fill="#fff"><path d="M-102.228 143.442h49.07v3.377h-49.07zm7.316 16.884h3.377v3.28h-3.377zm41.882-.106v3.377h-9.807v-3.377zm5.274-16.778h3.377v20.16h-3.375z"/><path d="M-28.22 160.22v3.377h-18.586v-3.377zm-34.617-7.887h3.377v11.27h-3.377z"/><path d="M-30.986 143.442h3.377v20.16h-3.375zm-8.442 0h3.377v20.16h-3.38zm-44.8 8.024v3.377h-17.91v-3.377zm39.3 0v3.377h-17.91v-3.377z"/><path d="M-62.837 152.333h3.377v11.27h-3.377z"/><path d="M-62.837 152.333h3.377v11.27h-3.377z"/><path d="M-62.837 152.333h3.377v11.27h-3.377zm-39.3 0h3.377v11.27h-3.377zm28.807 0h3.376v11.27h-3.377zm-14.272 0h3.377v11.27h-3.377z"/><path d="M-70.96 160.22v3.377H-86.1v-3.377zm1.006-8.754v3.377h-9.598v-3.377z"/></g><g stroke-width="1pt" fill="#fff"><path d="M58.297 143.442h49.07v3.377h-49.07zm7.316 16.884h3.376v3.28H65.61zm41.88-.106v3.377h-9.806v-3.377zm5.276-16.778h3.375v20.16h-3.377z"/><path d="M132.303 160.22v3.377H113.72v-3.377zm-34.616-7.887h3.377v11.27h-3.377z"/><path d="M129.54 143.442h3.376v20.16h-3.377zm-8.443 0h3.377v20.16h-3.377zm-44.8 8.024v3.377h-17.91v-3.377zm39.3 0v3.377h-17.91v-3.377z"/><path d="M97.687 152.333h3.377v11.27h-3.377z"/><path d="M97.687 152.333h3.377v11.27h-3.377z"/><path d="M97.687 152.333h3.377v11.27h-3.377zm-39.3 0h3.378v11.27h-3.377zm28.807 0h3.377v11.27h-3.375zm-14.272 0H76.3v11.27h-3.377z"/><path d="M89.563 160.22v3.377h-15.14v-3.377zm1.007-8.754v3.377h-9.598v-3.377z"/></g><g stroke-width="1pt" fill="#fff"><path d="M622.682 143.442h49.07v3.377h-49.07zm7.316 16.884h3.377v3.28h-3.377zm41.882-.106v3.377h-9.807v-3.377zm5.274-16.778h3.377v20.16h-3.375z"/><path d="M696.69 160.22v3.377h-18.586v-3.377zm-34.617-7.887h3.377v11.27h-3.377z"/><path d="M693.924 143.442h3.377v20.16h-3.375zm-8.442 0h3.377v20.16h-3.38zm-44.8 8.024v3.377h-17.91v-3.377zm39.3 0v3.377h-17.91v-3.377z"/><path d="M662.073 152.333h3.377v11.27h-3.377z"/><path d="M662.073 152.333h3.377v11.27h-3.377z"/><path d="M662.073 152.333h3.377v11.27h-3.377zm-39.3 0h3.377v11.27h-3.377zm28.807 0h3.376v11.27h-3.377zm-14.272 0h3.377v11.27h-3.377z"/><path d="M653.95 160.22v3.377h-15.14v-3.377zm1.006-8.754v3.377h-9.598v-3.377z"/></g><g stroke-width="1pt" fill="#fff"><path d="M138.742 143.442h49.07v3.377h-49.07zm7.316 16.884h3.377v3.28h-3.377zm41.882-.106v3.377h-9.807v-3.377zm5.274-16.778h3.377v20.16h-3.375z"/><path d="M212.75 160.22v3.377h-18.586v-3.377zm-34.617-7.887h3.377v11.27h-3.377z"/><path d="M209.984 143.442h3.377v20.16h-3.375zm-8.442 0h3.377v20.16h-3.38zm-44.8 8.024v3.377h-17.91v-3.377zm39.3 0v3.377h-17.91v-3.377z"/><path d="M178.133 152.333h3.377v11.27h-3.377z"/><path d="M178.133 152.333h3.377v11.27h-3.377z"/><path d="M178.133 152.333h3.377v11.27h-3.377zm-39.3 0h3.377v11.27h-3.377zm28.807 0h3.376v11.27h-3.377zm-14.272 0h3.377v11.27h-3.377z"/><path d="M170.01 160.22v3.377h-15.14v-3.377zm1.006-8.754v3.377h-9.598v-3.377z"/></g><g stroke-width="1pt" fill="#fff"><path d="M219.482 143.442h49.07v3.377h-49.07zm7.316 16.884h3.377v3.28h-3.377zm41.882-.106v3.377h-9.807v-3.377zm5.274-16.778h3.377v20.16h-3.375z"/><path d="M293.49 160.22v3.377h-18.586v-3.377zm-34.617-7.887h3.377v11.27h-3.377z"/><path d="M290.724 143.442h3.377v20.16h-3.375zm-8.442 0h3.377v20.16h-3.38zm-44.8 8.024v3.377h-17.91v-3.377zm39.3 0v3.377h-17.91v-3.377z"/><path d="M258.873 152.333h3.377v11.27h-3.377z"/><path d="M258.873 152.333h3.377v11.27h-3.377z"/><path d="M258.873 152.333h3.377v11.27h-3.377zm-39.3 0h3.377v11.27h-3.377zm28.807 0h3.376v11.27h-3.377zm-14.272 0h3.377v11.27h-3.377z"/><path d="M250.75 160.22v3.377h-15.14v-3.377zm1.006-8.754v3.377h-9.598v-3.377z"/></g><g stroke-width="1pt" fill="#fff"><path d="M300.692 143.442h49.07v3.377h-49.07zm7.316 16.884h3.377v3.28h-3.377zm41.882-.106v3.377h-9.807v-3.377zm5.274-16.778h3.377v20.16h-3.375z"/><path d="M374.7 160.22v3.377h-18.586v-3.377zm-34.617-7.887h3.377v11.27h-3.377z"/><path d="M371.934 143.442h3.377v20.16h-3.375zm-8.442 0h3.377v20.16h-3.38zm-44.8 8.024v3.377h-17.91v-3.377zm39.3 0v3.377h-17.91v-3.377z"/><path d="M340.083 152.333h3.377v11.27h-3.377z"/><path d="M340.083 152.333h3.377v11.27h-3.377z"/><path d="M340.083 152.333h3.377v11.27h-3.377zm-39.3 0h3.377v11.27h-3.377zm28.807 0h3.376v11.27h-3.377zm-14.272 0h3.377v11.27h-3.377z"/><path d="M331.96 160.22v3.377h-15.14v-3.377zm1.006-8.754v3.377h-9.598v-3.377z"/></g><g stroke-width="1pt" fill="#fff"><path d="M381.422 143.442h49.07v3.377h-49.07zm7.316 16.884h3.377v3.28h-3.377zm41.882-.106v3.377h-9.807v-3.377zm5.274-16.778h3.377v20.16h-3.375z"/><path d="M455.43 160.22v3.377h-18.586v-3.377zm-34.617-7.887h3.377v11.27h-3.377z"/><path d="M452.664 143.442h3.377v20.16h-3.375zm-8.442 0h3.377v20.16h-3.38zm-44.8 8.024v3.377h-17.91v-3.377zm39.3 0v3.377h-17.91v-3.377z"/><path d="M420.813 152.333h3.377v11.27h-3.377z"/><path d="M420.813 152.333h3.377v11.27h-3.377z"/><path d="M420.813 152.333h3.377v11.27h-3.377zm-39.3 0h3.377v11.27h-3.377zm28.807 0h3.376v11.27h-3.377zm-14.272 0h3.377v11.27h-3.377z"/><path d="M412.69 160.22v3.377h-15.14v-3.377zm1.006-8.754v3.377h-9.598v-3.377z"/></g><g stroke-width="1pt" fill="#fff"><path d="M462.162 143.442h49.07v3.377h-49.07zm7.316 16.884h3.377v3.28h-3.377zm41.882-.106v3.377h-9.807v-3.377zm5.274-16.778h3.377v20.16h-3.375z"/><path d="M536.17 160.22v3.377h-18.586v-3.377zm-34.617-7.887h3.377v11.27h-3.377z"/><path d="M533.404 143.442h3.377v20.16h-3.375zm-8.442 0h3.377v20.16h-3.38zm-44.8 8.024v3.377h-17.91v-3.377zm39.3 0v3.377h-17.91v-3.377z"/><path d="M501.553 152.333h3.377v11.27h-3.377z"/><path d="M501.553 152.333h3.377v11.27h-3.377z"/><path d="M501.553 152.333h3.377v11.27h-3.377zm-39.3 0h3.377v11.27h-3.377zm28.807 0h3.376v11.27h-3.377zm-14.272 0h3.377v11.27h-3.377z"/><path d="M493.43 160.22v3.377h-15.14v-3.377zm1.006-8.754v3.377h-9.598v-3.377z"/></g><g stroke-width="1pt" fill="#fff"><path d="M543.372 143.442h49.07v3.377h-49.07zm7.316 16.884h3.377v3.28h-3.377zm41.882-.106v3.377h-9.807v-3.377zm5.274-16.778h3.377v20.16h-3.375z"/><path d="M617.38 160.22v3.377h-18.586v-3.377zm-34.617-7.887h3.377v11.27h-3.377z"/><path d="M614.614 143.442h3.377v20.16h-3.375zm-8.442 0h3.377v20.16h-3.38zm-44.8 8.024v3.377h-17.91v-3.377zm39.3 0v3.377h-17.91v-3.377z"/><path d="M582.763 152.333h3.377v11.27h-3.377z"/><path d="M582.763 152.333h3.377v11.27h-3.377z"/><path d="M582.763 152.333h3.377v11.27h-3.377zm-39.3 0h3.377v11.27h-3.377zm28.807 0h3.376v11.27h-3.377zm-14.272 0h3.377v11.27h-3.377z"/><path d="M574.64 160.22v3.377H559.5v-3.377zm1.006-8.754v3.377h-9.598v-3.377z"/></g><g stroke-width="1pt" fill="#fff"><path d="M-183.788 143.442h49.07v3.377h-49.07zm7.316 16.884h3.377v3.28h-3.377zm41.882-.106v3.377h-9.807v-3.377zm5.274-16.778h3.377v20.16h-3.375z"/><path d="M-109.78 160.22v3.377h-18.586v-3.377zm-34.617-7.887h3.377v11.27h-3.377z"/><path d="M-112.546 143.442h3.377v20.16h-3.375zm-8.442 0h3.377v20.16h-3.38zm-44.8 8.024v3.377h-17.91v-3.377zm39.3 0v3.377h-17.91v-3.377z"/><path d="M-144.397 152.333h3.377v11.27h-3.377z"/><path d="M-144.397 152.333h3.377v11.27h-3.377z"/><path d="M-144.397 152.333h3.377v11.27h-3.377zm-39.3 0h3.377v11.27h-3.377zm28.807 0h3.376v11.27h-3.377zm-14.272 0h3.377v11.27h-3.377z"/><path d="M-152.52 160.22v3.377h-15.14v-3.377zm1.006-8.754v3.377h-9.598v-3.377z"/></g><path d="M-68.83 339.507h6.048v10.505h-6.048zm160.532 0h6.048v10.505h-6.048zm-283.705 0h6.048v10.505h-6.048zm81.475 0h6.048v10.505h-6.048zm80.895 0h6.048v10.505h-6.048zm40.024 0h6.05v10.505h-6.05zm40.863 0H57.3v10.505h-6.048zm80.475 0h6.048v10.505h-6.048zm203.056 0h6.048v10.505h-6.047zm-162.197 0h6.048v10.505h-6.048zm40.035 0h6.05v10.505h-6.05zm40.44 0h6.047v10.505h-6.05zm40.447 0h6.047v10.505h-6.048zm323.142 0h6.047v10.505h-6.05zm-242.67 0h6.048v10.505h-6.048zm40.86 0h6.05v10.505h-6.05zm41.284 0h6.05v10.505h-6.05zm38.776 0h6.05v10.505h-6.05zm41.274 0h6.048v10.505h-6.048zm40.448 0h6.048v10.505h-6.048zm119.674 0h6.048v10.505h-6.048zm-38.778 0h6.048v10.505h-6.048zm-808.908 0h6.048v10.505h-6.048z" fill="#d90000"/><path d="M-68.83 162.607h6.048v10.505h-6.048zm160.532 0h6.048v10.505h-6.048zm-283.705 0h6.048v10.505h-6.048zm81.475 0h6.048v10.505h-6.048zm80.895 0h6.048v10.505h-6.048zm40.024 0h6.05v10.505h-6.05zm40.863 0H57.3v10.505h-6.048zm80.475 0h6.048v10.505h-6.048zm203.056 0h6.048v10.505h-6.047zm-162.197 0h6.048v10.505h-6.048zm40.035 0h6.05v10.505h-6.05zm40.44 0h6.047v10.505h-6.05zm40.447 0h6.047v10.505h-6.048zm323.142 0h6.047v10.505h-6.05zm-242.67 0h6.048v10.505h-6.048zm40.86 0h6.05v10.505h-6.05zm41.284 0h6.05v10.505h-6.05zm38.776 0h6.05v10.505h-6.05zm41.274 0h6.048v10.505h-6.048zm40.448 0h6.048v10.505h-6.048zm119.674 0h6.048v10.505h-6.048zm-38.778 0h6.048v10.505h-6.048zm-808.908 0h6.048v10.505h-6.048z" fill="#239e3f"/><g fill="#da0000"><path d="M279.8 197.49c8.453 10.36 34.51 67.65-15.73 105.18-23.62 17.776-8.994 18.674-8.296 21.662 37.966-20.167 50.366-47.49 50.078-71.966-.29-24.476-13.266-46.102-26.052-54.873z"/><path d="M284.826 194.826c18.75 9.6 59.553 57.88 15.635 112.344 27.29-6.056 61.98-86.417-15.633-112.344zm-57.58 0c-18.75 9.6-59.554 57.88-15.636 112.344-27.288-6.056-61.98-86.417 15.635-112.344z"/><path d="M232.2 197.49c-8.454 10.36-34.512 67.65 15.73 105.18 23.618 17.776 8.993 18.674 8.294 21.662-37.965-20.167-50.365-47.49-50.077-71.966.29-24.476 13.265-46.102 26.052-54.873z"/><path d="M304.198 319.11c-14.86.237-33.593-2.046-47.486-9.266 2.288 4.45 4.19 7.252 6.477 11.7 13.25 1.223 31.533 2.735 41.01-2.433zm-94.973 0c14.86.237 33.593-2.046 47.487-9.266-2.29 4.45-4.19 7.252-6.478 11.7-13.25 1.223-31.535 2.735-41.01-2.433zm27.257-138.713c3.01 8.002 10.91 9.165 19.365 4.454 6.16 3.7 15.69 3.93 18.976-4.065 2.5 19.784-18.305 15.104-19.08 11.23-7.745 7.488-22.165 3.164-19.26-11.617z"/><path d="M256.402 331.57l7.813-8.93 1.117-120.18-9.302-8.184-9.3 7.813 1.86 120.92 7.812 8.556z"/></g></g></svg>