<svg xmlns="http://www.w3.org/2000/svg" xmlns:xlink="http://www.w3.org/1999/xlink" viewBox="0 0 30 18"><path fill="#fff" d="M0 0h30v18H0z"/><path d="M0 0l30 18M0 18L30 0" stroke="#df112d" stroke-width="2"/><g stroke="#000" stroke-width=".015"><path fill="#e8112d" d="M16.57 2.693c.385 1.56.174 3.49-1.567 4.56-1.742-1.07-1.953-3-1.568-4.56.41-.373 2.276-.603 3.135 0z"/><path fill="#f9dd16" d="M15 2.38c.638 0 1.233.17 1.584.388.068-.54.312-1.077.6-1.484-.3-.006-.435.154-.438.32-.075-.213-.37-.2-.46-.085.33.22.075.613-.222.532-.14-.038-.213-.135-.24-.277a.162.162 0 1 0-.068-.01.35.35 0 0 1-.384.165c-.156-.043-.222-.184-.222-.31 0-.324.313-.374.407-.32-.006-.217-.35-.392-.457-.21a.585.585 0 0 0-.1-.714c-.213.2-.22.5-.1.713-.106-.18-.45-.008-.457.21.094-.055.407-.005.407.32 0 .125-.066.266-.222.31a.35.35 0 0 1-.383-.166.162.162 0 1 0-.07.01c-.026.143-.1.24-.24.278-.296.08-.55-.313-.22-.535-.09-.117-.386-.13-.46.083-.004-.164-.14-.324-.44-.32.29.41.533.947.6 1.486.352-.22.947-.388 1.585-.388z"/><g id="a"><g fill="#f9dd16"><path d="M16.324 3.91c-.038.01-.038.06-.058.06.1-.003.148-.03.18-.08-.023.02-.004.057-.01.066.072-.025.107-.088.08-.13.018.024.065.037.08.04-.05-.04-.015-.134-.097-.18.024-.003.08.03.092.065-.013-.08-.025-.133-.093-.18.007.01.046.017.062 0a.11.11 0 0 1-.053-.102c.004-.04-.023-.05-.075-.036a1.2 1.2 0 0 1-.214.02c-.13 0-.24 0-.347-.075.16.067.364-.073.364-.19 0-.127-.158-.232-.477-.162-.32.07-.707.04-.707-.066 0-.108.28-.12.422-.1.143.022.246.036.514-.06-.068.026-.28.033-.45-.015-.17-.048-.584-.048-.587.176-.004.224.442.204.826.147.222-.033.34-.01.34.063 0 .07-.206.097-.364.08a1.226 1.226 0 0 0-.507.04c-.157.045-.265 0-.438.03-.083.013-.286 0-.386-.167-.062.044-.247.136-.278.226-.047.08-.017.163.042.244.074.102-.037.086-.116.09-.108.005-.253-.012-.33-.097-.066-.077-.155-.138-.226-.082-.036.03 0 .067.028.057.03-.01.063.01.094.024a.127.127 0 0 0-.124.013c-.03.025.006.074.04.057.03-.013.085-.022.12.01-.038-.006-.08-.005-.1.017-.02.02-.004.052.04.05.068-.003.085.045.154.035a.107.107 0 0 0-.077.043c.064-.03.135.05.218.032-.03.013-.083.045-.083.07.05-.058.38.043.39-.08a.105.105 0 0 1-.02.096c.04-.025.18-.034.22-.133.005.03 0 .068-.026.077.045.014.103-.02.16-.107.026-.035.03-.058.027-.084a.197.197 0 0 0 .15-.05c.046-.04.098.032.18-.02.08-.05.15-.007.193-.033.044-.025.105.01.153-.02.047-.03.122.015.2-.047.125.045.27.13.626.064.203-.038.267.03.267.124 0 .067-.038.07-.066.074-.112.007-.16-.043-.206-.027-.03.01-.048.06-.005.076-.037.018-.03.052-.014.065.016.014.064.002.096-.013-.04.02-.084.052-.06.088.015.02.052.04.087-.006.034-.047.1-.085.14-.08zm-2.26-.97c-.104-.04-.138-.042-.115.04.01.037.032.088.06.11 0-.034.01-.13.05-.15z"/><path d="M14.384 2.94c.103-.04.138-.042.114.04a.275.275 0 0 1-.06.11c0-.034-.013-.13-.054-.15z"/><path d="M14.224 2.885c.195 0 .22.09.218.205 0 .123-.067.08-.104.24-.015.06-.064.064-.114.064s-.098-.004-.113-.065c-.035-.16-.1-.12-.102-.24 0-.116.024-.207.218-.207z"/><path d="M13.723 3.336c-.05-.03-.082-.01-.102-.004.067.017.07.1.217.138-.033-.01-.052.01-.083-.007.06.047.128.103.272.104.08 0 .024.042-.028.02.054.055.162.01.23.11.013-.08-.127-.203-.063-.293-.198-.01-.214-.118-.328-.206-.093-.07-.102-.143-.143-.278-.018-.062-.09-.1-.13-.085-.035.012-.047.043-.017.065.03.023.068.026.076.083-.038-.047-.096-.064-.124-.034-.018.014-.01.055.025.06.06.005.017.063.085.12-.06-.067-.113-.074-.145-.037-.02.022 0 .06.04.057.06-.005.13.146.22.185zm1.597.567c-.03.006-.022.057-.064.06.1 0 .152-.023.2-.062-.022.016-.03.05-.033.068.053-.046.18-.05.246-.037.063.013.074-.02.1-.06.022-.043-.01-.067-.044-.1s-.04-.08-.033-.156c-.177-.235-.493-.12-.496-.018.113.132.127.117.223.136.096.02.155.02.09.073-.02.02-.113.01-.185.013-.16.007-.233-.11-.28-.05-.04.05 0 .073.08.07-.055 0-.128-.002-.115.05.02.085.103-.017.135.02-.027-.008-.07.01-.07.035-.003.027.06.06.13.006a.2.2 0 0 1 .113-.043zm.137-.358a.303.303 0 0 0-.177-.02m-.687-.007c-.047.1-.02.15-.012.198m-.49-.68c.035.018.05-.03.1.02-.012-.014-.03.038-.065.004m.232-.023c-.032.017-.05-.03-.098.02.012-.015.03.037.065.003"/><path d="M14.257 3.056c-.01.01-.012-.007-.004.036.016.08.034.117-.03.117-.066 0-.046-.04-.03-.12.008-.043.007-.026-.004-.036"/></g><path d="M14.224 3.362c.052 0 .082 0 .074-.075-.003-.03.036-.04.022-.09.015.06-.096.054-.096.028 0 .026-.11.032-.097-.027-.013.048.026.06.022.09-.01.073.02.074.072.074zm-.047-.15l-.126-.034m.13.042l-.14-.002m.14.01l-.12.03m.212-.045l.127-.035m-.127.042l.14-.002m-.14.01l.12.03" fill="#ff0016" stroke-width=".008"/><path d="M13.573 2.837c-.036-.045-.128-.007-.13.05.03-.037.082.016.11.005.018-.008.035-.036.02-.055zm-.047.108c-.037-.046-.128-.007-.13.05.03-.037.08.015.11.004.02-.01.035-.04.02-.057zm-.024.145c-.04-.042-.128.007-.123.063.023-.04.08.007.105-.007.02-.01.032-.04.015-.056zm.044.448c-.046-.036-.126.022-.116.077.022-.042.083-.002.108-.02.016-.01.026-.043.008-.057zm-.003.098c-.054-.02-.113.06-.085.11.007-.048.077-.03.095-.053.013-.016.013-.05-.01-.057zm.07.074c-.054-.02-.113.06-.085.108.007-.047.078-.028.096-.05.012-.018.012-.05-.01-.06zm1.435.14c-.055-.02-.114.06-.086.11.007-.047.078-.028.096-.05.012-.018.012-.05-.01-.06zm.073.068c-.053-.014-.102.072-.07.118 0-.048.075-.037.09-.062.01-.018.007-.05-.016-.056zm-.05-.16c-.05-.03-.12.04-.102.092.016-.045.082-.014.104-.035.016-.014.02-.046 0-.058zm1.02.114c-.055-.014-.104.072-.07.118 0-.048.073-.037.09-.062.01-.018.005-.05-.018-.056zm0-.09c-.05-.028-.12.044-.1.096.018-.045.085-.017.106-.038.014-.014.018-.047-.003-.058zm.04.17c-.054-.01-.1.077-.064.122 0-.048.072-.04.086-.066.01-.02.006-.05-.02-.056zm-1.9-.634c.036 0 .05.01.05.075 0 .137 0 .196-.045.196s-.042-.06-.042-.16c0-.05 0-.08-.01-.074 0-.035.016-.04.048-.04z" fill="#0051ba" stroke-width=".002"/></g><use xlink:href="#a" transform="matrix(.9 0 0 .9 1.5 1.7)"/><use xlink:href="#a" transform="matrix(.7 0 0 .8 4.9 3.4)"/></g></svg>