<svg xmlns="http://www.w3.org/2000/svg" viewBox="0 0 640 480"><defs><clipPath id="a"><path fill-opacity=".67" d="M-84.95 0h682.67v512H-84.95z"/></clipPath></defs><g clip-path="url(#a)" fill-rule="evenodd" transform="translate(79.64) scale(.9375)"><path fill="#be0027" d="M-128 0h768.77v512H-128z"/><path d="M105.45 261.14c13.658-16.61 41.95-.4 65.045-12.36-27.358 1.505-42.27-13.128-63.884-11.077 22.398-13.757 41.464 4.5 66.505-2.84-33.165-2.79-31.727-17.614-61.884-19.72 26.788-11.425 40.036 11.75 66.276 6.48-30.927-7.14-35.045-25.356-58.04-29.212 33.61-5.07 31.418 14.797 64.365 17.22-33.44-14.342-24.675-26.794-52.644-37.72 31.297-.74 29.222 20.95 60.93 26.64-27.144-17.22-23.79-32.935-46.15-45.232 26.525.48 29.115 27.63 56.185 36.04-24.147-19.16-17.796-35.313-38.663-52.423 26.383 6.188 22.542 29.61 50.02 44.552-20.364-22.615-12.55-38.805-30.315-57.318 25.376 8.17 15.737 30.43 42.067 51.594-15.095-24.855-5.776-40.707-20.63-61.677 23.56 12.166 12.15 34.872 34.023 57.558-10.294-25.508.016-41.352-10.506-63.94 20.152 15.056 8.166 39.322 24.422 62.47-5.927-31.92 7.84-37.17 3.556-65.123 15.306 18.79-1.802 37.58 9.95 65.26-1.43-31.475 15.293-38.794 12.393-64.066 15.17 22.645-8.508 42.353 1.394 66.605 2.56-29.864 22.186-37.597 22.49-60.836 11.934 21.332-14.11 36.672-9.883 64.955 8.57-31.197 29.477-35.05 31.944-56.026 7.234 24.678-21.266 36.15-19.6 63.5 8.49-27.735 34.62-30.988 39.963-51.475 3.297 26.106-22.4 30.74-29.635 59.584 13.512-23.54 37.143-25.47 47.783-44.09-.833 25.816-29.842 29.2-38.746 53.373 16.724-20.51 37.69-16.95 54.414-35.135-1.766 23.3-31.294 21.983-47.01 46.105 18.136-16.732 45.435-11.718 59.33-26.125-.674 20.607-36.908 19.058-53.996 37.478 21.075-11.545 47.757-4.764 63.225-15.487-2.827 18.07-41.077 13.847-59.357 27.948 25.21-6.984 44.677 3.81 65.102-3.994-9.94 17.587-44.634 6.455-63.054 17.888 21.88-3.704 45.127 9.55 65.09 5.298-6.56 15.2-44.58-.918-65.09 8.538 24.51-.215 40.404 15.434 63.135 14.4-12.364 13.762-45.79-5.163-65.263-1.93 23.76 4.914 41.91 24.6 59.926 25.55-14.785 11.35-42.424-14.498-64.865-11.216 23.105 6.184 42.516 32.47 55.774 33.047-14.285 9.763-42.518-22.463-61.86-21.32 23.494 10.62 34.27 37.517 49.696 41.298-19.1 6.128-37.868-29.217-58.39-30.442 23.77 14.993 25.114 37.918 43.417 48.124-19.257 4.708-32.964-35.167-53.26-38.532 19.49 14.327 22.43 44.93 35.352 54.608-19.607 1.036-26.692-40.714-46.787-46.678 17.216 14.38 13.094 45.58 26.48 58.863-20.426-4.19-17.793-40.537-39.118-52.777 15.32 19.32 7.526 46.844 17.51 62.335-19.87-8.038-11.24-40.568-30.21-58.99 10.35 20.582-.773 44.586 7.388 64.486-18.153-8.853-5.944-47.383-19.856-62.665 6.395 23.785-5.4 43.47-.646 64.793-18.56-21.527 2.817-43.19-13.28-65.126 4.272 25.177-13.337 42.697-10.568 63.77-14.716-17.19 7.905-44.773-3.528-66.477 2.462 24.754-20.276 46.44-18.715 62.03-11.978-19.968 13.298-43.583 6.53-66.286-1.425 23.573-24.37 36.383-28.69 57.857-7.714-23.69 19.563-40.81 17.208-64.09-7.81 22.145-29.982 31.024-37.793 52.485-6.395-23.622 25.914-36.166 26.768-61.02-9.987 23.31-36.522 28.427-45.28 46.265-3.27-23.5 33.808-34.007 35.188-56.275-11.936 21.383-40.97 22.25-50.99 39.255-1.52-23.416 37.58-26.316 43.72-50.825-11.883 18.278-43.735 15.907-56.987 30.767 2.09-21.722 44.387-23.066 51.128-42.6-15.723 15.168-44.963 8.882-61.426 20.913 9.164-21.335 48.84-16.812 57.81-32.267-17.565 9.164-48.68.28-63.998 9.444 13.92-20.206 44.803-8.135 62.28-22.05-28.428 4.143-45.506-7.17-65.182-1.933z" fill="#ff0"/><path d="M355.94 256.11c0 54.8-44.425 99.224-99.224 99.224-54.8 0-99.222-44.424-99.222-99.223 0-54.8 44.424-99.22 99.222-99.22 54.8 0 99.223 44.424 99.223 99.22z" fill="#ff0"/><path d="M343.17 256.307c0 47.644-38.623 86.265-86.265 86.265-47.643 0-86.264-38.622-86.264-86.265s38.625-86.264 86.267-86.264c47.644 0 86.265 38.622 86.265 86.264z" fill="#be0027"/><path d="M331.156 256.487c0 40.91-33.164 74.075-74.074 74.075s-74.075-33.165-74.075-74.075c0-40.91 33.165-74.075 74.075-74.075 40.91 0 74.074 33.165 74.074 74.075z" fill="#ff0"/><path d="M194.04 207.95c20.5-.45 46.033 1.418 62.86 14.893 17.858-11.154 39.004-16.31 60.54-14.313l11.024 20.115c-15.99-1.613-31.59.646-50.095 8.124 23.594 18.693 35.392 42.81 34.62 72.14-2.708 3.353-6.964 7.09-9.67 10.444 3.93-28.496-11.09-60.28-32.88-76.978 17.73 25.596 28.302 48.676 25.34 80.46-3.16 1.87-6.9 4.513-10.06 6.383 4.64-28.045-1.934-60.926-22.63-80.074 11.926 17.537 23.854 49 16.44 81.04-3.225.968-8.19 3.676-11.41 4.643 8.315-26.24 3.09-59.057-10.834-78.72-13.796 19.794-18.31 50.03-10.445 77.946-3.87-.967-6.77-2.128-10.636-3.095-5.673-30.042 2.193-63.956 15.86-81.62-13.925 8.06-27.078 42.615-23.404 77.947-3.35-1.547-5.93-2.708-9.282-4.256-4.514-26.37 7.412-60.665 24.563-80.46-19.47 12.25-35.264 42.295-32.492 74.66-2.967-2.644-5.74-3.933-8.705-6.576-3.417-28.24 12.894-56.67 32.106-73.69-16.18-7.223-30.043-8.64-50.094-8.32 3.16-6.51 6.125-14.182 9.284-20.694z" fill="#be0027"/></g></svg>