<svg xmlns="http://www.w3.org/2000/svg" viewBox="0 0 640 480"><defs><clipPath id="a"><path fill-opacity=".67" d="M-86.325 0h682.67v512h-682.67z"/></clipPath></defs><g clip-path="url(#a)" transform="translate(80.93) scale(.9375)"><path fill-rule="evenodd" fill="#e73e2d" d="M-164.28 0h835.79v306.49h-835.79z"/><path d="M204.3 282.11c-19.435-15.174-55.633-10.04-61.596-51.286 27.717 21.47 22.686-1.227 64.082 19.23L204.3 282.11z" fill-rule="evenodd" stroke="#d8aa3f" stroke-width="1.665" fill="#fec74a"/><path d="M209.47 263.35c-13.852-20.398-49.882-26.602-42.922-67.69 19.807 28.928 21.97 5.782 55.11 37.936L209.47 263.35z" fill-rule="evenodd" stroke="#d8aa3f" stroke-width="1.665" fill="#fec74a"/><path d="M215.77 250.01c-5-24.145-35.922-43.653-13.782-78.958 7.242 34.303 18.09 13.743 36.418 56.124L215.77 250.01z" fill-rule="evenodd" stroke="#d8aa3f" stroke-width="1.665" fill="#fec74a"/><path d="M230.32 237.61c2.653-24.514-20.786-52.572 11.123-79.376-3.638 34.87 12.998 18.633 17.43 64.594L230.32 237.61z" fill-rule="evenodd" stroke="#d8aa3f" stroke-width="1.665" fill="#fec74a"/><path d="M243.26 227.67c12.457-21.28 2.56-56.474 42.646-67.864-17.596 30.324 4.23 22.32-10.543 66.068l-32.103 1.796z" fill-rule="evenodd" stroke="#d8aa3f" stroke-width="1.665" fill="#fec74a"/><path d="M262.07 230.29c18.56-16.234 20.327-52.75 61.957-50.85-26.3 23.184-3.062 22.512-30.94 59.322l-31.017-8.47z" fill-rule="evenodd" stroke="#d8aa3f" stroke-width="1.665" fill="#fec74a"/><path d="M278.57 239.87c22.506-10.072 34.914-44.463 74.152-30.426-31.946 14.444-9.534 20.62-46.987 47.628L278.57 239.87z" fill-rule="evenodd" stroke="#d8aa3f" stroke-width="1.665" fill="#fec74a"/><path d="M292.49 254.93c24.43-3.33 46.018-32.837 79.718-8.323-34.72 4.867-14.953 17.104-58.494 32.476L292.49 254.93z" fill-rule="evenodd" stroke="#d8aa3f" stroke-width="1.665" fill="#fec74a"/><path d="M379.46 259.6l-112.06 2.46 4.705 30.194 107.36-32.654z" fill-rule="evenodd" stroke="#d8aa3f" stroke-width="1.665" fill="#fec74a"/><path d="M363 218.41l-103.84 39.86 17.386 33.372 86.458-73.232z" fill-rule="evenodd" stroke="#d8aa3f" stroke-width="1.665" fill="#fec74a"/><path d="M280.58 280.67l53.722-97.54-82.407 76.705 28.684 20.835z" fill-rule="evenodd" stroke="#d8aa3f" stroke-width="1.665" fill="#fec74a"/><path d="M279.46 272.63l17.268-109.47-53.81 97.285 36.542 12.187z" fill-rule="evenodd" stroke="#d8aa3f" stroke-width="1.665" fill="#fec74a"/><path d="M273.01 263.74l-18.035-110.25-19.99 110.73 38.026-.482z" fill-rule="evenodd" stroke="#d8aa3f" stroke-width="1.665" fill="#fec74a"/><path d="M263.68 254.29l-52.292-92.072 20.095 111.92 32.197-19.845z" fill-rule="evenodd" stroke="#d8aa3f" stroke-width="1.665" fill="#fec74a"/><path d="M255.56 253.6l-81.1-68.48 57.666 98.004L255.56 253.6z" fill-rule="evenodd" stroke="#d8aa3f" stroke-width="1.665" fill="#fec74a"/><path d="M145.95 218.89l87.07 71.89 13.386-37.605-100.46-34.285z" fill-rule="evenodd" stroke="#d8aa3f" stroke-width="1.665" fill="#fec74a"/><path d="M232.1 260.85l-102.31-1.438 101.88 34.01.43-32.572z" fill-rule="evenodd" stroke="#d8aa3f" stroke-width="1.665" fill="#fec74a"/><path d="M315.12 279.224c0 33.896-27.477 61.374-61.373 61.374s-61.373-27.478-61.373-61.374 27.478-61.374 61.373-61.374 61.374 27.478 61.374 61.374z" fill-rule="evenodd" stroke="#d8aa3f" stroke-width="1.665" fill="#fec74a"/><path fill-rule="evenodd" fill="#005989" d="M-165.12 303.4h839.9V512h-839.9z"/><path d="M-165.6 454c15.618 7.228 37.99 25.32 61.922 25.303 40.042-.26 41.108-27.425 81.67-26.133 40.666 1.035 33.31 29.634 88.223 29.49 45.37-.118 60.026-34.664 99.134-30.525 28.96-1.49 40.814 32.714 85.33 33.148 46.173.987 63.127-37.28 92.09-34.112 30.857 0 40.965 30.824 84.254 31.046 55.136.278 64.83-32.078 99.323-30.008 24.55-.518 43.91 23.714 79.886 24.317 28.707.49 52.74-21.214 68.975-28.974l.803-36.827c-17.014 6.327-42.385 27.073-67.755 27.3-36.51 1.337-59.094-23.945-84.464-23.717-30.396.273-42.51 31.284-94.075 31.284-47.11 0-57.918-31.286-88.316-31.286-29.71.228-38.815 34.026-90.253 33.4-41.96-.505-58.31-32.262-88.024-32.034-31.5 0-64.072 30.882-98.95 29.39-48.14-2.033-58.542-29.39-90.042-29.39-23.54 0-48.947 25.636-77.31 26.063-28.204.434-59.89-25.508-62.825-26.062l.402 38.33zm0-72.93c15.618 7.228 37.99 25.32 61.922 25.303 40.042-.26 41.108-27.425 81.67-26.133 40.666 1.035 33.31 29.634 88.223 29.49 45.37-.118 60.026-34.664 99.134-30.525 28.96-1.49 40.814 32.714 85.33 33.148 46.173.987 63.127-37.28 92.09-34.112 30.857 0 40.965 30.824 84.254 31.046 55.136.278 64.83-32.078 99.323-30.008 24.55-.518 43.91 23.714 79.886 24.317 28.707.49 52.74-21.214 68.975-28.974l.803-36.827c-17.014 6.327-42.385 27.073-67.755 27.3-36.51 1.337-59.094-23.945-84.464-23.717-30.396.273-42.51 31.284-94.075 31.284-47.11 0-57.918-31.286-88.316-31.286-29.71.228-38.815 34.026-90.253 33.4-41.96-.505-58.31-32.262-88.024-32.034-31.5 0-64.072 30.882-98.95 29.39-48.14-2.033-58.542-29.39-90.042-29.39-23.54 0-48.947 25.636-77.31 26.063-28.204.434-59.89-25.508-62.825-26.062l.402 38.33z" fill-rule="evenodd" fill="#fff"/><path d="M-165.6 308.92c15.603 7.228 37.955 25.32 61.865 25.303 40.004-.26 41.07-27.425 81.593-26.133 40.63 1.035 33.28 29.634 88.14 29.49 45.328-.118 59.97-34.664 99.043-30.525 28.94-1.49 40.78 32.714 85.257 33.148 46.13.987 63.067-37.28 92.004-34.112 30.827 0 40.926 30.824 84.174 31.046 55.085.278 64.77-32.078 99.23-30.008 24.528-.518 43.87 23.714 79.813 24.317 28.68.49 52.69-21.214 68.91-28.974l.803-36.827c-17 6.327-42.348 27.073-67.695 27.3-36.475 1.337-59.038-23.945-84.385-23.717-30.368.273-42.47 31.284-93.987 31.284-47.065 0-57.864-31.286-88.234-31.286-29.687.228-38.78 34.026-90.17 33.4-41.92-.505-58.257-32.262-87.94-32.034-31.47 0-64.015 30.882-98.86 29.39C15.862 297.947 5.47 270.59-26 270.59c-23.52 0-48.903 25.636-77.237 26.063-28.15.44-59.81-25.5-62.74-26.06l.4 38.33z" fill-rule="evenodd" fill="#fff"/><path d="M136.81 75.956c61.048-4.18 49.92-9.394 74.493-13.316 30.964 4.257 34.505 23.004 51.758 34.505 0 0-6.482 21.926-27.703 18.822-2.853-8.796 10.273-11.515-27.497-34.54-21.96-1.307-61.25 3.854-71.05-5.472zm189.26 33.934l-43.98 1.81v10.866c29.665.95 35.012-3.018 43.98-12.676z" fill-rule="evenodd" stroke="#d8aa3f" stroke-width="1.776" fill="#ffc84b"/><path stroke-linejoin="round" d="M174.84 108.07c7.665-3.92 11.477-2.32 18.118-2.58 4.57 8.28 8.882 9.055 18.885 10.09 15.263 21.472 36.735 21.73 39.84 21.73 29.922-.777 39.408-21.73 59.5-24.06h21.214c-3.535-6.035-6.295-9.485-13.97-9.83-15.78-.862-36.217-.43-54.067 3.622l-25.094 6.21c-7.33-3.536-25.266-22.335-36.735-21.99-6.723 1.81-6.723 4.14-10.086 6.726-6.467 2.76-12.936 1.437-17.6 10.08z" fill-rule="evenodd" stroke="#d8aa3f" stroke-width="1.665" fill="#ffc84b"/><path d="M205.104 98.914a3.174 3.174 0 1 1-6.348 0 3.174 3.174 0 0 1 6.348 0z" fill-rule="evenodd" stroke="#d8aa3f" stroke-width="1.665" fill="#ffc84b"/><path d="M225.56 107.82c44.927-54.154 84.163-47.514 135.3-51.222 1.725 6.295 1.122 15.695-23.282 24.06-33.372 4.914-93.132 40.096-93.39 40.096-11.126-.517-18.886-12.158-18.627-12.935z" fill-rule="evenodd" stroke="#d8aa3f" stroke-width="1.776" fill="#ffc84b"/><path d="M317.87 72.536l33.134 1.436m-36.744 3.97l24.152 1.97" stroke="#d9a43e" stroke-linecap="round" stroke-width="1.776" fill="none"/></g></svg>