<svg xmlns="http://www.w3.org/2000/svg" viewBox="0 0 640 480"><defs><clipPath id="a"><path fill-opacity=".67" d="M0 0h682.67v512H0z"/></clipPath></defs><g clip-path="url(#a)" fill-rule="evenodd" transform="scale(.9375)"><path fill="#ff0" d="M0 0h768.77v128H0z"/><path fill="#fff" d="M0 128h768.77v128H0z"/><path fill="#be0027" d="M0 256h768.77v128H0z"/><path fill="#3b5aa3" d="M0 384h768.77v128H0z"/><path d="M0 0v512l381.86-255.28L0 0z" fill="#239e46"/><path d="M157.21 141.43C72.113 137.12 33.34 204.9 33.43 257.3c-.194 61.97 58.53 113.08 112.81 109.99-29.27-13.84-65.008-52.66-65.337-110.25-.3-52.18 29.497-97.55 76.307-115.61z" fill="#fff"/><path fill="#fff" d="M155.927 197.058l-11.992-9.385-14.54 4.576 5.216-14.32-8.83-12.41 15.23.53 9.064-12.24 4.195 14.65 14.45 4.845-12.644 8.524zm-.255 52.063l-11.993-9.382-14.54 4.576 5.214-14.317-8.83-12.41 15.226.528 9.066-12.238 4.194 14.65 14.454 4.845-12.645 8.525zm.255 52.58l-11.992-9.385-14.54 4.576 5.216-14.317-8.83-12.41 15.23.528 9.064-12.24 4.195 14.65 14.45 4.848-12.644 8.524zm-.255 53.08l-11.993-9.385-14.54 4.576 5.214-14.317-8.83-12.41 15.226.528 9.066-12.24 4.194 14.65 14.454 4.848-12.645 8.524z"/></g></svg>