<svg xmlns="http://www.w3.org/2000/svg" viewBox="0 0 640 480" version="1"><defs><clipPath id="a"><path fill-opacity=".67" d="M5.077.1h682.53V512H5.077z"/></clipPath></defs><g fill-rule="evenodd" clip-path="url(#a)" transform="translate(-4.76 -.094) scale(.93768)"><path stroke="#000" stroke-width="1.014" fill="#fff" d="M775.94 511.52H-75.92V.57h851.86z"/><path fill="#3e5698" d="M775.94 419.07H-75.92v92.457h851.86z"/><path fill="#c60000" d="M775.94 397.65H-75.92V114.44h851.86z"/><path fill="#3e5698" d="M775.94.576H-75.92v92.457h851.86z"/><path d="M328.518 256.07c0 63.45-53.108 114.886-118.62 114.886-65.51 0-118.617-51.437-118.617-114.886 0-63.45 53.11-114.885 118.62-114.885S328.517 192.62 328.517 256.07z" fill="#fff"/><path fill="#c40000" d="M175.83 270.567l-57.06-40.618 71.056-.29 22.636-66.367 21.164 66.147 71.057-.407-57.978 41.177 21.275 66.117-56.998-40.696-57.908 41.265z"/></g></svg>