<svg xmlns="http://www.w3.org/2000/svg" viewBox="0 0 640 480" version="1"><path fill="#006" d="M0 0h640v480H0z"/><path fill-rule="evenodd" fill="#006" d="M0 0h400v200H0z"/><g stroke-width="1pt"><path fill="#fff" d="M0 0v27.09l334.41 215.208h42.095v-27.09L42.093.002H0zm376.505 0v27.09L42.093 242.296H0v-27.09L334.41 0h42.095z"/><path fill="#fff" d="M156.877 0v242.297h62.75V0h-62.75zM0 80.766v80.765h376.505V80.77H0z"/><path fill="#c00" d="M0 96.92v48.46h376.505V96.92H0zM169.427 0v242.297h37.65V0h-37.65zM0 242.297l125.502-80.766h28.062L28.062 242.3H0zM0 0l125.502 80.766H97.44L0 18.06V0zm222.94 80.766L348.444 0h28.062L251.003 80.766H222.94zm153.565 161.53L251.003 161.53h28.062l97.44 62.708v18.06z"/></g><path d="M448.33 179.14c-1.01.61-3.028 2.44-5.048 1.83-2.02-.61-6.562-8.54-11.61-7.32-5.05 1.22-8.078 3.05-10.097 3.05-2.02 0-7.573 1.83-7.573 6.712s.505 8.543 1.515 8.543c1.01 0 2.524-3.05 2.524-3.05s.508 6.1 4.04 6.1 11.108.61 11.61 2.442c.508 1.83-3.53 6.102-2.52 9.763 1.01 3.66 5.552 9.763 5.552 9.763s-6.562 4.88-6.562 7.933 1.01 6.102 1.01 6.102l-29.28 1.22s-2.02 86.647-1.01 93.36c1.01 6.71 3.533 23.186 3.533 23.186s-6.56-2.134-12.115 3.358c-5.553 5.493-24.988 14.948-25.493 19.22-.504 4.27-2.27 7.933-.25 10.983 2.018 3.05 9.123 11.34 7.066 10.985-6.776-1.17-9.3-10.798-13.88-14.34-4.505-3.476-13.38-2.745-14.388.914-1.01 3.662-.506 9.763 0 10.984.503 1.22 6.056 20.747 7.57 25.018s17.416 10.677 24.484 10.068c13.377.304 19.435-5.796 19.94-5.184.505.608 28.78 29.768 86.83 29.898 45.188.1 79.258-29.29 79.258-28.678 0 .61 18.68 6.1 25.242 4.272 6.563-1.834 16.155-6.105 18.174-10.376 2.02-4.27 7.573-26.24 8.078-29.897.505-3.666 0-7.937-4.544-9.158s-7.067-.916-9.59.304-3.283 4.58-7.07 10.68c-2.018 1.833-7.32 6.713-5.804 5.492s4.795-10.373 5.3-13.427c.505-3.05 2.02-8.54-1.514-11.592-3.534-3.05-8.947-4.296-15.145-8.845-5.886-4.034-10.6-10.68-14.135-10.68-3.534 0-7.573-1.83-7.068-1.83.505 0 4.552-8.864 3.542-18.015-1.01-9.155.495-96.7-.01-96.7-.504 0-25.24 1.83-25.24.61s2.02-9.763 0-15.255c-2.02-5.49-10.6-9.153-8.078-10.373 2.524-1.22 13.63-4.27 13.125-9.153-.505-4.884-7.572-4.273-10.6-6.104-3.03-1.83-12.117-10.373-13.127-10.373-1.01 0 26.25-16.475 24.232-16.475-2.02 0-12.62-3.05-16.155-1.22 0-3.052 14.64-12.205 12.116-13.426-2.522-1.22-14.134-2.44-11.105-3.05 3.03-.61 4.04-7.934 3.534-7.934-.506 0-13.126 1.83-13.126 1.83s-3.03-4.27-4.04-4.27c-1.01 0-5.552 2.44-5.552 2.44l-2.523-6.71-5.553 3.66-2.524-3.05s-4.544 1.22-4.544 0c.19-.046-.524-3.066-1.237-3.066-.715 0-5.712 3.883-5.89 3.667-.18-.214-5.712-7.98-5.712-7.765 0 .216-3.926 14.67-4.104 14.67-.178 0-3.927.43-4.105.647-.18.215-19.99-11.435-19.81-11.22.178.217 5.175 11.22 5.175 11.22s-4.283 2.372-4.283 2.59c0 .214.714 4.96.714 4.96l-13.21-4.53s4.998 10.14 4.64 10.14c-.356 0-9.816.43-9.637.43.177 0 4.46 8.413 4.46 8.413l-1.606 4.962s14.217 10.032 13.207 10.643zm84.307 212.348c1.262 1.83 8.077 10.372 7.067 10.372-1.01 0-17.92 11.29-24.737 13.426-6.815 2.134-29.027 6.1-27.765 5.796 1.262-.304 19.946-10.535 27.52-15.414 7.57-4.88 17.914-13.57 17.914-14.18zm-105.513-.308c-1.01 1.22-5.806 10.68-5.806 10.68s13.883 9.763 24.232 13.425c10.35 3.66 28.018 4.88 27.008 4.575-1.01-.304-22.212-9.763-28.27-14.643-6.058-4.883-16.912-14.038-17.165-14.038z" fill-rule="evenodd" fill="#fff"/><g fill-rule="evenodd" stroke="#6d6666" fill="#fec500"><path d="M394.65-212.97s28.777 17.265 35.354 21.376 27.954 22.2 29.598 21.377c1.645-.822 13.155-9.866 13.155-9.866s-23.843-18.91-38.642-23.02-39.465-8.223-39.465-9.867z" stroke-width="1.403" transform="matrix(.307 0 0 .37108 317.054 244.257)"/><path d="M390.54-231.88c2.467 0 47.687 23.022 61.664 34.532s19.732 26.31 21.377 26.31c1.647 0 23.024-3.29 22.2-3.29-.82 0-9.865-29.597-30.42-38.64-20.554-9.045-73.995-18.912-74.82-18.912z" stroke-width="1.403" transform="matrix(.307 0 0 .37108 317.054 244.257)"/><path d="M603.48-296.01c-.822 0-9.044 24.666-11.51 32.065-2.467 7.4-6.578 23.02-6.578 23.02s-36.176 3.29-34.532-.82c1.645-4.112 55.086-54.265 52.62-54.265z" transform="matrix(.307 0 0 .37108 317.054 245.983)" stroke-width="1.403"/><path d="M398.76-261.48s42.754 28.776 57.553 45.22c14.8 16.443 29.598 45.22 30.42 45.22.823 0 40.287-8.222 40.287-7.4s-46.042-46.042-68.24-60.02-59.198-21.376-60.02-23.02z" stroke-width="1.403" transform="matrix(.307 0 0 .37108 317.054 244.257)"/><path d="M443.16-273.81s21.377 32.887 25.487 44.398c4.11 11.51 16.444 41.11 16.444 41.11h33.71s-16.44-37-34.53-55.087-40.286-28.773-41.11-30.42z" transform="matrix(.307 0 0 .37108 317.054 245.983)" stroke-width="1.403"/><path d="M454.66-291.9c.823 2.467 31.243 31.243 38.643 50.153 7.4 18.91 13.155 42.754 13.155 42.754l29.598-7.4s-26.31-48.51-42.753-61.664c-16.444-13.154-36.998-22.198-38.643-23.843z" transform="matrix(.307 0 0 .37108 317.054 245.983)" stroke-width="1.403"/><path d="M700.5-209.68s-61.663 6.578-83.862 12.333-34.532 27.132-34.532 27.132 28.777 10.688 30.42 9.044 18.91-18.91 37.82-25.49c18.91-6.578 51.798-22.2 50.154-23.02z" stroke-width="1.403" transform="matrix(.307 0 0 .37108 317.054 244.257)"/><path d="M698.03-249.97c-1.645.823-50.975 41.11-66.597 54.264-15.62 13.155-30.42 27.132-32.065 27.954-1.644.823-32.065-4.11-30.42-5.755 1.644-1.644 45.22-36.998 73.996-52.62 28.776-15.62 52.62-22.198 55.086-23.843z" stroke-width="1.403" transform="matrix(.307 0 0 .37108 317.054 244.257)"/><path d="M685.7-278.75c-4.933 5.755-53.442 45.22-66.597 59.197s-34.53 38.643-34.53 38.643-25.49-11.51-23.844-16.444c1.64-4.933 36.172-33.71 60.84-50.153 24.663-16.444 66.594-29.6 64.13-31.243z" stroke-width="1.403" transform="matrix(.307 0 0 .37108 317.054 244.257)"/><path d="M636.37-282.04c-.822.823-29.598 31.243-35.354 39.465-5.755 8.222-23.02 44.398-23.02 44.398s-25.488-22.2-25.488-23.02 32.065-34.533 50.975-47.688 33.71-10.688 32.887-13.155z" stroke-width="1.403" transform="matrix(.307 0 0 .37108 317.054 244.257)"/><path d="M565.09-241.77c0 5.78-4.685 10.465-10.465 10.465s-10.465-4.685-10.465-10.465 4.685-10.465 10.465-10.465 10.465 4.685 10.465 10.465zm20.93 13.96c0 5.137-4.685 9.302-10.465 9.302s-10.465-4.165-10.465-9.302 4.685-9.302 10.465-9.302 10.465 4.165 10.465 9.302zm-46.51-10.47c0 5.137-5.726 9.302-12.79 9.302-7.064 0-12.79-4.165-12.79-9.302s5.726-9.302 12.79-9.302c7.064 0 12.79 4.165 12.79 9.302z" transform="matrix(.307 0 0 .37108 317.054 245.983)" stroke-width="1.497"/><path d="M573.23-219.09c0 9.954-6.507 18.022-14.534 18.022-8.027 0-14.534-8.07-14.534-18.022 0-9.954 6.507-18.022 14.534-18.022 8.027 0 14.534 8.07 14.534 18.022zm-39.53.58c0 7.706-6.507 13.953-14.534 13.953-8.027 0-14.534-6.247-14.534-13.953 0-7.706 6.507-13.953 14.534-13.953 8.027 0 14.534 6.247 14.534 13.953z" transform="matrix(.307 0 0 .37108 317.054 245.983)" stroke-width="1.497"/><path d="M513.93-207.46c0 6.743-4.946 12.21-11.046 12.21s-11.046-5.467-11.046-12.21c0-6.743 4.945-12.21 11.046-12.21 6.1 0 11.046 5.467 11.046 12.21zm81.39-1.17c0 8.027-7.548 14.534-16.86 14.534-9.31 0-16.86-6.507-16.86-14.534 0-8.027 7.548-14.534 16.86-14.534 9.31 0 16.86 6.507 16.86 14.534zm-40.69-20.93c0 4.816-5.987 8.72-13.372 8.72s-13.372-3.904-13.372-8.72 5.987-8.72 13.372-8.72 13.372 3.904 13.372 8.72z" transform="matrix(.307 0 0 .37108 317.054 245.983)" stroke-width="1.497"/><path d="M556.95-210.37c0 7.064-8.33 12.79-18.604 12.79s-18.604-5.726-18.604-12.79c0-7.064 8.33-12.79 18.604-12.79s18.604 5.726 18.604 12.79zm47.67 22.67c0 8.67-7.81 15.697-17.44 15.697s-17.442-7.028-17.442-15.697 7.81-15.697 17.44-15.697c9.634 0 17.442 7.028 17.442 15.697zm-95.34-4.07c0 5.78-4.425 10.465-9.883 10.465s-9.884-4.685-9.884-10.465 4.425-10.465 9.884-10.465 9.883 4.685 9.883 10.465z" transform="matrix(.307 0 0 .37108 317.054 245.983)" stroke-width="1.497"/><path d="M579.04-193.51c0 7.385-6.768 13.372-15.116 13.372-8.348 0-15.116-5.987-15.116-13.372s6.768-13.372 15.116-13.372c8.348 0 15.116 5.987 15.116 13.372zm-47.67-.58c0 6.422-5.987 11.627-13.37 11.627-7.386 0-13.372-5.206-13.372-11.627 0-6.422 5.987-11.627 13.37-11.627 7.386 0 13.372 5.206 13.372 11.627z" transform="matrix(.307 0 0 .37108 317.054 245.983)" stroke-width="1.497"/><path d="M554.63-190.61c0 7.064-6.247 12.79-13.953 12.79-7.706 0-13.953-5.726-13.953-12.79 0-7.064 6.247-12.79 13.953-12.79 7.706 0 13.953 5.726 13.953 12.79zm-60.47-76.74c3.488 0 27.906 8.14 27.906 8.14s-30.232 11.627-25.58 10.464 33.72-4.65 31.393-4.65c-2.328 0-25.58 22.09-18.607 20.928 6.977-1.162 20.93-15.115 22.092-15.115 1.163 0 15.116 22.092 16.28 20.93 1.16-1.164 0-22.093 1.16-22.093 1.164 0 29.07 13.953 26.744 12.79-2.325-1.163-18.603-17.44-17.44-17.44 1.162 0 38.37 3.487 36.044 2.324-2.325-1.162-24.417-11.627-24.417-11.627s16.278-15.112 12.79-15.112-30.23 15.115-27.906 13.952c2.327-1.163 29.07-31.394 29.07-31.394l-26.743 12.79s4.65-18.604 2.325-17.442c-2.325 1.163-20.93 24.418-22.092 24.418s-5.812-23.254-5.812-23.254 1.163 25.58-5.813 26.743c-6.977 1.164-31.394 5.815-31.394 4.65z" transform="matrix(.307 0 0 .37108 317.054 245.983)" stroke-width="1.497"/></g><g fill-rule="evenodd"><path d="M445.51 216.536c.177.863 5.89 16.396 14.635 15.964s12.315-3.02 11.958-3.236c-.357-.216-4.105-2.804-6.247-8.414-2.142-5.61-2.5-7.982-2.5-7.982l-17.847 3.668zm31.234-6.04s6.425 15.316 9.28 17.473c2.857 2.155 9.46 3.88 12.316 3.665 2.856-.216 6.247 0 6.247 0s-2.855-1.51-5.176-9.924-3.03-11.217-3.03-11.217h-19.634zm39.266 5.608s-1.25 11.218 0 14.023c1.25 2.805 7.496 7.982 7.496 7.982s7.496-1.08 7.675-7.985c.18-6.904-2.496-13.376-2.496-13.376l-12.672-.647z" fill="#00389b"/><path d="M288.94 21.015s1.163 4.65 0 8.14-11.046 12.79-11.046 20.347c0 7.558 11.627 30.812 47.09 31.394 35.464.58 80.23-19.185 79.648-19.767-.58-.58-84.88-56.977-86.04-56.396-1.16.582-29.65 17.44-29.65 16.28zM523.23 61.13s7.557 20.347 10.464 22.673c2.907 2.325 4.07 6.976 4.65 6.976s48.836 10.46 48.836 10.46 4.65-13.37-2.325-23.835c-6.977-10.465-33.138-37.79-33.138-37.79l-28.49 21.512zm33.14-25c1.162 0 12.79 9.883 22.092 4.65 9.3-5.23 24.417-19.184 24.417-19.184s-12.79 4.07-22.095 3.488c-9.302-.58-23.836 11.627-24.417 11.046z" stroke="#000" stroke-width="1.497" fill="#005120" transform="matrix(.307 0 0 .37108 350.733 188.675)"/><path d="M287.2 23.34s-3.488-9.883-12.79-10.465c-9.302-.58-26.162 1.163-31.975-3.488-5.814-4.65-7.558-15.697-10.465-15.116-2.907.584-10.465 0-11.046 0s-3.488-9.3 4.65-13.95 15.117-.582 19.767-4.07c4.654-3.49 11.63-5.814 20.93-6.395 9.305-.58 24.42 11.628 31.397 14.534 6.976 2.906 22.092 6.394 27.905 3.487 5.815-2.907 38.37-15.697 50-16.278 11.626-.58 36.044-1.163 45.346-.58s45.928 5.23 56.974 10.463c11.045 5.233 69.763 25.58 77.902 30.23 8.14 4.653 26.162 11.63 26.162 11.63s-31.976 31.393-47.672 36.625C518.587 65.2 468.59 73.34 438.94 71.595c-29.65-1.744-52.905-4.65-75.58-16.278-22.68-11.626-47.1-22.672-48.26-28.486-1.16-5.812-.58-13.37-.58-13.37l-27.325 9.883z" stroke="#000" stroke-width="1.497" fill="#005120" transform="matrix(.307 0 0 .37108 350.733 188.675)"/><path d="M251.15-14.45c-1.163.582-6.976 2.908-5.814 4.07 1.163 1.163 3.49 4.65 10.465 4.07 6.98-.58 14.537-4.65 14.537-4.65s-8.72-4.07-19.185-3.49z" stroke="#000" stroke-width="1.497" fill="#005120" transform="matrix(.307 0 0 .37108 350.733 188.675)"/><path d="M250.57-13.286v6.395s8.14 2.322 8.14.58c0-1.746.58-5.815-1.164-5.815s-6.395-.582-6.976-1.163z" stroke="#000" stroke-width="1.497" transform="matrix(.307 0 0 .37108 350.733 188.675)"/><path d="M331.95-8.453c2.056-3.7 0-8.632 11.922-14.388 11.92-5.758 32.68-4.11 32.68-4.11s-5.96 4.52-6.165 9.246c-.205 4.727.41 6.783.41 6.783s-11.304-3.7-19.937-1.44-18.704 4.523-18.91 3.906zm53.45-20.143c-1.233.617-10.277 10.688-9.25 13.772 1.028 3.083 13.155 10.483 17.06 9.866 3.906-.616 21.788-9.25 22.816-13.566 1.028-4.316 1.85-10.072.41-11.305-1.438-1.23-30.83 1.648-31.036 1.236zm39.26-1.644c-2.26 2.26-1.44 13.155-.617 14.388.822 1.233 15.005 15.416 18.088 16.238 3.086.822 25.9-1.44 27.75-3.905s7.4-12.95 5.757-15.413c-1.645-2.467-6.578-5.756-21.788-9.044s-24.255-2.877-29.188-2.26zm58.16 13.77c3.7 1.85 25.282 12.334 38.026 20.76 12.743 8.428 17.882 18.09 21.582 18.91 3.7.823 18.704-8.22 19.32-10.687.618-2.467-18.292-15.62-31.036-21.582-12.744-5.96-47.892-6.78-47.892-7.4zm-4.52 8.84c-1.85 1.644 23.02 45.014 27.748 46.453 4.728 1.438 33.093-8.428 32.682-11.716-.41-3.288-7.81-9.866-25.28-19.526C495.98-2.08 481.8-8.45 478.3-7.63zM447.47 8.196c-3.905 2.26-10.07 41.11-6.166 42.96 3.905 1.85 52.003-4.728 53.853-9.044 1.85-4.317-19.733-38.643-26.105-38.643-6.37 0-17.882 1.642-21.582 4.725zm-49.74-8.22c-5.14 4.726-4.11 40.902-1.85 43.163 2.26 2.26 30.83 9.66 33.914 6.985 3.084-2.672 7.195-43.37 4.317-46.453-2.875-3.082-10.89-10.482-17.06-11.1-6.165-.614-16.442 5.96-19.32 7.4zm-64.54-.618c-4.728 3.7-4.933 13.36.205 15.005 5.14 1.644 17.882 7.194 29.804 12.333 11.92 5.14 18.702 11.305 22.196 11.1 3.494-.207 6.783-36.382 3.083-38.438-3.7-2.055-14.594-3.7-24.87-3.29-10.278.412-25.283 1.44-30.42 3.29z" stroke="#000007" stroke-width="1.497" fill="#001707" transform="matrix(.307 0 0 .37108 350.733 188.675)"/></g><path d="M387.976 359.2c2.59-2.52 6.616-8.68 12.08-8.96 5.467-.28 11.22 4.76 11.22 4.76s5.753 23.528 5.466 23.528c-.288 0-9.493 6.722-9.78 6.722-.288 0-4.028-9.243-7.48-8.404-3.45.84-3.164 13.445-3.74 12.605-.574-.84-15.244-18.203-14.67-18.763.577-.56 7.193-10.642 6.905-11.483zm151.89-3.08c1.726-.28 9.493-6.163 14.958-5.882 5.466.28 8.63 2.8 11.506 5.32 2.876 2.522 6.33 8.963 6.33 8.963s-6.905 19.05-7.48 19.05-3.452 1.68-4.028.28-2.3-5.883-5.753-6.443c-3.454-.56-4.318 6.16-4.318 6.16l-11.217-27.446z" fill-rule="evenodd" fill-opacity=".996" fill="#d40f0f"/><path d="M543.604 362.007c0 1.682 10.643 28.01 27.903 33.05 17.258 5.04 22.724-4.76 24.737-8.122 2.013-3.36 9.205-3.08 9.205-3.08s-1.728 24.647-4.606 27.727c-2.876 3.08-5.178 9.803-21.286 10.082-16.108.28-30.78-15.123-35.668-19.605-4.892-4.485-11.22-16.247-13.81-21.57-2.587-5.32 13.81-17.924 13.52-18.485zm-187.556 52.367c.288 0 7.767 8.123 18.697 7.282 10.93-.84 29.63-7.282 38.258-18.485 8.63-11.2 12.944-23.244 12.944-23.244s-12.656-22.406-12.944-22.406c-.288 0-1.438 7.28-3.74 12.042-2.3 4.763-8.63 18.206-19.272 22.41-10.64 4.2-10.64 5.88-14.955 5.32-4.315-.56-15.533-7.282-15.533-7.563 0-.28-5.464 13.163-5.464 13.163s-1.15 8.682 2.013 11.483z" fill-rule="evenodd" fill-opacity=".996" fill="#fddc59"/><path d="M387.782 358.423c-.814 0-21.154 11.09-20.34 15.844.813 4.753 34.985 72.09 108.206 72.88 73.223.794 117.975-60.998 114.72-71.296-3.255-10.295-26.035-22.18-26.035-22.18s5.694 4.755 4.88 11.09c-.813 6.34-26.035 61-89.496 59.418-63.46-1.585-93.565-49.908-93.565-55.453 0-5.545 3.255-8.715 1.628-10.3z" fill-rule="evenodd" fill-opacity=".996" fill="#fddc59"/><path d="M586.17 407.38c1.728-1.4 12.37-30.53 18.41-29.688 6.043.84 4.03 9.522 3.454 11.763-.575 2.24-6.616 22.407-6.616 22.407s.288-4.762-3.74-5.882c-4.026-1.12-10.643 1.96-11.506 1.4zm-230.122 7.29c0-1.582-4.882-7.128.813-8.713 5.7-1.583 13.02 1.585 13.02 1.585s-4.07-11.883-8.95-21.39c-4.88-9.505-6.51-7.92-10.575-6.337-4.068 1.585-3.97 5.778-1.528 12.115 2.44 6.338 7.223 24.326 7.223 22.74z" fill-rule="evenodd" fill-opacity=".996" fill="#d40f0f"/><path fill="#fdc400" fill-rule="evenodd" d="M423.176 360.347l7.063-23.923-19.62-15.038 24.57-.567 8.012-23.61 8.123 23.57 24.567.452-19.55 15.13 7.17 23.887-20.2-14.216z"/><path d="M555.637 235.833v92.04c.18 44.983-45.69 84.374-76.147 92.04-30.46-7.666-76.328-47.057-76.147-92.036v-92.04h152.294z" fill-rule="evenodd" fill="#fff"/><path d="M177.16 325.98l.42 160.73s2.387-3.288 35.013-1.284c32.627 2.004 35.433 35.433 70.867 35.433 35.433 0 35.433-35.436 70.866-35.436s35.433 35.433 70.866 35.433 35.433-35.434 70.866-35.434 35.433 35.433 72.87 37.46c33.43-2.027 33.43-37.46 69.062-39.464l35.233 2.003v-159.45h-496.06z" fill-rule="evenodd" fill-opacity=".996" transform="matrix(.307 0 0 .3583 348.952 119.04)" stroke="#000" stroke-width="1.497" fill="#d40f0f"/><path d="M403.34 312.006v19.043h10.88c10.015.715 10.877 12.692 21.755 12.692s10.878-12.695 21.756-12.695 10.88 12.694 21.76 12.694 10.878-12.694 21.756-12.694 10.262 11.97 21.754 12.694c10.264-.725 10.818-11.976 21.758-12.694h10.878v-19.044h-10.878c-10.88 0-10.88 12.695-21.757 12.695s-10.876-12.694-21.754-12.694-10.88 12.697-21.757 12.697c-10.88 0-10.88-12.695-21.758-12.695S446.855 324.7 435.977 324.7s-10.878-12.695-21.756-12.695h-10.88zm3.283 38.082l7.596 19.043c10.014.72 10.875 12.698 21.754 12.698 10.878 0 10.878-12.695 21.756-12.695s10.88 12.696 21.757 12.696 10.88-12.696 21.757-12.696S511.508 381.1 523 381.827c10.264-.726 10.565-11.977 21.505-12.695l7.85-19.336-7.598.294c-10.878 0-10.878 12.695-21.756 12.696-10.875 0-10.875-12.696-21.753-12.696s-10.878 12.695-21.757 12.695c-10.88 0-10.88-12.695-21.757-12.695s-10.878 12.695-21.756 12.695S425.1 350.09 414.22 350.09h-7.597zm72.867 69.823c10.88 0 35.803-19.04 35.548-19.04.253 0-2.914-12.695-13.792-12.695s-10.878 12.695-21.757 12.695c-10.88 0-10.88-12.696-21.76-12.696s-13.654 12.695-13.68 12.695c-.503 0 24.56 19.04 35.436 19.04z" fill-rule="evenodd" fill-opacity=".996" fill="#0062bb"/><path d="M90.85 117.57c.82 0 8.22 1.233 13.564.822 5.344-.41 7.4-2.467 7.4-2.878v-1.233h6.988s1.233 5.758.41 6.17-2.877 2.055-3.288 2.055 0-2.878-.822-2.056-1.233 2.055-1.233 2.055-.825-1.234-1.236-1.234-1.233 1.234-1.233 1.234 0-1.234-.41-1.234-2.466 2.054-2.466 2.054l-2.055-1.645s-1.235 2.054-1.646 2.054-2.877-1.644-2.877-1.644l-4.11 2.467s0-3.7-.823-3.29c-.822.412-5.344.412-5.344.412s-1.232 2.465-1.643 2.465-2.055-2.055-1.644-2.055 1.233-1.233.822-1.644c-.41-.41-2.466 0-2.466-.41s-.824-2.88-.41-2.88 2.052.413 2.052.413v-2.47h2.055l.412 2.467z" fill-rule="evenodd" fill-opacity=".996" transform="matrix(1.5005 0 0 1.3054 286.934 126.302)" stroke="#000" stroke-width=".701" fill="#fdc400"/><path d="M98.248 94.136c-.41 0-3.29 3.29-2.878 6.988.41 3.7 7.4 9.044 7.4 9.044s3.7-1.644 4.933 0 1.233 6.577.822 6.577-5.344 1.234-5.344.41c0-.82 0-1.643-.41-1.643s-4.93.41-4.93.41l.41-1.643-4.11-.825 1.644-1.645s-6.578-2.876-6.167-2.876 2.878-1.644 2.878-1.644L87.56 104h2.878s-4.11-3.288-3.7-3.288c.41 0 2.466.41 2.466.41l-1.233-3.287h1.236l-1.233-2.467 2.056-.822 1.23 2.054-.41-4.932 2.876.412v4.11s1.233-2.466 1.233-2.877c0-.41 3.7 1.644 3.286.822z" fill-rule="evenodd" fill-opacity=".996" transform="matrix(1.5005 0 0 1.3054 286.934 126.302)" stroke="#000" stroke-width=".701" fill="#fdc400"/><path d="M529.965 282.453c-.77.67-3.085 2.146-3.085 2.146s5.244-.405 5.09-.405-1.85-1.342-2.005-1.744zm4.47 2.545c-.306.403-1.232 4.562-.615 4.293.616-.265 3.083-3.35 3.083-3.35l-2.467-.94zm7.084.536c.77.67 4.314 3.755 3.85 3.084-.46-.67-.924-3.488-1.232-3.62-.31-.135-2.315.803-2.62.536zm-62.138-4.426c-.462.135-4.317 2.684-4.317 2.684s6.477-1.074 6.167-1.074c-.307 0-2.004-1.206-1.85-1.61zm4.006 3.225c-.617.536-2.62 4.292-1.85 4.16.77-.136 4.163-2.55 4.163-2.55l-2.312-1.61zm-2.476-5.235c-.462-.134-3.702-1.476-3.547-1.476s4.318-.94 4.318-.94l-.77 2.416zm-61.057-1.736l-4.626-3.22 5.86 1.61-1.234 1.61zm-4.01 2.14c-.616 0-6.476 3.22-6.322 3.22s8.173.134 8.02 0c-.155-.133-1.39-2.95-1.697-3.22zm3.7 4.7c-.616.27-5.242 3.354-4.934 3.354.31 0 6.94.134 6.94 0s-1.85-3.22-2.004-3.354zm-.616-33.41s-1.696-3.756-1.54-3.756c.152 0 4.316 2.95 4.316 2.95l-2.776.806zm4.626-4.696c0-.134.463-2.414.463-2.414s4.163 2.817 4.01 2.817c-.155 0-4.165 0-4.473-.406zm6.477 1.744c0-.134.463-3.488.463-3.488s3.855 4.562 3.547 4.696c-.31.134-3.7-.67-4.01-1.208z" fill-rule="evenodd" fill-opacity=".996"/><path d="M137.26 110.86c0 .206 4.316 3.7 4.42 4.522.1.822-7.812 1.028-7.812 1.028s-2.26-1.747-2.98-1.645c-.72.103-1.028 1.85-1.028 1.85l1.85 1.028-3.494.205 1.028 1.953 2.672-.203-.617 1.85s1.64 1.234 1.95 1.028c.31-.205 1.336-2.055 2.16-2.364.82-.31 2.57-.31 2.57-.31s-1.34 2.263-.72 2.263c.614 0 3.39-2.364 3.39-2.364s.616 2.157.72 2.157c.1 0 2.054-2.466 2.054-2.466s0 1.954.308 1.954 3.186-2.467 3.186-2.467 2.26 2.878 2.57 2.672c.307-.206.615-3.084.923-3.084s2.26-.308 2.26-.41-1.23-1.132-1.437-2.57c-.205-1.44.206-4.83.103-4.83s-13.875.513-14.08.205z" fill-rule="evenodd" fill-opacity=".996" transform="matrix(1.5005 0 0 1.3054 285.91 126.597)" stroke="#000" stroke-width=".701" fill="#fdc400"/><path d="M115.37 104.6h40.286c4.11 0 7.81-1.644 7.81-4.11 0-2.467-6.577-2.878-9.043-2.056-2.467.822-13.155 5.755-17.677 5.344s-8.632-3.29-9.043-6.166c-.412-2.878 2.055-5.344 6.577-5.344s10.277 1.644 11.51 1.233 4.11-3.7 5.344-4.11c1.233-.41 4.933-.82 4.933-.82l-1.644 1.233 5.344-1.232s-4.11 4.523-8.222 5.756c-4.11 1.234-12.743.822-16.032.822s-4.933-.41-4.522 2.056c.414 2.467 2.88 4.112 4.936 3.7 2.056-.41 8.222-2.466 8.222-2.466L142.5 97.2l7.4-.41s-.41-1.233 0-1.233 4.112.41 4.112.41-2.467-1.233-2.056-1.233 2.056 0 5.344.412c3.29.41 10.277 1.644 9.866 4.932-.41 3.29-2.877 6.166-5.755 6.166s-5.34-.822-5.34.412c0 1.233 3.29 2.055 5.343 2.055s4.523-1.64 4.934-1.64 1.233 2.465 1.644 2.465 2.88-.822 2.88-.822l-1.645 4.523 2.877.822s-1.644 1.644-1.233 1.644 2.876 0 2.876.41-3.288 2.88-3.288 3.29 2.466 1.644 2.466 1.644-1.643 2.467-2.054 2.056-2.056-2.468-2.056-2.468-.41 1.645-1.233 1.645-2.466-.41-2.466-.41 1.234-2.47.823-2.47-2.467 1.643-2.467 1.23l-1.233-1.234s3.288-1.336 3.288-3.29c0-1.95-1.336-3.904-7.296-4.212-5.96-.31-6.066 1.438-10.485 1.233-4.42-.206-4.42-1.953-7.708-1.953-3.288 0-13.463 4.11-18.19 4.008-4.727-.1-10.688-.41-10.483-.615.206-.206 3.906-9.66 4.008-9.966z" fill-rule="evenodd" fill-opacity=".996" transform="matrix(1.5005 0 0 1.3054 285.91 126.597)" stroke="#000" stroke-width=".701" fill="#fdc400"/><path d="M106.88 102.46c-.41.206-4.008.72-4.214 4.522-.205 3.803.31 3.803.72 3.597.41-.208 1.233-3.497 1.233-3.497s-1.236 4.522.1 5.55a9.298 9.298 0 0 0 2.775 1.438l.513-3.596s-1.028 3.495 1.44 4.728c2.465 1.233 3.39.308 3.184-.617-.205-.925-.925-3.288-.925-3.288s1.952 2.157 2.055 2.362c.102.205 1.027 1.85 3.494 1.13 2.465-.72.72-2.364.72-2.364l-2.98-2.46s3.08 3.184 4.417 2.054-1.028-3.596-.925-3.493 1.953 3.494 2.672 1.336-1.13-2.775-1.747-4.83c-.617-2.056-1.13-2.26-.514-3.495.616-1.232.72-3.595.72-3.595s2.57.616 2.362-1.542c-.205-2.156-2.775-2.67-3.288-2.773-.515-.103-.413-2.26-.618-2.158-.206.102-1.85 1.335-1.85 1.335s-1.44-3.392-1.747-3.186-1.954 1.952-3.187 2.054c-1.234.103-1.954 1.85-1.954 1.85s-4.317-2.055-4.214 1.336c.103 3.392 2.57 2.57 2.57 2.672s-.412 4.728-.823 4.933z" fill-rule="evenodd" fill-opacity=".996" transform="matrix(1.5005 0 0 1.3054 286.934 126.302)" stroke="#000" stroke-width=".701" fill="#fdc400"/><path d="M450.874 253.257c.742-.227 1.833-1.174 3.098-1.06s3.29 1.085 2.288 1.615c-1.005.53-1.745.758-2.88.49-1.133-.266-2.005-.836-2.506-1.045zm12.578-.134c-.742-.227-1.833-1.175-3.098-1.06s-3.29 1.085-2.287 1.615c1.004.53 1.745.757 2.88.49 1.132-.266 2.004-.836 2.505-1.045z" fill-rule="evenodd" fill-opacity=".996"/><path d="M110.99 103.17c.103.514.41 4.83.616 4.522.206-.308 1.748-4.42 1.645-4.42s-2.155.104-2.26-.102z" fill-rule="evenodd" fill-opacity=".996" transform="matrix(1.5005 0 0 1.3054 287.143 126.366)" stroke="#000" stroke-width=".421" fill="#000039"/><path d="M109.96 103.17c.05-1.215.822-1.13 2.467-.925 1.644.206 2.466 1.028 2.363 1.234-.102.202-1.438.716-2.57.613-1.335-.41-2.297.09-2.26-.925z" transform="matrix(1.5005 0 0 1.3054 287.143 126.556)" stroke="#000" stroke-width=".842" fill="none"/><path d="M112.43 100.08l-.206 1.953m7.096-7.19s1.336.618 1.13 1.234c-.205.617-1.13.925-1.13.925m-11.2-2.672c-.308.103-.72.308-.925 1.13-.205.823.925 1.337.925 1.337" transform="matrix(1.5005 0 0 1.3054 287.143 126.556)" stroke="#000" stroke-width="1.497" fill="none"/><path d="M111.19 136.13s-1.454 1.454 1.017 1.454.727-1.308.727-1.308" transform="matrix(1.5005 0 0 1.3054 287.36 77.606)" stroke="#000" stroke-width="1.497" fill="none"/><path fill="#fdc400" fill-rule="evenodd" d="M462.348 403.76l6.41-21.062-17.8-13.24 22.293-.498 7.274-20.784 7.37 20.75 22.294.4-17.74 13.32 6.506 21.03-18.33-12.516z"/><path fill="#003017" fill-rule="evenodd" fill-opacity=".996" d="M465.383 398.115l5.34-16.73-14.832-10.518 18.58-.396 6.06-16.51 6.14 16.485 18.58.318-14.784 10.583 5.42 16.705-15.274-9.94z"/><path fill="#fdc400" fill-rule="evenodd" d="M425.66 361.105l6.34-19.917-17.606-12.52 22.052-.472 7.193-19.655 7.29 19.625 22.05.378-17.547 12.598 6.435 19.888-18.133-11.836z"/><path fill="#003017" fill-rule="evenodd" fill-opacity=".996" d="M428.673 355.764l5.283-15.822-14.673-9.946 18.377-.374 5.994-15.614 6.076 15.588 18.377.3-14.623 10.007 5.363 15.798-15.11-9.4z"/><path fill="#fdc400" fill-rule="evenodd" d="M499.57 361.105l6.423-19.917-17.835-12.52 22.337-.472 7.285-19.655 7.385 19.625 22.337.378-17.774 12.598 6.518 19.888-18.366-11.836z"/><path fill="#003017" fill-rule="evenodd" fill-opacity=".996" d="M502.618 355.764l5.352-15.822-14.862-9.946 18.614-.374 6.07-15.614 6.154 15.588 18.614.3-14.81 10.007 5.43 15.798-15.304-9.4z"/><path d="M373.272 372.554c8.026 34.543 41.902 60.18 87.528 66.243 58.605 7.787 114.514-21.906 124.795-66.277" fill="none"/><path d="M373.128 377.9l11.006-6.22 1.036 2.264-4.317 2.44 1.43 3.12 4.315-2.44 1.036 2.264-11.006 6.218-1.036-2.263 4.988-2.818-1.428-3.12-4.988 2.817-1.036-2.263m4.607 9.63l10.276-7.61 3.52 5.865-1.71 1.264-2.25-3.75-2.375 1.757 2.094 3.492-1.63 1.204-2.093-3.492-2.83 2.094 2.304 3.84-1.734 1.285-3.57-5.953m7.16 11.046l9.065-9.315 1.553 1.86-3.555 3.655 2.14 2.57 3.554-3.653 1.554 1.864-9.065 9.315-1.55-1.864 4.107-4.222-2.14-2.57-4.108 4.222-1.55-1.864m11.835 5.516l1.47 1.433 2.674-5.05-4.145 3.617m-5.75 1.72l10.232-8.278 2.32 2.26-6.03 12.372-1.863-1.815 1.588-3.038-1.99-1.94-2.49 2.158-1.767-1.72m8.93 8.296l6.097-9.238-2.135-1.74 1.205-1.824 6.122 4.99-1.204 1.825-2.134-1.74-6.097 9.24-1.857-1.514m5.01 4.003l6.43-11.71 1.95 1.32-2.52 4.594 2.69 1.824 2.52-4.593 1.95 1.324-6.43 11.71-1.95-1.322 2.915-5.308-2.69-1.824-2.915 5.308-1.95-1.322m12.09 7.652l5.19-12.448 5.856 3.014-.85 2.037-3.768-1.94-1.23 2.944 3.558 1.83-.83 1.99-3.557-1.832-2.284 5.48-2.09-1.074m11.454-1.89c-.72 2.11-1.064 3.486-1.032 4.128.04.64.358 1.085.958 1.338.59.25 1.083.152 1.48-.29.403-.446.97-1.735 1.698-3.868s1.075-3.516 1.04-4.153c-.033-.637-.347-1.08-.942-1.332-.594-.25-1.095-.15-1.5.3-.406.454-.973 1.745-1.7 3.878m-2.198-.927c.465-1.36.893-2.42 1.285-3.182.394-.768.783-1.306 1.17-1.613.532-.443 1.075-.69 1.625-.745.55-.054 1.204.08 1.964.4s1.33.703 1.71 1.15c.38.445.64 1.03.78 1.757.1.526.065 1.217-.1 2.074-.164.86-.476 1.967-.94 3.32-.46 1.35-.887 2.41-1.28 3.177-.393.762-.78 1.304-1.165 1.625-.54.44-1.083.686-1.633.74-.55.054-1.205-.08-1.965-.4s-1.33-.703-1.71-1.15c-.38-.445-.637-1.03-.773-1.754-.105-.513-.076-1.2.086-2.06.164-.864.478-1.976.943-3.337m10.62-2.913l2.205.73-2.373 8.86c-.27 1.015-.345 1.74-.223 2.177.13.432.478.743 1.047.93.565.186 1.003.133 1.316-.16.317-.29.614-.952.89-1.983l2.366-8.827 2.177.72-2.433 9.075c-.237.882-.456 1.513-.658 1.892a2.88 2.88 0 0 1-.733.92 2.867 2.867 0 0 1-1.54.625c-.583.055-1.233-.036-1.95-.273-1.353-.45-2.22-1.09-2.605-1.923-.38-.838-.35-2.068.084-3.69l2.432-9.077m5.906 16.178l2.696-13.387 2.308.573 1.252 10.143 1.823-9.38 2.12.53-2.694 13.385-2.293-.57-1.272-10.166-1.826 9.395-2.113-.525m12.07.682l1.006.173c.512.09.877.11 1.094.064a.966.966 0 0 0 .55-.338c.26-.314.48-.77.656-1.364.177-.6.36-1.575.55-2.925.185-1.312.267-2.28.246-2.894-.02-.618-.138-1.1-.348-1.45a1.086 1.086 0 0 0-.47-.407c-.2-.1-.52-.19-.96-.267l-.977-.17-1.35 9.576m-2.506 1.61l1.91-13.556 3.65.636c.745.13 1.326.304 1.745.52.425.22.757.51.997.878.364.538.58 1.177.656 1.917.08.735.015 1.848-.195 3.338-.27 1.925-.522 3.276-.756 4.053-.233.77-.535 1.41-.904 1.916-.358.51-.804.83-1.337.967-.528.13-1.406.088-2.637-.126l-3.13-.545m9.55 1.57l1.19-13.657 6.31.677-.197 2.27-4.038-.433-.276 3.157 3.76.403-.19 2.164-3.76-.402-.325 3.76 4.133.444-.2 2.306-6.408-.687m10.43-1.106l1.018.04c.518.022.882-.005 1.093-.08a1 1 0 0 0 .51-.408c.227-.347.395-.828.506-1.44.112-.62.19-1.613.234-2.98.043-1.328.02-2.298-.066-2.907-.086-.61-.253-1.076-.5-1.395a1.048 1.048 0 0 0-.51-.34c-.206-.075-.534-.12-.982-.14l-.986-.04-.315 9.688m-2.316 1.93l.444-13.71 3.694.15c.753.03 1.35.124 1.788.284.444.16.805.407 1.083.74.417.485.702 1.09.855 1.816.16.72.213 1.833.165 3.34-.064 1.947-.17 3.322-.32 4.124-.147.796-.378 1.47-.69 2.023-.3.552-.71.93-1.224 1.136-.51.2-1.387.275-2.63.225l-3.167-.125m13.754.18l-.49-13.71 2.3-.1.49 13.708-2.3.102m6.14-.36l-.843-11.42-2.637.24-.166-2.254 7.568-.69.167 2.257-2.636.24.843 11.418-2.294.21m8.1-14.71l2.267-.438 1.426 9.11c.163 1.042.387 1.728.672 2.06.29.323.726.43 1.31.315.58-.11.95-.374 1.114-.79.167-.42.17-1.158.002-2.217l-1.42-9.076 2.236-.43 1.46 9.33c.142.904.2 1.58.17 2.02-.025.43-.12.825-.287 1.183a3.267 3.267 0 0 1-1.127 1.32c-.5.34-1.12.58-1.856.72-1.39.27-2.426.127-3.104-.43-.674-.562-1.142-1.68-1.403-3.345l-1.46-9.33m12.285 3.48l.935-.254c.696-.19 1.15-.47 1.366-.846.213-.38.24-.94.08-1.672-.163-.737-.405-1.213-.726-1.425-.318-.22-.838-.23-1.56-.036l-.965.262.87 3.973m-.515 8.08l-2.922-13.33 3.88-1.05c1.183-.32 2.1-.258 2.748.19.65.45 1.12 1.342 1.413 2.68.29 1.316.225 2.372-.19 3.17-.41.79-1.183 1.337-2.32 1.645l-1.63.44 1.24 5.65-2.22.603m8.818-9.66c.615 2.152 1.114 3.47 1.5 3.95.386.474.886.603 1.497.388.6-.21.933-.627.997-1.25.067-.626-.21-2.027-.83-4.2s-1.122-3.5-1.504-3.975c-.382-.475-.876-.606-1.483-.393-.606.215-.942.64-1.008 1.273-.067.634.21 2.037.83 4.21m-2.238.79c-.397-1.387-.654-2.514-.773-3.382-.12-.872-.115-1.562.015-2.07.17-.714.458-1.282.86-1.704.4-.422.988-.77 1.762-1.042.774-.273 1.434-.366 1.98-.278.546.088 1.078.368 1.594.84.372.343.733.907 1.08 1.694.354.784.727 1.868 1.122 3.25.392 1.375.65 2.5.77 3.373.118.87.117 1.56-.005 2.077-.176.715-.465 1.284-.866 1.705-.4.422-.99.77-1.764 1.042-.774.273-1.434.366-1.98.278-.547-.088-1.076-.37-1.587-.843-.37-.33-.73-.89-1.085-1.675-.355-.79-.73-1.88-1.127-3.268m11.286 3.136l-4.595-12.735 2.195-.976 6.198 7.576-3.273-8.88 2.017-.897 4.595 12.735-2.18.97-6.226-7.583 3.28 8.896-2.01.895m14.3-7.024l-4.817-10.13-2.34 1.374-.95-2 6.71-3.942.95 2-2.337 1.374 4.817 10.13-2.034 1.194m5.434-3.24l-6.593-11.6 1.934-1.355 2.587 4.55 2.663-1.87-2.586-4.55 1.932-1.355 6.59 11.6-1.93 1.355-2.99-5.257-2.663 1.87 2.988 5.258-1.93 1.355m8.235-5.93l-7.44-10.946 5.06-4.247 1.236 1.82-3.237 2.716 1.72 2.53 3.013-2.528 1.18 1.735-3.013 2.53 2.047 3.012 3.315-2.78 1.255 1.847-5.138 4.31m6.352-11.77l1.64-1.795.557.63c.533.6.963.94 1.29 1.014.33.066.66-.08.99-.444.348-.38.525-.764.53-1.154.01-.395-.15-.783-.49-1.164-.257-.295-.54-.476-.85-.546-.313-.074-.825-.048-1.537.08l-1.426.257c-1.22.23-2.09.273-2.61.125-.516-.152-1.018-.503-1.505-1.054-.727-.82-1.078-1.704-1.05-2.65.025-.943.423-1.836 1.193-2.677.816-.89 1.66-1.325 2.534-1.304s1.72.495 2.54 1.423c.08.093.143.167.184.222.045.05.082.098.112.14l-1.555 1.698-.23-.26c-.47-.53-.882-.823-1.24-.882-.36-.057-.72.11-1.076.5-.263.288-.394.6-.393.94 0 .334.137.65.407.958.362.41 1.102.495 2.22.26a.103.103 0 0 1 .028-.007l1.505-.306c1.062-.23 1.896-.257 2.5-.083.6.17 1.187.58 1.764 1.234.787.89 1.165 1.826 1.135 2.808-.03.983-.47 1.938-1.32 2.866-.888.967-1.77 1.433-2.656 1.4-.88-.04-1.783-.58-2.704-1.62a12.8 12.8 0 0 1-.46-.572l-.033-.038m9.554-3.854l-9.46-8.81 4.072-5.402 1.574 1.465-2.607 3.453 2.187 2.037 2.427-3.216 1.5 1.398-2.426 3.218 2.606 2.426 2.668-3.537 1.598 1.487-4.136 5.483m2.404-12.282l1.093-1.803-4.847-2.306 3.754 4.11m2.264 6.12l-8.686-10.23 1.725-2.843 11.81 5.08-1.386 2.284-2.914-1.365-1.48 2.44 2.242 2.47-1.312 2.165m1.465-11.156l1.05-2.276.707.403c.675.385 1.18.556 1.51.512.33-.053.603-.308.816-.768.222-.48.28-.907.177-1.28-.102-.38-.366-.69-.794-.934-.326-.188-.65-.26-.96-.22-.32.04-.798.244-1.437.613l-1.28.743c-1.092.646-1.906.99-2.442 1.03-.532.037-1.11-.12-1.726-.474-.922-.526-1.505-1.24-1.747-2.148-.24-.906-.116-1.893.377-2.96.523-1.13 1.2-1.84 2.036-2.124.834-.285 1.772-.13 2.813.463.105.06.184.11.24.148.056.032.104.063.145.093l-.996 2.156-.293-.166c-.596-.34-1.07-.475-1.43-.405-.355.07-.65.354-.88.85-.167.365-.202.708-.105 1.03.095.316.314.57.656.766.46.265 1.19.09 2.183-.526a.08.08 0 0 1 .025-.016l1.34-.816c.946-.59 1.73-.906 2.35-.952.62-.048 1.294.137 2.026.554 1 .57 1.622 1.327 1.87 2.27.25.943.103 2.004-.442 3.182-.566 1.226-1.274 1.977-2.123 2.254-.846.27-1.854.073-3.024-.594a11.54 11.54 0 0 1-.598-.382l-.043-.024"/></svg>