<svg xmlns="http://www.w3.org/2000/svg" viewBox="0 0 640 480"><g fill-rule="evenodd"><path fill="#6fdcff" d="M0 0h640v480H0z"/><g fill="#ffe400"><path d="M60.235 466.995c3.252 3.184 2.182 8.54 11.225 7.85 13.806 0 14.204-8.445 14.204-14.343 0-5.888-20.57-14.124-21.518-22.79-.96-8.673 4.748-11.095 9.524-11.095 4.748 0 8.082 2.777 8.082 5.198s-2.374 3.122-5.708 3.122 1.427-1.733-1.427-3.122-4.762 2.078-4.762 4.166c0 2.08 7.136 2.77 11.897 1.21.96 4.68 1.428 5.035-5.242 13 4.776-3.12 5.23-3.81 10.485-2.077-5.243-4.51-1.318-13.695-1.14-16.034s-1-5.116-3.142-6.504c-3.815-3.466-12.145-3.622-17.14-1.388-7.273 3.246-7.63 12.82-5.722 15.95l20.16 20.67c1.43 2.432 1.92 9.186-6.64 9.53-9.044.69-12.145-11.64-13.75-15.742-2.155 4.48-4.557 16.838-13.6 16.15-8.577-.345-10.224-7.1-8.797-9.53l20.71-21.078c1.893-3.13 1.536-12.704-5.737-15.95-4.995-2.234-13.31-2.078-17.126 1.388-2.14 1.388-3.336 4.165-3.157 6.503s4.104 11.524-1.14 16.034c5.257-1.732 5.724-1.043 10.486 2.078-6.67-7.964-6.19-8.32-5.244-12.996 4.762 1.557 11.91.868 11.91-1.21 0-2.087-1.92-5.553-4.774-4.165-2.84 1.39 1.907 3.12-1.414 3.12-3.35 0-5.723-.7-5.723-3.12s3.334-5.2 8.096-5.2 10.47 2.424 9.51 11.098c-.946 8.665-22.052 18.123-22.052 24.01 0 5.898 1.47 13.122 15.274 13.122 9.045.69 10.115-4.667 13.395-7.85z"/><path d="M59.137 343.293c3.252-3.184 5.928-12.62 14.972-11.932 13.802 0 19.03 7.63 19.03 13.53 0 5.89-28.077 54.086-29.023 62.75-.962 8.675 4.747 11.097 9.522 11.097 4.747 0 8.082-2.776 8.082-5.198s-2.374-3.123-5.71-3.123 1.43 1.733-1.426 3.122-4.763-2.08-4.763-4.166c0-2.078 7.136-2.767 11.898-1.21.96-4.678 1.428-5.033-5.24-12.998 4.775 3.12 5.227 3.81 10.483 2.077-5.242 4.51-1.317 13.697-1.14 16.036s-1 5.114-3.14 6.502c-3.816 3.466-12.146 3.623-17.14 1.39-7.274-3.248-7.63-12.82-5.724-15.95l27.13-58.596c1.427-2.433-2.374-10.408-10.938-10.752-9.043-.69-12.144 8.79-13.75 12.893l12.323-.898s.48 1.9 0 3.13c-6.368.417-12.324 1.576-12.324 1.576l-.466 6.242h6.08l-.48 2.767s-5.134-.345-5.6 0c-.48.344-.96 6.253-.96 6.253s-.948.344-1.977.344c-1.043 0-1.99-.344-1.99-.344s-.48-5.91-.947-6.253c-.48-.345-5.612 0-5.612 0l-.466-2.767h6.08l-.48-6.242s-5.957-1.16-12.325-1.576c-.466-1.232 0-3.132 0-3.132l12.324.898c-1.604-4.103-4.705-13.58-13.735-12.892-8.578.345-12.38 8.32-10.952 10.753l27.144 58.594c1.894 3.13 1.537 12.704-5.736 15.95-4.994 2.235-13.31 2.078-17.125-1.39-2.14-1.39-3.335-4.164-3.157-6.502s4.103-11.525-1.14-16.035c5.257 1.734 5.724 1.045 10.486-2.076-6.67 7.965-6.19 8.32-5.244 12.997 4.76-1.555 11.91-.866 11.91 1.21 0 2.09-1.92 5.555-4.775 4.167-2.84-1.39 1.908-3.12-1.413-3.12-3.35 0-5.724.7-5.724 3.12s3.335 5.2 8.097 5.2 10.47-2.423 9.51-11.097c-.947-8.666-29.024-56.863-29.024-62.75 0-5.898 5.23-13.53 19.035-13.53 9.043-.69 12.254 8.75 15.534 11.933z"/><path d="M59.137 319.408c3.252 3.184 5.928 12.62 14.972 11.932 13.802 0 19.03-7.63 19.03-13.53 0-5.887-28.077-54.083-29.024-62.748-.96-8.675 4.75-11.096 9.524-11.096 4.75 0 8.084 2.776 8.084 5.198s-2.374 3.12-5.71 3.12 1.428-1.73-1.426-3.12-4.763 2.078-4.763 4.165c0 2.075 7.136 2.764 11.898 1.21.96 4.675 1.427 5.03-5.242 12.995 4.777-3.12 5.23-3.81 10.486-2.077-5.242-4.51-1.317-13.697-1.14-16.036s-1-5.115-3.14-6.503c-3.816-3.466-12.146-3.623-17.14-1.39-7.275 3.25-7.63 12.82-5.724 15.952l27.13 58.594c1.43 2.433-2.373 10.408-10.936 10.752-9.043.69-12.145-8.79-13.75-12.893l12.323.898s.48-1.9 0-3.132c-6.37-.416-12.325-1.575-12.325-1.575l-.467-6.243h6.08l-.48-2.766s-5.134.344-5.6 0c-.48-.345-.96-6.254-.96-6.254s-.948-.344-1.978-.344c-1.042 0-1.99.344-1.99.344s-.48 5.91-.946 6.253c-.48.344-5.613 0-5.613 0l-.467 2.765h6.08l-.48 6.243s-5.956 1.16-12.324 1.576c-.467 1.232 0 3.132 0 3.132l12.322-.898c-1.604 4.103-4.706 13.58-13.735 12.892-8.578-.344-12.38-8.32-10.952-10.752L57.9 257.48c1.893-3.13 1.536-12.703-5.737-15.95-4.994-2.234-13.31-2.077-17.126 1.39-2.14 1.387-3.335 4.164-3.157 6.502s4.103 11.525-1.14 16.035c5.257-1.733 5.724-1.044 10.485 2.077-6.67-7.965-6.19-8.32-5.242-12.997 4.762 1.556 11.912.867 11.912-1.21 0-2.088-1.92-5.554-4.776-4.166-2.84 1.39 1.907 3.12-1.414 3.12-3.35 0-5.724-.696-5.724-3.12s3.334-5.2 8.096-5.2 10.47 2.425 9.51 11.1c-.947 8.665-29.024 56.86-29.024 62.75 0 5.897 5.227 13.528 19.033 13.528 9.043.69 12.254-8.748 15.534-11.932z"/><path d="M59.137 160.61c3.252-3.184 5.928-12.62 14.972-11.932 13.802 0 19.03 7.63 19.03 13.53 0 5.887-28.077 54.084-29.023 62.748-.962 8.675 4.747 11.097 9.522 11.097 4.747 0 8.082-2.777 8.082-5.2s-2.374-3.12-5.71-3.12 1.43 1.733-1.426 3.12-4.763-2.076-4.763-4.164c0-2.08 7.136-2.77 11.898-1.21.96-4.68 1.428-5.035-5.24-13 4.775 3.12 5.227 3.81 10.483 2.077-5.242 4.51-1.317 13.695-1.14 16.033s-1 5.116-3.14 6.505c-3.816 3.465-12.146 3.622-17.14 1.388-7.274-3.246-7.63-12.82-5.724-15.95l27.13-58.595c1.427-2.432-2.374-10.407-10.938-10.752-9.043-.69-12.144 8.79-13.75 12.892l12.323-.898s.48 1.9 0 3.132c-6.368.418-12.324 1.576-12.324 1.576l-.466 6.243h6.08l-.48 2.768s-5.134-.345-5.6 0c-.48.344-.96 6.252-.96 6.252s-.948.344-1.977.344c-1.043 0-1.99-.345-1.99-.345s-.48-5.91-.947-6.255c-.48-.345-5.612 0-5.612 0l-.466-2.767h6.08l-.48-6.244s-5.957-1.158-12.325-1.576c-.466-1.232 0-3.132 0-3.132l12.324.898c-1.604-4.102-4.705-13.58-13.735-12.892-8.578.345-12.38 8.32-10.952 10.752l27.144 58.594c1.894 3.132 1.537 12.705-5.736 15.95-4.994 2.235-13.31 2.078-17.125-1.387-2.14-1.39-3.335-4.164-3.157-6.503s4.103-11.525-1.14-16.035c5.257 1.732 5.724 1.043 10.486-2.078-6.67 7.965-6.19 8.32-5.244 12.996 4.76-1.555 11.91-.866 11.91 1.21 0 2.09-1.92 5.555-4.775 4.166-2.84-1.39 1.908-3.12-1.413-3.12-3.35 0-5.724.7-5.724 3.12s3.335 5.2 8.097 5.2 10.47-2.424 9.51-11.1c-.947-8.663-29.024-56.86-29.024-62.75 0-5.896 5.23-13.527 19.035-13.527 9.043-.69 12.254 8.747 15.534 11.93z"/><path d="M59.137 136.726c3.252 3.184 5.928 12.62 14.972 11.932 13.802 0 19.03-7.63 19.03-13.53 0-5.887-28.077-54.084-29.024-62.748-.96-8.675 4.75-11.097 9.524-11.097 4.75 0 8.084 2.777 8.084 5.2s-2.374 3.12-5.71 3.12 1.428-1.733-1.426-3.12-4.763 2.076-4.763 4.164c0 2.077 7.136 2.766 11.898 1.21.96 4.677 1.427 5.032-5.242 12.997 4.777-3.12 5.23-3.81 10.486-2.077-5.242-4.51-1.317-13.696-1.14-16.034s-1-5.115-3.14-6.504c-3.816-3.47-12.146-3.625-17.14-1.39-7.275 3.245-7.63 12.82-5.724 15.95l27.13 58.594c1.43 2.432-2.373 10.407-10.936 10.752-9.043.69-12.145-8.79-13.75-12.892l12.323.897s.48-1.9 0-3.13c-6.37-.42-12.325-1.577-12.325-1.577l-.467-6.242h6.08l-.48-2.765s-5.134.344-5.6 0c-.48-.345-.96-6.253-.96-6.253s-.948-.345-1.978-.345c-1.042 0-1.99.344-1.99.344s-.48 5.91-.946 6.254c-.48.344-5.613 0-5.613 0l-.467 2.766h6.08l-.48 6.243s-5.956 1.16-12.324 1.577c-.467 1.232 0 3.13 0 3.13l12.322-.896c-1.604 4.102-4.706 13.58-13.735 12.892-8.578-.345-12.38-8.32-10.952-10.752L57.897 74.8c1.894-3.132 1.537-12.705-5.736-15.95-4.993-2.235-13.31-2.08-17.125 1.387-2.14 1.388-3.335 4.164-3.157 6.503s4.103 11.524-1.14 16.034c5.257-1.733 5.724-1.044 10.485 2.077-6.67-7.963-6.19-8.32-5.242-12.994 4.763 1.555 11.913.866 11.913-1.21 0-2.09-1.92-5.555-4.776-4.166-2.84 1.387 1.908 3.12-1.413 3.12-3.35 0-5.724-.7-5.724-3.12s3.334-5.2 8.096-5.2 10.47 2.422 9.51 11.097c-.947 8.664-29.024 56.86-29.024 62.75 0 5.897 5.227 13.528 19.033 13.528 9.043.69 12.254-8.748 15.534-11.932z"/><path d="M60.234 13.003c3.253-3.184 2.182-8.54 11.226-7.85 13.805 0 14.203 8.445 14.203 14.343 0 5.887-20.57 14.124-21.518 22.788-.96 8.675 4.75 11.097 9.524 11.097 4.745 0 8.08-2.774 8.08-5.196s-2.374-3.12-5.71-3.12 1.43 1.732-1.426 3.12-4.762-2.077-4.762-4.165c0-2.078 7.136-2.767 11.898-1.21.96-4.68 1.428-5.034-5.24-12.998 4.774 3.12 5.227 3.81 10.483 2.078-5.242 4.51-1.317 13.696-1.14 16.034s-1 5.116-3.14 6.505c-3.816 3.464-12.146 3.62-17.14 1.387-7.275-3.246-7.63-12.82-5.724-15.95l20.16-20.67c1.424-2.432 1.92-9.186-6.645-9.53-9.043-.69-12.145 11.64-13.75 15.74C57.46 20.93 55.06 8.57 46.015 9.26c-8.576.344-10.223 7.1-8.796 9.53l20.71 21.076c1.892 3.132 1.535 12.705-5.738 15.95-4.995 2.235-13.312 2.078-17.127-1.387-2.14-1.39-3.334-4.166-3.156-6.505S36.012 36.4 30.77 31.89c5.257 1.733 5.724 1.044 10.485-2.077-6.67 7.964-6.19 8.32-5.242 12.996 4.762-1.557 11.912-.868 11.912 1.21 0 2.09-1.92 5.553-4.776 4.164-2.84-1.388 1.905-3.12-1.416-3.12-3.35 0-5.723.7-5.723 3.12s3.336 5.2 8.098 5.2 10.47-2.423 9.51-11.098c-.948-8.664-22.054-18.122-22.054-24.01 0-5.898 1.468-13.12 15.274-13.12 9.044-.69 10.115 4.665 13.394 7.85z"/></g><g fill="#ffe400" transform="translate(-194.73 8.285) scale(1.0673)"><rect rx="85.12" ry="80.648" height="161.3" width="170.24" y="104.45" x="425.9"/><path d="M506.94 56.355c-.708-.007-4.534 26.842-6.013 32.876-1.325 13.43 18.07 12.94 14.897-.53l-8.88-32.343zm6.83 259.855c.706.053 6.49-26.48 8.408-32.4 2.306-13.31-17.078-14.1-14.9-.45l6.492 32.85zm-135.6-131.6c-.06.67 27.915 6.277 34.156 8.123 14.037 2.25 14.962-16.113.547-14.115l-34.703 5.992zm271.72 3.19c.03-.67-28.166-5.274-34.483-6.896-14.123-1.745-14.234 16.638.08 14.125l34.403-7.23zm-243.1-88.16c-.482.493 17.893 21.25 21.605 26.35 9.588 9.97 22.265-3.946 9.616-10.794l-31.22-15.56zm211.16 171c.435-.53-19.772-19.698-23.937-24.472-10.465-9.145-21.82 5.76-8.59 11.543l32.528 12.93zM448.97 70.62c-.644.28 7.966 26.113 9.34 32.17 4.84 12.685 22.167 4.414 13.24-6.493L448.97 70.62zm123.01 232.34c.663-.237-6.032-26.575-6.96-32.708-3.897-12.973-21.79-5.862-13.682 5.606l20.642 27.1zm30.18-214.358c-.51-.465-22.71 16.61-28.152 20.045-10.676 8.923 3.807 21.156 11.236 9.282L602.16 88.6zM419.24 282.33c.476.497 23.874-15.076 29.553-18.145 11.304-8.2-2.247-21.355-10.528-10L419.24 282.33zm-35.09-144.17c-.29.612 24.124 14.715 29.362 18.422 12.45 6.543 19.765-10.482 5.47-13.14l-34.832-5.282zm253.92 98.44c.335-.59-22.987-16.266-27.94-20.31-11.94-7.346-20.487 9.157-6.42 12.75l34.36 7.56zm-80.7-172.88c-.657-.252-14.57 23.415-18.275 28.52-6.412 12.042 11.83 18.3 14.072 4.662l4.204-33.183zm-93.85 244.25c.637.294 16.252-22.4 20.322-27.25 7.28-11.59-10.46-19.035-13.696-5.577l-6.626 32.826zm-77.48-69.29c.257.625 27.986-5.986 34.45-6.926 13.65-3.825 5.964-20.703-6.057-12.906L386.04 238.68zm252.09-102.57c-.21-.64-28.357 4.13-34.873 4.643-13.9 2.917-7.468 20.26 5.096 13.273l29.777-17.916z"/><path d="M534.62 58.12c-.692-.142-10.14 25.428-12.87 31.057-4.15 12.903 14.954 16.12 14.705 2.318L534.62 58.12zm-48.47 255.85c.68.187 11.98-24.7 15.115-30.136 5.085-12.6-13.736-17.064-14.5-3.28l-.615 33.416zm-9.77-253.33c-.692.143 1.918 27.12 1.9 33.316 1.88 13.37 20.668 8.783 14.395-3.675l-16.29-29.64zm68.01 251.82c.7-.098.075-27.183.546-33.362-.895-13.462-19.974-10.12-14.628 2.72l14.082 30.64zM428.16 83.092c-.58.384 12.765 24.345 15.26 30.07 7.154 11.66 22.642.59 11.8-8.63l-27.06-21.44zM593.02 290.86c.607-.345-10.95-25.126-13.02-31.002-6.282-12.104-22.544-2.077-12.403 7.834l25.423 23.168zM393 116.64c-.397.556 21.128 18.39 25.624 22.888 11.09 8.456 21.36-7.142 7.75-12.065L393 116.64zm234.19 139.62c.436-.53-19.73-19.736-23.885-24.52-10.445-9.164-21.832 5.72-8.615 11.527l32.5 12.992zm-249.62-97.73c-.18.65 26.336 10.784 32.143 13.63 13.41 4.53 17.693-13.4 3.13-13.81l-35.273.18zm267.47 57.82c.23-.635-25.482-12.49-31.067-15.712-13.045-5.4-18.632 12.204-4.135 13.57l35.202 2.143zm-268.34-6.39c.098.665 28.69.262 35.207.752 14.214-.753 10.823-18.853-2.767-13.88L376.7 209.96zm270.21-44.99c-.05-.67-28.6-2.15-35.067-3.067-14.235-.184-12.178 18.095 1.743 14.027l33.324-10.96zm-245.73 98.46c.395.557 25.926-11.64 32.015-13.9 12.438-6.56 1.04-21.437-8.89-11.337L401.18 263.43zm222.3-152.33c-.353-.582-26.717 9.907-32.956 11.76-12.89 5.726-2.61 21.317 8.037 11.895l24.92-23.654zM442.83 298.77c.597.362 18.872-20.474 23.505-24.846 8.643-10.718-8.072-20.052-12.925-7.037l-10.58 31.883zM582.54 75.063c-.57-.4-20.327 19.183-25.27 23.24-9.406 10.123 6.584 20.534 12.38 7.87l12.89-31.11z"/><g transform="matrix(2.1824 0 0 2.063 -405.01 -272.56)"><path d="M360.137 247.89c.625 2.5.78 16.56 14.844 30 14.065 13.436 37.97 16.405 37.97 16.405s.158 1.875-1.56 2.03c-1.72.158-9.845-1.56-13.907-2.81-4.062-1.25-7.655-3.44-8.124-3.282-.47.156-1.25 1.562-2.5 1.406s-7.03-6.25-9.53-7.816c-2.5-1.562-10.94-10.78-13.75-15.312-2.815-4.53-3.44-7.5-4.377-7.5-.938 0-4.22 2.187-4.22 2.187s-2.968-4.53-5.624-11.72c-2.657-7.186-2.345-11.405-1.72-11.717.625-.313.625 5.312 2.656 10.468 2.032 5.158 4.844 6.72 4.844 6.72s-1.876-2.656-3.28-9.375-1.877-13.125-.94-15.156c.94-2.03 1.875-2.657 2.032-2.5.156.155-1.72 3.124-.47 10.78s4.845 14.22 5.626 13.906c.78-.312-.47-1.875-1.094-6.406s.625-7.342 1.72-7.654c.468-.47 1.25 5 1.405 7.344zm-9.845 12.81c-2.656-2.5-6.875-11.25-7.812-10.782-.938.47 6.875 12.97 7.03 14.063.157 1.096 1.876 4.534.626 4.065s-10.625-10.312-9.53-8.437 8.124 10.468 7.655 10.937-5.78-4.688-5.934-4.062c-.157.626 5.312 5.782 5.156 6.407s-3.437-3.28-3.437-2.5 3.438 4.686 3.438 5.31-2.97-2.812-2.03-.937c.937 1.875 3.593 3.594 3.437 4.22s-2.187-.783-2.187-.47c0 .312 3.905 1.72 4.842 2.812.938 1.094 7.344 8.438 12.188 12.188s18.594 10.156 19.53 10.156c.94 0 2.345-2.03 2.032-2.814-.312-.782-13.75-5.313-17.5-8.75-3.75-3.438-12.968-11.563-13.75-12.032-.78-.468-2.812-.312-2.812-.78s2.656.312 2.5 0c-.156-.313-3.75-1.876-3.594-2.188.155-.313 2.5.625 2.5.312s-4.22-2.657-4.063-3.126c.156-.47 3.125 1.406 3.125 1.094 0-.313-4.065-3.125-3.91-3.594.158-.47 3.126 2.188 2.97 1.563s-2.344-3.907-2.344-4.375c0-.468 3.594 3.438 3.907 2.657.312-.78-1.25-7.19-1.094-7.345s2.645 1.422 3.114.484c.468-.938-1.837-2.24-4.052-4.08zm46.108 49.2c-1.893.25-2.747-.393-1.672-1.934 1.488-.11 5.45-1.38 6.85-1.96s2.893-1.416 4.136-2.534c1.24-1.22 1.903.782 1.282 1.82-.515.73-2.838 2.043-4.545 2.738-2.476.825-4.61 1.967-6.05 1.87zm12.487-5.13c-1.25-1.408-.156-2.345 1.72-3.44 2.81-1.56 2.03-3.592 5.624-5.31 1.566-.94 23.91-10 31.25-14.845s27.816-20.313 33.284-30.938c5.47-10.625 2.813-11.406 3.594-11.875.78-.468 1.563 1.563 1.406 3.907-.156 2.34-1.875 9.372-1.406 10s8.28-5.47 11.406-12.97 5.625-15.315 7.188-15.315c1.563 0-2.655 12.813-5.312 17.813-2.656 5-5.78 7.5-5 8.593.782 1.094 8.594-5.47 11.25-10.312 2.657-4.843 5.157-9.218 5.625-8.28.47.937-2.5 11.25-6.718 16.094-4.22 4.843-9.22 8.28-8.438 9.062.78.782 6.405 1.563 12.343-2.5 5.938-4.062 6.563-10 7.345-9.687.78.31-.782 8.435-6.407 13.435s-13.28 5.47-12.967 6.563c.31 1.093 16.25-4.532 15.936-3.282-.313 1.25-20.626 9.218-20.783 10 0 .625 3.44.78 8.907-.47 5.47-1.25 10.628-5.467 11.41-4.53.154 1.406-3.908 4.844-10.158 6.406-6.25 1.562-9.374 3.75-9.53 4.22-.156.466 11.094-1.41 11.094-.784s-14.688 3.44-14.844 4.22c-.156.78 14.062-2.813 13.75-2.03-.313.78-19.22 6.404-19.063 6.717.156.312 15.78-3.438 15.47-2.813-.314.625-26.408 7.97-26.564 8.438-.158.468 22.967-5.157 22.81-4.688s-12.03 3.437-12.03 3.75c0 .312 9.53-1.562 9.375-1.094-.156.47-24.063 6.564-24.532 7.5-.468.94 12.344-2.5 12.188-.78s-27.655 11.094-27.812 9.375c-.156-1.72 16.72-6.093 16.563-6.56-.155-.47-9.686 1.092-9.843.155-.156-.94 6.25-2.97 5.782-3.44-.47-.468-5.314 1.406-4.845.313.47-1.094 9.53-5.313 9.375-5.625-.156-.314-3.28 1.092-2.97 0 .314-1.095 19.688-6.72 19.376-7.345-.312-.625-8.905 1.406-9.686 1.562-.313-.624 12.03-5.156 11.718-5.937-.312-.78-6.562 2.656-6.874 1.72-.312-.94 10.78-5.314 10.157-5.94s-5.78 1.72-6.405 1.095 10.47-8.437 8.75-8.594c-1.72-.156-3.75 2.345-4.062.782.313-2.032 8.75-5.313 6.875-6.875-2.97-.937-13.125.626-17.344 3.126s-18.126 16.406-21.564 18.593c-3.437 2.187-15 7.03-17.187 7.97-3.44 1.25-4.064 3.123-7.5 4.842-6.25 1.718-6.25 3.593-9.22 4.686-1.093.313-12.343 5.78-12.5 5.313zm-15.78 7.027c-1.875.938-3.593 3.438-2.5 4.375.625 1.25 2.5-2.656 4.062-2.5 1.56.156 3.75.157 7.966.47 4.22.312 6.406-.938 8.75-.782s7.657-1.25 10.157-1.25 2.968.312 3.28-.782c.313-1.093-7.812-.312-11.406-.468-3.594-.156-8.126.78-10.782.78-2.5-.155-6.875-.937-9.53.157z"/><rect rx="1.719" ry="1.484" height="2.969" width="3.438" y="309.14" x="401.7"/><path d="M445.02 307.73c1.718-.312 6.307 1.25 9.478 2.032 5.828 2.188 16.603 1.094 16.603 2.188s-.67 2.5-3.24 2.656-8.76-.937-8.586-.937 4.972 2.184 3.6 2.81-5.486-1.25-6.17-.78 3.77 1.404 3.085 1.72c-.687.31-3.783-.47-4.81-.315-1.03.155.866 1.25-.335 1.718-1.2.47-3.216-.624-4.073-.313-.856.315 1.846 2.033.646 2.19-1.2.155-4.09-.78-5.632-.938-1.543-.156 1.518 1.562.49 1.718-1.03.157-3.827-1.248-4.512-1.248s.055 1.874-.973 1.874c-1.03 0-2.24-1.562-2.753-1.562s.01 1.875-1.018 1.875-1.398-2.034-2.255-1.878c-1.014.157.025 2.656-1.346 2.5-1.37-.157-1.554-2.656-2.58-2.5-1.03.156.18 2.5-.85 2.5s-1.194-2.344-2.223-2.5c-1.028-.156-.52 2.187-1.205 2.187s-1.195-2.187-1.54-2.187c-.34 0-.002 2.187-1.203 2.03s-1.195-2.5-1.54-2.343c-.342.16-.35 1.72-1.204 1.72s-.853-1.56-1.195-1.405c-.344.156-1.55 2.187-2.405 1.875-.857-.314.206-1.876-.136-1.876-.344 0-1.407 1.093-2.093.937s.035-1.403-.137-1.403c-.173 0-1.75.78-2.437.78s-2.57 1.095-3.086.157c-.513-.937 1.342-.937 1.684-1.875.346-.938-.996-3.594.375-4.53 1.372-.94 5.658 1.25 12-.314 11.656-3.125 20.652-6.718 21.575-6.563z"/></g></g></g></svg>