<svg xmlns="http://www.w3.org/2000/svg" viewBox="0 0 640 480"><defs><clipPath id="a"><path fill-opacity=".67" d="M-85.333 0h682.67v512h-682.67z"/></clipPath></defs><g clip-path="url(#a)" transform="translate(80) scale(.9375)"><g fill-rule="evenodd" stroke-width="1pt"><path fill="red" d="M-128 383.993h767.975v128H-128zM-128 0h767.975v128H-128z"/><path fill="#fff" d="M-128 128h767.975v255.993H-128z"/></g><path d="M252.1 129.95c-7.81 15.593-13.018 15.593-26.034 25.99-5.206 5.198-13.016 7.797-2.603 12.996-10.413 5.197-15.62 7.797-20.827 18.192l2.603 2.6s9.892-4.85 10.41-2.6c1.73 2.078-13.023 10.05-14.93 11.263-1.902 1.215-11.104 6.93-11.104 6.93-13.016 10.4-20.827 7.8-28.637 23.39l26.034-2.594c5.207 18.192-13.017 20.79-26.034 28.588L140.156 267.7c5.208 18.19 20.827 7.795 33.844 2.597l2.603 2.6v5.197L150.57 291.09s-30.734 17.583-31.24 18.19c-.21.943 0 5.2 0 5.2 10.412 2.6 26.033 5.198 36.447 0 13.016-5.2 15.62-10.397 31.24-10.397-18.224 12.994-31.24 18.193-52.068 20.79v10.398c15.62 0 26.03 0 39.05-2.596l33.843-10.396c7.81 0 15.62 7.797 13.017 15.593-7.81 28.588-39.05 23.39-49.465 46.78l41.656-15.592c10.415-5.198 20.828-10.396 33.845-7.796 15.62 5.198 15.62 15.596 36.448 20.79l-5.205-12.99c5.206 2.597 10.413 2.597 15.62 5.196 13.017 5.2 15.62 10.396 31.24 7.797-13.017-15.594-15.62-12.994-26.034-23.39-10.412-15.594-15.62-38.984 0-41.584l18.225 5.2c18.222 2.597 18.222-2.6 44.256 7.796 15.62 5.197 20.828 12.994 39.052 7.796-7.81-18.19-36.448-31.187-54.67-36.385 20.825-12.996 15.618 5.198 44.256-2.6v-5.196c-20.826-15.594-28.637-28.59-57.275-28.59l44.26-5.2v-5.196s-43.65-11.45-44.666-11.858c.304-1.32 1.372-3.366 4.27-4.497 8.29 5.365 33.357 4.74 34.78 4.64-.732-6.397-12.61-11.677-23.023-16.874 0 0-44.59-27.483-44.81-29.916.884-6.966 18.314 1.106 37 6.523-5.206-10.396-15.62-15.593-26.033-18.192l15.62-2.596c-10.413-23.39-36.448-20.792-52.067-31.188-10.416-7.797-10.416-12.996-26.035-20.792z" fill="#007900"/><path stroke-linejoin="round" d="M223.96 303.07c1.932-6.194 4.476-11.674-7.117-16.954-11.593-5.278 5.795 21.114 7.117 16.954zm13.73-12.39c-2.337.304-3.56 8.835 1.117 11.17 5.188.81.917-11.067-1.117-11.17zm13.53-.91c-2.442.712-2.543 12.69 6 10.56 8.543-2.13-.103-11.573-6-10.56zm15.76-30.76c1.83-2.945-.1-15.025-7.425-9.95-7.32 5.077 5.085 10.762 7.425 9.95zm-15.97-10.05c2.24-.812 2.442-8.223-3.964-6.294-6.405 1.93 2.238 7.817 3.964 6.294zm-14.43 2.94s-4.475-6.193-7.933-4.874c-4.373 4.163 8.238 4.975 7.933 4.874zm-49.59 19.79c1.905.173 16.027-2.33 20.908-7.81 4.88-5.483-25.127 2.346-25.127 2.447 0 .1 2.838 4.844 4.22 5.363zm141.11-34.96c.728-1.295-7.517-7.172-12.416-4.856-1.26 4.34 12.375 5.748 12.416 4.856zm-27.76-13.97c1.526-2.233-3.558-11.37-13.727-6.294-10.17 5.076 10.676 9.848 13.727 6.294zm-32.14-5.38s2.54-8.223 8.644-6.6c6.916 5.28-8.34 6.905-8.644 6.6zm-6-6.19c-.917-2.335-7.323-.913-14.644 3.858-7.324 4.772 16.88 1.422 14.644-3.858zm18.71-22.13s6.523-2.92 8.44 0c2.747 4.366-8.54.102-8.44 0zm-5.47-2.86c-1.322-2.64-8.54-2.89-8.355.925-1.21 2.99 9.38 2.432 8.355-.925zm-17.2.01c-.71-1.523-10.98.03-14.032 6.193 4.9 2.382 16.27-2.335 14.032-6.193zm-21.97 6.3s-13.51 8.26-14.34 14.315c.41 5.23 16.78-9.442 16.78-9.442s1.423-5.787-2.44-4.873zM221.32 185c.378-1.68 6.675-5.572 7.22-5.28.51 1.694-5.143 6.28-7.22 5.28zm4.27 31.57c.304-2.437-16.068-2.235-9.864 5.278 5.166 6.3 10.984-4.16 9.864-5.278zm-14.9 10.78c-.854-1.647-2.082-6.038-4.324-6.442-1.827-.103-11.672 1.928-12.425 3.594-.403 1.32 4.078 9.435 5.605 9.638 1.73.71 10.842-5.978 11.147-6.79zm88.33 55.11c.508-1.725 17.24-7.507 23.015-1.976 6.812 9.34-23.42 4.922-23.015 1.976zM345 293.39c3.666-6.204-11.257-13.56-17.592-6.47 2.165 8.517 14.628 11.6 17.592 6.47z" fill-rule="evenodd" stroke="#fff" stroke-linecap="round" stroke-width="3.219" fill="#fff"/></g></svg>