<svg xmlns="http://www.w3.org/2000/svg" xmlns:xlink="http://www.w3.org/1999/xlink" viewBox="0 0 640 480"><path fill="#ffb700" d="M0 0h640v480H0z"/><path d="M26.667 240l88-213.333h88v426.666h-88z" fill="#ff5b00"/><path fill="#005641" d="M26.667 26.667h88v426.666h-88z"/><path fill="#8d2029" d="M229.333 26.667H616v426.666H229.332z"/><path id="a" d="M579.253 408.565s3.626 7.382 7.632 10.39c5.935 4.456 18.104 4.134 23.27 9.333 6.187 6.13-.482 14.23-.426 14.933l.335 4.28s-4.173.05-5.93.326c-2.642.412-3.672 2.562-8.59 2.243-12.37-.804-11.87-11.946-12.57-21.468-.62-3.626-2.058-8.353-2.875-11.98-.7-3.106-.85-8.054-.85-8.054z" fill="#ffb700" stroke="#000" stroke-width="1.134"/><use height="100%" width="100%" xlink:href="#a" transform="matrix(-1 0 0 1 845.333 0)"/><use height="100%" width="100%" xlink:href="#a" transform="matrix(1 0 0 -1 0 480)"/><use height="100%" width="100%" xlink:href="#a" transform="rotate(180 422.667 240)"/><g transform="translate(0 -76)"><use xlink:href="#b" width="100%" height="100%" stroke="#000" stroke-width="5.56"/><g id="b" fill="#ffb700"><path d="M363.488 415.765l2.325-1.342.995 1.345c1.325 1.79 4.99 1.77 7.424-.04l1.86-1.387 1.558 1.39c2.048 1.82 5.873 1.824 8.315.006 1.71-1.274 1.95-1.3 3.08-.33.673.577 2.65 1.235 4.392 1.46 3.138.408 3.185.386 5.02-2.368 1.538-2.306 1.78-3.24 1.412-5.477a59.406 59.406 0 0 1-.586-5.304c-.14-2.597-.125-2.613 3.658-3.93 2.09-.728 4.508-1.703 5.374-2.17 1.51-.81 5.675-5.705 5.675-6.67 0-.255-1.626-.647-3.615-.87-7.912-.887-9.25-5.135-4.11-13.025 8.388-12.87 13.45-25.4 13.483-33.383.014-3.57.217-4.767.676-3.99 1.874 3.17-1.483 16.467-6.57 26.015l-2.046 3.848 1.955-.45c1.074-.247 7.392-2.913 14.04-5.924 18.194-8.24 24.444-9.855 36.22-9.36 9.864.416 14.065 2.344 21.03 9.65 3.69 3.87 7.245 6.638 13.747 10.708 13.853 8.673 14.43 9.424 15.09 19.62.667 10.334.335 10.894-7.48 12.62-6.68 1.476-10.866 4.59-11.99 8.916-.6 2.31.663 2.377 4.03.213l2.468-1.586 1.098 1.586c1.443 2.084 4.51 2.093 7.057.02l1.925-1.57 1.967 1.567c3.055 2.435 7.118 1.844 8.265-1.2.22-.586.808-.4 2 .636 2.232 1.94 7.954 2.772 8.57 1.247.237-.582-.21-2.02-.994-3.194-3.33-4.993-4.37-7.373-4.414-10.09-.06-3.78 1.067-5.603 5.366-8.677 5.222-3.734 6.835-8.55 2.864-8.55-2.452 0-4.923-2.168-6.5-5.7-3.204-7.18-2.576-15.228 2.233-28.617 4.885-13.6 5.427-16.108 5.446-25.203.017-7.354-.17-8.626-1.84-12.658-1.02-2.465-3.097-6.136-4.61-8.157l-2.754-3.675 3.534-2.928c10.79-8.94 8.584-23.572-4.406-29.21-3.975-1.725-4.968-1.877-11.932-1.83-4.176.028-10.55.578-14.156 1.222-3.68.656-9.907 1.184-14.18 1.2-6.785.028-7.937-.14-10.553-1.53-2.726-1.453-3.194-2.142-3.727-5.497-.11-.69-.592-1.378-1.072-1.53-.926-.29-5.21 3.426-5.843 5.073-.31.813-.565.757-1.48-.327-.61-.72-1.46-2.373-1.89-3.674-1.08-3.275.248-5.728 4.094-7.566l2.983-1.426-1.76-1.093c-3.63-2.253-9.805-.712-12.038 3.005-.633 1.052-1.32 1.914-1.53 1.916-.21 0-1.413-1.002-2.67-2.23-4.688-4.58-3.076-11.358 3.195-13.428 3.345-1.103 6.304-.26 6.92 1.968.94 3.405 3.86-1.07 3.337-5.11-.347-2.688-.295-2.78 1.564-2.78 2.584 0 8.087 3.392 9.79 6.036 1.976 3.07 1.832 7.906-.343 11.51l-1.707 2.83 2.232-.448c3.276-.657 6.46-2.69 8.07-5.16 1.702-2.608 1.885-7.687.376-10.428-1.463-2.657-1.296-3.078.867-2.18 3.68 1.526 5.646 3.21 7.12 6.096 1.33 2.6 1.404 3.244.685 5.95-.443 1.67-1.43 3.864-2.193 4.88-1.188 1.58-1.23 1.844-.282 1.844 1.762 0 5.443-1.668 6.75-3.06.66-.703 1.624-2.434 2.14-3.847l.94-2.57 1.078 1.96c1.526 2.77 4.492 5.26 8.11 6.81 3.89 1.67 5.508 1.763 3.474.203-1.37-1.052-3.9-8.47-3.133-9.194.45-.428 5.732 3.636 11.762 9.05 5.704 5.12 9.288 6.8 14.527 6.8 6.69 0 10.59-5.83 7.58-11.337-1.754-3.212-5.66-3.658-7.945-.908-1.05 1.265-1.34 2.27-1.03 3.598.376 1.625.23 1.84-1.252 1.84-1.945 0-5.78-2.487-12.59-8.17-10.384-8.665-23.002-16.01-32.114-18.693-5.848-1.72-18.338-2.394-24.28-1.306-6.435 1.177-14.044 4.858-18.19 8.8-7.345 6.982-7.46 16.275-.31 24.738l2.05 2.424-1.388 2.154c-2.018 3.135-1.845 7.353.428 10.46 1.003 1.368 2.013 2.487 2.246 2.486.234 0 .49-.88.57-1.955.2-2.715 1.367-4.54 3.37-5.26 1.803-.65 2.97-.34 11.226 2.956 8.69 3.468 22.976 3.706 38.167.637 7.446-1.503 16.227-1.415 20.09.204 7.08 2.967 8.724 10.686 3.517 16.545-2.253 2.536-4.427 3.57-11.724 5.57-5.552 1.526-6.867 1.627-19.49 1.5-10.78-.11-14.657.1-19.06 1.02-4.777.997-7.716 1.098-21.753.744l-16.23-.41 1.8 1.49c.99.82 2.39 1.83 3.11 2.243 1.223.7 1.182.796-.637 1.47-1.07.397-3.443.72-5.274.72h-3.33l-.45 2.83c-.246 1.555-.228 3.37.04 4.037.4.98.25 1.12-.782.745-.7-.253-2.65-.754-4.334-1.11-1.684-.36-3.95-1.086-5.036-1.618-1.828-.894-2.03-.87-2.704.32-.6 1.064-6.24 5.26-7.068 5.26-.134 0-.306-.807-.383-1.797-.08-.99-.89-3.564-1.81-5.723-.917-2.158-1.875-4.513-2.128-5.232-.383-1.086-.556-1.14-1.017-.327-.304.54-.75 2.01-.99 3.27-.24 1.26-1.09 3.305-1.89 4.546l-1.452 2.256-.926-1.93c-.995-2.07-2.646-4.217-3.244-4.217-.202 0-.546.66-.764 1.47-.457 1.69-4.373 6.377-5.33 6.377-.35 0-.64-1.325-.64-2.944 0-1.62-.31-2.944-.69-2.944-.38 0-.69.417-.69.93 0 1.244-3.345 4.955-4.467 4.955-.49 0-1.277.44-1.75.98-1.232 1.408-2.24 1.21-1.723-.337.243-.726.085-2.418-.35-3.76-.437-1.345-.9-2.775-1.03-3.18-.166-.508-1.365-.373-3.9.44-4.1 1.315-5.474 1.082-3.366-.57.77-.602 1.942-2.693 2.604-4.645.662-1.95 1.64-3.683 2.17-3.848.745-.23.706.055-.172 1.242-.627.846-1.142 1.99-1.144 2.54 0 .548-.474 1.85-1.048 2.894-.574 1.043-.935 2-.802 2.126s1.692-.468 3.465-1.318l3.224-1.545.014 1.382c.006.76.395 2.766.862 4.458l.85 3.075 2.194-1.008c2.244-1.03 4.368-4.707 4.368-7.556 0-1.408.807-1.192 1.137.305.1.44.604 2.086 1.126 3.662l.95 2.865 1.503-1.81c.825-.994 1.86-2.946 2.3-4.336.764-2.413 1.963-3.45 1.963-1.7 0 1.265 3.447 5.794 4.11 5.405.323-.188.963-1.888 1.423-3.778.96-3.93 2.505-6.602 3.487-6.028.37.216.513.635.32.932-.194.297.6 2.85 1.763 5.68a2557.7 2557.7 0 0 1 2.597 6.322c.425 1.048.81.896 3.304-1.307 1.554-1.37 2.963-2.906 3.133-3.41.257-.764.603-.736 2.055.165 2.03 1.26 8.856 3.29 9.383 2.79.198-.187.4-1.98.45-3.984l.09-3.644 1.964.408c1.078.225 3.348.21 5.043-.03l3.082-.44-2.747-1.882c-1.512-1.036-3.04-2.377-3.395-2.98-.38-.642-1.724-1.187-3.247-1.316-4.113-.35-11.406-4.44-11.406-6.4 0-.367 1.01.258 2.246 1.39 2.738 2.51 6.543 4.085 9.866 4.085h2.486l-1.538-2.045c-.883-1.175-1.676-3.405-1.862-5.24-.296-2.922-.605-3.387-3.657-5.508-1.833-1.275-4.104-3.186-5.046-4.246l-1.714-1.927-.873 2.29c-.48 1.258-1.068 2.288-1.305 2.288-.238 0-1.162-.735-2.054-1.634-.89-.898-1.8-1.63-2.02-1.627-.216.003-1.01 1.215-1.754 2.69l-1.358 2.686-1.05-1.547c-.578-.85-1.942-2.358-3.03-3.347-1.09-.99-1.664-1.8-1.274-1.8.39 0 1.733 1.03 2.988 2.29l2.28 2.29.93-1.677c.55-.995.757-2.525.508-3.76-.363-1.804-.312-1.91.38-.777.44.72 1.773 2.1 2.964 3.064l2.167 1.758 1.495-2.738c1.487-2.725 1.498-2.73 2.174-1.103.904 2.177 7.454 7.547 13.03 10.685.86.484.5-1.18-1.09-5.003-.42-1.012-.763-2.838-.763-4.057 0-1.808-.522-2.612-2.834-4.372-3.34-2.54-4.42-4.347-5.048-8.445-.255-1.66-.84-3.508-1.298-4.104-.682-.886-.794-.39-.612 2.69.123 2.078-.147 4.66-.6 5.74l-.824 1.96-.636-1.634c-.35-.9-1.898-2.463-3.44-3.475-1.543-1.012-2.626-2.01-2.407-2.217.22-.208 1.807.714 3.527 2.05 2.622 2.034 3.2 2.254 3.562 1.358.426-1.052 0-5.632-.825-8.833-.41-1.598-.374-1.59 1.598.382 1.453 1.453 2.257 3.187 2.88 6.212.79 3.842 1.19 4.482 4.745 7.603 2.134 1.874 3.99 3.302 4.127 3.173.135-.13.404-4.977.6-10.774.37-11.116-.05-13.76-2.728-17.195l-1.375-1.764 2.162-2.332c2.82-3.04 4.114-5.48 4.676-8.807l.457-2.705-2.44 2.31c-1.998 1.893-2.953 2.31-5.267 2.31-2.29 0-3.186-.382-4.73-2.03-1.853-1.972-5.136-3.872-8.293-4.796-1.167-.34-1.554-.193-1.554.596 0 .577-.646 2.246-1.433 3.708l-1.43 2.657-3-2.963c-1.84-1.817-4.023-3.232-5.647-3.66-4.15-1.09-4.374-.982-4.374 2.11 0 4.69-2.002 5.563-5.606 2.446-2.747-2.377-5.025-2.893-10.235-2.32l-4.023.442.723 1.816c.605 1.518.468 2.157-.827 3.88-2.1 2.794-4.833 4.005-9.04 4.005-1.936 0-4.36.4-5.386.89-1.025.49-3.574 1.055-5.663 1.255-2.09.2-4.317.558-4.95.794-.99.37-1.1.065-.78-2.186.488-3.445-1.92-5.986-5.67-5.986-4.862 0-7.106 4.352-5.2 10.092a44.633 44.633 0 0 1 1.066 3.872c.228 1.063 2.42 3.884 5.103 6.57 2.586 2.588 5.032 5.282 5.433 5.985.402.705 1.73 1.834 2.95 2.51l2.22 1.23-.294-2.372c-.323-2.61.246-3.02 1.634-1.177.498.66 1.758 1.724 2.803 2.366 1.646 1.012 1.9 1.032 1.9.154 0-.56.335-1.844.745-2.857l.745-1.84 1.293 2.504c.714 1.378 3.027 4.51 5.14 6.96 4.11 4.752 6.61 10.063 5.32 11.286-.524.496-1.94.457-4.874-.132-2.274-.454-5.087-.696-6.25-.534-2.38.33-2.566.023-1.104-1.807 1.544-1.934 1.3-2.25-1.733-2.25-3.51 0-12.215-1.684-15.558-3.007-3.25-1.286-4-.965-4.955 2.117-.43 1.386-1.22 3.9-1.752 5.585l-.97 3.064 3.518-.34c1.934-.188 4.42-.61 5.528-.94 1.107-.334 2.113-.51 2.235-.394.123.116-.37 1.313-1.096 2.66l-1.318 2.45 2.19-.447c1.207-.245 3.02-.847 4.03-1.336 1.76-.85 1.904-.79 3.29 1.44 1.71 2.74 3.074 2.626 3.377-.28.314-3.004 1.302-2.56 3.16 1.42 1.787 3.83 3.647 5.18 4.004 2.91.12-.752 1.082-1.978 2.14-2.724 2.14-1.506 3.754-1.053 4.678 1.314.96 2.45-1.176 4.977-7.387 8.742-12.44 7.54-19.672 17.856-21.737 31.002-1.864 11.857 3.952 24.11 15.62 32.91 5.583 4.212 14.453 8.657 13.89 6.96-2.395-7.2-2.316-20.945.132-23.263.367-.348.24 1.086-.28 3.186-1.945 7.827-1.1 14.06 3.882 28.675 4.507 13.217 3.883 18.866-2.495 22.6-2.05 1.2-3.368 1.396-8.877 1.33-5.976-.073-6.627.047-8.546 1.576-1.86 1.48-4.272 6.35-4.272 8.62 0 1.23 1.366 1.068 4.05-.482z"/><path d="M460.507 415.5l2.507-1.613 1.7 1.612c2.23 2.11 4.842 2.06 6.985-.13.93-.956 1.77-1.618 1.862-1.47.09.144.508.852.927 1.572.53.91 1.62 1.37 3.585 1.507 2.37.167 3.005-.06 3.946-1.42l1.123-1.624 2.468 1.586c6.758 4.343 10.36-.213 7.34-9.286-1.535-4.613-.69-7.206 4.26-13.078 2.085-2.478 3.794-5.12 3.796-5.874 0-1.202-.386-1.363-3.164-1.308-2.657.052-3.435-.234-4.834-1.774-2.278-2.505-2.14-5.373.4-8.557l2.032-2.544-3.605-2.445c-1.984-1.345-5.56-4.528-7.947-7.074-5.36-5.716-10.633-8.427-17.586-9.04l-4.66-.413.006 3.53c.01 4.543 2.14 8.913 7.96 16.314 6.615 8.417 7.077 9.72 7.345 20.72l.227 9.303-1.915 1.816c-1.73 1.64-2.51 1.85-8.093 2.172-5.314.306-6.43.58-7.99 1.962-2.07 1.835-2.69 2.833-3.33 5.367-.373 1.477-.222 1.8.844 1.8.715 0 2.427-.726 3.806-1.61zm-142.203-24.044c.59-.8 1.075-2.09 1.075-2.87 0-1.175.522-1.49 3.11-1.856l3.11-.442-2.078-1.653c-2.464-1.963-2.692-3.497-.52-3.5 2.163 0 5.827-2.247 6.383-3.91.26-.77.096-1.804-.368-2.333-1.214-1.384-3.493-1.176-3.917.358-.454 1.65-1.216 1.653-2.944.016-2.6-2.46-2.658-7.556-.122-10.523 1.196-1.4 1.185-1.49-.34-2.934-1.64-1.557-2.81-4.63-2.04-5.36.246-.23 1.54-.047 2.88.41 1.9.652 2.652.662 3.435.046 2.372-1.866-.2-4.265-4.004-3.736-1.532.214-2.165 0-2.385-.793-.165-.603-1.505-1.39-3.014-1.77-2.697-.683-2.716-.674-2.716 1.184 0 2.038-1.16 2.42-3.37 1.116-1.795-1.062-3.535-.238-3.535 1.674 0 1.782 1.793 2.66 5.007 2.454 2.465-.16 2.556 1.674.215 4.31l-1.683 1.894 1.333 1.916c1.976 2.838 1.81 7.55-.348 9.892l-1.694 1.834-1.11-1.472c-1.542-2.045-3.652-1.908-4.23.275-.38 1.43-.066 2.083 1.724 3.598 1.204 1.02 2.96 1.85 3.903 1.85 2.336 0 2.244 1.84-.183 3.694l-1.9 1.452 2.937.454c1.613.25 2.934.72 2.934 1.047 0 1.248 2.037 5.13 2.69 5.13.38 0 1.17-.656 1.76-1.455z"/><path d="M356.523 374.89c2.666-1.05 8.438-5.937 8.438-7.145 0-.38-1.59-2.132-3.54-3.893-4.094-3.707-8.55-9.95-9.705-13.6-.602-1.904-3.512-5.162-11.707-13.11l-10.906-10.58-3.143.797c-1.73.435-3.84.804-4.688.82-1.466.02-1.44.103.506 1.61l2.053 1.59 2.877-1.6c2.79-1.548 2.89-1.557 3.233-.31.2.73-.233 1.992-1.005 2.92-.747.9-1.173 1.92-.946 2.27.225.348-.49 1.075-1.598 1.616-2.048 1.002-3.47 4.304-1.853 4.304 1.454 0 4.66-3.955 4.29-5.293-.188-.685-.097-1.39.204-1.566 1.25-.73 1.17 2.377-.098 3.904-.747.9-1.173 1.92-.946 2.27.23.347-.49 1.075-1.594 1.616-2.035.995-3.47 4.303-1.87 4.303 1.572 0 4.725-3.78 4.335-5.194-.204-.74-.125-1.49.176-1.668.84-.492 1.295 1.96.585 3.16-.38.645-.38 1.523.008 2.22.698 1.262-.01 3.685-1.297 4.44-.55.322-.176.955 1.16 1.966 1.94 1.462 1.976 1.615 1.976 8.07 0 5.39.218 6.783 1.21 7.722 1.11 1.054 1.208 1.057 1.208.047 0-1.104 1.937-2.453 3.52-2.453.47 0 3.39 2.475 6.49 5.5 3.12 3.043 6.386 5.632 7.31 5.797.92.165 1.915.34 2.212.388.297.05 1.695-.365 3.107-.922zM323.18 348.8c0-1.74-3.588-3.594-7.877-4.075-3.463-.39-3.52-.367-3.52 1.363 0 1.432.545 1.995 2.935 3.036 3.842 1.673 8.46 1.496 8.46-.324z"/><path d="M327.11 348.64c1.75-1.587 2.577-3.475 1.525-3.475-1.21 0-4.423 2.883-4.423 3.97 0 1.694.597 1.592 2.897-.495zm-3.73-5.14c.15-.982-.457-1.637-2.276-2.458-3.923-1.772-8.613-2.593-9.743-1.705-2.08 1.636-.69 3.83 2.67 4.226 1.356.16 3.19.572 4.08.918 2.586 1.007 5.04.55 5.274-.98zm0-5.255c.213-1.4-.682-1.9-7.987-4.47-5.453-1.92-7.868-1.015-6.125 2.296.607 1.157 1.626 1.68 3.912 2.026 1.7.255 4.022.752 5.162 1.106 3.044.945 4.803.61 5.04-.954zm3.66-4.922c1.102-1.118 2.004-2.436 2.004-2.93 0-1.604-4.353 1.233-4.908 3.198-.665 2.36.414 2.26 2.904-.264zm-3.66-.33c.242-1.595-2.41-3.034-7.622-4.14-3.825-.813-5.512-.35-5.225 1.425.156.97 1.43 1.68 5.043 2.807 5.783 1.804 7.522 1.784 7.805-.093zm5.1-7.42c6.68-2.973 7.258-10.472.96-12.44-2.617-.818-4.286-.377-5.287 1.394-.767 1.357-.254 3.823.794 3.823.355 0 .644.457.644 1.014 0 2.604-10.195 3.784-14.38 1.664-1.47-.745-2.11-2.678-.883-2.678.914 0 1.546-1.97 1.08-3.363-.638-1.898-2.55-2.556-5.326-1.83-6.26 1.637-6.085 8.994.29 12.116 5.227 2.56 16.686 2.716 22.11.3z"/><path d="M324.325 319.808c.387-.366.22-.93-.43-1.44-1.42-1.115-1.344-2.775.214-4.676 1.17-1.427 1.312-3.563 1.714-25.106.694-37.126 3.455-65.05 7.094-71.75 1.45-2.666 1.245-2.677-2.498-.13-4.823 3.28-8.494 7.554-11.747 13.67-6.142 11.547-8.277 27.083-8.277 60.245 0 18.83.127 21.297 1.2 23.067 1.02 1.68 1.072 2.302.356 4.098-.464 1.164-.674 2.276-.467 2.472 1.37 1.3 11.36.954 12.834-.443zm56.123-35.403c.21-.32-.253-1.94-1.027-3.597-1.204-2.585-1.69-3.014-3.41-3.014-5.387 0-14.05-2.408-22.977-6.388-5.155-2.298-6.936-2.826-7.555-2.24-1.577 1.494 1.045 5.04 5.105 6.904 3.6 1.654 13.67 3.686 18.265 3.686 2.665 0 2.728.12 1.21 2.312l-1.114 1.612 3.016.078c1.657.042 3.946.302 5.086.576 2.96.714 2.987.714 3.407.072z"/><path d="M411.92 301.136c0-.96-2.818-3.56-5.674-5.236-2.242-1.316-2.613-1.356-2.618-.282-.007 1.63-1.456 5.723-2.025 5.723-.32 0-.795-.8-1.055-1.774-.26-.978-1.346-2.905-2.415-4.282l-1.945-2.503-1.514 2.32c-1.412 2.163-3.857 4.28-4.942 4.28-.26 0-.31-1.14-.113-2.53.21-1.514.045-2.714-.415-2.983-.423-.247-.77-.16-.77.192 0 .814-3.395 4.667-4.114 4.667-.295 0-.71-1.104-.92-2.453-.21-1.35-.57-3.483-.795-4.742-.227-1.26.257-.403 1.075 1.9l1.488 4.186 1.63-2.552c.897-1.403 1.632-2.936 1.634-3.407 0-.47.305-.68.674-.465.368.217.88 1.904 1.14 3.75l.47 3.356 1.794-1.97c.987-1.08 2.144-2.53 2.57-3.22.762-1.226.805-1.225 2.32.06.847.72 2.15 2.44 2.897 3.823.746 1.384 1.456 2.414 1.58 2.29.12-.125.393-1.552.605-3.17.212-1.62.4-3.004.42-3.077.106-.4 5.406 3.043 7.367 4.788 1.26 1.12 2.455 1.88 2.66 1.69.2-.19.366-1.846.366-3.675 0-2.837-.3-3.597-2.034-5.147-1.994-1.784-2.05-1.794-2.786-.49-.957 1.693-2.085 1.717-2.085.045 0-1.22-3.767-5.91-4.75-5.91-.252 0-1.045 1.03-1.76 2.29s-1.487 2.288-1.71 2.287c-.97-.005-6.28-5.928-6.28-6.997 0-.85.36-.633 1.29.787.708 1.08 2.12 2.69 3.14 3.58 2.067 1.802 2.818 1.364 3.615-2.11.226-.988.62-1.797.875-1.797.885 0 5.51 4.912 6.16 6.54l.653 1.636.495-1.8c.604-2.2 1.272-2.28 2.237-.273.403.84 2.395 2.58 4.427 3.874l3.693 2.35.743-2.364c.407-1.3.948-2.048 1.2-1.66.376.576-.584 4.49-1.308 5.334-.11.128-1.306-.57-2.66-1.55l-2.463-1.776-.01 3.184c-.006 1.75-.196 3.847-.425 4.656-.448 1.583-1.637 2.028-1.637.613zm-18.416-25.386c-4.39-3.666-5.057-4.505-4.96-6.242l.104-1.85.287 1.787c.167 1.043 1.336 2.606 2.81 3.756l2.523 1.97 1.55-1.79c.854-.986 1.563-2.16 1.577-2.61.035-1.173.246-1.075 3.218 1.504 2.64 2.292 2.682 2.303 3.075.82.22-.83.14-2.387-.173-3.464-.863-2.96-.694-3.408.614-1.623.65.89 1.695 2.147 2.323 2.795 1.095 1.126 1.162 1.11 1.57-.33.233-.825.43-2.34.434-3.362l.01-1.86 2.38 2.698c2.224 2.522 2.43 2.615 3.11 1.413.397-.706.73-2.41.735-3.78.007-1.774.194-2.22.645-1.546.754 1.13.23 4.2-1.16 6.815l-.997 1.876-1.31-2.04c-1.675-2.61-2.233-2.568-3.31.248-1.014 2.66-1.675 2.863-2.665.817-.64-1.324-.763-1.162-1.218 1.62l-.507 3.09-3.03-2.35-3.027-2.35-1.362 1.548c-.75.85-1.37 1.916-1.382 2.365-.027.976-.755 1.006-1.866.08zm39.05-13.654c-1.597-1.44-2.7-2.813-2.446-3.052.253-.24.537-.308.632-.152.095.155 1.4 1.528 2.903 3.052 3.457 3.507 2.746 3.607-1.088.152zm-52.014-5.376c-1.455-1.965-1.355-3.268.415-5.398 1.278-1.54 1.862-1.748 4.095-1.465 1.432.182 4.514 1.448 6.85 2.812 2.695 1.573 5.484 2.63 7.644 2.89 1.87.228 3.4.314 3.4.19 0-.12-.776-1.387-1.726-2.812-2.255-3.383-2.178-3.746.366-1.72 2.61 2.08 5.734 2.69 12.712 2.478l3.41-.106-1.978-1.955c-2.766-2.736-1.915-2.98 1.14-.33 2.865 2.487 2.686 2.663-3.345 3.264-2.562.256-5.318.07-7.61-.51-3.426-.87-3.56-.86-2.91.29.374.66.98 1.202 1.347 1.202.366 0 .666.336.666.746 0 1.26-7.402.15-10.94-1.64-8.08-4.09-9.097-4.445-11.02-3.84-1.07.338-2.14 1.325-2.51 2.314-1.232 3.3 3.448 5.865 5.378 2.948.56-.845.43-1.424-.554-2.452-1.347-1.41-1.22-1.61.597-.95 1.29.47 1.465 3.568.264 4.705-1.37 1.3-4.505.932-5.69-.67z" fill="#000"/><path d="M412.368 248.57c-1.01-.956-.218-1.19 4.312-1.275 5.604-.105 9.008-1.04 13.024-3.574 3.218-2.03 4.09-1.63 1.036.48-2.786 1.92-7.132 3.397-11.328 3.85-2.03.22-4.347.52-5.145.672-.798.15-1.653.085-1.9-.15z" fill="#000"/></g></g></svg>