<svg xmlns="http://www.w3.org/2000/svg" version="1" viewBox="0 0 320 240"><defs><clipPath id="a"><path d="M25-60h400v300H25z"/></clipPath></defs><g transform="matrix(.8 0 0 .8 -20 48)" clip-path="url(#a)"><path fill="#fff" d="M0-60h450v300H0z"/><path fill="#009543" d="M0 150h450v90H0z"/><path fill="#00209f" d="M0-60h450v90H0z"/><path d="M224.764 35.57c-1.71.036-3.378 1.93-3.378 1.93l.148 20.233-6.388 6.692h5.17l-.043 11.602-30.59 41.193-4.523-1.563-7.905 16.86s19.55 12.242 47.926 11.908c31.146-.37 48.067-12.472 48.067-12.472l-8.168-16.644-4 1.74-30.984-40.98-.043-11.95h5.17l-7.036-6.61.042-20.16s-1.753-1.82-3.463-1.783z" stroke="#000" stroke-width="1.001"/><path d="M235.43 84.01h-21.153s-7.678-16.177-6.433-27.486c1.267-11.516 7.848-16.963 16.598-17.06 10.345-.115 15.767 5.07 17.405 16.6 1.623 11.423-6.418 27.945-6.418 27.945z" fill="none" stroke="#000" stroke-width="5"/><path d="M187.788 122.57c-.346.46-2.882 5.532-2.882 5.532l4.38-.922-1.498-4.61zm2.536 6.57l-4.61 1.498 5.532 2.19-.922-3.688zm2.074-6.455l2.306 6.8 5.648-1.613-1.5-3.228-6.454-1.96zm3.574 9.22l.806 2.767 7.493 1.845-2.994-6.34-5.302 1.73zm8.298-5.762l2.652 6.34 5.648-2.19-1.845-2.767-6.454-1.383zm3.69 8.645l.92 2.42 8.76 1.268-3.687-5.763-5.994 2.075zm8.413-6.8l3.228 5.647 8.186-2.997-.922-2.19-10.49-.46zm4.726 7.722l1.726 2.997 10.143-.346-3.804-5.645-8.068 2.997zm10.72-7.492l2.763 4.725 6.455-3.112-1.73-2.533-7.49.923zm10.6 3.572l-6.454 3.228 1.73 2.766 8.644-1.383-3.92-4.61zm2.076-4.956l3.342 4.15 5.417-4.265-1.845-1.96-6.915 2.072zm9.912 2.19l-5.188 3.92 1.384 2.42 7.146-1.844-3.343-4.496zm7.146-8.184l1.267 1.845-3.572 5.302-3.687-4.726 5.995-2.42zm2.42 4.61l2.19 4.38-4.38 1.5-.346-2.075 2.537-3.804z" fill="#fff"/></g></svg>