<svg xmlns="http://www.w3.org/2000/svg" viewBox="0 0 640 480"><g fill-rule="evenodd"><path fill="#3b5aa3" d="M0 0h639.864v480H0z"/><path d="M0 467.08L639.904 0l-.027 86.915L0 479.995v-12.92z" fill="#e2ae57"/><path d="M22.397 479.98L639.98 179.22l-.133-95.48L-.003 480l22.396-.02zM175.32 15.163l-6.314 102.79-27.01-65.552 10.36 69.778-41.83-56.378 27.42 64.337L83.013 87.52l42.765 53.546-62.102-27.52 54.392 41.19-67.65-8.95 63.93 25.34-100.35 9.18 100.59 6.723-63.742 26.204 66.972-9.062-54.195 40.018 62.89-27.594-42.895 53.99 54.573-41.318-27.034 62.888 43.684-54.69-11.825 68.173 27.478-63.7 6.212 100.63 9.69-100.38 23.692 64.09-9.032-69.06 43.468 54.74-28.56-63.93 54.55 43.994-43.37-54.93 64.833 26.995-57.38-41.9 69.88 11.78-66.897-25.696 104.05-6.46-104.05-9.69 68.484-22.83-70.972 8.915 58.638-40.997-66.09 26.586 45.644-55.335-55.582 43.408L244.45 65.46l-43.15 56.476 9.268-70.43-25.664 66.455-9.587-102.79z" fill="#fff"/></g></svg>