<svg xmlns="http://www.w3.org/2000/svg" viewBox="0 0 640 480" version="1"><defs><clipPath id="a"><path fill-opacity=".67" d="M0 0h640v480H0z"/></clipPath></defs><g clip-path="url(#a)"><path fill-rule="evenodd" fill="#0071bc" d="M-160 0h960v480h-960z"/><path d="M369.927 365.66s15.223-16.1 29.86-13.026c4.392-16.98 20.932-18.297 20.932-18.297s-1.61-18.736 19.612-22.834c.585-12.735 13.467-23.274 13.467-23.274s-2.635-19.76 10.832-24.3c-8.198-15.66 2.78-27.08 2.634-27.37-.146-.296-13.905-24.74-1.61-31.767-13.027-10.978-8.782-23.42-8.782-23.42s-14.2-3.66-9.076-20.64c-11.71-2.05-14.054-20.93-14.054-20.93s-18.004 3.658-20.2-12.005c-11.856 1.902-13.174-9.807-13.32-9.807-.146 0-23.567 6.295-28.25-11.417-9.075 4.684-13.028-3.66-13.028-3.66s-13.028 6.44-20.786-6c-15.516 9.66-24.152-.44-24.152-.44s-20.346 13.467-27.08 3.074c-12.003 12.15-22.688 6.88-22.688 6.88s-9.075 16.1-23.713 12c-3.366 14.93-20.2 15.224-20.2 15.224s1.757 13.175-18.443 16.688c-2.634 15.517-13.173 18.15-13.173 18.15s1.025 15.08-8.49 19.908c3.367 8.49-5.415 18.882-5.415 18.882s9.367 11.71-3.368 24.884c12.296 3.22 3.367 24.445 3.367 24.445s16.98 7.61 6.293 21.663c12.15 3.953 8.343 13.613 8.49 19.322 7.758 3.513 14.637 1.757 11.27 17.42 23.86 2.634 12.59 15.808 12.59 15.808s11.123.44 6.733 9.222c20.346-.44 23.273 15.223 23.273 15.223s18.882-4.978 21.37 2.34c2.49 7.32-8.196 56.648-8.196 56.648s-15.955 0-27.812-12.734c-27.81-.733-21.663-19.03-22.103-19.03-.44 0-9.223 3.367-13.76-11.856-18.59 3.805-18.005-11.857-18.15-12.003-.147-.146-8.344-3.805-5.27-11.563-19.175 1.756-17.71-16.98-17.71-16.98-4.198-1.707-5.76-5.61-5.125-9.514-2.488-.88-19.468-1.17-10.685-23.567-16.248-9.808-6.148-21.08-6.148-21.08s-22.396-11.562-5.123-24.882c-12.882-19.03 1.024-28.543 1.024-28.543s-17.858-18.15.293-31.032c-2.927-27.52 13.467-34.106 13.467-34.106s-8.636-22.394 14.784-31.763c1.464-22.69 17.86-23.274 17.86-23.274s.44-18.005 26.2-16.248c4.977-16.1 22.542-12.88 22.542-12.88s5.416-19.47 29.275-10.1c12.15-23.714 30.154-11.565 30.154-11.565s11.417-7.464 17.126-5.122c7.25-12.456 22.68-.482 32.66 1.93 3.615-1.407 16.522-11.15 26.476 1.145 13.173-8.637 24.444 6.88 24.444 6.88s18.15-9.22 26.64 11.855c38.498-3.513 32.935 21.664 32.935 21.664s30.3-6.88 23.713 23.272c27.52 1.903 24.738 20.054 24.738 20.054s17.42 13.173 9.807 25.03c15.516.73 9.807 15.66 9.807 15.66s11.856 4.54 2.05 22.983c22.687 18.15 4.39 36.154 4.244 36.01-.147-.15 12.15 14.635 1.024 31.615 3.367 26.932-10.246 33.812-10.246 33.812s3.513 17.42-11.71 22.396c-.293 20.492-19.615 22.98-19.615 22.98s5.126 8.903-14.05 18.27c-.756 13.713-20.785 14.813-20.785 14.813s-1.903 25.176-27.373 18.443c-6.18 20.2-36.007 14.198-36.592 13.905-.586-.294-5.71-43.328-5.71-43.475z" fill-rule="evenodd" stroke="#000" stroke-width="1.857" fill="#fff"/><path stroke-linejoin="round" d="M184.94 124.083c.074 0 6.455 5.534 5.264 13.875-1.192 8.34-6.01 19.935-5.04 28.573.59 3.466.367 9.67.367 9.67s-5.78-8.22-5.856-17.006 6.264-17.13 6.264-23.61-1.145-11.648-.996-11.5zm-3.168 2.49s-8.373 7.992-9.45 15.76c-.798 4.004-1.107 22.662-1.2 30.943-.19 2.54-1.24 12.57-1.465 16.218-.224 3.65 6.16-6.23 6.524-14.272-.2-8.325-.2-25.86.65-28.496.752-3.387.59-7.13 1.753-10.528 1.54-4.715 3.267-9.552 3.192-9.626z" fill-rule="evenodd" stroke="#000" stroke-width="1.857" fill="#217900"/><g fill-rule="evenodd" stroke="#ef8a10" fill="#ffd200"><path d="M365.965 100.453s10.856-5.008 13.96-14.335-9.396-9.416-11.047-6.45c-1.65 2.963 1.408 10.344.62 12.295-.788 1.952-5.204 6.662-3.533 8.49z" stroke-width="1.858"/><path d="M269.745 103.855s7.048-9.657 5.22-19.316c-1.827-9.66-12.79-3.657-12.79-.26 0 3.39 6.265 8.35 6.526 10.44.26 2.085-1.302 8.35 1.047 9.133zM250.69 109.6s7.05-9.66 5.22-19.317c-1.826-9.658-12.79-3.655-12.79-.26 0 3.392 6.266 8.35 6.527 10.44.26 2.088-1.305 8.352 1.044 9.135zm-21.14 6.524s7.047-9.658 5.22-19.316c-1.828-9.658-12.79-3.655-12.79-.26 0 3.392 6.264 8.35 6.525 10.44.26 2.088-1.305 8.352 1.044 9.135zM214.672 131s7.047-9.656 5.22-19.315c-1.827-9.657-12.79-3.654-12.79-.26 0 3.392 6.264 8.352 6.526 10.44.26 2.088-1.306 8.353 1.044 9.136zm-15.662 14.36s7.048-9.658 5.22-19.316c-1.826-9.658-12.79-3.655-12.79-.26 0 3.392 6.265 8.35 6.526 10.44.26 2.088-1.305 8.352 1.045 9.135z" stroke-width="2.477"/><path d="M235.018 61.727s-9.385 7.406-10.222 17.2c-.837 9.793 11.336 6.96 12.248 3.69.913-3.268-3.787-9.73-3.477-11.81.31-2.082 3.504-7.695 1.45-9.08zm31.322-9.66s-9.385 7.408-10.222 17.2c-.837 9.794 11.336 6.96 12.25 3.69.91-3.267-3.79-9.73-3.48-11.81.31-2.08 3.505-7.693 1.452-9.08zm-116.723 84.556s1.982 11.79 10.167 17.233c8.185 5.442 11.552-6.595 9.125-8.966s-10.355-1.357-12.03-2.63c-1.677-1.272-5.06-6.77-7.265-5.637zm-15.643 40.033s.097 11.956 7.32 18.622c7.224 6.665 12.45-4.69 10.426-7.414s-10.01-2.973-11.463-4.494c-1.454-1.522-3.93-7.485-6.283-6.714zm36.09 44.725s-4.267-11.166-13.364-14.89c-9.097-3.72-10.026 8.74-7.18 10.59 2.848 1.847 10.417-.71 12.31.207 1.895.918 6.3 5.64 8.234 4.096zm-7.497-19.325s7.234-9.52 5.595-19.21c-1.64-9.692-12.716-3.903-12.782-.51-.066 3.392 6.1 8.472 6.32 10.565.22 2.092-1.467 8.325.867 9.153zM388.15 110.11s10.856-5.008 13.96-14.334-9.396-9.417-11.048-6.452c-1.65 2.964 1.41 10.345.62 12.297-.788 1.95-5.204 6.664-3.533 8.49zm32.825 16.374s6.386-10.107 3.917-19.622c-2.47-9.514-13.006-2.79-12.78.595.228 3.386 6.81 7.915 7.21 9.98.4 2.067-.743 8.422 1.653 9.047zm89.606 93.026s-4.28-11.162-13.38-14.873c-9.103-3.71-10.015 8.755-7.166 10.598 2.85 1.843 10.416-.724 12.31.19 1.896.916 6.306 5.633 8.24 4.085zm-43.814 6.933s.248-11.953 7.555-18.528c7.307-6.574 12.388 4.845 10.33 7.545-2.056 2.698-10.044 2.846-11.52 4.35-1.47 1.5-4.022 7.433-6.365 6.632zm-7.05-126.76s-11.176-4.244-20.008.07c-8.832 4.314-.145 13.3 3.128 12.404 3.272-.897 6.4-8.248 8.345-9.052 1.946-.803 8.4-.948 8.536-3.42zM434.14 78.28s-11.178-4.246-20.01.068c-8.83 4.315-.145 13.3 3.128 12.405 3.273-.897 6.4-8.25 8.346-9.052 1.945-.8 8.4-.945 8.535-3.42zM396 57.87s-9.474 7.29-10.432 17.072c-.957 9.783 11.25 7.098 12.202 3.84.953-3.256-3.667-9.774-3.332-11.852.336-2.077 3.598-7.65 1.563-9.06zm-24.84-5.976s-4.32 11.148-.066 20.008c4.254 8.86 13.3.236 12.425-3.043-.878-3.28-8.208-6.46-9-8.41-.79-1.95-.89-8.407-3.362-8.558zM300.715 94.85s7.728-9.12 6.605-18.885c-1.123-9.765-12.49-4.572-12.737-1.187-.246 3.384 5.643 8.784 5.752 10.886.11 2.1-1.907 8.236.38 9.187z" stroke-width="1.858"/></g><path d="M342.775 114.432s18.526 1.166 19.433 11.79-4.405 17.1-4.405 17.1 2.332 22.93-15.805 29.667c-19.433 2.33-49.877.516-49.877.516s-8.94 2.202-12.563-16.324c-3.628-18.525-4.664-31.61-4.664-31.61s1.815-10.365 14.9-11.012c13.084-.647 52.856.13 52.986-.13z" fill-rule="evenodd" stroke="#000" stroke-width="1.857" fill="#8c8a8c"/><path d="M357.674 143.193s-9.976 12.437-8.94 17.49" stroke="#000" stroke-linecap="round" stroke-width="1.857" fill="none"/><path d="M344.333 172.337c2.462 2.073 4.793 4.405 5.312 12.05l1.036 15.286 12.958 116.595 11.4 84.34.778 13.084s-2.72 9.586-10.364 10.363c-5.57 11.66-35.755 15.028-38.735 14.9-2.72-.13-12.308-4.147-18.138-3.63-5.83.52-15.936 4.406-20.47 3.758-4.534-.647-14.768-4.145-16.58-11.53-12.698-4.016-14.77-13.732-14.77-13.732l13.732-97.55 13.342-123.33s1.555-16.454 8.162-18.916c6.866-.648 42.363.648 52.338-1.684z" fill-rule="evenodd" stroke="#000" stroke-width="1.857" fill="#8c8a8c"/><path d="M274.375 341.147l-2.72 86.28m86.54-74.88l7.645 71.124" stroke="#000" stroke-width="1.857" fill="none"/><path d="M136.572 296.312l-.284.995m358.684-4.12l.284.996" stroke="#000" stroke-width=".968" fill="none"/><path stroke-linejoin="round" d="M126.965 179.83s5.675 7.86 6.694 12.37c1.016 4.512 2.91 13.39 5.382 17.028 2.474 3.638 16.59 23.868 17.32 32.308.144 5.53-5.823 14.99-14.7 15.136-5.53-.146-19.793-3.784-20.376-16.01-.582-12.225 4.366-12.515 4.95-19.937.58-7.423.726-40.75.726-40.896z" stroke="#6b18b5" stroke-width="1.857" fill="none"/><path stroke-linejoin="round" d="M224.466 72.814s-5.876.42-10.4 2.872c-3.505 2.16-9.443 5.27-13.592 11.024-10.554 8.227-26.43 12.066-31.438 18.9-2.997 4.65-2.813 15.834 4.697 20.57 4.8 2.75 18.878 7.05 25.726-3.094 6.846-10.144 2.77-12.963 6.13-19.608 5.54-15.23 18.8-30.54 18.875-30.664zm142.546-14.846s-4.39-3.93-9.298-5.474c-3.99-1.015-10.638-.573-17.516-1.248-13.25-1.86-26.913-11.442-35.306-10.285-5.425 1.084-13.33 8.996-11.51 17.686 1.365 5.36 7.36 16.203 19.412 14.068 12.05-2.136 11.947-4.765 19.056-6.974 17.34-9.725 35.02-7.74 35.162-7.77zm141.36 137.396c.99-2.26-.83-6.512-2.126-11.492-1.256-3.922-3.132-10.01-7.72-15.42-5.452-12.22-4.517-28.977-9.95-35.48-3.793-4.026-14.693-6.533-21.094-.38-3.822 4-11.377 16.632-3.175 25.716 8.202 9.084 11.776 5.663 17.42 10.518 13.454 9.038 20.043 24.88 26.646 26.537zm-4.82 106.752c1.838-2.544 5.127-7.446 4.736-11.53-.31-3.233 1.482-13.037 1.678-17.315 1.216-13.323 9.557-24.14 7.29-35.72-1.343-5.363-9.204-13.02-17.795-10.78-5.286 1.623-17.062 8.103-14.35 20.036 2.72 11.934 6.576 11.736 9.126 18.73 7.32 14.46 2.636 31.637 9.318 36.58z" stroke="#6b18b5" stroke-width=".968" fill="none"/><path d="M405.485 386.834s-2.26 4.344 6.777 8.167m11.298-18.415s10.078-2.433 16.855 0m13.203-25.376c0 .173-1.39 4.517 6.603 10.772m-.865-22.06s5.908 4.345 15.812 4.17m-75.415 8.51s.35 11.468-5.56 16.855m25.368-34.582s9.73 2.433 17.724-1.564m44.664-15.284s2.085 2.954 12.86 2.433m-54.91-9.213c.348.174 12.685 4.17 20.505.522m4.167-47.786s.52-.695 4.344 12.685m5.21-50.393s-.52 7.124-6.254 10.252m42.92-39.45s-8.34 6.777-6.778 9.557m-34.75-14.42s4.343 7.297-2.78 12.336m-18.246-43.613s7.473-.348 10.775 6.08m-24.844-27.28h5.734m23.976-26.064c0 .173 1.563 1.563-1.39 4.517m-51.956-3.822s3.996 6.258 3.3 13.904m19.81-35.104c1.737-.173 7.645-2.78 7.645-2.78m-33.36-22.07c-.175 0-2.26 7.82 1.563 10.6m-11.128 25.025c0 8.34 6.603 6.255 2.085 14.248m-18.246-21.2c-.175 0-10.427 7.993-10.427 9.383M355.437 92.65s4.344 4.343 3.302 10.25m-15.984-13.727s-2.26 6.603-5.213 8.34m-17.9-10.078c-.174.348-3.65 7.82-6.082 9.21m-25.54-9.035c.174 0 3.475 6.95-.87 11.99m-6.43-47.96c.172.173.694 5.386-2.608 9.904m-28.67 1.912c0 .173 1.39 5.908-7.82 7.82m-9.898 45.174c.174.348 8.862 1.738 8.862 1.738m-30.583 18.426c.174-.174 10.6-3.3 10.6-3.3m-27.457 16.328c.348 0 7.298 1.216 9.036.347m-13.9 6.08s2.26 1.217.347 12.86m-34.237-43.44l4.17 6.257M140.15 157.64c0-.175 4.17 6.254 9.73 7.47m23.112 25.198c.173 0 6.776-1.39 7.82-2.085m-10.78 25.712c.175 0-.173-4.344 5.214-7.298m-12.34 18.072c0 .17 5.04 6.426 8.514 7.295m-11.465 4.693c.522-.174 5.908-4.866 12.164-4.52m-13.907 20.68s.174 5.387 16.16 3.997m-14.594 14.94c0-.175 4.692-10.774 14.25-14.77m-1.387 28.328s1.39-4.518 9.382-7.646m-.523 25.537s5.734-4.692 7.82-5.387m-.693 19.294s3.474 3.65 12.162-2.605m-54.048 5.556c1.043-.173 13.727-3.126 18.072 3.477m-13.024 6.95s13.38-1.738 15.117-.348m32.666 3.13s-1.737 3.65 14.77-2.43m5.733 9.037c-2.955 5.04.694 9.035-3.13 11.294m-47.092-4.35c.52-.346 6.08-2.26 5.21-10.25m-.174 22.243c.696-.174 9.905-4.17 11.817-2.085m6.26 13.73s1.217-8.166 3.823-9.035m10.075 21.367s7.645-.173 10.947-2.605m3.82-25.015c.174.173 7.124 3.822 21.894.173m-16.333 33.01s2.084 10.6 1.91 13.032" stroke="#000" stroke-width="1.857" fill="none"/><g fill-rule="evenodd" stroke="#000" stroke-width="1.483" fill="#de2010"><path d="M232.84 119.03c.002-2.11-.794-4.058-2.087-5.114-1.294-1.055-2.888-1.055-4.18 0s-2.09 3.005-2.088 5.114c-.002 2.11.794 4.058 2.087 5.114 1.293 1.055 2.887 1.055 4.18 0s2.09-3.005 2.088-5.114z" transform="matrix(1.60885 -.2011 .2072 1.65762 94.795 74.927)"/><path d="M232.84 119.03c.002-2.11-.794-4.058-2.087-5.114-1.294-1.055-2.888-1.055-4.18 0s-2.09 3.005-2.088 5.114c-.002 2.11.794 4.058 2.087 5.114 1.293 1.055 2.887 1.055 4.18 0s2.09-3.005 2.088-5.114z" transform="matrix(1.60885 -.2011 .2072 1.65762 93.358 57.275)"/><path d="M232.84 119.03c.002-2.11-.794-4.058-2.087-5.114-1.294-1.055-2.888-1.055-4.18 0s-2.09 3.005-2.088 5.114c-.002 2.11.794 4.058 2.087 5.114 1.293 1.055 2.887 1.055 4.18 0s2.09-3.005 2.088-5.114z" transform="matrix(1.58497 -.3417 .35206 1.633 78.09 74.09)"/><path d="M232.84 119.03c.002-2.11-.794-4.058-2.087-5.114-1.294-1.055-2.888-1.055-4.18 0s-2.09 3.005-2.088 5.114c-.002 2.11.794 4.058 2.087 5.114 1.293 1.055 2.887 1.055 4.18 0s2.09-3.005 2.088-5.114z" transform="matrix(1.4455 -.73446 .7567 1.4893 55.863 162.938)"/><path d="M232.84 119.03c.002-2.11-.794-4.058-2.087-5.114-1.294-1.055-2.888-1.055-4.18 0s-2.09 3.005-2.088 5.114c-.002 2.11.794 4.058 2.087 5.114 1.293 1.055 2.887 1.055 4.18 0s2.09-3.005 2.088-5.114z" transform="matrix(1.4455 -.73446 .7567 1.4893 48.885 147.133)"/><path d="M232.84 119.03c.002-2.11-.794-4.058-2.087-5.114-1.294-1.055-2.888-1.055-4.18 0s-2.09 3.005-2.088 5.114c-.002 2.11.794 4.058 2.087 5.114 1.293 1.055 2.887 1.055 4.18 0s2.09-3.005 2.088-5.114z" transform="matrix(1.3781 -.85423 .8801 1.41987 39.958 167.39)"/><path d="M232.84 119.03c.002-2.11-.794-4.058-2.087-5.114-1.294-1.055-2.888-1.055-4.18 0s-2.09 3.005-2.088 5.114c-.002 2.11.794 4.058 2.087 5.114 1.293 1.055 2.887 1.055 4.18 0s2.09-3.005 2.088-5.114z" transform="matrix(1.28907 -.98346 1.01327 1.32812 33.795 193.08)"/><path d="M232.84 119.03c.002-2.11-.794-4.058-2.087-5.114-1.294-1.055-2.888-1.055-4.18 0s-2.09 3.005-2.088 5.114c-.002 2.11.794 4.058 2.087 5.114 1.293 1.055 2.887 1.055 4.18 0s2.09-3.005 2.088-5.114z" transform="matrix(1.1329 -1.15994 1.19508 1.16722 35.345 239.043)"/><path d="M232.84 119.03c.002-2.11-.794-4.058-2.087-5.114-1.294-1.055-2.888-1.055-4.18 0s-2.09 3.005-2.088 5.114c-.002 2.11.794 4.058 2.087 5.114 1.293 1.055 2.887 1.055 4.18 0s2.09-3.005 2.088-5.114z" transform="matrix(1.02138 -1.25922 1.2974 1.05234 34.295 262.698)"/><path d="M232.84 119.03c.002-2.11-.794-4.058-2.087-5.114-1.294-1.055-2.888-1.055-4.18 0s-2.09 3.005-2.088 5.114c-.002 2.11.794 4.058 2.087 5.114 1.293 1.055 2.887 1.055 4.18 0s2.09-3.005 2.088-5.114z" transform="matrix(.79817 -1.41132 1.45408 .82236 51.907 315.002)"/><path d="M232.84 119.03c.002-2.11-.794-4.058-2.087-5.114-1.294-1.055-2.888-1.055-4.18 0s-2.09 3.005-2.088 5.114c-.002 2.11.794 4.058 2.087 5.114 1.293 1.055 2.887 1.055 4.18 0s2.09-3.005 2.088-5.114z" transform="matrix(.66642 -1.4781 1.5229 .6866 56.808 337.386)"/><path d="M232.84 119.03c.002-2.11-.794-4.058-2.087-5.114-1.294-1.055-2.888-1.055-4.18 0s-2.09 3.005-2.088 5.114c-.002 2.11.794 4.058 2.087 5.114 1.293 1.055 2.887 1.055 4.18 0s2.09-3.005 2.088-5.114z" transform="matrix(.56582 -1.51945 1.5655 .58296 57.907 352.404)"/><path d="M232.84 119.03c.002-2.11-.794-4.058-2.087-5.114-1.294-1.055-2.888-1.055-4.18 0s-2.09 3.005-2.088 5.114c-.002 2.11.794 4.058 2.087 5.114 1.293 1.055 2.887 1.055 4.18 0s2.09-3.005 2.088-5.114z" transform="matrix(.4482 -1.5582 1.60543 .46178 63.012 370.362)"/><path d="M232.84 119.03c.002-2.11-.794-4.058-2.087-5.114-1.294-1.055-2.888-1.055-4.18 0s-2.09 3.005-2.088 5.114c-.002 2.11.794 4.058 2.087 5.114 1.293 1.055 2.887 1.055 4.18 0s2.09-3.005 2.088-5.114z" transform="matrix(.20288 -1.60864 1.65738 .20903 94.656 408.9)"/><path d="M232.84 119.03c.002-2.11-.794-4.058-2.087-5.114-1.294-1.055-2.888-1.055-4.18 0s-2.09 3.005-2.088 5.114c-.002 2.11.794 4.058 2.087 5.114 1.293 1.055 2.887 1.055 4.18 0s2.09-3.005 2.088-5.114z" transform="matrix(.06506 -1.62008 1.66918 .06703 106.295 427.394)"/><path d="M232.84 119.03c.002-2.11-.794-4.058-2.087-5.114-1.294-1.055-2.888-1.055-4.18 0s-2.09 3.005-2.088 5.114c-.002 2.11.794 4.058 2.087 5.114 1.293 1.055 2.887 1.055 4.18 0s2.09-3.005 2.088-5.114z" transform="matrix(.06506 -1.62008 1.66918 .06703 88.85 428.012)"/><path d="M232.84 119.03c.002-2.11-.794-4.058-2.087-5.114-1.294-1.055-2.888-1.055-4.18 0s-2.09 3.005-2.088 5.114c-.002 2.11.794 4.058 2.087 5.114 1.293 1.055 2.887 1.055 4.18 0s2.09-3.005 2.088-5.114z" transform="matrix(-.36132 -1.5806 1.62852 -.37226 172.505 473.533)"/><path d="M232.84 119.03c.002-2.11-.794-4.058-2.087-5.114-1.294-1.055-2.888-1.055-4.18 0s-2.09 3.005-2.088 5.114c-.002 2.11.794 4.058 2.087 5.114 1.293 1.055 2.887 1.055 4.18 0s2.09-3.005 2.088-5.114z" transform="matrix(-.49045 -1.54542 1.59227 -.5053 188.286 485.828)"/><path d="M232.84 119.03c.002-2.11-.794-4.058-2.087-5.114-1.294-1.055-2.888-1.055-4.18 0s-2.09 3.005-2.088 5.114c-.002 2.11.794 4.058 2.087 5.114 1.293 1.055 2.887 1.055 4.18 0s2.09-3.005 2.088-5.114z" transform="matrix(-.67103 -1.476 1.52073 -.69138 221.877 499.092)"/><path d="M232.84 119.03c.002-2.11-.794-4.058-2.087-5.114-1.294-1.055-2.888-1.055-4.18 0s-2.09 3.005-2.088 5.114c-.002 2.11.794 4.058 2.087 5.114 1.293 1.055 2.887 1.055 4.18 0s2.09-3.005 2.088-5.114z" transform="matrix(-.7945 -1.41337 1.4562 -.81858 241.37 508.33)"/><path d="M232.84 119.03c.002-2.11-.794-4.058-2.087-5.114-1.294-1.055-2.888-1.055-4.18 0s-2.09 3.005-2.088 5.114c-.002 2.11.794 4.058 2.087 5.114 1.293 1.055 2.887 1.055 4.18 0s2.09-3.005 2.088-5.114z" transform="matrix(-.9434 -1.31867 1.35863 -.97197 271.636 515.396)"/><path d="M232.84 119.03c.002-2.11-.794-4.058-2.087-5.114-1.294-1.055-2.888-1.055-4.18 0s-2.09 3.005-2.088 5.114c-.002 2.11.794 4.058 2.087 5.114 1.293 1.055 2.887 1.055 4.18 0s2.09-3.005 2.088-5.114z" transform="matrix(-1.0516 -1.2341 1.2715 -1.08344 292.38 520.207)"/><path d="M232.84 119.03c.002-2.11-.794-4.058-2.087-5.114-1.294-1.055-2.888-1.055-4.18 0s-2.09 3.005-2.088 5.114c-.002 2.11.794 4.058 2.087 5.114 1.293 1.055 2.887 1.055 4.18 0s2.09-3.005 2.088-5.114z" transform="matrix(-1.13737 -1.15553 1.19056 -1.17183 308.9 526.104)"/><path d="M232.84 119.03c.002-2.11-.794-4.058-2.087-5.114-1.294-1.055-2.888-1.055-4.18 0s-2.09 3.005-2.088 5.114c-.002 2.11.794 4.058 2.087 5.114 1.293 1.055 2.887 1.055 4.18 0s2.09-3.005 2.088-5.114z" transform="matrix(-1.2301 -1.05628 1.0883 -1.26738 331.402 529.562)"/><path d="M232.84 119.03c.002-2.11-.794-4.058-2.087-5.114-1.294-1.055-2.888-1.055-4.18 0s-2.09 3.005-2.088 5.114c-.002 2.11.794 4.058 2.087 5.114 1.293 1.055 2.887 1.055 4.18 0s2.09-3.005 2.088-5.114z" transform="matrix(-1.33573 -.91908 .94693 -1.3762 362.524 526.12)"/><path d="M232.84 119.03c.002-2.11-.794-4.058-2.087-5.114-1.294-1.055-2.888-1.055-4.18 0s-2.09 3.005-2.088 5.114c-.002 2.11.794 4.058 2.087 5.114 1.293 1.055 2.887 1.055 4.18 0s2.09-3.005 2.088-5.114z" transform="matrix(-1.47374 -.67597 .69645 -1.5184 415.897 504.087)"/><path d="M232.84 119.03c.002-2.11-.794-4.058-2.087-5.114-1.294-1.055-2.888-1.055-4.18 0s-2.09 3.005-2.088 5.114c-.002 2.11.794 4.058 2.087 5.114 1.293 1.055 2.887 1.055 4.18 0s2.09-3.005 2.088-5.114z" transform="matrix(-1.52895 -.53958 .55593 -1.5753 438.682 497.522)"/><path d="M232.84 119.03c.002-2.11-.794-4.058-2.087-5.114-1.294-1.055-2.888-1.055-4.18 0s-2.09 3.005-2.088 5.114c-.002 2.11.794 4.058 2.087 5.114 1.293 1.055 2.887 1.055 4.18 0s2.09-3.005 2.088-5.114z" transform="matrix(-1.61445 -.12005 .1543 -1.33344 500.49 405.96)"/><path d="M232.84 119.03c.002-2.11-.794-4.058-2.087-5.114-1.294-1.055-2.888-1.055-4.18 0s-2.09 3.005-2.088 5.114c-.002 2.11.794 4.058 2.087 5.114 1.293 1.055 2.887 1.055 4.18 0s2.09-3.005 2.088-5.114z" transform="matrix(-1.58082 -.36035 .37125 -1.62873 468.417 480.766)"/></g><path d="M480.012 194.65c2.146-2.297 4.143-2.946 6.67-2.11-.892-6.06-2.81-8.115-5.146-7.385-2.336.73-3.393 3.845-1.524 9.496zm3.28 18.284c2.314-2.13 4.354-2.626 6.81-1.6-.432-6.11-2.19-8.305-4.574-7.754-2.384.552-3.673 3.58-2.235 9.354zm-7.762-34.984c1.493-2.766 3.26-3.902 5.915-3.733-2.4-5.635-4.778-7.137-6.852-5.838-2.074 1.3-2.305 4.58.938 9.57zm-8.136-16.638c1.492-2.767 3.258-3.903 5.914-3.734-2.4-5.635-4.777-7.137-6.852-5.838-2.074 1.3-2.305 4.58.938 9.572zm-19.52-30.494c1.028-2.97 2.59-4.375 5.238-4.635-3.275-5.176-5.863-6.277-7.7-4.66s-1.54 4.89 2.462 9.295zm-12.757-13.288c.915-3.008 2.42-4.47 5.058-4.83-3.468-5.05-6.095-6.05-7.87-4.367-1.778 1.684-1.355 4.947 2.812 9.197zm-26.83-22.635c-.056-3.143.927-5 3.325-6.154-4.855-3.732-7.663-3.875-8.834-1.73-1.17 2.15.236 5.127 5.51 7.887zm13.96 10.465c.49-3.105 1.778-4.762 4.34-5.484-4.136-4.52-6.876-5.147-8.4-3.234-1.527 1.914-.657 5.087 4.06 8.718zM392.36 86.106c-.38-3.12.406-5.067 2.672-6.463-5.214-3.215-8.022-3.068-8.965-.81-.944 2.26.762 5.072 6.292 7.273zm-16.274-7.104c-.822-3.035-.323-5.074 1.72-6.78-5.62-2.435-8.378-1.888-8.99.482-.61 2.37 1.482 4.91 7.27 6.298zM358.55 73.57c-1.075-2.956-.75-5.03 1.14-6.903-5.806-1.95-8.51-1.172-8.915 1.24-.408 2.415 1.89 4.768 7.776 5.66zm-17.222-3.337c-1.286-2.868-1.112-4.96.638-6.965-5.932-1.527-8.57-.555-8.802 1.882-.232 2.436 2.23 4.617 8.165 5.082zm-18.24-1.398c-1.577-2.72-1.62-4.818-.087-6.993-6.06-.902-8.58.338-8.56 2.785.024 2.447 2.7 4.362 8.65 4.208zm-35.714 2.69c-2.186-2.258-2.735-4.285-1.772-6.766-6.097.583-8.247 2.395-7.635 4.765.61 2.37 3.67 3.582 9.406 2zm17.58-2.314c-1.86-2.532-2.13-4.614-.84-6.94-6.12-.248-8.496 1.257-8.21 3.69.284 2.43 3.15 4.043 9.05 3.25zm-34.828 6.04c-2.488-1.92-3.32-3.85-2.723-6.44-5.95 1.454-7.82 3.555-6.874 5.813.944 2.257 4.145 3.02 9.596.63zM237.1 90.438c-2.808-1.413-3.992-3.147-3.9-5.806-5.564 2.56-6.998 4.98-5.64 7.015 1.356 2.037 4.643 2.176 9.54-1.207zm15.926-8.135c-2.616-1.743-3.58-3.607-3.165-6.236-5.833 1.864-7.55 4.09-6.45 6.277 1.1 2.187 4.346 2.724 9.618-.04zm-45.548 28.76c-3.04-.797-4.56-2.246-5.024-4.866-4.91 3.662-5.808 6.326-4.057 8.035 1.75 1.71 4.995 1.16 9.08-3.17zm14.132-11.566c-2.97-1.033-4.37-2.596-4.627-5.245-5.182 3.267-6.286 5.85-4.673 7.693 1.612 1.84 4.89 1.548 9.3-2.448zm-26.69 23.935c-3.1-.52-4.746-1.822-5.445-4.39-4.557 4.094-5.21 6.83-3.31 8.37 1.9 1.544 5.08.7 8.755-3.98zm-11.252 14.603c-3.135-.234-4.892-1.384-5.822-3.878-4.166 4.49-4.567 7.273-2.535 8.637 2.034 1.365 5.125.238 8.358-4.76zm-9.417 14.933c-3.13.25-5.043-.618-6.344-2.94-3.43 5.075-3.4 7.886-1.183 8.923 2.217 1.035 5.1-.55 7.53-5.985zm-8.265 15.95c-3.075.655-5.083.043-6.674-2.09-2.74 5.477-2.347 8.26-.014 9 2.333.74 4.984-1.207 6.69-6.91zm-6.614 16.37c-2.93 1.133-5.01.847-6.92-1.007-1.84 5.84-1.01 8.526 1.41 8.89 2.42.36 4.73-1.984 5.51-7.884zm-4.43 18.232c-2.85 1.326-4.943 1.18-6.97-.542-1.445 5.952-.438 8.577 2.002 8.775 2.44.2 4.587-2.292 4.97-8.23zm-1.8 15.186c-2.683 1.42-4.774 1.59-6.967.515-.798 4.85.48 6.766 2.918 6.593 2.44-.173 4.3-2.412 4.05-7.11zm306.986-72.22c1.073-2.956 2.655-4.337 5.307-4.557-3.196-5.225-5.766-6.364-7.63-4.777-1.862 1.586-1.612 4.867 2.323 9.33zm25.168 84.986c2.313-2.13 4.352-2.627 6.808-1.6-.43-6.11-2.19-8.306-4.572-7.754-2.384.55-3.673 3.578-2.235 9.353z" fill-rule="evenodd" fill="#ffe300"/><path stroke-linejoin="round" d="M461.32 132.01c-.075 0-6.926 6.852-5.735 15.192 1.192 8.34 6.48 18.618 5.51 27.257-.967 8.636-2.53 14.37-2.53 14.37s8.042-9.16 8.117-17.948c.074-8.788-5.51-20.33-5.51-26.81s.297-12.212.148-12.063zm12.73 27.996s-5.36 3.947-4.84 13.033c.52 9.082 9.905 25.764 9.905 25.764s6.85 14.075 6.628 17.724c-.224 3.65 1.266-3.5.596-11.544s-11.025-25.767-11.025-25.767-2.234-3.65-2.01-9.68c.223-6.034.818-9.46.744-9.535z" fill-rule="evenodd" stroke="#000" stroke-width="1.857" fill="#217900"/><path d="M312.926 47.43c0-1.88-2.114-3.405-4.724-3.405s-4.724 1.525-4.723 3.405c-.004 1.88 2.11 3.405 4.72 3.405s4.725-1.524 4.724-3.405zm2.02 7.92c0-1.804-2.178-3.266-4.864-3.266-2.685 0-4.862 1.462-4.862 3.265s2.177 3.262 4.862 3.262c2.686 0 4.863-1.46 4.863-3.265zm6.04-9.378s-5.56 4.168-3.266 5.835c2.292 1.667 8.614-3.612 8.614-3.612l-5.35-2.223zM484.32 141.4c.002-1.184-.554-2.28-1.457-2.873a2.616 2.616 0 0 0-2.918 0c-.902.593-1.458 1.69-1.456 2.873-.005 1.185.55 2.28 1.453 2.874a2.616 2.616 0 0 0 2.918 0c.904-.593 1.46-1.69 1.458-2.874zm-2.123-7.945c0-1.976-1.365-3.578-3.048-3.578s-3.05 1.602-3.05 3.578 1.363 3.578 3.05 3.578 3.045-1.602 3.045-3.578zm1.462 16.16c0-1.024-.537-1.855-1.196-1.855s-1.193.83-1.193 1.856.535 1.855 1.194 1.855 1.193-.83 1.193-1.852zm4.896-14.445c0-1.172-.534-2.12-1.193-2.12-.658 0-1.192.948-1.192 2.12s.535 2.12 1.193 2.12c.66 0 1.193-.95 1.193-2.12zm-13.384 1.462c0-.952-.534-1.723-1.193-1.723s-1.193.77-1.193 1.72.534 1.722 1.193 1.722 1.195-.77 1.195-1.722zm2.123 11.4c0-1.538-1.127-2.784-2.518-2.784s-2.52 1.246-2.52 2.784c0 1.537 1.128 2.784 2.52 2.784s2.518-1.247 2.517-2.784zm-6.63-5.04c0-1.316-.95-2.384-2.12-2.384-1.173 0-2.12 1.068-2.12 2.385s.947 2.385 2.12 2.385c1.17 0 2.12-1.068 2.12-2.385zm-1.054-6.76c0-.71-.352-1.37-.926-1.725a1.75 1.75 0 0 0-1.857 0c-.575.356-.93 1.013-.928 1.724 0 .714.352 1.37.926 1.727a1.75 1.75 0 0 0 1.856 0c.574-.356.928-1.013.927-1.724zm30.207 34.365c-2.738-3.613-7.12-5.135-9.79-3.4-2.668 1.735-2.612 6.07.125 9.682s7.12 5.132 9.79 3.4c2.667-1.738 2.61-6.07-.126-9.685zm7.78 66.652c.53-4.436-1.633-8.34-4.83-8.72-3.198-.386-6.22 2.9-6.75 7.33-.53 4.434 1.63 8.338 4.83 8.72 3.196.383 6.22-2.9 6.75-7.333zm1.644 38.792c.91-4.37-.905-8.447-4.06-9.104-3.15-.658-6.445 2.352-7.356 6.723-.91 4.37.906 8.448 4.058 9.105 3.153.657 6.447-2.353 7.36-6.724zm7.476-36.315c0-1.758-1.188-3.18-2.65-3.18s-2.652 1.422-2.652 3.18c0 1.755 1.187 3.18 2.65 3.18s2.65-1.425 2.65-3.18zm-6.493 7.29l-5.433 6.164s-5.1.133-4.836 1.79c.265 1.656 7.023 6.626 6.957 8.614-.064 1.988 4.508-.464 4.508-.464s3.644-11.065 3.644-11.13c0-.066-.2-7.687-2.185-7.554-1.988.133-2.527 2.444-2.65 2.585zm-357.39-2.435a2.586 2.586 0 1 0-5.172 0 2.586 2.586 0 0 0 5.173 0zm2.437-7.902c0-1.507-1.157-2.73-2.585-2.73s-2.586 1.223-2.586 2.73 1.155 2.73 2.584 2.73c1.428 0 2.586-1.22 2.586-2.73zm-21.233-37.576c-.97-2.174-2.99-3.386-4.512-2.707-1.52.68-1.968 2.99-1 5.165.97 2.173 2.99 3.385 4.513 2.706 1.522-.678 1.97-2.99 1-5.164zm6.413 23.41c-1.332-2.818-4.106-4.39-6.197-3.51s-2.705 3.88-1.372 6.696 4.11 4.388 6.2 3.508 2.705-3.877 1.372-6.694zm6.867 17.17c.43-3.52-1.027-6.752-3.257-7.22-2.23-.47-4.39 2.003-4.82 5.522-.432 3.52 1.026 6.752 3.256 7.22 2.23.47 4.388-2.004 4.82-5.523zM136.3 242.19c1.38-3.266.862-6.775-1.154-7.837s-4.77.725-6.15 3.99-.863 6.776 1.153 7.837 4.77-.724 6.15-3.99z" fill-rule="evenodd" fill="#6b18b5"/><path d="M131.28 234.812c0-1.666-1.285-3.017-2.872-3.017s-2.874 1.35-2.874 3.017 1.287 3.017 2.874 3.017 2.873-1.35 2.873-3.02zm-2.296-7.467c0-1.507-1.158-2.73-2.586-2.73-1.43 0-2.586 1.223-2.586 2.73 0 1.508 1.157 2.73 2.586 2.73s2.586-1.222 2.586-2.73zm2.445-14.367c0-2.54-1.13-4.598-2.517-4.598-1.39 0-2.514 2.06-2.514 4.598 0 2.54 1.125 4.597 2.514 4.597s2.514-2.058 2.514-4.597zm7.733-1.106c.335-2.516-.51-4.705-1.885-4.888-1.378-.184-2.765 1.708-3.1 4.225-.335 2.514.51 4.703 1.886 4.886 1.376.183 2.763-1.71 3.098-4.226zm55.12-109.978c1.026-3.564-.03-7.147-2.36-8-2.327-.856-5.046 1.34-6.07 4.905-1.025 3.562.032 7.144 2.36 8 2.33.853 5.047-1.344 6.07-4.908zm-10.468 15.862c3.07-2.613 4.383-6.227 2.93-8.07-1.452-1.846-5.12-1.222-8.19 1.39s-4.382 6.228-2.93 8.073c1.453 1.84 5.12 1.22 8.19-1.396zm-6.11-8.804c3.038-2.244 4.335-5.346 2.9-6.93s-5.064-1.047-8.1 1.196c-3.037 2.244-4.334 5.346-2.898 6.93s5.062 1.047 8.1-1.196zm23.55-15.485c2.048-1.566 2.923-3.73 1.954-4.835-.97-1.105-3.414-.73-5.46.834s-2.924 3.73-1.956 4.835c.97 1.108 3.414.734 5.462-.83z" fill-rule="evenodd" fill="#6b18b5"/><path d="M188.978 108.47c1.4-2.163 1.494-4.496.21-5.21-1.284-.713-3.46.462-4.86 2.626s-1.495 4.497-.21 5.21c1.283.714 3.46-.46 4.86-2.625zm17.718-9.272c2.202-1.856 3.06-4.314 1.916-5.49-1.143-1.178-3.856-.627-6.058 1.23s-3.06 4.313-1.916 5.49c1.143 1.177 3.856.626 6.058-1.23zm-32.016 21.63c2.06-.103 3.612-1.128 3.47-2.29-.14-1.163-1.925-2.022-3.983-1.92-2.06.104-3.613 1.13-3.47 2.29.14 1.164 1.924 2.023 3.983 1.92zm38.76-33.125c1.4-2.164 1.495-4.497.21-5.21-1.284-.714-3.46.462-4.86 2.626s-1.495 4.494-.21 5.21c1.284.71 3.46-.465 4.86-2.63z" fill-rule="evenodd" fill="#6b18b5"/><path d="M446.83 153.375s6.386-10.108 3.917-19.62c-2.47-9.516-13.006-2.792-12.78.594.228 3.382 6.81 7.912 7.21 9.98.4 2.064-.744 8.42 1.653 9.043z" fill-rule="evenodd" stroke="#ef8a10" stroke-width=".968" fill="#ffd200"/><path stroke-linejoin="round" d="M324.883 69.303s23.012.894 23.16 15.788c-.074 2.31 0 5.067-.818 11.694 4.542-2.457 7.596-9.31 7-13.702.074-15.117-20.554-25.47-29.342-13.777z" fill-rule="evenodd" stroke="#000" stroke-width="2.322" fill="#217900"/><path stroke-linejoin="round" d="M310.29 68.633s18.542-3.873 18.69 11.02c.15 14.895-5.882 17.278-5.882 17.278s14.224-3.05 14.298-18.17c.075-15.115-18.32-21.82-27.107-10.125z" fill-rule="evenodd" stroke="#000" stroke-width="2.322" fill="#217900"/><path stroke-linejoin="round" d="M373.282 389.952s86.796-24.518 113.005-131.04C471.07 368.25 376.1 402.914 376.1 402.914l-2.818-12.963z" fill-rule="evenodd" stroke="#000" stroke-width="2.477" fill="#f7df73"/><path d="M382.186 396.584c2.682 0 9.32-7.343 13.132-8.19 3.812-.847 4.236-4.66-.142-4.8-4.377-.142-8.19 4.942-8.19 4.942s-3.812 3.247-7.766 3.67c-3.953.425-1.412 5.367 2.966 4.378z" fill-rule="evenodd" fill="#8c1800"/><path d="M432.167 359.298s-9.037 5.225-7.766 6.496c1.274 1.27 9.32-4.942 9.46-5.084.145-.14 3.39-4.094-1.69-1.412z" fill-rule="evenodd" stroke="#8c1800" stroke-width="2.477" fill="#8c1800"/><path d="M400.678 383.036s-2.683-.988 4.236-3.67c6.92-2.684 6.496-5.79 8.755-7.06 2.26-1.27 7.06-4.66 8.045-2.684s-5.083 5.93-6.495 6.354c-1.41.424-8.33 6.778-10.307 7.343-1.977.562-3.39.28-4.236-.286z" fill-rule="evenodd" fill="#8c1800"/><path d="M445.582 346.035c-5.93 6.636-5.93 6.495-5.93 6.495" stroke="#8c1800" stroke-linecap="round" stroke-width="3.019" fill="none"/><path d="M454.485 335.16l-5.648 6.92" stroke="#8c1800" stroke-linecap="round" stroke-width="2.786" fill="none"/><path d="M463.373 321.044l-6.355 10.166" stroke="#8c1800" stroke-linecap="round" stroke-width="2.554" fill="none"/><path d="M470.856 306.644l-5.224 10.45m8.616-18.084l-1.695 3.67" stroke="#8c1800" stroke-linecap="round" stroke-width="2.322" fill="none"/><path d="M478.056 288.987l-1.412 4.377" stroke="#8c1800" stroke-linecap="round" stroke-width="1.393" fill="none"/><path stroke-linejoin="round" d="M160.26 215.97s51.958-14.677 67.647-78.444c-9.11 65.454-65.96 86.204-65.96 86.204l-1.687-7.76z" fill-rule="evenodd" stroke="#000" stroke-width="1.483" fill="#f7df73" transform="matrix(-1.65528 0 0 1.70062 524.795 20.382)"/><path d="M250.697 394.416c-2.658 0-9.234-7.475-13.012-8.337-3.778-.865-4.197-4.747.14-4.89 4.337-.144 8.115 5.03 8.115 5.03s3.778 3.307 7.695 3.738c3.918.43 1.4 5.46-2.938 4.455z" fill-rule="evenodd" fill="#8c1800"/><path d="M195.51 197.62s-5.41 3.127-4.65 3.888c.76.76 5.58-2.958 5.664-3.043.085-.084 2.03-2.45-1.014-.845z" fill-rule="evenodd" stroke="#8c1800" stroke-width="1.483" fill="#8c1800" transform="matrix(-1.65528 0 0 1.70062 524.795 20.382)"/><path d="M232.373 380.624s2.66-1.006-4.197-3.737-6.436-5.894-8.675-7.188c-2.236-1.296-6.993-4.746-7.972-2.73s5.037 6.034 6.436 6.465c1.4.43 8.255 6.9 10.214 7.475 1.96.576 3.358.288 4.197-.287z" fill-rule="evenodd" fill="#8c1800"/><path d="M203.54 189.68c-3.55 3.973-3.55 3.888-3.55 3.888" stroke="#8c1800" stroke-linecap="round" stroke-width="1.807" fill="none" transform="matrix(-1.65528 0 0 1.70062 524.795 20.382)"/><path d="M208.87 183.17l-3.38 4.142" stroke="#8c1800" stroke-linecap="round" stroke-width="1.668" fill="none" transform="matrix(-1.65528 0 0 1.70062 524.795 20.382)"/><path d="M214.19 174.72l-3.804 6.086" stroke="#8c1800" stroke-linecap="round" stroke-width="1.529" fill="none" transform="matrix(-1.65528 0 0 1.70062 524.795 20.382)"/><path d="M218.67 166.1l-3.127 6.255m5.157-10.825l-1.014 2.198" stroke="#8c1800" stroke-linecap="round" stroke-width="1.39" fill="none" transform="matrix(-1.65528 0 0 1.70062 524.795 20.382)"/><path d="M222.98 155.53l-.845 2.62" stroke="#8c1800" stroke-linecap="round" stroke-width=".834" fill="none" transform="matrix(-1.65528 0 0 1.70062 524.795 20.382)"/><path stroke-linejoin="round" d="M490.42 239.302c.427 6.682 6.967 13.08 4.408 24.738-3.27 13.22-14.786 44.64-12.795 50.186-3.412-4.692-2.844-9.1-3.128-15.64-.285-6.54 9.525-30.85 10.378-39.096 0-7.392.71-17.486 1.137-20.188z" fill-rule="evenodd" stroke="#000" stroke-width="2.322" fill="#217900"/><path stroke-linejoin="round" d="M490.42 239.442s10.663 13.506 10.094 24.17c-.568 10.662-6.54 23.172-4.55 28.717-3.41-4.695-4.264-7.68-4.55-14.22-.283-6.54 5.26-13.79 4.124-20.9-1.137-7.108-5.26-17.77-5.118-17.77zm-349.297 2.985c-.426 6.682-5.402 12.652-2.843 24.31 3.27 13.222 14.928 30 13.08 49.192 3.412-4.695 4.407-9.955 4.69-16.495.286-6.54-12.937-28.576-13.79-36.822 0-7.392-.71-17.486-1.137-20.188z" fill-rule="evenodd" stroke="#000" stroke-width="2.322" fill="#217900"/><path stroke-linejoin="round" d="M141.123 242.575s-10.378 13.08-9.81 23.742c.142 7.11 13.222 36.822 11.232 42.367 3.412-4.69 4.407-4.123 4.264-11.23-3.84-18.2-10.666-29.857-9.528-36.966 1.137-7.108 3.98-17.913 3.84-17.913z" fill-rule="evenodd" stroke="#000" stroke-width="2.322" fill="#217900"/><path stroke-linejoin="round" fill="#fff" stroke-dashoffset="1" transform="matrix(1.16516 0 0 1.16534 201.97 -23.618)" stroke="#000" stroke-linecap="square" stroke-width="1.661" d="M99.96 125.78l22.17 68.23 71.744.004-58.04 42.172L158 304.42l-58.04-42.15-58.044 42.16 22.168-68.23-58.04-42.17h71.743z"/></g></svg>