<svg xmlns="http://www.w3.org/2000/svg" viewBox="0 0 640 480"><path fill="#006" d="M0 0h640v480H0z"/><g fill-rule="evenodd"><path d="M408.303 192.25h214.293l-.255 153.44c1.785 61.683-36.42 99.958-106.72 117.215-49.923-12.476-107.486-38.28-107.57-115.464l.255-155.19z" fill="#fff"/><path d="M44.07 22.713h169.3l-.202 120.79c1.408 48.558-28.777 78.69-84.317 92.276-39.434-9.82-84.913-30.13-84.98-90.9l.2-122.17z" stroke="#000" stroke-width="1pt" fill="#00a2bd" transform="matrix(1.2096 0 0 1.2172 359.74 169.23)"/><path d="M616.248 361.33c-7.45 56.417-50.63 81.068-100.65 94.15-44.276-11.95-91.91-31.03-101.143-93.868l201.798-.283z" fill="#a53d08"/></g><g stroke="#000" fill-rule="evenodd"><path stroke-linejoin="round" d="M155.77 197.17c.094.094.658 9.295-4.32 14.93 4.414 1.408 7.42-.283 8.827-2.067 1.41-1.784 1.88-4.037 1.88-4.037s1.22-.75 1.407-2.44c.094-2.35-.94-2.35-1.784-2.818l.187-5.258s-5.07-3.1-6.197 1.69z" stroke-width="1.25" fill="#ffc6b5" transform="matrix(1.2096 0 0 1.2172 359.74 169.23)"/><path d="M155.49 210.32l-1.503-1.22" stroke-linecap="round" stroke-width="1pt" fill="#ff9a08" transform="matrix(1.2096 0 0 1.2172 359.74 169.23)"/></g><path d="M141.64 69.393s.117 5.625-.235 6.21c-.35.587-3.554 2.07-3.554 2.07l2.737 5.82s7.695-1.092 7.734-1.092 3.32-8.71 3.32-8.71-1.72-2.89-1.29-5.896c-2.576-8.165-8.592 1.64-8.71 1.6z" fill-rule="evenodd" stroke="#000" stroke-width="1pt" fill="#ffc6b5" transform="matrix(1.2096 0 0 1.2172 359.74 169.23)"/><path stroke-linejoin="round" d="M131.45 203.09s4.32 4.32 9.295 3.756c11.268-1.22 14.554-11.267 18.028-11.36s5.634 6.102 8.92 5.35c-2.817-5.163-5.82-16.618-5.352-24.693.47-8.075.47-42.065.47-42.065s-5.63-17.558-8.26-20.47c2.63-2.816 4.413-7.792 4.32-13.238-.095-5.446 0-11.455 0-11.455s1.313-1.502 1.22-5.727c-.094-4.226-7.136-10.328-8.075-10.047-.94.284-9.765 7.89-10.516 9.67-.753 1.788-1.785-6.475-.095-7.23 1.69-.75-3.944-1.22-7.512 3.008-3.567 4.226-2.534 124.69-2.44 124.5z" fill-rule="evenodd" stroke="#000" stroke-width="1.25" fill="#005121" transform="matrix(1.2096 0 0 1.2172 359.74 169.23)"/><path d="M467.518 224.122l39.97.144-.286-18.53 14.562.143.142 18.384h39.828l.142 14.365-39.97.144-.32 169.41-14.202.09-.182-169.64-39.693.142.006-14.652z" fill-rule="evenodd"/><path d="M122.03 81.96s-2.258-.4-3.984.132 2.656-19.586 2.656-21.246c1.527-.73 9.162-2.125 8.963-7.503-.53-3.253-11.818.2-11.62 4.316-.73 2.055-8.098 23.035-6.638 29.94 2.59 2.06 7.37 1.66 10.623 1.13v-6.77z" fill-rule="evenodd" stroke="#000" stroke-width="1pt" fill="#ffc6b5" transform="matrix(1.2096 0 0 1.2172 359.74 169.23)"/><path d="M124.22 53.21s-.664 3.72 2.722 4.25" stroke="#000" stroke-linecap="round" stroke-width=".625" fill="none" transform="matrix(1.2096 0 0 1.2172 359.74 169.23)"/><path d="M129.2 53.144c-.133.066-4.382 2.722-4.382 2.722m4.122-1.062l-2.988 2.19m1.858-4.646l-3.32 1.992" stroke="#000" stroke-width=".375" fill="none" transform="matrix(1.2096 0 0 1.2172 359.74 169.23)"/><path d="M95.49 163.56l30.14 31.267c10.422-11.455 3.193-54.272-10.515-62.158-1.643 5.07-4.437 11.146-7.407 13.106-6.534 4.453-22.546 9.66-17.194 12.993 1.22-1.69 4.413-3.286 5.915.47 1.78 5.915-6.67 6.29-6.67 6.29s-5.35-.657-6.29-6.103c-.94-5.445 7.97-10.417 8.73-10.797.753-.28 12.396-3.38 14.368-13.707 2.44-10.14 4.975-8.638 5.445-8.826 15.21 1.502 25.163 28.732 25.727 47.886.563 19.154-7.793 31.83-9.296 32.675-1.502.845-36.243-41.22-36.243-41.22l3.287-1.877z" fill-rule="evenodd" stroke="#000" stroke-width="1pt" fill="#ff9a08" transform="matrix(1.2096 0 0 1.2172 359.74 169.23)"/><path d="M117.46 134.45l.187 56.43m-3.567-55.4l.187 51.267M110.42 142.9l.187 40.75m-3.187-37.84l.188 33.71m-3.388-32.2v28.45m-3.47-26.2v22.534m-3.006-20.754v17.276" stroke="#000" stroke-width="1pt" fill="none" transform="matrix(1.2096 0 0 1.2172 359.74 169.23)"/><path d="M95.02 167.13l31.08 35.58m1.5-58.02s14.085 30.798 1.033 56.15M91.36 160.65s1.032-2.723 2.346-1.596m-4.788-6.294s-5.634 4.976-2.535 8.17" stroke="#ffdf00" stroke-linecap="round" stroke-width="1.25" fill="none" transform="matrix(1.2096 0 0 1.2172 359.74 169.23)"/><path d="M141.03 83s.47 4.32-.47 7.604 3.57 12.394 1.878 14.272m.472 8.824l11.83-.094" stroke="#000" stroke-width="1pt" fill="none" transform="matrix(1.2096 0 0 1.2172 359.74 169.23)"/><path d="M138.59 118.49c.094.187 1.408 6.197 1.032 10.328m2.818-8.168c-.375 1.22-5.258 15.117-5.07 15.68m7.98-21.97c.094.282-.375 8.826-1.69 10.047m7.7-10.707s7.7 17.84 7.606 24.882 2.63 21.314.845 27.605M153.8 138.4s-.564 13.24-6.103 18.403c-5.54 5.165 13.24 19.906 13.24 19.906" stroke="#000" stroke-linecap="round" stroke-width="1pt" fill="none" transform="matrix(1.2096 0 0 1.2172 359.74 169.23)"/><path d="M153.61 175.86s2.066 18.215 5.54 19.53m-22.53-50.05c.094.188-1.878 12.3-.282 14.272 1.597 1.972 14.836 20.47 14.272 39.624m-3.76-5.726s-.376 11.55-11.08 12.488m7.89-20.088s3.193 12.018-7.7 19.624" stroke="#000" stroke-linecap="round" stroke-width="1.25" fill="none" transform="matrix(1.2096 0 0 1.2172 359.74 169.23)"/><path d="M147.88 156.89s12.3 12.77 12.864 18.404m-9.294-61.314s2.16 9.107 1.315 10.704" stroke="#000" stroke-linecap="round" stroke-width="1pt" fill="none" transform="matrix(1.2096 0 0 1.2172 359.74 169.23)"/><path d="M113.51 132.69s-1.317-2.305-1.152-4.857-.412-6.502 7.82-9.713c5.02-5.103 10.618-8.15 13.663-9.712 4.448-2.88 7.33-2.223 9.96-3.21 1.73-1.976 1.65-6.34 3.46-10.207 1.81-3.866 5.02-11.85 8.478-10.615 3.458 1.235.74 11.606-.576 15.228s-2.47 7.41-4.773 9.63c-2.306 2.224-12.76 6.257-14.817 6.998s-11.44 2.88-13.827 6.175c-2.388 3.292-2.223 8.15-8.232 10.29z" fill-rule="evenodd" stroke="#000" stroke-width="1pt" fill="#ffc6b5" transform="matrix(1.2096 0 0 1.2172 359.74 169.23)"/><path d="M112.85 125.78c.247-.082 4.115-1.317 5.926 2.14" stroke="#000" stroke-width="1pt" fill="none" transform="matrix(1.2096 0 0 1.2172 359.74 169.23)"/><path stroke-linejoin="round" d="M141.91 55.2s-1.74 2.837-2.222 4.56c-.374 1.29-1.58-.086-2.218 2.71l1.035.18c-.412.823-.546 2.214-.628 2.543-.083.33-.662 1.834-.576 2.964.05.583 1.155 3.128 10.127-.74 8.972-3.87-2.88-14.85-5.515-12.217z" fill-rule="evenodd" stroke="#000" stroke-width="1.25" fill="#ffc6b5" transform="matrix(1.2096 0 0 1.2172 359.74 169.23)"/><path stroke-linejoin="round" d="M140.9 55.563c.92-.494 7.457-1.07 6.368 11.688 1.257-.162 2.01-.33 2.764.908.754 1.235.67 2.717 2.01 2.717 1.342 0 1.51-.247 1.845-1.235.334-.99 5.53 1.15 6.87-3.458-.233-.896-3.184-2.304-3.52-3.95.755-2.305-.335-9.795-9.885-10.207-4.944-.082-5.948 1.975-6.452 3.54z" fill-rule="evenodd" stroke="#000" stroke-linecap="round" stroke-width="1.261" fill="#c59200" transform="matrix(1.2096 0 0 1.2172 359.74 169.23)"/><path d="M140.42 58.115c.083.082 2.964.905 3.293 2.305" stroke="#000" stroke-linecap="round" stroke-width="1pt" fill="none" transform="matrix(1.2096 0 0 1.2172 359.74 169.23)"/><path d="M531.733 244.09c0 .527-.402.952-.898.952s-.897-.425-.897-.95.4-.95.897-.95.898.424.898.95z" fill-rule="evenodd"/><path stroke-linejoin="round" d="M154.38 61.542s-1.055 5.078 3.594 7.07m-7.034-6.445s1.722.078 1.722 1.68c0 1.6-1.414 1.796-1.296 3.086.117 1.29 2.425 1.718 2.503 2.812M143.4 52.792c.078 0 8.243.938 7.774 2.97-.47 2.03-1.758 1.21-1.72 2.967s3.282.7 3.282.7.196-1.484 1.563-1.367.74 1.68 2.614 1.64" stroke="#000" stroke-linecap="round" stroke-width="1.25" fill="none" transform="matrix(1.2096 0 0 1.2172 359.74 169.23)"/><path d="M138.41 65.458l1.936-.064" stroke="#000" stroke-linecap="round" stroke-width="1.25" fill="none" transform="matrix(1.2096 0 0 1.2172 359.74 169.23)"/><path d="M143.45 73.696s.72 3.36-2 3.04" stroke="#000" stroke-linecap="round" stroke-width="1pt" fill="none" transform="matrix(1.2096 0 0 1.2172 359.74 169.23)"/><g stroke-width="1pt"><path fill="#fff" d="M0 .063v28.44l343.648 225.93h43.256v-28.438L43.256.065H0zm386.904 0v28.44L43.256 254.433H0v-28.44L343.648.063h43.256z"/><path fill="#fff" d="M161.21.063v254.37h64.484V.063H161.21zM0 84.853v84.79h386.904v-84.79H0z"/><path fill="#c00" d="M0 101.81v50.875h386.904V101.81H0zM174.107.064v254.37h38.69V.064h-38.69zM0 254.434l128.968-84.79h28.837l-128.968 84.79H0zM0 .064l128.968 84.79H100.13L0 19.023V.063zm229.1 84.79L358.066.063h28.837l-128.968 84.79H229.1zm157.804 169.58l-128.968-84.79h28.837l100.13 65.83v18.96z"/></g></svg>