<svg xmlns="http://www.w3.org/2000/svg" viewBox="0 0 640 480"><g fill-rule="evenodd" stroke-width="1pt"><path fill="#ce0000" d="M320 0h320v480H320z"/><path fill="#fff" d="M0 0h320v480H0z"/></g><g transform="translate(-12.38 -30.75) scale(1.5986)"><path d="M104.824 108.068c0 .81-.918 1.466-2.05 1.466-1.13 0-2.048-.656-2.048-1.466 0-.81.918-1.466 2.05-1.466 1.13 0 2.048.656 2.048 1.466z" fill-rule="evenodd" fill="#f1eeee"/><path d="M40.727 100.98v37.21h37.21c0 6.2 6.203 12.4 12.405 12.4v37.21h37.208v-37.21c6.202 0 12.404-6.2 12.404-12.4h37.21v-37.21h-37.21c0-6.2-6.202-12.402-12.404-12.402V51.37H90.342v37.21c-6.202 0-12.404 6.202-12.404 12.402h-37.21z" fill-rule="evenodd" fill="#c00"/><path d="M41.97 102.22v34.727h37.21c0 6.2 6.2 12.404 12.402 12.404v37.21h34.73v-37.21c6.202 0 12.402-6.202 12.402-12.402h37.21V102.22h-37.21c0-6.2-6.2-12.404-12.402-12.404V52.61h-34.73v37.206c-6.202 0-12.402 6.204-12.402 12.404H41.97z" fill-rule="evenodd" fill="#ffe600"/><path d="M43.21 103.46v32.25h37.207c0 6.2 6.202 12.4 12.404 12.4v37.208h32.25V148.11c6.2 0 12.405-6.2 12.405-12.4h37.208v-32.25h-37.207c0-6.2-6.202-12.402-12.404-12.402V53.85H92.82v37.21c-6.2 0-12.403 6.202-12.403 12.402H43.21z" fill-rule="evenodd" fill="#707070"/><path d="M44.45 104.7v29.766h37.208c0 6.2 6.202 12.404 12.404 12.404v37.207h29.767V146.87c6.2 0 12.4-6.204 12.4-12.404h37.21V104.7H136.23c0-6.2-6.202-12.402-12.404-12.402V55.09H94.06V92.3c-6.202 0-12.404 6.202-12.404 12.402H44.45z" fill-rule="evenodd" fill="#a0a0a0"/><g fill-rule="evenodd"><path d="M94.37 89.223c2.18 2.18.412 7.48-3.947 11.84s-9.66 6.125-11.84 3.946c-2.18-2.18-.413-7.48 3.946-11.84s9.66-6.13 11.84-3.95z" fill="#d0d0d0"/><path d="M91.74 91.852c2.18 2.18 1.59 6.303-1.316 9.21s-7.03 3.494-9.21 1.314c-2.18-2.18-1.59-6.302 1.317-9.208s7.03-3.495 9.21-1.316z" fill="gray"/><path d="M80.774 98.43l.877-.878 3.51 1.754-1.753-3.508.877-.877 3.508 7.02-7.015-3.51zm5.263-5.263l.877-.877 5.263 5.262-.877.877z" fill="#d0d0d0"/></g><g fill-rule="evenodd"><path d="M139.308 105.01c-2.18 2.18-7.48.41-11.84-3.948s-6.127-9.66-3.947-11.84c2.18-2.18 7.48-.412 11.84 3.947s6.13 9.66 3.95 11.84z" fill="#d0d0d0"/><path d="M136.678 102.38c-2.18 2.18-6.303 1.59-9.21-1.316s-3.494-7.03-1.314-9.21c2.18-2.18 6.302-1.59 9.21 1.317s3.494 7.03 1.314 9.21z" fill="gray"/><path d="M130.1 91.414l.878.877-1.754 3.51 3.508-1.753.877.877-7.02 3.508 3.51-7.015zm5.263 5.263l.877.877-5.262 5.262-.877-.877z" fill="#d0d0d0"/></g><g fill-rule="evenodd"><path d="M123.52 149.947c-2.18-2.18-.412-7.48 3.947-11.84s9.66-6.125 11.84-3.946c2.18 2.18.413 7.48-3.946 11.84s-9.66 6.13-11.84 3.95z" fill="#d0d0d0"/><path d="M126.15 147.318c-2.18-2.18-1.59-6.303 1.316-9.21s7.03-3.494 9.21-1.314c2.18 2.18 1.59 6.302-1.317 9.208s-7.03 3.495-9.21 1.316z" fill="gray"/><path d="M137.116 140.74l-.877.878-3.51-1.754 1.753 3.508-.877.877-3.508-7.02 7.015 3.51zm-5.263 5.263l-.877.877-5.263-5.262.877-.877z" fill="#d0d0d0"/></g><g fill-rule="evenodd"><path d="M78.585 134.157c2.18-2.18 7.48-.412 11.84 3.947s6.127 9.66 3.947 11.84c-2.18 2.18-7.48.412-11.84-3.947s-6.126-9.66-3.947-11.84z" fill="#d0d0d0"/><path d="M81.215 136.787c2.18-2.18 6.303-1.59 9.21 1.315s3.494 7.03 1.314 9.21c-2.18 2.18-6.305 1.59-9.21-1.317s-3.497-7.03-1.317-9.208z" fill="gray"/><path d="M87.792 147.752l-.877-.877 1.754-3.508-3.51 1.754-.878-.874 7.016-3.508-3.51 7.016zm-5.262-5.263l-.877-.88 5.262-5.26.877.875z" fill="#d0d0d0"/></g><path d="M269.29 414.57c0 41.095-34.107 74.41-76.18 74.41s-76.182-33.315-76.182-74.41 34.107-74.41 76.18-74.41 76.182 33.315 76.182 74.41z" transform="matrix(.3419 0 0 .35003 42.92 -25.527)" stroke="#707070" stroke-width="1pt" fill="none"/><path d="M269.29 414.57c0 41.095-34.107 74.41-76.18 74.41s-76.182-33.315-76.182-74.41 34.107-74.41 76.18-74.41 76.182 33.315 76.182 74.41z" transform="matrix(.2605 0 0 .2667 58.64 9.023)" stroke="#707070" stroke-width="1pt" fill="none"/><path d="M100.265 140.667a1.24 1.24 0 1 1-2.48 0 1.24 1.24 0 0 1 2.48 0zm19.845 0a1.24 1.24 0 1 1-2.48 0 1.24 1.24 0 0 1 2.48 0zm-11.99.003v1.293h-1.654c-1.654 0-1.654 1.293 0 1.293h1.654v1.294c.006 1.34 1.443 1.502 1.55.104l.104-1.398h1.654c1.653 0 1.653-1.293 0-1.293h-1.654v-1.293c0-1.293-1.654-1.293-1.654 0z" fill-rule="evenodd" fill="#d0d0d0"/><path d="M102.77 122.35v.733s-.39.56-2.868.733c-2.48.172-2.868 0-2.868 0 .065.64.547 1.852.41 3.3.096 1.685-.475 3.21-.475 3.21.062.09-.236.133-.757.09.41-.368.362-1.43.41-2.934.047-1.506-1.565-3.772-1.23-4.4.335-.626 7.375-.732 7.375-.732zm9.84-2.66c2.412-.11 6.46-.087 6.46-.087s.953 1.914.914 2.97c-.04 1.06-.368 1.96-.82 1.51-.45-.45.21-.367.29-1.51.08-1.14-.77-2.324-.77-2.324s-1.73.752-4.332.6c-2.602-.153-1.45-1.117-1.742-1.16z" fill-rule="evenodd" stroke="#707070" stroke-width=".146" fill="#d0d0d0"/><path d="M113.43 121.58c2.412-.11 3.995.258 3.995.258s.954 1.915.915 2.972c-.04 1.057-.368 1.957-.82 1.507-.45-.45.21-.365.29-1.507.08-1.142-.77-2.326-.77-2.326s-1.73.756-4.332.603c-2.602-.152-1.86-.308-2.152-.353-.29-.045-.362.72-4.298.827-3.937.11-5.944-.824-5.944-.824s-.39.56-2.868.733c-2.48.17-2.868 0-2.868 0 .064.64.547 1.85.41 3.3.096 1.684-.475 3.21-.475 3.21.065.09-.233.132-.755.09.41-.37.363-1.43.41-2.935.047-1.506-1.564-3.772-1.23-4.4.336-.626 2.12-.04 2.46-.365.337-.327-1.59-2.62-1.23-4.767.36-2.145 2.404-1.54 4.917-1.466 2.512.074 8.078.724 9.423 0 1.345-.725.763-3.407 2.05-5.132.818-1.1 2.047-1.466 3.276-1.466.82 0 2.05 2.93 2.05 3.663l-.41.367h-.41v.367c-.936.094-1.066-.8-1.64-1.466-.246 1.035.82 4.4.82 6.6 0 1.833-.766 2.64-.814 2.51z" fill-rule="evenodd" stroke="#707070" stroke-width=".146" fill="#d0d0d0"/><path d="M105.54 118.4c.034.73-3.166 2.37-3.427 3.017-.26.65.814 1.008.48 1.378-.33.37-.604.233-.672.302-.065.068-1.2-2.54-1.2-2.54s3-1.355 2.887-1.94c-.114-.584-2.216-.94-2.6-2.41s-.17-4.316-.48-4.91c-.31-.595-3.995-1.162-4-2.06-.002-.9 3.788-3.368 4.198-3.734.41-.367.82.366.41.733-.41.366-3.377 2.633-3.377 3 0 .366 2.458.733 3.277.733.82 0 1.23-.37 1.23-.736.004-.317-.82-.367-.82-1.1s.41-1.1 1.23-1.1c.41 0 1.196.47 1.228 1.1s-.728.684-.82 1.1c-.09.416.82.733 1.64.733s3.617 2.13 4.027 2.498c.41.366.82.366.41.733s-.17.8-.58.434a1.503 1.503 0 0 1-.41-.733c-.036-.334-3.038-1.833-3.448-1.467-.41.367 0 4.766 0 5.132 0 .733.854.73.82 1.833z" fill-rule="evenodd" stroke="#707070" stroke-width=".146" fill="#d0d0d0"/><path fill-rule="evenodd" fill="#a7a7a7" d="M100.32 109.9h4.917v5.132h-4.917z"/><rect transform="matrix(.5544 .8322 -.8824 .4706 0 0)" fill-rule="evenodd" rx=".445" ry=".199" height=".399" width="30.647" y="-25.672" x="138.6" fill="gray"/><path d="M180.71 42.52a7.087 7.087 0 1 1-14.173 0 7.087 7.087 0 0 1 14.173 0z" fill-rule="evenodd" transform="matrix(.1156 0 0 .1035 80.65 101.47)" stroke="#707070" stroke-width="1pt" fill="#d0d0d0"/><path d="M115.88 112.54c0 .304-1.902.66-4.097.66-2.195 0-4.097-.356-4.097-.66 0-.304 1.902.44 4.097.44 2.195 0 4.097-.744 4.097-.44z" fill-rule="evenodd" fill="gray"/><path fill-rule="evenodd" fill="#a7a7a7" d="M100.73 115.03h4.097v1.466h-4.097z"/><path d="M114.048 111.417c-.397.744-.774 1.275-.84 1.186-.07-.09.198-.764.595-1.508.397-.744.774-1.275.842-1.186.068.086-.2.76-.597 1.505zm1.035 1.926c-.452.397-.83.654-.842.574-.01-.08.347-.466.8-.863.452-.397.83-.654.84-.574.013.08-.343.466-.796.863z" fill-rule="evenodd" fill="gray"/><path d="M114.564 112.414c.333.606.553 1.12.49 1.146-.06.027-.382-.443-.716-1.05-.334-.607-.553-1.12-.49-1.147.06-.027.382.444.716 1.05zm-.32 3.17c0 .1-1.284.182-2.868.182s-2.867-.082-2.867-.183c0-.102 1.28-.184 2.864-.184 1.584 0 2.868.08 2.868.18zm-9.42-.37c0 .103-.918.185-2.05.185-1.13 0-2.048-.085-2.048-.187 0-.1.918-.183 2.05-.183 1.13 0 2.048.083 2.048.184z" fill-rule="evenodd" fill="gray"/><path d="M95.813 127.96s.676 1.643 3.556 1.666c2.88.022 3.87-.493 2.704-1.363s-3.333-.6-3.053.15c.28.752-.812 1.002-1.07.474-.256-.527-1.29-2.09.568-2.195 1.854-.105 5.783-.674 6.765.416.982 1.09-1.11 2.078.472 2.31 1.582.23 1.807-.265 4.528-.414 2.722-.15 3.76.505 4.694.413.93-.09.8-1.694.06-2.1-.736-.407-2.153-.482-2.516-.928-.362-.45-1.35-.086-1.26-.59.094-.503 1.403.347 1.418.09 0-.008.217-.18.26-.22-.164-.04-.26.02-.382.09.134-.11.125-.16.17-.248-.023-.033-.186.124-.213.092-.028-.033.19-.257.09-.176-.033.023-.292.15-.295.063.004-.035.136-.127.09-.177-.038-.042-.235.048-.26.058.113-.15.105-.147-.004-.26-.094-.11-.163-.11-.317.018.064-.18.08-.218-.074-.286-.127-.07-.133-.135-.29.19.06-.348-.103-.363-.036-.527.04-.15.253-.214.6-.18.677.005 1.04.816 1.26.813.22-.002.468-.858 1.416-.51.948.347 1.065.417 1.542.624.477.206-.335.52-.063.927.273.41 2.134 1.765 1.605 3.18-.53 1.416-1.892 1.64-2.014 2.253-.122.613 4.314.362 5.445.568 1.13.208 1.845 1.05 1.89 1.194.046.142-1.983.133-1.983.133s-1.04-.538-3.525-.587c-2.482-.05-3.428-1.05-4.357-1.176-.93-.126-2.91.21-4.018.16-1.108-.05-2.23-.224-2.947-.32-.717-.1-4.286 1.61-4.274 2.008-.744-.028-2.495-.123-2.423-.075.074.047.316-.775 1.68-.92 1.367-.144 2.696-.798 2.65-1.228-.042-.43.266-1.906.38-2.538.114-.63.625-.937.503-1.267-.122-.33-1.682-.672-3.18-.663-1.496.01-3.156.094-3.398.454-.24.36-.06 1.408.252 1.287.31-.12-.076-.804.25-.945.328-.14 1.166-.267 1.95-.285.79-.017 2.156.67 2.14.89-.012.22.44.953-.186 1.23-.63.28-1.914.404-3.146.34-1.232-.06-2.478-.484-2.927-.755-.448-.272-.723-1.098-.723-1.155z" fill-rule="evenodd" stroke="gray" stroke-width=".078" fill="#d0d0d0"/><path d="M114.053 125.53a.33.33 0 1 1-.657 0 .33.33 0 0 1 .657 0z" fill-rule="evenodd"/><path d="M129.51 120.77l1.595.344 2.665-1.824-.206.958-1.39.927c-.257.17-.513.326-.766.467.158.22.334.485.525.793l.86 1.39-.198.917-1.66-2.84-1.595-.345.17-.787zm-2.72-11.73l3.086-1.42-.838-1.82.413-.192 2.02 4.38-.413.19-.842-1.828-3.086 1.42-.338-.73zm-4.78-5.81l2.84-2.602.56.61-.074 4.398 2.23-2.042.522.57-2.84 2.6-.56-.61.076-4.4-2.233 2.045-.52-.57zm-12.42-5.016l.466-3.824.8.097-.412 3.373 2.974.362-.055.452-3.773-.46zm-6.11.548l-.69-3.79.793-.144.608 3.342 2.95-.536.08.448-3.74.68zm-11.282 5.568l-.283-.353 2.01-1.613.894 1.116a5.69 5.69 0 0 1-.676 1.118 5.66 5.66 0 0 1-.917.927 5.21 5.21 0 0 1-1.425.83c-.482.177-.916.224-1.302.14a1.59 1.59 0 0 1-.933-.57 1.702 1.702 0 0 1-.368-1.048c-.01-.41.12-.822.38-1.235.265-.414.633-.81 1.107-1.19a4.786 4.786 0 0 1 1.015-.636c.335-.153.632-.23.89-.23s.51.067.754.204l-.49.552a1.293 1.293 0 0 0-.554-.148c-.176-.003-.383.048-.62.153a3.203 3.203 0 0 0-.72.444 3.74 3.74 0 0 0-.677.684c-.167.222-.28.43-.336.625-.056.19-.076.37-.06.535.027.283.13.533.303.75.214.268.466.435.755.5.29.062.61.026.96-.11.35-.135.68-.33.992-.58.272-.217.512-.463.718-.735.206-.276.345-.505.42-.687l-.45-.56-1.396 1.118zm-.13 27.7l-3.14 2.23-2.378-3.346.37-.263 1.91 2.69.974-.69-1.653-2.326.37-.263 1.657 2.328 1.427-1.013.466.656zm-4.627-5.01c.45-.126.75-.414.9-.866.15-.453.143-.965-.02-1.538-.164-.583-.43-1.025-.794-1.328-.367-.304-.788-.39-1.266-.255a1.36 1.36 0 0 0-.72.466c-.18.22-.29.506-.325.852-.037.345-.002.71.107 1.096.156.547.41.986.76 1.315.35.327.803.412 1.36.254zm.22.8c-.614.174-1.17.05-1.664-.375-.496-.423-.86-1.047-1.094-1.872-.15-.54-.21-1.05-.166-1.53s.176-.876.405-1.185a1.63 1.63 0 0 1 .898-.624 1.63 1.63 0 0 1 1.11.074c.364.156.686.432.963.828.276.397.485.85.63 1.357.155.552.21 1.068.163 1.55-.046.48-.183.875-.412 1.18-.23.307-.505.506-.83.598zm.32-7.82l-3.85-.087.06-2.697c.015-.542.06-.953.136-1.234.074-.28.2-.503.38-.668a.82.82 0 0 1 .586-.24c.274.006.5.15.683.435.18.28.29.715.328 1.3.07-.21.138-.37.204-.48.14-.23.317-.45.527-.658l1.073-1.034-.023 1.01-.82.788a8.65 8.65 0 0 0-.544.568 1.7 1.7 0 0 0-.267.404c-.054.118-.09.24-.11.363a3.14 3.14 0 0 0-.03.448l-.02.934 1.71.04-.02.804zm-2.13-.853l.04-1.73a4.067 4.067 0 0 0-.053-.865c-.044-.21-.118-.368-.22-.478a.48.48 0 0 0-.344-.17c-.18-.004-.333.098-.455.306-.122.204-.188.53-.198.982l-.045 1.926 1.274.03zm10.7-16.947l.026-4.505.745-.446 4.118 2.024-.787.47-1.21-.636-2.18 1.306.025 1.344-.734.44zm.694-2.26l1.77-1.058-1.093-.59a8.264 8.264 0 0 1-.78-.463c.06.25.095.515.1.8l.006 1.31zm18.606-1.206l4.157-1.738.7.51-.255 4.58-.74-.54.112-1.36-2.056-1.498-1.227.55-.69-.504zm2.35-.245l1.667 1.212.115-1.237a8.44 8.44 0 0 1 .122-.9 3.692 3.692 0 0 1-.698.402l-1.205.52zm10.3 14.34l3.747-.9.628 2.625c.126.527.188.936.185 1.227 0 .29-.067.538-.198.743a.82.82 0 0 1-.506.38c-.265.065-.522-.018-.77-.246-.247-.228-.463-.62-.648-1.176a2.463 2.463 0 0 1-.074.517c-.078.26-.192.518-.343.77l-.77 1.273-.236-.984.592-.97c.17-.283.297-.513.382-.69.083-.176.135-.33.154-.46a1.61 1.61 0 0 0 .016-.38 3.717 3.717 0 0 0-.087-.44l-.217-.906-1.663.398-.188-.783zm2.28.28l.403 1.683c.086.358.176.632.27.823.096.19.208.326.335.406.13.08.254.106.375.077.177-.043.298-.18.364-.41.066-.23.046-.564-.06-1.003l-.447-1.872-1.24.296z" fill="#d0d0d0"/></g></svg>