<svg xmlns="http://www.w3.org/2000/svg" viewBox="0 0 640 480"><defs><clipPath id="a"><path fill-opacity=".67" d="M0 0h682.67v512H0z"/></clipPath></defs><g clip-path="url(#a)" transform="scale(.9375)"><path fill-rule="evenodd" fill="#009a00" d="M0 0h768v160H0z"/><path fill-rule="evenodd" fill="#fff" d="M0 159.96h768v16.018H0z"/><path fill-rule="evenodd" d="M0 175.98h768v160H0z"/><path fill-rule="evenodd" fill="#fff" d="M0 335.98h768v16.018H0z"/><path fill-rule="evenodd" fill="#ffca00" d="M0 352h768v160H0z"/><path d="M0 0v512l336.02-256L0 0z" fill-rule="evenodd" fill="red"/><path fill="#ffca00" fill-rule="evenodd" d="M198.532 332.966l-51.23-37.505-51.163 37.517 19.84-60.31L64.49 235.6l63.493.234 19.336-60.424 19.394 60.46 63.442-.29-51.506 37.13z"/><path stroke-linejoin="round" d="M102.837 290.905h36.905c2.97 3.33 9.594 4.69 15.904-.04 11.567-6.334 33.945.04 33.945.04l4.41-4.682-10.742-35.252-3.856-4.13s-8.26-4.955-23.96-3.303c-15.697 1.653-21.206-.55-21.206-.55s-13.77 1.652-17.625 3.58c-.424.343-4.407 4.406-4.407 4.406l-9.363 39.935z" fill-rule="evenodd" stroke="#000" stroke-linecap="round" stroke-width="1.103" fill="#fff"/><path stroke-linejoin="round" d="M110.274 281.82s35.25-4.408 45.442 9.087c-5.755 3.938-10.823 4.263-16.25.276.865-1.44 12.67-13.77 42.69-9.64" stroke="#000" stroke-linecap="round" stroke-width="1.103" fill="none"/><path d="M148.002 246.567l-.273 38.833m31.67-38.286l6.61 30.846" stroke="#000" stroke-width="1.176" fill="none"/><path stroke-linejoin="round" d="M116.97 246.63l-3.667 15.906" stroke="#000" stroke-linecap="round" stroke-width="1.103" fill="none"/><path stroke-linejoin="round" d="M78.868 295.14l8.68 10.175c1.018.608 1.924.57 2.83 0l12.86-15.434 5.403-6.686c.84-.99 1.107-2.096 1.03-3.086l10.33-9.18c.846.06 1.35.155 2.194.21-.997-.256-1.73-.742-.944-1.836l2.314-1.8 1.8 2.316s-2.57 3.344-2.828 3.344h-2.83l-5.402 4.888 2.362 2.087 3.555 9.746 4.376-3.086-2.83-10.032 6.175-6.687-2.315-3.602 1.543-2.057s21.368 13.452 29.6 9.85c.223.08.498-9.594.498-9.594s-22.122-2.315-22.637-6.688c-.516-4.373 4.887-4.888 4.887-4.888l-2.315-3.344.516-1.8 3.86 4.887 8.746-7.46 51.45 58.652c2.808-1.14 3.407-1.827 3.6-4.63-.072-.07-50.42-57.882-50.42-57.882l3.86-4.116c.76-.857 1.026-1.22 1.027-2.573l5.917-5.144c1.78.61 2.914 1.677 3.86 3.086l16.265-13.785c.43.43 1.73.86 2.616.377l26.888-25.815-29.305 20.703-1.033-.77c0-.86 1.064-1.07 0-2.574-1.138-1.365-2.83 1.287-3.086 1.287-.257 0-4.242-1.41-5.115-3.193l-.287 4.735-7.46 6.945-5.66-.26-8.23 7.977-1.03 3.087 1.287 2.572s-4.374 3.86-4.374 3.6c0-.256-.883-1.136-.92-1.25l3.752-3.38.515-2.315-1.25-1.953c-.38.274-5.18 5.3-5.438 4.783-.434-.476-13.896-15.69-13.896-15.69l.77-2.83-8.745-9.518c-3.19-1.1-8.233-1.287-9.26 5.66-.803 1.63-7.46.256-7.46.256l-3.604.77-20.322 28.812 11.32 13.634 23.15-29.326.69-8.308 4.856 5.432c1.62.208 3.164.227 4.632-.514l13.717 15.31-2.286 2.23c.772.857 1.303 1.404 2.075 2.262.77-.514 1.507-1.132 2.28-1.647.257.345.685.997.943 1.34-1.15.625-1.955 1.458-3.104 2.084-1.84-1.2-3.617-2.692-3.48-5.068l-7.72 6.43-.257 1.288-22.895 19.036-2.06.258-.514 5.916 14.92-12.347v-1.8l1.545 1.285 11.575-9.26s.773 1.03.516 1.03-10.29 9.26-10.29 9.26l-.255 1.03-1.8 1.542-1.03-.772-13.89 12.348h-2.06l-7.717 7.718c-1.99.174-3.715.385-5.402 1.544L78.86 295.14z" fill-rule="evenodd" stroke="#000" stroke-linecap="round" stroke-width="1.103"/></g></svg>