<svg xmlns="http://www.w3.org/2000/svg" xmlns:xlink="http://www.w3.org/1999/xlink" viewBox="0 0 640 480" version="1"><path fill="#0067c6" d="M0 0h640v480H0z"/><path fill="#fff" d="M0 160h640v160H0z"/><path d="M248 239.463l7.983.534c.027-.39.05-.778.08-1.167l-3.14-.21c.078-1.282.185-2.563.242-3.847 1.11-.803 2.222-1.605 3.33-2.414l.098-1.48-3.51 2.55c-.12-.83-.578-1.69-1.413-1.977-.73-.265-1.625-.31-2.258.21-.803.59-.947 1.648-1.05 2.567-.14 1.743-.24 3.49-.362 5.23zm1.216-1.09c.096-1.31.155-2.623.28-3.93.1-.647.218-1.394.784-1.806.51-.34 1.267-.087 1.477.49.417 1 .232 2.1.178 3.145l-.15 2.273-2.57-.172zm-.176-11.168c2.596.606 5.193 1.212 7.79 1.82l1.77-7.584c-.37-.082-.738-.17-1.107-.254l-1.506 6.45-2.37-.554c.45-1.937.903-3.875 1.356-5.812l-1.1-.258-1.36 5.81-2.097-.49 1.45-6.207-1.113-.26c-.57 2.447-1.142 4.894-1.714 7.34zm2.806-10.462l7.556 2.628.383-1.1c-.99-.344-1.98-.69-2.972-1.033.388-1.143.813-2.274 1.17-3.427.256-.943.453-2.044-.1-2.92-.45-.647-1.25-1.062-2.04-1.037-.87.037-1.58.678-1.967 1.42-.57 1.074-.89 2.255-1.307 3.392l-.727 2.08zm1.46-.73c.404-1.133.77-2.28 1.207-3.403.273-.6.605-1.31 1.294-1.5.567-.13 1.16.306 1.21.887.14 1.068-.328 2.077-.656 3.07l-.62 1.792-2.43-.85zm2.714-8.947c1.424.827 2.836 1.674 4.27 2.486.807.435 1.832.683 2.677.196 1.153-.638 1.875-1.816 2.44-2.965.447-.968.77-2.17.202-3.16-.616-.99-1.73-1.443-2.68-2.033l-2.765-1.618c-.195.335-.39.67-.587 1.004 1.356.798 2.72 1.58 4.07 2.39.645.392 1.18 1.103 1.07 1.894-.13.942-.668 1.77-1.205 2.53-.442.618-1.186 1.116-1.975.95-.82-.16-1.49-.697-2.213-1.087l-2.72-1.59c-.195.334-.39.67-.587 1.003zm5.762-9.416l6.353 4.86c.986-1.286 1.968-2.577 2.96-3.858.57-.817 1.095-1.88.71-2.883-.35-.8-1.173-1.42-2.054-1.46-.394-.055-.913.246-1.13.38.228-.854-.47-1.656-1.26-1.88-.94-.338-1.9.27-2.525.94-.737.8-1.352 1.704-2.025 2.556l-1.026 1.34zm1.61-.24c.745-.95 1.448-1.936 2.227-2.86.36-.403.94-.86 1.502-.564.512.222.638.868.394 1.333-.39.83-1.03 1.502-1.565 2.24l-.87 1.14-1.69-1.29zm2.59 1.982c.77-.987 1.498-2.01 2.312-2.962.415-.435.938-.983 1.597-.858.568.13.978.74.78 1.31-.314 1.046-1.1 1.848-1.73 2.715l-.99 1.298-1.965-1.503zm3.003-10.228l5.494 5.815 4.702-4.45-.78-.826-3.765 3.556-.098.09-.07-.07-4.644-4.916zm7.043-6.162l4.876 6.342.952-.732-4.877-6.342zm7.165-4.866c-.79.492-1.428 1.068-1.918 1.74-.49.67-.753 1.37-.792 2.098-.038.73.157 1.436.587 2.126a4.116 4.116 0 0 0 1.58 1.475 3.59 3.59 0 0 0 2.14.394c.774-.09 1.646-.43 2.617-1.037.932-.58 1.593-1.25 2-2.02.39-.738.5-1.522.333-2.357l-1.106.432c.29 1.6-.742 2.366-1.896 3.1-1.807 1.1-3.568 1.02-4.647-.633-1.115-1.862.108-3.4 1.645-4.4 1.09-.68 2.167-1.146 3.19-.494l.866-.77a3.195 3.195 0 0 0-2.044-.56c-.81.046-1.655.343-2.55.902zm9.453-4.718l-.837 8.965 1.242-.502.252-2.78h.004l4.047-1.63 2.11 1.828 1.245-.503-6.82-5.876-1.247.5zm1.095.92l2.66 2.302-2.975 1.2.32-3.503zm16.44-5.865l.5 7.984c1.446-.097 2.89-.165 4.33-.285 1.137-.13 2.354-.424 3.13-1.327 1-1.11 1.143-2.77.705-4.15-.368-1.217-1.462-2.137-2.7-2.37-1.22-.235-2.464-.05-3.692.006l-2.27.146zm1.234 1.062c1.15-.06 2.297-.173 3.448-.18a2.94 2.94 0 0 1 1.83.56c.8.548 1.27 1.534 1.167 2.5-.058 1.113-.876 2.136-1.957 2.417-.617.16-1.26.205-1.892.275l-2.237.14-.36-5.712zM321.33 168c-.15 2.662-.303 5.325-.455 7.987l7.773.444.065-1.13-6.613-.38.14-2.43c1.985.11 3.972.227 5.958.34l.065-1.13c-1.987-.112-3.973-.227-5.96-.34.04-.717.083-1.434.123-2.15 2.122.12 4.244.24 6.365.363l.07-1.14-7.526-.43zm20.89 3.333l-2.894 7.458 1.03.4 2.293-5.91.115-.307.128.34 2.758 7.937 1.35.52 2.893-7.46-1.032-.4-2.29 5.91-.118.305-.126-.338-2.763-7.93zm10.746 4.617l-3.636 7.125-1.07-.545 3.638-7.126zm6.034 3.535c-.776-.513-1.565-.852-2.38-1.017-.814-.165-1.56-.114-2.238.156-.68.27-1.24.74-1.687 1.42a4.116 4.116 0 0 0-.68 2.052c-.046.743.13 1.44.534 2.11.4.666 1.07 1.315 2.03 1.946.913.605 1.8.926 2.67.975a3.446 3.446 0 0 0 2.28-.68l-.858-.826c-1.332.935-2.46.318-3.608-.43-1.753-1.18-2.415-2.813-1.365-4.482 1.226-1.794 3.134-1.325 4.684-.344 1.074.708 1.945 1.49 1.78 2.693l1.063.466c.124-.714.014-1.41-.346-2.092-.377-.716-1-1.36-1.882-1.94zm7.618 5.745l-8.363 3.336 1.014.88 2.59-1.04v.004l3.295 2.86-.667 2.71 1.014.88 2.127-8.75-1.015-.88zm-.32 1.393l-.84 3.417-2.424-2.106 3.264-1.31zm6.362 4.167l-6.173 5.09.743.9 2.428-2c.823.986 1.624 1.992 2.464 2.964-.257 1.347-.515 2.693-.765 4.04l.942 1.144c.264-1.422.533-2.843.8-4.264.69.567 1.703.85 2.53.402.71-.336 1.336-.982 1.373-1.805.086-1.1-.7-1.993-1.33-2.81-1.004-1.22-2.01-2.44-3.015-3.658zm-.136 1.626c.864 1.067 1.77 2.1 2.597 3.2.38.565.858 1.36.42 2.02-.36.567-1.15.517-1.63.15-.98-.66-1.626-1.67-2.39-2.547l-.98-1.19 1.986-1.637zm9.494 11.104l-8.994.413.67 1.164 2.788-.135.002.005 2.177 3.78-1.514 2.343.67 1.165 4.875-7.57-.67-1.164zm-.758 1.212l-1.912 2.953-1.602-2.783 3.514-.17zm5.89 9.378c-.5-1.357-1.288-2.747-2.623-3.426-1.485-.746-3.462-.383-4.515.925-.918 1.083-.965 2.62-.72 3.96.29 1.532.993 2.993 2.05 4.15l-.597.21.383 1.066c1.25-.45 2.498-.9 3.747-1.348-.486-1.35-.97-2.7-1.457-4.048-.29.104-.577.208-.866.31l1.072 2.984c-.423.15-.846.303-1.27.455-1.12-.96-1.744-2.384-2.07-3.798-.24-1.062-.25-2.334.556-3.17.924-.96 2.56-1.258 3.67-.44 1.093.802 1.71 2.1 2.022 3.388.214.85.18 1.857-.464 2.52-.18.134.105.322.154.483l.306.505a2.823 2.823 0 0 0 1.074-2.238c.023-.852-.165-1.697-.45-2.495zm2.3 6.248l-4.475.87c-.83.16-1.453.425-1.868.774-.414.35-.68.842-.807 1.497-.126.644-.108 1.44.077 2.405a.197.197 0 0 1 .004.022c.19.965.475 1.71.836 2.26.364.56.794.918 1.31 1.086.515.17 1.19.18 2.02.018l4.475-.87-.222-1.14-4.366.85c-1.96.38-2.62-.65-2.955-2.416l-.004-.022c-.35-1.763-.124-2.966 1.836-3.348l4.365-.85-.22-1.14zm2.453 13.616l-8.278-3.54.097 1.34 2.57 1.09v.005l.314 4.35-2.385 1.45.1 1.34 7.68-4.7-.094-1.34zm-1.21.76l-3.005 1.828-.232-3.203 3.237 1.372zM254.2 254.668l-1.16.306 1.284 4.874 1.16-.306zm131.626 0l1.16.305-1.282 4.874-1.16-.305zM266.574 275.19l-8.945 1.03.744 1.116 2.772-.327h.002l2.43 3.624-1.353 2.44.748 1.116 4.344-7.885-.75-1.116zm-.674 1.262l-1.704 3.077-1.79-2.67 3.494-.41zm4.098 3.626l-5.702 5.332.76.814 4.806-4.493-2.52 6.94.873.934 6.89-2.09-4.72 4.412.762.814 5.7-5.333-1.155-1.236-7 2.09 2.62-6.772zm8.304 8.472l-4.812 6.392 6.22 4.684.684-.908-5.29-3.985 1.464-1.945 4.768 3.59.68-.903-4.768-3.59 1.296-1.722c1.698 1.28 3.395 2.557 5.093 3.835l.687-.912-6.022-4.535zm7.828 5.73l-3.768 7.058 1.03.55 1.482-2.775c1.137.6 2.26 1.224 3.408 1.803.276 1.343.55 2.685.832 4.027l1.307.698-.88-4.244c.86.26 1.9.138 2.49-.592.508-.563.85-1.354.61-2.11-.28-1.043-1.308-1.59-2.175-2.094-1.442-.777-2.89-1.544-4.332-2.317zm.493 1.556c1.206.658 2.44 1.268 3.62 1.97.548.368 1.243.874 1.174 1.62-.06.654-.766 1.003-1.363.864-1.167-.193-2.152-.89-3.192-1.41l-1.45-.773 1.21-2.27zm8.543 3.17l-3.023 7.406 1.11.453 3.024-7.407zm7.214 2.49c-.884-.293-1.734-.415-2.564-.363-.828.052-1.534.295-2.12.732-.585.436-1.004 1.037-1.26 1.81a4.116 4.116 0 0 0-.126 2.158c.15.73.502 1.356 1.065 1.898.56.54 1.38.996 2.465 1.356 1.043.346 1.98.427 2.832.248a3.445 3.445 0 0 0 2.027-1.25l-1.045-.573c-1.044 1.245-2.294.94-3.596.52-2-.69-3.063-2.092-2.48-3.98.716-2.05 2.68-2.09 4.43-1.545 1.22.404 2.267.934 2.42 2.137l1.147.176a3.192 3.192 0 0 0-.877-1.93c-.55-.594-1.32-1.054-2.32-1.387zm8.043 1.802l-5.232 7.327 1.33.192 1.62-2.275h.005l4.318.625.905 2.64 1.33.193-2.94-8.51-1.33-.192zm.484 1.344l1.14 3.328-3.177-.46 2.037-2.868zm18.27-1.288c-.915.177-1.716.486-2.415.938-.697.45-1.194 1.008-1.49 1.675-.297.668-.37 1.397-.215 2.195.142.732.46 1.38.948 1.944.487.563 1.102.938 1.857 1.135.752.2 1.69.19 2.812-.024 1.08-.208 1.935-.596 2.59-1.17a3.445 3.445 0 0 0 1.157-2.08l-1.185.007c-.302 1.598-1.54 1.946-2.88 2.216-2.08.38-3.696-.327-4.112-2.255-.376-2.14 1.316-3.137 3.11-3.52 1.26-.244 2.433-.293 3.155.682l1.085-.41a3.183 3.183 0 0 0-1.71-1.255c-.77-.25-1.667-.273-2.704-.073zm5.34-.946l2.277 7.67c2.488-.74 4.976-1.477 7.465-2.215-.11-.363-.22-.727-.328-1.09l-6.35 1.884c-.23-.778-.46-1.556-.692-2.335 1.908-.566 3.816-1.13 5.723-1.697l-.322-1.085-5.72 1.698-.612-2.065 6.112-1.814-.326-1.1-7.227 2.145zm8.656-2.72c1.12 2.42 2.24 4.84 3.358 7.26l1.006-.462-2.8-6.056c2.588 1.174 5.163 2.383 7.746 3.57.173.15.345.05.517-.042l1.006-.465c-1.12-2.42-2.24-4.84-3.358-7.26l-1.005.463 2.8 6.048c-2.66-1.205-5.304-2.443-7.957-3.66-.437.2-.873.402-1.31.604zm8.785-4.126l.626.952 2.858-1.88.108-.072.054.082 3.717 5.648.976-.64-3.718-5.647-.054-.082.112-.073 2.87-1.89-.625-.952zm8.05-5.512l5.42 5.883c.287-.263.573-.528.86-.79l-2.133-2.315c.94-.876 1.9-1.73 2.826-2.623 1.36.182 2.72.366 4.08.542l1.09-1.004-4.3-.57c.525-.72.753-1.745.26-2.546-.375-.69-1.054-1.28-1.878-1.27-1.104-.027-1.954.808-2.736 1.48l-3.486 3.213zm1.63.046c1.018-.92 2-1.884 3.05-2.768.546-.41 1.314-.93 1.998-.53.584.33.578 1.12.24 1.62-.606 1.017-1.58 1.72-2.416 2.532l-1.127 1.04c-.58-.632-1.163-1.263-1.744-1.894zm7.676-9.362l3.58 8.262.85-1.04-1.117-2.557.003-.008 2.763-3.378 2.728.588.855-1.04-8.807-1.87-.85 1.04zm1.402.28l3.44.738-2.034 2.486-1.406-3.225zm2.082-4.812l6.713 4.353 3.526-5.432-.954-.62-2.817 4.347-.072.11-.084-.054-5.675-3.68z" fill="#c8a400"/><g clip-path="#025" transform="matrix(.8 0 0 .8 -80 0)"><path d="M500 226.408l-31.478 54.535-15.42 26.702H546.9l-14.715-25.484L500 226.41z" fill="#fff"/><g id="b"><g id="a"><path d="M500 226.408l-2.356 4.082L500 285.467l2.358-54.977z" opacity=".62" fill="#17c0eb" stroke="#17c0eb" stroke-width=".129"/><path d="M500 277.475l-.133.003.134 3.11.138-3.11c-.045 0-.09-.003-.134-.003z" fill="#fff"/></g><use height="100%" width="100%" xlink:href="#a" transform="rotate(72 500 285.5)"/><use height="100%" width="100%" xlink:href="#a" transform="rotate(144 500 285.5)"/><use height="100%" width="100%" xlink:href="#a" transform="rotate(-144 500 285.5)"/><use height="100%" width="100%" xlink:href="#a" transform="rotate(-72 500 285.5)"/></g><use height="100%" width="100%" xlink:href="#b" transform="rotate(8 500 285.5)"/><use height="100%" width="100%" xlink:href="#b" transform="rotate(16 500 285.5)"/><use height="100%" width="100%" xlink:href="#b" transform="rotate(24 500 285.5)"/><use height="100%" width="100%" xlink:href="#b" transform="rotate(32 500 285.5)"/><use height="100%" width="100%" xlink:href="#b" transform="rotate(40 500 285.5)"/><use height="100%" width="100%" xlink:href="#b" transform="rotate(48 500 285.5)"/><use height="100%" width="100%" xlink:href="#b" transform="rotate(56 500 285.5)"/><use height="100%" width="100%" xlink:href="#b" transform="rotate(64 500 285.5)"/><path d="M500 265.844a44.236 44.236 0 0 0-28.97 10.75L456.376 302c-.5 2.67-.75 5.434-.75 8.25h5.03c0-21.726 17.62-39.344 39.345-39.344 21.73 0 39.347 17.618 39.347 39.344h5.03c0-2.813-.248-5.582-.75-8.25l-14.655-25.406a44.25 44.25 0 0 0-28.97-10.75z" fill="red"/><path d="M500 266.656c-11.764 0-22.44 4.675-30.28 12.25l-12.032 20.844a43.596 43.596 0 0 0-1.28 10.5h4.25c0-21.726 17.616-39.344 39.342-39.344 21.727 0 39.344 17.618 39.344 39.344h4.25a43.86 43.86 0 0 0-1.28-10.53l-12.032-20.814c-7.84-7.574-18.518-12.25-30.282-12.25z" fill="#f60"/><path d="M500 267.47c-12.702 0-24.1 5.52-31.938 14.31l-8.718 15.095a42.733 42.733 0 0 0-2.125 13.375h3.433c0-21.726 17.618-39.344 39.344-39.344 21.725 0 39.343 17.618 39.343 39.344h3.438c0-4.673-.74-9.165-2.124-13.375l-8.72-15.095C524.1 272.992 512.7 267.468 500 267.468z" fill="#ff0"/><path d="M500 268.25c-14.55 0-27.372 7.414-34.906 18.656l-2.813 4.875a41.818 41.818 0 0 0-4.28 18.47h2.66c0-21.723 17.616-39.34 39.342-39.34 21.727 0 39.344 17.617 39.344 39.343H542a41.82 41.82 0 0 0-4.282-18.436l-2.844-4.937c-7.536-11.23-20.337-18.63-34.874-18.63z" fill="#0f0"/><path d="M500 269.062c-22.747 0-41.188 18.44-41.188 41.188h1.844c0-21.727 17.618-39.344 39.344-39.344 21.726 0 39.344 17.617 39.344 39.344h1.844c0-22.748-18.44-41.188-41.188-41.188z" fill="#0cf"/><path d="M500 269.844c-22.306 0-40.375 18.1-40.375 40.406h1.344c0-21.56 17.47-39.03 39.03-39.03 21.56 0 39.03 17.47 39.03 39.03h1.373c0-22.306-18.1-40.406-40.406-40.406z" fill="#00f"/><path d="M500 270.657c-21.863 0-39.588 17.725-39.588 39.59 0 .244.003.49.007.732h.8c-.008-.248-.01-.49-.01-.737 0-21.422 17.366-38.788 38.79-38.788 21.42 0 38.79 17.366 38.79 38.788 0 .245-.005.49-.01.733h.797c.002-.244.005-.49.005-.734 0-21.864-17.72-39.59-39.585-39.59z" fill="purple"/><path d="M500.395 288.134c-.644-.124-1.226-.484-1.775-.61-.756.725-.835 1.457-.73 2.08.26.14.31.353.877.86s.496.773.462 1.965c-.02.5.07 1.58.575 1.68.548.11.932-.348 1.09-1.16.152-.79.417-1.218.698-1.7.306-1.856-.193-2.51-1.2-3.12z" fill="#510000"/><path d="M497.168 283.524c-.595.015-1.528 1.012-1.943.475-.24-.31-.28-.906-.037-1.4.56-1.155 1.124-1.72 2.167-2.33 2.378-1.405 3.89-.955 5.074 1.06 1.094 1.77 2.15 3.73 2.242 5.37.03.5.283 1.41-.156 1.86-1.35 1.39-4.597-1.435-6.498-.988-.64.15-1.378.617-1.98.218-.47-.31-.08-.996.27-1.293.613-.52 1.5-2.366 1.38-3.166-.066-.444-.08.18-.525.19z" fill="red"/><path d="M496.927 282.548c-1.083.445-.966 1.076-1.51 1.59.154.058.766.31 1.364-.3.26-.215.55-.294.68-.363-.304.22-.522.554-.683.684-.404.325-1.034 1.08-1.34 1.842-.307.764-.43 1.673-.376 1.782.056.11.426.78 1.566 1.232 2.03.806 2.417 2.438 4.477 2.438 1.615 0 1.356-1.056 2.647-.832 1.12.194 1.712-.696.634-1.232-1.37-.467-4.092-.19-5.372.034-.413-4.083-.055-2.65-.15-4.405-.098-1.757-.624-1.86.07-3.28-.577.87-1.276.73-2.003.804z" fill="#025"/><path d="M500.938 279.795c-.04.223-.077.516-.056.6.087.34.175.693.278.994.115.332.162.575.24.924.082.36.4.5.694.722.37.28.084 1.036.315 1.067.18.025.484-1.07.49-1.246 0-.237-.005-.427-.04-.647a15.3 15.3 0 0 0-.427-.87c-.002-.004-.007-.006-.01-.01a3.652 3.652 0 0 0-.193-.327 4.204 4.204 0 0 0-.785-.863c-.02-.014-.037-.03-.056-.046a3.936 3.936 0 0 0-.26-.187c-.06-.04-.13-.076-.194-.113z" fill="#ff2a2a"/><path d="M501.25 287.398c-.72-.188-1.427-.543-2.038-.725-1.2-.36-2.48-1.134-3.366-.814-.317.14-.29.452-.39.91-.042.53-.596 1.315-.136 1.06.685-.385 2.49.73 3.095 1.104.287.177.892.524 1.082 1.022.19.497.092 1.755.04 2.295-.052.567.12 1.836.687 1.988.61.162 1.078-.324 1.316-1.23.23-.88.405-1.388.757-1.916s.756-.756 1.32-.863c.564-.106 1.382.462 1.382-.203 0-.437-.388-.855-.22-1.454.124-.472-.406-.378-.846-.572-1.036-.32-1.97-.42-2.688-.606z" fill="#025"/><path d="M498.363 288.902c-.327-.178-2.315-1.478-3.043-1.07-.23.127-.317-.017-.32-.258-.004-.24.11-.594.184-.866.074-.273.195-.792.516-1.062.687-.58 2.27.575 3.108.886-.072.436-.47 2.356-.445 2.37z" fill="#910000"/><path d="M501.763 291.36c.916-1.602 1.508-1.396 2.613-1.373.37.008.477-.33.393-.667-.28.624-1.666-.07-2.42.263-1.572.692-1.28 3.77-2.026 4.07.776.65 1.124-1.746 1.436-2.292z" fill="#ff3a3a"/><g fill="#025"><path d="M453.103 307.645l-9.955 17.237h113.708l-9.956-17.237h-93.797z" fill="#fff"/><g id="d"><path id="c" d="M449.705 321.364c-1.658 0-3.197.167-4.71.353l-.486.846c2.43-.216 4.693-.65 7.14-.71 3.29.08 6.28.83 9.782.83 1.518.015 3.027-.03 4.526 0 3.5 0 6.49-.75 9.783-.83 3.296.08 6.305.83 9.804.83 1.518.005 3.178-.023 4.53 0 3.5 0 6.474-.75 9.765-.83 3.293.08 6.27.83 9.77.83 1.53.015 3.032-.03 4.542 0 3.5 0 6.49-.75 9.787-.83 3.297.08 6.282.83 9.783.83 1.516.015 3.03-.03 4.53 0 3.5 0 6.475-.75 9.765-.83 2.55.063 4.92.52 7.484.725l-.515-.893c-1.405-.168-2.837-.32-4.37-.32-1.53-.022-3.036.03-4.547 0-3.5 0-6.474.747-9.765.828-3.298-.08-6.285-.83-9.788-.83-1.513-.02-3.03.032-4.526 0-3.5 0-6.492.75-9.785.83-3.293-.08-6.283-.83-9.782-.83-1.522-.02-3.042.032-4.547 0-3.498 0-6.475.75-9.764.83-3.294-.08-6.27-.83-9.77-.83-1.52-.02-3.025.032-4.525 0-3.5 0-6.49.75-9.784.83-3.294-.08-6.283-.83-9.783-.83-1.52-.02-3.043.032-4.547 0z"/><use height="100%" width="100%" xlink:href="#c" y="-1.113"/><use height="100%" width="100%" xlink:href="#c" y="-2.23"/></g><use height="100%" width="100%" xlink:href="#d" y="-3.344"/><use height="100%" width="100%" xlink:href="#d" y="-6.691"/><path d="M453.23 307.458l-.123.215h93.79l-.124-.215H453.23zm-.22.377l-.126.22h94.235l-.13-.22h-93.98zm-.2.346l-.204.36h94.792l-.205-.356H452.81zm-.317.555l-.25.433h95.518l-.25-.433h-95.014zm-.4.69l-.25.435h96.317l-.25-.435h-95.816zm-.398.692l-.247.43h97.107l-.247-.43h-96.613zm-.398.692l-.25.43h97.91l-.25-.43h-97.41zm-.43.743l-.304.53h98.877l-.303-.53h-98.27zm6.49.734c3.45.662 3.782 0 3.782 0zm81.503 0s.33.662 3.782 0z"/></g><g fill="#ccd11e"><g id="e"><path d="M530.63 297.043c-1.708 0-2.23.862-2.23.862-2.737 10.576-11.808 21.333-22.6 21.333h-8.082v10.768c0 .003.012 0 .017 0h61.498l-6.187-10.954c-9.707-1.45-17.64-11.373-20.166-21.147 0 0-.54-.862-2.25-.862z" fill="#025"/><path d="M530.63 297.465c-.783 0-1.26.18-1.537.355-.264.165-.315.276-.32.288 0 .007-.016.01-.02.016-1.4 5.323-4.35 10.67-8.333 14.707-4.012 4.07-9.07 6.83-14.605 6.83h-7.674v9.926H559l-5.68-10.058c-4.687-.612-8.973-3.163-12.458-6.694-3.987-4.037-6.933-9.383-8.335-14.706l-.017-.016c-.007-.01-.07-.104-.338-.27-.284-.176-.755-.372-1.54-.372z" fill="#97c924"/><path d="M530.63 297.465c.147 0 .28.02.406.034.024 3.013 0 8.105 0 10.8-.03 2.34-.83 4.22-2.012 6.44-.547 1.552-.986.96-2.35 2.855-1.83.654-3.186.91-5.138 1.216-2.517.4-8.12.75-10.887.137 3.64-1.07 6.96-3.27 9.77-6.12a30.57 30.57 0 0 0 2.13-2.4 33.663 33.663 0 0 0 3.01-4.48c.35-.627.683-1.25.994-1.894a33.86 33.86 0 0 0 1.25-2.94c.124-.33.245-.667.356-.998.223-.665.418-1.33.593-1.996.002-.007.015-.01.016-.018.005-.012.06-.122.32-.287.136-.085.332-.17.575-.237h.017c.252-.067.554-.118.946-.118z" fill="#ede71f"/><path d="M529.938 298.902c-.412 6.034-2.277 13.192-6.644 17.81-1.607 1.337-3.66 2.55-5.646 2.255 6.77-5.51 10.885-13.947 12.29-20.065z" fill="#c6cb24"/><path d="M524.494 309.28c-1.002 2.722-4.788 6.747-8.84 10.046-1.15.035-1.76.1-2.804.038 2.468-.225 8.22-5.083 11.644-10.083z" fill="#9ecb34"/></g><use height="100%" width="100%" xlink:href="#e" x="-15.341"/><g fill="#c6cb24"><path d="M502.218 297.91c2.735 10.576 11.79 21.334 22.583 21.334h8.09v10.768c0 .003-.012 0-.014 0H467.08c-.007 0-.018.003-.018 0v-10.768h8.073c10.792 0 19.863-10.758 22.6-21.333 0 0 .534-.862 2.243-.862 1.708 0 2.243.866 2.243.866z" fill="#F5F549"/><path d="M499.975 297.465c.784 0 1.255.196 1.538.372.27.166.332.26.34.27l.016.017c1.4 5.323 4.344 10.67 8.33 14.707 4.016 4.07 9.086 6.83 14.622 6.83h7.64v9.926h-64.98v-9.923h7.675c5.534 0 10.592-2.76 14.604-6.83 3.983-4.036 6.935-9.382 8.335-14.705.002-.007.014-.01.016-.016.007-.012.058-.123.32-.29.28-.172.756-.353 1.54-.353z" fill="#97c924"/><path d="M499.263 297.53a3.4 3.4 0 0 0-.242.055h-.014c-.243.066-.436.15-.572.236-.263.17-.313.278-.32.29-.002.006-.016.01-.017.017a28.878 28.878 0 0 1-.95 2.993 34.22 34.22 0 0 1-1.25 2.94 34.21 34.21 0 0 1-.996 1.895 33.634 33.634 0 0 1-3.01 4.477 30.73 30.73 0 0 1-2.13 2.403c-2.81 2.85-6.13 5.05-9.77 6.117 2.766.614 4.033-.057 6.55-.455 1.95-.308 4.21-.563 6.043-1.217 1.364-1.894.9-1.3 1.446-2.854 1.18-2.218 2.905-4.222 3.333-6.68 1.62-3.023 1.903-8.615 1.903-10.214z" fill="#ede71f"/><path d="M499.275 298.902c-.412 6.034-2.277 13.192-6.644 17.81-1.602 1.337-3.66 2.55-5.642 2.255 6.77-5.51 10.885-13.947 12.29-20.065z"/><path d="M493.832 309.28c-1.002 2.722-4.788 6.748-8.84 10.046-1.15.035-1.76.1-2.804.038 2.467-.225 8.222-5.083 11.644-10.083z" fill="#9ecb34"/><path d="M500.95 297.584h.02c.24.067.434.15.57.236.264.165.315.274.32.286.003.006.017.01.02.018.174.665.37 1.333.59 1.996.112.332.235.665.358.995a33.6 33.6 0 0 0 1.25 2.942c.31.645.644 1.268.997 1.895a33.634 33.634 0 0 0 3.01 4.477 30.73 30.73 0 0 0 2.13 2.4c2.81 2.85 6.128 5.443 9.768 6.51-7.245.03-10.39-.63-13.022-4.016-2.63-3.387-3.602-4.868-4.14-6.937-.53-2.07-2.022-6.57-1.87-10.807z" fill="#ede71f"/><path d="M501.476 298.902c.412 6.034 2.22 12.006 6.587 16.625 1.607 1.337 3.66 2.55 5.646 2.255-7.34-5.002-10.83-12.762-12.237-18.88z"/></g><g id="f"><path d="M484.75 297.043c-1.71 0-2.25.862-2.25.862-2.522 9.747-11.824 22.318-21.496 23.81l-4.79 8.29h49.015V318.66c-8.83-2.37-15.89-11.63-18.25-20.753 0 0-.525-.862-2.23-.862z" fill="#025"/><path d="M484.75 297.465c-.785 0-1.256.196-1.54.372-.268.166-.33.26-.337.27l-.017.017c-1.402 5.323-4.678 10.705-8.08 14.99-3.402 4.283-9.72 8.617-14.042 9.076l-4.282 7.393h48.06V318.89c-3.554-1.09-6.8-3.267-9.552-6.06-3.982-4.037-6.934-9.383-8.334-14.706-.002-.007-.015-.01-.017-.016-.01-.012-.06-.123-.325-.288-.28-.174-.755-.355-1.54-.355z" fill="#97c924"/><path d="M483.445 298.903c-.617 9.043-5.653 20.454-11.34 22.42-1.855.64-5.1.864-6.227 1.008 9.948-4.73 15.828-15.85 17.567-23.424z" fill="#93bc30"/><path d="M484.746 297.465c-.147 0-.28.02-.406.034-.023 3.013 0 8.105 0 10.8.03 2.34.83 4.22 2.012 6.44.07.192.136.352.203.49.41 1.084.713 1.46 2.282 2.652 4.987 3.787 11.17 4.353 14.808 4.04-1.14-.898-2.358-1.715-3.43-2.467 1.71-.056 3.35-.25 4.512-.508-3.64-1.068-6.96-3.27-9.77-6.12a30.523 30.523 0 0 1-1.403-1.555c-.21-.292-.5-.698-.592-.812-1.118-1.4-2.263-2.946-3.145-4.512a34.164 34.164 0 0 1-.997-1.893 34.023 34.023 0 0 1-1.606-3.938 31.676 31.676 0 0 1-.592-1.997c-.002-.006-.015-.01-.017-.017-.006-.012-.057-.122-.32-.287a2.207 2.207 0 0 0-.576-.238h-.02a3.614 3.614 0 0 0-.947-.118z" fill="#ede71f"/><path d="M485.446 298.902c.412 6.034 2.277 13.192 6.644 17.81 1.606 1.337 3.66 2.55 5.646 2.255-6.77-5.51-10.886-13.947-12.29-20.065z"/><path d="M489.613 307.247c2.37 5.837 8.37 11.29 14.543 14.954 1.15.04 1.492.007 2.537-.06-4.42-2.37-11.54-5.75-17.08-14.89z" fill="#9ecb34"/></g><use height="100%" width="100%" xlink:href="#f" x="-15.43" fill="#c6cb24"/></g><path d="M556.5 324.692c-.574.203-4.42-.19-6.433-.044l-1.28.336c-1.123-.008-2.238.024-3.33 0-3.602 0-6.65.948-10.075.948-3.433 0-6.47-.948-10.075-.948-1.12-.008-2.234.025-3.33 0-3.602 0-6.647.948-10.076.948-3.425 0-6.47-.948-10.07-.948-1.13-.007-2.243.023-3.35 0-3.602 0-6.632.948-10.06.948-3.43 0-6.454-.948-10.056-.948-.267 0-.516.01-.776.017-.178 0-.377-.013-.557-.013-.12 0-.222-.003-.34 0-.116-.003-.236 0-.355 0-.18 0-.345.013-.523.017-.256-.007-.51-.016-.776-.016-3.606 0-6.643.95-10.076.948-3.43 0-6.473-.948-10.075-.948-.26 0-.52.01-.775.017-.18-.003-.34-.016-.522-.016-.124 0-.252-.004-.374 0-.117-.004-.237 0-.356 0-.18 0-.362.012-.54.016-.26-.007-.51-.016-.776-.016-2.88 0-6.218.606-8.936.85l-6.272 10.857 62.972-.007 64.375.006z" fill="#fff"/><path d="M547.993 323.11c-.2 0-.398 0-.596.008-3.24.095-5.564 1.115-11.2 1.115-5.638 0-6.22-1.02-12.584-.88-5.947.132-8.443 1.263-11.67 1.218-3.228-.04-8.473-.693-12.51-.27-4.037.422-8.828 1.283-11.973 1.29-3.91-.017-7.82-.73-11.906-.324-4.087.406-5.997 1.5-11.063 1.485-4.352-.013-9.08-.7-12.742-.695-3.435.003-7.267.957-10.086 1.443l-.843 1.464c2.246-.26 8.55-1.216 10.8-1.275 2.344-.06 10.717.483 15.335.325 4.618-.16 5.158-1.173 10.618-1.173 3.803 0 6.668.4 10.568.4 2.435 0 4.644-1.244 8.344-1.244.937-.027 1.866-.06 2.795-.09 3.12-.516 8.383.044 12.047.23 3.315.174 5.457-.614 8.914-.73 1.497-.067 3-.065 4.475-.147 3.46-.116 6.423.64 9.68.623 3.25-.2 6.404-.92 9.86-1.035 1.51-.07 3-.072 4.49-.148 2.288-.076 5.838.078 8.274.5l-.84-1.45c-2.38-.075-5.31-.634-8.18-.634z" fill="#025"/><g id="h"><path id="g" d="M450.312 334.748c-3.457 0-6.402.853-9.652.945-1.21-.033-2.367-.183-3.535-.345l-.49.85c.486.032.975.063 1.488.063 1.502.02 2.99-.032 4.474 0 3.457 0 6.382-.85 9.634-.94 3.258.09 6.21.944 9.67.944 1.5.02 2.993-.035 4.474 0 3.458 0 6.413-.852 9.667-.944 3.256.09 6.23.944 9.687.944 1.495.02 2.993-.035 4.47 0 3.457 0 6.4-.852 9.652-.944 3.252.09 6.19.944 9.65.944 1.51.02 2.997-.035 4.49 0 3.456 0 6.41-.852 9.665-.944 3.257.092 6.21.945 9.67.945 1.495.02 2.99-.035 4.47 0 3.456 0 6.4-.852 9.65-.944 3.254.095 6.21.948 9.667.948 1.5.02 2.997-.035 4.475 0 .605 0 1.196-.033 1.778-.076l-.462-.796c-1.063.144-2.132.276-3.234.306-3.255-.093-6.196-.946-9.653-.946-1.51-.02-2.996.03-4.49 0-3.457 0-6.396.853-9.648.945-3.258-.09-6.207-.946-9.667-.946-1.497-.02-2.994.03-4.474 0-3.46 0-6.414.853-9.668.945-3.256-.094-6.21-.947-9.668-.947-1.503-.02-3.003.03-4.49 0-3.458 0-6.4.853-9.65.945-3.253-.093-6.194-.946-9.65-.946-1.507-.02-2.99.03-4.475 0-3.46 0-6.41.855-9.667.946-3.254-.093-6.21-.946-9.666-.946-1.502-.02-3.006.03-4.49 0z" fill="#025"/><use height="100%" width="100%" xlink:href="#g" y="-1.289"/><use height="100%" width="100%" xlink:href="#g" y="-2.575"/></g><use height="100%" width="100%" xlink:href="#h" y="-3.867"/><use height="100%" width="100%" xlink:href="#h" y="-7.729"/><path d="M443.846 324.705l-2.427 4.19c2.835-.47 7.1-1.702 10.63-1.705 3.663-.003 8.082.903 12.44.916 5.065.014 6.975-1.08 11.062-1.485 4.086-.403 7.998.53 11.906.55 3.144-.008 7.935-1.09 11.972-1.513 4.037-.422 7.737.293 12.603.37 4.866.074 5.63-1.18 11.576-1.312 6.366-.14 6.947.878 12.584.878 4.242.23 7.883-.853 11.666-1.12 3.785-.27 5.54.043 8.306.11l-1.838-3.254c-.033 0-.063.002-.094.003l-101.246 2.225z" fill="#97c924"/><path d="M550.067 324.648s2.71.148 3.847.276a91.39 91.39 0 0 0 2.955.253l-.37-.485c-.577.203-4.42-.19-6.436-.044z" fill="#fff"/></g><path d="M320 179.9l-25.713 44.548L268 269.968l51.438-.007 52.562.01-25.723-44.546L320 179.9zm0 2.4l25.24 43.723 24.68 42.742-50.482-.003-49.36.003 25.247-43.716z" fill="#c8a400"/></svg>