<svg xmlns="http://www.w3.org/2000/svg" viewBox="0 0 640 480"><defs><clipPath id="a"><path fill-opacity=".67" d="M-54.667 0h682.67v512h-682.67z"/></clipPath></defs><g fill-rule="evenodd" clip-path="url(#a)" transform="translate(51.25) scale(.9375)" stroke-width="1pt"><path fill="#002170" d="M-140 0H884v512H-140z"/><path fill="#ffb20d" d="M-140 234.11H884v43.783H-140z"/><path fill="#fff" d="M161.81 437.99l-32.916-32.972-10.604 45.363-12.008-45.012-31.875 33.978 12.107-44.99-44.59 13.5 32.972-32.908-45.365-10.613 45.02-12.008-33.99-31.877 44.99 12.108-13.49-44.59 32.906 32.97 10.614-45.364 12.008 45.015 31.866-33.98-12.098 44.99 44.59-13.5-32.98 32.91 45.363 10.61-45.018 12.01 33.987 31.874-44.99-12.108z"/></g></svg>