<svg xmlns="http://www.w3.org/2000/svg" viewBox="0 0 640 480"><defs><clipPath id="a"><path fill-opacity=".67" d="M0 0h640v480H0z"/></clipPath></defs><g clip-path="url(#a)"><path fill="#fff" d="M0 0h640v480H0z"/><path fill-rule="evenodd" fill="#fff" d="M92.462 0h477.19v480H92.462z"/><path fill-rule="evenodd" fill="#db0000" d="M323.07 3.655h358v221.68h-358z"/><path fill-rule="evenodd" fill="#0000ab" d="M3.227 225.33h319.87v254.66H3.227zM214.8 177.65l-41.96-29.326-41.753 29.614 15.53-48.124-41.678-29.716 51.56-.414 15.994-47.978 16.335 47.867 51.56.063-41.462 29.996L214.8 177.65z"/><path d="M516.85 413.89l-42.354-27.744-42.146 28.017 15.675-45.53-42.07-28.113 52.048-.392 16.143-45.39 16.49 45.285 52.046.06-41.853 28.38 16.02 45.427z" fill-rule="evenodd" fill="#d80000"/></g></svg>