<svg xmlns="http://www.w3.org/2000/svg" version="1" viewBox="-15 -7.5 30 15"><defs><clipPath id="a"><path d="M-15-7.5h30v15h-30z"/></clipPath></defs><path fill="#00247d" d="M-15-11.25h30v22.5h-30z"/><g clip-path="url(#a)" transform="translate(0 -3.75)"><circle r="20" fill="#00247d"/><path stroke-width="3" stroke="#fff" d="M-20-10l40 20m-40 0l40-20"/><path stroke-width="2" stroke="#cf142b" d="M-20-10l40 20m-40 0l40-20"/><path fill="#fff" d="M0 0l20 10h-3L-3 0m3 0l20-10h3L3 0M0 0l-20 10h-3L-3 0m3 0l-20-10h3L3 0"/><path stroke-width="5" stroke="#fff" d="M-20 0h40M0-10v20"/><path stroke-width="3" stroke="#cf142b" d="M-20 0h40M0-10v20"/></g><path d="M4.216 3.3c-.43.363-.84.895-.94 1.375-.283 1.352-.66 1.653-1.24 1.362 0 .726.637.782.916.358 0 .68.247 1.27.804 1.775.235.212.28.067.168-.167-.112-.235-.112-.994-.335-1.43.354.257.88.112.834-.592-.458.27-.913.26-.96-.38-.056-.745.236-1.83.75-2.3zm-.543-5.38c.03-.268-.027-.544-.223-.716-.38-.334-.75-.223-1.026.045-.413-.226-.633.566-1.102.432.078.257.2.368.436.28-.246.222 0 .49-.29.76.524.166.804-.124.78-.627.202.18.515.168.682-.033-.28-.09-.28-.333-.167-.56.167-.334.954-.32.91.416z" stroke="#000" stroke-width=".03" fill="#f7e017"/><path d="M4.885 1.805c-.592.312-1.676.178-1.776-.592-.1-.77.645-1.117.846-1.217.313-.157.558.122.458.446a.507.507 0 0 0 .256-.76c.46.034.884-.312 1.06-.803-.16.15-.596.05-.957.023.112-.123.11-.36.077-.484-.38.39-.926.212-1.652 1.34.112-.39.324-1.173.447-1.686a1.27 1.27 0 0 0 .028-.155c.044-.738-.742-.75-.91-.416.184.207.088.45.022.815-.078.435-.246 1.44-.39 1.775-.045-.525-.392-.558-.46-.815-.1.07-.155.248-.133.37-.123-.134-.547.034-.703-.167-.17.335.1.67.38.815-.166.01-.205.207-.38.207.24.28.482.39.77.413s.494.128.67.475c.28.558 1.34.92 2.343.413z" stroke="#000" stroke-width=".03" fill="#337321"/><path d="M6.36 1.123C6.023 2.05 5.107 2.71 4.693 2.81c-.703.17-2.137.867-2.522 1.225a.45.45 0 0 1-.156-.064c-.19-.13-.346-.57-.01-.935 1.05-.983 2.177-.558 2.88-1.228-.592.312-1.675.178-1.775-.592A2.727 2.727 0 0 0 5.81.41c.123.133.48.557.548.713z" stroke="#000" stroke-width=".03" fill="#f7e017"/><path d="M4.216 3.3c-.53.45-.806 1.553-.75 2.302.015.208.074.35.162.435.04-.424.335-1.52 1.09-2.01.635-.413 1.63-1.34 1.998-2.4-.067-.19-.18-.325-.39-.46C5.96 2.17 4.98 2.65 4.216 3.297z" stroke="#000" stroke-width=".03" fill="#337321"/><path d="M6.02.694c-.19.284-.62.675-1.034.832a.542.542 0 0 0 .122-.336c-.525.202-1.574.18-2 .023A2.727 2.727 0 0 0 5.813.41c.09.1.167.19.207.284z" stroke="#000" stroke-width=".03" fill="#316d3a"/><path d="M2.003 3.033c-.853.8-.29 1.497.045 1.653-.09.558.436.49.424.96.213-.123.27-.446.235-.703.268.29.95-.034 1.094.502.09-.592-.365-1.184-.935-1.128.235-.212.1-.558-.122-.647-.044.435-.535.435-.725.3-.19-.133-.347-.57-.012-.937z" stroke="#000" stroke-width=".03" fill="#337321"/><path d="M3.852 8.114c-.093.053-.086.173-.028.25.117.157-.082.51.296.587.112.026.198-.043.24-.17.118-.352-.257-.39-.29-.56-.034-.166-.14-.15-.218-.104z" stroke="#000" stroke-width=".03" fill="#f7e017"/><path d="M4.17 8.773c-.125.058-.235.14-.184.54.02.168.01.57-.134.577.09.044.28.092.357-.012.072.126.243.09.31-.067.09.076.212-.05.212-.153.078.05.234-.022.195-.262.094.033.217-.034.262-.095-.14-.03-.493-.22-.577-.37-.083-.15-.3-.223-.446-.156z" stroke="#000" stroke-width=".03" fill="#f7e017"/><path d="M2.235-2.52c.057-.085.12-.163.19-.23M4.36-1.044c.1-.056.25-.063.415-.052M4.21 9.878c-.04-.055-.053-.29-.026-.432m.338.366a.66.66 0 0 1-.198-.352m.41.196c-.08-.036-.268-.282-.31-.44m.506.178c-.093-.02-.375-.204-.492-.4" stroke-width=".03" stroke="#000" fill="none"/><path d="M10.078 3.044c1.374 1.15 1.463 2.066 1.25 2.602-.11-.502-.68-1.284-1.272-1.485l.022-1.114z" stroke="#000" stroke-width=".03" fill="#f7e017"/><path d="M7.62 2.397h2.548v3.015c0 2.568-1.43 4.087-2.882 4.89-1.452-.802-2.88-2.322-2.88-4.89V2.397H6.19c.003.156.017.39.2.625.422-.042.9-.357 1.23-.625z" stroke="#000" stroke-width=".03" fill="#337321"/><path d="M10.167 2.397v3.015c0 .775-.13 1.455-.352 2.048L7.287 2.82l-2.53 4.64a5.803 5.803 0 0 1-.35-2.048V2.397h5.762z" stroke="#000" stroke-width=".03" fill="#006ec7"/><path d="M9.893 7.237a5.538 5.538 0 0 1-.19.496L7.288 3.24 4.87 7.733a5.538 5.538 0 0 1-.19-.496l2.607-4.832 2.607 4.832z" fill="#f7e017"/><g stroke="#000" stroke-width=".03" fill="#f7e017"><path d="M8.436 8.89c.067.034.19.096.246.118.134-.268.157-.647.112-.983-.145.37-.637.358-.77.58.082.042.158.096.224.144-.167.164-.56.45-.783.513V6.87c0-.168-.056-.307-.056-.447v-.495c0-.112-.025-.274-.126-.274s-.122.162-.122.274v.495c0 .14-.056.3-.056.447v2.395c-.123-.357-.604-.235-.827-.592a.634.634 0 0 1 .27-.01c-.17-.57-.627-.615-.716-.783 0 .235-.1.782.055 1.017a.622.622 0 0 1 .15-.124c.19.413 1.044.414 1.245 1.095.162-.25.743-.54 1.15-.978z"/><path d="M7.286 6.897c.19 0 .793-.062 1.01-.062.057 0 .104-.084.104-.19s-.047-.19-.103-.19c-.218 0-.82-.06-1.01-.06s-.794.06-1.012.06c-.056 0-.102.086-.102.19s.046.19.102.19c.218 0 .82.062 1.01.062zm-.122-.98a.24.24 0 0 0-.15-.054c-.128 0-.23.094-.23.21 0 .115.102.21.23.21.125 0 .227-.095.227-.21 0-.09.13-.09.13 0 0 .18-.16.327-.355.327s-.36-.146-.36-.327c0-.18.16-.328.36-.328.06 0 .115.013.164.036a.937.937 0 0 0-.014.138z"/><path d="M6.276 6.835c.057 0 .103-.084.103-.19s-.05-.19-.106-.19"/><path d="M6.36 6.835c.057 0 .103-.084.103-.19s-.046-.19-.103-.19m.55.42c.07 0 .125-.103.125-.23s-.055-.228-.124-.228m.13.468c.07 0 .13-.107.13-.24 0-.13-.06-.238-.13-.238m.43.48c.07 0 .13-.108.13-.24 0-.135-.06-.243-.13-.243m.136.476c.07 0 .13-.105.13-.234 0-.13-.06-.234-.13-.234m.6.428c.056 0 .103-.087.103-.194s-.048-.193-.105-.193M6.04 8.773a.85.85 0 0 1 .24-.1m2.034.122l-.066-.047m.188.142c.156-.167.287-.357.358-.574"/></g><g stroke="#000" stroke-width=".03"><path d="M6.775 4.528c0-.054.044-.078.097-.117.062-.044.088-.07.145-.07h.733c.054 0 .067.017.067.067v.997c0 .05-.013.064-.067.064h-.975V4.52" fill="#fff"/><path d="M7.57 5.553c.095 0 .078-.002.145-.07.07-.07.064-.064.064-.13v-.91c0-.047-.014-.06-.065-.06H7.04c-.053 0-.076.02-.134.065-.05.037-.09.06-.09.11v.995h.754z" fill="#e5e5e5"/><path d="M7.64 5.532c0 .05-.012.064-.067.064H6.84c-.054 0-.066-.014-.066-.064v-.997c0-.05.012-.064.066-.064h.733c.055 0 .067.017.067.067v.997z" fill="#fff"/></g><path d="M9.062 1.813a.56.56 0 0 1 .112.583h-.212c.09-.268.033-.524-.347-.558-.567-.05-1.228 1.05-2.222 1.184-.29-.346-.275-1.006.094-1.318-.19-.55-.593-1.154-.872-1.415a2.718 2.718 0 0 0-.53-.04c.146-.31.56-.64.895-.775.055-.08.113-.156.167-.224.034-.43 2.077-.23 2.513.04 0 .48.19 2.085.402 2.52z" stroke="#000" stroke-width=".03" fill="#96877d"/><path d="M6.584 2.106C6.534 1.36 6.234.748 5.812.33c.2.055.614.055.893-.146.37-.245 1.33-.675 1.68-.49a.548.548 0 0 1 .023.29c-.084-.224-1.01.122-1.273.23-.25.116-.363.272-.274.624C6.72.715 6.77.598 6.62.508c.06.145.11.408.128.62-.06-.148-.16-.474-.378-.663.19.368.355 1.253.277 1.722.15 0 .483-.148.616-.254-.117.168-.455.285-.672.33-.095.117-.162.418-.16.586-.013-.21.05-.71.156-.746zm2.478-.293c-.185-.206-.53-.318-.972-.198.067-.034.213-.09.34-.112-.016-.117-.122-.62-.14-.742l.124-.05c.062.3.14.65.19.79.04.01.13.028.207.067-.03-.118-.22-.96-.215-1.05l.168-.09c.068.458.174 1.123.3 1.388z"/><path d="M8.962 2.396c.09-.268.033-.524-.346-.558-.295-.026-.614.26-.992.558h1.338zM6.494-.01a2.233 2.233 0 0 1-.732-.073.798.798 0 0 1 .056-.158c-.118.076-.34.23-.425.334.27.056.822.084 1.1-.106z" stroke-width=".03" stroke="#000" fill="#96877d"/><path d="M6.487 1.704c.062.178.102.35.108.503M5.98-.523c-.1.147-.19.306-.218.44.19.062.564.095.732.073" stroke="#000" stroke-width=".03" fill="none"/><path d="M5.615.29c.072.01.14.025.197.04.2.056.614.056.894-.145S7.744-.64 8.604-.708" stroke="#000" stroke-width=".03" fill="none"/><path d="M5.393.096c.268.056.82.084 1.1-.106.648-.44 1.273-.698 1.898-.732" stroke="#000" stroke-width=".03" fill="none"/><path d="M10.078 3.044c.938.648 1.63 1.273 1.832 2.28.2 1.004.58 1.272 1.05 1.004-.112.58-.693.647-1.184.2.045.67-.224 1.475-.916 1.765-.045-.402.22-.72.145-1.05-.033-.145-.044-.48.145-.636-.368.123-.95-.112-1.005-.66.425.202.972.236 1.184-.3s.12-1.452-1.25-2.603zm1.184-5.226c.29-.76 1.05-.68 1.306-.357.75-.422.85.54 1.486.35-.012.177-.224.345-.458.334.245.223-.1.558.424.76-.447.223-1.072-.012-1.24-.626-.145.29-.67.29-.882.056.458-.123.425-.548.168-.715-.26-.17-.715-.1-.804.2zM8.997-.51A4.07 4.07 0 0 0 10.1 1.213c.537.49 1.346.368 1.8-.1.01.935-.96 1.007-1.498.714-.237-.13-.43-.06-.2.145.345.313 1.103.545 1.998.737 1.564.332 1.005 1.572.547 1.56.132-.002.24-.14.05-.31-1.356-1.22-4.115-.74-4.07-3.464-.29.715-1.485.436-.927-.413.18.145.492.156.58-.067.07-.174.025-.476-.288-.736.05-.003.162 0 .15-.127.015.075.083.187.26.15.05.08.102.13.173.103.014-.006.056-.027.04-.107.013.146.19.2.282.19z" stroke="#000" stroke-width=".03" fill="#337321"/><path d="M10.402 1.827c.648.424 1.38.424 2.055-.357.212-.246.547-.458.782-.48.23-.023.22-.246.4-.29-.11-.034-.157-.168-.325-.152.42-.145.296-.48.503-.642-.17.062-.43-.19-.67.13.06-.147-.024-.32-.085-.387.022.165-.33.2-.397.623-.038.238-.168.223-.19-.145-.017-.27-.146-1.018-.3-1.397-.158-.38-.194-.9.02-.98a.42.42 0 0 0-.134-.136c-.258-.17-.714-.1-.804.2-.29.76.525 1.196.458 2.022-.123-.615-1.117-.77-1.105-1.374-.323.145-.28.413-.156.625-.2-.313-.66.2-1.05-.223-.044.558.447.77.85.792-.202.357.066.66.334.76.01-.627 1.294-.37 1.307.702.01.916-.973.994-1.498.704zm1.798.883c1.564.334 1.006 1.574.548 1.563-.292-.007-.57-.252-.587-.464-.332.176-.242.53.015.67-.704-.086-1 .38-1.017.885.13-.234.52-.25.665-.2.146.05.52.077.67-.09-.122.106.08.352-.094.54.585-.02.842-.57.742-.81.76-.69.614-1.82-.94-2.098zm-1.19 5.305c.1.064.088.197.02.282-.138.17.07.574-.357.642-.125.02-.218-.06-.26-.207-.116-.398.304-.425.348-.61.048-.186.166-.163.25-.11z" stroke="#000" stroke-width=".03" fill="#f7e017"/><path d="M10.626 8.736c.138.07.256.166.182.613-.03.182-.037.632.125.645-.102.046-.316.09-.398-.028-.09.136-.28.088-.347-.09-.103.077-.234-.065-.23-.184-.09.053-.26-.035-.206-.3-.108.032-.242-.048-.29-.118.158-.025.56-.222.66-.387.1-.164.345-.236.504-.155z" stroke="#000" stroke-width=".03" fill="#f7e017"/><path d="M10.534 9.97c.046-.06.072-.323.047-.483m-.39.395a.738.738 0 0 0 .237-.384m-.467.2c.087-.038.31-.304.364-.48m-.572.177c.105-.017.428-.21.567-.424" stroke-width=".03" stroke="#000" fill="none"/><path d="M8.727.498c-.02 1.145.457 1.724 1.116 2.1-.245-.146-.14-.65-.47-.81.08-.006.202.106.398.06-.092-.21-.25-.535-.61-.58.094-.01.3.023.434-.027-.19-.29-.693-.15-.866-.74zM8.607-.59c-.04-.014-.074-.054-.107-.107-.176.038-.244-.074-.258-.15.01.13-.1.124-.152.128.315.26.36.566.29.74-.09.223-.402.21-.58.067-.023.474.59.63.814.033 0 .1.13.09.162.223.16-.257.04-.626-.168-.932z" stroke="#000" stroke-width=".03" fill="#f7e017"/><path d="M7.628-2.858a1.342 1.342 0 0 1-.397-.932c.014-.246.115-.514.47-.402-.11 0-.03.223-.15.245.096.034.225-.044.24-.095.024.08.17.056.18.146.056-.045-.005-.263-.09-.307.06-.034.096-.207.068-.29-.056.01-.14.088-.157.2.028-.09-.005-.313-.16-.346a.295.295 0 0 0 .004.3c-.145-.035-.357.06-.408.183.012-.147.032-.357.123-.49.03-.045-.045-.123-.104-.017-.11-.212-.4-.324-.528-.218s-.3-.05-.407.118c-.105.167-.465.185-.446.362.01.107-.014.27-.067.33-.128.145.06.25.095.38-.02-.425.655-1.25 1.33-.927-.06.107-.114.32-.133.576-.03.38.027.916.395 1.228l.146-.038z" stroke="#000" stroke-width=".03" fill="#337321"/><path d="M7.828-4.187c-.004-.1.17-.23.405-.23.282.004.5.26.725.236s.115.1.067.13c-.047.034-.075.085-.058.146s-.012.102-.103.045c-.2-.125-.403.05-.668-.047-.23-.084-.363-.13-.368-.282z" stroke="#000" stroke-width=".03" fill="#cf142b"/><path d="M6.678-1.55c-.112-.353-.536-.738-.743-.828l-.01-.19c.11-.044.38-.256.502-.374.837.402 1.976-.167 2.5-.76l.202.124-.1.134-.11-.056c-.13.156-.608.608-.754.702.195.05.46.084.535.08.47-.335.838-.637 1.017-.66l.15.202-.133.095-.106-.065c-.502.414-1.07 1.318-1.295 1.92-.312-.066-1.43-.02-1.658-.33z" stroke="#000" stroke-width=".03" fill="#96877d"/><path d="M8.17-2.798a.824.824 0 0 1-.175-.06c-.09.084-.312.156-.597.168" stroke="#000" stroke-width=".03" fill="none"/><path d="M6.722-1.674c-.075-.416.045-.877.257-1.016.46.307 1.254.307 1.723-.028" stroke="#000" stroke-width=".03" fill="none"/><path d="M6.722-1.892c.358-.01 1.134.05 1.324.078.19.028.508.106.463.2M6.884-1.95l.103-.104-.104-.102-.102.102.102.103z" stroke="#000" stroke-width=".03" fill="none"/><path d="M7.13-4.03c-.128-.18-.482-.236-.558.005-.034.106-.084.218-.168.268-.083.05-.064.203-.027.268.09.165.01.32.184.428 0-.13.19-.263.355-.296.162-.033.407-.18.44-.34.034-.162.09-.296-.223-.33z" stroke="#000" stroke-width=".03" fill="#337321"/><path d="M6.325-2.422h.045v.305c.01.003.02.008.027.014l.263-.152.023.04-.264.152a.08.08 0 0 1 0 .03l.26.153-.022.038-.265-.152a.078.078 0 0 1-.026.016v.304H6.32v-.305a.078.078 0 0 1-.026-.01l-.263.15-.022-.038.265-.153a.08.08 0 0 1 0-.03l-.264-.153.023-.04.265.154a.078.078 0 0 1 .024-.016v-.304z" stroke="#000" stroke-width=".03" fill="#96877d"/><path d="M6.724-1.675a.528.528 0 0 1-.905-.373.53.53 0 0 1 .95-.32 1.144 1.144 0 0 0-.064.283.362.362 0 1 0-.36.398.37.37 0 0 0 .353-.27c0 .066.002.226.023.282z" stroke="#000" stroke-width=".03" fill="#96877d"/><path d="M6.125-1.17c-.033-.04-.095-.147-.09-.225a.29.29 0 0 1 .19.073c-.005-.056-.027-.18-.016-.235.06.023.19.095.23.18a.81.81 0 0 1-.01-.29c.067.038.18.144.2.216.007-.114.046-.3.08-.34.05.05.13.092.18.16.01-.09.055-.197.122-.225.05.056.128.185.145.33.05-.017.117-.1.145-.145a.313.313 0 0 1 .04.218c.06-.056.133-.135.15-.2a.435.435 0 0 1 .15.205c-.01-.073-.005-.2-.027-.274.084.044.15.122.168.206.022-.078.072-.218.117-.25.046.088.09.194.086.283.027-.055.072-.156.117-.178.04.06.033.195.022.268a.54.54 0 0 1 .157-.143.5.5 0 0 1 0 .15c.05-.028.135-.178.162-.257.08.04.157.173.162.24a.61.61 0 0 0 .2-.18c0 .04.018.146-.004.23.033-.034.067-.1.084-.13.022.057.005.19-.017.264a.292.292 0 0 1 .165-.073c.006.098-.06.266-.123.39-.535-.15-1.657-.208-2.785-.27z" stroke="#000" stroke-width=".03" fill="#337321"/><path d="M7.994-4.13c-.002-.04.09-.134.254-.133.197 0 .38.146.538.136s.08.04.047.054c-.033.014-.053.035-.04.06s-.01.04-.073.018c-.14-.05-.282.02-.468-.02-.16-.034-.254-.053-.258-.115z" fill="#f7e017"/><g stroke="#000" stroke-width=".03"><path d="M6.298-.836c-.167.2-.335.167-.368.04-.034-.13.09-.19.044-.303-.044-.11.073-.16.13-.11.055.05.233-.11.312.057.078.168.14.285.094.352-.044.066-.178.033-.212-.034zm.72-.302c-.032-.073.142-.215.23-.114.09.1.23-.11.31.05.077.16.102.243.14.332.04.09-.21.137-.29.06.01.052-.216.093-.28-.057l-.11-.27zm1.162.092c-.042-.078.162-.19.268-.047.028-.06.23-.07.243.1.017.17.02.27.028.338s-.122.128-.215-.042c-.163.034-.24-.058-.26-.156s-.037-.145-.06-.193z" fill="#f7e017"/><path d="M6.406-1.157c-.025-.056.143-.168.257-.084.115.08.273-.076.34.075.137.304.146.327.104.385-.042.06-.22.037-.265-.043-.01.055-.163.046-.243.002-.095-.05-.16-.24-.196-.34zm1.176.013c-.04-.086.223-.16.337-.01.056-.054.184-.057.26.108.07.165.08.257.03.3-.04.03-.175.052-.22-.023-.06.04-.25.008-.293-.1-.043-.104-.08-.2-.118-.272zm1.11.165c-.004-.075.138-.11.19 0s.224.015.24.204c0 .036-.02.176-.074.243s-.313 0-.33-.142a3.47 3.47 0 0 1-.025-.302z" fill="#337321"/><path d="M6.298-.836c-.06-.084-.145-.218-.25-.073m.795.09a.64.64 0 0 1-.1-.188m.665.2A.46.46 0 0 1 7.28-.95m.08-.15c.097.01.164.102.195.144.03.043.095.118.145.126m.293.064c-.034-.053-.067-.1-.075-.14m.002-.245a.735.735 0 0 1 .078.13m.503.327a.473.473 0 0 0-.17-.195m.15-.114c.007.165.228.176.236.293m.17-.27a.325.325 0 0 1 .033.155" fill="none"/></g></svg>