<svg xmlns="http://www.w3.org/2000/svg" viewBox="0 0 640 480"><defs><clipPath id="a"><path fill-opacity=".67" d="M-85.333 0h682.67v512h-682.67z"/></clipPath></defs><g clip-path="url(#a)" fill-rule="evenodd" transform="translate(80) scale(.9375)"><path fill="#199d00" d="M-128 0h768v512h-768z"/><path d="M65.54 145.13c-.887 11.96-1.95 33.01 8.213 35.17 12.293 1.182 5.514-20.806 9.964-24.793.84-1.97 2.392-1.98 2.52.505v18.65c-.112 6.066 3.875 7.852 6.972 9.105 3.22-.25 5.373-.14 6.636 2.995l1.512 32.26s7.475 2.14 7.83-18.145c.358-11.91-2.38-21.88-.774-24.198.056-2.28 2.964-2.416 4.98-1.306 3.214 2.266 4.645 5.065 9.64 3.946 7.597-2.093 12.165-5.79 12.277-11.623-.443-5.545-1.065-11.09-3.467-16.635.335-1.01-1.467-3.62-1.133-4.63 1.366 2.14 3.444 1.96 3.916 0-1.294-4.26-3.3-8.344-6.554-10.112-2.688-2.367-6.623-1.883-8.064 3.057-.667 5.692 2.052 12.455 6.197 17.968.88 2.154 2.116 5.733 1.572 8.956-2.206 1.26-4.41.737-6.26-1.214 0 0-6.048-4.536-6.048-5.544 1.604-10.275.355-11.44-.534-14.292-.623-3.937-2.49-5.2-4.004-7.888-1.514-1.605-3.56-1.605-4.54 0-2.673 4.634-1.426 14.582.505 19.04 1.397 4.097 3.53 6.67 2.52 6.67-.83 2.315-2.543 1.78-3.79-.893-1.783-5.526-2.14-13.77-2.14-17.48-.534-4.604-1.12-14.42-4.15-16.915-1.85-2.516-4.588-1.29-5.545 1.008-.2 4.57-.22 9.137.294 13.347 2.076 7.383 2.73 13.876 3.737 21.437.28 10.128-5.856 4.394-5.576-.627 1.416-6.522 1.05-16.788-.21-19.39-.995-2.602-2.172-3.244-4.596-2.816-1.925-.116-6.88 5.29-8.27 14.263 0 0-1.185 4.618-1.69 8.718-.68 4.634-3.73 7.904-5.87-.65-1.85-6.218-2.984-21.525-6.08-17.94z" fill="#fff"/><path d="M98.944 194.21c-10.848 5.303-21.34 10.25-32.01 15.375.39-7.256 15.22-20.354 25.33-20.538 6.583.184 4.93 2.55 6.68 5.164z" fill="#fff"/><path d="M93.352 204.24c-16.87 43.487 39.505 49.546 45.805 1.78.593-1.96 2.97-3.92 3.386-.712-1.307 43.248-43.606 46.22-50.794 32.614-1.784-3.207-2.32-10.336-2.498-14.614-1.07-8.494-5.524-5.227-6.237 3.208-.714 4.693-.535 6.002-.535 10.516 2.258 34.16 56.737 19.486 65.588-8.733 4.692-15.628-.774-27.15 1.78-27.09 5.407 5.82 12.95.77 14.614-1.25.714-1.01 2.497-1.66 3.744-.357 4.217 3.032 11.645 1.603 13.19-3.743.89-5.227 1.604-10.633 1.782-16.216-3.447 1.07-6 1.78-6.238 3.208l-.713 4.633c-.297 1.486-3.27 1.544-3.387-.357-1.307-5.942-6.713-6.714-9.98 2.495-2.2 1.782-6.18 2.14-6.596-.534.534-6.18-1.96-7.01-6.95-4.1-1.605-12.24-3.208-23.94-4.813-36.18 2.08-.06 3.984 1.484 5.886-.89-2.082-6.476-6.477-19.725-8.914-20.676-1.187-1.425-2.2-.534-3.74-.178-2.615.832-5.05 3.09-4.28 7.486 3.09 18.772 5.11 33.09 8.2 51.863.474 2.198-1.367 5.107-3.743 4.81-4.04-2.732-5.048-8.256-11.94-8.02-4.99.06-10.697 5.466-11.408 10.696-.832 4.157-1.13 8.67-.002 12.297 3.508 4.216 7.726 3.802 11.41 2.85 3.03-1.246 5.523-4.276 6.593-3.564.715.892.178 10.87-14.26 18.535-8.73 3.92-15.682 4.813-19.423-2.317-2.318-4.455.177-21.386-5.528-17.464z" fill="#fff"/><path d="M164.91 160.03c3.386-1.248 19.43-19.604 19.43-19.604-.834-.713-1.577-1.248-2.41-1.96-.89-.773-.8-1.545 0-2.318 3.98-2.316 2.704-7.396.625-9.712-3.446-1.546-6.446-1.04-8.645.088-2.792 2.674-3.444 6.95-1.245 9.624 2.14 1.01 4.277 3.18 2.85 4.367-6.563 7.01-24.535 19.1-22.455 19.515.444.594 11.495.564 11.85 0zM68.036 225c-6.016 9.584-6.54 23.903-3.22 28.172 1.764 2.017 4.662 2.9 6.806 2.27 3.78-1.64 5.434-9.3 4.537-12.1-1.265-1.975-2.258-2.288-3.518-.608-2.66 5.4-3.764 1.695-3.997-1.323-.408-5.72.13-10.99.752-15.165.66-4.278-.01-2.97-1.364-1.243zm257.084-15.35c-5.817-12.52-13.87-24.894-16.432-29.647-2.562-4.755-21.905-32.827-24.752-35.984-6.284-7.47 10.204 3.11-2.086-11.72-4.686-4.02-4.958-4.264-8.847-7.544-1.962-1.392-6.752-3.935-7.6.28-.427 3.717-.197 5.732.427 8.827.48 2.063 3.485 5.518 4.963 7.52 19.625 26.38 37.027 53.02 53.808 86.515 2.65-1.26 2.07-16.156.52-18.25z" fill="#fff"/><path d="M299.59 251.54c-1.144 1.284 2.824 6.776 7.98 6.77 8.624-1 16.215-5.844 23.244-18.595 1.88-2.974 5.184-9.334 5.28-14.267.658-28.925-1.447-51.433-5.78-72.34-.28-2.036-.11-4.43.235-5.04.556-.667 2.45.003 3.454-1.644 1.474-1.505-3.914-13.97-6.986-18.77-1.09-2.145-1.47-3.577-3.277.25-1.9 3.11-3.173 8.54-3.024 13.61 4.113 28.484 5.377 53.4 8.065 81.883.22 2.754-.185 6.757-2.016 8.353-6.772 7.072-16.548 15.777-27.178 19.79zm116.49-.15c-6.19 3.577-6.196 7.692-1.192 7.84 8.623-1 18.813-1.716 25.84-12.328 1.88-2.974 4.115-11.015 4.212-15.948.657-28.925-.378-50.515-4.712-71.42-.277-2.037-1.178-6.724-.834-7.335.56-1.435 3.37.153 4.375-1.495 1.47-1.504-7.28-12.747-10.35-17.548-1.09-2.144-1.47-3.576-3.278.25-1.9 3.112-2.563 8.693-1.803 13.612 4.573 30.927 7.977 54.162 8.68 81.574-.395 2.602-.493 4.005-1.713 7.283-2.7 3.46-5.69 7.785-8.493 9.876-2.803 2.09-8.785 4.086-10.735 5.635z" fill="#fff"/><path d="M420.72 223.66c-.07-7.233.102-13.48-.136-18.873-.238-5.395-1.19-9.788-3.058-13.617-1.767-4.106-.67-7.405-1.5-11.78-.83-4.37-.625-10.92-1.878-16.107-.343-2.026-1.396-8.515-1.07-9.137.51-1.448 2.456.045 3.406-1.633 1.423-1.552-4.937-18.008-8.163-22.707-1.16-2.107-3.264-1.385-5.86 2.04-2.41 2.255-1.517 7.396-.597 12.286 6.19 32.29 10.804 61.518 9.797 92.257-.31 2.61 9.126-7.798 9.062-12.73zM375 183.61c-3.892-.07-12.044-7.574-14.423-11.97-.9-2.52-.322-4.98.47-6.422 1.44-.937 3.66-1.99 5.316-.98 0 0 1.72 2.404 1.386 2.71 2.122 1.018 3.024.432 3.24-.432.145-1.514-.628-2.416-.637-4.083.9-4.52 6.068-5.223 8.014-2.34 1.423 1.757 1.945 5.492 2.16 8.013-.022 1.288-2.108-.223-3.292.087-1.186.31-1.47 1.678-1.563 2.915-.215 3.278-.603 8.538-.675 12.5zm-71.83 48.07c1.072-9.828-.396-27.33-.494-33.13-.394-13.7-2.63-40.162-3.696-44.583-1.2-8.333 3.427.914 2.786-3.93-1.5-8.32-6.116-13.962-11.542-21.584-1.75-2.48-1.69-2.985-4.39.608-2.99 6.78-.41 11.448.362 16.73 3.913 17.205 6.196 33.036 7.26 48.686 1.062 15.65 1.39 32.572.418 49.055 2.932.115 7.647-4.744 9.296-11.85z" fill="#fff"/><path d="M433.97 215.94c-6.863-11.515-17.22-23.987-19.986-28.624-2.766-4.638-26.166-34.83-29.148-37.86-8.56-8.993 3.926-1.464-1.64-8.41-4.706-5.168-6.08-6.79-10.107-9.898-2.02-1.305-3.247-3.798-3.91.45-.265 3.732-.54 8.05-.29 11.195-.014 1.75 1.807 5.034 3.37 6.97 20.755 25.5 43.393 51.537 61.617 84.27 2.592-1.375 1.73-16.067.09-18.093z" fill="#fff"/><path d="M122.59 194.69c-.494.866-1.594 1.988-1.225 3.15.77 1.043 1.386 1.255 2.67 1.312 1.114 0 2.67.263 3.005-.394.6-.66 1.055-2.01.556-3.28-1.16-2.9-4.4-1.82-5.006-.788z" fill="#1ba400"/><path d="M354.17 362.54c9.178.338 15.185.42 23.348 1.39 0 0 7.04-.695 9.553-1.075 10.63-1.014 11.1 15.176 11.1 15.176-.117 9.498-3.78 9.995-8.46 10.998-2.674.34-4.08-1.6-5.484-3.668-1.763.737-4.16.843-7.064.44-3.824-.24-7.65-.224-11.473-.463-4.064-.358-6.225.423-10.29.065-.837 1.316-1.925 3.137-4.41 2.55-2.07-.228-4.517-6.032-3.796-10.445 1.493-3.164 1.083-2.146.927-3.537-37.525-.956-75.41-2.63-112.22-2.15-28.8.12-57.244 1.314-85.687 2.51-15.177-.24-26.77-2.63-34.776-14.342.717 0 38.72 2.15 49.835 1.434 20.557-.24 39.32-1.912 60.233-2.51 41.23.717 82.103.718 123.33 3.585-3.944-2.698-4.085-9.07 1.985-10.63.516-.354.782 3.17 1.69 3.104 4.857-.363 2.727 6.215 1.66 7.57zM188.64 135.28c-6.248 17.86 3.58 37.394 10.394 35.492 4.916 2.035 8.046-7.317 10.06-17.563 1.376-2.88 2.416-3.185 3.123-1.707-.18 13.625.98 16.643 4.482 20.78 7.81 6.028 14.275.77 14.782.26l6.084-6.083c1.354-1.424 3.157-1.507 5.07-.252 1.86 1.69 1.598 4.607 5.577 6.63 3.35 1.34 10.51.31 12.17-2.575 2.232-3.826 2.768-5.14 3.802-6.59 1.593-2.122 4.31-1.18 4.31-.51-.254 1.184-1.848 2.368-.76 4.498 1.894 1.42 2.332.51 3.453.19 3.963-1.892 6.94-10.515 6.94-10.515.175-3.208-1.623-2.943-2.79-2.282-1.52.93-1.62 1.227-3.14 2.157-1.94.29-5.7 1.573-7.558-1.305-1.898-3.46-1.924-8.29-3.375-11.78 0-.254-2.518-5.498-.174-5.834 1.183.22 3.707.89 4.108-1.235 1.242-2.072-2.655-7.938-5.322-10.9-2.315-2.543-5.523-2.85-8.62-.254-2.168 1.997-1.856 4.226-2.282 6.34-.552 2.425-.434 5.41 2.03 8.62 2.163 4.266 6.112 9.762 4.815 17.49 0 0-2.305 3.653-6.324 3.175-1.676-.365-4.392-1.076-5.843-11.794-1.1-8.11.26-19.462-3.184-24.783-1.246-3.213-2.154-6.316-5.185-.82-.814 2.158-4.31 5.433-1.774 12.17 2.075 4.27 2.92 11.22 1.978 18.953-1.44 2.195-1.758 2.94-3.64 5.137-2.648 2.845-5.52 2.12-7.72 1.056-2.054-1.385-3.663-2.1-4.6-6.5.17-7.014.56-18.495-.723-20.93-1.89-3.772-5.006-2.408-6.338-1.268-6.398 5.85-9.558 15.718-11.49 23.577-1.774 5.727-3.66 4.086-4.99 1.775-3.23-3.028-3.45-26.71-7.35-22.816z" fill="#fff"/><path d="M207.45 174.1c2.837-2.01 1.51-3.414 5.754.828 5.312 9.082 8.727 20.845 9.24 31.266-.225 2.568 1.585 4.193 2.413 3.635.492-6.03 15.153-14.43 28.596-15.66 2.056-.447 1.056-4.387 1.39-6.396-.805-7.463 4.195-14.258 11.203-14.8 9.538 1.41 12.713 6.502 12.874 14.275-1.03 14.922-16.575 17.452-25.31 18.642-1.34.507-1.897 1.125 0 1.856l36.596.164 1.867 1.078c.224.873-.533.145-1.978 2.524-1.444 2.38-3.575 7.865-3.685 11.528-10.903 3.506-22.18 5.042-33.642 6.428-3.982 2.014-5.956 4.697-5.138 7.717 1.34 3.35 10.16 6.695 10.16 6.854 1.675 1.05 3.657 3.503-.474 8.526-17.85-.786-31.683-8.383-36.472-19.105-1.443-1.12-2.997-.005-3.993 1.444-6.966 8.983-13.823 17.073-25.705 21.368-7.086 1.77-14.34-1.087-17.765-5.727-2.294-2.64-2.207-5.557-3.05-6.19-3.83 1.695-36.784 15.698-32.607 9.175 8.02-8.585 21.906-14.89 34.17-23.363.884-2.84 2.493-12.442 7.336-15.57.28.023-.77 5.64-.664 8.008.055 1.945-.143 2.707.283 2.207.825-.528 15.705-12.22 16.855-15.805 1.45-2.056.435-7.263.435-7.42-2.79-7.193-6.703-7.804-8.154-11.377-1.306-4.747-.715-10.165 1.998-11.675 2.41-2.187 5.263-1.917 7.895.473 3.004 2.692 5.673 7.953 6.445 11.872-.516 1.55-3.933-1.03-5.118-.26 2.098 2.172 3.077 4.678 3.835 7.744 1.938 8.207 1.347 11.4-.604 16.706-6.607 13.89-15.05 18.035-22.437 23.18-.196.07-.327 3.526 2.45 5.394.96 1.007 4.81 1.523 9.343.07 8.755-4.773 17.843-13.568 22.355-23.366 1.31-7.41-.507-15.27-2.435-22.124-2.903-6.698-6.322-16.262-6.322-16.42-.112-4.177.228-5.626 2.06-7.71zm-95.81-38.63c4.212 2.01 12.13 1.154 11.796-5.638 0-.6-.153-2.632-.213-3.183-.86-2.005-3.205-1.51-3.737.56-.167.674.298 1.78-.315 2.12-.35.352-1.695.143-1.64-1.73 0-.6-.44-1.24-.705-1.62-.266-.177-.435-.225-.917-.225-.588.023-.578.176-.9.67-.137.502-.325.993-.325 1.563-.073.667-.325.905-.816 1.004-.55 0-.425.06-.87-.223-.264-.29-.594-.4-.594-.893 0-.512-.116-1.34-.27-1.676-.233-.307-.608-.45-1.03-.56-2.3.01-2.46 2.634-2.327 3.63-.173.188-.27 4.895 2.867 6.197z" fill="#fff"/><path d="M235.11 187.73c4.212 2.01 14.238.853 11.796-5.638 0-.6-.153-2.633-.213-3.183-.86-2.005-3.205-1.51-3.737.56-.167.674.298 1.78-.315 2.12-.35.352-1.695.143-1.64-1.73 0-.6-.44-1.24-.705-1.62-.266-.177-.435-.225-.917-.225-.588.023-.578.176-.9.67-.137.502-.325.993-.325 1.563-.073.667-.325.905-.816 1.004-.55 0-.425.06-.87-.223-.264-.29-.594-.4-.594-.893 0-.512-.116-1.34-.27-1.676-.233-.307-.608-.45-1.03-.56-2.3.01-2.46 2.634-2.327 3.63-.173.188-.27 4.895 2.867 6.197zm72-21.63c4.212 2.01 12.13 1.154 11.796-5.638 0-.6-.153-2.632-.213-3.183-.86-2.005-3.205-1.51-3.737.56-.167.674.298 1.78-.315 2.12-.35.352-1.695.143-1.64-1.73 0-.6-.44-1.24-.705-1.62-.266-.177-.435-.225-.917-.225-.588.023-.578.176-.9.67-.137.502-.326.993-.326 1.563-.072.667-.324.905-.815 1.004-.55 0-.425.06-.87-.223-.264-.29-.595-.4-.595-.893 0-.512-.116-1.34-.27-1.676-.233-.307-.608-.45-1.03-.56-2.3.01-2.46 2.634-2.327 3.63-.173.188-.27 4.895 2.867 6.197zm37.29 54.33c-7.34 8.273-4.104 21.955-2.446 24.903 2.42 4.842 4.37 7.947 9.078 10.342 4.29 3.157 7.632 1.184 9.474-1.027 4.317-4.473 4.368-15.894 6.394-18.157 1.422-4.154 5-3.444 6.737-1.602 1.683 2.42 3.666 3.98 6.14 5.298 4.025 3.552 8.833 4.2 13.57.964 3.236-1.817 5.34-4.163 7.235-8.82 2.106-5.63.932-31.648.51-47.068-.16-1.21-4.183-21.204-4.183-21.427 0-.224-.535-10.205-.977-12.583-.078-.965-.317-1.242.694-1.12 1.072.903 1.22.96 1.89 1.257 1.08.196 2.05-1.647 1.397-3.34l-10.048-18.535c-.808-.794-1.85-1.666-3.128.224-1.223 1.07-2.524 3.01-2.484 5.502.296 4.393 1.07 8.86 1.365 13.254l4.02 22.552c1.266 16.075 1.583 29.232 2.85 45.31-.18 6.805-2.295 12.74-4.28 13.596 0 0-3.02 1.75-5.045-.183-1.473-.59-7.368-9.824-7.368-9.824-3.014-2.763-5-1.973-7.146 0-5.913 5.71-8.59 16.394-12.61 23.763-1.034 1.645-3.963 3.052-7.21-.12-8.24-11.258-3.41-27.277-4.435-23.158zM309 126.67c3.773 1.58 6.435 9.223 5.567 12.955-.75 4.617-2.752 9.603-4.19 8.954-1.565-.58 1.065-4.59-.438-8.8-.838-2.737-5.987-7.74-5.445-9.215-1.063-3.09 2.19-4.442 4.503-3.897z" fill="#fff"/><path d="M356.55 224.96c.794-9.18-.546-14.776-.784-20.17s-6.102-46.56-7.29-50.642c-1.436-7.718 5.7-1.035 4.92-5.524-2.47-5.66-8.612-13.9-10.54-18.816-1.16-2.106-.674-3.98-3.272-.554-2.41 7.876-3.245 14.314-2.325 19.205 6.184 32.29 12.53 59.14 11.523 89.876 2.934.02 6.316-6.714 7.765-13.377zm64.47-85.28c3.44 1.71 5.455 11.29 5.075 14.026-.684 5-2.51 10.397-3.82 9.694-1.426-.628.285-7.413-.4-9.523-.76-2.964-5.454-8.38-4.96-9.977-.97-3.345 1.995-4.81 4.105-4.22zM165.35 207.6c3.29 1.256 5.22 8.295 4.856 10.307-.656 3.672-2.403 7.64-3.656 7.123-1.364-.462.274-5.448-.38-6.998-.28-3.76-4.846-5.707-4.75-7.33-.853-2.987 1.91-3.536 3.93-3.1z" fill="#fff"/><path d="M244.86 218.17c4.247.27 6.37 3.602 2.39 5-3.923 1.343-7.694 2.393-7.712 8.064 1.452 7.902-1.99 5.19-4.044 4.117-2.42-1.734-9.208-5.92-10.176-14.95-.145-2.152 1.535-3.966 4.24-3.953 4.075 1.107 10.087 1.188 15.3 1.725z" fill="#1b9d00"/><path d="M77.4 124.39c4.854 1.464 5.14 8.6 4.783 10.686-.647 3.808-2.367 7.92-3.602 7.384-1.34-.478-.05-5.647-.695-7.255-.72-2.258-4.822-6.384-4.357-7.6-.913-2.55 1.883-3.665 3.873-3.215zm95.88 33.64c-3.725 2.015-5.17 8.02-2.85 11.518 2.166 3.08 5.587 1.938 6.043 1.938 3.65.457 5.815-6.842 5.815-6.842s.115-2.052-4.22 1.826c-1.823.342-2.05-.343-2.507-1.37-.38-1.9-.3-3.8.57-5.7.65-1.825-.76-2.624-2.85-1.37zm27.94-36.4c-1.872 1.255-5.598 5.115-5.712 9.563-.113 2.51-.58 2.5 1.062 4.098 1.187 1.715 2.384 1.56 4.78.306 1.376-1.014 1.84-1.687 2.305-3.387.57-2.85-3.014 1.35-3.47-1.82-.798-2.947 1.504-4.153 3.67-7.003.072-1.953.03-3.336-2.635-1.755zm22.51 4c-.807 1.782-1.774 11.093-1.613 11.093-.644 2.774 2.903 3.96 4.516.395 2.42-6.537 2.42-9.31 2.58-12.084-.753-4.224-3.6-4.092-5.483.596zm141.92 72.22c.484-.484 19.998-14.353 19.998-14.353 1.99-.7 1.558 7.15.645 7.096.376 1.558-19.245 14.89-20.644 14.353-.97.7-1.938-5.375 0-7.096zm17.79-.12c3.44 1.71 4.81 11.773 4.43 14.51.122 5.322-3.315 9.59-4.627 8.888-1.426-.628.125-6.607-.56-8.717-.76-2.96-3.68-8.54-3.188-10.136-.97-3.345 1.835-5.13 3.945-4.542zm-116.07 43.34c1.357-1.984 5.55-4.84 5.645-4.84 1.934-.967 3.824.76 3.71.646.32 1.936-1.225 3.737-.74 6.318.422 1.04.732 2.195 2.638 1.755 3.1-2.44 5.97-2.598 9.068-2.75 2.377.14 2.47 4.16.97 4.19-5.72 1.243-8.285 2.775-12.37 4.334-1.936 1.13-3.596-.303-3.596-.464s-1.132-1.097-.342-3.66c.14-2.057-.686-3.184-2.4-2.95-1.29.697-2.425 1.16-3.07-.324-.254-1.095-.337-1.628.49-2.257zm136.6 5.42c.836 1.064 1.377 2.05-.067 3.797-1.37 1.254-2.333 1.945-3.7 3.2-.647 1.1-1.06 2.773.916 3.306 3.65 1.026 12.085-4.448 12.085-4.562 1.37-1.023.913-2.962.798-2.962-.798-.912-2.596-.37-3.805-.518-.577 0-2.466-.287-1.567-1.96.75-1.04 1.02-1.676 1.53-2.96.57-1.252.08-2.09-1.973-2.773-2.09-.38-2.927-.19-5.246 0-1.253.266-1.68.827-1.91 2.347.09 2.306 1.493 2.175 2.937 3.087z" fill="#fff"/><path d="M268.117 189.743c-.535.925-2.344.88-4.04-.1s-2.638-2.527-2.103-3.453 2.344-.88 4.04.102 2.638 2.526 2.103 3.45zm-89.072-53.594c-1.014.245-2.34-.66-2.96-2.02s-.3-2.67.712-2.92 2.34.656 2.96 2.02.302 2.67-.712 2.92z" fill="#259f00"/><path d="M355.24 374.97c9.35.456 18.137.106 27.488.563 1.694 1.44.484 4.975-.645 4.722-3.04-.077-4.792-.152-7.833-.23-.104-2.977-7.706-2.49-7.487.096-4.105.497-7.807-.14-11.912-.292-1.21-1.51-1.055-4.232.39-4.856z" fill="#209000"/></g></svg>