<svg xmlns="http://www.w3.org/2000/svg" viewBox="0 0 640 480"><defs><clipPath id="a"><path fill-opacity=".67" d="M0 0h682.67v512H0z"/></clipPath></defs><g fill-rule="evenodd" clip-path="url(#a)" transform="scale(.9375)" stroke-width="1pt"><path d="M0 507.17L987.43 0H0v507.17z" fill="#0000d6"/><path d="M1024 0L27.17 512H1024V0z" fill="#006000"/><path d="M1024 0h-54.858L.002 485.36V512H54.86L1024 27.6V.004z" fill="#fc0"/><path fill="#fff" d="M71.397 9.124l11.857 34.442 38.47-.026L90.58 64.794l11.917 34.426-31.105-21.305-31.106 21.3 11.922-34.42L21.07 43.53l38.47.036zm191.143 0l11.856 34.442 38.47-.026-31.143 21.254L293.64 99.22l-31.106-21.305-31.106 21.3 11.922-34.42-31.138-21.265 38.47.036zm0 144.48l11.856 34.44 38.47-.025-31.143 21.25 11.917 34.43-31.106-21.306-31.106 21.3 11.922-34.42-31.138-21.265 38.47.033zm-95.013-71.398l11.857 34.442 38.47-.026-31.143 21.254 11.92 34.426-31.106-21.305-31.106 21.3 11.922-34.42-31.14-21.267 38.47.036zm-96.13 71.397l11.857 34.442 38.47-.026-31.144 21.25 11.918 34.426-31.105-21.306-31.106 21.3 11.922-34.42-31.14-21.265 38.47.035z"/></g></svg>