<svg xmlns="http://www.w3.org/2000/svg" viewBox="0 0 640 480" version="1"><defs><clipPath id="a"><path fill-opacity=".67" d="M0 0h640v480H0z"/></clipPath></defs><g fill-rule="evenodd" clip-path="url(#a)"><path fill="#fff" d="M-20 0h720v480H-20z"/><path fill="#df0000" d="M-20 0h720v240H-20z"/><path d="M146.05 40.227c-33.243 7.622-57.944 32.237-64.927 65.7-9.488 45.47 20.124 89.99 65.687 99.49-46.03 13.124-93.59-13.333-106.594-58.933-12.996-45.6 13.46-93.16 59.063-106.162 16.005-4.565 30.743-4.594 46.77-.095z" fill="#fff"/><path fill="#fff" d="M132.98 109.953l4.894 15.12-12.932-9.23-12.87 9.316 4.783-15.146-12.833-9.354 15.876-.136 4.932-15.106 5.03 15.07 15.89.024zm17.56 52.06l4.893 15.118-12.932-9.23-12.87 9.32 4.785-15.144-12.833-9.355 15.878-.136 4.93-15.106 5.033 15.07 15.89.024zm58.424-.376l4.894 15.12-12.932-9.23-12.87 9.316 4.783-15.143-12.835-9.355 15.877-.137 4.93-15.106 5.033 15.07 15.888.024zM226.392 110l4.894 15.118-12.932-9.23-12.87 9.317 4.783-15.143-12.833-9.354 15.877-.137 4.934-15.104 5.03 15.07 15.89.024zm-46.256-34.256l4.894 15.118-12.932-9.23-12.87 9.317 4.783-15.145-12.83-9.355 15.875-.135 4.932-15.106 5.032 15.066 15.887.025z"/></g></svg>