<svg xmlns="http://www.w3.org/2000/svg" viewBox="0 0 640 480" version="1"><path d="M640.013 480.02V.03H.003v479.99h640.01z" fill="#006"/><path d="M-.006 73.34h76.034L-.006 26.77V.03h43.503L149.86 64.75V.03h59.892v64.72L316.11.03h43.88v26.738L283.58 73.34h76.41v73.37h-76.41l76.41 46.573v26.746h-43.88L209.75 155.3v64.73h-59.892V155.3l-106.36 64.73H-.007v-26.746l76.034-46.574H-.006V73.34z" fill="#fff"/><path fill="#ce1126" d="M331.685.027L211.525 73.39h28.764L359.98.027h-28.298zm28.313 220.003l-119.822-73.323h28.89l90.932 55.843v17.48zM120.38 73.372L-.01.01v17.52l91.373 55.84h29.016zm-.25 73.314L-.014 220.01h28.748l120.16-73.324H120.13z"/><path fill="#ce1126" d="M-.006 88.56h162.62V.027h35.196V88.56h162.18v42.962H197.81v88.505h-35.195v-88.505H-.005V88.56z"/><path d="M399.67 640.77c-.046 16.332-2.623 33.927-23.764 42.308-21.142-8.38-23.72-25.976-23.765-42.308h47.53z" stroke-width="1.112" fill="#8fc5ff" transform="matrix(4.4862 0 0 4.4867 -1190.9 -2609)" stroke="#fff"/><path d="M375.9 683.08c9.584-3.8 15.353-9.493 18.8-16.104-.516.02-1.597-.01-2.064-.043-.52-.034-20.27-2.018-22.61-2.876-2.035-.746-9.8.634-13.423 1.93 3.38 7.03 9.237 13.105 19.297 17.093z" fill="#366cc9" transform="matrix(4.4862 0 0 4.4867 -1190.9 -2609)" stroke-width="1.102" stroke="#000"/><path d="M361.13 672.95c.323-.105.94-.08 1.183-.036.286.052.338.078.442-.234s.338-.234.52-.078.65.078.83-.182c.183-.26.235-.233.417-.052.182.182.26.13.442.078.182-.05.494-.26.65-.545s.39-.39.52-.23.26.233.44.207.235.156.21.39c-.027.233.077.285.52-.078.39.39.518.232.518-.183 0-.416-.103-1.95-.26-2.157s-.31-.807-.337-1.275c-.05-.883-.052-.935-1.118-1.48 0-.313-.078-.443-.83-.39.025-.105-.105-.417-.26-.547s-.183-.182-.105-.545c.312.026.65-.026.832-.286.18-.26.78-.208 1.143-.052s.832.182 1.533.078c.26-.208.702-.442 1.17-.702.467-.26.597-.362.623-.726.067-.933-.26-2-.52-2.494-.26-.495-.337-1.12-.7-1.9-.397-.85-.39-1.064-.833-1.584-.12-.143-.26-.26-.286-.545-.026-.284-.13-.674-.44-.96-.787-.72-1.093-3.04-1.405-4.756-.18-.983-.055-3.3-.47-3.664-.7-.573-1.04-.47-1.508-.65-.338-.47-.493-1.404-.805-2.236-.495.078-.833.598-1.17.78s-.39.182-.39.65c0 .467-.26 1.117-.728 1.845-.47.725-1.25.52-1.898 1.61-1.43-1.74-1.456-2.236-1.56-2.73-.104-.493-.338-.597-1.143-1.3 0-.207-.105-1.038-.027-1.506-.598-.494-1.04-.416-1.325-.052-.286.364-.494.91-.936 1.117-.265.335-1.064 1.185-1.718 2.197.595 9.044 2.636 18.022 8.773 25.202z" fill="#5d3100" transform="matrix(4.4862 0 0 4.4867 -1190.9 -2609)" stroke-width=".138" stroke="#000"/><path d="M399.67 640.77c.018-6.152-.324-12.125-.168-17.36-7.9-3.534-18.295-4.26-23.596-4.26-5.302 0-15.697.726-23.597 4.26.153 5.235-.188 11.208-.17 17.36h47.53z" stroke-width="1.08" transform="matrix(4.4862 0 0 4.4867 -1190.9 -2609)" stroke="#fff" fill="#ff0"/><path d="M394.613 297.888c1.166 1.867 3.266 5.075 3.5 6.82.816-1.692 1.457-2.445 1.632-3.495s1.4-3.092.933-4.2-.816-1.983.467-1.166c1.278.816 1.032 2.23.753 4.316-.753 5.71-3.144 6.878-3.494 10.728 3.44 8.105.874 11.02 4.602 18.95.584.35 2.14-.274 2.607-.157 1.978-1.4 3.46-.892 6.254-.31 2.8.585 4.315 2.563 4.315 4.313s0 2.216.584 3.266 1.75 2.683 1.516 3.85c-.233 1.16.233 1.86.583 2.445s-.116 1.867-.466 2.683-.237 1.867 1.163 3.616c1.4 1.746 4.66 9.095 4.66 13.407 0 4.317.234 6.3 1.984 7.11 1.75.82 2.332 1.52 2.1 3.385s.815 11.544 1.05 13.06.815 1.167 1.515 1.984c.695.81 1.162 1.744 3.495 1.744s4.584-.31 6.1-.076c2.1 2.916 3.383 6.878 3.85 9.328s.426 5.792 1.243 5.792 1.634.117 1.4-2.916-.466-3.5-1.516-5.01c-1.05-1.517-1.633-2.217-1.05-3.15s.7-2.45.467-3.617-.58-2.912 1.4-.583c1.984 2.333 2.568 2.916 3.15 3.733s.81 2.333.7 3.733c-.116 1.395.11 1.98.93 1.28.816-.697 1.865.465 1.4 1.982s.116 2.45 1.515 2.916 1.983.817 2.333 1.867 1.515 1.513 1.515-.583c0-2.1-.816-6.532-1.4-7.928-.582-1.4-1.05-4.434-1.166-6.183s-.467-2.212-1.284-2.562-1.516-.934-1.633-1.75-.817-1.108-1.34-1.108-.99-.41-1.28-.993-.584-.64-1.167-.7-1.516.292-1.808-.64-.7-2.276-1.284-3.034-1.106-.99-1.164-3.61c-.06-2.626-.117-2.976-.934-3.91s-2.215-3.378-2.8-4.428c-.577-1.05-1.16-2.1-1.16.117 0 2.21 0 3.378 1.395 4.194 1.4.817 1.75.817 1.167 1.983s0 1.98.233 2.8.7 1.63 0 2.443c-.7.817-1.4.584-1.283-.695.117-1.284-.35-2.8-.93-3.85-.582-1.05-1.05-1.75-1.75-1.167s-1.28-.115-.815-.582.35-.816 0-1.166-.467-.7.116-1.4.582-1.05.232-2.678c-.35-1.633-2.916-9.794-4.082-11.66s-1.05-3.267.466-1.4 2.8 3.5 2.916 5.01c.117 1.518.467 2.45.933 3.034s.817.35 1.05-.933 1.167-.816-.466-3.262c-1.634-2.45-4.667-6.53-5.833-13.876s-1.632-12.245-2.8-14.224c-1.16-1.982-1.51-2.45-1.627-4.315s0-3.732-.818-5.127c-.816-1.4-1.4-1.633-1.516.467-.118 2.094.115 6.76.7 7.577s.232 2.913.115 4.08-1.95 2.32 1.867 4.666c1.516.933 1.278 2.216 1.05 3.033-.234.81-.467.694-1.284-.584-.816-1.285-1.633-2.335-2.45-3.034s-.932-1.168-.816-2.8.466-2.8 0-3.38c-.467-.583-.7-.116-.934.812-.233.934-.466 3.5-.933 4.2s-.7.233-1.05-1.283.117-3.846.933-6.53 1.283-5.482.584-8.977c-.7-3.5-.35-4.55-3.033-7.462-2.68-2.915-5.71-5.715-6.995-9.326-1.283-3.617-1.516-6.766-2.916-8.4-1.396-1.628-3.38-3.728-4.66-4.31v-5.363c0-1.282-.585-2.1-2.1-1.865s-2.45 1.515-3.38 3.26c-.933 1.75-1.633.934-2.916 3.967s-3.15 4.544-3.15 7.81z" fill="#cf6200"/><path d="M403.047 332.077c.933.583 1.826.973 3.225.273s3.073-2.72 4.94-.735c1.862 1.978 2.91 5.245 2.91 7.81 0 2.563 0 7.346 2.917 10.03 2.913 2.677 4.425 5.477 4.542 8.977.116 3.495 1.4 8.86 1.75 10.26.35 1.396 1.166 3.03 2.1 3.962s1.632 3.617 1.75 6.412c.115 2.8-.35 4.783 0 6.183s0 2.563-1.05 1.863-1.284-1.05-1.867-2.216-1.283-.935-.7.815 2.333 3.38 3.85 3.38 1.982.232 2.915 1.165c.93.933 1.046 1.4 2.68 1.4s1.865 0 3.382.467 1.516.233 2.333 0 1.628.466 2.21 1.983 1.984 5.71 1.984 6.878 0 2.333.815 3.5.583 2.333-.35 1.633-.933-.467-1.633-.35-1.167-.234-2.095-.817c-.934-.582-.35-.465-1.284-1.865s-1.517-1.867-1.517-.817-.117 2.334-.817 1.75-1.05-.582-1.634 0-.817 1.05-1.516-.116-1.516-1.166-2.216-1.4-.7-.233-1.045-1.283c-.35-1.05-1.4-1.28-2.335-1.28s-1.4-.47-1.517-1.168c-.118-.696-.7-1.163-1.167-1.513s-.233-1.168-.35-1.985-.816-.466-1.282-.7-.817-.116-.817-1.283-.466-1.516-.815-2.333c-.345-.817 0-1.634.234-2.563.233-.933.116-1.516-.58-2.333-.7-.816-.116-1.633-1.98-3.266s-2.8-.235-3.384-4.08c-.584-3.85-1.75-11.778-2.8-13.06s-1.745-2.218-2.795-2.568-1.75-.116-1.865-2.333c-.118-2.213-.817-5.01-2.217-6.41s-1.984-1.87-2.684-2.45-.933-1.635 0-3.614c.933-1.983.583-4.666.467-5.95-.116-1.278-.466-2.91-.233-4.31s.116-3.15-.234-4.084-.816-1.167-.233-1.867zm28.083-33.157c-1.58 2.032-3.26 3.733-5.437 5.285-2.176 1.557-4.975 2.8-3.423 5.443 1.557 2.642 2.8 2.956 3.11 4.975.313 2.02.78 3.733 2.332 4.2 1.557.462 2.176.153 2.176 3.42s0 4.508 1.4 5.75 1.242 2.486 1.866 5.443c.62 2.952.62 9.328 2.485 13.68s6.062 12.594 5.596 14.304-1.09 2.952.776 4.97c1.866 2.025 3.11 4.977 3.266 6.686.15 1.714.466 2.333 2.327 1.714 1.867-.624 2.8-1.247 3.423-2.023.62-.777 1.863-.62 3.577.31 1.71.932 4.35 1.866 5.904.932 1.557-.936 2.333-2.33 3.733-2.33 2.176-1.558 2.952-4.824 3.42-5.75.465-.936.156-.936-.778-1.87s-.466-2.49-.623-4.04c-.153-1.56-.776-3.888-2.642-7.31-1.86-3.42-2.95-7.62-4.194-8.705-1.243-1.09-1.866-3.733-2.023-4.976-.153-1.243-1.553-2.333-2.486-3.266-.933-.93-1.866-2.33-2.952-7.77-1.09-5.444-1.866-9.33-1.866-10.262s-.16-1.09-1.09-1.4-1.4-1.867-1.088-2.643c.31-.777-.314-1.553-.623-2.486s0-2.643.62-3.576c.62-.936.468-3.578-.156-5.754s-1.242-4.043-3.732-4.357c-2.486-.31-2.952-.93-3.885-2.953-.933-2.02-1.867-5.595-2.176-6.376-.31-.775-.775-.932-2.64.625-1.868 1.552-2.487 2.068-2.487 4.976 0 1.866.31 2.485.93 3.576.622 1.085.78 1.4 1.246 4.352s3.11 7.617-.315 10.26c-3.42 2.642-2.952 3.266-2.795 5.13.155 1.865-.93 3.107-1.555.465-.62-2.643 0-4.195 1.867-5.438 1.867-1.247 3.576-2.8 2.333-4.51-1.247-1.71-1.71-5.75-1.866-7.618s-.468-2.49-1.56-1.09z" fill="#cf6200"/><path d="M403.406 338.538c-.085 1.265.197 2.656.296 3.773.116 1.286.466 3.97-.467 5.95s-.7 3.03 0 3.614c.04.03.077.063.112.094 1.903-.637 2.15-2.76 1.638-3.787-.543-1.085-.386-2.41.233-3.495.624-1.09.624-1.71.08-2.49-.546-.776-.546-.776.077-2.952.548-1.916-.834-1.902-1.97-.704zm19.918 30.15c-.35-1.4-1.632-6.766-1.75-10.26-.116-3.5-1.628-6.3-4.544-8.98-2.274-2.094-2.772-5.46-2.88-8.057-1.71-1.042-2.43-.57-2.288 1.376.153 2.095 2.252 3.11 1.943 6.138-.31 3.033-.31 2.257 1.166 3.733s2.02 2.876 1.246 3.5c-.776.62-.857 1.71.233 2.095 1.085.39 1.166 1.558 1.01 2.643-.158 1.09.855 1.324 1.474 2.1.624.776.7 2.643.08 3.733-.622 1.086-.7 2.795.387 1.867 1.09-.934 1.557-.08 2.41 1.395.74 1.274 1.358.875 2.16.49a9.836 9.836 0 0 1-.645-1.77zm15.164 27.145c-.7 1.4-1.516.933-2.216.233s-1.517-.7-1.167-1.983.234-1.517-.7-2.217c-.107-.08-.215-.152-.323-.224-.29-.01-.632-.01-1.076-.01-1.633 0-1.75-.465-2.68-1.4a7.84 7.84 0 0 0-.573-.52c-.018.225-.01.52-.01.87 0 1.284 0 1.05-1.282 1.4s-1.05-1.282-1.28-2.332a3.854 3.854 0 0 0-.202-.628c-1.404-.27-2.884-1.75-3.414-3.334-.583-1.75.117-1.983.7-.816s.817 1.516 1.866 2.216 1.4-.466 1.05-1.866c-.113-.45-.14-.97-.126-1.548-.252-.453-.593-.82-1.04-1.02-1.868-.815-1.284-1.05-1.168-2.565.117-1.515-.233-1.515-1.4-.7-1.166.814-1.282-.12-1.282-2.448 0-2.333-1.517-2.333-1.862-.7-.35 1.633-.932.583-1.632-1.75s-1.633-2.916-1.75-.7c-.1 1.875-.62 2.324-1.84 1.283.216 1.355.405 2.62.557 3.617.583 3.845 1.516 2.445 3.383 4.078s1.283 2.45 1.983 3.267c.696.817.813 1.4.58 2.333-.234.93-.58 1.747-.234 2.563.35.817.815 1.167.815 2.333s.35 1.05.816 1.284c.29.143.668.062.94.18.3-.396.576-.88.926-1.23 1.4-1.4 3.5.116 4.2 1.866s1.51 2.217 2.56.817.7-1.167 1.867.116 1.633 1.05 1.633 1.05 1.167-.47 1.983.23 1.282.584 2.794-1.633c1.516-2.217-.695-1.517-1.395-.117zm4.127-63.98c.462-3.42.153-6.838 1.552-8.086 1.4-1.242 3.11-3.728 2.952 1.557-.155 5.286-.31 4.976-1.398 6.22-1.09 1.242-2.023 1.55-.933 3.575 1.086 2.016 1.243 2.173 1.086 5.282-.153 3.11-.153 4.352 1.09 5.91 1.242 1.55 1.552 1.71 1.866 3.418.31 1.71 1.395 4.043 2.795 5.286s2.956 4.82 3.11 7.31c.156 2.485 2.332 3.11 4.35 4.818 2.024 1.71-.462 2.952-2.018 2.176-1.554-.775-.934 0-1.868 1.087-.933 1.09-1.242 1.247-2.018-.62s-3.423-3.11-4.666-3.575-2.33-2.49-3.42-4.51c-.934-1.736-2.78-3.006-4.47-3.136.468 1.31.72 2.338.584 2.827-.466 1.71-1.09 2.952.777 4.97 1.866 2.025 3.11 4.977 3.266 6.686.152 1.71.466 2.33 2.328 1.71 1.866-.622 2.8-1.246 3.423-2.022.618-.778 1.86-.62 3.574.31 1.71.93 4.353 1.865 5.905.93 1.557-.932 2.333-2.327 3.733-2.327 2.175-1.556 2.952-4.822 3.42-5.75.465-.933.155-.933-.778-1.867s-.467-2.49-.624-4.042c-.153-1.556-.777-3.885-2.643-7.31-1.862-3.417-2.952-7.616-4.194-8.702-1.243-1.09-1.867-3.734-2.024-4.977-.153-1.242-1.553-2.332-2.486-3.265-.932-.93-1.865-2.33-2.95-7.77-.853-4.254-1.513-7.552-1.76-9.24-1.117 1.782-1.88 2.217-2.283.997-.467-1.396-1.09-2.176-1.71-1.243-.623.933-.78-.776-.78-1.55 0-.78-.152-.936-.933-.936-.776 0-.153-1.242-.467-3.576-.31-2.334-.776-2.643-1.085.157-.31 2.795-1.867 4.504-1.243 5.128.62.623.31 1.866-.316 3.733-.62 1.86-.31 2.95.157 4.194s-.31 3.576-.623 5.6c-.31 2.018 1.25 4.037 1.715.618zm-28.398-27.908c-1.152.085-1.942 1.095-1.283 4.626.413 2.188-1.242 1.71-1.86.62-.625-1.084-1.09-3.42-2.334-5.44-1.247-2.02-.624 1.4-.776 3.266-.157 1.866 1.085 1.866 2.176 3.42 1.085 1.556.152 2.18-1.09 2.18s-.62 2.485-.31 4.194-.31 2.023-1.247.623c-.93-1.4-.31-3.576-.153-6.218.153-2.643.31-2.024-1.4-2.643-1.71-.623-1.4-.932-.776-2.49.62-1.552 1.243-2.332.467-3.11-.78-.775-.62-1.24.62-1.4 1.245-.15.78-1.084 1.868-1.4 1.09-.308 1.557.16 1.71-1.86.13-1.687.695-2.724 1.96-2.212.763 2.598 1.754 6.64 2.43 7.847zm15.657 18.305c0 3.267 0 4.51 1.4 5.753s1.243 2.485 1.866 5.442c.62 2.952.62 9.328 2.486 13.68.556 1.297 1.323 2.943 2.108 4.657 1.032-.812 1.93-2.207 2.248-2.947.462-1.09-.933-3.267-2.024-5.13-1.085-1.865.157-2.49 1.243-4.822 1.09-2.33-.15-2.486-1.86-3.11-1.712-.618-1.712-2.175-2.645-4.66s-.777-3.577-.153-4.977c.62-1.4.154-2.485-1.09-2.8-1.242-.31-.932-1.242-.466-2.795.467-1.553.776-1.863-1.085-1.4-1.414.35-1.754.618-2.176 1.13.103.448.152 1.07.152 1.983z" fill="#00b800"/><path d="M447.774 328.757c-.17 1.866-.157 2.8-.623 3.418-.46.624-.15 1.557.317 2.49s.776 2.177.31 3.886.31 3.11 1.242 3.58 1.4 0 1.09 2.175c-.315 2.176.932 4.51 2.02 5.442 1.09.934 1.864 2.486 1.71 3.42-.155.932.78 1.866 1.863 2.332 1.09.466.935.623.935 1.242 0 .625.466.625 1.71.934s2.175 1.09 3.574 2.8 3.42 2.643 3.11.776 0-3.11-1.867-4.043c-1.862-.935-3.262-5.444-4.042-8.553-.775-3.11-3.26-7.304-4.66-8.08-.157-2.18.157-3.267-1.243-4.357-1.4-1.086-1.866-2.486-1.866-3.576 0-1.086-.775-2.486-1.4-2.795-.62-.315-.932-1.09-.932-2.025s-1.086-.776-1.243.934z" fill="#5d3100"/><path d="M439.52 412.164c2.795-.233 10.376-2.45 11.188-3.15 1.867 1.284 5.132 3.034 6.532 3.034-2.683.583-4.432.233-5.132-.234.35.817 1.283 2.1 1.866 2.217-2.566-.114-5.477-.7-6.41-1.63-2.217.933-5.95 1.166-8.044-.234zm5.024 3.5c.992.292 5.944 1.108 6.586 1.108-1.633 1.396-.233 2.737 2.508 2.504-1.342.175-2.804.682-1.808.875 2.39.47 8.86-1.28 10.143-1.98-2.216 2.858-12.996 5.48-17.43-2.504zm4.442 7.09c1.336-.7 4.66-.468 6.235.29-1.75.642-5.183.642-6.232-.29z" fill="#00d860"/><path d="M453.965 422.663c2.39-.408 9.152 1.225 11.543-.233-.816 2.158-5.074 2.45-6.532 1.983-1.453-.467-2.853-1.05-3.844-.992.525-.29-.35-.35-1.167-.755z"/><path d="M456.433 425.983c1.808.287 8.277-.525 10.26-1.283 2.095.7 6.235 1.804 7.17 1.687-1.984 1.225-5.775.525-6.995 0-3.5 1.167-6.357 1.517-10.435-.404z" fill="#00d860"/><path d="M459.528 427.06c2.59.583 4.796.166 7.344-.686.794.34 2.665.758 4.423.673 1.17.668 2.746 1.6 4.262 1.718-1.574.642-7.348 0-8.51-.64-2.916.057-7.932.7-9.152 1.69-.058-.817.47-1.952 1.633-2.755z" fill="#00d860"/><path d="M456.433 413.914c2.018.673 9.326.35 13.054-1.4 1.472-.69 2.383.467.7 1.05-6.06 2.1-10.843 2.917-14.338 1.05-1.384-.736-1.52-1.4.58-.7z"/><path d="M492.233 404c-8.977 4.194-14.926 5.477-27.398 1.632-1.162-.36-1.983 0-.7.816 1.283.812 8.16 2.68 9.794 2.795s1.05.875.055 1.167-1.283.992.058.467 8.834-.723 11.893.875c1.337.7 1.687.583 1.57.058s.584-.875 1.575-.992 1.576-.466.818-.758-.876-.467-.293-.758.642-.583-.233-.758-1.458-.41-.642-.817c.817-.404 2.042-.7 2.975-.812.233-.642-.175-2.333.525-2.916z" fill="#00d860"/><path d="M477.293 405.075c5.133.364 14.576-1.983 19.592-6.878 1.745 1.046 4.194 2.212 5.477 2.445s2.45 1.4.467 1.4-4.785-.816-6.06-1.4c-6.65 4.083-14.43 5.425-19.36 5.017-1.397-.12-1.747-.7-.12-.587z"/><path d="M462.13 377.078c1.75 1.225 4.84 3.262 8.86 2.97 1.983 1.575 5.074 2.917 6.474 3.21-2.683 1.107-5.6 2.04-6.357 2.915-1.225-1.167-2.795-.992-3.203-1.575-1.167.933-.992 1.517-.233 1.983s6.647 1.46 8.105 1.05 1.848.8.64 1.22c-3.15 1.11-9.267.06-11.367-3.32-2.1-3.38-3.907-4.663-9.618-1.572-.643-1.633-.643-2.04-1.75-2.04s-3.15-1.46-1.576-1.4 6.24-.642 10.027-3.438z" fill="#00d860"/><path d="M463.52 384.57c-.973.243-3.732 1.75-4.72 1.868-.99.116-2.74 1.516-.932 1.574 1.804.06 4.137-1.924 5.42-2.1s1.4-1.633.233-1.34zm5.653 5.924c-.69.12-3.67.816-4.486.758s-1.633.175-1.574.758.29.933-.934.817-2.277.35-2.57.7-.524.7.7.816 1.867.233 3.267-.408 2.74-1.633 4.257-1.692c1.51-.058 3.028-2.04 1.336-1.75z" fill="#00d860"/><path d="M465 394.083c1.275.825 7.578 2.975 9.853 2.8s1.848.91.117 1.283c-3.558.754-7.9-.794-10.844-3.15-1.458-1.166-.116-1.575.875-.933z"/><path d="M494.835 397.18c-4.823 1.538-9.736.99-11.718.465s-3.79-.64-2.45.642c1.34 1.28 5.657 2.154 8.102 1.512-8.688 1.98-10.96 1.805-13.116 1.455-2.158-.35-6.21-.274-7.927-.117-1.284.116-3.034-.06-3.79-.525s-.993-1.342 1.28-1.11c2.27.235 2.567-.232.584-.524s-4.723.525-2.04 2.217 8.57-.118 12.3.932c3.73 1.05 11.656 1.807 19.18-4.26.386-.31 1.05-1.16-.41-.694zm-23.688-7.09c.175.583.175 1.225 0 1.633s-.175.933.584.35 1.227-1.283 1.985-.875 2.683.35 3.554.233c.88-.113 1.165-.29-.114-.813-1.283-.525-2.566-.7-3.266-.642s-1.575-.117-2.158-.35-.758-.117-.583.467z" fill="#00d860"/><path d="M483.574 392.333c-.99.058-2.74-.583-3.674-.99s-2.27-.468-1.28.873c.988 1.342 5.304 2.1 6.82 1.46s.875-1.343 2.387-.41c1.516.934 3.09 1.575 4.2 1.575s1.515 0 .29-.7-1.807-.872-1.924-1.455-.29-.933.817-.583 2.39.99 3.266.526 2.503-1.517 3.96-1.517l.35-.875c-2.1-.175-3.436.467-4.02.7s-1.632.35-2.74.175-2.566-.29-2.916-.584-.35-.525.583-.7 1.225-.817-.058-.583-4.72.116-6.527-.467c-1.808-.58-2.567-.637-3.325-.35-.758.292-.64 1.108.467 1.167s3.616.29 4.49 1.108.76.877-.233.47-2.8-.176-.933 1.165z" fill="#00d860"/><path d="M498.782 390.224l-.35.875c2.158-.06 7.407.464 9.094 1.514 1.633-1.283 1.34-1.692 2.508-1.458s2.624.64 3.266.29 1.108-.29 1.808-.174c.695.117 2.21-.175 3.086-.7s2.683-1.225 3.733-1.225 2.328-.234.408-.526c-1.925-.29-4.84.293-5.832.643-.987.35-3.96.583-5.71.583s-4.137.874-6.12.35-4.724-.176-5.89-.176z" fill="#00d860"/><path d="M525.79 389.192c-3.495 2.567-7.695 3.15-12.706 3.5-1.458.103-1.01.516.234.642 5.244.525 11.31-1.4 13.288-3.5.574-.606.51-1.61-.817-.642z"/><path d="M501.968 395.16c1.516.058 6.76 1.4 8.452 1.983 1.283-.117 1.633-.408 1.4-.875s-.41-.992 1.924-.875c2.328.117 7.694.058 8.685.058.814-.35 2.62-1.75 3.434-1.805-2.095.117-10.84.583-11.947.467s-1.692 0-2.392.41-1.108.582-1.983.232-2.45-.815-3.32-.29c-.875.525-2.683.058-4.257.7z" fill="#00d860"/><path d="M522.425 395.43c.816-.35 2.62-1.75 3.436-1.81 1.52-.116 3.27.526 4.086.642s1.69-.058 1.108-.7-.06-1.75 2.332-1.458c2.387.292 3.612.7 5.945.467s3.38 1.52 7.81-.23c-.35 1.75.467 1.866 1.283 1.516s1.75-.233 3.15.817 9.91 1.167 11.892.817c1.98-.35 3.03.7 1.512 1.166-1.512.466-1.866 1.166-1.512 1.633.346.46.696 1.043-1.166.81-1.867-.234-2.217.35-3.15 1.05s-1.167.932-3.733.466c-2.56-.467-3.028-.117-4.428.116s-1.75.234-3.15-.233-4.428-.935-6.294-.35-3.266 1.164-4.9.7-1.75-.235-.7-1.285 1.284-.934 3.267-1.167c1.983-.23 3.5-.814 2.1-1.63s-1.867-.7-3.733.233-2.8 1.513-4.896.35c-2.1-1.166-3.15-.933-4.55-.583s-3.727-.467-5.71-1.34zm6.998 3.5c-2.67.38-3.387-1.338-6.177-.99-.934.118-2.508 1.28-.35 1.105 2.153-.175 4.486.992 6.585.817s1.17-1.108-.055-.933zm-3.095 2.018c1.404-.512 4.315.466 5.54.233s2.39.528 1.108.936-4.374-.758-5.774-.35-2.794-.117-.874-.816zm-27.86 7.537c1.925.063 8.86-.233 11.602-6.06.21-.45.408-.643 1.283-.06s4.082 2.508 10.085 3.033c1.682.148 3.5.992.116.76s-8.743-1.168-10.55-2.276c-3.034 4.778-8.48 5.344-12.536 5.245-2.445-.06-1.86-.7 0-.642z" fill="#00d860"/><path d="M513.452 400.544c-.933 1.283-4.14 3.5-5.6 3.616-1.452.117-5.826-.292-6.934-.7s-2.45-.292-.875.817 5.482 1.866 7.052 1.516c1.575-.35 3.383-.875 4.608-.116s3.5 2.21 4.836 1.92c1.34-.287 4.08-.287 4.954.117.875.408 2.39 1.633.117.933s-4.14-.117-5.19-.584c1.167 1.634 3.813 4.258 6.065 4.258.525 0 .875.937-.233 1.46 1.108.526 3.67.935 5.01-.29-.35.467-.174.758.41 1.05s1.283.7.233.816-3.437.41-4.136.117c2.27 1.455 8.16 3.788 14.162 2.62 1.144-.22 1.75-.694-.116-.64-3.85.116-4.078.058-4.778-.346-.7-.413-.585-.758.523-1.108 1.104-.35 3.904-.76 5.07-.76s2.333-.466-.06-.466-5.3 0-6.47-.407-2.04-.933-.814-1.75 2.507-.583 3.09-1.342c-3.85-.057-8.573-2.1-5.948-3.96.61-.436.408-.467-.584-.584s-3.903-.932-5.127-1.632-.41-1.283.583-1.458c-2.275.407-6.824-.817-9.852-3.09zm34.185-.09c-2.1 1.575-6.06 2.216-7.752 2.216s-1.925.584-.583.76 2.8.35 3.382.174.933-.234 1.804.175c.875.405 2.74.64 4.374.113s4.31-.758 5.42-.7 2.332.117.116-.525c-2.212-.64-5.828-.176-6.703.06s-3.266.056-1.982-.35 2.39-1.05 3.032-1.577c-.466-.116-.758-.232-1.108-.35zm-1.077 4.532c-1.808 1.34-4.427 2.62-7.11 2.736 2.45.875 4.49 3.383 6.06 3.267-.758.463-1.686 1.163-2.678 1.28 1.517.41 4.078-.058 6.178-1.225 3.5.992 8.044.35 9.56-.933-2.275 0-5.01-.817-6.236-1.867 1.108 0 2.154-.7 2.678-1.337-2.62.462-7.11-.817-8.452-1.925z" fill="#00d860"/><path d="M542.837 412.3c.99-.118 1.92-.818 2.678-1.284-1.92.64-10.318-.7-12.82-2.917-2.51-2.215-2.51-.528-.76 1.05s4.837 3.963 10.902 3.15zm6.146 5.338c-1.05.583-6.06.933-7.694.583s-2.336-.172-1.927.47.583 1.225-.76 1.05-3.73.117-4.72.466c-.99.35-2.214 1.225-.115.875 2.094-.35 4.02-.76 5.594-.35s7.168.525 8.277.06.35-.468-.175-.468-.76-.35 0-.7 1.34-1.34 1.516-1.98zm-48.496-6.775c-2.1.933-9.093 2.8-10.96 2.917-2.332 1.05-4.194 1.633-5.36 1.633.816.7 3.96 1.395 5.244 1.05-.7.695-2.326 1.512-2.91 1.862 1.86-.234 4.08.233 5.01.35-2.45 1.4-5.825 1.866-7.575 1.633.583.816 1.4 1.633 2.45 1.633-2.217.586-4.9.586-6.3.12.584 1.166 1.167 1.866 1.984 1.983-1.867.234-4.2.584-6.18-.583 1.51 1.982 4.895 2.68 9.91 2.1 5.01-.584 9.21-2.8 10.377-3.734-2.1.233-4.9.35-6.3.117 2.8-.7 8.86-3.265 9.91-4.315-1.165 0-2.327-.35-3.148-.934 1.632.235 7.347-.46 9.097-1.16-2.1-.467-3.383-1.75-3.966-2.567 7.345 2.333 15.52 1.57 19.47.583.934-.233 1.047-1.418-.815-1.283-3.266.233-9.56-.7-11.193-1.516 1.518 1.168 3.384 1.868 4.667 2.1-3.033.818-7.228 1.4-13.41-1.982z" fill="#00d860"/><path d="M486.49 418.356c.583-.35 2.212-1.167 2.912-1.862-1.283.345-4.428-.35-5.245-1.05 1.167 0 3.03-.583 5.36-1.633-4.193-.114-7.11-.114-8.626-.93s-4.31-.584-5.36-.35-.7 1.983 3.73 1.516c-1.866 1.283-6.877 1.75-8.743 1.283.466 1.51.816 3.03.35 3.845 2.45 1.4 8.86 3.15 12.01 2.916-2.8-1.05-4.316-2.217-1.984-2.45s3.617-.7 5.6-1.283z" fill="#00d860"/><path d="M479.267 425.938c5.58-.466 13.055-.565 19.004-5.6 1.52-1.282 2.538-.85 1.05.468-3.142 2.8-10.96 6.644-18.42 6.76-3.035.05-4.426-1.4-1.63-1.628z"/><path d="M521.08 416.696c-1.4.525-5.308 1.166-6.47.99-1.167-.174-2.858-.232-3.79.35s-.993.935.29 1.05 2.916.235 3.733.176c-1.05.584-1.75 1.4-1.983 1.75 1.866-.467 5.303.35 6.294.933-.758.234-1.633-.058-2.274-.408 3.15 3.325 12.476 3.325 13.992 2.74-.7.526-1.34 1.05-2.04 1.226 2.623.467 5.652.41 8.626-1.34-.992.174-3.96-.118-4.72-.176a5.597 5.597 0 0 1 2.27-1.342c-1.16-.233-4.836-.116-5.71.35.35-.7.99-1.575 1.69-1.866-4.607 0-10.2-.06-12.242-1.17 3.266.35 6.882-1.575 8.394-1.575-2.562-.058-5.36-.64-6.06-1.69zm-11.71 2.557c-2.275.467-5.71 1.4-6.644 1.925s-1.925.817.116.817 7.578.233 8.802.408c-3.09-.467-7.285-.583-8.102-.583s-1.75-.06-.233-.525 3.5-1.517 6.06-2.042zm-4.62 5.43c.81 0 4.37 0 5.77-1.226 1.456 1.11 4.256 2.68 6.06 2.68 1.807 0 1.632.466.057.64-1.57.175-4.66-.753-6.235-1.92-2.1.758-3.845.117-5.653-.175zm-27.008 15.703c3.61 1.4 8.394 2.45 11.89 1.283 1.98 1.75 6.064 1.863 8.276 1.4 2.216-.47 4.2-.7 6.648.113 2.445.817 7.46.875 8.86 2.037-1.283.064-4.024 0-4.665.18-.64.17-.29.58.878 1.22-3.962-.232-10.785 1.46-12.88 3.267.753-1.808 3.086-4.257 6.76-4.257-2.1-.753-8.802-.81-10.96.526-.64-.7-1.4-1.862-1.457-2.33-3.554 2.038-10.552-.874-13.347-3.44zm-9.242-6.55c4.303-.616 7.232-1.984 8.515-3.267.758.7 3.903 1.4 7.344.35-.7.522-.76 1.513-.47 2.04-2.274.056-6.59 1.165-8.043 1.923-1.46.754-5.717 1.28-7.11.52-1.4-.753-1.46-1.395-.24-1.57z" fill="#00d860"/><path d="M483.888 432.983c-2.274.058-6.59 1.166-8.044 1.924.292.584.467 1.512.525 2.154 4.192-1.513 13.81-2.442 17.485-1.86-1.75.118-5.074 1.92-6.936 2.155 4.544-.35 8.977.583 10.14.875 1.165.29 1.4 1.165.524 1.982s-1.28.934.583.992c1.866.06 5.715-.175 7.465-1.866-.7-.758-2.508-.467-3.033-.992 1.224-.408 2.624-1.283 3.15-1.925-3.15-.06-4.317-.115-5.367-.35-1.05-.23-1.808-.523-.525-1.22 1.28-.7 1.864-1.282 2.273-1.75-2.274.64-5.827 1.168-8.8-1.165 1.11.29 3.73.116 4.66-.292-.99-.524-1.803-.932-2.62-.932 2.39-1.166 7.11-2.216 12.94.117 2.915-.233 6.064-.116 8.276.467.933-.932 2.916-3.15 3.966-3.732-6.877.584-19.237-.7-19.004-4.31-2.217 2.91-7.345 4.544-9.56 4.08-.234 1.05.7 2.33 1.516 3.03-2.333.467-6.3.817-8.16.467 1.05 1.05 3.027 1.983 4.194 1.866-2.444 0-3.727.468-5.652.293z" fill="#00d860"/><path d="M498.154 441.193c1.867.06 5.716-.175 7.465-1.866-.7-.758-2.51-.467-3.035-.992 1.224-.408 2.624-1.283 3.15-1.925 4.893-.403 9.267-.17 11.363-.812 2.1-.64 7.464-.29 8.513-.583-4.664.754-5.597 1.162-5.83 1.92s1.517 1.4 2.625 1.4c-2.1-.116-4.724 2.1-4.958 2.975-2.795-1.633-4.137.292-4.428.933-1.168-.466-5.017-.35-7 1.342-2.56-.76-4.253-1.167-6.82-.76 1.576-.35 1.284-1.4-1.05-1.632zm22.386-13.64c1.575-.058 5.012.117 6.236-.058-.816.41-1.862 1.167-2.095 1.517 3.965-.467 9.38-.758 10.96-.525-1.92-.292-3.904.933-4.896 1.575s-.408 1.05.933 1.225 3.15 1.224.7.875-7.286-.35-8.452-.175-1.808-.41-.117-.642 2.854-.817 3.67-1.283c-1.4.35-4.078.35-4.894.116s-1.342-.7-.41-.933.293-.583-.7-.466-3.498 1.163-4.897 2.505c1.516-1.575 2.857-2.975 3.965-3.733z" fill="#00d860"/><path d="M502.775 430.2c1.925 2.16 4.195 3.384 7.81 3.5.76.023 2.172 1.04.35 1.11-4.898.174-7.343-.993-9.5-4.143-.445-.646.376-1.547 1.34-.466zm29.205-40.783c2.575 1.216 7.752 2.274 11.777 2.1.7-.032 2.108.717.345.874-4.545.41-8.627-.225-12.413-2.33-1.05-.583-.7-1.11.29-.64z"/><path d="M534.582 389.372c3.962-.117 6.936-.058 8.16 1.108 2.27-.7 6.353-1.108 7.286-.933s1.983-.233-.175-.758c-2.158-.52-7.17-.7-8.743-.407-1.575.287-6.474.462-8.102.287.7.118 1.162.234 1.574.7zm15.388 1.57c1.866-.99 7.227-.058 8.86-.758-1.166 1.4 3.733 1.516 7.986.408-1.633 1.05-5.128 1.225-6.644 1.867s-2.333.172-3.5-.35-4.136-1.578-6.702-1.17z" fill="#00d860"/><path d="M566.838 390.583c-4.253 1.108-9.152.992-7.985-.408-1.633.7-6.994-.233-8.86.758 1.924-1.166 3.382-.233 4.777-2.624.875.176 2.916.293 3.616-.64 1.225.29 3.383.816 4.024 1.453.642.642 1.63-.175.812-1.162 1.925-.7.704.83 5.19-.29.934-.233 3.208-.64 3.966-.7-1.516 1.225-3.324 2.562-5.54 3.612z" fill="#00d860"/><path d="M373.36 664.19c-.017-1.966-.207-18.422-.207-22.226 0-.91-.468-.728-.468 0v22.122c.215.04.505.078.675.104zm7.23-23.42l.812 23.46-.142.19-.47.006-.514-23.656h.314zm6.84 19.81c-.066-2.39-.366-13.448-.482-18.9-.015-.727-.448-.6-.44.026.046 4.39.307 16.672.355 18.887.17 0 .463-.017.567-.013z" transform="matrix(4.4862 0 0 4.4867 -1190.9 -2609)" stroke-width=".138" stroke="#000" fill="#ff0"/><path d="M376.6 644.67l-6.913-.104c-.39 1.403 1.352 1.377 2.002 1.013.75.57 1.322.52 1.74.05.596.493 1.35.363 1.66.05.833.625 1.69 0 1.508-1.012zm.52 3.48l-7.07-.026c-1.22 1.17.365 1.74 1.717.935.182.39 1.013.62 1.663.31.598.47 1.35.13 1.74-.26.73.34 1.586.44 1.95-.96zm-.2 4.42l-6.81-.052c-.13 1.22 1.25 1.065 1.794.754.52.805 1.664.623 2.106.155.65.442 1.247.338 1.585-.078.754.65 1.377-.184 1.325-.78zm.34 4.42l-7.614-.13c-.416 1.3.753 1.533 1.3 1.22.18.755 1.194.495 1.454-.05.39.39.884.18 1.118-.08.104.703.987.73 1.663.13 1.38.963 2.68-.155 2.08-1.09zm6.75-1.82l-6.34-.052c.285 1.3.908 1.637 1.922.883.754.78 2 .497 2.313.107 1.377 1.118 2.13-.182 2.105-.935zm-.65-4.34l-6.133-.182c.104 1.56 1.585 1.507 2.34.83.57.73 1.584.52 1.948 0 .78.78 2.053.313 1.845-.648zm.81-4.89h-6.6c.077 1.09 1.532 1.715 2.65.676.31 1.247 1.507.857 2.027.363.753.96 2.494-.13 1.923-1.04zm-.39-3.32l-5.9.078c-.103.96 1.3 1.377 1.82.597.286.494 1.273.442 1.56-.026.467.725 1.04.23 1.22 0 .676.49 1.404.26 1.3-.65zm6.91 2.15l-7.225-.078c-.026.753.754 1.065 1.22.753 0 .728 1.015.962 1.665.39.442.624 1.74.806 2.26-.052 1.066.884 2.21.26 2.08-1.013zm-.1 5.93l-7.07-.026c.053.987 1.196 1.325 1.846.805.156.83 1.04.88 1.56.465.623.702 1.663.754 2.234-.026.858.312 1.508-.416 1.43-1.22zm-.37 5.33l-5.588-.078c0 .988 1.17 1.118 1.69.598.545.65 1.377.65 1.845.13.753.65 1.897.468 2.053-.65z" fill="#fff" transform="matrix(4.4862 0 0 4.4867 -1190.9 -2609)" stroke-width=".138" stroke="#000"/><path d="M381.26 664.42c-3.014.052-6.08.052-8.16-.26s-2.734-.604-4.158-1.455c-2.13-1.273-2.65-1.585-5.665-3.352-.462-.27-.963.065-.312.493 3.04 2 4.192 2.743 5.64 3.69 1.506.988 2.478 1.865 3.403 2.91 1.196 1.353 2.08 1.38 2.625 1.17s1.404-.493 2.26-.285c.86.21 2.002.237 2.6.13.546.497 1.793.39 2.495.237.7-.156 1.22-.234 1.715-.13s1.247.026 1.74-.052 1.794-.208 2.704-.078c.91.13 1.845.052 2.443-.13.597-.182 1.69-.13 2.053-.026.52-.39.78-.884.91-1.403.61-.078.813-.154.948-.507.25-.65.48-1.29.56-1.574h.248l.078-.585-.506-.583.18-1.117.546-.13c.026-.34-.13-.86-.234-1.067-3.273.13-6.483.234-8.782.286-.26.206-.546.752-.598 1.09-1.403.233-2.235.337-2.6.415s-.566.107-.856.494c-.468.624-.91 1.35-1.274 1.82z" transform="matrix(4.4862 0 0 4.4867 -1190.9 -2609)" stroke-width=".138" stroke="#000"/><path d="M391.78 660.45c.16-.55.584-2.035 1.354-4.84.13-.468-.325-.653-.493-.052-.913 3.275-1.26 4.503-1.375 4.912.176-.003.428-.022.517-.02z" transform="matrix(4.4862 0 0 4.4867 -1190.9 -2609)" stroke-width=".138" stroke="#000"/><path d="M396.85 654.96c-1.105.57-1.638.792-2.144.597-.466-.18-1.15-.28-1.552-.083a.523.523 0 0 1-.02.135 493.286 493.286 0 0 1-1.05 3.765c.82.29 2.228.328 2.557-.025.34-.363 1.26-.285 1.73-.26.3-.39.417-.87.34-1.104s-.053-.65.064-.974.273-1.378.078-2.053z" transform="matrix(4.4862 0 0 4.4867 -1190.9 -2609)" stroke-width=".138" stroke="#000" fill="#fff"/><path d="M371.69 645.58c-1.222 3.534-5.458 11.46-8.014 14.014m1.964 1.156c2.9-2.244 10.236-9.528 11.483-12.594m-7.013 4.364c-.337 2.677-1.11 7.452-1.526 9.973m2.656-4.013c-.987.962-2.387 2.64-3.427 3.55m12.727-8.89c-.83.805-1.78 1.744-2.61 1.978m3.09-1.848c.73.78 1.77 1.66 2.628 1.893m-3.198-6.203c-.753.65-1.87 1.413-2.884 1.7m3.314-1.55c.65.546 1.342 1.342 2.173 1.706m-5.333-4.876c.805-.234 2.004-.858 2.628-1.507m.362-.123c.705.805 2.056 1.455 2.732 1.637m-5.562-3.247c.83-.182 1.86-.624 2.407-1.404m.313-.216c.7.598 1.933 1.462 2.738 1.54m3.192.79c-.45.468-1.556 1.31-2.257 1.296m2.717-1.336c.325.52 1.144 1.316 1.612 1.38m-4.802 5.92c.91-.312 2.183-1.056 2.82-1.823m.5.063c.266.48 1.28 1.565 1.852 1.786m-4.092 5.254c.416-.09 1.547-.652 1.858-1.315m.522-.365c.43.533 1.48 1.507 2.13 1.74m-18.81.86c1.273-.403 3.846-1.965 5.12-3.447m-2.44 1.877c1.065.753 2.303 1.507 3.25 1.676m-6.17-4.456c.702-.3 1.624-.81 2.34-1.55m.54-.1c.286.402 2.388 1.686 3.284 1.7m-3.824-5.85c-.546.44-1.858 1.234-2.495 1.403m2.995-1.373c.728.506 2.167 1.4 3.154 1.4m-3.654-5.49c-.585.662-1.572 1.685-2.39 1.92m2.86-1.77c.455.728 1.673 1.712 2.466 1.842m8.054 2.528c1.822 3.36 5.2 7.465 8.618 9.622M378.2 643.46c2.767 3.976 8.2 12.695 13.367 15.914m.953-3.404a18.428 18.428 0 0 1-4.795 4.607m4.485-3.507c-1.74-2.78-2.64-6.295-3.943-10.924M374.15 658.51l2.144 5.9m-2.544-6.04l1.896 6.017m-2.306-6.297l1.76 6.262m-1.94-6.162l1.36 6.128m-.05-.218h1.7m-.22-.64h-1.602m1.422-.5h-1.546m1.366-.5h-1.475m1.275-.54h-1.404m-.096-.48h1.332m-1.432-.44h1.264m-1.374-.48h1.202m-1.292-.43h1.134m-1.234-.44h1.078m-1.168-.41h1.02m-1.12-.38h.99m-1.05-.32h.923m-2.593.01l-1.208 4.932m1.558-5.022l-1.037 5.21m1.317-5.4l-.84 5.55m1.2-5.66l-.61 5.803m.73-.333h-1.923m1.923-.53h-2.225m2.225-.55h-2.095m2.095-.52h-1.965m1.965-.53h-1.838m1.838-.59h-1.692m1.692-.51h-1.57m1.57-.52h-1.436m1.436-.5h-1.316m1.316-.44h-1.212m1.212-.35h-1.12m1.12 5.5v-5.88m6.47-1.94l-4.03 8.08m4.28-8.21l-3.43 8.254m3.68-8.344l-2.72 8.383m2.89-8.233l-2.116 8.238m.096-.378h-2.534m2.734-.74h-2.36m2.47-.6h-2.17m2.38-.65h-2.053m2.153-.52h-1.897m2.077-.6h-1.787m1.967-.7h-1.618m1.758-.53h-1.488m1.638-.61h-1.348m1.458-.41h-1.247m1.347-.39h-1.143m1.243-.4h-1.053m1.143-.35h-.968m1.058-.35h-.887m.987-.36h-.8m.88-.33h-.72m3.34-.12l1.763 5.58m-1.423-5.46l2.14 5.355M383 656.53l2.505 5.237m.605-.447l-2.763-4.888m2.763 4.878h-2.192m1.812-.66h-2.02m1.65-.66h-1.85m1.47-.67h-1.688m1.318-.66h-1.53m1.15-.66h-1.36m.99-.66h-1.194m.814-.67h-1.032m3.292.16l-1.725 5.173m2.245-5.403l-1.6 5.303m.74-.123l1.174-4.992m.306.172l-.988 4.75m-1.672-.3h1.73m-1.51-.65h1.65m-1.44-.64h1.572m-1.362-.64h1.49m-1.27-.65h1.41m-1.19-.64h1.33m-1.12-.64h1.248m-1.038-.65h1.027m.923.11l.846 3.547m-.536-3.717l1.17 3.697m-.77-3.707l1.275 3.702m-.755-3.502l1.277 3.477m-.117-.307h-1.638m1.448-.52h-1.556m1.366-.52h-1.49m1.3-.52h-1.43m1.23-.52h-1.358m1.168-.52h-1.284m1.094-.52h-1.218" transform="matrix(4.4862 0 0 4.4867 -1190.9 -2609)" stroke-width=".138" stroke="#000" fill="none"/><path d="M479.626 380.31c3.616-2.33 9.794-1.863 12.943.465 3.73-2.095 10.49-1.516 13.64 1.284 4.777-3.265 8.86-3.73 13.52-.587 3.617-2.562 9.21-2.795 13.527.234 4.193-1.985 8.86-3.613 12.937.7-2.445-1.75-7.694-3.268-12.938.815-4.084-4.083-11.194-2.566-13.527.233-3.034-3.616-9.445-4.2-13.294.234-4.194-3.5-10.488-3.618-13.87-.935-2.684-2.1-6.645-3.845-12.944-2.45z" fill="#00b800"/><path d="M543.33 375.33c-18.537 3.202-58.935.932-67.795-1.285-3.046-.762-2.216-1.866.35-1.283 10.21 2.32 32 2.333 44.01 1.75 2.332-3.09 6.002-8.336 7.11-9.795s1.597-1.592 3.908-1.983c4.136-.7 6.5-1.076 10.085-1.69.058.465.058 1.05.058 1.4-.292.232-.583.64-.817.757 0 2.394.464 8.22.93 10.32.467-.056 1.05-.23 1.342-.29.816-.233 1.628 1.867.816 2.1z" fill="#cf6200"/><path d="M573.702 376.226c.668-.018 2.064-.05 2.45-.058.758-.018 1.82-.54 2.287-1.705s1.91-5.48 2.433-7.287l-1.866-2.813c.407-2.32.932-5.465.99-6.106.934-.35 1.92-.7 2.387-.875.117-.525-.112-1.952-.583-2.42-7.984.306-31.882 1.137-36.256 1.195-1.05 0-1.52-.045-1.92 1.458-2.217 8.278.847 19.894 9.21 26.584.583.463 1.32.073.345-.82-1.396-1.283-3.554-3.908-5.01-6.5 1.63-.028 4.942-.08 5.933-.12.476 1.96 1.965 6.095 2.257 6.795s1.01.8.67-.247c-.803-2.45-1.225-5.24-1.574-6.583 1.516-.036 4.374-.01 6.123-.107.083 2.217.32 5.187.375 6.004s.758.875.772-.058c.017-.934.035-4.877.02-6.04 1.975-.053 4.496-.14 5.43-.14-.13 1.262-.373 5.34-.463 5.987-.134.95.364 1.4.597.06s.7-4.477.83-6.065c.79-.023 2.868-.108 3.74-.13-.083 1.243-1.25 5.02-1.6 6.012s.216 1.023.61.085c.414-.96 1.69-4.75 1.81-6.106z" fill="#cf6200"/><path d="M547.233 375.284c-.64-1.284-2.624-5.847-2.8-9.167 1.692-.03 5.923-.112 7.964-.157.3 2.504 1.072 7.897 1.48 9.176-2.386.058-5.302.134-6.644.148zm6.55-9.378c.22 1.912 1.22 8.476 1.382 9.234 1.732-.103 5.742-.117 6.438-.175-.072-1.75-.355-8.314-.386-9.247-1.813.05-6.523.166-7.434.188zm-9.017-8.12c-.323 1.678-.38 5.262-.292 6.792 2.042.04 7.066-.08 7.76-.14-.17-1.74-.443-4.89-.618-6.854-1.664.07-5.742.17-6.85.202zm8.344-.225c.06 1.636.422 5.63.54 6.85 1.762-.05 6.077-.14 7.535-.19-.076-1.493-.314-6.307-.34-6.89-2.342.063-6.25.21-7.735.233zm9.242-.266c.072 1.516.265 5.797.206 6.905 1.87-.05 5.446-.086 6.555-.176.085-1.52.332-5.87.215-6.977-2.1.08-5.446.193-6.976.247zm8.254-.314c0 1.282-.16 5.79-.22 7.016 1.853-.072 6.06-.22 7.156-.247.292-1.505.875-5.408 1.05-7.055-1.75.06-6.707.247-7.986.283zm7.224 8.3c-2.392.076-6.237.18-7.538.23-.2 2.95-.57 8.052-.744 9.22 2.104-.047 6.357-.18 7.29-.208.7-1.4 2.216-5.77 2.566-7.11-.525-.817-.933-1.284-1.575-2.13zm-15.21.403c0 1.05.185 8.565.23 9.207 1.368-.046 4.92-.095 5.446-.154.265-2.925.664-8.53.736-9.23-2.423.068-4.8.14-6.41.176zm-30.954-1.795l-3.037.54c-1.4 2.26-6.59 9.255-7.23 10.07 3.61-.102 9.26-.21 10.62-.34-.1-1.875-.35-9.34-.356-10.27zm1.346-.27c.072 2.393.3 8.764.36 10.455 1.79-.103 5.086-.318 6.428-.435-.31-3.006-.875-10.185-.992-11.06-1.503.274-4.455.794-5.796 1.04z"/><path d="M377.29 656.93c.09 0 .103.08 0 .078l-7.68-.095c-.103 0-.09-.08.002-.078l7.678.095zm6.04-6.15c.09.003.102.08-.002.078l-6.083-.167c-.104 0-.09-.08.002-.075l6.083.167zm-6.42 1.76c.09 0 .103.08 0 .078l-6.81-.05c-.103 0-.09-.078 0-.078l6.81.05zm.2-4.42c.09 0 .104.078 0 .078l-7.12-.037c-.105 0-.09-.075 0-.074l7.12.036zm-.49-3.49c.09 0 .102.08 0 .078l-6.92-.104c-.104-.002-.09-.08 0-.078l6.92.104z" transform="matrix(4.4862 0 0 4.4867 -1190.9 -2609)" stroke-width=".138" stroke="#000"/><path d="M383.78 642.59c.09 0 .105.077 0 .078l-5.937.057c-.104 0-.092-.077 0-.078l5.937-.057z" fill="#fff" transform="matrix(4.4862 0 0 4.4867 -1190.9 -2609)" stroke-width=".138" stroke="#000"/><path d="M384.15 645.91c.09 0 .104.078 0 .078h-6.562c-.104 0-.09-.078 0-.078h6.562zm6.44 4.73c.09 0 .104.078 0 .078h-7.072c-.104 0-.09-.078 0-.078h7.072zm.1-5.91c.09 0 .103.08 0 .078l-7.226-.07c-.104-.002-.09-.08 0-.08l7.226.072zm-6.68 10.39c.09 0 .103.08 0 .078l-6.357-.042c-.104 0-.09-.08 0-.078l6.357.042zm6.21.86c.09 0 .103.08 0 .078l-5.588-.074c-.104 0-.09-.08.002-.078l5.586.074z" transform="matrix(4.4862 0 0 4.4867 -1190.9 -2609)" stroke-width=".138" stroke="#000"/><path d="M395.26 657.05c.157-.35.18-1.15.09-1.455a1.106 1.106 0 0 1-.648-.04 2.973 2.973 0 0 0-.34-.106c-.023.4-.17 1.423-.35 1.82-.313.09-.946-.016-1.306-.13l-.262.943a3.45 3.45 0 0 0 1.452-.01c-.035.602-.114 1.15-.44 1.527.532.013 1.007-.065 1.18-.25a.403.403 0 0 1 .054-.05c.245-.41.252-.943.31-1.303.182.013.416-.04.52-.143s.273-.156.442-.143c.154.014.394-.02.7-.14.007-.186.043-.386.106-.56.034-.095.07-.253.102-.444-.387.185-1.25.494-1.61.483z" transform="matrix(4.4862 0 0 4.4867 -1190.9 -2609)" stroke-width=".138" stroke="#000" fill="#ef072d"/><path d="M370.46 623.2c-.79.023-2.513.04-2.875.242-.36.204-.52.294.113.407s1.704.41 2.29.773c.588.36 1.08 1 .918 1.914-.485 2.742.95 5.38 3.027 6.375.2.096.25.17.204.542s-.18.995-.294 1.153c-.113.16-.17.42.192.294a25.68 25.68 0 0 1-.97 1.63c-1.662-.204-3.017.022-3.142 1.762-.012.17.046.44.305.012.26-.43.554-.837 1.265-.95-.418.644-.553 1.22-.485 1.594.067.373.17.6.35.124a2.79 2.79 0 0 1 .87-1.187c.135-.1.226-.124.124.17s.045.927.25 1.142c.202.213.304.123.247-.227-.06-.35.03-1.084.46-1.312.62-.326 1.152-.157 1.4.273.25.43.464.023.193-.463s-.554-.826-1.006-.86c.395-.7.858-1.55.96-1.718.1-.17.26-.25.395-.148.136.102.226.09.362-.192.135-.283.372-1.12.71-1.458.17-.046.442-.113.543-.204.44.645.836 1.358.938 1.516.1.158.215.226.113.554s-.45 1.37-.508 1.595c-1.232.045-1.796.067-2.192.757-.172.3.103.418.397.26.293-.158.71-.294.926-.26.215.034.316.144.1.25-.754.372-1.227.846-1.195 1.502.01.237.11.355.294.034.26-.452.735-.904 1.31-1.03-.033.555.092 1.37.43 1.54.34.168.363-.004.237-.33-.203-.52.008-1.042.26-1.322.53-.588 1.74.226 1.966.43.226.203.432.288.305-.238-.17-.7-1.165-1.107-2.01-1.22.235-1.142.87-3.448 1.207-4.24.497.272.885-.443 1.717-.135 1.4.52 3.5 1.83 3.863 2.126.36.294.497.226.678.068.18-.158.497 0 .745.045.248.046.474.114.157-.52-.316-.63-1.084-1.74-2.372-2.6.768.07 1.808.07 1.808-.134 0-.204-1.197-.588-1.694-.633.475-.113 1.198-.385 1.536-.77.2-.226-.04-.28-.745-.293-2.17-.044-3.255-.027-4.385-.677-1.807-1.04-2.84-2.135-3.728-2.6-.474-.25-.763-.823-.946-1.32-.586-1.582-.557-2.294-1.935-2.814s-2.963.115-3.686.77z" transform="matrix(4.4862 0 0 4.4867 -1190.9 -2609)" stroke-width=".138" stroke="#000"/><path d="M370.55 623.56c-.35-.013-1.04-.096-1.61-.04-.13.014-.287.08.025.118s1.156.246 1.455.35.17.26-.09.195-.357.03-.144.182c1.105.78 1.222 1.08.936 3.755.208.143.377.247.56.338s.13.22-.066.17-.377.064-.065.13.457.207.16.194c-.3-.013-.65.247-.066.182.584-.065.818.208.13.22-.69.014-.43.235-.065.235.65 0 .453.18.285.18-.17 0-.247.22.182.18.428-.04.597-.05.753-.025s.22.155-.014.17c-.234.01-.22.18.13.18s.497.106.182.17c-.13.025-.31.09.065.142.65.09.676.246.468.272s-.232.142.067.17c.298.024.558.115.312.18-.248.065-.378.21-.067.234.313.026.573.143.34.22s-.287.222.012.21.416.155.208.27c-.208.118-.35.196-.48-.01-.13-.21-.208-.274-.247-.118-.04.154-.13.05-.234-.183s-.286-.3-.234-.117-.182.208-.403.117c.82.83 2.027 1.585 3.95.805.164-.067.195 0 .325.272s.494.87.624 1.092.234.022.3-.195c.26-.86.454-1.496.532-1.73.078-.233.442-.467.325.35.286-.194 1.553-.38 2.534-.012 1.08.404 2.163 1.03 2.717 1.444a.624.624 0 0 0 .494.142c.26-.026.325-.065-.17-.52-.492-.455-.284-.676.027-.455.313.22.48.09.248-.182s-.792-.805-.974-.935-.208-.182-.624-.208-1.3-.026-1.56-.026-.338.026.234.234c.572.207 1.742.96 2.002 1.143s.442.598-.13.234-2.365-1.48-3.56-1.896c-2.73.183-4.886.547-6.497-1.22-.774-.846-.808-2.78.49-3.587-.26-.22-.22-.35-.116-.403s.144-.104.04-.234c-.103-.13-.09-.247 0-.3-.285-.155-.415-.337-.402-.532-.35-.08-.507-.495-.975-.365s-.702.025-.844-.09c-.145-.12-.26-.17-.52-.145s-.47-.078-.482-.208.22-.193.573-.04c.74.326 1.338.482 1.793-.13.455-.61-.13-1.18-1-1.35-.87-.17-1.508.468-1.833.767z" transform="matrix(4.4862 0 0 4.4867 -1190.9 -2609)" stroke-width=".138" stroke="#000" fill="#fff"/><path d="M374.92 623.33c-.262-.284-.728-.546-.96-.624-.235-.078-.26.156-.13.273-.105.153-.144.53.038.634s.184.252.013.337c-.26.13-.17.82.22.625.13-.065.237-.04.21.065s.027.235.144.26.104.196.078.26.014.09.144.105.143.325-.09.43c.285 0 .363-.053.44.18.08.234.39.286.39.572s-.05.338-.39.286-.467.052-.57.182-.13.26.13.273.31.13.05.246-.687.04-.752.286c-.064.246 0 .363.195.272.194-.09.597-.26.753-.35s.3-.104.43.104.025.44-.196.26c-.22-.182-.325-.014-.455.09s-.326.17-.534.17c-.207 0-.35.026-.324.493.08 1.403 1.17 2.442 3.17 2.416s2.99-.052 3.29-.013c-.664-.364-1.08-.56-1.314-.533s-.43.066-.325-.116-.012-.182-.116-.26-.234-.182-.44.04-.704.467-.95.52-.547.038-.313-.196.754-.313.91-.417.156-.166.156-.244-.04-.3.26-.13c.598.338 1.534.844 1.78.83s.417-.116.196-.26-.287-.35-.22-.427.102-.157.492.064c.39.22 1.025.506 1.26.61s.545.065.064-.286c-.48-.35-1.974-1.34-2.39-1.65s-.234.064-.195.18-.286.26-.455.118-.286-.3-.052-.43.286-.142-.065-.454c-.35-.31-.454-.284-.376-.025.08.26.105.546-.26.403s-.545-.31-.31-.454c.233-.142.532-.22.142-.545s-.273 0-.364.183-.39.182-.56.04-.246-.287-.13-.404.105-.184.274-.093.43.04.117-.234-.43-.156-.364 0-.18.43-.57.065c-.185-.173-.182-.404.013-.443.193-.04.212-.14.076-.338-.792-1.157-.467-2.093-1.26-2.95z" transform="matrix(4.4862 0 0 4.4867 -1190.9 -2609)" stroke-width=".138" stroke="#000" fill="#fff"/><path d="M491.65 188.413c-.306.457-.418.44-.983.816-.696.46-.853 1.783.314 1.626.81-.108 1.28-.588 1.6-.978a9.983 9.983 0 0 0-.93-1.468zm-3.635-2.917c-.897.87-1.054 1.26-.596 1.26.54 0 .31.077-.08.7-.39.625.78.934 1.243.468s.543-.624.776 0c.19.507.956.026 1.44-.463-.794-.764-1.86-1.473-2.786-1.962zm-1.615 5.025c-1.166.587-.77 3.68.987 2.8.584-.29 1.05-.172.934.295-.06.246-.02.53.11.753a5.405 5.405 0 0 0 1.934-1.395c1.09-1.242.076-1.165-1.552-1.165-1.632 0-2.1-.31-.547-1.243 1.39-.835.485-1.414-1.44-1.144.278.395.14.826-.422 1.104zm6.685 6.868c-.857-.933-.314-1.4.62-1.866a1.21 1.21 0 0 0 .497-.426c-.265-1.027-.476-2.014-.754-2.974-.49.138-1.058 1.228-1.22 1.766-.233.777-.467 1.243-1.243 1.01-.69-.207-1.38.57-1.525 1.4.108.045.274.076.494.098.323.032.484.472.385.938 2.1-.067 2.46 1.387 2.82 2.383.39 1.09.856.933 1.166.314.31-.625-.39-1.71-1.243-2.644z" fill="#cf6200"/><path d="M493.668 209.59c-.38.86-.39.776-1.633.852-1.243.08-2.808.292-3.495 1.014-.372.386-2.52.49-2.525 1.436-.01.95 0 1.75.933 1.808.928.058 1.045.175.7.875-.355.7-.584 1.867 1.045 1.983 1.633.117 2.8-.408 3.208.52.41.934-.03 2.423.294 2.975s1.427.907 3.136 1.436c1.14.352 5.44.553 6.764.4 1.32-.156.826-.946-.498-1.062-1.32-.118-2.292-.31-2.602-1.28-.31-.974-.583-1.48.157-2.293.738-.816 1.478-1.44 1.05-2.8-.43-1.36-1.13-2.956-2.68-3.383-1.557-.426-1.064-2.552-2.607-2.76-.582-.075-1.085-.075-1.242.275z" fill="#ff0"/><path d="M486.13 222.242c1.338.117 2.505.525 1.4.817-1.107.29-1.69.93-.295 1.05 1.4.113 2.566.64 1.516.99s-1.28.99.06.932 1.868.7.935 1.22c-.933.525-1.575.875-2.158-.054-.58-.934-.93-1.226-1.104-.526-.174.696-.582.233-1.05-.816s-1.282-1.343-1.05-.526-.815.933-1.806.525c.978.99 2.077 1.955 3.328 2.77 1.432-.488 3.01-.09 3.55-.035.582.06 2.39.467 3.382.992s1.633-.408 1.224-1.458c-.407-1.047-.465-.697-.99-.118-.525.583-.642-.233-.583-1.453.05-1.033-.642-.76-.875-.118s-.76-.408-.467-1.05-.058-.875-.583-.7-.584 0-.642-1.167-.584-.99-.76-.524-.64-.174-1.34-1.108c-.61-.816-1.314-.336-2.535.148.153.09.43.166.848.202z" fill="#cf6200"/><path d="M500.308 229.466c-6.37 2.584-10.965 1.436-14.423-.857 1.43-.49 3.04-.075 3.58-.02.583.06 2.39.466 3.382.99s1.633-.41 1.225-1.46c.875 1.11 1.516 1.87 2.56 1.81 1.05-.06 2.8-.233 3.676-.466zm-13.594-29.343c-.39-1.32-.776-1.633-1.475-1.553-.7.077-1.01-.08-1.79-.39s-1.79.076-1.946 1.476-1.01 2.1-2.176 2.953c-1.167.853-1.867 1.553-1.867 2.953s-.31 1.786-1.085 2.8c-.345.45-.834.96-1.292 1.498.503.316.974.59 1.467.83.817.41.583.993-.29.76s-1.693.29-.293.583 2.036.933.7.875c-1.34-.06-2.917 1.107-.293.816 2.62-.292 3.67.933.583.99-3.09.06-1.923 1.05-.29 1.05 2.91 0 2.037.818 1.283.818-.758 0-1.108.99.816.816.025-.003.05-.008.08-.008.277-.287.484-.646.636-1.1.31-.932.62-3.656 1.71-4.432 1.085-.776 1.632-1.866 1.632-2.643s1.628-4.195 2.72-5.052 1.555-2.72 1.164-4.042z" fill="#ff0"/><path d="M484.427 200.168c-1.104-.736-2.176-.31-2.176 1.09s-.7 1.786-1.63 2.252c-.93.467-1.786 1.633-1.943 2.724-.152 1.086.157 1.785-.62 2.642-.78.853-.856 1.553-.31 2.02.544.466.544.547.778 1.242.233.7 1.552-.076 1.552-.852s.314-.776 1.166-1.243c.858-.467 2.258-2.723 1.944-3.343-.31-.623-1.086-1.166-.076-2.023 1.01-.853 2.1-.933 2.1-1.786 0-.854.31-1.163.62-1.473.313-.314-.7-.78-1.4-1.247z" fill="#cf6200"/><path d="M484.427 199.046c-.727-.283-1.162 1.243-.153 1.476s1.166-1.09.153-1.476zm-.18 1.974c-.772.094-1.633 1.108-.35.933s1.808-1.108.35-.933zm-1.525 1.885c-.794.4-.642 1.458.525.7s1.458-1.692-.525-.7zm-1.256 1.615c-.8.395-.642 1.454.525.7 1.17-.758 1.46-1.692-.522-.7z"/><path d="M479.85 205.283c-.793.4-.29 1.458.875.7s1.11-1.692-.874-.7zm.988.987c-.794.4-.292 1.458.874.7s1.108-1.692-.874-.7z"/><path d="M479.447 206.673c-.794.4-.292 1.46.875.7s1.108-1.69-.875-.7zm.897 1.122c-.798.4-.292 1.458.87.7 1.167-.758 1.11-1.69-.87-.7z"/><path d="M478.998 208.468c-.794.395-.29 1.454.875.696s1.108-1.687-.875-.696z"/><path d="M479.088 209.5c-.794.4-.292 1.458.875.7s1.108-1.69-.875-.7z"/><path d="M478.46 219.326c-.803.103-1.32 1.247-.31 1.48s1.243.31 1.243 1.086.314 1.867 1.4 1.943c1.09.08 2.023-1.166 1.09-1.552-.933-.39-1.79-.7-1.866-1.557-.077-.853-.934-1.476-1.557-1.4z" fill="#cf6200"/><path d="M507.082 212.64c.143.18.323.378.53.553.757.64 2.215 0 2.04-.525s-.99-2.217.875-.817 8.57 5.836 10.727 7.406c2.158 1.575.758 1.75-.292 1.283s-3.907-1.75-5.652-2.738c-1.75-.99-1.925-.64-2.217-.29-.246.29-.05.996.593 1.593-1.04.152-2.733-.077-3.217-1.185-.586-1.34-1.986-2.975-2.977-4.258-.368-.476-.476-.772-.413-1.02z" fill="#ff0"/><path d="M564.91 403.64c-1.455.99-3.38 2.74-2.1 5.186.152-.08.296-.175.444-.26 5.702-6.9 10.582-14.156 14.764-21.693.05-.26.094-.507.125-.723-1.633 1.4-4.2 2.796-5.25 3.146.7 1.866-2.56 4.316-4.31 5.016.7 1.166.467 2.916-1.05 3.266.35 1.045-.816 1.045-2.216 1.63s-2.1 1.05-2.56 1.75c.752-.41 1.802-.76 2.385-.585s.7 1.05-.35 1.283-1.745.817-2.1 1.284c1.517-.584 3.675-.292 2.217.7z" fill="#00d860"/><path d="M375.97 628.41c-.384-.335-.48-.13-.325.078s.04.312-.3.364-.844.117-1.052.117-.454.283.04.26c.493-.03 1.325-.198 1.546-.29s.4-.26.09-.532zm.75.59c-.317-.285-.43-.208-.35 0s-.066.247-.273.312c-.208.065-1.027.338-1.378.377s-.43.283.09.27 1.52-.43 1.635-.507.156-.234.286-.156.248-.066-.012-.3zm.24.83c-.23.137-.805.39-1.04.454s-.428.325.066.286c.493-.04 1.078-.494 1.234-.584.156-.09.234-.156.364-.143s.364-.17-.065-.403-.69-.117-.484.065.052.247-.078.325z" transform="matrix(4.4862 0 0 4.4867 -1190.9 -2609)" stroke-width=".138" stroke="#000"/><path d="M482.05 187.515c-2.85-1.87-6.102 2.05-2.953 4.2 2.76 1.884 5.675-2.41 2.952-4.2z"/><path d="M478.505 189.22l.843.06c-.175.87.7 2.184 2.04 1.86-1.075.817-3.175-.116-2.883-1.92zm11.035 42.49c.862.25 3.854.556 4.868.605-.507 1.068-.964 1.777-1.27 2.54-.304.758-.452.812-.506-.355-.05-1.17-.71-1.93-1.315-.713-.61 1.22-.915 1.673-1.215 2.18-.305.507-.763.714-.61-.556s.103-2.59.05-3.7z" fill="#fff"/><path d="M399.67 640.77c-.046 16.332-2.623 33.927-23.764 42.308-21.142-8.38-23.72-25.976-23.765-42.308h47.53zm0 0c.018-6.152-.324-12.125-.168-17.36-7.9-3.534-18.295-4.26-23.596-4.26-5.302 0-15.697.726-23.597 4.26.153 5.235-.188 11.208-.17 17.36h47.53z" transform="matrix(4.4862 0 0 4.4867 -1190.9 -2609)" stroke="#000" stroke-width=".275" fill="none"/></svg>