<svg xmlns="http://www.w3.org/2000/svg" viewBox="0 0 640 480"><defs><clipPath id="a"><path fill-opacity=".67" d="M-15.067 0h682.67v512h-682.67z"/></clipPath></defs><g fill-rule="evenodd" clip-path="url(#a)" transform="translate(14.125) scale(.9375)" stroke-width="1pt"><path fill="#fff" d="M-62 0H962v512H-62z"/><path fill="#de2918" d="M-62 341.33H962V512H-62z"/><path fill="#08399c" d="M-62 170.67H962v170.67H-62z"/><path d="M228.37 92.976c-4.02 61.65-6.322 95.436-15.71 111.07-10.15 16.79-20.024 29.08-59.63 43.882-39.61-14.81-49.48-27.1-59.632-43.89-9.387-15.63-11.69-49.41-15.71-111.06l5.854-1.97c11.783-3.595 20.574-6.485 27.077-7.768 9.31-1.97 17.225-4.2 42.254-4.722 25.03.43 32.983 2.797 42.296 4.768 6.45 1.375 15.618 4.08 27.313 7.744l5.884 1.948z" fill="#de2918"/><path d="M222.6 90.955c-3.802 61.518-6.983 89.69-11.943 103.24-9.626 23.193-24.866 35.91-57.665 48.038-32.8-12.14-48.04-24.86-57.664-48.05-4.96-13.54-8.095-41.64-11.788-103.3 11.534-3.602 20.577-6.418 27.08-7.7 9.313-1.972 17.228-4.294 42.257-4.725 25.03.43 33.037 2.753 42.35 4.724 6.503 1.283 15.732 4.098 27.373 7.763z" fill="#08399c"/><path d="M152.96 109.79l1.573 3.723 6.91.947-4.478 2.7 4.33 2.894-6.298 1.055-1.916 3.37-2.153-3.473-5.995-.85 4.08-2.96-4.2-2.69 6.636-1.017 1.515-3.702z" fill="#fc0"/><path d="M208.28 179.62l-3.83-3.028-2.77-4.554-5.42-4.704-2.827-4.753-5.423-4.85-2.653-4.752-2.883-2.327-1.903-1.832-4.896 4.295-2.67 4.665-3.326 3.016-3.655-2.854-2.762-4.87L153 134.856l-10.26 18.217-2.763 4.867-3.654 2.852-3.327-3.016-2.67-4.665-4.898-4.293-1.904 1.832-2.883 2.326-2.65 4.752-5.423 4.85-2.825 4.754-5.422 4.705-2.768 4.554-3.822 3.1c1.984 16.885 12.748 30.115 18.613 36.167 6.547 6.354 20.04 14.857 36.54 20.485 16.55-5.507 30.23-14.13 36.776-20.485 5.864-6.053 16.63-19.283 18.624-36.24z" fill="#fff"/><path d="M169.45 83.89l1.573 3.723 6.91.947-4.478 2.7 4.33 2.894-6.298 1.055-1.916 3.37-2.153-3.473-5.995-.85 4.08-2.96-4.2-2.69 6.636-1.017 1.515-3.702zm-32.98-.056l1.573 3.723 6.91.947-4.478 2.7 4.33 2.894-6.298 1.055-1.916 3.374-2.153-3.474-5.995-.85 4.08-2.958-4.2-2.69 6.636-1.018 1.515-3.703z" fill="#fc0"/><path d="M199.72 203.03l-7.468.023-6.892-.513-8.348-4.094-9.41.056-8.148 3.98-6.427.57-6.428-.57-8.15-3.98-9.41-.056-8.348 4.094-6.892.513-7.56-.104-3.653-6.19.136-.14 11.172 1.846 6.89-.512 8.35-4.095 9.41.057 8.147 3.98 6.427.57 6.426-.57 8.148-3.98 9.41-.057 8.347 4.097 6.893.512 10.874-1.908.143.286-3.642 6.18zm-86.47 9.51l7.393-.513 8.348-4.094 9.41.057 8.15 3.98 6.428.57 6.427-.57 8.15-3.98 9.41-.057 8.346 4.094 7.493.513 4.835-5.96-.163-.135-5.18 1.51-6.892-.512-8.347-4.094-9.41.053-8.148 3.98-6.428.57-6.43-.57-8.15-3.98-9.407-.056-8.347 4.093-6.892.514-5.077-1.28-.06.25 4.542 5.614z" fill="#08399c"/></g></svg>