<svg xmlns="http://www.w3.org/2000/svg" viewBox="0 0 640 480"><g fill-rule="evenodd" stroke-width="1pt"><path fill="#19b6ef" d="M0 240h640v240H0z"/><path fill="#fff" d="M0 0h640v240H0z"/></g><path d="M317.07 339.22c52.45-39.238 108.96-119.305 42.74-161.41-12.336-2.387-26.107-1.67-32.713 3.583-3.5-1.99-6.288-1.83-9.79 1.91-2.466-3.025-4.935-4.38-10.028-2.865-10.19-5.173-19.42-6.288-31.52-3.105-57.623 34.622-22.366 116.76 41.31 161.888z" fill-rule="evenodd" stroke="#7d6c00" stroke-width="2.369" fill="#fd0"/><g stroke="#3a9d4f"><path stroke-linejoin="round" d="M414.08 250.106s5.903-7.94 6.106-7.94c5.904-3.46 6.515-7.937 6.515-7.937 5.906-1.836 4.07-6.72 4.48-7.33 2.85-3.054 1.833-6.11 1.426-7.127 0-.812 2.036-8.345-.814-9.362.136-8.007-4.817-7.26-8.753-2.035-4.208 1.22-5.158 4.682-3.665 8.55-5.497 0-5.7 7.94-4.07 12.416-7.33-.202-3.258 7.94-3.462 8.348-2.44 1.22 1.833 12.823 2.24 12.415zM367.857 318.3l3.664 2.24c.75 2.78 3.328 4.546 5.297 4.07.95 4.275 5.563 3.666 8.956 1.222 2.715 3.936 6.04 4.005 10.587 2.647 4.07 2.982 9.363 1.693 12.823-1.43 3.732 3.054 6.244.816 8.143-2.44 2.917.746 5.224.272 6.31-2.647 5.7-.474 2.85-5.835-1.83-8.142 3.73-3.257 7.87-9.974 2.035-10.992-1.83-1.358-5.29-1.086-7.94.203-.675-2.986-4.816-3.732-9.362-.407-1.56-3.325-6.99-1.764-9.568.61-3.257-2.85-7.125-2.85-12.825.407l-16.288 14.66zm0-8.745c.678-3.73-1.9-10.517 2.035-11.195-.746-6.243.34-13.3 7.532-12.62 1.155-5.904.883-11.4 7.736-12.216 0 0 5.497-19.134 11.197-5.903 2.24 3.87 1.832 10.18-2.647 8.96.883 4.75-.678 8.89-5.903 8.753 2.307 3.325 1.56 7.873-1.018 9.977-6.314 4.747-12.62 9.5-18.935 14.247zm33.18-23.82l5.904-1.22c6.11-4.07 8.55-5.7 11.606-1.223 5.09-1.086 9.974-.543 9.77 3.46 6.04.408 5.972 4.275 5.295 7.33.95 5.36-1.36 12.35-5.09 3.866-11.807-7.192-18.525-6.243-37.253-2.035l9.77-10.178zm3.065-5.913c.205-.203 17.507-4.682 15.675-9.974 4.885-.815 5.904-5.7 6.108-5.7 10.177-3.256 9.566-9.16 9.566-9.16 2.92-3.123 8.078-6.244 6.925-11.808.34-6.31.882-10.177-7.532-6.106-6.31-.612-8.55 3.053-10.38 8.55-2.986-3.528-7.803 2.104-8.346 7.124 0 0-7.736 7.532-7.736 7.735s-6.513 12.01-6.513 12.01l2.238 7.33z" fill-rule="evenodd" stroke-width="2.369" fill="#4fd46b"/><path stroke-linejoin="round" d="M404.502 266.397c-4.14-3.122-6.446-6.853-5.7-10.586-2.713-3.66-4.614-5.9-2.035-9.16 0 0-2.036-7.326-2.036-7.53-5.29-2.034-3.05-6.512-1.626-8.14-2.51-3.46-2.578-7.127-.203-10.383-.07-6.515 4.546-4.07 8.345 0 0 0 6.31 4.48 1.63 8.55 4.68 1.63 6.107 5.698 3.46 7.327 4.07 1.833 4.68 5.497 2.442 7.94 4.14 3.326 2.58 7.465 3.868 11.196l-8.142 10.79z" fill-rule="evenodd" stroke-width="2.369" fill="#4fd46b"/><path stroke-linejoin="round" d="M411.83 236.064c-.202-.203-6.92-8.753-5.088-9.364-.406-2.647-2.44-5.497-1.22-8.142-3.325-3.325-3.394-7.26-.815-10.38-2.24-3.054-1.22-7.125 1.832-9.772-.95-5.022 2.576-6.175 5.7-7.126 2.304-8.075 6.035-5.97 8.14.203 3.19 2.782 2.714 6.99 1.63 10.18 3.8 2.578 1.49 5.766-.205 7.124l-9.976 27.277z" fill-rule="evenodd" stroke-width="2.369" fill="#4fd46b"/><path stroke-linejoin="round" d="M410.815 193.106l-5.7-5.7c1.473-3.02 2.66-8.344-1.627-10.79-2.364-5.756-14.182-12.89-16.083.816-1.8-4.136-5.563-8.21-8.345-3.46-6.175-5.292-9.5-3.665-6.31 3.053 0 0-2.85 4.478 4.68 7.94.612.61-2.44 8.14 6.516 8.344-1.696 2.576 1.086 6.172 4.682 5.9-2.58 3.19 1.764 6.583 4.477 5.294-1.154 3.528-1.086 5.225 3.868 5.7l5.497 6.31 4.477 6.106 3.868-29.515z" fill-rule="evenodd" stroke-width="2.369" fill="#4fd46b"/><path d="M414.28 246.508c.288-.288 10.938-24.757 12.378-32.243M415.43 203.05s1.726 19.864-3.167 34.545m-29.648-54.7s21.88 21.015 23.893 29.65m-8.635-31.95s1.44 17.275 7.484 34.26m31.093 28.488s-21.88 18.425-32.53 34.545m11.792 29.952s-28.788 4.03-41.454 4.318m31.96 8.057s-35.698-.864-38.29-3.454m20.433-42.9c0 .288-18.133 30.227-18.71 40.016" stroke-linecap="round" stroke-width="2.22" fill="none"/></g><path d="M316.87 333.44c-37.768-35.623-76.454-102.48-37.972-136.27 6.84 3.88 14.903.41 26.03-3.98 3.368 3.675 7.654 4.595 11.942 1.838 4.797 2.042 8.37.408 10.718-2.144 10.922 6.33 24.906 9.596 28.172 3.37 37.87 35.93-.51 103.095-38.89 137.187z" fill-rule="evenodd" stroke="#7d6c00" stroke-width="2.369" fill="#65c7ff"/><path d="M317.086 332.408c-16.22-16.307-31.017-34.385-42.347-57.66 1.936-1.632 2.84-2.138 3.86-4.997 5.816.82 8.88 1.024 16.534-.303 1.53 5.717 1.837 10.514 5.51 15.31l7.657-15.004c5.206 1.227 11.638 1.534 16.536 0 3.165 4.29 2.042 10.72 7.656 15.62 3.368-9.9 6.738-10.616 10.106-15.925 5 1.736 8.166 1.02 12.25-.307 2.142 2.45 1.07 2.41 4.974 6.008-10.233 20.32-24.265 40.728-42.74 57.263z" fill-rule="evenodd" fill="#8fc753"/><path d="M272.65 164.304a3.346 3.346 0 1 1-6.692 0 3.346 3.346 0 0 1 6.692 0zm-3.492-7.71a3.346 3.346 0 1 1-6.69 0 3.346 3.346 0 0 1 6.69 0zm-4.073-7.13a3.346 3.346 0 1 1-6.692 0 3.346 3.346 0 0 1 6.692 0zm-2.764-6.982a3.346 3.346 0 1 1-6.69 0 3.346 3.346 0 0 1 6.69 0zm.44-7.564a3.346 3.346 0 1 1-6.69 0 3.346 3.346 0 0 1 6.69 0zm17.662-12.51a3.346 3.346 0 1 1-6.69 0 3.346 3.346 0 0 1 6.69 0z" fill-rule="evenodd" stroke="#000" stroke-width="1.111" fill="#fff"/><path d="M273.814 123.57a3.346 3.346 0 1 1-6.692 0 3.346 3.346 0 0 1 6.692 0zm-7.274 4.365a3.346 3.346 0 1 1-6.692 0 3.346 3.346 0 0 1 6.692 0zm22.403-5.383a3.346 3.346 0 1 1-6.692 0 3.346 3.346 0 0 1 6.695 0zm9.31.728a3.346 3.346 0 1 1-6.69 0 3.346 3.346 0 0 1 6.69 0zm8.293-.437a3.346 3.346 0 1 1-6.692 0 3.346 3.346 0 0 1 6.692 0z" fill-rule="evenodd" stroke="#000" stroke-width="1.111" fill="#fff"/><path d="M325.874 117.504a8.583 8.583 0 1 1-17.166 0 8.583 8.583 0 0 1 17.166 0z" fill-rule="evenodd" stroke="#7d6c00" stroke-width="1.111" fill="#fd0"/><path d="M334.913 122.698a3.346 3.346 0 1 1-6.692 0 3.346 3.346 0 0 1 6.695 0zm8.73.727a3.346 3.346 0 1 1-6.692 0 3.346 3.346 0 0 1 6.694 0zm8.437-.437a3.346 3.346 0 1 1-6.693 0 3.346 3.346 0 0 1 6.692 0zm7.127-.29a3.346 3.346 0 1 1-6.692 0 3.346 3.346 0 0 1 6.692 0zm8.875 1.018a3.346 3.346 0 1 1-6.692 0 3.346 3.346 0 0 1 6.692 0zm6.982 4.364a3.346 3.346 0 1 1-6.692 0 3.346 3.346 0 0 1 6.692 0z" fill-rule="evenodd" stroke="#000" stroke-width="1.111" fill="#fff"/><path d="M269.414 151.697c2.85 5.42 5.698 11.05 8.548 16.47h79.23l9.174-15.846c-5.352-3.68-9.035-6.53-16.68-4.792-4.31-6.185-9.035-7.366-16.054-6.67-2.086-2.155-3.963-3.476-7.508-3.962l-16.678.416c-4.38.417-7.716 3.754-7.924 3.754-7.09-.835-13.552-.627-15.22 6.254-6.463-1.6-11.05.14-16.888 4.38z" fill-rule="evenodd" stroke="#ac0000" stroke-width="2.369" fill="#e40000"/><path d="M377.974 135.354a3.346 3.346 0 1 1-6.692 0 3.346 3.346 0 0 1 6.692 0zm.582 7.856a3.346 3.346 0 1 1-6.692 0 3.346 3.346 0 0 1 6.692 0zm-2.474 7.274a3.346 3.346 0 1 1-6.692 0 3.346 3.346 0 0 1 6.692 0zm-3.055 5.964a3.346 3.346 0 1 1-6.692 0 3.346 3.346 0 0 1 6.692 0zm-3.637 7.565a3.346 3.346 0 1 1-6.69 0 3.346 3.346 0 0 1 6.69 0zm-46.824-9.59a4.946 4.946 0 1 1-9.893 0 4.946 4.946 0 0 1 9.893 0z" fill-rule="evenodd" stroke="#000" stroke-width="1.111" fill="#fff"/><path d="M323.546 143.045a5.964 5.964 0 1 1-11.93 0 5.964 5.964 0 0 1 11.93 0z" fill-rule="evenodd" stroke="#000" stroke-width="1.111" fill="#fff"/><path d="M322.685 131.995a5.383 5.383 0 1 1-10.765 0 5.383 5.383 0 0 1 10.765 0z" fill-rule="evenodd" stroke="#000" stroke-width="1.109" fill="#fff"/><path d="M315.487 109.055c0-.926-.028-4.165.037-4.295l-3.572-.064.102-3.175 3.1-.034.037-2.775h4.398v2.544h3.47l-.072 3.378-3.6-.035-.03 4.526-3.867-.064z" fill-rule="evenodd" stroke="#7d6c00" stroke-width="1.111" fill="#fd0"/><path d="M277.56 168.17c-7.092-12.023-17.51-28.367-11.053-35.444 8.955-10.143 29.953-.973 43.367-6.88.972 11.467-2.224 30.44 2.92 34.402l-4.796 4.17c-2.92-3.753-8.418-8.782-15.22.208-3.892-3.403-8.316-2.805-10.4 1.72-1.982.267-1.867 1.06-4.82 1.824zm80.12-.416c7.09-12.023 17.51-28.367 11.05-35.444-8.954-10.143-29.95-.973-43.365-6.882-.973 11.47 2.223 30.44-2.92 34.404l4.795 4.17c4.614-6.49 10.373-6.7 15.22.207 3.893-3.406 7.925-2.94 10.4 1.72 1.983.265 1.868 1.06 4.82 1.822z" stroke="#fd0" stroke-width="3.331" fill="none"/><path d="M277.343 177.132c28.495-2.918 54.904-1.877 79.23 0l3.127-8.967c-27.66-5.003-46.773-5.628-82.982-.624l.625 9.59z" fill-rule="evenodd" stroke="#7d6c00" stroke-width="2.369" fill="#fd0"/><path d="M314.12 329.377c.206-1.43.41-2.762.614-4.19 2.834.762 4.996.467 7.35-.403.815-1.225 1.633-2.45 2.45-3.676l-1.838-2.142c-1.615.348-2.94 1.85-3.98 3.158-1.628.077-3.064-.71-4.595-1.016l-1.53-6.43c-1.52-1.795-4.67-1.668-3.98 1.53l.308 2.45c.613 1.532.84 3.64 1.837 4.786v2.51c1.123 1.142 2.246 2.28 3.368 3.423zm1.217-18.29c-2.13 1.056-4.66-.78-7.35-1.837-2.45-.168-4.418 1.872-7.348 1.224.532-1.59 1.834-1.837 2.754-2.756-.673-4.13 1.53-5.512 2.144-5.512.61 0 3.06.613 3.06.613l2.45.303c1.43 2.654 3.433 5.02 4.286 7.962z" fill-rule="evenodd" fill="#c76e2e"/><path d="M300.78 366.09c7.065-11.473 56.258-34.51 102.42-84.252-46.99 45.243-76.356 56.35-114.81 83.974l12.39.277z" fill-rule="evenodd" stroke="#e9bf00" stroke-width="2.369" fill="#ffe100"/><path d="M368.406 313.186a3.582 3.582 0 1 1-7.163 0 3.582 3.582 0 0 1 7.163 0zm34.38-34.863a4.06 4.06 0 1 1-8.118 0 4.06 4.06 0 0 1 8.118 0zm11.466-29.61a3.582 3.582 0 1 1-7.163 0 3.582 3.582 0 0 1 7.16 0zM403.02 210.28a3.582 3.582 0 1 1-7.164 0 3.582 3.582 0 0 1 7.164 0z" fill-rule="evenodd" stroke="#68300e" stroke-width="1.111" fill="#9d4916"/><path d="M279.125 269.595v-15.148l-1.54-1.283v-3.594l2.824-.257.51-16.945-1.797-1.028-.257-2.823s2.054.77 2.054.257.514-3.34.514-3.34-1.282-.255-1.282-.77 1.54-1.795 1.54-1.795-.77-.775-1.027-1.288-.77-2.823-.77-2.823l.77-2.825-.513-1.54-1.285-2.31 1.798-1.798s-.513-2.31-.513-2.824 1.282-2.567 1.54-2.825c.257-.258 2.31-3.08 2.31-3.08l4.365-1.03 5.135.77 2.824 1.8.513 4.62s-.515 2.823-.77 2.823-2.31 1.03-2.31 1.03-2.57.256-2.827 0 .77 3.08.77 3.08v3.08l-.256 3.852s0 1.798-.26 2.054c-.255.257-.77 1.028-.77 1.028l-.255 3.85 4.108 1.027-.256 2.313-2.825.257.514 15.66 4.108.77v4.367l-1.798 1.026-.513 15.66h-14.377zm62.397.266v-15.145l-1.54-1.282v-3.594l2.824-.257.513-16.945-1.8-1.028-.257-2.824s2.054.77 2.054.256.512-3.338.512-3.338-1.283-.257-1.283-.77 1.54-1.797 1.54-1.797-.77-.77-1.027-1.284-.77-2.822-.77-2.822l.77-2.824-.512-1.54-1.285-2.31 1.798-1.798s-.51-2.31-.51-2.823 1.28-2.566 1.54-2.824c.256-.256 2.31-3.08 2.31-3.08l4.364-1.027 5.135.77 2.823 1.8.513 4.62s-.513 2.823-.77 2.823-2.31 1.028-2.31 1.028-2.57.257-2.825 0 .77 3.082.77 3.082V218l-.254 3.85s0 1.798-.26 2.055c-.255.256-.77 1.027-.77 1.027l-.255 3.852 4.11 1.026-.258 2.312-2.824.256.515 15.66 4.11.77v4.366l-1.798 1.026-.513 15.66h-14.38zm-31.582.52v-15.15l-1.54-1.282v-3.594l2.825-.257.513-16.945-1.798-1.026-.256-2.823s2.054.77 2.054.257.513-3.338.513-3.338-1.28-.257-1.28-.77 1.54-1.798 1.54-1.798-.77-.77-1.027-1.283-.77-2.823-.77-2.823l.77-2.825-.512-1.54-1.283-2.31 1.797-1.8s-.512-2.31-.512-2.822 1.284-2.567 1.54-2.825c.258-.256 2.31-3.08 2.31-3.08l4.366-1.028 5.136.772 2.822 1.796.513 4.62s-.514 2.824-.77 2.824-2.31 1.028-2.31 1.028-2.57.256-2.826 0 .77 3.08.77 3.08v3.08l-.255 3.852s0 1.798-.26 2.054c-.257.258-.77 1.03-.77 1.03l-.256 3.85 4.108 1.026-.255 2.312-2.825.256.514 15.66 4.11.77v4.367l-1.798 1.027-.513 15.66h-14.38z" fill-rule="evenodd" stroke="#a9a9a9" stroke-width="1.111" fill="#fff"/><path fill-rule="evenodd" d="M282.923 269.495v-11.938h6.686v12.416l-6.69-.478zm31.515.95l.238-12.18h5.97v11.94l-6.208.24zm31.048-.234l-.478-11.46 6.448-.24v11.94l-5.97-.24zm-60.898-36.06h3.82v6.21h-3.82zm30.332.25h5.254v5.97h-5.253zm31.033.467h4.537v5.73h-4.537z"/><path d="M286.57 206.965c4.108 4.62 4.365 4.62 4.365 4.62m26.185-4.62c.77 1.54 2.053 4.877 3.594 5.133m29.27-4.368s1.284 3.595 3.08 4.108" stroke="#a8a8a8" stroke-width="1.111" fill="none"/><path d="M282.206 194.022c12.012-3.883-2.806-11.648-5.267 0-3.89.628-4.39 3.51-12.79 2.26-20.315 33.1-5.27 86.517 54.17 141.815-106.46-90.594-63.197-157.604-33.717-155.077 16.034 1.096 7.945 21.096-2.4 11.002z" fill-rule="evenodd" fill="#b97700"/><path d="M285.554 177.05s9.78 2.632 9.78 6.77m-.002-7.52s6.77 3.007 8.275 5.64m45.144-4.508s-8.65 1.13-10.53 3.76m-2.643-3.01s-4.888 4.137-4.514 5.264m3.4 12.79c-.753-.375-4.138-4.89-3.387-10.532m-29.728 7.536s2.257-2.634 2.257-7.525m13.55-1.887l.377 10.91m9.4-1.498c0-.754 3.01-7.9-.375-11.286m-20.312-1.507s-2.633 7.147-.75 13.165m19.94-6.77s-4.138 1.13-6.02 3.01m-11.67-1.893c0-.378 4.514-1.13 6.018 1.503" stroke="#7d6c00" stroke-width="2.369" fill="none"/><path d="M300.63 301.86c.19.096 3.745-.674 3.745-2.403 1.826-1.152.48-4.42.48-4.42l-3.36-.672-4.614-5.187c-.22-1.6.325-3.104-.67-4.802-3.17.833-4.993 3.49-6.05 6.53.77.963.865 2.02 2.306 2.883 1.504.254 2.528-.64 3.938-.386.736 1.28.51 2.37.767 3.555 1.923 1.344 2.307 3.266 3.46 4.9zm-4.132-22.188v-6.148l-4.42-.193c-.544.93-1.57 1.38-2.21 2.21l-3.073 1.54c1.28 1.538 2.85 2.4 3.843 3.17 2.242.674 4.1.674 5.86-.576zm-13.842 9.128l-2.402-4.036c1.473-.48 3.33-.288 4.707.29 0 0 1.06 2.497.29 3.457-.383.867-2.69.48-2.592.29zm36.512 4.13c1.28-.64 2.466-1.76 2.69-3.36l-4.42-5.092-4.033-.095c-.928-.96-2.434-1.153-3.65-1.153 0 0 1.25 1.92 2.882 2.306 1.153 2.59 6.148 7.395 6.53 7.395zm4.332.568c0-.095 3.937-1.44 6.05-1.248-.19-1.634 2.98-5.38 2.98-5.38l5.57 7.3c-1.024.865-2.818.577-4.227.865 0 0-2.69 2.594-2.978 2.69s-5.187 1.248-7.59-.19c-1.055-2.02.29-4.326.194-4.037zm3.164-12.776c.673-2.337.864-4.676 0-7.59 0 0-6.34-.096-6.34 0s-4.227 1.92-4.227 2.018 1.346 4.13 2.978 3.746c.736 2.146 2.913 1.6 3.938 2.402 1.217-.192 2.433-.385 3.65-.576zm24.886-6.43c-.865 2.66-1.345 5.51-.097 8.07 1.153.192 2.498.96 3.555.768l5.092-9.223c-3.523-1.12-6.373-.992-8.55.385z" fill-rule="evenodd" fill="#c76e2e"/><path d="M353.115 193.19c-12.01-3.884 2.807-11.65 5.267 0 3.886.627 4.39 3.51 12.79 2.258 20.313 33.102 5.266 86.518-54.17 141.816 106.457-90.594 63.194-157.604 33.715-155.077-16.034 1.096-7.946 21.096 2.398 11.002z" fill-rule="evenodd" fill="#b97700"/><path d="M354.33 284.67c-.19 0-3.072 2.112-3.072 2.112-1.378.544-2.753 1.09-4.13 1.634l-4.42.095-.96-3.07 3.362-2.98c-2.85-.416-5.7.705-7.974 2.787 0 0 0 3.36 1.922 4.995 1.153 1.44 4.514 4.037 4.514 4.037 2.114.415 4.13.062 5.476-1.06l5.283-8.55zm-23.252 30.165c1.443.385 11.337-12.776 11.337-12.776-.865-2.468-2.787-4.26-4.9-5.38 0 0-4.805 5.664-4.9 7.586-.767 1.73-2.976 8.357-2.017 9.223-.096.192-.48 2.88.48 1.344z" fill-rule="evenodd" fill="#c76e2e"/><path stroke-linejoin="round" d="M266.366 317.4c-14.817-12.887-34.81-19.99-62.716-10.35 7.51 3.248 15.628 4.364 22.53 7.915l40.186 2.435z" fill-rule="evenodd" stroke="#004100" stroke-width="2.369" fill="#006800"/><path d="M223.44 308.256c29.227.608 37.752 7.913 36.23 6.696" stroke="#00a400" stroke-linecap="round" stroke-width="2.22" fill="none"/><path stroke-linejoin="round" d="M266.965 318.916c-8.728 1.724-20.804 10.154-24.356 9.74-9.54-1.11-18.457-4.974-27.707-7.914-3.842-1.22-7.713 0-11.57 0 32.78-15.526 43.943-13.396 63.63-1.826z" fill-rule="evenodd" stroke="#004100" stroke-width="2.22" fill="#006800"/><path stroke-linejoin="round" d="M245.36 296.08s-10.958 1.52-15.83 1.825c-4.872-.303-11.954-4.842-19.79-13.09-4.087-4.48-13.394-3.958-13.394-3.958 20.602-4.365 36.634-.204 49.015 15.222zm-14.924-21.305c-14.92-.914-33.49-14.308-37.75-30.14-.003.203 5.478 3.45 4.565 4.264 24.46 6.19 26.084 11.16 33.188 25.873zm24.97 25.57c2.13-13.5 2.74-22.428-3.654-30.445-5.277-6.09-6.596-9.743-10.35-18.268-1.116 17.76-4.974 32.474 14.003 48.712zM231.952 262.9c11.06-16.138 12.99-28.316 11.264-47.496-.305 1.522-3.958 10.96-4.26 10.96-16.44 10.35-9.134 26.488-7.004 36.534z" fill-rule="evenodd" stroke="#004100" stroke-width="2.369" fill="#006800"/><path stroke-linejoin="round" d="M222.225 184.96c11.06 16.136 9.336 31.36 7.61 50.54-.305-1.523-3.958-10.96-4.26-10.96-16.44-10.35-5.48-29.534-3.35-39.58z" fill-rule="evenodd" stroke="#004100" stroke-width="2.369" fill="#006800"/><path stroke-linejoin="round" d="M231.353 209.93c26.79-13.498 16.438-30.648 21.31-43.84-18.57 13.802-21.006 28.515-21.31 43.84z" fill-rule="evenodd" stroke="#004100" stroke-width="2.369" fill="#006800"/><path d="M235 206.58c3.35-9.436 10.048-25.572 10.656-25.572m-18.568 45.362c-.608-6.7-3.956-24.662-4.26-26.488" stroke="#00a400" stroke-linecap="round" stroke-width="2.22" fill="none"/><path stroke-linejoin="round" d="M228.304 256.502c-14.92-.914-31.055-21.31-35.316-37.14 0 .2 5.48 3.45 4.566 4.26 21.412 9.54 23.646 18.166 30.75 32.88zm-4.43-14.008c-11.06-16.136-12.99-28.314-11.264-47.494.305 1.522 3.958 10.96 4.26 10.96 16.44 10.35 9.134 26.488 7.004 36.534zm9.91-28.3c27.704-12.28 19.18-25.167 27.4-38.665-18.57 13.8-27.095 23.34-27.4 38.662z" fill-rule="evenodd" stroke="#004100" stroke-width="2.369" fill="#006800"/><path d="M235 211.445c11.266-11.265 15.223-20.703 15.223-20.703" stroke="#00a400" stroke-linecap="round" stroke-width="2.22" fill="none"/><g fill-rule="evenodd"><path d="M333.56 366.355l13.49.275c-44.787-41.942-130.6-60.205-118.667-137.39-12.298 83.7 70.117 91.41 105.177 137.115z" stroke="#e9bf00" stroke-width="2.369" fill="#ffe100"/><path d="M235.417 212.66a4.298 4.298 0 1 1-8.596 0 4.298 4.298 0 0 1 8.6 0zm-2.632 23.637a4.06 4.06 0 1 1-8.118 0 4.06 4.06 0 0 1 8.118 0zm3.815 33.68a3.582 3.582 0 1 1-7.164 0 3.582 3.582 0 0 1 7.164 0zm31.276 37.246a3.582 3.582 0 1 1-7.163 0 3.582 3.582 0 0 1 7.163 0zm4.536 10.684a3.582 3.582 0 1 1-7.163 0 3.582 3.582 0 0 1 7.16 0z" stroke="#68300e" stroke-width="1.111" fill="#9d4916"/></g><g fill-rule="evenodd" fill="#fff"><g stroke="#000" stroke-width="1.111"><path d="M288.203 349.032c-2.355-2.134-3.853-3.503-4.777-5.828l-14.044-1.528-.19 8.024 19.01-.668z"/><path stroke-linejoin="round" d="M185.313 339.57c8.157 1.507 20.456-.752 24.472 4.518 4.822 5.465-15.093 13.872-12.24 18.6 6.16 6.517 12.5 3.83 19.393.226 1.624-3.523 2.878-9.804 3.766-11.672-2.51-5.773-9.253-8.6-7.53-17.32 11.37-4.25 33.23-3.897 35.583-2.258 1.848 3.623.187 5.273.564 8.16-1.88 3.64-6.725 9.81-6.735 13.074 11.93 4.203 15.074-.648 25.806-.363 12.575.155 20.225 3.53 22.955-1.467-1.87-4.315-13.403-.805-17.78-3.577-2.19-.74-3.604-2.5-5.496-4.44s-7.21-2.04-8.008-6.814c2.227-10.214 16.967-8.653 19.377-10.217l38.404 2.634c6.958-.196 10.893 12.323 1.498 16.09-9.394 3.767-37.18-5.588-49.233.842-.624-2.622-9.284-6.588-9.908-6.713-3.69 1.106-10.88.7-10.88.7-1.758 3.264-3.764 5.653-5.52 8.916-7.976-3.498-15.515 2.714-24.225.873 0 0-13.178 1.506-13.554 1.506s-8.66-.754-8.66-.754l-13.176 3.765 9.412-8.283-8.283-6.023z"/><path d="M184.732 337.954a3.63 3.63 0 1 1-7.26 0 3.63 3.63 0 0 1 7.26 0zm-.952 17.957a3.63 3.63 0 1 1-7.26 0 3.63 3.63 0 0 1 7.26 0z"/></g><g stroke="#000" stroke-width="1.111"><path d="M346.253 349.097c2.355-2.134 3.852-3.503 4.777-5.828l14.043-1.53.192 8.023-19.012-.668z"/><path stroke-linejoin="round" d="M449.143 339.636c-8.157 1.506-20.457-.753-24.473 4.517-4.822 5.465 15.093 13.872 12.242 18.6-6.16 6.517-12.5 3.83-19.394.226-1.624-3.526-2.878-9.807-3.766-11.674 2.51-5.774 9.253-8.602 7.53-17.32-11.37-4.25-33.23-3.898-35.584-2.26-1.847 3.624-.187 5.274-.563 8.16 1.882 3.64 6.728 9.81 6.738 13.075-11.93 4.204-15.075-.647-25.807-.362-12.574.154-20.225 3.53-22.955-1.468 1.87-4.315 13.407-.805 17.784-3.577 2.19-.74 3.603-2.5 5.496-4.44s7.21-2.04 8.006-6.816c-2.226-10.216-16.966-8.655-19.376-10.22l-38.405 2.636c-6.958-.196-10.892 12.323-1.498 16.09 9.395 3.767 37.18-5.587 49.233.842.623-2.623 9.283-6.59 9.908-6.714 3.69 1.106 10.88.7 10.88.7 1.758 3.264 3.763 5.653 5.52 8.916 7.976-3.497 15.515 2.715 24.225.874 0 0 13.177 1.506 13.554 1.506s8.658-.752 8.658-.752l13.177 3.765-9.41-8.285 8.28-6.025z"/><path d="M449.723 338.02a3.63 3.63 0 1 0 7.26 0 3.63 3.63 0 0 0-7.26 0zm.952 17.956a3.63 3.63 0 1 0 7.26 0 3.63 3.63 0 0 0-7.26 0z"/></g><path d="M316.986 329.343c-3.23-.606-4.38-.433-6.57-.65-1.715 5.27-3.427 10.54-5.14 15.812 7.937.716 15.29.716 15.29.65-4.817-.975-3.645-15.747-3.58-15.812z"/></g><g font-size="9" font-family="Trebuchet MS" font-weight="bold"><text y="344.274" x="448.605" transform="translate(-464.91 -233.28) scale(1.6657)"><tspan y="344.274" x="448.605">L</tspan></text><text y="344.622" x="453.64" transform="translate(-464.91 -233.28) scale(1.6657)"><tspan y="344.622" x="453.64">I</tspan></text><text y="345.056" x="456.678" transform="translate(-464.91 -233.28) scale(1.6657)"><tspan y="345.056" x="456.678">B</tspan></text><text y="345.49" x="462.58" transform="translate(-464.91 -233.28) scale(1.6657)"><tspan y="345.49" x="462.58">E</tspan></text><text y="345.576" x="468.309" transform="translate(-464.91 -233.28) scale(1.6657)"><tspan y="345.576" x="468.309">R</tspan></text><text y="345.403" x="473.952" transform="translate(-464.91 -233.28) scale(1.6657)"><tspan y="345.403" x="473.952">T</tspan></text><text y="344.535" x="479.247" transform="translate(-464.91 -233.28) scale(1.6657)"><tspan y="344.535" x="479.247">A</tspan></text><text y="344.274" x="485.497" transform="translate(-464.91 -233.28) scale(1.6657)"><tspan y="344.274" x="485.497">S</tspan></text></g><path d="M231.353 318.616c10.047 1.218 24.052.304 30.14 0m-45.365-34.413c8.525 6.698 27.096 10.654 26.79 10.654m10.655 1.84c-2.74-14.005-5.783-17.354-8.22-26.184M201.82 254.67c14.31 6.393 16.44 10.654 25.573 17.047m5.176-14c1.216-17.354 3.65-21.92 7.914-25.88m-38.666-2.12c5.176 5.786 22.224 23.747 22.224 23.747m-7-39.587c6.394 4.566 6.394 21.005 6.394 21.005" stroke="#00a400" stroke-linecap="round" stroke-width="2.22" fill="none"/></svg>