<svg xmlns="http://www.w3.org/2000/svg" viewBox="0 0 640 480"><defs><clipPath id="a"><path fill-opacity=".67" d="M0 0h682.67v512H0z"/></clipPath></defs><g clip-path="url(#a)" fill-rule="evenodd" transform="scale(.9375)"><path fill="#ff0" d="M0 0h1024v504.3H0z"/><path fill="#009d00" d="M0 0h1024v146.29H0zm0 365.71h1024V512H0z"/><path d="M.708 0c1.417 0 255.29 253.03 255.29 253.03L-.002 512 .708 0z" fill="#f10600"/><path d="M411.966 268.686l-31.97-23.896 39.5.04 12.173-38.705 12.17 38.705 39.5-.03-31.976 23.886 12.236 38.687-31.937-23.942-31.938 23.94zm-196.918 0l-31.97-23.896 39.5.04 12.172-38.705 12.174 38.705 39.5-.03-31.977 23.886 12.235 38.687-31.938-23.942-31.937 23.94z"/></g></svg>