<svg xmlns="http://www.w3.org/2000/svg" xmlns:xlink="http://www.w3.org/1999/xlink" viewBox="0 0 640 480"><path fill="#0f47af" d="M0 0h640v480H0z"/><path fill="#fff" d="M0 160h640v160H0z"/><g transform="matrix(.8 0 0 .8 -92.7 0)"><g fill="#fff" fill-rule="evenodd" stroke="#000" stroke-width=".3"><path d="M515 353.4c1.5 0 3.2 0 10-1.7 7-1.7 12.8-6 14-6.5 1.5-.6 3.4-.4 3.4-.4-.7-.8-2.8-2.8-5.8-2.8s-1.8 0-4.4 1c-2.6 1-8 4.4-17 4.4s-14.8-3.3-17.3-4.3c-2.7-1-1.5-1-4.5-1s-5 2-6 2.8c0 0 2-.2 3.4.4 1.3.6 7 4.8 14 6.5 6.8 1.6 8.5 1.6 10 1.6z"/><path d="M488.4 347.4c.7-.4-.2-1.6-.2-1.6l2.7-.6c-1.4-.6-3.4-.5-3.4-.5-.5.5-.4 1-.5 1.4 0 .5 0 1 .3 1.4.3.3 1 0 1 0z"/><path d="M491 345.2l-2.8.6s1 1.2.2 1.6l4.8-1-2.3-1.2zm50.7 2.2c-.7-.4 0-1.6 0-1.6l-2.6-.6c1.5-.6 3.4-.5 3.4-.5.6.5.5 1 .6 1.4 0 .5 0 1-.3 1.4-.3.3-1 0-1 0z"/><path d="M539 345.2l2.8.6s-.8 1.2 0 1.6l-5-1 2.3-1.2z"/></g><path d="M495.8 343.3l-1.2 3 .6.3c1 .3 1.8 0 2.2-1 .4-1 0-1.7-1-2l-.6-.3zm.3.6h.2c.7.3 1 .8.8 1.6-.3.8-1 .8-1.7.5l.8-2z"/><path fill-rule="evenodd" d="M497.6 347.6h-.4l1.4-3h.3l-1.4 3z"/><path d="M500.2 345.3c-.6 0-1.2.4-1.5 1-.4 1 0 2 .8 2.3.8.3 1.8 0 2.2-1a1.7 1.7 0 0 0-1-2.2 1.5 1.5 0 0 0-.5 0zm0 .5h.5c.6.3.8 1 .5 1.6-.2.6-1 1-1.5.7-.5-.2-.8-.8-.5-1.5.2-.4.5-.7 1-.7z"/><path d="M503.8 347.4c0-.3 0-.4-.3-.5-.3-.2-.6 0-.7 0 0 .4 0 .6.2.8h.2c.4.4.6.8.4 1.3-.2.7-.8 1-1.3.7-.4-.2-.7-.7-.6-1.2h.4c0 .4.2.7.5 1 .3 0 .6-.2.7-.5.2-.4 0-.6-.3-.8l-.2-.2c-.3-.2-.5-.6-.3-1 0-.5.7-.6 1-.5.4.2.6.4.7.8h-.4zm2.4 0l-.5 2c0 .5 0 1 .4 1.2.7 0 1-.3 1.2-.8l.5-2 .3.3-.5 2c-.2.7-.8 1-1.5 1-.7-.3-1-1-.7-1.6l.6-2h.2zm4.4 4.6l-1.8-3-.5 2.4h-.4l.6-3.4 1.8 3 .4-2.4h.4zm.8 0l.4-3.3h.3l-.2 3.3z" fill-rule="evenodd"/><path d="M514.2 349c-1-.2-1.7.6-1.7 1.5 0 1 .6 1.7 1.6 1.8 1 0 1.7-.7 1.7-1.7s-.6-1.7-1.5-1.7zm0 .3c.6 0 1 .7 1 1.3a1 1 0 0 1-1 1.2c-.7 0-1.2-.6-1.2-1.3 0-.6.5-1.2 1-1.2z"/><path d="M519 352l-2.4-2.2v2.4h-.3l-.2-3.4 2.6 2.4-.2-2.4h.4zm2-.3l-.5-3.3h.4l.5 2.8h1v.2zm2-.4l-1-3.2h.5l.7 3.2z" fill-rule="evenodd"/><path d="M524 347.7h-.5l-.4.2 1 3h.7c.5-.3 1-.7.8-1.3 0-.4-.5-.7-.8-.6 0 0 .2-.4 0-.7 0-.5-.4-.6-.8-.6zm0 .4s.3.2.4.5c.2.4 0 .5-.4.6l-.4-.8a1 1 0 0 1 .3 0zm.4 1.4c.3 0 .6 0 .6.4.2.4 0 .6-.4.6h-.3l-.3-1h.4z"/><path d="M527.2 348l.2.3-1.2.4.4 1.2 1.2-.6v.4l-1.4.6-1-3 1.5-.7v.3l-1.2.5.3 1z" fill-rule="evenodd"/><path d="M528.6 346.2h-.8l-.4.3 1.2 3h.3l-.5-1.4 1.4 1 .4-.2-1.5-1c.3 0 .5-.6.3-1 0-.3-.4-.6-.7-.6zm0 .4s.2 0 .3.3c0 .4-.3.6-.6.7l-.5-1h.5z"/><path d="M529.2 345.8l1.7-.8v.3l-.6.3 1.2 2.7h-.3L530 346l-.6.3z" fill-rule="evenodd"/><path d="M532.2 344.2l.2 3.7.4-.3v-1l1.3-.5.7.6.4-.3-2.8-2.3zm.5 1l1 .7-1 .3V345zm2.6-2.3c-.3 0-.6 0-1 .2l-.5.3 1.7 2.8.5-.3c1-.5 1.3-1.4.7-2.3-.4-.6-1-.8-1.4-.8zm.2.4c.3 0 .6.2.8.5.4.7 0 1.2-.6 1.6l-1.3-2 1-.2z"/><g id="a" stroke-miterlimit="2.6" stroke="#000"><path d="M485 355.2c.6 0 1-.4 1-1 0-.4-.4-.8-1-.8-.4 0-.8.4-.8 1 0 .4.4.8 1 .8zm-5 6.3c.5 0 1-.4 1-1a1 1 0 0 0-1-.8c-.5 0-1 .4-1 1 0 .4.5.8 1 .8zm-12-20c.5 0 1-.3 1-.8a1 1 0 0 0-1-1 1 1 0 0 0-.8 1c0 .5.3 1 1 1zm-7.3 3.8c.5 0 1-.4 1-1 0-.5-.5-1-1-1a1 1 0 0 0-1 1c0 .6.4 1 1 1zm-1.4-22.3c.6 0 1-.4 1-1 0-.5-.4-1-1-1a1 1 0 0 0-1 1 1 1 0 0 0 1 1zm-6.2 1.8a1 1 0 0 0 1-1 1 1 0 0 0-1-1c-.4 0-1 .5-1 1 0 .6.6 1 1 1zm3.3-19.8c.6 0 1-.5 1-1a1 1 0 0 0-1-1 1 1 0 0 0-1 1c0 .5.4 1 1 1zm-5.5-18.3c.5 0 1-.4 1-1a1 1 0 0 0-1-1 1 1 0 0 0-1 1c0 .6.4 1 1 1zm7 1.8a1 1 0 0 0 1-1c0-.5-.4-1-1-1a1 1 0 0 0-1 1 1 1 0 0 0 1 1zm7-15.2c.5 0 1-.4 1-1 0-.5-.5-1-1-1-.6 0-1 .5-1 1 0 .6.4 1 1 1zm-5.3-4.2a1 1 0 0 0 1-1c0-.4-.5-1-1-1a1 1 0 0 0-1 1 1 1 0 0 0 1 1zM470 259a1 1 0 0 0 1-1 1 1 0 0 0-1-1 1 1 0 0 0-1 1 1 1 0 0 0 1 1zm-21.5 46c.6 0 1-.3 1-1s-.4-.8-1-.8a1 1 0 0 0-1 1c0 .5.5 1 1 1z" fill="#e60000" fill-rule="evenodd" stroke-width=".1"/><path d="M486 359s-.8-3.3-.7-4l.8-.6m-1.3 5.7s-2.8.2-3.7.5l-.3.8m-13.4-15.5s-.2-3.8.6-4c0 0 .6-.4 1-1m-4.6 3.8s-2-.3-2.7 0c0 0-.2.6-.6.8m-.7-23l-.7.5c-.8.2-2.3 3.8-2.3 3.8s-2.4-1.8-3.4-2h-1.2m-4.8-20s.6.5 1.2.2c0 0 3 2 3.2 2.7 0 0 3-3.2 3.7-3 0 0 .4.6 1 0m-5.7-18.6s.3.6 1 1c0 0 1.3 2 1.3 3.3 0 0 2.5-2.2 3.3-2 0 0 .8.3 1.4 0m.3-19.5s.6.8 1 .2c0 0 2 2.2.8 4 0 0 2.5-.7 3.3-.3 0 0 .3 1 1.2.5" fill="none" stroke-width=".3"/><g fill="#1f601a" fill-rule="evenodd" stroke-width=".3"><path d="M532.8 378.3l-4.5-.3c-.6 0-2-2.7-2.6-3-.6-.6-10.8-5.6-17.5-6.6-6.6-1-16.8-5-19-6-11-5.3-23.3-15-26-19.2-3-4.2-6-14-7.3-19.2-.7-2.5-4-12.4-4-19.2 0-7.8 1-14.3 2.2-19.4 1-5 10-20 15.3-26.8 0 0-12 18.7-14.2 26-2 7.3-2.7 16.2-2.5 21.4 0 4.2 3.6 19.6 8.7 31 4 9 7.7 10 14 15 3 2.5 8.8 6.3 13.6 8.7 5 2.4 15.2 5.4 18 6 2.6.4 16.3 4.4 18 5.3 2 1 6.6 5 7.8 6.3z"/><path d="M464 343.4c.4-1.4.5-2.4 1-3 .5-.3 2-2.2 2.3-3.3.3-1 0-2 0-2.7l.4-2.6s-.7-2.6-1.3-3c-.6-.5-2.2-2.6-2.5-3.3 0 0 0 1.3-.4 2-.4.5-.6 2-.6 3 0 .8.3 3 0 4s-.7 2-.4 3.4l1.5 5.6z"/><path d="M463.6 342s-3.4-4.5-3.4-6.3c0-1.8-.3-3-.6-3.3-.3-.4-2.3-2.7-.5-5.6 1-1.2 1-1 1.5-2.4.6-1.6 1.8-1.6 2-3.3 0 0 .4 2 .5 3.7.2 1.7 0 2.3-.2 3.2-.2.8.4 1.8.4 3.2 0 1.4-.2 2-.2 2.7 0 .3-.5 6 .6 8zm38.6 23.4l-4-.5c-.7-.2-2.5-.6-3.5-1-1-.3-2.6-1.2-4-2.8-2.8-3-2.6-4.5-3-4.6-1-.2 1.5-.4 2.7-.3 1.2.2 3 1 4 2s2.8 2.3 3.4 2.7c.6.5 1 .7 1.7 1.5.7 1 .6 1.5 2.7 3z"/><path d="M506.2 367.5s-7.2-3.2-8-3.8c-.8-.6-2-1.8-2.8-2.6-.7-.7-3.8-2.3-4.3-3.3-.2-.7-2.2-3.3-3.3-5.4-.6-1 5 .3 5 .3 4.3 1.8 2.3.6 4.7 2.4 1.5 1 2.5 2 3 3 .5 1.2 1 3.5 1.8 4.6.6 1.2 1.7 2.7 4 5z"/><path d="M510.2 368.4s-6-1.5-8.8-5.2c-2-2.6-2-1.8-2.8-2.7-1-1-2.5-2.2-3.8-4.5 0 .3-1.7-6-1.7-6.6.2-.4 2.4.3 4.3 1 1.5.7 2.4 2 3.8 2.8 1.7 1 2 3.7 2.6 5 1 1.7 1.2 2.6 1.2 3.4 0 1.4.7 1.8 1.2 3 .5 1.3 2 1 4.2 3.8zm-9.6-2s-5.2-2.2-6-2.4c-.7 0-1-.6-2-1-1 0-1.7-.8-3.8-.3-1 .2-4.6 1-5.6.6-1-.5 1.4 2.5 2.4 3 1 .8 3 1 4.4 1 1.5-.2 3.6 0 4.4 0 .7 0 1.2 0 2.3-.2 1-.2 1.3-.7 4-.6z"/><path d="M504 366.4s-5.7-1.4-6.7-1.4l-4.8.4c-1 .2-4.5-.2-5.5.4-1 .4-5.6 1-6.8.8-1.2-.3 2.4 3.2 4 3.6 4.5 1.3 3 1.2 6 .4 2-.5 4.5-.6 5.5-.8 1 0 .7-.7 2-1.2 1-.5 3.2-1.8 6.3-2.2z"/><path d="M508.7 368.8s-5.7-2.3-10.2-1c-3 .7-3 .6-4.2.8-1.4.2-2.6-.5-5 .5-1.2.5-6 2.6-7.5 2.5-1.3 0 4 3.3 5.4 3 4.6-.5 9 1 11 .2l4-1.6c1-.3 1.5-1 2-1.6.7-.4 1-1.6 4.5-2.6zm-30.6-13s-3.2-3.8-3.8-4.2c-.6-.5-2.2-1.6-3-2.4-.7-.6-1.4-2-3.5-2.4-1-.3-3-.7-3.8-1.5-.7-.8 0 3 .7 4s2.2 2 3.6 2.5c1.5.5 3.3 1.5 4 2 .6.2 1 .5 2 .7 1 .2 1.6 0 3.8 1.2z"/><path d="M481.3 357.2s-5.6-4-6.5-4.4l-3.5-1.3c-1-.3-4-2.3-5-2.3-1.2 0-3.3 0-4.3-.8s0 2.7 1 3.7c3.6 3.3 1 2.3 4 3 2 .3 4.4 1.3 5.2 1.6 1 .3 1-.3 2.3-.2 1.3 0 3.8-.2 6.8.8z"/><path d="M482.6 358.3s-2.3-1.6-7-2.4c-3-.6-3-.7-4-1-1.4-.5-1.7-.5-4.3-.6-1.2 0-6.2 1.5-7.4.8-1-.6 1.2 1.5 2.5 2 2 .8 1.8 2 4 2.8 2.3.7 4.7 1.6 6 1.4 1-.2 1.8-.7 3.3-1 1.5 0 4-2 6.8-2.2zm.5-1.2s1.2-5.4.2-6.7c-.4-.6-1-1.5-1.2-3 0-1.2-1-3.5-1.6-4.2-.6-.7-1.8-4-1.5-5 0 0-3.3 3-3 5v2.5c-.3 1 .6 4 1.2 4.8.6 1 .3 3.7 1 4.2.5.6 4 3 5 2.6z"/><path d="M482.6 358.3c.3 0-2-1.8-3-2.3-1-.4-5.3-1.6-5.6-2.7-.3-1-3.7-4.6-4-5.6 0-.6-.6-2-.5-2.8.2-1 .5-2.7 1-3.7.4-1 1.4-3.6 2.5-4 0 0 1 2.8 1.2 3.8.3 1.2.6 2.4 1 3 .5.6 2 3.4 2 4.5l1.2 5.3c.2.7 3 3.8 4.2 4.5zm-18.5-15c.2 1-2-.7-3.4-.7-1.2 0-4.8.5-5.7-.4l-2.8-3c-.5-.2-2-3-2.6-4.4-.4-1.5-3.6-4.2-4-4.5 0 0 4.3-1 7 1 2.7 1.7 3 1.3 3.5 1.5.7.3 5.4 4.3 5.7 5.8.3 1.5 2.2 4 2.4 4.8z"/><path d="M464 343.4s-3.8-2.7-4.7-2.6c-1 .2-5.2-3-5.4-5-.3-1-2.3-2.5-2.7-3-1-2-1.7-6-3.2-7l5.3 1.2c2 .3 3.6.6 4.3 2.2.8 1.7 1.4 3 2 3.2.6.2 1.5 2.2 1.8 4.4.3 2 2.7 6.6 2.7 6.6zm-7.3-20.5c.7 1 .6-6 1-7 .2-.6 1-2 1.6-2.7.6-.7.6-2.7 1-3.3.2-.6 0-4.7-.4-5.8l-2 1.7c-.5.6-1.6 1-2 1.8-.2 1-.8 1-1.2 2-.5.8-1 2.2-.6 3.5.3 1.2 0 1.6 0 2.7 0 1 1.6 5.5 2.5 7z"/><path d="M457 323.5s-.4-2 .3-2.7c.8-.8 1.5-.8 1.8-1.2.4-.5.3-1 .6-1.7s1-1.7 1-2.2c.3-1.6 1.2-3.5.5-5.2 0 0-1.6.5-2 .8-.5.3-1.8 1.5-2 2.8 0 1.3-.3 1.5-.7 2.2-.5.8-1 3-.4 4.4.7 1.3 1 2.7 1 2.7zm-4.5-23s-.3-4.4 1-5.8c1-1.3 1.4-4 4-5.3v2c.3.6.6 2.7 0 3.5-.3.6-2 2-2 2.6 0 .6-1 2-1.6 2.4l-1.5.5z"/><path d="M452.5 302.8s0-3 1-4l1.7-2c.4-.6 1-2 2-2.7 1-.5 2.8-2 3-2.6 0 0 .4 3.8-.6 5.8s-1 3-2.3 3.4c-1.2.5-1.3.8-1.8 1-.5.4-1.2.8-1.8.8-.6 0-1.2.4-1.2.4zm3.5 20.6c0 .8.7-2-2.4-2-3.2 0-5.8-1.2-6.8-2.3-1-1-1.7-1.7-2-2.2-.6-.4-1.8-2.2-2-3 0-1-1-4.3-1-5 0 0 1.8.4 2.6 1 .7.6 2 .6 2.8 1 .8.5 1.4 1.7 2 2 .3.6 1.6.6 2.2 1.5.6 1 1.7 3 2 3.8 0 1 1 2 1.8 2.3.7.5.6 2.3.7 3z"/><path d="M455.6 322s-2-2.4-3-2.4c-1.2 0-3.8-2.7-4-4-.2-1-1-3.4-1.7-4-.7-.3-1.7-1.3-1.6-3.2.2-1.8.2-4.8.2-4.8s.6 1.8 1.5 2.3c1 .3 2.6 1 3 1.5.2.6 1.4.6 2 2.5.4 1.7.4 1.6.7 2.2.3.6 1 1.4 1.3 2.6.3 1.2 2 4.3 1.7 7.3zm-3-16.5c-.2 1 1-1.6-1.7-2.4-3-.8-5-2.6-5.7-4l-1.3-2.5c-.2-.6-.8-2.5-.7-3.4 0-.7.2-4 .5-4.5 0 0 1.4.7 2 1.5.4.7 1.7 1 2.3 1.7.6.6.8 2 1 2.5.4.5 1.6 1 2 1.8.2 1 .6 3 .5 4 0 .8.6 2 1.2 2.6.5.6 0 2.2-.2 3z"/><path d="M452.6 304.3s-1.2-3-2.2-3c-1-.5-2.5-3-2.6-4 0-1.4-.3-3.5-.7-4-.4-.7-1.2-2.5-.5-4l1.6-4 1.4 2.3c.8 1.6 1.6 1.7 1.7 2.3.2.6 1.2 1 1.5 2.2.5 1.7 0 1.6 0 2.3.2.6.7 1.5.6 2.7 0 1 .7 4.5-.4 7zM455 286c0-.3 1-.8 2-1 1-.4 2.7-2.8 3.5-3.4.7-.6 1-1.6 2-2 1-.6 1.4-2.5 1.7-4.3l-3.3.7c-.8.2-2.3 1-3 2-.5.6-1 1.8-1.7 2-.7.4-1.4 2.2-1.4 3.4v2.7z"/><path d="M454.8 284.8l-.2-2.6c0-1-.6-3.3.7-5.3 1-1.4 4.3-4 5.2-4 0 0 .6 2.3.4 3-.2.8-1 3.8-1.7 4-.7.4-2.4 4-4.5 4.8z"/><path d="M454 286c-.4.8 0-2-1-3-1-.6-1-1.7-1-3 0-1 .2-2 .4-2.8 0-.7 2.4-4 2.2-4.8l1.7 3.8c.4 1-.3 2-.2 3 .3 1 1 2.6.4 3.5L454 286zm8-15.4s.2-.4 1.5-.4 3.3-.2 4-.8c.5-.6 1.6-1.4 2.2-1.7.6-.2 1.6-1.6 1.8-2.2 0-.6 1.2-1.8 1.6-1.8 0 0-1.5-.2-3.3.3-1.8.4-4.4 1.4-5 2.6l-2.7 4z"/><path d="M462.5 270.3c.3 1 2.8-1 3.4-1.8l1.4-2s1.4-1.7 1.8-2.4c1-1.5.7-4.5.3-4.2-.4.3-2 1.2-2.5 1.3-.5.3-1.4.6-1.7 1.3-.3.8-.6 1.8-1 2.3-.5.4-3.2 2-1.8 5.7z"/><path d="M461.6 270.3s2-1.5 2.8-2.3c1-.8.4-2 1-2.6.3-.6 1.4-2 1-3l-.8-3.4-1.8 1.8c-.8.8-1 1.4-1.2 2.3-.3 1-1 1.6-1.2 2.4-.3.7 0 2.2 0 3 .3 1 0 2 0 2z"/></g><g fill="none" stroke-width=".1"><path d="M494.8 365.2s-10 0-10.8-1.3m16.6 2.4s-6.5 1.8-10 1.4c-3.4-.4-5 .3-6 .3-.6 0-4.4-1.4-4.4-1.4m27 2.2l-6 1.3c-1 .4-6.2 2.3-7.7 2.3h-5c-1.5.3-5.4 0-6.3-.4m6.2-15s3.7 2.2 4.4 3c.5.7 4 3.4 4.5 3.4m-9-11s6.5 5.5 7.6 6.2c1 .8 7.3 7 8 7.8M493.6 350s5 4 5.7 5.6c.6 1.6 2.2 3.6 2.2 3.6s2 4.2 2.8 4.8c.8.6 2.3 2.2 4 3.4m-44-21.3s5.5 4.7 7 5.5m-9-2.5s5.3 3.7 7.7 4.6c2.4 1 4.4 1.7 9.6 2.4m2 2.2s-6-.3-7 0-5.7-.8-7-1c-1-.4-6-1.3-6.5-1.5m11.5-18s-.3 3.4.2 4.8c.4 1.3 2.6 5.2 2.4 6.2 0 1 1.3 5 2.5 5.7m1.2-16s-1 3.3-.6 4.4c.6 1 1.3 3 1.3 4.2 0 1.2.8 3 1 3.8.4.7 0 3.3.7 4l1.6 2m-36-26s4.7 1.8 5.3 3c.5 1.2 1.4 1.5 2 2m10.2-9.6s1.3 4.8 1 6c-.4 1.2-.4 3.7-.4 4.6 0 1-1.3 4.5-1.2 5m-1.3-19.7l-.6 4.2c0 1.2 0 3.2-.3 4-.3.7-.8 4.7 0 6.6M449 326.2l5 4.2c.8 1 4.8 5.3 5 6.4 0 1 3 4.3 4 5m-20.6-32.4s4 4 4.2 4.8c.3 1 2 2.4 2.8 2.8m11.4-6s-1.5 2.3-1.5 3c0 .8-.6 2.7-1.2 3.5-.3.5-1.6 2.7-1.4 4m3-16.8l-1 3.6c-.2 1.5-1 3-1.3 4-.3.8-1.5 5.2-1 8M446 304.4s.3 2 1.4 3.2c1 1 2.7 2.6 2.8 3.4.2 1 1.5 5.5 3 7 1.6 1.6 1.7 3 1.7 3m-10.6-31.8s.4 2.5.7 3.3c.4.7 1.6 4 2.8 5m9.5-7.6s-.7 2-1 3c0 .8-1 2-1 2.3l-.8 2m5.5-5.3c0 1-1.8 3.6-2 4 0 .5-1 2.6-2 3.2-.8.6-3.5 2.6-3.3 3.4m-4.4-16.5s-.2 3.4.4 4.7a37.2 37.2 0 0 1 1.7 4c.3.8.3 2.3.4 3.3.2 1 .6 3 1.2 3.8m11.8-26l-3.2 3.6c-1 1-4.8 5-5 5.8m4.6-11.6s-2 4.7-2.6 5.4l-1 2m-1.8-7.5v4.5c-.2 1-.2 2.4 0 3l-.6 4.4m18-21.3s-4.8 3-5.5 3.7m2.7-7.3l-3.3 4.8-.7 1.4m.3-6.7s-1 2.5-1.2 3.5c-.2 1-1.6 4.4-2.2 5.6"/><path d="M469.2 258s-.4 1 1.4.7" stroke-width=".3"/></g></g><use height="100%" width="100%" xlink:href="#a" transform="matrix(-1 0 0 1 1030 0)"/><path d="M514.6 366s.7-1.7 2.2 0c0 0 1.8 4.2.5 4.3-1.4.2-2.7.5-3-.3l.3-4z" fill="#00209f" fill-rule="evenodd"/><path d="M516.5 365.5s.5-6.4 1.4-6.7c.8-.3 3.5-2 5.2-.5 1.6 1.4 0 8-.5 8.7-.6.6-1.5 2.4-5 2l-.4-1.6s1.8-.2 3-.8c1.2-.6 1.6-1.2 1.5-1.8-.2-1 0-4.2-1-4.6l-2.3-.7-1.7 6.5-.3-.5z" fill="#00209f" fill-rule="evenodd"/><path d="M514.4 370s-6.2 3.7-3 9l-2-1.3s-1.3 2.2-.3 3.4c0 0-4-3.7-.8-8.2 3.4-4.6 6-4.3 6-4.3l.2 1.6z" stroke-miterlimit="2.6" fill="#00209f" fill-rule="evenodd" stroke="#000" stroke-width=".2"/><path d="M514.4 367s-2.7-1.8-6.6-.7c0 0-1.7-5.6-1-7.4.2-1 .8-1 .8-1s-2-1.2-1.3 4c.6 5.4 1.6 6.8 1.6 6.8s5 .3 6.3-.3V367z" stroke-miterlimit="2.6" fill="#00209f" fill-rule="evenodd" stroke="#000" stroke-width=".2"/><path d="M514.4 367s-5.4-9-6.8-9c0 0-1.5-.2 2-.6 1.2 0 3 0 4 1.7s1.7 5.6 2 6.2c0 0-1 .3-1.2 2z" stroke-miterlimit="2.6" fill="#00209f" fill-rule="evenodd" stroke="#000" stroke-width=".2"/><path d="M514.4 367s-3.6-1.6-4-2c-.5-.5-1.3-5.6-.8-5.3 0 0-1.5-1.7-2-1.7-.3 0-1.3.8-1 2.6.3 1.8.7 4.5 1.2 5.7 0 0 3-1.2 6.6.8z" stroke-miterlimit="2.6" fill="#011322" fill-rule="evenodd" stroke="#000" stroke-width=".2"/><path d="M517.7 370s2 1.3 2 3.5c0 2.3 1 6.4 2.7 7.3 0 0 .5-1.7 1-2 0 0 2 2 2.5 2 0 0-1.2-2-1.2-2.8 0-1-1-4.3-1.8-5.2-1-1-2.7-3-5.3-3.8v1z" stroke-miterlimit="2.6" fill="#00209f" fill-rule="evenodd" stroke="#000" stroke-width=".2"/><path d="M518.5 359.5l-1.7 6.5.5 1.4s.6-.2 1-1c.2-.7 1-6.3 1.6-6.5l-1.5-.5z" stroke-miterlimit="2.6" fill="#011322" fill-rule="evenodd" stroke="#000" stroke-width=".2"/><path d="M514.4 369.3s-3 1-4 3.2c0 0-.5-1.5 4-3.6v.3zm3.4 0s2 .8 2.6 2c0 0-2-1.3-2.6-1.5v-.5zm-3.4-1.7s-4.6.7-5.6.5c0 0 1.3.4 5.6 0v-.4zm7.4-2.8s.5 2.3 1 2.2c.3-.2 1-4 1-5.6.2-1.7-.6-2-1.3-2-.7 0-1 1.5-1 2.2l.3 3.2z" fill="#011d33" fill-rule="evenodd"/><path d="M516.8 366s2 4 .5 4.4c-1.4.2.6 0-.4-2.7-.5-1-1-2.5-1.4-2.5 0 0 1 .4 1.2.8z" fill="#011d33" fill-rule="evenodd"/><path d="M514.6 366s.7-1.7 2.2 0c0 0 1.8 4.2.5 4.3-1.4.2-2.7.5-3-.3l.3-4z" stroke-miterlimit="2.6" fill="none" stroke="#000" stroke-width=".2"/><path d="M516.5 365.5s.5-6.4 1.4-6.7c.8-.3 3.5-2 5.2-.5 1.6 1.4 0 8-.5 8.7-.6.6-1.5 2.4-5 2l-.4-1.6s1.8-.2 3-.8c1.2-.6 1.6-1.2 1.5-1.8-.2-1 0-4.2-1-4.6l-2.3-.7-1.7 6.5-.3-.5z" stroke-miterlimit="2.6" fill="none" stroke="#000" stroke-width=".2"/></g><g transform="matrix(.8 0 0 .8 -92.7 0)"><path d="M509.8 256c-.4-1-.4-7.5-.4-8.5.2-1.7 3.2-10.2 3.8-11.2.6-1 .5-1.2.7-1.8l.8-1.2c.6 1 1 2.8 1.2 4 0 0-.5 4.2-1 6-.4 1.8-1.6 4.4-1.8 5-.6 1-.5 2.3-.2 2.4l-3.2 5.2z" fill="#00209f" fill-rule="evenodd"/><path d="M515 247.3l.5.6c1.3-1.6 1.4-4.6 1.4-4.6l-1-6s-.5 4-1 6c-.4 1.7-1.6 4.3-1.8 4.8-1 2-.2 2.4-.2 2.5l2-3.3z" fill="#fff" fill-rule="evenodd"/><path d="M515.5 248c1.3-1.6 1.4-4.6 1.4-4.6s1 5 .3 6c-.5 1-.5.7-.4 1.2l-1.5-2.7z" fill="#00209f" fill-rule="evenodd"/><path d="M517 250.7c-.2-.6-.2-.3.3-1.3.6-1-.4-6-.4-6l-1-6c0-1.3-.6-3-1.2-4l-1 1c0 .7 0 1-.6 2s-3.6 9.4-3.8 11c0 1 0 7.5.4 8.5" stroke-miterlimit="2.6" fill="none" stroke="#000" stroke-width=".3"/><path d="M515 234l-.2-1.2c0-.2.6 1 1 .7 1 .3 2 1.5 2 1.8-.3.5-1.2 1.6-1.8 1.4-.6-.2-.5-1-.6-1.5 0-.3-.4-.6-.4-1z" stroke-miterlimit="2.6" fill="#fc0" fill-rule="evenodd" stroke="#000" stroke-width=".1"/><path d="M515 233.3l.4.4c.2.2.4 0 .7.2.7.3 1 .7 1.7 1.4m-2.1-1.3c.8.4 1.2 1 1.8 1.7" stroke-miterlimit="2.6" fill="none" stroke="#000" stroke-width=".1"/><path d="M514 233.4l1.3-.6s-.7.8-.4 1.2c0 1-.8 2.2-1 2.5-.7 0-1.3 0-2-1 0-.5.5-1 1-1.2 0-.2.6-.8 1-1z" stroke-miterlimit="2.6" fill="#fc0" fill-rule="evenodd" stroke="#000" stroke-width=".1"/><path d="M515 233.2c-.2 0-.4.4-.4.5v.7c0 .7-.4 1-.8 2" stroke-miterlimit="2.6" fill="none" stroke="#000" stroke-width=".1"/><path d="M514.4 234c0 1-.5 1.5-1 2.3h.2" stroke-miterlimit="2.6" fill="none" stroke="#000" stroke-width=".1"/><path d="M515.4 232.8c.6-.7 1.7-1.4 2.3-1l.6.6c.2.3.2.5 0 .8-.3.8-1.4.4-2 0-.2 0-.6-.4-.8-.3h-.3.3l1.8 1c.5.2 1.5-.5 1.4-1 0-.5-1-1.5-1.3-1.5-1 0-1.8.6-2.5 1.4 0-.3.3 0 .4-.2z" stroke-miterlimit="2.6" fill="#fc0" fill-rule="evenodd" stroke="#000" stroke-width=".1"/><path d="M515 232.8c-.7-.7-1.8-1.4-2.3-1l-.6.6c-.2.3-.2.5 0 .8.4.8 1.4.4 2 0 .2 0 .6-.4.8-.3h.4-.4l-1.8 1c-.5.2-1.4-.5-1.4-1 0-.6 1-1.5 1.4-1.5 1 0 1.7.6 2.4 1.4 0-.3-.4 0-.5-.2z" stroke-miterlimit="2.6" fill="#fc0" fill-rule="evenodd" stroke="#000" stroke-width=".1"/><path d="M515 232.4l-.6.3c0 .2 0 .6.4.6.3.2.8 0 1-.3 0-.4-.4-.4-.7-.6z" stroke-miterlimit="2.6" fill="#fc0" fill-rule="evenodd" stroke="#000" stroke-width=".1"/><path d="M515 226.3s.4 2.4 1.6 4c1.2 1.8-1.4 1.6-1.6 2.2 0 0-.8-1.7-1.6-2.2 0 0 1.3-2 1.7-4z" fill="#fc0" fill-rule="evenodd"/><path d="M515 226.3s.4 2.4 1.6 4c0 0-1.4 1.6-1.6 2.2 0 0-.8-1.7-1.6-2.2 0 0 1.3-2 1.7-4" stroke-miterlimit="2.6" fill="none" stroke="#000" stroke-width=".1"/><path d="M515 228.8l.7 1.8-.7.6s-.3-.6-.6-.8c0 0 .6-1 .6-1.6z" stroke-miterlimit="2.6" fill="none" stroke="#000" stroke-width=".1"/><path d="M515 344.5s-.2 0-.3-.2c-.4-.2-1.2-.2-1.3-.5-1-1-.4-3.4 0-4.8 1-2.6 1-5 1.6-7.4.6 2.4.7 4.8 1.6 7.4.4 1.4 1 3.7 0 4.8 0 .3-.8.3-1.2.5l-.4.2z" fill="#fff" fill-rule="evenodd"/><path d="M515 331.5c.6 2.5.7 5 1.6 7.6.4 1.4 1 3.5.3 4.6.3 0 .6 0 1-.3 0 0 .2 0 .3-.2l.4-.4c.3-.2.6 0 1-.2v-.2c.6-.3 1-.6 1.3-1 0-.5.2-1 0-1.4 0-.3 0-.5-.2-.8l-.5-1-.6-1.3a2.4 2.4 0 0 0-.3-.5l-.3-.6-.3-.4-.4-.3c0-.2-.3-.2-.2-.3h-.2c-.3-1-.6-1.3-1-2l-.2-1.2H515zm0 0c-.5 2.5-.7 5-1.6 7.6-.3 1.4-1 3.5-.2 4.6-.4 0-.8 0-1-.3-.2 0-.4 0-.4-.2-.2 0-.3-.3-.5-.4-.2-.2-.5 0-.8-.2 0 0 0-.2-.2-.2-.5-.3-1-.6-1.2-1a2.5 2.5 0 0 1 0-1.4l.2-.8.6-1c0-.5.3-1 .6-1.3 0-.2 0-.4.3-.5 0-.2 0-.4.3-.6l.4-.4.4-.3c0-.2.2-.2.2-.3h.2l1-2c.2-.3.2-1 .2-1.2h1.6z" fill="#00209f" fill-rule="evenodd"/><g id="b" stroke-miterlimit="2.6" fill="none" stroke-width=".2"><path d="M514.3 331.6s-1 4-1.6 5c-.6 1-3 3-1.4 6" stroke="#011322"/><path d="M514.4 331.6s-1 4-1.6 5c-.6 1.2-3 3.2-1.4 6" stroke="#011d33"/><path d="M514.5 331.6s-1 4-1.6 5.2c-.7 1-3 3-1.4 6" stroke="#022743"/><path d="M514.6 331.6s-1 4.2-1.6 5.3c-.6 1-3 3-1.3 6" stroke="#033054"/><path d="M514.7 331.6s-1 4.3-1.6 5.3c-.5 1-2.7 3-1 6.2" stroke="#053a65"/><path d="M514.2 331.6s-1 4-1.6 5c-.6 1-3 3-1.4 6" stroke="#011d33"/><path d="M514 331.6s-1 3.8-1.6 5c-.6 1-3 3-1.3 6" stroke="#022743"/><path d="M514 331.6s-1 3.7-1.7 5c-.6 1-3 3-1.4 6" stroke="#033054"/><path d="M513.8 331.6s-.8 3.6-1.6 5c-.6 1-3 3-1.4 6" stroke="#053a65"/><path d="M513.8 331.6s-1 3.4-1.7 5c-.5 1-2.8 3-1.3 5.8" stroke="#00209f"/><path d="M514.8 331.6s-1 4.4-1.6 5.4c-.6 1-2.7 3.2-1 6.3" stroke="#00209f"/></g><use height="100%" width="100%" xlink:href="#b" transform="matrix(-1 0 0 1 1030 0)"/><path d="M518.6 335.2c.2 0 .4.3.5.4l.4.6.3.5.6 1.2.5 1c0 .3.2.5.3.8a2.5 2.5 0 0 1 0 1.3c-.2.6-.7 1-1.3 1.2v.2c-.4 0-.7 0-1 .2a2 2 0 0 0-.4.5c0 .2-.2.3-.3.3l-1 .3c-.2 0-.3.2-.3.3-.2 0-1 0-1.3.3l-.4.2s-.2 0-.3-.2c-.4-.2-1.2-.2-1.3-.4l-.2-.4c-.4 0-.8 0-1-.3-.2 0-.4 0-.5-.2l-.4-.4c-.2-.2-.5 0-.8-.2 0 0 0-.2-.2-.2-.5-.3-1-.6-1.2-1a2.5 2.5 0 0 1 0-1.4c0-.3 0-.5.2-.8l.6-1c0-.5.3-1 .6-1.3 0-.2 0-.4.3-.5 0-.2 0-.4.3-.6l.4-.4" stroke-miterlimit="2.6" fill="none" stroke="#000" stroke-width=".2"/><g id="c"><g fill-rule="evenodd"><path d="M487.4 293.6c-1.5-3.7-3-11.3-3-13 .3-7 .2-9.3 1-16.5l7.2 8.4c-.2 3-.2 3.7 0 5.5 0 .5.5 3.8 1 5l-6.2 10.6z" fill="#fff"/><path d="M493.6 283c-.5-1.2-1-4.5-1-5-.2-2-.2-2.8 0-5.6l4.5 5-3.4 5.6zm-18.6 7l-.3-4.4c0-5-.6-8 0-13.4.4-4.2 1.5-9.8 1.3-14.4 0-1.3 0-2.6.2-4l9 10.3c-.6 7.3-.5 9.5-.8 16.6 0 1.7 1.5 9.3 3 13l-2 3.2-10.4-7zm6.3 13.7c-.6-1-1-4-1.2-4.5-.2-1.5-.2-2.3 0-5l5 3.4-3.7 6zm-14.3 24c-.6-.3-1.5-1.3-2-2.2-.5-1.7-.3-1.7-.8-3.6-.2-1.2-.2-2.4-.5-3.5-.2-1.2-1.8-4.8-1.8-6.2-.3-4.8-2-8-1.5-13.2.3-3.8 1.2-9.3.7-13.4V282l10.4 6.7c-.4 6.8-.2 8.8-.2 15.4 0 1.7 1.3 8.2 3 11l-7.4 12.7zm17 3.8c2 1.7 5.4 2.6 6 3 1.2 1 3 2.3 6.3 2.4 2.3 0 3.3-.5 5.7-.8 2.8-.3-.3 0 2.3-.5 1.4-.3 1.4-.5 3.2-1 1.3-.3 2.7-.6 3.5-1.7.3-.5.6-.8.6-1.5h1.8c.2.5-.3 1.5-.5 1.8l-.6.7c-.2.6-.2.4-.7 1l-.8.5c-.5.3-.8.6-1.2.7-1.8.3-2.5.7-4.2 1-1.6.6-.7.5-2 .8l-2.4.7-2.4.6c-3 .7-5.7.5-8.6.3-1 0-4-.7-5-1.4-1.8-1.2-5.7-1.7-7.4-3-.3 0-1.4-.6-1.6-.8-1.7-1.4-3-1.8-4.8-3H484z" fill="#00209f"/><path d="M497.7 331.5h14c0 .7-.4 1-.7 1.5-.8 1-2.2 1.4-3.5 1.7-1.4.4-3-.4-4.4-.4-3.6-1-4-2.3-5.3-2.8z" fill="#00209f"/><path d="M497.7 331.5c1.3.6 2 1.7 5.4 2.8 1.4 0 3 .6 4.2.6-1.6.2-1.6.4-3 .7-2.5.6.6.2-2.2.5-2.4.3-3.4 1-5.7.7-3.2-.2-5-1.6-6.3-2.5-.6-.4-4-1.3-6-3h13.7z" fill="#fff"/></g><g stroke-miterlimit="2.6" fill="none" stroke-width=".2"><path d="M476.6 259.7s1.7 15 7.6 14.4" stroke="#022743"/><path d="M484.2 274c-3 .2-5-3.5-6-7-1-3.6-1.5-7.3-1.5-7.3" stroke="#022847"/><path d="M484.2 274c-3 0-5-3.8-6-7-1-3.5-1.5-7.3-1.5-7.4" stroke="#032b4c"/><path d="M484.2 274c-3-.3-5-4-5.8-7.2-1-3.3-1.7-7-1.8-7.2" stroke="#032d4f"/><path d="M484.2 274c-3-.6-5-4.5-5.8-7.3-1-3.2-1.7-7-1.7-7.2" stroke="#032f53"/><path d="M484.2 273.8c-3-.6-5-4.6-5.7-7-1-3.3-1.8-7.2-2-7.3" stroke="#043258"/><path d="M484.2 273.8c-3-1-5-5-5.6-7.2-1.2-3-2-7-2-7.2" stroke="#04345b"/><path d="M484.3 273.7c-3-1-5-5-5.7-7.3-1-3-2-7-2-7" stroke="#04365e"/><path d="M484.3 273.7c-3-1.2-5-5.4-5.6-7.3-1-3-2-7-2-7" stroke="#043862"/><path d="M484.3 273.6c-3-1.3-5-5.6-5.6-7.3-1-2.8-2-6.8-2-7" stroke="#053b67"/><path d="M484.3 273.6c-3-1.6-5-6-5.5-7.4-1-2.7-2-6.7-2-7" stroke="#053d6a"/><path d="M484.3 273.5c-3-1.7-5-6.2-5.4-7.4-1.3-2.5-2.3-6.5-2.3-7" stroke="#053f6e"/><path d="M484.4 273.5c-3-2-5-6.4-5.5-7.5-1.2-2.4-2.2-6.6-2.3-7" stroke="#064172"/><path d="M476.7 259c0 .4 1.2 4.6 2.2 7 .3.7 2.4 5.3 5.4 7.4" stroke="#00209f"/><path d="M477 256.3s4.7 12 7.8 10.6" stroke="#022743"/><path d="M484.8 267c-1.3.4-3.3-2-5-4.7a65 65 0 0 1-3-6" stroke="#022a49"/><path d="M484.8 266.8c-1.2.5-3.2-1.8-5-4.6a86 86 0 0 1-3-6" stroke="#032d4f"/><path d="M484.8 266.8c-1 .4-3.2-1.7-5-4.7l-3-5.8" stroke="#033054"/><path d="M484.8 266.8c-.8.3-3-1.7-4.8-4.8-2-3.5-3-5.8-3-5.8" stroke="#043359"/><path d="M485 266.7c-.8.3-3.2-1.7-5-4.8-2-3.7-3-6-3-6" stroke="#043760"/><path d="M485 266.7c-.7.3-3-1.7-5-5a749.5 749.5 0 0 0-3-5.7" stroke="#053a65"/><path d="M485 266.7c-.5.2-3-1.6-4.8-5L477 256" stroke="#053d6a"/><path d="M485 266.7c-.3 0-3-1.6-4.8-5L477 256" stroke="#064171"/><path d="M477 256s1 1.3 3.3 5.6c1.8 3.5 4.6 5 4.6 5m8 12l3.7-.6m-4-3l4 2" stroke="#00209f"/><path d="M492.5 275l4.2 2" stroke="#064171"/><path d="M492.5 275.2l4.2 2" stroke="#053e6c"/><path d="M492.5 275.4l4.2 1.8" stroke="#053b67"/><path d="M492.6 275.6l4.2 1.6" stroke="#043862"/><path d="M492.6 275.8l4.2 1.4" stroke="#04355c"/><path d="M492.6 276l4.3 1.2" stroke="#043258"/><path d="M492.6 276l4.3 1.3" stroke="#032f53"/><path d="M492.6 276.3l4.4 1" stroke="#032c4d"/><path d="M492.6 276.5l4.4 1" stroke="#022a49"/><path d="M492.8 278.5l4-.5" stroke="#064171"/><path d="M492.8 278.3l4-.4" stroke="#053e6c"/><path d="M492.8 278h4" stroke="#053b67"/><path d="M492.8 278l4-.2" stroke="#043862"/><path d="M492.8 277.7h4" stroke="#04355c"/><path d="M492.8 277.5l4 .2" stroke="#043258"/><path d="M492.8 277.3l4.2.3" stroke="#032f53"/><path d="M492.7 277l4.3.6" stroke="#032c4d"/><path d="M492.7 277l4.4.5" stroke="#022a49"/><path d="M492.7 276.7l4.4.7m-22 .4s.2 3.2 1 4.5c1 2 3.8 4.8 7 6.8" stroke="#022743"/><path d="M483.2 289c-2.2-1.3-4-3-5.5-4.5a13.7 13.7 0 0 1-1.7-2.3c-.7-1.4-1-4.5-1-4.5" stroke="#022847"/><path d="M483.3 289c-2.2-1.3-4-3-5.4-4.6-1-.8-1.5-1.6-1.8-2.3-.8-1.3-1.2-4.4-1.2-4.4" stroke="#032b4c"/><path d="M483.3 289c-2-1.3-4-3.3-5.3-4.6-.7-.8-1.3-1.6-1.7-2.4-.8-1.5-1.3-4.5-1.3-4.5" stroke="#032d4f"/><path d="M483.4 289c-2-1.3-4-3.3-5.3-4.7a13.6 13.6 0 0 1-1.6-2.4c-.8-1.6-1.4-4.5-1.4-4.5" stroke="#032f53"/><path d="M483.5 289c-2-1.3-4-3.5-5.3-4.8-.6-.7-1.2-1.5-1.6-2.4-1-1.5-1.6-4.4-1.6-4.4" stroke="#043258"/><path d="M483.6 289c-2-1.4-4-3.6-5.3-5a15 15 0 0 1-1.6-2.2c-1-1.7-1.7-4.5-1.7-4.5" stroke="#04345b"/><path d="M483.6 289c-2-1.4-4-3.7-5-5a14 14 0 0 1-1.8-2.3c-1-1.7-1.8-4.5-1.8-4.5" stroke="#04365e"/><path d="M483.7 289c-2-1.4-4-3.8-5-5-.7-.7-1.2-1.5-1.7-2.4-1-1.7-2-4.5-2-4.5" stroke="#043862"/><path d="M483.8 289c-2-1.5-4-4-5-5.2-.6-.5-1.2-1.4-1.7-2.3-1-1.8-2-4.5-2-4.5" stroke="#053b67"/><path d="M484 289c-2-1.5-4-4-5-5.2-.7-.6-1.2-1.5-1.8-2.4-1-2-2-4.5-2-4.5" stroke="#053d6a"/><path d="M484 289c-2-1.5-4-4.2-5-5.3l-1.7-2.4-2.2-4.4" stroke="#053f6e"/><path d="M484 289c-2-1.6-4-4.3-5-5.4-.4-.5-1-1.4-1.5-2.4l-2.4-4.4" stroke="#064172"/><path d="M475 276.7s3 5.3 4.3 6.8c1 1 2.8 4 4.8 5.5" stroke="#00209f"/><path d="M475.2 290l10.2 6.5 2-3-1-2.6" stroke="#011d33"/><path d="M475.2 290l10.2 6.4 1.8-3-.3-.8-.7-1.6" stroke="#011e34"/><path d="M475.2 290c3 1.8 4 2.6 10.2 6.3 0-.2 1.8-3 1.8-3l-.3-.7a18 18 0 0 1-.7-1.6" stroke="#022037"/><path d="M475.2 290l10.2 6.2 1.6-3-.2-.7-.5-1.5" stroke="#022139"/><path d="M475.2 289.8c2.7 1.8 4.5 3 10.2 6.3l1.5-3-.2-.6a8.2 8.2 0 0 1-.5-1.4" stroke="#02223b"/><path d="M475.3 289.8c2.5 1.7 4.6 3 10 6h.2l1.3-2.8v-.7a9.6 9.6 0 0 1-.5-1.3" stroke="#02233d"/><path d="M475.3 289.8c2.4 1.6 4.7 3 10.2 6 0-.3 1.3-3 1.2-3v-.5l-.4-1.3" stroke="#022540"/><path d="M475.3 289.8c2.3 1.6 5 3 10.2 6v-.3l1-2.8s.2 0 0-.5a4.8 4.8 0 0 1-.3-1.3" stroke="#022541"/><path d="M475.3 289.8c2.3 1.5 5 3 10.2 5.8v-.2l1-2.8v-.5c-.2-.3-.2-.7-.3-1" stroke="#022743"/><path d="M475.3 289.7c2.2 1.5 5.3 3.3 10.2 5.8v-.2c0-.3 1-2.8 1-2.8v-.5c-.3-.3-.3-.7-.3-1" stroke="#022847"/><path d="M475.3 289.7c2 1.4 5.4 3.4 10.2 5.6 0-.5.8-3 .8-3s.2 0 0-.3v-1" stroke="#022a49"/><path d="M475.3 289.7c2 1.3 5.6 3.4 10.2 5.5v-.2l.7-2.7s.2 0 0-.4v-1" stroke="#032a4a"/><path d="M475.4 289.7c1.8 1.3 5.6 3.5 10 5.4h.2l.5-2.8s.3 0 .2-.4v-.8" stroke="#032b4c"/><path d="M475.4 289.7c1.7 1.2 5.8 3.6 10 5.3l.2-.2.4-2.8s.3 0 .2-.3c-.2-.3 0-.3 0-.7" stroke="#032d4f"/><path d="M475.4 289.7c1.6 1 6 3.6 10 5.2l.2-.4.3-2.6h-.2s.4 0 .3-.3c0-.4 0-.4.2-.7" stroke="#032e50"/><path d="M475.4 289.6c1.6 1 6.2 3.7 10 5a.5.5 0 0 0 .2 0l.2-2.8.2-.2.2-.6" stroke="#032f53"/><path d="M475.4 289.6c1.5 1 6.3 3.8 10 5a.5.5 0 0 0 .2-.2v-2.7s.5 0 .4-.2c-.2-.3 0-.2 0-.5" stroke="#033156"/><path d="M475.4 289.6c1.4 1 6.5 4 10 5 0-.2.2-.3.2-.3v-2.7s.4 0 .3-.2c-.2-.2 0 0 0-.4" stroke="#043258"/><path d="M475.4 289.6c1.3 1 6.7 4 10 4.7 0 0 .2 0 .2-.2v-2.5s.3 0 .2-.2c0-.2.2 0 .3-.3" stroke="#043359"/><path d="M475.4 289.6c1.2.8 6.8 4 10 4.6 0 0 .2 0 .2-.2l-.3-2.7s.5.2.5 0c0-.3.2 0 .3-.3" stroke="#04355c"/><path d="M475.4 289.6c1 .7 7 4 10 4.5h.2c0-.8-.3-2.7-.4-2.7h.5c0-.3.2 0 .4-.3" stroke="#04365e"/><path d="M475.4 289.6c1 .6 7 4 10 4.4.2 0 .2-.2.2-.3 0-.6-.4-2.5-.5-2.6 0 0 .7.3.6 0 0 0 .3.3.5 0" stroke="#043760"/><path d="M475.4 289.6c1 .5 7.3 4.2 10 4.3l.3-.4c0-.7-.6-2.5-.7-2.6 0 0 .6.2.5 0 0 0 .4.3.6 0" stroke="#043862"/><path d="M475.5 289.5c.8.5 7.4 4.3 10 4.2l.2-.2c0-.8-.7-2.5-.8-2.6s.5 0 .5 0c0-.2.3.3.6 0" stroke="#053a65"/><path d="M475.5 289.5c.7.5 7.6 4.4 10 4 0 0 .2 0 .2-.2 0-.7-.8-2.4-1-2.5 0 0 .8.2.7 0 0 0 .4.5.7.2" stroke="#053b67"/><path d="M475.5 289.5c.6.4 7.7 4.4 10 4l.2-.3c0-.8-1-2.5-1-2.5h.7s.4.6.7.3" stroke="#053c68"/><path d="M475.5 289.5c.5.3 8 4.5 10 4a.5.5 0 0 0 .2-.4c0-.7-1-2.3-1-2.4 0 0 .6.2.6 0 0 0 .5.7.8.4" stroke="#053e6c"/><path d="M475.5 289.5c.4.2 8 4.6 10 3.8l.2-.3c0-1-1-2.5-1.2-2.6l.7.3s.6.6 1 .3" stroke="#053f6e"/><path d="M475.5 289.5c.3.2 8.2 4.6 10 3.6 0 0 .2 0 .2-.2 0-.8-1.2-2.4-1.3-2.5l.8.3s.5.6 1 .4" stroke="#053f6f"/><path d="M475.5 289.4c.2.2 8.4 4.8 10 3.6a.7.7 0 0 0 .2-.3c0-1-1.3-2.4-1.4-2.5l.8.3s.7.7 1 .5" stroke="#064171"/><path d="M475.5 289.4s8.6 4.8 10 3.5l.2-.4c0-1-1.4-2.4-1.5-2.5l.8.4s.7.8 1 .5" stroke="#064374"/><path d="M475.6 289.4s9.7 5.5 10 3c0-1-1.5-2.4-1.5-2.4l1 .3s.6 1 1 .7" stroke="#00209f"/><path d="M474.4 315l-7.5 12.7c-.7-.3-1.6-1.3-2-2.2-.5-1.7-.4-1.7-.8-3.6-.3-1.2-.3-2.4-.5-3.5-.3-1.2-2-4.8-2-6.2" stroke="#011d33"/><path d="M461.8 312.3c0 1.4 1.6 5 2 6 0 1.2 0 2.4.4 3.5.4 2 .3 1.8 1 3.6.2.8 1.2 1.8 1.7 2.2l7.4-12.5" stroke="#011d33"/><path d="M461.8 312.3c0 1.4 1.6 5 1.8 6 .3 1.2.3 2.3.6 3.4.4 1.8.3 1.8 1 3.6.2.8 1.2 1.8 1.7 2 0 0 7.4-12 7.4-12.2" stroke="#011e34"/><path d="M461.8 312.3c0 1.4 1.6 5 1.8 6 .3 1 .3 2.2.6 3.3.4 2 .3 1.8 1 3.5.2 1 1.2 2 1.7 2.3 0 0 7.4-12 7.4-12.2" stroke="#011e34"/><path d="M461.8 312.3c0 1.3 1.6 4.8 1.8 6 .3 1 .3 2.2.6 3.2.4 1.8.3 1.8 1 3.5.2.8 1.2 1.8 1.7 2 0 .2 7.3-11.8 7.4-12" stroke="#011f36"/><path d="M461.8 312.3c0 1.3 1.6 4.8 1.8 6 .3 1 .3 2 .6 3.2.4 1.7.3 1.7 1 3.4.3.7 1.2 1.7 1.7 2l7.4-12" stroke="#011f36"/><path d="M461.8 312.3c0 1.3 1.5 4.7 1.8 5.8.3 1.2.3 2.3.6 3.4.4 1.7.3 1.7 1 3.4.3.8 1.2 1.7 1.7 2l7.4-11.7" stroke="#022037"/><path d="M461.8 312.3c0 1.3 1.5 4.6 1.8 5.7.3 1 .3 2.2.6 3.3.4 1.7.4 1.7 1 3.3.3.8 1.2 1.8 1.7 2 0 .2 7.2-11.4 7.4-11.5" stroke="#022037"/><path d="M461.8 312.3c0 1.3 1.5 4.6 1.8 5.7.3 1 .3 2.2.6 3.2.4 1.7.4 1.7 1 3.3.3.8 1.2 1.7 1.7 2 0 0 7.2-11.3 7.4-11.4" stroke="#022139"/><path d="M461.8 312.3c0 1.3 1.5 4.6 1.8 5.6l.6 3c.4 1.8.4 1.8 1 3.4.3.8 1.2 1.7 1.7 2 0 0 7.2-11.2 7.4-11.3" stroke="#022139"/><path d="M461.8 312.3c0 1.3 1.5 4.5 1.8 5.6l.6 3c.5 1.7.4 1.7 1 3.3.3.8 1.2 1.7 1.7 2 .2 0 7-11 7.4-11.2" stroke="#022139"/><path d="M461.8 312.3c0 1.3 1.5 4.4 1.8 5.5l.6 3c.5 1.8.4 1.8 1 3.3.3 1 1.2 1.8 1.7 2 .2.2 7-10.8 7.4-11" stroke="#02223b"/><path d="M461.8 312.3c0 1.2 1.5 4.4 1.8 5.4.3 1 .3 2.2.6 3 .5 1.8.4 1.8 1 3.3.3.8 1.2 1.7 1.7 2 .2 0 7-10.7 7.4-11" stroke="#02223b"/><path d="M461.8 312.3c0 1.2 1.5 4.3 1.8 5.4l.6 3c.5 1.7.4 1.7 1 3.2.3.7 1.2 1.5 1.8 2 .3 0 7-10.7 7.4-11" stroke="#02233d"/><path d="M461.8 312.3c0 1.2 1.4 4.3 1.8 5.3l.6 3 1 3.2c.3.7 1.3 1.6 1.8 2 .3 0 7-10.5 7.4-10.7" stroke="#02233d"/><path d="M461.8 312.3c0 1.2 1.4 4.3 1.8 5.3l.6 3 1 3c.4.8 1.3 1.7 1.8 2 .3 0 7-10.3 7.4-10.5" stroke="#02233e"/><path d="M461.8 312.3c0 1 1.4 4.2 1.8 5.2l.6 3 1 3c.4.8 1.3 1.6 1.8 2 .4 0 7-10.2 7.4-10.4" stroke="#02233e"/><path d="M461.8 312.2c0 1.2 1.4 4.2 1.8 5.3l.6 3 1 3c.4.6 1.3 1.5 1.8 1.8.4 0 7-10 7.4-10.2" stroke="#022540"/><path d="M461.8 312.2c0 1.2 1.4 4.2 1.8 5.2l.6 3 1 3c.4.6 1.3 1.4 1.8 1.7.4.3 7-9.7 7.4-10" stroke="#022540"/><path d="M461.8 312.2c0 1.2 1.4 4 1.8 5l.7 3c.4 1.5.4 1.6 1 3 .3.7 1.2 1.5 1.7 1.8.5 0 7-9.7 7.4-10" stroke="#022540"/><path d="M461.8 312.2c0 1.2 1.4 4 1.8 5l.7 3 1 3c.3.6 1.2 1.4 1.7 1.7.5 0 7-9.7 7.4-10" stroke="#022541"/><path d="M461.8 312.2c0 1 1.4 4 1.8 5l.7 2.8 1 3c.3.6 1.2 1.4 1.7 1.8.5 0 7-9.5 7.4-9.7" stroke="#022541"/><path d="M461.8 312.2c0 1 1.4 4 1.8 5l.7 2.7 1 2.8c.4.7 1.2 1.5 1.7 1.8.5 0 6.8-9.3 7.4-9.5" stroke="#022743"/><path d="M461.8 312.2c0 1 1.4 4 1.8 5l.7 2.6 1 3c.4.6 1.2 1.3 1.7 1.6.5.2 6.8-9 7.4-9.3" stroke="#022743"/><path d="M461.8 312.2c0 1 1.4 4 1.8 4.8l.7 2.8 1 2.8c.4.6 1.2 1.4 1.7 1.7.6.2 6.8-9 7.4-9.2" stroke="#022845"/><path d="M461.8 312.2c0 1 1.4 3.8 1.8 4.8l.7 2.7 1 2.8c.4.6 1.2 1.4 1.7 1.7.6.2 6.7-9 7.4-9" stroke="#022845"/><path d="M461.8 312.2c0 1 1.3 3.7 1.8 4.7l.7 2.6 1 2.7c.4.7 1.2 1.5 1.7 1.7.6.2 6.7-8.7 7.4-9" stroke="#022847"/><path d="M461.8 312.2c0 1 1.3 3.7 1.8 4.7.3.7.4 1.6.7 2.5l1 2.7c.4.6 1.2 1.4 1.7 1.7.7 0 6.7-8.7 7.4-9" stroke="#022847"/><path d="M461.8 312.2c0 1 1.3 3.7 1.8 4.6l.7 2.6 1 2.7c.4.7 1.2 1.5 1.7 1.8.7 0 6.7-8.4 7.4-8.7" stroke="#022847"/><path d="M461.8 312.2c0 1 1.3 3.6 1.8 4.6l.7 2.5 1 2.7c.5.6 1.2 1.3 1.8 1.6.7.2 6.7-8.2 7.4-8.5" stroke="#022a49"/><path d="M461.8 312.2c0 1 1.3 3.5 1.8 4.5l.7 2.5 1 2.6c.5.7 1.2 1.4 1.8 1.6.8.3 6.6-8 7.4-8.3" stroke="#022a49"/><path d="M461.8 312.2c0 1 1.3 3.5 1.8 4.4l.7 2.5c.5 1.4.5 1.5 1.2 2.7.3.6 1 1.4 1.6 1.6.8.2 6.6-8 7.4-8.2" stroke="#032a4a"/><path d="M461.8 312.2c0 1 1.3 3.4 1.7 4.4.4.8.5 1.6.8 2.4l1.2 2.6c.3.6 1 1.3 1.6 1.6.8.2 6.6-7.8 7.4-8" stroke="#032a4a"/><path d="M461.8 312.2c0 1 1.2 3.4 1.7 4.3l.8 2.4 1.2 2.5c.3.6 1 1.3 1.6 1.5.8.3 6.5-7.6 7.4-8" stroke="#032b4c"/><path d="M461.8 312.2c0 1 1.2 3.3 1.7 4.3l.8 2.3 1.2 2.6c.3.5 1 1.2 1.6 1.5 1 0 6.5-7.6 7.4-8" stroke="#032b4c"/><path d="M461.8 312.2c0 1 1.2 3.3 1.7 4.2l.8 2.4 1.2 2.4c.3.6 1 1.3 1.6 1.6 1 .2 6.5-7.4 7.4-7.7" stroke="#032c4d"/><path d="M461.8 312.2c0 1 1.2 3.2 1.7 4 .3 1 .5 1.7 1 2.5.3 1.2.4 1.3 1 2.4.3.7 1 1.4 1.6 1.6 1 .3 6.4-7.2 7.4-7.5" stroke="#032c4d"/><path d="M461.8 312.2c0 1 1.2 3.2 1.7 4 .3.8.5 1.6 1 2.4.3 1.2.4 1.2 1 2.4.3.5 1 1.2 1.6 1.5 1 .3 6.4-7 7.4-7.4" stroke="#032c4d"/><path d="M461.8 312.2c0 1 1.2 3 1.7 4 .3.8.5 1.6 1 2.3.3 1.2.4 1.3 1 2.3.3.6 1 1.3 1.6 1.5 1 .3 6.4-6.8 7.4-7.2" stroke="#032d4f"/><path d="M461.8 312.2c0 .8 1.2 3 1.7 4 .3.7.5 1.5 1 2.2.3 1.2.5 1.2 1 2.4.4.5 1 1 1.6 1.4 1 .2 6.4-6.7 7.4-7" stroke="#032d4f"/><path d="M461.8 312.2c0 .8 1.2 3 1.7 4 .3.7.5 1.4 1 2 .3 1.3.5 1.3 1 2.4.4.5 1 1.2 1.6 1.5 1 .3 6.4-6.5 7.4-7" stroke="#032e50"/><path d="M461.8 312.2c0 .8 1 3 1.7 3.8.3.8.5 1.5 1 2.2.3 1.2.5 1.3 1 2.3.4.5 1 1.2 1.6 1.4 1 .2 6.3-6.5 7.4-7" stroke="#032e50"/><path d="M461.8 312.2c0 .8 1 3 1.7 3.8.3.7.5 1.5 1 2.2.3 1 .5 1 1 2.2.4.5 1 1 1.6 1.4 1 .3 6.3-6.3 7.4-6.7" stroke="#032f53"/><path d="M461.8 312.2c0 .7 1 3 1.7 3.7.3.6.5 1.4 1 2 .3 1.2.5 1.2 1 2.2.4.6 1 1.2 1.6 1.4 1 .3 6.3-6 7.4-6.5" stroke="#032f53"/><path d="M461.8 312.2c0 .7 1 2.8 1.7 3.7.3.5.5 1.3 1 2 .3 1 .5 1 1 2.2.4.4 1 1 1.6 1.3 1 .3 6.2-6 7.4-6.4" stroke="#033054"/><path d="M461.8 312.2c0 .7 1 2.7 1.7 3.6.3.7.5 1.4 1 2 .3 1 .5 1.2 1 2.2.4.5 1 1 1.6 1.3 1.2.4 6.2-5.8 7.4-6.2" stroke="#033054"/><path d="M461.8 312.2c0 .7 1 2.7 1.7 3.6l1 2c.3 1 .6 1 1 2 .5.6 1.2 1 1.6 1.4 1.2.3 6.2-5.7 7.4-6" stroke="#033054"/><path d="M461.8 312.2c0 .7 1 2.7 1.7 3.5l1 2c.3 1 .6 1 1 2l1.6 1.4c1.2.4 6-5.5 7.4-6" stroke="#033156"/><path d="M461.8 312.2c0 .7 1 2.6 1.7 3.4l1 2c.3 1 .6 1 1 2l1.6 1.3c1.3.2 6-5.4 7.4-6" stroke="#033156"/><path d="M461.8 312.2c0 .7 1 2.6 1.7 3.4l1 2c.3 1 .6 1 1.2 2 .3.4 1 1 1.4 1.2 1.3.3 6-5.2 7.4-5.7" stroke="#043258"/><path d="M461.8 312.2c0 .7 1 2.5 1.7 3.3l1 2c.3 1 .6 1 1.2 2 .3.4 1 1 1.4 1 1.3.5 6-5 7.4-5.4" stroke="#043258"/><path d="M461.8 312.2c0 .6 1 2.4 1.7 3.3l1 1.8c.4 1 .6 1 1.2 2 .3.5 1 1 1.4 1.2 1.4.4 6-5 7.4-5.4" stroke="#043359"/><path d="M461.8 312.2c0 .6 1 2.4 1.7 3.2l1 1.8c.4 1 .6 1 1.2 2 .4.4 1 1 1.5 1 1.2.5 5.8-4.6 7.2-5" stroke="#043359"/><path d="M461.8 312.2c0 .6 1 2.4 1.7 3l1 2c.4 1 .7 1 1.2 1.8.4.5 1 1 1.5 1.2 1.2.4 5.8-4.6 7.2-5" stroke="#04345b"/><path d="M461.8 312.2c0 .6 1 2.3 1.7 3l1 2 1.2 1.7c.4.4 1 1 1.5 1 1.3.5 5.8-4.4 7.2-5" stroke="#04345b"/><path d="M461.8 312.2c0 .6 1 2.2 1.7 3l1 1.8c.4 1 .7 1 1.2 1.8.4.4 1 1 1.5 1 1.3.5 5.8-4.2 7.2-4.7" stroke="#04345b"/><path d="M461.8 312.2c0 .5 1 2.2 1.7 3l1 1.7 1.2 1.7c.4.4 1 .8 1.5 1 1.3.5 5.7-4 7.2-4.6" stroke="#04355c"/><path d="M461.8 312.2c0 .5 1 2 1.7 3l1 1.6c.4.8.7 1 1.3 1.7.3.5 1 1 1.4 1 1.3.6 5.7-4 7.2-4.4" stroke="#04355c"/><path d="M461.8 312.2c0 .5 1 2 1.7 3l1 1.5c.4 1 .7 1 1.3 1.7.3.5 1 1 1.4 1 1.4.5 5.7-3.8 7.2-4.3" stroke="#04365e"/><path d="M461.8 312.2c0 .5 1 2 1.7 2.8l1 1.6c.4.8.7 1 1.3 1.7.3.4 1 1 1.4 1 1.4.5 5.6-3.7 7.2-4.2" stroke="#04365e"/><path d="M461.8 312.2c0 .5 1 2 1.7 2.7l1 1.6c.4.7.7 1 1.3 1.6.3.4 1 .8 1.4 1 1.4.4 5.6-3.6 7.2-4" stroke="#043760"/><path d="M461.8 312.2c0 .4 1 2 1.7 2.7l1 1.5c.4.7.7.8 1.3 1.6.3.5 1 1 1.4 1 1.5.5 5.6-3.4 7.2-4" stroke="#043760"/><path d="M461.8 312.2c0 .4 1 2 1.7 2.6l1 1.6c.4.7.7.8 1.3 1.5l1.4 1c1.5.4 5.5-3.4 7.2-4" stroke="#043862"/><path d="M461.8 312.2c0 .4 1 1.8 1.7 2.6l1 1.4c.4.8.7 1 1.3 1.6l1.4 1c1.5.4 5.5-3.2 7.2-3.8" stroke="#043862"/><path d="M461.8 312.2c0 .4 1 1.8 1.7 2.5l1 1.5c.4.7.8.8 1.3 1.5l1.4 1c1.6.4 5.5-3 7.2-3.7" stroke="#043862"/><path d="M461.8 312.2c0 .4 1 1.7 1.7 2.4l1 1.5c.4.8.8 1 1.3 1.6l1.4 1c1.6.4 5.5-3 7.2-3.6" stroke="#043963"/><path d="M461.8 312.2c0 .4 1 1.7 1.7 2.4l1 1.4c.4.7.8.8 1.3 1.5l1.4 1c1.6.4 5.5-2.8 7.2-3.5" stroke="#043963"/><path d="M461.8 312.2c0 .4 1 1.6 1.7 2.3l1 1.4 1.3 1.3 1.4 1c1.6.4 5.4-2.6 7.2-3.3" stroke="#053a65"/><path d="M461.8 312.2c0 .3.8 1.6 1.7 2.3.3.4.6 1 1 1.3.5.7.8.8 1.4 1.4.2.4.8.7 1.3 1 1.6.4 5.3-2.5 7-3.2" stroke="#053a65"/><path d="M461.8 312.2c0 .3.8 1.5 1.7 2.2.3.5.6 1 1 1.3l1.4 1.4c.3.4.8.8 1.3 1 1.6.4 5.3-2.3 7-3" stroke="#053b67"/><path d="M461.8 312.2c0 .3.8 1.4 1.7 2 .3.6.6 1 1 1.4.5.7.8.8 1.4 1.4l1.3.8c1.6.5 5.2-2 7-2.8" stroke="#053b67"/><path d="M461.8 312.2c0 .3.8 1.4 1.7 2l1 1.4c.5.5 1 .7 1.4 1.3.3.2.8.5 1.3.6 1.7.6 5.2-2 7-2.6" stroke="#053c68"/><path d="M461.8 312.2c0 .3.8 1.4 1.7 2 .3.4.6 1 1 1.3.5.5 1 .7 1.4 1.2l1.3.8c1.7.5 5.2-1.8 7-2.5" stroke="#053c68"/><path d="M461.8 312.2c0 .2.8 1.3 1.7 2l1 1.2c.5.5 1 .7 1.4 1.2l1.3.8c1.7.5 5-1.7 7-2.4" stroke="#053c68"/><path d="M461.8 312.2c0 .2.8 1.2 1.7 2l1 1 1.4 1.3c.3.3.8.6 1.3.7 1.8.6 5-1.4 7-2.2" stroke="#053d6a"/><path d="M461.8 312.2c0 .2.8 1.2 1.7 2l1 1c.5.5 1 .7 1.4 1 .3.4.8.7 1.3 1 1.8.4 5-1.4 7-2.2" stroke="#053d6a"/><path d="M461.8 312.2c0 .2.7 1 1.7 1.8l1 1c.5.6 1 .8 1.5 1.2.4.3.8.6 1.3.7 1.8.5 5-1.2 7-2" stroke="#053e6c"/><path d="M461.8 312.2c0 .2.7 1 1.6 1.8.4.3.8.6 1 1 .6.5 1 .7 1.6 1 .4.4.8.6 1.3.8 1.8.6 5-1 7-1.8" stroke="#053e6c"/><path d="M461.8 312.2s.7 1 1.6 1.7c.4.2.8.6 1 1l1.6 1 1.3.7c1.8.5 5-1 7-1.7" stroke="#053f6e"/><path d="M461.8 312.2s.7 1 1.6 1.6a14.2 14.2 0 0 0 1.2 1c.4.5 1 .7 1.4 1l1.3.7c2 .6 5-.7 7-1.5" stroke="#053f6e"/><path d="M461.8 312.2s.7 1 1.6 1.6l1.2 1 1.4 1 1.3.6c2 .5 5-.6 7-1.4" stroke="#053f6f"/><path d="M461.8 312.2s.7 1 1.6 1.5l1.2 1 1.4 1 1.3.6c2 .5 5-.5 7-1.3" stroke="#053f6f"/><path d="M461.8 312.2s.7.8 1.6 1.4l1.2 1 1.4 1c.4 0 1 .3 1.3.5 2 .7 5-.2 7-1" stroke="#053f6f"/><path d="M461.8 312.2s.7.8 1.6 1.4l1.2 1c.5.3 1 .4 1.5.8l1.3.5c2 .6 5-.2 7-1" stroke="#064171"/><path d="M461.8 312.2l1.6 1.4 1.2.8c.5.3 1 .5 1.5 1 .5 0 1 .3 1.4.4 2 .6 4.8 0 7-.8" stroke="#064171"/><path d="M461.8 312.2s.7.7 1.6 1.3l1.2.8 1.5.8 1.4.7c2 .6 4.7.2 7-.7" stroke="#064172"/><path d="M461.8 312c0 .2.7.8 1.6 1.4l1.2.8 1.5.8 1.4.6c2 .6 4.7.3 7-.6" stroke="#064172"/><path d="M461.8 312c0 .2.6.8 1.6 1.4l1.2.7 1.5 1c.5 0 1 .3 1.4.4 2 .6 4.7.5 7-.4" stroke="#064374"/><path d="M461.8 312c0 .2.6.7 1.6 1.3l1.2.7 1.5.8 1.4.5c2 .6 4.7.6 7-.3" stroke="#064374"/><path d="M461.8 312c0 .2.6.6 1.6 1.3l1.2.7 1.5.6 1.4.5c2 .7 4.6 1 7 0m-12.6-3s6.5 5.2 12.6 3" stroke="#00209f"/><path d="M461.6 292.2s1.2 8 1.7 9.3c.4 1 3 5.6 7 6.7" stroke="#022743"/><path d="M461.6 292.2s1.3 8 1.8 9.2c.5 1 2.8 5.4 6.8 6.8" stroke="#022a49"/><path d="M461.6 292s1.4 8 2 9.3c.3 1 2.6 5.2 6.6 7" stroke="#032b4c"/><path d="M461.6 292s1.5 8 2 9.2c.5 1 2.5 5 6.6 7" stroke="#032e50"/><path d="M461.6 292s1.6 8 2 9.2c.6 1 2.5 4.7 6.7 7" stroke="#033054"/><path d="M461.6 292s1.6 8 2.2 9c.5 1.2 2.2 4.6 6.5 7" stroke="#043359"/><path d="M461.6 292s1.7 7.8 2.3 9c.4 1 2 4.3 6.3 7" stroke="#04355c"/><path d="M461.7 292s1.7 7.8 2.3 9c.5 1 2 4 6.3 7" stroke="#043760"/><path d="M461.7 292s1.8 7.7 2.4 9c.6 1 1.8 3.7 6.3 7" stroke="#053a65"/><path d="M461.7 292s2 7.7 2.5 8.8c.6 1 1.6 3.5 6 7.2" stroke="#053c68"/><path d="M461.7 292s2 7.6 2.6 8.8c.5 1 1.4 3.2 6 7.2" stroke="#053f6e"/><path d="M461.8 292s2 7.5 2.6 8.7c.6 1 1.3 3 6 7.2" stroke="#064172"/><path d="M461.8 292s2 7.5 2.7 8.6c.6 1 1 2.8 6 7.3" stroke="#00209f"/><path d="M462 287.2s1 11.4 9.3 14.6" stroke="#022743"/><path d="M462 287.2s.5 3.7 2.2 7.2c1.3 2.8 3.5 6 7 7.4" stroke="#022a49"/><path d="M462 287.2s.6 3.8 2.3 7.2c1.2 2.5 3.4 5.8 7 7.4" stroke="#032b4c"/><path d="M462 287.2c.2 0 .8 4 2.4 7 1 2.4 3.3 5.8 7 7.5" stroke="#032e50"/><path d="M462.2 287.2s.7 4 2.3 7c1 2.2 3.2 5.7 6.8 7.5" stroke="#033054"/><path d="M462.2 287.2s.8 4 2.4 7c1 2 3 5.6 6.7 7.5" stroke="#043359"/><path d="M462.2 287.2s1 4 2.5 7c1 1.7 3 5.4 6.6 7.4" stroke="#04355c"/><path d="M462.2 287c0 .4 1 4.5 2.6 7 .8 1.6 3 5.5 6.5 7.6" stroke="#043760"/><path d="M462.2 287c0 .4 1.2 4.6 2.6 7 .8 1.4 3 5.4 6.5 7.5" stroke="#053a65"/><path d="M462.3 287c0 .4 1.3 4.7 2.6 7 .6 1.2 2.7 5.2 6.3 7.5" stroke="#053c68"/><path d="M462.3 287c0 .4 1.4 4.7 2.8 7 .7 1 2.7 5 6.3 7.5" stroke="#053f6e"/><path d="M462.3 287c0 .4 1.5 5 3 6.8.4.8 2.4 5.2 6 7.7" stroke="#064172"/><path d="M462.3 287c0 .4 1.6 5 3 6.7.4.7 2.4 5.2 6 7.8" stroke="#00209f"/><path d="M462.2 284s2.3 9.2 9 11.5" stroke="#022743"/><path d="M462.2 284s1 3.3 3 6.4c1.5 2.2 3.6 4.2 6 5" stroke="#022847"/><path d="M462.2 284s1 3.2 3 6.3c1.6 2.2 3.7 4.4 6 5.2" stroke="#032a4a"/><path d="M462.2 284s1 3 3.2 6.3c1.5 2.2 3.7 4.4 5.8 5" stroke="#032c4d"/><path d="M462.2 284s1 3 3.3 6.2c1.6 2.2 3.8 4.6 5.7 5.2" stroke="#032f53"/><path d="M462.2 284s1 3 3.3 6c1.7 2.4 4 4.8 5.7 5.4" stroke="#033156"/><path d="M462.2 283.8s1 3 3.4 6.2c1.7 2.4 4 5 5.6 5.4" stroke="#043359"/><path d="M462.2 283.8s1 3 3.5 6.2c1.8 2.3 4.2 5 5.5 5.4" stroke="#04355c"/><path d="M462.3 283.8s1 3 3.5 6c1.8 2.5 4.3 5 5.4 5.5" stroke="#043760"/><path d="M462.3 283.8s1 2.8 3.5 6c2 2.5 4.5 5.2 5.4 5.5" stroke="#043963"/><path d="M462.3 283.7s1 2.8 3.6 6c1.8 2.5 4.5 5.4 5.2 5.6" stroke="#053b67"/><path d="M462.3 283.7s1.2 2.7 3.7 6c2 2.5 4.7 5.4 5.2 5.6" stroke="#053e6c"/><path d="M462.3 283.7s1.2 2.7 3.8 6c2 2.5 5 5.5 5.2 5.6" stroke="#053f6f"/><path d="M462.3 283.6s1.2 2.7 4 6c2 2.5 4.8 5.6 5 5.7" stroke="#064172"/><path d="M462.3 283.6s1.3 2.6 4 5.8c2 2.7 5 6 5 6m8.7 1.2l4.5.8m-4 2.6l4-1.7" stroke="#00209f"/><path d="M480 296.7l4.4.7" stroke="#064171"/><path d="M480 297l4.5.4" stroke="#053e6c"/><path d="M480 297l4.5.4" stroke="#053b67"/><path d="M480 297.2l4.5.3" stroke="#043862"/><path d="M480 297.4h4.6" stroke="#04355c"/><path d="M480 297.6h4.6" stroke="#043258"/><path d="M480 297.7l4.7-.2" stroke="#032f53"/><path d="M480 298l4.7-.4" stroke="#032c4d"/><path d="M480 298l4.8-.5" stroke="#022a49"/><path d="M480.3 299.8l4.2-1.6" stroke="#064171"/><path d="M480.3 299.6l4.3-1.5" stroke="#053e6c"/><path d="M480.3 299.5l4.3-1.4" stroke="#053b67"/><path d="M480.3 299.3l4.3-1.3" stroke="#043862"/><path d="M480.2 299l4.5-1" stroke="#04355c"/><path d="M480.2 299l4.5-1.2" stroke="#043258"/><path d="M480.2 298.7l4.6-1" stroke="#032f53"/><path d="M480 298.6l4.8-1" stroke="#032c4d"/><path d="M480 298.4l5-.7" stroke="#022a49"/><path d="M480 298.2l5-.6" stroke="#022743"/><path d="M484.2 331.6l-2.6.2-10-.2" stroke="#032b4c"/><path d="M484.3 331.6l-2.7.3-9.8-.3" stroke="#032e50"/><path d="M484.3 331.6l-2.8.4-9.6-.3" stroke="#033054"/><path d="M484.3 331.7l-2.8.5-9.6-.5" stroke="#043359"/><path d="M484.3 331.7l-3 .6c-.7.2-9.3-.5-9.3-.5" stroke="#04355c"/><path d="M484.3 331.7l-3 .7c-.8.3-9.2-.6-9.2-.6" stroke="#043760"/><path d="M484.4 331.8l-3 .8c-1 .2-9.2-.7-9.2-.7" stroke="#053a65"/><path d="M484.4 331.8s-2 .7-3.2 1c-1 .2-9-.8-9-.8" stroke="#053c68"/><path d="M484.4 332s-2 .6-3.2 1c-1.2 0-9-1-9-1" stroke="#053f6e"/><path d="M484.4 332s-1.8.7-3.2 1c-1.4.3-8.8-1-8.8-1" stroke="#064172"/><path d="M472.5 332s7 1.4 8.6 1c1.6-.2 3.5-1 3.5-1" stroke="#00209f"/><path d="M486 337l4.8.7 2.7-.2 2.2-.5" stroke="#022a49"/><path d="M485.8 337s4.7.7 5 .6h2.7l2-.6" stroke="#032d4f"/><path d="M485.5 337s5 .7 5.3.6l2.6-.2 2-.5" stroke="#033054"/><path d="M485.3 336.7s5 1 5.6.8a57 57 0 0 1 2.4-.2l1.7-.4" stroke="#043359"/><path d="M485 336.6s5 1 6 .8l2.4-.2 1.5-.3" stroke="#043760"/><path d="M484.8 336.5s5 1 6 .8l2.5-.2h1.4" stroke="#053a65"/><path d="M484.5 336.4s5.3 1 6.4.8l2.3-.2a24.4 24.4 0 0 0 1.2-.2" stroke="#053d6a"/><path d="M484.2 336.3s5.4 1 6.8 1c.7-.3 1.7-.4 2.2-.4l1-.2" stroke="#064171"/><path d="M486.3 337.2l4.5.6h2.8l2.4-.7" stroke="#022743"/><path d="M484 336.2s5.5 1.2 7 1c1.5-.4 3-.4 3-.4m11.8 0l4.3-1.6c2.7-1 3-3.6 3-3.6" stroke="#00209f"/><path d="M505.5 336l3-1.3c4-1.4 3.5-3.2 3.5-3.2" stroke="#00209f"/><path d="M505.2 336l3.4-1.2c.6-.2 1.4-.5 1.8-.8l1.4-1.2c.3-.5.3-1.3.3-1.3" stroke="#053e6c"/><path d="M505 336.3l3.6-1.4 1.8-.8 1.4-1.2c.3-.5.4-1.5.4-1.5" stroke="#043862"/><path d="M504.7 336.5l4-1.5 1.6-.7c.3 0 1.5-1 1.5-1.2.2-.2.5-1.5.5-1.5" stroke="#043258"/><path d="M504.4 336.7l4.2-1.5 1.7-.7c.2 0 1.5-1.2 1.6-1.3l.4-1.6" stroke="#032c4d"/><path d="M505.5 337l4.6-2c1-.2 1.8-1 2.2-1.4l.8-2" stroke="#053e6c"/><path d="M505 337l5-2c.8-.2 1.8-1 2-1.5.5-.6.8-2 .8-2" stroke="#043862"/><path d="M504.8 337l5.4-2 2-1.5.5-2" stroke="#043258"/><path d="M504.5 337l5.7-2.2c.2 0 1.7-1.2 1.8-1.4l.7-1.8" stroke="#032c4d"/><path d="M504.2 337l6-2.4 1.7-1.2.5-1.8" stroke="#022743"/><path d="M511.3 331.6l-2.8.2-10.3-.2" stroke="#032b4c"/><path d="M511.3 331.6l-2.8.3-10.2-.3" stroke="#032e50"/><path d="M511.3 331.6l-3 .4-10-.3" stroke="#033054"/><path d="M511.3 331.7l-3 .5-9.8-.5" stroke="#043359"/><path d="M511.4 331.7l-3 .6c-1 .2-9.8-.5-9.8-.5" stroke="#04355c"/><path d="M511.4 331.7l-3 .7c-1 .3-9.8-.6-9.8-.6" stroke="#043760"/><path d="M511.4 331.8l-3.2.8c-1 .2-9.5-.7-9.5-.7" stroke="#053a65"/><path d="M511.4 331.8s-2 .7-3.3 1c-1 .2-9.2-.8-9.2-.8" stroke="#053c68"/><path d="M511.4 332s-2 .6-3.3 1c-1.2 0-9-1-9-1" stroke="#053f6e"/><path d="M511.4 332s-2 .7-3.3 1c-1.4.3-9-1-9-1" stroke="#064172"/><path d="M499 332s7.5 1.4 9 1c1.6-.2 3.5-1 3.5-1" stroke="#00209f"/></g><path d="M475 290a34 34 0 0 1-.2-3.3c0-5.2-.7-9 0-14.5.3-4.2 1.4-9.8 1.2-14.4 0-1.3 0-2.6.2-4l21 23.6M467 327.7c-.6-.3-1.5-1.3-2-2.2-.5-1.7-.3-1.7-.8-3.6-.2-1.2-.2-2.4-.5-3.5-.2-1.2-1.8-4.8-1.8-6.2-.3-4.8-2-8-1.5-13.2.3-3.8 1.2-9.3.7-13.4V282l23.7 15.6m28.4 34c.2.4-.3 1.4-.5 1.7l-.6.7c-.2.6-.2.4-.7 1l-.8.5c-.5.3-.8.6-1.2.7-1.8.3-2.5.7-4.2 1-1.6.6-.8.5-2 .8l-2.4.7-2.4.6c-3 .7-5.7.5-8.6.3-1 0-4-.7-5-1.4-1.8-1.2-5.7-1.7-7.4-3-.3 0-1.4-.6-1.6-.8-1.7-1.4-3-1.8-4.8-3" stroke-miterlimit="2.6" fill="none" stroke="#000" stroke-width=".2"/><g stroke-miterlimit="2.6" stroke="#000" stroke-width=".1"><path fill="#fc0" fill-rule="evenodd" d="M485 297.6l.5-.8-24-15.7-.4.8zM461 281c-.2-1 0-2.2.7-2.4h.7c.4 0 .5 0 .7.4.3.8-.7 1.3-1.4 1.6 0 0-.6 0-.7.3v.3s0-.2.2-.3l1.7-.7c.6-.3.7-1.4.3-1.8-.4-.3-1.8-.3-2 0-.7.8-.8 1.8-.6 2.8 0-.2.2 0 .2-.4z"/><path d="M460.8 281.3c-1 0-2 .4-2.2 1v1c0 .3.2.4.6.4.8.3 1.2-.7 1.4-1.5 0 0 0-.6.2-.7.4-.2.3 0 .4-.2l-.3.3c-.3.5-.3 1-.6 2-.2.5-1.3.7-1.6.3-.5-.4-.6-1.8-.3-2 .7-1 1.7-1 2.7-1-.2 0-.2.4-.4.3z" fill="#fc0" fill-rule="evenodd"/><path d="M460.6 281c-.3 0-.3.4 0 .6 0 .2.3.3.5.2.5-.2.7-.6.5-1-.2-.3-.6 0-1 0z" fill="#fc0" fill-rule="evenodd"/><path d="M455.6 277.8s2.5 1 4.5 1c0 0 .2 1.8.6 2.3 0 0-1.8-.2-2.6.2 0 0-1-2.5-2.4-3.4z" fill="#fc0" fill-rule="evenodd"/><path d="M457.6 279s1 .5 1.8.5c0 0 0 .6.2 1 0 0-.7-.3-1 0 0 0-.4-1-1-1.5z" fill="none"/><path d="M460.8 283l.6-1.2c0-.2 0 1 .4 1 .5.8.7 2.3.7 2.7-.7.2-1.3.6-2.3.2-.3-.3 0-1 0-1.4.2-.3.3-1 .6-1.4z" fill="#fc0" fill-rule="evenodd"/><path d="M461.3 282.2v.6c0-.2.3.2.3.3.3.7.5 1.2.6 2.5m-.7-2.2c.2 1 .3 1 .3 2.4m-.4-1.5l.2 1.4-.3.2" fill="none"/><path fill="#fc0" fill-rule="evenodd" d="M497 277.4l.8-.6-21.4-23.7-.4.6z"/><path d="M476.6 253c0-1 .6-2 1.2-2h.8c.4.2.5.4.6.7 0 1-1 1.2-1.7 1.3h-.8c-.2.4 0 .3-.2.4h.3c.6-.3 1.2-.3 2-.4.5 0 1-1.3.6-1.7-.3-.4-1.6-.7-2-.4-.8.4-1 1.4-1.2 2.4 0-.2.4 0 .4-.3z" fill="#fc0" fill-rule="evenodd"/><path d="M476 253.4c-.8-.3-2-.2-2.2.5l-.2.7c0 .4 0 .5.4.7.7.4 1.4-.5 1.7-1.2 0-.2.2-.6.4-.7h.5s-.2 0-.3.2l-1 1.7c-.2.5-1.4.5-1.7 0-.3-.4 0-1.7.3-2 .8-.6 1.8-.5 2.8-.2-.2 0-.3.3-.5.2z" fill="#fc0" fill-rule="evenodd"/><path d="M476 253c-.3 0-.3.4-.3.6 0 .2.4.4.6.3.4-.2.7-.5.6-1-.2-.3-.7 0-1 0z" fill="#fc0" fill-rule="evenodd"/><path d="M472 248.7s2 1.6 4 2c0 0-.3 2 0 2.4 0 0-1.7-.6-2.6-.4 0 0-.4-2.7-1.5-4z" fill="#fc0" fill-rule="evenodd"/><path d="M473.6 250.4s.8.6 1.6 1v.8s-.7-.3-1-.2c0 0-.2-1-.6-1.6z" fill="none"/><path d="M475.7 255l1-1c0-.2-.4 1 0 1.2.4.8 0 2.3 0 2.7-.7 0-1.3.2-2-.5-.4-.3 0-1 .3-1.3 0-.3.3-1 .7-1.3z" fill="#fc0" fill-rule="evenodd"/><path d="M476.4 254.4v.5l.2.6v2.2m-.3-2.5c.2 1 0 1.6 0 2.5-.2 0 0 0 0 0m-.2-1v1h-.3" fill="none"/></g></g><use height="100%" width="100%" xlink:href="#c" transform="matrix(-1 0 0 1 1030 0)"/></g><path d="M319.3 198L279 265h80.6z" stroke-miterlimit="2.6" fill="#fc0" stroke="#000" stroke-width=".3"/><path d="M319.3 202.3L283 263h72.6z" stroke-miterlimit="2.6" fill="#fff" stroke="#fff" stroke-width=".1"/><path d="M293.8 245L283 263h72.6L345 245z" stroke-miterlimit="2.6" fill="#007e93" stroke="#007e93" stroke-width=".2"/><g stroke-miterlimit="2.6" fill="none" stroke-width=".1"><path d="M313 213c1.7-1.7 3.8-2.3 6.2-2.3h.2c2.3 0 4.7.6 6.3 2.2" stroke="#086aad"/><path d="M313 213c1.6-1.6 3.8-2.2 6.2-2.2h.2c2.4 0 4.8.5 6.3 2.2" stroke="#0863aa"/><path d="M313 213c1.6-1.6 3.8-2.2 6.2-2.2h.2c2.4 0 5 .6 6.4 2.3" stroke="#095fa8"/><path d="M312.8 213c1.7-1.5 4-2 6.4-2h.2c2.5 0 5 .5 6.5 2.2" stroke="#0a58a5"/><path d="M312.8 213.2c1.6-1.7 4-2.3 6.5-2.3 2.7 0 5 .6 6.6 2.3" stroke="#0a52a2"/><path d="M312.8 213.3c1.6-1.7 4-2.3 6.5-2.3h.2c2.6 0 5 .6 6.5 2.4" stroke="#0b4d9f"/><path d="M312.7 213.4c1.6-1.8 4-2.4 6.6-2.4h.2c2.6 0 5 .7 6.6 2.5" stroke="#0c479d"/><path d="M312.3 214c2-2 4.2-2.5 7-2.5h.2c3 0 5.7 1 7.3 3.2" stroke="#270a7f"/><path d="M312.3 214c2-2 4.2-2.5 7-2.6h.2c3 0 5.6 1 7.2 3.2" stroke="#241183"/><path d="M312.4 214c1.8-2 4-2.6 7-2.6s5.7 1 7.2 3" stroke="#221786"/><path d="M312.4 213.8c1.8-2 4.2-2.5 7-2.5 3 0 5.6 1 7.2 3" stroke="#1f1f8a"/><path d="M312.5 213.7c1.7-1.8 4-2.4 6.8-2.4 3 0 5.6.8 7.2 3" stroke="#1a258d"/><path d="M312.5 213.7c1.7-2 4-2.5 6.7-2.5h.2c3 0 5.4.8 7 3" stroke="#172d91"/><path d="M312.5 213.6c1.7-1.8 4-2.4 6.7-2.4h.2c2.8 0 5.3.7 7 2.7" stroke="#143393"/><path d="M312.6 213.5c1.6-1.8 4-2.4 6.6-2.4 3 0 5.5.8 7 2.8" stroke="#113b97"/><path d="M315.3 209c1.2-1 2.4-1.2 4-1.2 1.5 0 2.8.3 4 1" stroke="#ff0a00"/><path d="M315.3 209c1.2-.8 2.4-1 4-1 1.5 0 3 .2 4 1" stroke="#f10"/><path d="M315.2 209c1.3-.8 2.5-1 4-1 1.6 0 3 .2 4.2 1" stroke="#ff1500"/><path d="M315.2 209.2c1.2-1 2.5-1.2 4-1.2 1.6 0 3 .3 4.2 1" stroke="#ff1a00"/><path d="M315.2 209.2c1.2-.8 2.5-1 4-1 1.6 0 3 .2 4.2 1" stroke="#ff2000"/><path d="M315 209.3c1.4-1 2.7-1.2 4.3-1.2 1.5 0 3 .4 4.2 1.2" stroke="#ff2700"/><path d="M315 209.4c1.3-1 2.7-1.2 4.3-1.2 1.5 0 3 .3 4.2 1" stroke="#ff2f00"/><path d="M315 209.4c1.3-1 2.7-1 4.3-1 1.6 0 3 .2 4.3 1" stroke="#f30"/><path d="M315 209.5c1.3-1 2.7-1.2 4.3-1.2 1.6 0 3 .3 4.3 1" stroke="#ff3c00"/><path d="M315 209.6c1.2-1 2.7-1.2 4.3-1.2 1.6 0 3 .3 4.3 1" stroke="#ff4100"/><path d="M315 209.6c1.2-1 2.6-1.2 4.3-1.2 1.6 0 3.2.4 4.4 1.2" stroke="#ff4600"/><path d="M314 211.2c1.4-1 3.5-1.6 5.3-1.6 2 0 4 .6 5.4 1.6" stroke="#fff500"/><path d="M314 211c1.4-1 3.5-1.4 5.3-1.4 2 0 4 .5 5.3 1.6" stroke="#ffeb00"/><path d="M314 211c1.5-1 3.5-1.5 5.3-1.5 2 0 4 .5 5.3 1.6" stroke="#ffe000"/><path d="M314.2 211c1.3-1 3.3-1.6 5-1.6 2 0 4 .5 5.3 1.6" stroke="#ffd600"/><path d="M314.2 211c1.4-1 3.3-1.6 5-1.6 2 0 4 .5 5.3 1.5" stroke="#ffcf00"/><path d="M314.3 210.8c1.3-1 3.3-1.5 5-1.5 1.8 0 3.8.5 5 1.5" stroke="#ffc400"/><path d="M314.3 210.7c1.4-1 3.3-1.5 5-1.5s3.7.5 5 1.5" stroke="#ffba00"/><path d="M314.4 210.6c1.3-1 3.2-1.4 5-1.4 1.7 0 3.6.4 5 1.4" stroke="#ffb000"/><path d="M314.4 210.5c1.4-1 3.2-1.4 5-1.4 1.7 0 3.6.5 4.8 1.5" stroke="#ffa600"/><path d="M314.5 210.4c1.3-1 3-1.4 4.8-1.4 1.7 0 3.6.4 5 1.4" stroke="#ff9c00"/><path d="M314.6 210.3c1.2-1 3-1.3 4.7-1.3 1.7 0 3.5.4 4.8 1.3" stroke="#ff9100"/><path d="M314.6 210.2c1.3-1 3-1.3 4.7-1.3 1.7 0 3.5.3 4.8 1.2" stroke="#ff8700"/><path d="M314.7 210.2c1.2-1 3-1.4 4.6-1.4 1.7 0 3.4.4 4.7 1.3" stroke="#ff7d00"/><path d="M314.7 210c1.3-1 3-1.3 4.6-1.3 1.7 0 3.4.5 4.7 1.3" stroke="#ff7500"/><path d="M314.8 210c1.2-1 2.8-1.3 4.5-1.3 1.7 0 3.3.4 4.6 1.2" stroke="#ff6b00"/><path d="M314.8 210c1.3-1 2.8-1.4 4.5-1.4 1.6 0 3.3.4 4.6 1.3" stroke="#ff6100"/><path d="M315 209.8c1-1 2.6-1.3 4.3-1.3 1.6 0 3.3.4 4.5 1.2" stroke="#ff5700"/><path d="M314 211.4c1.3-1 3.5-1.6 5.3-1.6 2 0 4 .5 5.5 1.6" stroke="#ebf605"/><path d="M313.8 211.5c1.5-1.2 3.6-1.7 5.5-1.7 2 0 4.2.6 5.6 1.7" stroke="#d6ec09"/><path d="M313.8 211.6c1.5-1.3 3.6-1.7 5.5-1.7 2 0 4.2.4 5.6 1.6" stroke="#c2e30e"/><path d="M313.7 211.7c1.7-1.3 3.6-1.8 5.6-1.8 2 0 4.2.5 5.6 1.7" stroke="#add912"/><path d="M313.6 211.8c1.7-1.4 3.7-1.8 5.7-1.8s4.3.6 5.7 1.8" stroke="#99cf16"/><path d="M313.6 212c1.8-1.5 3.6-2 5.7-2 2 0 4.3.7 5.7 2" stroke="#85c61a"/><path d="M313.5 212c2-1.5 3.7-2 5.8-2 2 0 4.4.7 5.8 2" stroke="#70bc1f"/><path d="M313.5 212c2-1.5 3.7-2 5.8-2 2 0 4.4.8 5.8 2" stroke="#5cb323"/><path d="M313.4 212.2c2-1.6 3.7-2 6-2 2 0 4.4.7 5.8 2" stroke="#47a928"/><path d="M313 212.7c2-1.5 4-2 6.3-2s4.7.5 6.3 2" stroke="#0d74a4"/><path d="M313 212.7c2-1.6 4-2.2 6.3-2.2s4.7.7 6.2 2" stroke="#127a97"/><path d="M313.2 212.6c1.8-1.6 3.7-2 6-2 2.4 0 4.8.5 6.3 2" stroke="#17808b"/><path d="M313.2 212.6c2-1.6 3.7-2 6-2 2.4 0 4.8.5 6.2 2" stroke="#1a847d"/><path d="M313.2 212.5c2-1.6 3.8-2 6-2 2.4 0 4.7.6 6.2 2" stroke="#1e8a6d"/><path d="M313.3 212.5c2-1.7 3.7-2 6-2 2.2 0 4.6.5 6 2" stroke="#238f5e"/><path d="M313.3 212.4c2-1.6 3.7-2 6-2 2.2 0 4.6.6 6 2" stroke="#2b944e"/><path d="M313.3 212.4c2-1.7 3.7-2 6-2 2.2 0 4.6.6 6 1.8" stroke="#2f9b3e"/><path d="M323.2 208.8c-1-.8-2.4-1-4-1-1.5 0-2.7.2-3.8 1" stroke="red"/><path d="M327 215c-1.7-2.4-4.4-3.5-7.6-3.5-3 0-5.2.6-7.2 2.7" stroke="#2a007c"/><path d="M325.6 212.7c-1.5-1.5-4-2-6.3-2-2.4 0-4.5.5-6.2 2" stroke="#0671b0"/><path d="M326.2 213.7c-1.6-2-4-2.6-7-2.6-2.5 0-5 .7-6.6 2.4" stroke="#0c419a"/><path d="M324.8 211.3c-1.4-1-3.5-1.6-5.5-1.6-1.8 0-4 .5-5.4 1.6" stroke="#ff0"/><path d="M323.7 209.6c-1.2-.7-2.8-1-4.4-1-1.7 0-3 .2-4.4 1.2" stroke="#ff4d00"/><path d="M325.2 212.2c-1.4-1.3-3.7-2-6-2-2.2 0-3.8.4-5.8 2" stroke="#33a02c"/></g><g stroke-miterlimit="2.6" fill="none" stroke-width=".1"><path d="M312 214.5c2.2-1 4.6-1.8 7.3-1.8 2.6 0 5.4 1 7.6 2l7.6 13c0 8.5-7 15.4-15.3 15.4-8.4 0-15.2-6.7-15.3-15.2l8-13.3z" stroke="#fef2ec"/><path d="M319.3 213c2.6 0 5.3 1 7.5 2l7.6 12.7c0 8.3-6.8 15.2-15 15.2-8.4 0-15-6.8-15.2-15.2 0 0 7.8-13 8-13 2-1.2 4.4-2 7-2z" stroke="#fef2ea"/><path d="M319.3 213.3c2.5 0 5.2 1 7.3 2l7.4 12.4c0 8-6.6 14.8-14.7 14.8-8 0-14.6-6.5-14.7-14.7l7.6-12.7c2.2-1 4.5-1.7 7-1.7z" stroke="#fef0e6"/><path d="M319.3 213.7c2.4 0 5 1 7 2 .2 0 7.3 12 7.3 12 0 8-6.5 14.4-14.3 14.4-8 0-14.2-6.2-14.3-14.2 0-.2 7.3-12.3 7.4-12.4 2-1 4.3-1.7 7-1.7z" stroke="#feede3"/><path d="M319.3 214.3c2.3 0 4.8 1 6.8 2 .3 0 7 11.2 7 11.5 0 7.5-6.2 13.7-13.7 13.7-7.5 0-13.6-6-13.7-13.7 0-.3 7-11.7 7-11.8 2-1 4.3-1.7 6.7-1.7z" stroke="#fee8dc"/><path d="M319.3 214.7c2.3 0 4.7.8 6.6 2 0 0 6.5 10.7 6.5 11 0 7.4-6 13.4-13.2 13.4S306 235.3 306 228c0-.4 6.6-11.3 7-11.5 2-1 4-1.6 6.3-1.6z" stroke="#fee6d5"/><path d="M319.3 215.3c2.2 0 4.5.8 6.3 1.8.3.3 6.3 10.3 6.3 10.8 0 7-5.8 12.7-12.7 12.7-7 0-12.6-5.6-12.7-12.7 0-.5 6.2-10.7 6.6-11 2-1 3.8-1.5 6-1.5z" stroke="#fee3cf"/><path d="M319.3 215.7c2 0 4.3.8 6 1.8.5.2 6.2 9.7 6.2 10.3 0 6.7-5.5 12.3-12.2 12.3-6.8 0-12.2-5.4-12.2-12.2 0-.5 6-10.3 6.4-10.6 1.8-1 3.7-1.5 6-1.5z" stroke="#fee0cc"/><path d="M319.3 216c2 0 4.2 1 6 1.8.3.3 5.8 9.4 5.8 10 0 6.5-5.2 12-11.7 12-6.5 0-11.8-5.4-11.8-12 0-.6 5.6-10 6-10.2 1.8-1 3.7-1.5 5.8-1.5z" stroke="#fedec6"/><path d="M319.3 218.8c1.6 0 3.2.5 4.6 1.3.7.5 4.4 6.8 4.4 7.8 0 5-4 9.2-9 9.2-5.2 0-9.3-4-9.3-9.2 0-1 4-7.4 4.8-8 1.4-.6 2.8-1 4.5-1z" stroke="#fdcdaa"/><path d="M319.3 219c1.6 0 3.2.5 4.4 1.2 1 .6 4.5 6.6 4.5 7.6 0 5-4 9-9 9s-9-4-9-9c0-1 3.8-7.2 4.7-7.7 1.3-.6 2.7-1 4.3-1z" stroke="#fdcdaa"/><path d="M319.3 220c1.4 0 2.8.4 4 1 1 .7 4 5.6 4 6.8 0 4.4-3.7 8-8 8-4.4 0-8-3.5-8-8 0-1.2 3-6.3 4-6.8 1.3-.7 2.5-1 4-1z" stroke="#fdc59e"/><path d="M319.3 220.2c1.4 0 2.7.4 4 1 1 .7 3.7 5.3 3.7 6.6 0 4.3-3.5 7.8-7.7 7.8a7.7 7.7 0 0 1-7.8-7.7c0-1.5 3-6.2 4-7 1-.5 2.4-.8 3.8-.8z" stroke="#fdc59e"/><path d="M319.3 213c2.5 0 5.2 1 7.4 2.2l7.5 12.5c0 8.2-6.7 15-15 15-8 0-14.7-6.6-14.8-15L312 215c2.3-1.2 4.6-2 7.3-2z" stroke="#fef0e9"/><path d="M319.3 213.5c2.5 0 5 1 7.2 2 0 0 7.3 12 7.3 12.3 0 8-6.5 14.5-14.5 14.5s-14.4-6.4-14.5-14.5l7.5-12.6c2.2-1 4.4-1.7 7-1.7z" stroke="#feede3"/><path d="M319.3 214c2.4 0 5 .8 7 2 0 0 7 11.6 7 11.8 0 7.7-6.3 14-14 14s-14-6.2-14-14c0-.2 7-12 7.2-12.2 2-1 4.3-1.7 6.8-1.7z" stroke="#feebdf"/><path d="M319.3 214c2.4 0 5 1 7 2 0 .2 7 11.5 7 11.8 0 7.6-6.4 14-14 14s-13.8-6.3-14-14c0-.2 7-12 7.3-12 2-1 4.2-1.7 6.7-1.7z" stroke="#feebdd"/><path d="M319.3 214.5c2.3 0 4.8 1 6.7 2 .2 0 6.7 11 6.7 11.3 0 7.4-6 13.5-13.4 13.5s-13.4-6-13.5-13.5c0-.3 6.7-11.5 7-11.7 2-1 4-1.5 6.5-1.5z" stroke="#fee8d9"/><path d="M319.3 215c2.2 0 4.6.8 6.5 1.8.3 0 6.5 10.6 6.5 11 0 7-5.8 13-13 13s-13-5.7-13-13c0-.4 6.4-11 6.7-11.3 2-1 4-1.6 6.3-1.6z" stroke="#fee6d3"/><path d="M319.3 215c2.2 0 4.6 1 6.4 2 .3 0 6.4 10.3 6.4 10.8 0 7-5.6 13-12.7 13-7 0-12.8-5.8-13-13 0-.4 6.4-11 6.8-11 2-1 4-1.7 6.3-1.7z" stroke="#fee3d2"/><path d="M319.3 215.5c2.2 0 4.4.8 6 1.8.6.2 6.4 10 6.4 10.5 0 6.8-5.6 12.5-12.4 12.5-7 0-12.4-5.6-12.5-12.5 0-.5 6-10.6 6.5-10.8 1.8-1 3.8-1.5 6-1.5z" stroke="#fee0cc"/><path d="M319.3 216c2 0 4.2.7 6 1.6.4.3 6 9.6 6 10.2 0 6.6-5.4 12-12 12s-12-5.3-12-12c0-.6 5.7-10.2 6.2-10.4 1.7-1 3.7-1.5 5.8-1.5z" stroke="#fedec8"/><path d="M319.3 216.3c2 0 4 .8 5.8 1.7.6.3 6 9.2 6 9.8 0 6.4-5.3 11.7-11.7 11.7-6.4 0-11.6-5.2-11.6-11.7 0-.6 5.5-9.8 6-10 1.7-1 3.5-1.5 5.6-1.5z" stroke="#fddbc5"/><path d="M319.3 216.5c2 0 4 .8 5.7 1.7.5.3 5.7 9 5.7 9.6 0 6.3-5 11.5-11.4 11.5s-11.4-5-11.5-11.5c0-.7 5.4-9.6 6-10 1.7-.7 3.5-1.3 5.5-1.3z" stroke="#fddbc2"/><path d="M319.3 216.7c2 0 4 .7 5.6 1.6.4.4 5.5 8.8 5.5 9.5 0 6.2-5 11.3-11.2 11.3-6.2 0-11.2-5-11.2-11.2 0-.7 5.3-9.4 6-9.7 1.5-.7 3.3-1.3 5.3-1.3z" stroke="#fdd9bf"/><path d="M319.3 217c2 0 4 .6 5.5 1.5.5.3 5.5 8.6 5.5 9.3 0 6-5 11-11 11s-11-4.8-11-11c0-.7 5-9.2 5.7-9.5 1.6-.8 3.3-1.4 5.3-1.4z" stroke="#fdd9bf"/><path d="M319.3 217c2 0 3.8.8 5.3 1.7.7.4 5.5 8.3 5.5 9 0 6-4.8 11-10.7 11-6 0-10.8-5-10.8-11 0-.7 5-9 5.6-9.2 1.7-1 3.4-1.4 5.3-1.4z" stroke="#fdd6bc"/><path d="M319.3 217.4c1.8 0 3.8.6 5.2 1.4.7.4 5.4 8.2 5.4 9 0 5.8-5 10.7-10.7 10.7-6 0-10.6-4.8-10.6-10.7 0-.8 4.8-8.8 5.5-9.2 1.5-.8 3.2-1.2 5-1.2z" stroke="#fdd6b9"/><path d="M319.3 217.6c1.8 0 3.7.6 5.2 1.4.6.4 5.2 8 5.2 8.8 0 5.7-4.7 10.5-10.4 10.5s-10.4-4.7-10.4-10.5c0-.8 4.5-8.6 5.2-9 1.6-.8 3.2-1.2 5-1.2z" stroke="#fdd4b8"/><path d="M319.3 217.7c1.8 0 3.6.7 5 1.5.8.4 5.2 7.7 5.2 8.6 0 5.6-4.6 10.3-10.2 10.3-5.7 0-10.2-4.5-10.2-10.2 0-1 4.6-8.4 5.3-8.8 1.6-.8 3.2-1.3 5-1.3z" stroke="#fdd4b6"/><path d="M319.3 218c1.7 0 3.5.6 5 1.4.7.4 5 7.5 5 8.4 0 5.5-4.5 10-10 10s-10-4.4-10-10c0-1 4.4-8.2 5-8.6 1.6-.8 3.2-1.3 5-1.3z" stroke="#fdd2b2"/><path d="M319.3 218.2c1.7 0 3.5.5 5 1.3.6.5 4.8 7.4 4.8 8.3 0 5.4-4.4 10-9.7 10s-9.8-4.5-9.8-10c0-1 4.3-8 5-8.4 1.5-.8 3-1.2 4.8-1.2z" stroke="#fdd1b0"/><path d="M319.3 218.4c1.7 0 3.4.6 4.8 1.3 1 .5 5 7 5 8 0 5.4-4.5 9.8-9.7 9.8s-9.6-4.3-9.6-9.7c0-1 4-7.8 5-8.3 1.3-.7 3-1 4.6-1z" stroke="#fdd0b0"/><path d="M319.3 218.6c1.6 0 3.3.5 4.7 1.3.8.4 4.6 6.8 4.6 7.8 0 5.2-4.2 9.4-9.3 9.4s-9.4-4-9.4-9.4c0-1 4-7.6 4.7-8 1.4-.8 3-1.2 4.6-1.2z" stroke="#fdd0ad"/><path d="M319.3 219.2c1.5 0 3 .5 4.4 1.2.8.5 4.3 6.3 4.3 7.4 0 5-4 9-8.7 9-5 0-8.8-4-8.8-9 0-1 3.6-7 4.5-7.6 1.3-.6 2.7-1 4.3-1z" stroke="#fdcaa6"/><path d="M319.3 219.4c1.5 0 3 .5 4.3 1.2 1 .5 4.2 6 4.2 7.2 0 4.8-3.8 8.6-8.5 8.6-4.8 0-8.6-3.8-8.6-8.5 0-1.3 3.5-7 4.4-7.6 1.4-.7 2.7-1 4.3-1z" stroke="#fdcaa4"/><path d="M319.3 219.6c1.5 0 3 .5 4.2 1.2 1 .5 4 6 4 7 0 4.7-3.6 8.4-8.2 8.4s-8.4-3.7-8.4-8.3c0-1.3 3.2-6.8 4.2-7.4 1.3-.6 2.6-1 4-1z" stroke="#fdc8a4"/><path d="M319.3 219.8c1.4 0 3 .5 4 1 1 .7 4 5.8 4 7 0 4.5-3.6 8.2-8 8.2-4.5 0-8.2-3.6-8.2-8 0-1.4 3.3-6.7 4.3-7.2 1.2-.6 2.5-1 4-1z" stroke="#fdc8a1"/><path d="M319.3 220.4c1.3 0 2.7.4 3.8 1 1 .7 3.8 5 3.8 6.4 0 4.2-3.4 7.6-7.5 7.6a7.5 7.5 0 0 1-7.6-7.5c0-1.5 2.8-6 4-6.7 1-.6 2.2-1 3.6-1z" stroke="#fdc39b"/><path d="M319.3 220.6c1.3 0 2.6.4 3.6 1 1 .7 3.6 5 3.6 6.3 0 4-3.3 7.2-7.3 7.2S312 232 312 228c0-1.5 2.6-6 3.7-6.5 1-.6 2.3-1 3.6-1z" stroke="#fdc398"/><path d="M319.3 220.8c1.3 0 2.5.4 3.6 1 1 .7 3.4 4.6 3.4 6 0 4-3.2 7.2-7 7.2-4 0-7.2-3.2-7.2-7 0-1.6 2.4-5.7 3.6-6.3a7.3 7.3 0 0 1 3.5-1z" stroke="#fdc097"/><path d="M319.3 221c1.2 0 2.5.4 3.5 1 1 .7 3.4 4.5 3.4 6 0 3.7-3 6.8-7 6.8-3.7 0-6.8-3-7-7 0-1.4 2.5-5.3 3.7-6a6.8 6.8 0 0 1 3.3-.8z" stroke="#fdc095"/><path d="M319.3 221.2c1.2 0 2.4.4 3.4 1 1.2.6 3.3 4.2 3.3 5.7 0 3.6-3 6.6-6.7 6.6s-6.7-3-6.8-6.7c0-1.6 2.3-5.3 3.5-6 1-.5 2-.8 3.3-.8z" stroke="#fdbe92"/><path d="M319.3 221.4c1 0 2.3.4 3.3 1s3.2 4 3.2 5.5c0 3.4-3 6.4-6.5 6.4a6.5 6.5 0 0 1-6.6-6.5c0-1.7 2-5 3.4-5.8 1-.5 2-.8 3.3-.8z" stroke="#fdbe90"/><path d="M319.3 221.6c1 0 2.2.3 3.2 1 1.2.6 3 3.7 3 5.3 0 3.3-2.8 6.2-6.2 6.2a6.3 6.3 0 0 1-6.3-6.3c0-1.7 2-5 3.2-5.6 1-.5 2-.8 3-.8z" stroke="#fdbb8f"/><path d="M319.3 221.8c1 0 2.2.3 3 1 1.3.6 3 3.5 3 5 0 3.4-2.7 6.2-6 6.2a6 6 0 0 1-6-6c0-1.7 1.7-4.7 3-5.4a6 6 0 0 1 3-.8z" stroke="#fdbb8d"/><path d="M319.3 222a5.8 5.8 0 0 1 3 .8c1.2.8 3 3.5 3 5 0 3.3-2.8 6-6 6-3.3 0-6-2.7-6-6 0-1.6 1.7-4.3 3-5a6 6 0 0 1 3-.8z" stroke="#fdb98a"/><path d="M319.3 222.2a5.8 5.8 0 0 1 2.8.8c1.5.8 3 3.2 3 5 0 3-2.6 5.6-5.7 5.6-3.2 0-5.7-2.6-5.7-5.7 0-1.8 1.5-4.3 3-5 .7-.5 1.6-.8 2.7-.8z" stroke="#fdb98a"/><path d="M319.3 222.4c1 0 2 .3 2.8.8 1.4.8 2.8 3 2.8 4.7 0 3-2.5 5.4-5.5 5.4s-5.5-2.5-5.6-5.5c0-1.8 1.5-4 3-5 .7-.3 1.6-.6 2.6-.6z" stroke="#fcb687"/><path d="M319.3 222.6c1 0 2 .3 2.7.8 1.3.8 2.5 2.8 2.5 4.5 0 2.8-2.3 5.2-5.2 5.2a5.3 5.3 0 0 1-5.3-5.3c0-2 1.2-4 2.7-4.7a5 5 0 0 1 2.6-.7z" stroke="#fcb685"/><path d="M319.3 222.8c1 0 1.8.3 2.6.7 1.3 1 2.3 2.6 2.3 4.4 0 2.7-2.2 5-5 5s-5-2.3-5-5c0-2 1-3.7 2.5-4.5a5 5 0 0 1 2.5-.7z" stroke="#fcb485"/><path d="M319.3 232.8a5 5 0 0 0 4.8-5c0-2.6-2-4.8-4.7-4.8a5 5 0 0 0-5 5c0 2.6 2.3 4.8 5 4.8z" stroke="#fcb482"/></g><path d="M319.3 232.8c2.7 0 5-2.2 5-5a5 5 0 0 0-5-4.8c-2.7 0-5 2.2-5 5a5 5 0 0 0 5 4.8z" stroke-miterlimit="2.6" fill="#fff" fill-rule="evenodd" stroke="#fff" stroke-width=".1"/><g stroke="#000" stroke-width=".1"><path d="M320.4 223l.5-2.5m-1.2 2.5l.3-2.6m-.7 2.6v-2.6m-.5 2.6l-.3-2.6m-.2 2.7l-.6-2.5m0 2.8l-.7-2.6m.3 2.7l-1-2.4m.6 2.6l-1.5-2.3m1 2.6l-1.6-2.2m1 2.5l-1.8-2m1.5 2.3l-2-1.8m1.7 2.2l-2.2-1.5m1.8 2l-2.2-1.4m2 2l-2.4-1.2m2.2 1.6l-2.5-1m2.5 1.5l-2.6-.7m2.4 1l-2.6-.2m2.6 1h-2.7m2.7.4l-2.6.3m2.7.2l-2.6.5m2.6 0l-2.5.7m2.8-.3l-2.4 1m2.6-.7L312 232m3-1.2l-5.6 4m6-3.6l-6 5.4m6.4-5l-5 5.6m5.4-5.3l-4 5m4.4-4.8l-4 7m4.5-6.8l-2.3 5m2.7-4.8l-2.2 7m2.7-7l-1 4.8m1.6-4.6l-.7 7.2m1.8-7.2l.2 2.6m.3-2.7l1.5 6.8m-1-7l1.3 4m-.8-4l3 6.6m-2.5-6.8l3.3 5.7m-2.8-6l4.7 6m-4.4-6.4l4 4.8m-3.7-5.2l6 5.7m-5.8-6.2l3.4 2.4m-3-2.8l2.2 1.3m-2-1.7l2.4 1m-2.2-1.5l2.5.8M324 229l2.7.5m-2.5-1l2.6.2m-2.6-.8h2.6m-2.6-.6l2.6-.2m-2.7-.3l2.7-.6m-2.7 0l2.5-.8m-2.7.4l2.4-1m-2.6.5l2.3-1.3m-2.7 1l2-1.7m-2.3 1l2-1.6m-2.4 1.3l1.8-2m-2.2 1.6l1.6-2.2m-2 2l1.3-2.4m-1.7 2l1-2.4m-1.5 2.3l1-2.5m-2.5-4v-2M317 217l-.4-2m-1.8 2.7l-.8-1.8m-1.2 3l-1.2-1.8m-.6 3.2l-1.5-1.3m.2 3.4l-1.8-1m.7 3l-2-.6m1.5 3l-2-.3m2 2.5l-2 .3m2.5 2l-2 .7m22.2 1.5l1.7 1m-.8-3l1.8.5m-1.5-3l2 .3m-2-2.5l2-.2m-2.4-2l1.8-.7m-3-1.6l2-1m-3.2-1l1.5-1.3m-3 0l1-1.7m-3 .5l.7-2m-3 1.2l.3-2" fill="none"/><path d="M322 230.2s-.5-.4-1-.4h-3l-.7.6s.5.5 1.4.6c1 0 1.7 0 2.2-.2l1.2-.6z" stroke-miterlimit="2.6" fill="#e60000" fill-rule="evenodd"/><path d="M317.4 229.5s0-1.4 1-3l-.4.8s-.6.3-1 0c-.2-.4 0-.5.2-1 .2-.4.2-.8.5-1 .2-.3.4-.3 1-.3.7 0 1.2 0 1.7.8l1 1.6c.6 1 .6 2 .6 2l.2.8s-.7-.4-1.2-.4h-3l-.7.6s-.3-.6 0-1z" stroke-miterlimit="2.6" fill="#e60000" fill-rule="evenodd"/><path d="M317.4 229.5s.6-.3 2.3-.3c2 0 2 .2 2.3.3" stroke-miterlimit="2.6" fill="none"/><path d="M319.2 237v-7s.2-.3.8 0v7s.2 5.5-.4 5.4c-.7 0-.4-1.2-.4-5.3z" stroke-miterlimit="2.6" fill="#fc0" fill-rule="evenodd"/></g><g fill="#e60000"><path d="M311.8 231v.3l-1.3.6.2.4h-.2c0-.2-.2-.3-.6-.3h-.2l2-1zm-1.5-.5a.6.6 0 0 1-.3-.4c0-.3 0-.6.6-.7.2 0 .7 0 1 .5 0 .3 0 .7-.6.8v-.2c.2 0 .3-.3.2-.6 0-.2-.3-.3-.6-.3s-.4.3-.3.6a.5.5 0 0 0 .3.4v.2l-1.2.2-.2-1 .3-.2.2 1h.6zm-.6-4c-.3 0-.5.3-.5.6s0 .6.4.6c.2 0 .2 0 .3-.2v-.6c0-.3.4-.5.7-.5.5 0 .6.6.6 1 0 .3-.2.5-.3.6h-.6v-.2c.4 0 .6-.3.6-.6 0-.2 0-.5-.3-.6-.2 0-.3 0-.4.4l-.2.5s0 .4-.4.4-.7-.4-.6-1c0-.7.5-.7.7-.7v.3zm0-1.3l.5.2.4-1h.3l-.5 1 .7.4.4-1.3h.2l-.4 1.6-2-.6.4-1.5h.2z" fill-rule="evenodd"/><path d="M311 222a.7.7 0 0 0-.4.3l-.5 1 2 1v-.2l-.7-.4.4-.6c.2-.4 0-.7-.2-1a.6.6 0 0 0-.5 0zm.2.3c.3.3.3.4.2.6l-.3.4-.5-.4.3-.5.4-.2z"/><path d="M313.6 222l-.2.3-1.4-1.3-.5.6-.2-.2 1.2-1.3.2.3-.5.5zm.7-.5l-1.3-1.7.2-.2 1.4 1.7zm0-2.3l.3.6 1-.5.2.2-1 .6.2.7 1.2-.6v.3l-1.3.8-1-2 1.3-.6v.2zm4 .6l-.3-1.2v-.6l-.3 2h-.3l-1-1.6c0 .2 0 .4.2.5l.2 1.2h-.2l-.5-2 .5-.2 1 1.7.2-2h.4l.6 2h-.3z" fill-rule="evenodd"/><path d="M319 217.6v2.2h.8c.5 0 .8-.2.8-.6 0-.4-.2-.5-.4-.5.3 0 .3-.3.3-.5 0-.3 0-.5-.5-.6h-1zm.3.3h.5c.3 0 .4 0 .4.3 0 .2 0 .3-.4.2h-.5v-.6zm0 .8h.5c.2 0 .5 0 .5.4 0 .2-.2.4-.5.4h-.5v-.8zm2-1l-.4 2 .2.2.2-1 .7.3c.4 0 .4.3.3.5v.5h.3v-.9s.3 0 .3-.4c0-.6-.2-.8-.6-1l-1-.2zm.4.4l.6.2c.2 0 .4 0 .3.4 0 .3-.3.3-.5.2h-.5l.2-.8z"/><path d="M324 219l-.3.6 1 .6v.2l-1.2-.6-.3.7 1 .6v.3l-1.4-.8 1-1.8 1.5.8-.2.2z" fill-rule="evenodd"/><path d="M326.6 220.6L325 222l.5.7c.5.5 1 .3 1.5 0 .5-.4.6-1 .2-1.4l-.6-.7zm0 .5l.3.5c.2.3.2.6-.2 1-.4.3-.8.3-1 0l-.3-.4 1-1z"/><path d="M328.2 223l-.7.4.6 1-.2.2-.5-1-.6.2.6 1.2h-.3l-.7-1.3 2-1 .7 1.4-.3.2zm-.8 4v-.3l1.4-.2v-.5h.2c0 .3 0 .4.5.4v.3l-2 .3z" fill-rule="evenodd"/><path d="M328 227.6l-.4.2a1 1 0 0 0-.2.5c0 .5.3.8.6.8.2 0 .4 0 .6-.2 0 0 0 .2.4.2.3 0 .6 0 .6-.6 0-.5-.3-.7-.6-.7-.2 0-.3 0-.4.3 0-.2-.3-.3-.5-.4zm0 .4c.2 0 .4 0 .4.4 0 .2 0 .4-.4.4-.3 0-.3-.3-.3-.5 0-.3.2-.3.4-.3zm1 0c.2 0 .3 0 .3.4 0 .3-.2.4-.3.4a.4.4 0 0 1-.3-.4c0-.2 0-.3.3-.3z"/><path d="M328.7 229.5c.7.2.6.7.6 1 0 .3-.4.5-.8.4-.3 0-.4-.4-.6-.8v-.2l-.4-.5-.3 1h-.3l.4-1.3c.4 0 .6.3.7.6l.2.4c0 .2 0 .4.4.4 0 0 .4 0 .5-.3.2-.3-.2-.5-.3-.5v-.3zm-2 2v-.2l1.4.7.3-.5h.2c0 .5-.2.6 0 .8v.2l-2-1z" fill-rule="evenodd"/></g><path d="M319.3 202.3L283 263h72.6z" stroke-miterlimit="2.6" fill="none" stroke="#000" stroke-width=".2"/><g stroke-miterlimit="2.6" fill="none"><path d="M321.2 255.5c1 .2 2 .4 3.3 0 1.5-.3 3-1.2 4.8-1 1.4 0 3.2 1.2 5.3 1.2 2.2 0 3-.7 4.8-1 1.3-.4 2-.2 3.4 0 1.6.4 2.5 1.3 5.2 1" stroke="#000" stroke-width=".1"/><path d="M293.2 258c1.3-.8 3.4-1.2 5-.8 2.2.4 3 1 5.4 1 1.7 0 3.2-1.2 5-1.2 2.8 0 3 .5 5.4 1a5.6 5.6 0 0 0 2.2 0 9.5 9.5 0 0 0 2.5-.8c.8-.4 2.8-.4 3.8-.3 1.8 0 2.6.8 3 1 1 0 2 .3 3.2 0 1.5-.5 3-1.5 5-1.3 1.2.2 3 1.4 5 1.4 2.3 0 3-.7 5-1 1.3-.5 2-.3 3.3 0 1.6.4 2.5 1.4 5.2 1.2" stroke="#fff" stroke-width=".4"/><path d="M289 256c1.4-.7 3.5-1 5-.8 2.3.4 3.2 1 5.5 1 1.7 0 3.2-1.2 5-1.2 2.8 0 3 .6 5.4 1h2c1 0 2-.4 2.6-.8.8-.3 2.8-.3 3.8-.2 1.8.2 2.6.8 3 1 1 0 2 .2 3.2 0 1.5-.5 3-1.3 5-1.2 1.2.2 3 1.3 5 1.3 2.3 0 3-.7 5-1 1.3-.3 2-.2 3.3 0 1.5.5 2.4 1.4 5 1.2" stroke="#fff" stroke-width=".3"/><path d="M285.4 262c1.2-1 3.4-1.4 5-1 2 .5 3 1 5.4 1 1.7 0 3.2-1.3 5-1.3 2.8 0 2.8.7 5.4 1.3a5.8 5.8 0 0 0 2.2 0 8.4 8.4 0 0 0 2.5-1c.7-.5 2.7-.4 3.7-.3 1.8.2 2.5 1 3 1 1 .3 2 .5 3.2.2 1.4-.7 3-1.7 4.7-1.5 1.3 0 3 1.6 5.3 1.6 2 0 3-1 4.8-1.4 1.3-.3 2 0 3.4.2 1.6.4 2.5 1.6 5.2 1.3" stroke="#fff" stroke-width=".5"/><path d="M286.4 258.6c1.2-.8 3.4-1.2 5-.8 2 .4 3 1 5.4.8.7 0 1.4-.2 2.2-.4" stroke="#fff" stroke-width=".3"/><path d="M297.4 255c.3 0 1.3-.5 2.8-.5 3 0 1 0 3.6.4.6 0 2.5 0 3-.4m25.4 8.2c1-.2 1.8-.5 2.6-.8.7-.4 2.7-.3 3.8-.2 1.8.2 2.5.7 3 .8 1 .3 2 .4 3 0 1.7-.3 3-1.2 5-1 1.3 0 3 1.3 5.3 1.3" stroke="#000" stroke-width=".2"/><path d="M336.7 254.8c2 0 3-.8 4.8-1.2 1.3-.3 2 0 3.4.2 1.5.3 2.3 1.3 5 1" stroke="#fff" stroke-width=".3"/><path d="M285.5 262.2c1.2-.8 3.4-1 5-.8 2.2.4 3 1 5.4 1 1.6-.2 3-1.2 4.8-1.2 3 0 3 .5 5.5 1a7.5 7.5 0 0 0 2.2 0c1-.2 1.7-.5 2.5-.8.8-.4 2.8-.3 3.8-.2 1.8 0 2.5.7 3 .8" stroke="#000" stroke-width=".1"/><path d="M290 259.6c1.3-1 3.5-1.2 5-1 2.3.5 3.2 1 5.5 1 1.7 0 3-1 4.8-1 3 0 3 .5 5.6 1a7.4 7.4 0 0 0 2 0c1-.2 1.8-.5 2.6-1 .8-.2 2.8-.2 3.8 0 1.8 0 2.5.7 3 .8 1 .2 2 .3 3.2 0 1.5-.4 3-1.3 4.8-1 1.5 0 3.3 1.2 5.3 1.2 2.2 0 3-.8 4.8-1.2 1.3-.2 2 0 3.4.2 1.5.3 2.4 1.3 5 1" stroke="#000" stroke-width=".5"/></g><g fill="#fc0" fill-rule="evenodd" stroke="#000" stroke-width=".2"><path d="M291 249.5c.4 0 1.2-.6 1.5-.8.3-.2.5-.7.8-1l1.5-1c1.6-1 2.4-1.6 3.5-3 1.6-2.3 3.4-4 5.7-5.3.8-.4 2-.3 2.7 0l.8.6c1 .8 2.3 1.4 4 1.8 1.4.5 1.8 1.5 3 2.6.6.5 1.2 1 2 1.3l.3.3 2 1.5a67 67 0 0 1 3.2 3l.4.8c.8.7 1.6 1.5 2.6 2l2.7 1.6c-9.2.3-17.7-.3-27 0h-12.3l2.7-4.5z"/><path d="M327.3 253.7l-2.3-1.4c-1-.5-1.8-1.3-2.6-2l-.4-.7a67 67 0 0 0-3.2-3c-.6-.6-1.3-1-2-1.5l-.3-.3a8.5 8.5 0 0 1-2-1.3c-.8-.7-1.2-1.4-2-2a7.5 7.5 0 0 1 1.4-.7c.5-.4 1.4-.3 2 0 .3 0 .6.3.8.5.8.7 2 1 3.2 1.5 1.3.4 1.6 1.2 2.6 2 .5.6 1 1 1.6 1.2l.3.2 1.7 1.2 2.7 2.6c0 .2 0 .4.2.6.7.6 1.3 1.3 2 1.6 1 .4 1.6 1 2.4 1.4h-6.2z"/><path d="M319 242.4c.4 0 .7.2 1 .3 1.3.4 1.6 1.2 2.6 2 .5.6 1 1 1.6 1.2l.3.2 1.7 1.2 2.6 2.6.4.6c.7.6 1.3 1.3 2 1.6l2 1.2h5.2l-2-1.4c-.8-.3-1.4-1-2-1.5l-.3-.5-2.3-2.3-1.6-1v-.4a6.2 6.2 0 0 1-1.6-1c-1-.8-1.2-1.6-2.4-2-1-.3-2.2-.7-3-1.3 0 0-.3-.4-.5-.4-.6-.3-1.5-.4-2 0l-1.4.8z"/><path d="M327.6 244.4l.8 1 1.5 1v.2l1.7 1c.8 1 1.6 1.6 2.4 2.4l.4.5c.6.6 1.2 1.2 2 1.5l1.3.8h6c-.5-.4-1-.8-1.7-1-.5-.4-1-1-1.5-1.3l-.3-.4a93.8 93.8 0 0 0-2-1.8l-1.2-1h-.2l-1.2-1c-.7-.6-1-1.2-2-1.5-.8-.3-1.7-.6-2.3-1 0-.2-.3-.4-.4-.4-.7-.2-1.3-.3-1.8 0a9.5 9.5 0 0 0-1.6 1z"/><path d="M343.3 252.5a7.4 7.4 0 0 0-1.3-.8l-1.5-1.2-.3-.4-2-1.8-1.2-1h-.2l-1.2-1c-.6-.5-.8-1-1.5-1.3h.2c.3-.3.6-.6 1-.7.4-.3 1-.2 1.4 0l.4.3c.5.4 1.2.7 2 1 1 .2 1 .7 1.7 1.3.3 0 .6.4 1 .5 0 0 0 .2.2.3l1 .7 1.6 1.6c0 .2 0 .4.2.5l1.3 1c.7.3 1 .6 1.6 1h-4.3z"/></g><path d="M303.2 239c.4 0 .2-.2.6 0m-1.5.5c.5 0 .7-.4 1 0m-1.4.3s.2-.2 1 .2m-1.6.4h1m-1.6.4c.5 0 .7.2 1.3 0m-1.8.6h1.3m-2 .6h1.5m-1.8.6h1.4m-2.3 1.2h1.4m-11 10c1.8-.4 4 0 6-.3m3.8-10.3c.5-.2.4 0 1 0h.8m-2.5 1c.5 0 1 0 1.5.2m-.3.4h-1.6m1.2.6c-.5-.2-1-.2-1.7 0m-1 .4c.8 0 1.5-.2 2.2 0m-2.6.6c.7-.3 1.4 0 2.2 0m-3 .4h2.3c.2 0 .5-.2.6 0m-.2.4c-1.2.2-2.3 0-3.5 0m2.7.6c-.3 0-1 .2-1.5 0h-.3c-.7 0-1.2 0-1.8.2m-.2.4a1 1 0 0 1 .7 0h2l.7.3m-4 0h1.7l2 .4m-4 0c.6 0 1 .2 1.7.3h2m-4.3 0c.7.4 1.5.2 2.3.3.7 0 1.3 0 2 .2m-4.8.2c1 0 2 0 3.3.2.3 0 .8.2 1.2 0m-5 .3c1 .2 2.2 0 3.3.3l1.5.2m-5.2.3h3c.7 0 1.5-.2 2.2 0m-5.5.6c1.7-.3 3.5 0 5.2 0m-5.6.4c1.8.2 3.7 0 5.5 0m-6 .5h2.5c.6 0 1 .2 1.7 0 .5 0 1 .2 1.5 0m7.4-7.5h.3m-.4.2h.2m-.5.3h.4m-.4.2h.5m-.7.3h.8m-1 .5h1m-1.4.4h1.3-.2m-1.5.4h1.4m-1.6.4h1.7m-2 .5l1 .2h.8m-1.8 0c.5.3 1 .3 1.6.3m-2 .2c.5 0 1 0 1.4.2h.6m-2.5.5c.5-.3 1.2 0 1.8 0h.6m-2.5.4c.6-.2 1.3-.2 2 0h.3m-2.7.5c.8.2 1.7 0 2.6.2m-3 .2c.7.3 1.5 0 2.3.2h.7m-3.5.4c.4 0 .7-.2 1 0h2.3m-3.6.5h3.6m-4 .4c1 .2 1.8 0 2.7.2h1.2m-4 .3c1.2 0 2.4 0 4 .2m3.2-7.5h.2m-.5.3h.5m-.7.4h.7m-.8.4h.8m-1 .5c.3-.2.7 0 1-.2m-1 .4h1m-1.3.6h1.2m-1.3.4c.3 0 .8.2 1.2 0m-1.6.6h1.6m-1.7.5c.2 0 .4-.2.6 0h1.2m-1.8.5c.6-.2 1.2.2 1.8-.2m-2 .8h2m-2 .5c.6-.3 1.3 0 2 0m-2.5.4l2.8-.2m-2.7.7c1-.2 2-.2 3-.2m-3.2.7h2.3l1-.3h.7m-4 .6c1.5-.2 3 0 4.6-.3m-11.3 0h1.2m4.7.3h.3m5.4 0c1.3-.3 2.5 0 3.8 0m-4.4-.6c1-.2 1.6 0 2.4 0v.3h2.2m-9-.3h-.8m-4-.2H295m12-11.7h.4m-.2.3h.3m-.2.6h.4m-.3.4c.2-.2.4 0 .6 0m0 .3c0-.2-.3 0-.5 0m.3.5a.8.8 0 0 1 .5 0m.3.3h-.8m.2.4h.8m.2.5h-1m.3.6c.3 0 .7 0 1-.2m0 .4l-1 .2m.3.6c.4-.2.8 0 1.2-.2m0 .5h-1.1m.2 1c.2-.2.4-.4.7-.4h.6m.2.6H309m.2.7l1.6-.3m-1.5 1l1.7-.4m.5.4c-.7 0-1.4 0-2 .3m.2.6h.2c.6-.3 1.2-.5 1.8-.4m.2.4c-.6.4-1.4.3-2 .3h-.3m.2.5c.7 0 1.4 0 2.2-.2m.5.5c-.6.2-1.2 0-1.8.2-.4 0-.6 0-1 .2m.2.5s.2 0 .3-.2c.7-.4 1.6-.3 2.4-.3m.2.5c-.7 0-1.4-.2-2 0-.4 0-.6.3-1 .3m.4.5l1-.3h2.4m0 .4c-.4-.2-1-.3-1.3 0l-2 .2m.3.4c.6 0 1-.3 1.7-.4h1.3m-3 .7c1-.2 1.7 0 2.6-.4h1m0-.3c1.3 0 2.7 0 4 .2m-3.8.3h3.8m-.4-3h.2m0 .4s0-.2.3 0m-.3.4h.7m-.4.6c.2-.3.6 0 .8-.2m-.7.8c.4-.3.8 0 1-.3m-1 .7c.6-.2 1 0 1.5-.3m-1.2.6c.7-.3 1.5 0 2-.4m-2 .7c1-.3 1.8 0 2.7 0m.6 0c1.5-.2 3-.2 4.6 0m-5.4-.7c1.4.2 3.4 0 5 .2m-12-9.5l1.2-.3m-.8.4c.3.2 1 .2 1.2 0m-.7.6l.7-.2h.4m-.8.4h1.5m.2.3c-.3 0-1.2 0-1.3.2m.8.5l1-.2m.5.4h-1.2m.6.4c.3 0 1 0 1-.2m.6.5h-1m.4.5h1.2m.4 0c-.2.2-.7.3-1 .3m.5.5c.3-.2 1 0 1.3-.2m.4.5h-1.4m2.6 1H321m.4.6c.5-.3 1-.3 1.7-.4m-.4 1.7h.8c.8-.2 1-.4 1.7-.3m.6.4l-2.2.2h-.4m.4.5c.8 0 2 0 2.7-.2m1 .5h-2l-1 .2m.6.5h.3c.6-.4 1.6-.4 2.5-.4m.5.5c-.8 0-1.2 0-2 .2h-.8m.8.6c.8 0 2.3-.3 1.4-.3h2m0 .3H328c-.4.2-.3.3-1.4.3m.4.3h1.2c.4-.2 1-.2 1.5-.2m-2.4.6c1-.2 1 0 2 0h.7m-16.2-11c.2-.2.4-.2.8-.2h.5m-1.6-.3h1.4m5.5 6c.3 0 .2-.2.6 0-.2-.3.2 0 .3-.2h.5m0 1.6l1.7-.4m.8.6c-.6 0-1.6 0-2 .3m-8-8.5c-.7 0-.8.2-1.2.2m8 1.6l1-.2m-.6.6c.4 0 .7 0 1-.2m-.7.5l.7-.2h.4m-.7.4h1.3m.3.2c-.2 0-1 0-1.2.2m.4.4l1.3-.2m.6.4h-1.3m.4.4c.3 0 1.2 0 1.3-.2m.5.5h-1.2m.4.3h1.3m.4 0c-.2.3-.8.3-1 .4m.5.4h1m.5.3h-1s0 .2-.3 0m2.4 1h-1.3m.4.5c.5-.2 1-.2 1.5-.2m-.3 1.6h.5c.8-.2 1-.4 1.6-.4m.5.4l-2 .2h-.4m.5.4c.7 0 1.8 0 2.5-.2m.7.4h-2c-.3.2-.8.2-1 .3m.7.4h.2c.5-.4 1.4-.3 2.3-.3m.5.4H332l-1 .2m.7.4l1.5-.2h1.7m0 .3h-1.3c-.2 0-.3.2-1.5.2m.4.3c.6 0 1 0 1.3-.2h1.3m-2 .4h1.6l.6-.2m-15-10c.3 0 .2-.2.5 0 .4-.2.6 0 .6-.2h.3m-1.8 0c.2-.2.2-.3.6-.2h.4c0-.2.3-.2.4-.2m5.2 5.6c.2 0 0-.2.4 0 0-.3.3 0 .4-.2h.5m0 1.4c.5 0 1.2 0 1.6-.3m.8.5c-.6 0-1.4 0-1.8.2m-7.4-8c-.4 0-1 .3-1.3.6m8.6 2.5h1m-.8.3h1m-.6.3h.5c0-.2.2 0 .3 0m-.7.2h1.2m.2.2h-1m.6.4l.8-.2m.4.3h-1m.4.4l1-.3m.3.4h-1m.3.4h1m.3 0c0 .2-.7.3-1 .3m.4.3h1m.4.2h-1m2 .7c-.5-.2-1 0-1.3 0m.5.3c.3-.2 1 0 1.3-.2m-.4 1.3h.6l1.2-.2m.3.4c-.7 0-1 0-1.5.2h-.4m.3.2h2m.5.2H336a7.3 7.3 0 0 1-.8.2m.5.4l.6-.2h1.6m.3.2H337c-.4 0-1 .3-1 .3m.6 0h1.2c.6 0 .7 0 1.3-.2m.3.3h-1c-.2.2-.5.3-1.3.3m.3.2h1c.4-.2.8-.2 1-.2m-1.6.4h2m-11.5-7.8c.3-.2.3-.3.6-.3h.5m-1.4 0c.2 0 .2-.2.5-.2h.6m3.7 4.2h.5c0-.2.3 0 .3-.2h.4m-.2 1.2c.4 0 1 0 1.3-.3m.7.4c-.5 0-1.2 0-1.5.2m-5.7-6c-.4 0-.5.3-.8.5m7 1l1-.2m-.7.3h1m-.7.2h.8m-.6.4l1-.2m.2.2c-.2 0-1 0-1 .2m.4.2s.7-.2 1 0m.3 0l-1 .2m.3.2h1m.3.2h-1m.5.4c.3 0 .8 0 1-.2m.3.2c-.2 0-.8 0-1 .2m.5.3h1m.2.2h-1m1.8.7c-.3-.2-.8 0-1 0m.2.3c.3 0 1 0 1.3-.2m-.4 1.3h.5c.5-.2.6-.3 1-.3m.3.3c-.6 0-1 0-1.3.2h-.4m.2.3l2-.2m.5.3h-2.1m.4.4h.5c.8-.2 1-.3 1.6-.3m.4.4h-1.2l-1 .2m.6.3l1.2-.3h1.2m.2.2c-.4 0-.8-.2-1 0h-1.2m.3.2h1c.4-.2.7 0 1 0m-1.6.2h1.6m-10.6-7.2h.7c0-.2.2-.2.3-.2m-1.3 0c.2 0 .2-.2.5 0 .2-.2.3 0 .3-.2h.3m3.6 4c0-.2 0-.2.3-.2h.6m0 1c.2 0 .7 0 1-.2m.6.4H340m-5-5.3c-.4 0-.5.2-.8.3" stroke-width=".1" fill="none" stroke="#00633b"/><g fill="#fc0"><path d="M287.6 298.6l.6 4.4c-1.2-.3-2.2.4-2.8 1.3-.8 1.7 0 3 1.6 3.7l2 1.2 4-7.8-1.5-.8-1.6 3-.5-4-2-1zm.6 6c.3 0 .6 0 .8.2h.2l-1 2.2h-.3c-.8-.5-1.3-1-1-1.8.4-.6.8-.8 1.2-.7z"/><path fill-rule="evenodd" d="M280.7 302.7l1-1.6-2.3-1.5.8-1.2 2.3 1.6 1.4-2-2.6-1.7 1-1.3 3.8 2.7-5 7.2-3.8-2.7.8-1.2z"/><path d="M279 292.5l-2 2.5-.7-.6c-1.4-1.2-2.8-1.2-4 .2-1.3 1.6-.8 3 .6 4l1.8 1.7 5.6-6.7-1.3-1zm-4.4 2.8c.4 0 .7.3 1 .6h.3l-1.6 2-.3-.3c-.6-.6-1-1-.3-2 .4-.3.6-.4 1-.4z"/><path d="M268.4 294.6l-1.2-1.3 3.6-3.3c.8-.7 2-1.8.8-3-1-1-2.2 0-3 .6L265 291l-1.2-1.4 4-3.5c1.5-1.3 3.3-1.7 5 0 1.6 2 1 3.7-.6 5l-3.8 3.6z" fill-rule="evenodd"/><path d="M265.2 278c-.5 0-1 .2-1.6.6-.8.5-1.4 1.5-1 2.5-.5-.2-1.2 0-1.8.4-1.4 1-1.3 2.2-.4 3.6l1.3 1.8 7.2-5-1.7-2.2c-.6-.8-1.3-1.4-2-1.5zm0 2c.4 0 .8.4 1.2 1l.2.2-1.8 1.2-.2-.2c-.4-.6-1-1.4 0-2l.5-.2zm-2.6 2.5c.3 0 .6.2.8.6l.2.3-1.8 1.2v-.2c-.5-.6-.6-1 0-1.5l.8-.3z"/><path fill-rule="evenodd" d="M264.6 275.3l-7.7 4.2-1-1.6 6.4-3.5-1-2.2 1.2-.7zm-11.5-3.5l8-3.5.8 1.6-8 3.4zm-.8-9.5c-.4.6-.5 1.4-.3 2.2.5 1.5 2.2 2 3.6 1.5 1.4-.4 2.5-1.8 2-3.4-.3-.7-1-1.3-1.5-1.6l2-.6c.5.5 1 1 1 1.8 1 2.4-.5 4.8-2.8 5.6-2.4.7-5-.3-5.8-2.8a4.7 4.7 0 0 1-.2-2l2-.7z"/><path d="M256.4 250.6l-8.2 5 .2 1.3 9.4 1.8-.3-1.8-2-.4-.5-3 1.7-1.2-.3-1.8zm-2.7 3.6l.4 2-3.2-.3 3-1.8zm-2-20c-2.2 0-4 1.7-4.2 4.2l-.2 2.4 8.7.8.2-2.6c.2-2.5-1.5-4.5-4-4.7h-.4zm-.3 2h.6c1.6.2 2.6 1 2.4 3v.3l-5.2-.4v-.2c0-1.6 1-2.4 2.2-2.5z"/><path fill-rule="evenodd" d="M250.2 229.5l2 .4.5-3 1.4.5-.5 2.7 2.4.5.4-3 1.5.4-1 4.7-8.6-1.8 1-4.7 1.4.4zm3.3-11.5l1.8.7 1-2.6 1.4.7-1 2.6 2.2.8 1-2.6 1.3.5-1.7 4.3-8-3 1.6-4.5 1.4.5zm8.8-2.2l-7.7-4 .8-1.5 6.4 3.3 1.2-2.3 1.3.7zm2-16c-.6 0-1 .3-1.4.8-.5.4-.5 1 0 1.4 1 1 2.8-2.3 5.2-.6 1.4 1 1.7 2.7.6 4.2-.8 1-2 1.3-3 1.2l-.2-1.6c.7.3 1.5 0 2-.5.4-.6.2-1.3-.4-1.7-.7-.5-1.4 0-2 .4-1 .7-2 1-3 .2-1.3-.8-1.6-2.4-.7-3.6.5-.7 1.5-1.4 2.3-1.5l.5 1.4z"/><path d="M268.2 192.2l-1 1 4 8.8 1.2-1.4-.8-1.8 2.2-2.2 1.8.8 1.4-1.4-8.8-3.8zm1.3 2.5l2.8 1.3-1.3 1.4-1.5-2.6z"/><path fill-rule="evenodd" d="M278.3 195l-5.5-6.8 1.4-1 4.5 5.5 2-1.6 1 1.3zm4.5-14l1.6-1 1.8 9.5-.8.5-7.8-5.7 1.6-1 5 3.8z"/><path d="M290.6 176.8l-1.2.6.4 9.6 1.7-.8v-2l2.8-1.2 1.4 1.4 1.7-.8-6.8-6.8zm.4 2.8l2 2.3-1.7.7-.3-3zm9.3-5.8c-.4 0-1 0-1.4.2l-2.5.7 2.5 8.3 2.4-.6c2.4-.8 3.7-3 3-5.4-.6-2-2-3.2-4-3.2zm0 1.8c1 0 1.8.7 2 2 .6 1.4 0 2.6-1.8 3.2h-.2l-1.5-5h.3l1.3-.2zm10.5-4.4h-.5c-2.6.4-4 2.8-3.8 5.2.3 2.5 2.4 4.3 5 4 2.7-.4 4.2-2.7 4-5.2-.4-2.2-2.3-4-4.7-4zm-.2 2c1.4-.2 2.6 1 2.7 2.2.2 1.2-.7 3-2 3-1.4.2-2.6-1-2.8-2.3 0-1.2.7-2.6 2-2.8zm7.4-2.4v8.8h1.7V176l2.2 3.6h2l-2.5-3.6c1.2-.2 2-1.3 2-2.4 0-2-1.3-2.7-3-2.7l-2.5-.2zm1.8 1.6h.3c1 0 1.6.2 1.5 1.2 0 1-.6 1.2-1.5 1.2h-.2v-2.4z"/><path fill-rule="evenodd" d="M336.6 174.3l-.5 2 2.8.6-.3 1.3-2.8-.7-.5 2.3 2.8.7-.4 1.4-4.5-1 2.2-8.5 4.5 1-.3 1.6zm6.6 0l1.2.5 2 7.5h.2l2-5.5 1.8.7-3.3 8.3-1-.5-2.3-7.5-2.2 5.5-1.6-.6zm9.3 14.3l4.7-7.4 1.5 1-4 6 2.2 1.4-1 1.2z"/><path d="M365.4 186.6l-8.4 4.7 1.4 1.2 1.8-1 2.4 2-.6 2 1.4 1 3-9-1-1zM364 189l-1 3-1.4-1.2 2.5-1.7zm14.4 11.2l-9.2 2.4 1 1.5 2-.3 1.8 2.5-1 1.7 1 1.4 5.3-8-1-1.2zm-1.8 2.2l-1.8 2.5-1-1.7 2.8-1z"/><path fill-rule="evenodd" d="M375.4 212l-.8-1.7 8.7-2.7.6 1-4.2 4.7 6-.6.6 1-7.4 5.4-.8-1.5 4.6-3-6 .5-.2-.5 4-4.3zm11.6 8l-1.8.6 1 2.7-1.5.4-1-2.7-2 .7.8 2.8-1.4.5-1.4-4.5 8.3-2.8 1.4 4.5-1.4.5z"/><path d="M390.2 225.7l-8.4 1.8.3 1.7 3.5-.7-3 3 .5 2 3-3.2c.6 1 1.8 1.5 2.8 1.3 2-.4 2.4-1.8 2-3.6l-.6-2.3zm-1 2v.3c.2 1 0 1.6-.8 1.8-1 .2-1.3-.4-1.5-1.3l-.2-.2 2.4-.5z"/><path fill-rule="evenodd" d="M392 236l-8.6 1-.2-1.7 8.7-1zm-2 9.5c.7-.5 1-1.3 1-2 0-1.7-1.5-2.7-3-2.7s-3 1-3 2.8c0 .7.5 1.4 1 2h-2c-.3-.7-.5-1.4-.5-2 0-2.6 2-4.6 4.4-4.6 2.4 0 4.6 1.7 4.7 4.4a4.4 4.4 0 0 1-.5 2h-2z"/><path d="M383.7 247l-.2 2 1.7 1-.3 3-2 .5-.3 2 9.3-2.4.2-1.3-8.5-4.6zm3 3.7l2.7 1.2-3 .6.2-2z"/><path d="M384 272c.8-.2 1.4-.7 1.6-1.4.7-1.6-.4-3-1.8-3.6-1.3-.5-3 0-3.7 1.4a2.8 2.8 0 0 0 .3 2.2l-2-.7c0-1 0-1.6.3-2.2 1-2.4 3.6-3.4 6-2.5 2.2 1 3.5 3.4 2.6 6a4.6 4.6 0 0 1-1.3 1.6l-2-1zm-1.4 4.8l-1.7-1-1.4 2.6-1.3-.7 1.3-2.5-2-1-1.5 2.5-1.2-.8 2.3-4.2 7.7 4.2-2.2 4-1.3-.6zm-1.7 6.4l-.8 1-7.8.3 4.8 3.5-1 1.4-7.3-5.2.7-1 7.7-.3-4.7-3.6 1-1.4zm-9 8.7l1-1.4 1.2 1-3.8 4-1-1 1.2-1.4-5.2-5 1.2-1.3z" fill-rule="evenodd"/><path d="M362.8 290.7l-1.4 1 2.3 3-4-1.4-1.6 1.3 4.4 1.2c-.8 1-.6 2.2.2 3 1 1.5 2.6 1.3 4 .2l1.8-1.6-5.6-6.7zm1.7 5l1.5 1.8h-.2c-.6.7-1.2 1-1.8.2-.6-.8-.3-1.4.4-2zm-7-.5l-1.7 1 .3 2-2.6 1.6-1.5-1-1.7 1 7.7 5.6 1-.7-1.6-9.5zm-1 4.6l.7 3-2.5-2 1.7-1z"/><path fill-rule="evenodd" d="M348.7 300.3l3.8 8-1.6.7-3.2-6.5-2.3 1-.6-1.3z"/></g></svg>