<svg xmlns="http://www.w3.org/2000/svg" viewBox="0 0 640 480" version="1"><defs><clipPath id="a"><path fill-opacity=".67" d="M0 0h682.67v512H0z"/></clipPath></defs><g clip-path="url(#a)" transform="scale(.9375)"><path d="M0 0h768v256H341.33L0 0z" fill-rule="evenodd" fill="#ed2939"/><path d="M0 512h768V256H341.33L0 512z" fill-rule="evenodd" fill="#002395"/><path d="M0 0l341.33 256L0 512V0z" fill-rule="evenodd" fill="#fff"/><path fill="#ff0" d="M172.318 193.168l.104-3.963s-2.128-3.39.342-7.033c0 0-5.248-2.776-4.026-7.123 0 0-4.746-1.216-4.397-6.435 0 0-5.12-.355-5.65-4.716 0 0-5.122.844-7.376-3.405 0 0-4.996.977-6.406-2.526 0 0-4.857 1.682-7.74-2.436 0 0-5.128 2.073-7.278-1.813-2.12 3.873-7.25 1.814-7.25 1.814-2.85 4.103-7.74 2.4-7.74 2.4-1.36 3.517-6.344 2.52-6.344 2.52-2.247 4.25-7.363 3.404-7.363 3.404-.502 4.345-5.617 4.7-5.617 4.7.404 5.232-4.334 6.42-4.334 6.42 1.25 4.346-3.99 7.115-3.99 7.115 2.532 3.663.425 7.026.425 7.026l-.12 3.655 84.776.392"/><path d="M377.17 843.11l.09-3.458s-1.855-2.958.3-6.136c0 0-4.578-2.422-3.513-6.215 0 0-4.14-1.056-3.835-5.61 0 0-4.468-.31-4.93-4.114 0 0-4.47.736-6.435-2.97 0 0-4.358.85-5.588-2.205 0 0-4.24 1.468-6.754-2.125 0 0-4.474 1.808-6.35-1.582-1.85 3.38-6.324 1.582-6.324 1.582-2.484 3.58-6.75 2.094-6.75 2.094-1.188 3.067-5.534 2.197-5.534 2.197-1.96 3.708-6.423 2.97-6.423 2.97-.44 3.794-4.9 4.103-4.9 4.103.352 4.564-3.78 5.6-3.78 5.6 1.09 3.792-3.483 6.21-3.483 6.21 2.21 3.194.372 6.13.372 6.13l-.104 3.19 73.95.34h-.013z" stroke="#000" stroke-width=".289" fill="none" transform="matrix(1.1464 0 0 1.146 -260.07 -773.12)"/><path fill="red" d="M170.346 188.217c-13.316-1.332-28.648-4.493-40.483 2.17-7.935-4.674-18.982-4.388-28.388-3.474-5.108.914-11.117.914-16.456 1.786l-.84.115c-9.686.643-18.47-2.218-26.89-5.98 2.674 15.17 5.64 30.713 7.1 46.593 3.174 23.517-11.13 43.262-5.264 66.494 3.504 11.148 15.765 17.63 26.987 18.914 10.865.64 22.108 2.42 32.164 4.603 1.91.4 4.18 1.285 5.5 1.856 2.77 1.157 4.8 2.86 6.58 4.68 6.07-6.32 14.968-8.08 23.747-9.007 15.82-1.85 35.325-.844 45.01-15.174v-.81c5.263-7.925 4.565-20.015 2.283-28.995-.154-3.132-.99-5.894-1.445-8.88-9.665-25.52-1.39-54.223 2.77-79.947-5.08 2.777-10.746 4.088-16.4 5.477-4.507.6-9.53.33-14.095.084l-1.89-.51"/><path fill="#80cfe1" d="M190.224 261.464c-.062 1.68.845 3 1.173 4.556 1.85 11.155 3.636 25.932-7.85 32.854-12.71 8.078-29.374 4.618-44.078 8.894-2.94.817-6.988 3.517-9.054 5.428-1.326-.872-2.66-2.21-4.37-3-12.1-6.432-27.83-4.277-41.486-7.75-6.86-2.17-14.01-7.514-15.75-14.534-4.465-18.417 6.233-34.116 4.97-52.387-.817-13.953-3.162-27.348-6.386-40.43 10.677 4.974 23.036 5.805 35.04 3.42 8.89-1.243 19.24-1.27 27.572 2.49 4.592-1.975 9.965-2.86 14.914-3.405 9.408.914 19.52 2.616 29.206 2.547 6.47-.336 12.346-2.206 17.97-4.696-3.336 21.62-9.742 44.27-1.877 66.017"/><path fill="#fff" d="M171.022 265.774l-.104-20.33h2.505L142.34 225.37l-.056-10.43h3l-15.54-11.127-15.466 11.12h2.994l.056 10.424-30.915 20.045 2.47.013.105 20.317 82.026.056"/><path d="M376.04 906.46l-.09-17.74h2.184l-27.114-17.51-.048-9.1h2.618l-13.557-9.71-13.49 9.704h2.61l.05 9.094-26.967 17.49 2.155.01.094 17.728 71.55.05.007-.014z" stroke="#000" stroke-width="1.242" fill="none" transform="matrix(1.1464 0 0 1.146 -260.07 -773.12)"/><path fill="#fff" d="M180.583 292.478l.007 6.362-100.134-.112-.042-6.335 100.177.085"/><path d="M384.38 929.76l.006 5.55-87.347-.096-.04-5.528 87.385.074h-.006z" stroke="#000" stroke-width="1.242" fill="none" transform="matrix(1.1464 0 0 1.146 -260.07 -773.12)"/><path fill="#fff" d="M87.106 292.1l-.084-21.53 4.054-.01-.223 21.783.244-21.607-5.84-.167v-4.62l89.492.1.04 4.573h-5.52l.103 21.802-.195-21.802h4.11l.09 21.557"/><path d="M302.84 929.43l-.073-18.786 3.536-.007-.194 19.005.21-18.852-5.095-.146v-4.03l78.064.085.036 3.99h-4.815l.09 19.024-.17-19.023h3.587l.08 18.81" stroke="#000" stroke-width="1.242" fill="none" transform="matrix(1.1464 0 0 1.146 -260.07 -773.12)"/><path d="M319.62 924.8l-.055-13.1h-10.482l.06 13.087 10.477.013" stroke="#000" stroke-width="1.242" fill="none" transform="matrix(1.1464 0 0 1.146 -260.07 -773.12)"/><path d="M311.94 914.43l.03 7.61h4.797l-.024-7.61h-4.803m58.92 10.41l-.06-13.087-10.447-.012.05 13.1h10.457" stroke="#000" stroke-width="1.242" fill="none" transform="matrix(1.1464 0 0 1.146 -260.07 -773.12)"/><path d="M363.18 914.48l.055 7.585h4.79l-.042-7.585h-4.803m7.6-10.97l-.06-13.1h-10.46l.037 13.1h10.488-.006z" stroke="#000" stroke-width="1.242" fill="none" transform="matrix(1.1464 0 0 1.146 -260.07 -773.12)"/><path d="M363.1 893.16l.03 7.597h4.79l-.005-7.597H363.1m-43.57 10.3l-.073-13.076-10.464-.013.05 13.085h10.487v.007z" stroke="#000" stroke-width="1.242" fill="none" transform="matrix(1.1464 0 0 1.146 -260.07 -773.12)"/><path d="M311.85 893.11l.024 7.585 4.803.012-.036-7.597h-4.79m26.65 10.37l-.05-13.076-10.47-.012.046 13.087H338.5" stroke="#000" stroke-width="1.242" fill="none" transform="matrix(1.1464 0 0 1.146 -260.07 -773.12)"/><path d="M330.83 893.13l.024 7.585 4.797.024-.03-7.61h-4.79m22.29 10.38l-.07-13.1-10.465-.015.05 13.087 10.487.025" stroke="#000" stroke-width="1.242" fill="none" transform="matrix(1.1464 0 0 1.146 -260.07 -773.12)"/><path d="M345.44 893.14l.036 7.61h4.797l-.024-7.61h-4.81" stroke="#000" stroke-width="1.242" fill="none" transform="matrix(1.1464 0 0 1.146 -260.07 -773.12)"/><path fill="#fff" d="M147.727 257.785l.133 34.612-34.774-.056-.125-34.58 34.76.027"/><path d="M355.72 899.49l.116 30.2-30.333-.05-.11-30.174 30.32.024h.007zm-30.51 8.62l30.54.024m-26.73 21.546l-.103-21.342m23.223 21.352l-.103-21.33m14.753-21.73l-17.08-12.474-19.194-.024-16.947 12.45 53.22.047m-34.8-22.83l.03 7.61 16.142.01-.03-7.61-16.144-.01" stroke="#000" stroke-width="1.242" fill="none" transform="matrix(1.1464 0 0 1.146 -260.07 -773.12)"/><path d="M336.37 865.69l.024 3.792h7.415l-.028-3.792h-7.414m3.67-10.55l8.98 6.348-17.893-.023 8.912-6.325" stroke="#000" stroke-width="1.242" fill="none" transform="matrix(1.1464 0 0 1.146 -260.07 -773.12)"/><path fill="#fff" d="M171.366 202.028c2.924-.07 3.678 12.042 3.685 18.042 2.515.704 8.08 4.207 10.547 7.374l-28.25-.042c2.43-3.125 7.956-6.642 10.448-7.346 0-6.007.614-18.11 3.573-18.042"/><path d="M376.34 850.84c2.55-.06 3.208 10.507 3.214 15.742 2.19.615 7.05 3.67 9.198 6.434l-24.642-.036c2.118-2.727 6.94-5.795 9.113-6.41 0-5.24.536-15.803 3.117-15.742m-49.53 49.502h2.21l-.646 1.186s1.066 1.37.02 2.94l.577 1.09h-2.13l.58-1.035s-1.09-1.82.05-2.992l-.658-1.186m4.5 0h2.21l-.64 1.187s1.067 1.333.008 2.94l.572 1.09h-2.126l.572-1.036s-1.065-1.82.055-2.994l-.65-1.186m4.92 0h2.205l-.658 1.186s1.078 1.37.018 2.94l.58 1.115-2.114-.023.568-1.036s-1.078-1.806.042-2.994l-.646-1.186h.006zm5.54.02h2.223l-.65 1.2s1.064 1.345.005 2.92l.597 1.11H341.8l.573-1.036s-1.066-1.832.073-2.995l-.67-1.2h-.006zm4.93 0h2.205l-.652 1.2s1.072 1.345.012 2.915l.585 1.113h-2.126l.554-1.035s-1.07-1.82.086-2.995l-.663-1.2m4.9.01l2.204-.012-.652 1.2s1.09 1.346.03 2.92l.555 1.11h-2.13l.57-1.035s-1.064-1.82.074-2.995l-.65-1.187" stroke="#000" stroke-width="1.242" fill="none" transform="matrix(1.1464 0 0 1.146 -260.07 -773.12)"/><path fill="#ff0" d="M130.508 336.763c13.022.042 29.038-2.616 36.54-6.494l16.476-1.46.328 20.1c-13.958 7.693-46.184 9.346-53.275 9.29-7.097.056-39.72-1.625-53.742-9.348l.182-20.114 16.51 1.485c7.503 3.86 24.007 6.537 37.015 6.537h-.035"/><path d="M340.7 968.4c11.36.036 25.33-2.283 31.873-5.667l14.372-1.273.286 17.538c-12.172 6.714-40.283 8.157-46.47 8.108-6.19.05-34.65-1.418-46.88-8.156l.16-17.55 14.404 1.296c6.544 3.367 20.94 5.704 32.287 5.704h-.03" stroke="#000" stroke-width=".289" fill="none" transform="matrix(1.1464 0 0 1.146 -260.07 -773.12)"/><path fill="#ff0" d="M34.417 251.023l14.516 4.62-4.39 23.498-13.74 2.137s-2.317-12.356 3.614-30.265"/><path d="M256.88 893.59l12.662 4.03-3.83 20.503-11.985 1.862s-2.02-10.78 3.153-26.407v.012z" stroke="#000" stroke-width=".289" fill="none" transform="matrix(1.1464 0 0 1.146 -260.07 -773.12)"/><path fill="#7e7e7e" d="M44.54 278.885l-13.734 2.393 8.688-12.356 5.046 9.963"/><path d="M265.71 917.9l-11.98 2.088 7.58-10.78 4.4 8.692" stroke="#000" stroke-width=".289" fill="none" transform="matrix(1.1464 0 0 1.146 -260.07 -773.12)"/><path fill="#ff0" d="M25.74 267.95l13.99 1.012c.315 11.854 1.752 57.09 55.78 59.547l-1.682 16.455c-65.765.683-70.762-55.486-68.09-77.016"/><path d="M249.31 908.36l12.205.882c.274 10.343 1.528 49.813 48.656 51.956l-1.464 14.36c-57.367.596-61.726-48.413-59.394-67.198zm44.8 70.14l14.384-3.14" stroke="#000" stroke-width=".289" fill="none" transform="matrix(1.1464 0 0 1.146 -260.07 -773.12)"/><path fill="#ff0" d="M225.453 251.195l-14.46 4.577 4.586 23.463 13.765 2.21s2.212-12.347-3.894-30.263"/><path d="M423.52 893.74l-12.613 3.993 4 20.472 12.01 1.93s1.93-10.775-3.397-26.407v.012z" stroke="#000" stroke-width=".289" fill="none" transform="matrix(1.1464 0 0 1.146 -260.07 -773.12)"/><path fill="#7e7e7e" d="M215.57 278.988l13.77 2.47-8.807-12.362-4.962 9.892"/><path d="M414.9 917.99l12.01 2.155-7.682-10.786-4.328 8.63" stroke="#000" stroke-width=".289" fill="none" transform="matrix(1.1464 0 0 1.146 -260.07 -773.12)"/><path fill="#ff0" d="M234.292 268.135l-14.012.956c-.203 11.84-1.236 57.1-55.264 59.5l1.836 16.444c65.75.76 70.274-55.382 67.44-76.905"/><path d="M431.23 908.52l-12.223.835c-.177 10.33-1.077 49.818-48.206 51.912l1.604 14.348c57.355.662 61.3-48.322 58.828-67.1v.004zm-44.19 70.05l-14.42-3.15" stroke="#000" stroke-width=".289" fill="none" transform="matrix(1.1464 0 0 1.146 -260.07 -773.12)"/><path fill="#009fc5" d="M121.76 346.666c-.37.237-.87.3-1.45.272l-2.61-.133.223-3.257 2.59.138c.51.035.913.134 1.165.287.523.272.753.775.704 1.472-.034.6-.244.99-.628 1.22m-4.382 5.13l.258-3.97 3.043.21c.984.075 1.716-.183 2.212-.686.516-.49.782-1.13.816-1.858.066-.845-.15-1.535-.653-2.045-.48-.49-1.165-.747-2.023-.83l-4.348-.272-.6 9.348 1.29.084m9.476-7.808l3.183.034c.46.042.824.098 1.09.223.487.23.718.69.718 1.36 0 .63-.18 1.048-.537 1.3-.342.23-.837.333-1.43.333l-3.057-.034.027-3.216m-.05 8.282l.03-3.99 2.986.04c.53 0 .92.043 1.192.175.44.2.656.628.677 1.213l.075 1.57c.02.376.028.607.05.76.04.112.06.23.117.315h1.605l-.03-.203c-.18-.098-.33-.286-.39-.572-.056-.182-.084-.454-.1-.796l-.026-1.248c-.02-.567-.12-.957-.335-1.174a1.673 1.673 0 0 0-.846-.6c.446-.236.78-.508 1.026-.844.23-.37.35-.837.35-1.408 0-1.075-.44-1.808-1.334-2.205-.482-.217-1.096-.33-1.822-.343l-4.487-.042-.035 9.376h1.29m9.962-1.98c-.572-.698-.88-1.57-.95-2.603-.062-1.298.19-2.288.782-2.96.6-.724 1.375-1.072 2.387-1.13 1.02-.054 1.856.274 2.477.915.637.63 1 1.5 1.062 2.59.035 1.045-.146 1.973-.628 2.79-.474.83-1.263 1.297-2.428 1.325-1.215.063-2.122-.223-2.7-.928m-1.536-5.904c-.6.93-.845 2.005-.782 3.3.09 1.405.523 2.56 1.34 3.436.907.872 2.108 1.31 3.587 1.227 1.584-.07 2.777-.67 3.587-1.772.656-.996.97-2.155.9-3.585-.09-1.278-.46-2.318-1.15-3.092-.874-1.04-2.15-1.5-3.88-1.43-1.634.104-2.835.704-3.61 1.918m44.074-13.49c.9-.152 1.682-.11 2.394.134 1.047.327 1.752 1.102 2.19 2.288l-1.29.18c-.28-.64-.677-1.08-1.214-1.324-.523-.23-1.18-.286-1.933-.173a3.01 3.01 0 0 0-2.08 1.276c-.488.753-.635 1.758-.418 3.04.18 1.06.572 1.96 1.214 2.56.59.616 1.462.83 2.6.67.85-.14 1.535-.48 2.017-1.066.5-.557.648-1.402.48-2.49l-3.008.46-.154-1.032 4.186-.64.816 4.96-.83.125-.517-1.144c-.35.518-.697.915-1.004 1.145-.516.405-1.214.663-2.086.79-1.13.173-2.163-.03-3.098-.63-1.026-.76-1.69-1.89-1.94-3.46-.273-1.54-.028-2.86.684-3.9.676-1.004 1.66-1.59 2.986-1.78m9.47-.707l3-1.09c.412-.15.768-.2 1.075-.164.55.04.956.37 1.186 1.024.217.56.217 1.047-.027 1.39-.26.355-.664.613-1.25.83l-2.82 1.01-1.165-3m3 7.752l-1.464-3.76 2.792-1.006c.524-.167.887-.258 1.16-.23.494.063.87.364 1.122.935l.635 1.43c.14.356.25.57.34.67.042.126.133.203.203.286l1.514-.556-.084-.204c-.223 0-.44-.124-.6-.37-.118-.173-.23-.424-.39-.717l-.496-1.175c-.223-.51-.454-.822-.72-1.01a2.395 2.395 0 0 0-.997-.273c.308-.356.53-.712.615-1.13.09-.426.05-.9-.153-1.43-.384-.998-1.09-1.542-2.08-1.612-.523-.04-1.123.07-1.814.314l-4.215 1.5 3.405 8.82 1.235-.455m10.967-4.675l-5.352-7.807 5.876-3.748.65.943-4.818 3.075 1.647 2.386 4.445-2.86.607.915-4.446 2.86 1.817 2.63 4.9-3.13.648.92-5.98 3.816m4.696-13.81l1.534-1.688c.712-.755 1.466-1.097 2.29-1 .823.07 1.66.503 2.553 1.285.245.188.46.432.684.704.393.51.623.956.77 1.402.125.56.098 1.067-.1 1.555-.116.245-.326.53-.64.873l-1.542 1.676-5.548-4.82m8.11 3.675c1.087-1.2 1.324-2.49.69-3.948a6.668 6.668 0 0 0-1.718-2.226c-.985-.874-2.01-1.32-3.09-1.403-1.2-.09-2.22.342-3.108 1.31l-2.617 2.805 7.216 6.293 2.618-2.82m5.6-7.285l-8.305-4.877.677-1.074 8.32 4.85-.685 1.114m3.25-5.676l-8.968-3.587 2.644-6.306 1.09.42-2.157 5.197 2.7 1.06 2.017-4.785 1.034.426-1.996 4.78 3.023 1.227 2.213-5.26 1.09.41-2.695 6.42m4.123-11.014l-9.434-2.085.314-1.458 8.715-2.945-7.655-1.69.28-1.143 9.434 2.03-.3 1.415-8.73 3.007 7.655 1.653-.273 1.214m-.752-11.978l.118-1.186c.545.015 1.005-.07 1.354-.257.684-.37 1.082-1.075 1.186-2.116.042-.488.02-.915-.09-1.32-.203-.78-.642-1.213-1.347-1.283-.523-.055-.9.07-1.173.357-.244.33-.502.803-.697 1.473l-.433 1.235c-.28.81-.537 1.367-.817 1.68-.446.588-1.074.79-1.877.734-.86-.09-1.558-.433-2.053-1.09-.51-.6-.72-1.457-.594-2.52.084-.967.405-1.784.977-2.44.53-.6 1.356-.886 2.41-.775l-.1 1.186c-.514 0-.926.09-1.226.3-.544.3-.844.936-.935 1.864-.08.767.026 1.283.32 1.674.292.33.662.538 1.094.573.46.04.824-.104 1.075-.46.18-.244.396-.774.69-1.632l.425-1.298c.21-.6.46-1.06.753-1.388.522-.544 1.206-.775 2.064-.71 1.047.11 1.794.543 2.177 1.34.377.8.524 1.687.433 2.69-.12 1.138-.488 2.03-1.172 2.63-.683.615-1.535.824-2.567.74m-195.588-.573l.217 1.172c-.524.104-.942.314-1.25.586-.55.515-.74 1.29-.55 2.344a4 4 0 0 0 .446 1.235c.42.71.962.996 1.653.884.51-.09.845-.284 1.006-.647.152-.358.264-.9.3-1.6l.062-1.32c.04-.814.132-1.455.314-1.812.286-.64.823-1.04 1.626-1.17.858-.155 1.612.04 2.26.53.657.453 1.09 1.24 1.25 2.287.202.957.112 1.815-.265 2.59-.363.753-1.06 1.213-2.13 1.408l-.21-1.185c.497-.182.867-.357 1.11-.6.42-.468.546-1.145.385-2.072-.125-.754-.384-1.242-.774-1.485-.384-.288-.768-.4-1.187-.33-.467.07-.774.33-.92.747-.09.28-.16.858-.224 1.744l-.063 1.368c-.035.642-.132 1.173-.35 1.536-.34.67-.92 1.08-1.764 1.213-1.07.18-1.893-.062-2.48-.746-.6-.67-.97-1.472-1.157-2.47-.21-1.185-.057-2.106.42-2.845.48-.76 1.24-1.2 2.273-1.347m-.597 12.352l9.227-2.776 2.15 6.494-1.124.354-1.76-5.338-2.805.845 1.624 4.932-1.076.34-1.613-4.945-3.125.934 1.787 5.455-1.102.316-2.185-6.614m4.094 11.267l8.485-4.5.907 1.583-5.834 6.168 8.52-1.457.88 1.57-8.465 4.472-.6-1.04 4.996-2.63c.18-.106.46-.26.865-.475.397-.18.844-.426 1.29-.656l-8.485 1.443-.62-1.102 5.79-6.146-.28.14c-.18.103-.494.257-.92.5a6.98 6.98 0 0 1-.934.5l-4.98 2.674-.615-1.06m15.81 12.506c-.426-.098-.845-.342-1.256-.768l-1.794-1.85 2.415-2.21 1.806 1.842c.35.342.573.676.69.963.17.55 0 1.053-.51 1.527-.46.426-.92.6-1.35.495m-6.82.856l2.96-2.714 2.1 2.128c.677.692 1.368 1.006 2.094.993a2.953 2.953 0 0 0 1.932-.846c.63-.558.93-1.214.93-1.918-.008-.685-.322-1.327-.9-1.927l-3.016-3.077-7.02 6.446.907.913m8.484 7.532l5.088-7.976 6.016 3.656-.628.95-4.94-2.958-1.53 2.414 4.54 2.76-.585.914-4.55-2.74-1.73 2.698 5.004 3.008-.6.94-6.086-3.662m15.052-1.535l3.056.97c.433.132.747.3.956.49.39.37.496.9.266 1.54-.19.558-.475.92-.92 1.075-.4.07-.9.07-1.488-.112l-2.882-.92 1.012-3.043m-2.638 7.835l1.27-3.802 2.847.928c.51.133.88.314 1.06.502.35.314.454.78.28 1.36l-.427 1.514c-.1.37-.148.614-.19.726 0 .12 0 .245.02.328l1.5.488.09-.216c-.16-.126-.25-.355-.242-.64.035-.177.084-.455.18-.777l.364-1.215c.148-.53.204-.927.07-1.213-.11-.3-.3-.572-.613-.83.474-.083.886-.23 1.235-.49.33-.284.608-.682.776-1.24.34-1.012.153-1.856-.6-2.5-.377-.332-.915-.62-1.62-.884l-4.27-1.318-2.987 8.894 1.25.384"/><path fill="#bc715f" d="M78.485 175.576c1.102-2.66 11.32-9.908 44.844-6.733 0 0 5.663 3.46 8.992 3.014 1.898-.245-1.117.118-3.594-1.94-2.527-2.058-3.065-6.278 2.707-6.167 5.743.147 27.244 1.36 27.65 3.292.375 1.954-11.37 2.77-15.738 2.66-4.39-.12-3.88 2.1.487 1.932 13.65-.49 28.55-5.296 44.286 5.832 1.877 1.353-4.746 1.57-9.868-.607 0 0-13.88.716-19.882-.268 0 0-4.613 3.753-10.62 3.384.78 1.946-2.22 9.21-21.11 3.746-3.12.956-14.488 2.86-13.246-.516-2.994 0-8.242.963-9.024-.74-.753-1.674 9.24-4.207 10.992-6.02 0 0-21.14.202-25.144-1.257 0 0-12.47 2.8-11.737.37"/><path fill="#008737" d="M85.26 205.168c.454-.613.635-1.716 1.598-1.688 2.094.558 3.517 4.388 6.092 1.904.915-.202 1.263 1.04 2.017 1.187.482 2.13 2.19-.43 3.468-.284 2.73-1.214 6.107-1.5 9.338-.9.097 2.086-1.536 4.39-3.587 5.575.042 2.1 1.947 3.447 1.912 5.56-.328.79-.056 2.03-1.25 2.288-1.514-.272-3.007-.432-4.263-1.276-.154-.152-.28-.452-.6-.354-.154.704.95 1.403 1.38 2.12-.76 1.298-2.022.112-3.083.126-.314.748-.014 1.69-.782 2.17-1.34-.04-1.612-1.5-2.435-2.224-.845.913.593 1.458.795 2.183-.516 2.75-.446 5.435-3.196 7.235l-1.842.915c-.503-1.383-.19-3.476-.524-4.92-1.088 1.772-1.94 3.32-3.538 4.82-1.87-.614-2.96-2.818-3.37-4.646-.782-2.128-.335-4.675 1.347-6.216-.573-1.116-2.534-.857-2.813-2.447-2.938-1.913-4.564 3.348-6.462.613-.614-2.553.12-5.728 1.968-7.633-.412-1.046-1.78-.773-2.59-1.373-1.848-1.57-4.514-3.23-4.382-6.064 5.06-1.91 11.11-.51 14.788 3.335"/><path fill="#ff0" d="M87.885 204.882c-.118 2.315 1.564.627 2.813 2.03-.977-.385-1.69 1.687-2.645.5l-.6.574c.35.795 1.026.9.32 1.772-1.046.397-1.255-.914-1.744-1.43-.087-.23.16-.663-.226-.817-.593.505-1.214.687-2.03.6-.224-.443-.657-1.03-.217-1.37.8-1.083 2.043.39 2.65-.37.098-.67-.488-1.486.273-1.948.524.09 1.194-.193 1.41.463m6.253 1.902c.062.447-.23 1.074.356 1.39.76-.413 1.57-.1 2.01.655-.008.403.12.933-.41 1.13l-1.19-.224c.084-.23-.293-.377-.44-.6-.523-.16-.83.264-1.22.522.293.447.97.69.81 1.264-.7.697-1.04-.6-1.808-.273-.524-.203.188-1.29-.635-1.62-.978 0-.33 1.605-1.58.978-.445-.503-.885-1.18-.403-1.744.523-.35 1.41-.26 1.856.194.76-.843.838-4.1 2.66-1.674m-7.802 3.358c.51.734-.113 1.73.536 2.548 1.02-1.905 2.003.41 3.218.23.37.452.125 1.08.195 1.597-1.5.397-3.31.872-4.635-.328l-.37.423c.79.734 1.536 1.564.908 2.79-1.124.246-2.862.274-3.427-.884-.293-.957.684-1.648-.35-2.416-.745.93-.71 2.17-2.267 1.326-.964-.53-1.25-1.624-.768-2.546 1.004-1.584 2.763.05 3.852-.726.153-1.36-.35-2.546.9-3.3 1.068-.188 1.563.614 2.212 1.284"/><path fill="#fff" d="M90.602 210.98c-.502 2.315-2.247-.12-3.063-.218 1.085-1.93 1.77.63 3.06.217m5.434 2.52c-1.214.34-1.026-1.175-1.626-1.768l.467-.425c.44.53.774 1.486 1.158 2.19"/><path fill="#ff0" d="M94.397 213.03c.35.803-.79 1.445.18 2.03.308-.257.685-.613.846-.76.83.245 1.793.39 2.372 1.214.622 1.703-1.102 1.66-2.08 2.135l-.97-.045c.23-.474-.418-.677-.578-1.004-.447-.11-.817.028-1.068.405.213 1.082 1.532 1.926.17 2.888-1.15-.076-2.937.37-2.832-1.22-.434-.9 1.17-2.29-.545-2.344-.566 1.214-1.187 2.385-2.66 1.235l.182-1.73c1.41.04 3.078.285 3.713-1.29.406-1.145-.704-2.2.287-3.106 1.438-.33 2.247.634 2.98 1.59"/><path d="M93.365 215.632c.363.86-.614.915-1.075 1.34-.62.05-1.053-.196-1.43-.614-.28-1.04.495-1.145 1.088-1.556.69-.286.977.516 1.417.83"/><path fill="#fff" d="M92.517 216.194c-.154.202-.37.14-.6.195l-.217-1.04c.46.04 1.06.186.817.842"/></g></svg>