<svg xmlns="http://www.w3.org/2000/svg" viewBox="0 0 640 480"><defs><clipPath id="a"><path fill-opacity=".67" d="M-85.333 0h682.67v512h-682.67z"/></clipPath></defs><g clip-path="url(#a)" transform="translate(80) scale(.9375)"><path fill-rule="evenodd" fill="#3e5eb9" d="M-128 0h768v512h-768z"/><path fill-rule="evenodd" fill="#ffd900" d="M-128 91.43h768v329.14h-768z"/><path fill-rule="evenodd" fill="#b10c0c" d="M-128 128h768v256h-768z"/><rect fill-rule="evenodd" rx="5.767" ry="5.851" height="10.971" width="621.71" stroke="#000" y="250.51" x="-51.439" stroke-width="1.474" fill="#ffd900"/><g stroke="#000" transform="translate(-757.03 -25.6) scale(1.0321)"><path d="M-106.3 265.75l-88.583 35.433 88.583 35.433 88.582-35.433-88.582-35.433z" fill-rule="evenodd" transform="matrix(.34 0 0 .3 1256.8 136.42)" stroke-width="4.175" fill="#fff"/><rect fill-rule="evenodd" rx="4.108" ry="3.78" height="7.087" width="442.91" y="223.23" x="761.81" stroke-width="1.333" fill="#ffd900"/><path d="M1194.1 230.31c1.77 0 3.545-1.772 3.545-3.543s-1.775-3.544-3.545-3.544" stroke-width="1.333" fill="none"/><path d="M1190.6 230.31c1.77 0 3.545-1.772 3.545-3.543s-1.775-3.544-3.545-3.544m-3.6 7.097c1.77 0 3.545-1.772 3.545-3.543s-1.775-3.544-3.545-3.544" stroke-width="1.333" fill="none"/></g><g stroke="#000" transform="matrix(1.03 0 0 1.03 -786.29 -3.66)"><path d="M-106.3 265.75l-88.583 35.433 88.583 35.433 88.582-35.433-88.582-35.433z" fill-rule="evenodd" transform="matrix(.34 0 0 .3 1256.8 136.42)" stroke-width="4.175" fill="#fff"/><rect fill-rule="evenodd" rx="4.108" ry="3.78" height="7.087" width="442.91" y="223.23" x="761.81" stroke-width="1.333" fill="#ffd900"/><path d="M1194.1 230.31c1.77 0 3.545-1.772 3.545-3.543s-1.775-3.544-3.545-3.544" stroke-width="1.333" fill="none"/><path d="M1190.6 230.31c1.77 0 3.545-1.772 3.545-3.543s-1.775-3.544-3.545-3.544m-3.6 7.097c1.77 0 3.545-1.772 3.545-3.543s-1.775-3.544-3.545-3.544" stroke-width="1.333" fill="none"/></g><g fill-rule="evenodd"><path d="M338.07-.416c-5.57 12.442 4.275-4.138 28.3 16.69 4.45 3.87 8.34 14.09 8.34 21.178-1.13-.975-1.968-3.145-3.213-4.553-1.743 2.25 1.664 12.574 2.162 17.454-3.76-2.71-3.397-3.993-4.645-7.324.25 4.027-.645 15.117.85 19.387-2.96-1.09-2.765-4.163-4.31-4.78 1.05 4.834-.917 10.094-.395 15.528-1.73-2.208-3.572-3.937-4.375-4.83-.135 2.59-3.327 9.39-3.4 11.836-1.468-1.14-1.866-2.924-2.11-4.124-1.825 2.955-8.31 13.872-8.725 17.202-4.995-5.69-17.792-19.545-19.458-26.9-1.473 4.176-3.604 5.584-7.817 8.632-1.665-11.657-7.89-24.757-4.56-34.748-2.36 1.804-4.303 3.608-6.66 5.828C310.287 29.18 321.68 9.388 338.07-.415z" transform="matrix(1 0 0 .77 190.37 251.96)" stroke="#000" stroke-width="1.422" fill="#3d5da7"/><path d="M505.878 299.164c2.3-4.597 4.42-6.056 5.905-9.016 2.626-5.203 3-9.343 5.288-8.736 2.29.607 2.288 2.737-.675 7.854-2.964 5.116-4.372 6.21-10.515 9.898zm15.56 10.95c-.295-3.5.72-4.962.534-7.216-.316-3.967-1.938-6.69.17-6.883 2.11-.194 3.097 1.16 3.103 5.156.006 4-.612 5.05-3.807 8.947zm11.805 6.865c-.922-4.89-.233-7.058-.822-10.206-1.024-5.54-3.055-9.187-1.1-9.693 1.955-.506 3.134 1.285 3.874 6.903.74 5.618.35 7.162-1.95 12.994zm12.272-34.248c-2.882-2.188-4.565-2.334-6.424-3.74-3.27-2.468-4.93-5.108-5.98-3.797-1.054 1.31-.307 2.745 3.124 5.02 3.43 2.276 4.593 2.456 9.283 2.517zm-2.03 16.228c-1.52-3.154-3.12-3.954-4.102-5.985-1.738-3.567-1.74-6.653-3.625-5.862-1.884.79-2.036 2.407-.02 5.86 2.015 3.452 3.07 4.077 7.746 5.988z" fill="#a70000"/></g><g fill-rule="evenodd"><path d="M329.6 20.703c-.272-2.662.253-2.98-1.258-4.99 2.2.998 2.284 3.65 4.96 1.768.982-.55 1.41-.566.216-3.523 2.79.14 11.927 3.535 13.39 3.614 3.842.19 10.855-4.373 15.723 1.24 4.675 5.117 3.115 10.428 3.115 17.515-1.877-.975-.973-1.455-2.965-3.99 1.493 6.196-.08 17.365-.08 23.935-.768-1.586-.655-.898-1.405-2.54-1.992 5.998-4.38 7.23-4.38 14.32-.72-2.78-.025-2.19-.825-3.654-1.937 4.552-14.926 8.443-9.92 13.033-4.52-2.87-6.5-2.57-8.55-5.15-.88.615-1.583 1.783-2.403 3.384-7.943-3.96-5.103-12.5-11.326-18.206-1.074 2.392-.583 2.044-1.75 5.94-1.26-5.41-1.6-8.846-3.02-12.82-1.22 2.202-1.11 1.36-3.33 4.69-.92-6.59-2.414-8.144-1.823-12.503-2.36 1.804-.815 1.073-3.173 3.293 2.234-16.88 11.884-29.35 18.808-25.357z" transform="matrix(1.14 0 0 1.05 -399.42 239.16)" stroke="#000" stroke-width="1.422" fill="#3d5da7"/><path d="M-35.707 289.802c2.327-5.704 4.425-7.495 5.93-11.167 2.654-6.454 3.087-11.613 5.32-10.826 2.23.784 2.193 3.44-.79 9.783-2.986 6.342-4.384 7.686-10.46 12.207zm8.814 14.27c.932-5.114 2.405-6.976 3.01-10.27 1.075-5.79.476-10.102 2.55-9.875 2.072.227 2.542 2.412 1.162 8.173-1.38 5.76-2.335 7.125-6.725 11.972zm10.54 9.92c.262-4.956 1.423-6.892 1.597-10.085.315-5.616-.767-9.637 1.21-9.66 1.98-.023 2.683 1.997 2.077 7.62-.603 5.622-1.335 7.025-4.882 12.126zM6.28 281.575c-4.328-4.312-6.945-5.116-9.736-7.89-4.917-4.87-7.294-9.44-9.044-7.82-1.75 1.62-.698 4.05 4.48 8.684 5.177 4.632 6.978 5.31 14.3 7.024zM3.647 298.24c-2.82-4.33-4.887-5.45-6.707-8.237-3.21-4.895-4.312-9.1-6.132-8.06-1.82 1.042-1.413 3.24 2.065 7.985 3.478 4.744 4.878 5.617 10.774 8.31z" fill="#a70000"/></g><g fill-rule="evenodd"><path d="M637.8 230.32c-53.15 59.05-124.02 177.16-265.75 177.16-124.02 0-212.6-118.11-265.75-177.16 53.15-59.06 141.73-177.17 265.75-177.17 141.73 0 212.6 118.11 265.75 177.17z" transform="matrix(.7 0 0 .62 0 113.37)" stroke="#000" stroke-width="2.108" fill="#fff"/><path d="M243.234 184.445c9.73 10.943 1.605 15.354 11.903 16.073 10.86.797 4.705 11.562 13.84 11.936 6.387.28-.638 25.794 5.51 34.213 6.264 8.777 11.51 2.57 11.62 8.913.108 6.558-17.046 5.896-17.347 26.1-.503 11.64-14.476 12.387-15.143 19.878-.83 7.046 27.528 11.002 27.15 17.31-.388 6.288-30.62 5.303-31.936 12.475-.672 6.442 41.534 11.72 44.928 30.352-6.298 2.06-24.216 3.998-37.76 4.01-85.327.067-146.283-73.14-182.854-109.71 36.57-36.573 97.52-109.713 182.855-109.713 0 0-25.33 23.144-12.764 38.163z"/><path d="M141.408 216.99h8.866v29.255h-8.866zm0 48.76h8.866v29.256h-8.866zm17.73-48.76h8.866v29.255h-8.866zm0 48.76h8.866v29.256h-8.866zm17.73-48.76h8.866v29.255h-8.866zm0 48.76h8.866v29.256h-8.866zm17.734-48.76h8.866v29.255h-8.866zm0 48.76h8.866v29.256h-8.866zm17.73-48.76h8.866v29.255h-8.866zm0 48.76h8.866v29.256h-8.866zm17.73-48.76h8.865v29.255h-8.865zm0 48.76h8.865v29.256h-8.865z" fill="#fff"/><path d="M275.5 216.99h8.865v29.255H275.5zm0 48.76h8.865v29.256H275.5zm17.728-48.76h8.866v29.255h-8.866zm0 48.76h8.866v29.256h-8.866zm17.73-48.76h8.866v29.255h-8.866zm0 48.76h8.866v29.256h-8.866zm17.735-48.76h8.866v29.255h-8.87zm0 48.76h8.866v29.256h-8.87zm17.73-48.76h8.865v29.255h-8.866zm0 48.76h8.865v29.256h-8.866zm17.73-48.76h8.865v29.255h-8.866zm0 48.76h8.865v29.256h-8.866z"/></g><g fill-rule="evenodd"><path d="M338.07-.416c-5.57 12.442 9.754-4.138 33.778 16.69 4.452 3.87 10.833 19.16 10.833 26.246-5.112-1.257-14.17-7.087-14.17-7.087s10.63 12.295 10.63 26.468c-3.756-2.71-5.635-2.3-6.883-5.63 0 4.587 3.34 7.51 3.34 14.6-2.71-2.5-5.006-4.165-7.3-5.627 3.543 7.087-6.457 20.835-1.452 25.424-8.752-1.462-17.707-7.92-21.25-15.006-1.878 1.463-2.082 3.757-2.155 6.204.275.265-13.323-11.655-12.074-16.234-1.824 2.954-2.08 4.58-2.497 7.91-4.998-5.69-9.576-11.38-11.24-18.735-2.22 3.33-2.36 3.33-4.58 6.66-1.666-11.655-1.666-11.24 1.664-21.23-2.36 1.804-4.302 3.608-6.66 5.828 2.236-16.88 13.63-36.673 30.016-46.477z" transform="matrix(.9 0 0 .8 -110.6 166.1)" stroke="#000" stroke-width="1.422" fill="#3d5da7"/><path d="M184.375 213.644c.81-6.752 2.576-9.295 3.103-13.643.94-7.645-.175-13.234 2.534-13.092 2.71.14 3.49 2.962 2.15 10.593-1.34 7.63-2.467 9.484-7.787 16.145zm14.145 12.363c-.55-5.697.503-8.122.154-11.79-.602-6.458-2.596-10.83-.234-11.234 2.362-.402 3.556 1.764 3.81 8.283.256 6.52-.375 8.256-3.73 14.74zm22.082 10.085c-2.4-4.93-4.464-6.4-6.015-9.572-2.74-5.576-3.31-10.13-5.422-9.304-2.112.825-1.996 3.18 1.054 8.64 3.05 5.457 4.426 6.57 10.38 10.236zm7.633-44.146c-6.116-3.22-9.257-3.26-13.2-5.33-6.94-3.626-10.98-7.724-12.413-5.47-1.434 2.257.48 4.5 7.635 7.797 7.155 3.298 9.354 3.454 17.978 3.003zm2.245 18.436c-4.455-3.705-7.088-4.25-9.96-6.633-5.06-4.185-7.578-8.29-9.268-6.627-1.69 1.665-.56 3.864 4.75 7.804 5.31 3.94 7.127 4.43 14.477 5.452z" fill="#a70000"/></g></g></svg>