<svg xmlns="http://www.w3.org/2000/svg" viewBox="0 0 640 480"><defs><clipPath id="a"><path fill-opacity=".67" d="M0 0h682.67v512H0z"/></clipPath></defs><g clip-path="url(#a)" fill-rule="evenodd" transform="scale(.9375)"><path fill="#ffe300" d="M0 0h767.63v512H0z"/><path fill="#118600" d="M0 208.14h767.63v102.81H0zM0 .248h767.63v102.81H0z"/><path fill="#d80000" d="M0 .248h306.51v310.71H0z"/><path d="M134.42 128.43c0-.856 18.836-53.083 18.836-53.083l17.124 52.227s57.365 1.713 57.365.856-45.378 34.248-45.378 34.248 21.404 59.933 20.55 58.22c-.857-1.71-49.66-35.96-49.66-35.96s-49.658 34.25-48.802 34.25c.856 0 18.835-56.51 18.835-56.51l-44.522-33.39 55.652-.857z" fill="#fff"/><path fill="#118600" d="M0 409.19h767.63V512H0z"/></g></svg>