<svg xmlns="http://www.w3.org/2000/svg" viewBox="0 0 640 480" version="1"><defs><clipPath id="a"><path fill-opacity=".67" d="M42.666 0h682.67v512H42.666z"/></clipPath></defs><g fill-rule="evenodd" clip-path="url(#a)" transform="translate(-40) scale(.9375)"><path fill="#004e00" d="M0 0h768v512H0z"/><g stroke-width="1pt"><path d="M260.573 171.885h14.12" fill="#ffef00"/><path d="M263.306 137.494c27.9 13.453 61.12-.064 73.14-18.637 12.322-17.332 13.835-46.437-7.47-73.14 33.07 27.425 40.38 58.513 23.928 84.113-21.944 29.254-70.627 28.407-89.598 7.664z" fill="#fff"/><path fill="#feffff" d="M312.835 69.43l5.614.073-4.446 3.528 1.666 5.52-4.632-3.26-4.588 3.34 1.583-5.544-4.5-3.453 5.61-.166 1.8-5.473zm-27.712 34.743l5.615.07-4.444 3.53 1.666 5.52-4.633-3.263-4.587 3.338 1.583-5.543-4.5-3.452 5.61-.167 1.8-5.474zm1.827-27.42l5.614.07-4.443 3.53 1.67 5.52-4.634-3.263-4.587 3.338 1.582-5.543-4.5-3.452 5.61-.167 1.8-5.474zm0-27.436l5.614.072-4.443 3.525 1.67 5.52-4.634-3.263-4.587 3.34 1.582-5.544-4.5-3.454 5.61-.166 1.8-5.473zm-30.798 34.75l5.615.07-4.444 3.53 1.666 5.52-4.636-3.263-4.587 3.338 1.582-5.543-4.5-3.456 5.61-.166 1.8-5.475z"/></g><path fill="#980000" d="M47.542 0H212.11v511.984H47.542z"/><g stroke-width="1pt" fill="#e69900"><path d="M47.542 133.48v-3.656l6.803-9.143-1.37-1.825 4.113-5.486-1.37-1.83-2.744 3.657-1.372-1.83 9.6-12.8 1.37 1.83-1.37 1.83 2.827 3.693 6.77-9.18-6.887-8.898-2.713 3.41 1.37 1.83-1.37 1.828-9.6-12.8 1.37-1.827 2.746 3.657 1.37-1.83-4.113-5.485 1.37-1.828-6.802-9.142v-3.658l9.548 12.8-1.37 1.828 4.113 5.486-2.74 3.66 2.742 3.657 4.116-5.485L73.6 98.958l-9.655 12.582-4.114-5.488-2.74 3.658 2.743 3.657-4.113 5.486 1.37 1.828-9.546 12.8z"/><path d="M47.54 87.77l1.373 3.656v5.486h4.114l2.743 1.828-2.743 1.83h-4.114v5.484l-1.372 3.658V87.77z"/></g><g stroke-width="1pt" fill="#e69900"><path d="M47.542 221.25v-3.657l6.803-9.143-1.37-1.828 4.113-5.486-1.37-1.828-2.744 3.657-1.372-1.83 9.6-12.8 1.37 1.83-1.37 1.83 2.827 3.693 6.77-9.18-6.887-8.896-2.713 3.41 1.37 1.83-1.37 1.827-9.6-12.8 1.37-1.83 2.746 3.66 1.37-1.83-4.113-5.488 1.37-1.828-6.802-9.143v-3.656l9.548 12.8-1.37 1.828 4.113 5.486-2.74 3.656 2.742 3.657 4.116-5.484 9.654 13.016-9.655 12.582-4.114-5.486-2.74 3.657 2.742 3.656-4.113 5.487 1.37 1.827-9.546 12.8z"/><path d="M47.54 175.538l1.373 3.657v5.485h4.114l2.743 1.83-2.743 1.828h-4.114v5.485l-1.372 3.657v-21.942z"/></g><g stroke-width="1pt" fill="#e69900"><path d="M47.543 309.02v-3.657l6.803-9.143-1.37-1.828 4.113-5.486-1.374-1.828-2.743 3.656-1.372-1.828 9.6-12.8 1.37 1.83-1.37 1.828 2.828 3.694 6.772-9.18-6.887-8.897-2.713 3.414 1.37 1.83-1.37 1.827-9.6-12.8 1.37-1.83 2.745 3.66 1.37-1.83-4.113-5.485 1.37-1.828-6.802-9.143v-3.657l9.546 12.8-1.372 1.828 4.114 5.486-2.743 3.658 2.742 3.657 4.113-5.486 9.654 13.017-9.654 12.582-4.114-5.487-2.744 3.657 2.742 3.655-4.114 5.486 1.37 1.83-9.545 12.8z"/><path d="M47.542 263.308l1.372 3.657v5.485h4.114l2.743 1.83-2.74 1.827h-4.114v5.486l-1.372 3.657v-21.942z"/></g><g stroke-width="1pt" fill="#e69900"><path d="M47.543 391.3v-3.657l6.803-9.143-1.37-1.828 4.113-5.486-1.374-1.828-2.743 3.656-1.372-1.828 9.6-12.8 1.37 1.83-1.37 1.828 2.828 3.694 6.772-9.18-6.887-8.897-2.713 3.414 1.37 1.83-1.37 1.827-9.6-12.8 1.37-1.83 2.745 3.66 1.37-1.83-4.113-5.485 1.37-1.828-6.802-9.143v-3.657l9.546 12.8-1.372 1.828 4.114 5.486-2.743 3.658 2.742 3.657 4.113-5.486 9.654 13.017-9.654 12.582-4.114-5.487-2.744 3.657 2.742 3.655-4.114 5.486 1.37 1.83-9.545 12.8z"/><path d="M47.542 345.588l1.372 3.657v5.485h4.114l2.743 1.83-2.74 1.827h-4.114v5.486l-1.372 3.657v-21.942z"/></g><g stroke-width="1pt" fill="#e69900"><path d="M212.106 133.48v-3.656l-6.803-9.143 1.372-1.825-4.114-5.486 1.37-1.83 2.747 3.657 1.37-1.83-9.6-12.8-1.37 1.83 1.37 1.83-2.826 3.693-6.772-9.18 6.886-8.898 2.713 3.41-1.37 1.83 1.37 1.828 9.6-12.8-1.37-1.827-2.744 3.657-1.37-1.83 4.113-5.485-1.372-1.828 6.803-9.142v-3.658l-9.545 12.8 1.37 1.828-4.11 5.486 2.742 3.66-2.742 3.657-4.115-5.485-9.653 13.018 9.653 12.582 4.115-5.487 2.743 3.658-2.742 3.658 4.115 5.487-1.37 1.828 9.544 12.8z"/><path d="M212.107 87.77l-1.37 3.656v5.486h-4.115l-2.743 1.828 2.74 1.83h4.114v5.484l1.37 3.658V87.77z"/></g><g stroke-width="1pt" fill="#e69900"><path d="M212.56 221.25v-3.656l-6.803-9.143 1.372-1.825-4.117-5.486 1.37-1.83 2.744 3.657 1.37-1.83-9.6-12.8-1.37 1.83 1.37 1.83-2.826 3.693-6.772-9.18 6.886-8.898 2.714 3.41-1.37 1.83 1.37 1.827 9.6-12.8-1.37-1.83-2.744 3.66-1.37-1.83 4.113-5.487-1.374-1.828 6.803-9.143v-3.657l-9.546 12.8 1.37 1.828-4.113 5.486 2.744 3.657-2.742 3.657-4.113-5.485-9.654 13.016 9.655 12.582 4.114-5.488 2.743 3.657-2.743 3.656 4.115 5.486-1.37 1.827 9.544 12.8z"/><path d="M212.56 175.54l-1.37 3.656v5.485h-4.114l-2.743 1.83 2.743 1.83h4.114v5.486l1.37 3.658V175.54z"/></g><g stroke-width="1pt" fill="#e69900"><path d="M212.106 309.02v-3.657l-6.803-9.143 1.372-1.828-4.114-5.486 1.37-1.828 2.747 3.656 1.37-1.828-9.6-12.8-1.37 1.83 1.37 1.828-2.826 3.694-6.772-9.18 6.886-8.897 2.713 3.414-1.37 1.83 1.37 1.827 9.6-12.8-1.37-1.83-2.744 3.66-1.37-1.83 4.113-5.485-1.372-1.828 6.803-9.143v-3.657l-9.545 12.8 1.37 1.828-4.11 5.486 2.742 3.658-2.742 3.657-4.115-5.486-9.653 13.017 9.653 12.582 4.115-5.487 2.743 3.657-2.742 3.655 4.115 5.486-1.37 1.83 9.544 12.8z"/><path d="M212.107 263.308l-1.37 3.657v5.485h-4.115l-2.743 1.83 2.74 1.827h4.114v5.486l1.37 3.657v-21.942z"/></g><g stroke-width="1pt" fill="#e69900"><path d="M212.106 391.3v-3.657l-6.803-9.143 1.372-1.828-4.114-5.486 1.37-1.828 2.747 3.656 1.37-1.828-9.6-12.8-1.37 1.83 1.37 1.828-2.826 3.694-6.772-9.18 6.886-8.897 2.713 3.414-1.37 1.83 1.37 1.827 9.6-12.8-1.37-1.83-2.744 3.66-1.37-1.83 4.113-5.485-1.372-1.828 6.803-9.143v-3.657l-9.545 12.8 1.37 1.828-4.11 5.486 2.742 3.658-2.742 3.657-4.115-5.486-9.653 13.017 9.653 12.582 4.115-5.487 2.743 3.657-2.742 3.655 4.115 5.486-1.37 1.83 9.544 12.8z"/><path d="M212.107 345.588l-1.37 3.657v5.485h-4.115l-2.743 1.83 2.74 1.827h4.114v5.486l1.37 3.657v-21.942z"/></g><path d="M47.545 34.74v-3.656l6.803-9.143-1.37-1.825 4.113-5.486-1.37-1.828-2.74 3.658-1.37-1.83 9.6-12.8 1.37 1.83-1.37 1.83 2.82 3.69L70.805 0h2.797l-9.654 12.8-4.114-5.486-2.743 3.657 2.746 3.66-4.114 5.486 1.37 1.828-9.544 12.8zm0-34.74h8.23L53.03 1.83h-4.114v5.485l-1.372 3.657V.002zm164.558 34.74v-3.656L205.3 21.94l1.372-1.827-4.115-5.486 1.372-1.828 2.74 3.654 1.37-1.83-9.6-12.8-1.37 1.83 1.37 1.83-2.826 3.693L188.844 0h-2.8l9.656 12.8 4.115-5.486 2.742 3.657-2.742 3.66 4.114 5.486-1.375 1.828 9.546 12.8zm0-34.74h-8.228l2.742 1.83h4.114v5.484l1.375 3.657V0zm-95.98 504.693s5.903-10.366 20.78-13.507c14.88-3.142 17.478 6.91 25.98 6.91 8.5 0 21.963-6.91 21.963-6.91s-13.462 13.193-23.853 12.88c-10.39-.315-13.934-6.91-24.56-5.97-10.63.943-20.31 6.91-20.31 6.597z" fill="#e69900"/><path d="M144.845 504.693s-5.904-10.366-20.783-13.507c-14.878-3.142-17.476 6.91-25.978 6.91-8.502 0-21.963-6.91-21.963-6.91s13.464 13.193 23.855 12.88c10.392-.315 13.934-6.91 24.56-5.97 10.63.943 20.31 6.91 20.31 6.597z" fill="#e69900"/><g stroke-width="1pt" fill="#e69900"><path d="M96.193 487.544c-1.31-2.743-4.585-14.71-2.84-16.206 2.62-.996 9.608 11.22 8.953 22.19-4.585 2.493-20.086-.998-19.868-4.24 1.092-4.487 9.825-2.99 13.755-1.744z"/><path d="M86.824 477.085c-.857-3.044-2.208-15.654-.268-16.638 2.718-.254 7.663 13.622 5.324 24.176-4.872 1.177-19.5-6.505-18.784-9.616 1.763-4.09 10.076-.223 13.728 2.078z"/><path d="M79.212 465.383c-.58-3.158-.8-15.893 1.214-16.562 2.722.18 6.397 14.74 3.135 24.85-4.94.398-18.78-9.544-17.793-12.52 2.115-3.783 10.026 1.373 13.447 4.235z"/><path d="M73.21 452.922c-.206-3.24 1.057-15.867 3.125-16.112 2.668.738 4.605 15.882.208 25.195-4.93-.628-17.446-13.31-16.125-16.047 2.53-3.3 9.744 3.43 12.792 6.964z"/><path d="M69.036 439.868c.145-3.246 2.755-15.5 4.827-15.346 2.56 1.24 2.848 16.6-2.507 24.973-4.81-1.565-15.832-16.513-14.23-18.968 2.858-2.78 9.274 5.26 11.91 9.34z"/><path d="M70.2 425.014c-.354 12.998-2.716 13.15-7.03 3.543-1.907-3.63-2.143-18.704-.423-19.266 2.486-.05 7.386 10.7 7.454 15.726z"/></g><g stroke-width="1pt" fill="#e69900"><path d="M164.034 488.912c1.31-2.742 4.585-14.71 2.838-16.205-2.62-.997-9.606 11.22-8.952 22.19 4.585 2.492 20.086-.998 19.87-4.24-1.093-4.487-9.826-2.99-13.756-1.745z"/><path d="M173.402 478.453c.857-3.044 2.21-15.654.27-16.637-2.72-.254-7.664 13.622-5.325 24.175 4.872 1.18 19.5-6.5 18.784-9.613-1.76-4.09-10.074-.223-13.726 2.078z"/><path d="M181.014 466.752c.58-3.158.8-15.893-1.214-16.562-2.722.177-6.396 14.737-3.135 24.846 4.943.398 18.783-9.543 17.796-12.52-2.112-3.782-10.022 1.373-13.444 4.236z"/><path d="M187.016 454.29c.207-3.24-1.057-15.866-3.124-16.11-2.668.737-4.606 15.88-.21 25.193 4.93-.628 17.447-13.31 16.126-16.046-2.528-3.3-9.744 3.428-12.792 6.963z"/><path d="M191.19 441.236c-.144-3.245-2.754-15.5-4.827-15.345-2.56 1.24-2.847 16.6 2.508 24.976 4.81-1.566 15.834-16.513 14.23-18.968-2.856-2.782-9.272 5.258-11.91 9.34z"/><path d="M190.026 426.383c.354 12.998 2.717 13.15 7.03 3.542 1.908-3.63 2.143-18.703.423-19.265-2.488-.052-7.388 10.698-7.456 15.723z"/></g><g transform="matrix(.99985 0 0 1.26515 188.276 -77.035)"><path d="M-3.543 290.55h-5.315v3.543h-5.315v3.543h-21.26l-3.543 3.544 1.77 1.77h8.86l1.77-1.77h-8.857l1.772-1.772h12.4l-5.316 5.315h-12.402l-3.544-1.772-3.544 1.774h-12.402l-5.315-5.316 12.4.002 1.77 1.77h-8.856l1.773 1.772h8.858l1.773-1.77-3.544-3.544H-69.1v-3.543h-5.314v-3.543h-5.316v-15.945h5.315v-3.543h5.314v-3.543h19.487l3.544-3.543-1.77-1.77h-8.86l-1.77 1.772 8.857-.003-1.77 1.772h-12.403l5.314-5.317h12.402l3.543 1.772 3.543-1.772h12.402l5.315 5.315h-12.4l-1.773-1.772h8.858l-1.772-1.77h-8.858l-1.77 1.77 3.542 3.544h21.26v3.54h5.315v3.544h5.315v15.945z" transform="matrix(1.4884 0 0 1.24 3.502 -39.474)" stroke="#000" stroke-width=".133" fill="#980000"/><path d="M375.59 499.67v24.803h10.63v7.02h10.63v7.086h35.432l14.174 10.63 14.173-10.63h38.973v-7.02l10.63-.07v-7.087h10.63V499.6h-10.63v-7.085l-10.63.068v-7.155H460.63l-14.174-10.63-14.174 10.63H396.85v7.154h-10.63v7.086h-10.63z" transform="matrix(.7442 0 0 .62 -392.03 -6.52)" stroke="#e69900" stroke-width="1.422" fill="#004e00"/><path d="M-75.6 296.644l-15.822 10.984v-10.984H-75.6zm31.63 0l15.822 10.985V296.64H-43.97zm-31.63 28.564l-15.822-10.984v10.984H-75.6zm31.635 0l15.82-10.985v10.985h-15.82zm5.276-21.975l-5.27 4.394h10.547l-5.274-4.394zm-42.185 0l-5.273 4.394H-75.6l-5.274-4.394zm0 15.39l-5.273-4.395H-75.6l-5.274 4.394zm42.19 0l-5.273-4.395h10.548l-5.274 4.394z" fill="#980000"/><path d="M-59.787 329.602l-5.273-4.394h10.547l-5.274 4.394zm0-21.97l-5.273-4.394h10.547l-5.274 4.394zm0-15.383l-5.273 4.39h10.547l-5.274-4.393zm0 21.965l-5.273 4.394h10.547l-5.274-4.394z" fill="#e69900"/><path transform="matrix(.7442 0 0 .62 -392.03 -6.52)" stroke="#000" stroke-width=".133" fill="#e69900" d="M467.72 506.69h14.173v3.543H467.72z"/><path transform="matrix(.7442 0 0 .62 -392.03 -6.52)" stroke="#000" stroke-width=".133" fill="#c00" d="M414.57 510.24h7.087v3.543h-7.087zm56.69 0h7.087v3.543h-7.087z"/><path transform="matrix(.7442 0 0 .62 -392.03 -6.52)" stroke="#000" stroke-width=".133" fill="#900" d="M439.37 488.98h14.173v3.543H439.37zm0 7.08h14.173v3.543H439.37z"/><path transform="matrix(.7442 0 0 .62 -392.03 -6.52)" stroke="#000" stroke-width=".133" fill="#900" d="M435.83 492.52h21.26v3.543h-21.26zm3.54 31.89h14.173v3.543H439.37zm0 7.09h14.173v3.543H439.37z"/><path transform="matrix(.7442 0 0 .62 -392.03 -6.52)" stroke="#000" stroke-width=".133" fill="#900" d="M435.83 527.95h21.26v3.543h-21.26z"/><path transform="matrix(.7442 0 0 .62 -392.03 -6.52)" stroke="#000" stroke-width=".133" fill="#e69900" d="M467.72 513.78h14.173v3.543H467.72zm-56.7-7.09h14.173v3.543H411.02zm0 7.09h14.173v3.543H411.02z"/><path transform="matrix(.7442 0 0 .62 -392.03 -6.52)" stroke="#000" stroke-width=".133" fill="#e69900" d="M407.48 510.24h7.087v3.543h-7.087zm14.17 0h7.087v3.543h-7.087zm42.52 0h7.087v3.543h-7.087zm14.18 0h7.087v3.543h-7.087z"/><ellipse fill="#fff" transform="matrix(.7442 0 0 .62 -374.14 -38.912)" cx="413.68" rx=".886" cy="581.99" ry=".886"/><ellipse fill="#fff" transform="matrix(.7442 0 0 .62 -367.57 -38.912)" cx="413.68" rx=".886" cy="581.99" ry=".886"/><ellipse fill="#fff" transform="matrix(.7442 0 0 .62 -361 -38.958)" cx="413.68" rx=".886" cy="581.99" ry=".886"/><ellipse fill="#fff" transform="matrix(.7442 0 0 .62 -371.51 -41.102)" cx="413.68" rx=".886" cy="581.99" ry=".886"/><ellipse fill="#fff" transform="matrix(.7442 0 0 .62 -363.68 -41.148)" cx="413.68" rx=".886" cy="581.99" ry=".886"/><ellipse fill="#fff" transform="matrix(.7442 0 0 .62 -371.57 -36.768)" cx="413.68" rx=".886" cy="581.99" ry=".886"/><ellipse fill="#fff" transform="matrix(.7442 0 0 .62 -363.68 -36.677)" cx="413.68" rx=".886" cy="581.99" ry=".886"/><ellipse fill="#fff" transform="matrix(.7442 0 0 .62 -353.17 -50)" cx="413.68" rx=".886" cy="581.99" ry=".886"/><ellipse fill="#fff" transform="matrix(.7442 0 0 .62 -346.59 -50)" cx="413.68" rx=".886" cy="581.99" ry=".886"/><ellipse fill="#fff" transform="matrix(.7442 0 0 .62 -340.02 -50.045)" cx="413.68" rx=".886" cy="581.99" ry=".886"/><ellipse fill="#fff" transform="matrix(.7442 0 0 .62 -350.54 -52.19)" cx="413.68" rx=".886" cy="581.99" ry=".886"/><ellipse fill="#fff" transform="matrix(.7442 0 0 .62 -342.71 -52.235)" cx="413.68" rx=".886" cy="581.99" ry=".886"/><ellipse fill="#fff" transform="matrix(.7442 0 0 .62 -350.59 -47.855)" cx="413.68" rx=".886" cy="581.99" ry=".886"/><ellipse fill="#fff" transform="matrix(.7442 0 0 .62 -342.71 -47.764)" cx="413.68" rx=".886" cy="581.99" ry=".886"/><ellipse fill="#fff" transform="matrix(.7442 0 0 .62 -374.2 -60.904)" cx="413.68" rx=".886" cy="581.99" ry=".886"/><ellipse fill="#fff" transform="matrix(.7442 0 0 .62 -367.62 -60.904)" cx="413.68" rx=".886" cy="581.99" ry=".886"/><ellipse fill="#fff" transform="matrix(.7442 0 0 .62 -361.05 -60.95)" cx="413.68" rx=".886" cy="581.99" ry=".886"/><ellipse fill="#fff" transform="matrix(.7442 0 0 .62 -371.57 -63.094)" cx="413.68" rx=".886" cy="581.99" ry=".886"/><ellipse fill="#fff" transform="matrix(.7442 0 0 .62 -363.74 -63.14)" cx="413.68" rx=".886" cy="581.99" ry=".886"/><ellipse fill="#fff" transform="matrix(.7442 0 0 .62 -371.62 -58.76)" cx="413.68" rx=".886" cy="581.99" ry=".886"/><ellipse fill="#fff" transform="matrix(.7442 0 0 .62 -363.74 -58.668)" cx="413.68" rx=".886" cy="581.99" ry=".886"/><ellipse fill="#fff" transform="matrix(.7442 0 0 .62 -395.28 -49.817)" cx="413.68" rx=".886" cy="581.99" ry=".886"/><ellipse fill="#fff" transform="matrix(.7442 0 0 .62 -388.71 -49.817)" cx="413.68" rx=".886" cy="581.99" ry=".886"/><ellipse fill="#fff" transform="matrix(.7442 0 0 .62 -382.14 -49.862)" cx="413.68" rx=".886" cy="581.99" ry=".886"/><ellipse fill="#fff" transform="matrix(.7442 0 0 .62 -392.65 -52.007)" cx="413.68" rx=".886" cy="581.99" ry=".886"/><ellipse fill="#fff" transform="matrix(.7442 0 0 .62 -384.82 -52.052)" cx="413.68" rx=".886" cy="581.99" ry=".886"/><ellipse fill="#fff" transform="matrix(.7442 0 0 .62 -392.71 -47.672)" cx="413.68" rx=".886" cy="581.99" ry=".886"/><ellipse fill="#fff" transform="matrix(.7442 0 0 .62 -384.82 -47.58)" cx="413.68" rx=".886" cy="581.99" ry=".886"/></g><path d="M138.895 255.755l4.535-2.125 4.535 2.125h-9.07zm-13.604 0l4.538-2.125 4.534 2.125h-9.07zm-13.6 0l4.534-2.125 4.534 2.125h-9.07zm27.207-48.87l4.535 2.125 4.536-2.125h-9.07zm-13.604 0l4.536 2.125 4.533-2.125h-9.07zm-13.603 0l4.534 2.125 4.534-2.125h-9.07z" fill="#fff"/><path d="M135.115 262.133l-5.29 4.25-5.292-4.25-5.29 4.25-5.29-4.25v2.124l3.526 2.127-1.766 2.124v2.125h1.763l1.763-2.125 1.764 2.125h1.764v-2.125l-1.764-2.124 3.527-2.126 3.53 2.126-1.763 2.124v2.125h1.764l1.765-2.125 1.763 2.125h1.764v-2.125l-1.762-2.124 3.528-2.126 3.527 2.125-1.764 2.125v2.125h1.764l1.763-2.125 1.764 2.125h1.764v-2.125l-1.764-2.125 3.525-2.126v-2.124l-5.29 4.25-5.29-4.25zm0-61.636l-5.29-4.25-5.29 4.25-5.29-4.25-5.29 4.25v-2.124l3.526-2.127-1.76-2.124v-2.125h1.763l1.764 2.125 1.763-2.125h1.763v2.125l-1.763 2.124 3.527 2.126 3.528-2.126-1.764-2.124v-2.125h1.766l1.763 2.125 1.762-2.125h1.765v2.125l-1.764 2.124 3.53 2.126 3.526-2.125-1.765-2.125v-2.125h1.763l1.764 2.125 1.762-2.125h1.764v2.125l-1.764 2.125 3.527 2.126v2.124l-5.29-4.25-5.29 4.25zm40.072 35.423l5.67-4.604-5.67-4.605 5.67-4.6-5.67-4.605h2.833l2.836 3.07 2.833-1.536h2.83v1.534l-2.833 1.535 2.833 1.534v1.535h-2.833l-2.834-1.536-2.835 3.07 2.836 3.07 2.833-1.536h2.833v1.535l-2.834 1.536 2.833 1.534v1.536h-2.836l-2.834-1.536-2.834 3.07 2.834 3.07 2.835-1.535h2.833v1.534l-2.834 1.535 2.833 1.534v1.535h-2.834l-2.836-1.536-2.834 3.07h-2.833l5.667-4.605-5.667-4.605zm-90.717 0l-5.67-4.604 5.67-4.605-5.67-4.6 5.67-4.605h-2.834l-2.836 3.07-2.833-1.536h-2.835v1.534l2.835 1.535-2.835 1.534v1.535h2.835l2.833-1.536 2.835 3.07-2.835 3.07-2.833-1.536h-2.835v1.535l2.835 1.536-2.835 1.534v1.536h2.835l2.833-1.536 2.835 3.07-2.833 3.07-2.835-1.535h-2.835v1.534l2.835 1.535-2.835 1.534v1.535h2.835l2.835-1.536 2.834 3.07h2.833l-5.67-4.605 5.667-4.605z" fill="#004e00"/><path transform="matrix(1.2798 0 0 1.1995 211.45 -5.633)" stroke="#000" stroke-width=".267" fill="#004e00" d="M-26.575 214.37h1.772v1.772h-1.772z"/><path transform="matrix(1.2798 0 0 1.1995 211.45 -5.633)" stroke="#000" stroke-width=".267" fill="#004e00" d="M-28.346 216.14h1.772v1.772h-1.772zm-8.86 8.86h1.773v1.772h-1.772zm1.773-1.77h1.772v1.772h-1.775zm-58.465 0h1.772v1.772h-1.772zm-8.862-8.86h1.772v1.772h-1.772zm1.78 1.77h1.772v1.772h-1.772zm0-38.97h1.772v1.772h-1.772zm-1.78 1.77h1.772v1.772h-1.772zm10.634-10.63h1.772v1.772h-1.772zm-1.772 1.77h1.772v1.772h-1.772zm56.693-1.77h1.772v1.772h-1.772zm1.772 1.77h1.772v1.772h-1.775zm7.087 7.09h1.772v1.772h-1.772z"/><path transform="matrix(1.2798 0 0 1.1995 211.45 -5.633)" stroke="#000" stroke-width=".267" fill="#004e00" d="M-26.575 178.94h1.772v1.772h-1.772zM-92.125 225h1.77v1.772h-1.77z"/><path d="M122.907 231.314h-6.683v-4.178l4.455.003v-3.92h4.454v-3.596h4.456v4.495c-3.69 0-6.684 3.046-6.684 7.193z" fill="#fff"/><path d="M136.274 231.314h6.683v-4.178l-4.455.003v-3.92h-4.457v-3.596h-4.456v4.495c3.69 0 6.682 3.046 6.682 7.193z" fill="#e69900"/><path d="M136.274 231.314h6.683v4.177h-4.455v3.917h-4.457v3.597h-4.456v-4.496c3.69 0 6.682-3.045 6.682-7.192z" fill="#fff"/><path d="M122.907 231.314h-6.683v4.177h4.455v3.917h4.454v3.597h4.456v-4.496c-3.69 0-6.684-3.045-6.684-7.192z" fill="#e69900"/><path d="M136.273 231.317h-6.684v-7.193c3.69 0 6.68 3.223 6.68 7.193z" fill="#004e00"/><path d="M136.273 231.31h-6.684v7.193c3.69 0 6.68-3.222 6.68-7.192z" fill="#980000"/><path d="M122.908 231.31h6.684v7.193c-3.69 0-6.684-3.222-6.684-7.192z" fill="#004e00"/><path d="M122.908 231.317h6.684v-7.193c-3.69 0-6.684 3.223-6.684 7.193z" fill="#980000"/><path d="M136.627 257.876l-6.802-4.25-6.802 4.25-6.802-4.25-6.8 4.25v-2.125l4.536-2.123-2.268-2.125v-2.124h2.268l2.267 2.125 2.268-2.124h2.27v2.124l-2.27 2.126 4.536 2.125 4.535-2.124-2.267-2.124v-2.124h2.268l2.268 2.125 2.267-2.124h2.268v2.125l-2.268 2.126 4.535 2.125 4.534-2.124-2.267-2.126v-2.124h2.267l2.267 2.125 2.268-2.123h2.268v2.125l-2.268 2.127 4.535 2.124v2.126l-6.8-4.25-6.803 4.25zm0-53.12l-6.802 4.25-6.802-4.25-6.802 4.25-6.8-4.25v2.125l4.536 2.13-2.268 2.124v2.126h2.268l2.267-2.127 2.268 2.126h2.27v-2.128l-2.27-2.124 4.536-2.127 4.535 2.127-2.267 2.123v2.126h2.268l2.268-2.127 2.267 2.125h2.268v-2.127l-2.268-2.124 4.535-2.127 4.534 2.125-2.267 2.125v2.126h2.267l2.267-2.127 2.268 2.126h2.268v-2.127L145.698 209l4.535-2.126v-2.123l-6.8 4.25-6.803-4.25zm24.935 31.87l-3.402-5.313 3.402-5.313-3.402-5.313 3.402-5.312h-1.7l-1.702 3.542-1.7-1.772h-1.7v1.772l1.7 1.77-1.7 1.77v1.772h1.7l1.7-1.77 1.7 3.54-1.7 3.54-1.7-1.77h-1.7v1.77l1.7 1.77-1.7 1.77v1.773h1.7l1.7-1.77 1.7 3.54-1.7 3.543-1.7-1.77h-1.7v1.77l1.7 1.77-1.7 1.77v1.773h1.7l1.7-1.77 1.7 3.54h1.7l-3.4-5.312 3.4-5.315z" fill="#004e00"/><path d="M-100.98 177.17l-7.087 7.086v26.575l7.087 7.09h31.89l7.086-7.087V184.26l-7.087-7.087h-31.89zm-1.772-5.316l-17.717 17.716v15.945l17.72 17.717h35.433l17.717-17.717V189.57l-17.717-17.716h-35.432z" transform="matrix(1.2798 0 0 1.1995 238.66 -5.632)" stroke="#000" stroke-width=".427" fill="#004e00"/><path d="M-93.898 147.05l3.543 5.315 3.544-5.315h-7.09z" transform="matrix(1.0238 0 0 .7997 215.078 140.295)" stroke="#000" stroke-width=".267" fill="#e69900"/><path d="M-93.898 147.05l3.543 5.315 3.544-5.315h-7.09z" transform="matrix(1.0238 0 0 -.7997 215.078 322.344)" stroke="#000" stroke-width=".267" fill="#e69900"/><path d="M-93.898 147.05l3.543 5.315 3.544-5.315h-7.09z" transform="matrix(1.0238 0 0 -.7997 229.59 322.344)" stroke="#000" stroke-width=".267" fill="#e69900"/><path d="M-93.898 147.05l3.543 5.315 3.544-5.315h-7.09z" transform="matrix(1.0238 0 0 .7997 229.59 140.295)" stroke="#000" stroke-width=".267" fill="#e69900"/><path d="M-93.898 147.05l3.543 5.315 3.544-5.315h-7.09z" transform="matrix(1.0238 0 0 -.7997 207.823 322.344)" stroke="#000" stroke-width=".267" fill="#980000"/><path d="M-93.898 147.05l3.543 5.315 3.544-5.315h-7.09z" transform="matrix(1.0238 0 0 -.7997 222.334 322.344)" stroke="#000" stroke-width=".267" fill="#980000"/><path d="M-93.898 147.05l3.543 5.315 3.544-5.315h-7.09z" transform="matrix(1.0238 0 0 -.7997 236.845 322.344)" stroke="#000" stroke-width=".267" fill="#980000"/><path d="M-104.53 180.71l3.544-3.544h-3.544v3.544z" transform="matrix(1.9196 0 0 -1.799 303.262 576.628)" stroke="#000" stroke-width=".267" fill="#980000"/><path d="M98.084 236.626l3.402-5.313L98.084 226l3.402-5.313-3.402-5.312h1.7l1.702 3.542 1.7-1.772h1.7v1.772l-1.7 1.77 1.7 1.77v1.772h-1.7l-1.7-1.77-1.7 3.54 1.7 3.54 1.7-1.77h1.7v1.77l-1.7 1.77 1.7 1.77v1.773h-1.7l-1.7-1.77-1.7 3.54 1.7 3.543 1.7-1.77h1.7v1.77l-1.7 1.77 1.7 1.77v1.773h-1.7l-1.7-1.77-1.702 3.54h-1.7l3.4-5.312-3.4-5.315z" fill="#004e00"/><path d="M-76.18 154.13h7.086l1.77 1.772-1.77 1.77h-7.087v-3.542z" transform="matrix(1.2798 0 0 1.0796 261.333 59.18)" stroke="#000" stroke-width=".267" fill="#980000"/><path d="M-99.213 180.71l-3.543 3.544v26.575l3.543 3.54h-5.316l.004-33.66h5.315z" transform="matrix(1.2798 0 0 1.1995 229.59 -5.632)" stroke="#000" stroke-width=".4" fill="#980000"/><path d="M-93.898 147.05l3.543 5.315 3.544-5.315h-7.09z" transform="matrix(1.0238 0 0 .7997 207.823 140.295)" stroke="#000" stroke-width=".267" fill="#980000"/><path d="M-93.898 147.05l3.543 5.315 3.544-5.315h-7.09z" transform="matrix(1.0238 0 0 .7997 222.334 140.295)" stroke="#000" stroke-width=".267" fill="#980000"/><path d="M-93.898 147.05l3.543 5.315 3.544-5.315h-7.09z" transform="matrix(1.0238 0 0 .7997 236.845 140.295)" stroke="#000" stroke-width=".267" fill="#980000"/><path d="M-99.212 180.71l-3.544 3.544v26.575l3.544 3.54h-5.315v-33.66h5.315z" transform="matrix(-1.2798 0 0 1.1995 30.065 -5.632)" stroke="#000" stroke-width=".4" fill="#980000"/><path d="M-104.53 180.71l3.544-3.544h-3.544v3.544z" transform="matrix(-1.9196 0 0 -1.799 -43.617 576.628)" stroke="#000" stroke-width=".267" fill="#980000"/><path d="M-104.53 180.71l3.544-3.544h-3.544v3.544z" transform="matrix(-1.9196 0 0 1.799 -43.617 -113.993)" stroke="#000" stroke-width=".267" fill="#980000"/><path d="M-104.53 180.71l3.544-3.544h-3.544v3.544z" transform="matrix(1.9196 0 0 1.799 303.262 -113.993)" stroke="#000" stroke-width=".267" fill="#980000"/><path d="M-100.98 177.17l-7.087 7.086v26.575l7.087 7.09h31.89l7.086-7.087V184.26l-7.087-7.087h-31.89zm0-1.773l-8.86 8.858v26.575l8.86 8.858h31.89l8.857-8.858v-26.575l-8.86-8.858h-31.888z" transform="matrix(1.2798 0 0 1.1995 238.66 -5.632)" stroke="#000" stroke-width=".427" fill="#004e00"/><path d="M-76.18 154.13h7.086l1.77 1.772-1.77 1.77h-7.087v-3.542z" transform="matrix(1.2798 0 0 1.0796 261.332 62.992)" stroke="#000" stroke-width=".267" fill="#e69900"/><path d="M-76.18 154.13h7.086l1.77 1.772-1.77 1.77h-7.087v-3.542z" transform="matrix(1.2798 0 0 1.0796 261.333 66.83)" stroke="#000" stroke-width=".267" fill="#980000"/><path d="M-76.18 154.13h7.086l1.77 1.772-1.77 1.77h-7.087v-3.542z" transform="matrix(1.2798 0 0 1.0796 261.333 70.642)" stroke="#000" stroke-width=".267" fill="#e69900"/><path d="M-76.18 154.13h7.086l1.77 1.772-1.77 1.77h-7.087v-3.542z" transform="matrix(1.2798 0 0 1.0796 261.333 55.34)" stroke="#000" stroke-width=".267" fill="#e69900"/><path d="M-76.18 154.13h7.086l1.77 1.772-1.77 1.77h-7.087v-3.542z" transform="matrix(-1.2798 0 0 1.0796 -1.682 59.18)" stroke="#000" stroke-width=".267" fill="#980000"/><path d="M-76.18 154.13h7.086l1.77 1.772-1.77 1.77h-7.087v-3.542z" transform="matrix(-1.2798 0 0 1.0796 -1.682 62.993)" stroke="#000" stroke-width=".267" fill="#e69900"/><path d="M-76.18 154.13h7.086l1.77 1.772-1.77 1.77h-7.087v-3.542z" transform="matrix(-1.2798 0 0 1.0796 -1.682 66.83)" stroke="#000" stroke-width=".267" fill="#980000"/><path d="M-76.18 154.13h7.086l1.77 1.772-1.77 1.77h-7.087v-3.542z" transform="matrix(-1.2798 0 0 1.0796 -1.682 70.643)" stroke="#000" stroke-width=".267" fill="#e69900"/><path d="M-76.18 154.13h7.086l1.77 1.772-1.77 1.77h-7.087v-3.542z" transform="matrix(-1.2798 0 0 1.0796 -1.682 55.343)" stroke="#000" stroke-width=".267" fill="#e69900"/><path d="M-100.98 178.94v37.205h8.858v8.858h56.693v-8.858h8.86V178.94h-8.86v-8.858h-56.69v8.858h-8.857zm1.77 1.772v33.66h8.86v8.86h53.15v-8.86h8.858v-33.66H-37.2v-8.86h-53.15v8.86h-8.86z" transform="matrix(1.2798 0 0 1.1995 211.45 -5.633)" stroke="#000" stroke-width=".267" fill="#970000"/><path d="M-28.347 69.094l-5.315-7.087v-5.315l-5.315-5.314h-10.63l-8.858-5.315H-86.81l-8.86 5.315h-10.63l-5.315 5.315v5.315l-5.315 7.086v14.173l5.315 7.087v5.315l5.315 5.312h10.63l8.86 5.315h28.345l8.858-5.317h10.63l5.315-5.313V90.35l5.315-7.086v-14.17z" transform="matrix(1.2798 0 0 1.1535 222.785 -36.677)" stroke="#000" stroke-width=".267" fill="#980000"/><path d="M75.427 51.2v6.13l6.802 8.173v6.13l6.8 6.13h13.603l11.337 6.132h15.873L129.84 51.2H75.428z" fill="#e69900"/><path d="M110.69 65.498l-8.28 5.255h-4.95l1.65 1.75-3.298 3.505 1.648 1.75 4.947-1.75 1.648 1.75.762-4.68 9.13-5.54-3.26-2.04z" fill="#980000"/><path d="M101.625 61.41l-8.28 5.256h-4.948l1.65 1.75-3.298 3.505 1.645 1.755 4.947-1.752 1.65 1.753.76-4.68 9.133-5.54-3.262-2.04zm-4.538-8.17l-8.282 5.256H83.86l1.65 1.75-3.3 3.505 1.65 1.755 4.946-1.752 1.65 1.753.76-4.68 9.133-5.54-3.26-2.04z" fill="#980000"/><path d="M184.224 51.2v-6.132l-6.802-8.174v-6.13l-6.802-6.13h-13.604l-11.337-6.13h-15.875l.002 32.695h54.414z" fill="#e69900"/><path d="M129.83 83.894h-4.198l-4.87-4.087h-7.726l-4.2-2.044 2.1-2.043 4.2 2.043h4.198l4.198-6.13 6.298 2.043v4.087h-6.298l6.298 6.13z" fill="#980000"/><path d="M75.427 51.2v-6.132l6.802-8.174v-6.13l6.8-6.13h13.603l11.337-6.13h15.873L129.84 51.2H75.428z" fill="#fff"/><path d="M129.83 18.5h-4.198l-4.87 4.086h-7.726l-4.2 2.043 2.1 2.04 4.2-2.043h4.198l4.198 6.13 6.298-2.044V24.63h-6.298l6.298-6.13z" fill="#980000"/><path d="M129.826 18.5h4.2l4.87 4.086h7.725l4.2 2.043-2.1 2.04-4.2-2.043h-4.195l-4.2 6.13-6.297-2.044V24.63h6.298l-6.298-6.13z" fill="#980000"/><path d="M184.224 51.2v6.13l-6.802 8.173v6.13l-6.802 6.13h-13.604l-11.337 6.132h-15.875l.002-32.696h54.414z" fill="#fff"/><path d="M129.826 83.894h4.2l4.87-4.087h7.725l4.2-2.044-2.1-2.043-4.2 2.043h-4.195l-4.2-6.13-6.297 2.043v4.087h6.298l-6.298 6.13zm-28.2-42.916l-8.282-5.255h-4.947l1.65-1.75-3.298-3.505 1.645-1.752 4.947 1.752 1.65-1.752.76 4.68 9.133 5.54-3.262 2.04zm47.334-4.083l8.282-5.256h4.947l-1.65-1.75 3.295-3.507-1.648-1.752-4.948 1.753-1.65-1.752-.76 4.68-9.133 5.54 3.26 2.043z" fill="#980000"/><path d="M110.69 36.895l-8.28-5.256h-4.95l1.65-1.75-3.298-3.507 1.648-1.752 4.947 1.753 1.648-1.752.762 4.68 9.13 5.54-3.26 2.043zm-13.603 12.26L88.805 43.9H83.86l1.65-1.75-3.3-3.503 1.65-1.752 4.946 1.752 1.65-1.752.76 4.68 9.133 5.54-3.26 2.042z" fill="#980000"/><path d="M79.453 51.21h2.1l2.1 2.042 2.1-2.043 44.085-.005V79.82h-2.1l2.1 2.044v2.043l-6.297-6.13v-2.044h2.1v2.044h2.1v-2.044l-17.045-9.026h-14.36V57.85l-6.382-4.597h-4.198l-2.1 2.043 2.1 2.045h-2.1l-4.2-6.13z" fill="#fff"/><path d="M79.453 51.188h2.1l2.1-2.043 2.1 2.043 44.085.002V22.578h-2.1l2.1-2.044V18.49l-6.297 6.13v2.044h2.1V24.62h2.1v2.044l-17.045 9.026h-14.36v8.857l-6.382 4.597h-4.198l-2.1-2.043 2.1-2.04h-2.1l-4.2 6.13z" fill="#e69900"/><path d="M89.025 51.187h40.81V75.71L111.7 65.492H98.095v-8.174l-9.07-6.13z" fill="#004e00"/><path d="M158.026 40.978l8.28-5.255h4.948l-1.65-1.75 3.298-3.505-1.648-1.752-4.947 1.752-1.65-1.752-.76 4.68-9.133 5.54 3.262 2.04zm4.538 8.178l8.282-5.255h4.946l-1.65-1.75 3.3-3.502-1.65-1.752-4.946 1.752-1.65-1.752-.76 4.68-9.133 5.54 3.26 2.042z" fill="#980000"/><path d="M180.198 51.188h-2.1l-2.1-2.043-2.1 2.043-44.085.002V22.578h2.1l-2.1-2.044V18.49l6.297 6.13v2.044h-2.1V24.62h-2.1v2.044l17.048 9.026h14.36v8.857l6.382 4.597h4.2L176 47.1l-2.1-2.043h2.1l4.198 6.13z" fill="#fff"/><path d="M170.626 51.21h-40.81V26.687l18.137 10.218h13.603v8.174l9.07 6.13z" fill="#004e00"/><path d="M148.96 65.498l8.282 5.255h4.947l-1.65 1.75 3.295 3.505-1.648 1.75-4.948-1.75-1.65 1.75-.76-4.68-9.133-5.54 3.26-2.04z" fill="#980000"/><path d="M158.026 61.41l8.28 5.256h4.948l-1.65 1.75 3.298 3.505-1.648 1.755-4.947-1.752-1.65 1.753-.76-4.68-9.133-5.54 3.262-2.04zm4.538-8.17l8.282 5.256h4.946l-1.65 1.75 3.3 3.505-1.65 1.755-4.946-1.752-1.65 1.753-.76-4.68-9.133-5.54 3.26-2.04z" fill="#980000"/><path d="M180.198 51.21h-2.1l-2.1 2.042-2.1-2.043-44.085-.005V79.82h2.1l-2.1 2.044v2.043l6.297-6.13v-2.044h-2.1v2.044h-2.1v-2.044l17.048-9.026h14.36V57.85l6.382-4.597h4.2l2.1 2.043-2.1 2.045h2.1l4.198-6.13z" fill="#e69900"/><path d="M170.626 51.187h-40.81V75.71l18.137-10.218h13.603v-8.174l9.07-6.13z" fill="#980000"/><path d="M89.025 51.21h40.81V26.687L111.7 36.905H98.095v8.174l-9.07 6.13z" fill="#980000"/><path d="M134.305 51.198l11.388-6.13h6.802l-2.268-2.044 4.535-4.088-2.267-2.043-6.802 2.043-2.268-2.043-1.047 5.46-12.557 6.464 4.487 2.38zm-8.96-.01l-11.387 6.13h-6.802l2.268 2.044-4.535 4.087 2.264 2.04 6.802-2.043 2.268 2.043 1.047-5.46 12.558-6.464-4.485-2.38z" fill="#980000"/><path d="M125.346 51.198l-11.388-6.13h-6.802l2.268-2.044-4.535-4.088 2.264-2.043 6.802 2.043 2.268-2.043 1.047 5.46 12.558 6.464-4.485 2.38zm8.96-.01l11.387 6.13h6.802l-2.268 2.044 4.535 4.087-2.267 2.04-6.802-2.043-2.268 2.043-1.047-5.46-12.557-6.464 4.487-2.38z" fill="#004e00"/><path d="M116.223 51.2l13.603-10.22L143.43 51.2l-13.604 10.218L116.223 51.2z" fill="#fff"/><path d="M85.742 55.282l2.1 2.043-2.1 2.044h-2.1l-6.298-8.177h2.1l4.198 6.13h2.1l-2.1-2.043 2.1-2.043h4.198v2.044h-4.198z" fill="#980000"/><path d="M85.742 47.11l2.1-2.044-2.1-2.044h-2.1l-6.298 8.174h2.1l4.198-6.13h2.1l-2.1 2.043 2.1 2.04h4.198v-2.04h-4.198zm88.17 8.172l-2.1 2.043 2.1 2.044h2.1l6.298-8.177h-2.1l-4.198 6.13h-2.1l2.1-2.043-2.1-2.043h-4.198v2.044h4.2z" fill="#980000"/><path d="M173.913 47.11l-2.1-2.044 2.1-2.044h2.1l6.297 8.174h-2.1l-4.198-6.13h-2.1l2.1 2.043-2.1 2.04h-4.198v-2.04h4.2zm-46.186-4.088h4.198V59.37h-4.198z" fill="#980000"/><path fill="#980000" d="M121.43 47.11h16.793v8.174H121.43z"/><path d="M333.07 170.08l-10.63 5.315v8.858l10.63 5.315h10.63l10.63-5.315v-8.858l-10.63-5.315h-10.63z" transform="matrix(3.555 0 0 3.847 -1073.157 -292.234)" stroke="#000" stroke-width=".07" fill="#004e00"/><path d="M87.17 396.27h2.284v-4.19h4.572v4.19h2.285v-9.777H94.03v4.19h-4.572v-4.19H87.17v9.778zm57.9 32.595h2.285v-4.19h4.572v4.19h2.285v-9.78h-2.285v4.192h-4.572v-4.19h-2.285v9.778zm-36.568-48.89h2.285v-4.19h4.573v4.19h2.285v-9.78h-2.285v4.19h-4.573v-4.19h-2.285v9.78zm33.523 0h2.285v-4.19h4.573v4.19h2.285v-9.78h-2.285v4.19h-4.573v-4.19h-2.285v9.78zm21.323 16.296h2.285v-4.19h4.573v4.19h2.285v-9.775h-2.282v4.19h-4.573v-4.19h-2.285v9.778zm0 16.3h2.285v-4.19h4.573v4.19h2.285v-9.78h-2.282v4.19h-4.573v-4.19h-2.285v9.78z" fill="#c00"/><path d="M129.827 435.39v-35.856h54.856v16.298l-36.57 19.557h-18.286zm0-71.717v35.856H74.973v-16.3l36.57-19.56h18.286z" fill="#e69900"/><path d="M129.827 363.673v35.856h54.856v-16.3l-36.57-19.56h-18.286zm0 71.716v-35.857H74.972v16.297l36.57 19.558h18.286z" fill="#fff"/><path d="M-177.16 368.5h21.26l-21.26-10.63v10.63zm24.803-1.772v17.717h-33.662v-14.173h-7.083l-8.858-5.315v-12.402l5.313-5.315h-7.085v17.717h-1.772v-19.49h17.717l35.433 21.26z" transform="matrix(1.032 0 0 .92 341.934 45.873)" stroke="#000" stroke-width=".133" fill="#e69900"/><path d="M111.51 388.116v22.814h5.484l12.802 6.52 12.8-6.52h5.485v-22.814h-5.48l-12.8-6.52-12.803 6.52h-5.484z" fill="#980000"/><path d="M-177.16 368.5h21.26l-21.26-10.63v10.63zm24.803-1.772v17.717h-33.662v-14.173h-7.083l-8.858-5.315v-12.402l5.313-5.315h-7.085v17.717h-1.772v-19.49h17.717l35.433 21.26z" transform="matrix(-1.032 0 0 -.92 -82.28 753.19)" stroke="#000" stroke-width=".133" fill="#e69900"/><path d="M-177.16 368.5h21.26l-21.26-10.63v10.63zm24.803-1.772v17.717h-33.662v-14.173h-7.083l-8.858-5.315v-12.402l5.313-5.315h-7.085v17.717h-1.772v-19.49h17.717l35.433 21.26z" transform="matrix(-1.032 0 0 .92 -82.28 45.873)" stroke="#000" stroke-width=".133" fill="#fff"/><path d="M-177.16 368.5h21.26l-21.26-10.63v10.63zm24.803-1.772v17.717h-33.662v-14.173h-7.083l-8.858-5.315v-12.402l5.313-5.315h-7.085v17.717h-1.772v-19.49h17.717l35.433 21.26z" transform="matrix(1.032 0 0 -.92 341.935 753.19)" stroke="#000" stroke-width=".133" fill="#fff"/><path d="M85.95 412.578h2.286v-4.89h4.573v4.89h2.282V401.17H92.81v4.89h-4.574v-4.89H85.95v11.408zm21.933 16.297h2.285v-4.89h4.573v4.89h2.288v-11.41h-2.285v4.89h-4.572v-4.89h-2.284v11.41zM85.95 386.497h2.286v4.89h4.573v-4.89h2.282v11.408H92.81v-4.89h-4.574v4.89H85.95v-11.408zm21.933-16.3h2.285v4.89h4.573v-4.89h2.288v11.41h-2.285v-4.89h-4.572v4.89h-2.284v-11.41zm34.75 58.678h2.286v-4.89h4.57v4.89h2.285v-11.41h-2.285v4.89h-4.572v-4.89h-2.286v11.41zm21.943-30.973h2.285v-4.89h4.576v4.89h2.285v-11.41h-2.285v4.89h-4.573v-4.89h-2.283v11.41z" fill="#980000"/><path d="M142.634 428.875h2.285v-4.89h4.57v4.89h2.285v-11.41h-2.285v4.89h-4.572v-4.89h-2.286v11.41z" fill="#980000"/><path d="M142.634 428.875h2.285v-4.89h4.57v4.89h2.285v-11.41h-2.285v4.89h-4.572v-4.89h-2.286v11.41zm21.942-16.307h2.285v-4.89h4.576v4.89h2.285v-11.41h-2.285v4.89h-4.573v-4.89h-2.283v11.41zm-21.942-30.963h2.285v-4.89h4.57v4.89h2.285v-11.41h-2.285v4.89h-4.572v-4.89h-2.286v11.41z" fill="#980000"/><path d="M131.658 399.532l7.314-5.944h3.657v2.97h-3.66v1.487h5.485v-5.942h-5.485v-4.457h-7.313v4.456h1.83v-2.972h3.655v2.972l-7.313 5.943-7.317-5.942v-2.97h3.657v2.97H128v-4.457h-7.314v4.457H115.2v5.944h5.486v-1.486h-3.658v-2.97h3.658l7.314 5.94-7.314 5.945h-3.657v-2.97h3.654v-1.487H115.2v5.943h5.486v4.456l7.314.002v-4.458h-1.828v2.97h-3.657v-2.97l7.313-5.944 7.315 5.944v2.97h-3.656v-2.97h-1.83v4.457h7.314v-4.456h5.49v-5.94h-5.487v1.485h3.66v2.972h-3.66l-7.313-5.943z" fill="#004e00"/><g transform="matrix(1.032 0 0 .958 204.8 18.155)"><path d="M-122.352 134.285l3.43-3.73h20.573l15.43-16.784h20.577l15.43 16.787h20.575l3.43 3.73-3.43 3.73H-46.91L-62.34 154.8h-20.58l-15.43-16.785h-20.574l-3.43-3.73z" fill="#980000"/><path d="M372.05 391.54l1.903-1.95h22.834l17.126-19.488h19.03l17.125 19.49h22.835l1.903 1.948-1.903 1.948h-22.835l-15.223 17.54H412.01l-15.223-17.54h-22.834l-1.903-1.948z" transform="matrix(.93 0 0 .9 -466.86 -221.29)" stroke="#000" stroke-width=".29" fill="#980000"/><path d="M-64.07 136.148l6.857 7.458-3.428 3.73-1.718-1.865h-1.714v1.868l1.713 1.865h3.43l3.43-3.73v-3.73l-6.857-7.457 6.857-7.46v-3.73l-3.43-3.73h-3.426l-1.715 1.865v1.866h1.713l1.714-1.865 3.427 3.73-6.857 7.46-6.86-7.46 6.86-7.46v-1.862h-1.715l-6.857 7.458-6.86-7.46h-1.714v1.865l6.86 7.46-6.86 7.46-6.857-7.46 3.43-3.73 1.714 1.866h1.714v-1.865l-1.713-1.863h-3.43l-3.43 3.73v3.73l6.86 7.46-6.86 7.46v3.728l3.43 3.73h3.43l1.714-1.865v-1.866h-1.713l-1.715 1.865-3.43-3.73 6.86-7.46 6.857 7.46-6.86 7.46v1.862h1.715l6.86-7.46 6.857 7.46h1.714v-1.864l-6.86-7.46 6.86-7.46zm-8.573-9.325l-6.86 7.46 6.86 7.46 6.858-7.46-6.858-7.46zm-10.274 27.967v14.918l1.715-1.865 1.715 1.865 1.714-1.865 1.714 1.865 1.718-1.865 1.714 1.865 1.716-1.865 1.715 1.865 1.715-1.865 1.715 1.865 1.712-1.865 1.715 1.865V154.79h-20.574zm20.564-41V98.872l-1.715 1.865-1.715-1.865-1.714 1.865-1.714-1.865-1.718 1.865-1.714-1.865-1.716 1.865-1.715-1.865-1.715 1.865-1.715-1.865-1.712 1.865-1.715-1.865v14.918h20.574zm29.148 16.79v-14.918l-1.715 1.865-1.713-1.865-1.715 1.865-1.715-1.865-1.714 1.865-1.715-1.865-1.714 1.865-1.714-1.865v14.918h13.715zm-65.15 0v-14.918l-1.715 1.865-1.713-1.865-1.715 1.865-1.715-1.865-1.714 1.865-1.715-1.865-1.714 1.865-1.714-1.865v14.918h13.715zm65.15 7.43v14.918l-1.715-1.865-1.713 1.865-1.715-1.865-1.715 1.865-1.714-1.865-1.715 1.865-1.714-1.865-1.714 1.865V138.01h13.715zm-65.15 0v14.918l-1.715-1.865-1.713 1.865-1.715-1.865-1.715 1.865-1.714-1.865-1.715 1.865-1.714-1.865-1.714 1.865V138.01h13.715z" fill="#e69900"/><path d="M-62.347 154.79v9.324l1.714-1.866 1.715 1.866 1.714-1.866 1.714 1.866 1.715-1.866 1.714 1.866 1.712-1.866 1.714 1.866 1.715-1.866v-24.242l-15.43 16.784zm-20.586 0v9.325l-1.715-1.866-1.715 1.863-1.714-1.866-1.714 1.865-1.718-1.866-1.714 1.865-1.716-1.865-1.714 1.865-1.714-1.865V138l15.43 16.785zm0-41v-9.324l-1.714 1.866-1.715-1.866-1.714 1.866-1.714-1.866-1.715 1.866-1.714-1.866-1.712 1.866-1.714-1.866-1.715 1.866v24.242l15.43-16.784zm20.586 0v-9.324l1.714 1.866 1.715-1.866 1.714 1.866 1.714-1.866 1.715 1.866 1.714-1.866 1.712 1.866 1.714-1.866 1.715 1.866v24.242l-15.43-16.784zm-49.73 35.416l-1.716-1.865-1.713 1.868-1.714-1.865-1.715 1.866-1.715-1.866-1.715 1.866-1.713-1.866-1.715 1.866v-29.838l1.714 1.866 1.717-1.866 1.715 1.866 1.715-1.866 1.715 1.866 1.713-1.866 1.714 1.866 1.714-1.866v11.19h-6.857l-3.43 3.73 3.43 3.73h6.857v11.188zm78.875 0l1.715-1.865 1.713 1.868 1.714-1.865 1.715 1.866 1.715-1.866 1.715 1.866 1.713-1.866 1.715 1.866v-29.838l-1.714 1.866-1.717-1.866-1.715 1.866-1.715-1.866-1.715 1.866-1.713-1.866-1.714 1.866-1.714-1.866v11.19h6.857l3.43 3.73-3.43 3.73h-6.857v11.188z" fill="#004e00"/><path d="M-91.36 155.978s-1.428 1.474-1.428 2.21c-.028.687 1.524 2.227 2.143 2.21.81.017 2.143-1.473 2.143-2.21 0-.736-1.43-2.21-1.43-2.21v-2.948s3.104 5.068 3.104 2.857c0-1.586-3.103-4.33-3.103-4.33h-1.43s-3.105 3.213-3.105 4.33c0 2.21 3.103-2.857 3.103-2.857v2.948z" fill="#fff"/><path d="M-73.497 161.67s-1.715 2.062-1.715 3.094c-.034.962 1.83 3.118 2.572 3.095.97.02 2.572-2.066 2.572-3.098s-1.715-3.095-1.715-3.095v-4.128s3.037 6.75 3.037 3.655c0-2-3.037-5.72-3.037-5.72h-1.714s-3.506 4.656-3.037 5.72c0 3.095 3.037-3.656 3.037-3.656v4.126z" fill="#980000"/><ellipse fill="#004e00" transform="matrix(.97 0 0 1.05 -482.4 -277.85)" cx="403.94" rx="3.543" cy="391.54" ry="1.772"/><ellipse fill="#004e00" transform="matrix(.97 0 0 1.05 -463.54 -277.85)" cx="403.94" rx="3.543" cy="391.54" ry="1.772"/><ellipse fill="#004e00" transform="matrix(.97 0 0 1.05 -444.69 -277.85)" cx="403.94" rx="3.543" cy="391.54" ry="1.772"/><path d="M-91.72 112.76s-1.428-1.474-1.428-2.21c-.028-.688 1.524-2.228 2.143-2.21.81-.018 2.143 1.472 2.143 2.21 0 .736-1.43 2.21-1.43 2.21v2.948s3.104-5.068 3.104-2.857c0 1.59-3.103 4.33-3.103 4.33h-1.43s-3.105-3.21-3.105-4.33c0-2.21 3.103 2.86 3.103 2.86v-2.95z" fill="#fff"/><path d="M-73.857 107.062s-1.715-2.063-1.715-3.095c-.034-.962 1.83-3.118 2.572-3.095.97-.023 2.572 2.063 2.572 3.095s-1.715 3.095-1.715 3.095v4.127s3.037-6.754 3.037-3.66c0 2-3.037 5.72-3.037 5.72h-1.714s-3.506-4.655-3.037-5.72c0-3.094 3.037 3.657 3.037 3.657v-4.128z" fill="#980000"/><path d="M-54.86 155.978s-1.428 1.474-1.428 2.21c-.028.687 1.524 2.227 2.143 2.21.81.017 2.143-1.473 2.143-2.21 0-.736-1.43-2.21-1.43-2.21v-2.948s3.104 5.068 3.104 2.857c0-1.586-3.103-4.33-3.103-4.33h-1.43s-3.105 3.213-3.105 4.33c0 2.21 3.103-2.857 3.103-2.857v2.948zm-.36-43.218s-1.428-1.474-1.428-2.21c-.028-.688 1.524-2.228 2.143-2.21.81-.018 2.143 1.472 2.143 2.21 0 .736-1.43 2.21-1.43 2.21v2.948s3.104-5.068 3.104-2.857c0 1.59-3.103 4.33-3.103 4.33h-1.43s-3.105-3.21-3.105-4.33c0-2.21 3.103 2.86 3.103 2.86v-2.95z" fill="#fff"/><path d="M-106.273 145.593s-1.9 1.383-1.9 2.074c-.037.644 2.026 2.09 2.85 2.074 1.076.018 2.85-1.38 2.85-2.07s-1.9-2.075-1.9-2.075v-2.765s3.364 4.522 3.364 2.45c0-1.343-3.362-3.834-3.362-3.834h-1.9s-3.882 3.12-3.363 3.832c0 2.074 3.364-2.45 3.364-2.45v2.766zm-.4-21.122s-1.9-1.38-1.9-2.07c-.037-.645 2.026-2.09 2.85-2.075 1.076-.015 2.85 1.383 2.85 2.074 0 .69-1.9 2.073-1.9 2.073v2.766s3.364-4.525 3.364-2.45c0 1.34-3.362 3.832-3.362 3.832h-1.9s-3.882-3.12-3.363-3.832c0-2.074 3.364 2.45 3.364 2.45v-2.766zm66.25 20.68s-1.9 1.386-1.9 2.077c-.037.644 2.026 2.09 2.85 2.074 1.076.015 2.85-1.383 2.85-2.074 0-.69-1.9-2.074-1.9-2.074v-2.763s3.364 4.522 3.364 2.45c0-1.343-3.362-3.834-3.362-3.834h-1.9s-3.882 3.12-3.363 3.832c0 2.074 3.364-2.45 3.364-2.45v2.766zm-.4-21.12s-1.9-1.38-1.9-2.07c-.037-.645 2.026-2.09 2.85-2.075 1.076-.015 2.85 1.383 2.85 2.074 0 .69-1.9 2.073-1.9 2.073v2.766s3.364-4.525 3.364-2.45c0 1.34-3.362 3.832-3.362 3.832h-1.9s-3.882-3.12-3.363-3.832c0-2.074 3.364 2.45 3.364 2.45v-2.766z" fill="#980000"/><path d="M-120.285 145.363c-.615-1.277-.453-1.86-.453-2.597-.028-.687 1.716-2.025 2.336-2.01.81-.015 2.143 1.475 2.143 2.21 0 .738.037 1.375-.295 2.645l-.893-2.15c-1.083 3.055-1.142 3.126-1.786-.075l-1.048 1.98zm.06-21.433c-.615 1.278-.453 1.862-.453 2.598-.028.687 1.716 2.025 2.336 2.01.81.015 2.143-1.475 2.143-2.21 0-.738.037-1.375-.295-2.645l-.893 2.154c-1.083-3.056-1.142-3.127-1.786.074l-1.048-1.98zm92.42 21.163c-.615-1.277-.453-1.86-.453-2.597-.028-.687 1.716-2.025 2.336-2.01.81-.015 2.143 1.475 2.143 2.21 0 .738.037 1.375-.295 2.645l-.893-2.15c-1.083 3.055-1.142 3.126-1.786-.075l-1.048 1.98zm.05-21.438c-.615 1.277-.453 1.86-.453 2.597-.028.687 1.716 2.025 2.336 2.01.81.015 2.143-1.475 2.143-2.21 0-.738.037-1.375-.295-2.645l-.893 2.154c-1.083-3.053-1.142-3.124-1.786.077l-1.048-1.98z" fill="#fff"/><path d="M-83.27 170.075v-5.315h-15.944v-10.63h-14.173v-3.543h-12.403v-31.89h12.403v-3.543h14.173v-10.63h15.944v-5.316h21.26v5.315h15.945v10.63h14.173v3.542h12.402v31.89h-12.402v3.543h-14.173v10.63H-62.01v5.315h-21.26zm-1.772 1.772v-5.315h-15.944v-10.63h-14.174v-3.543h-12.4v-35.436h12.4v-3.543h14.174v-10.63h15.945v-5.314h24.8v5.315h15.945v10.63h14.173v3.545h12.4v35.434h-12.4v3.542h-14.173v10.63H-60.24v5.315h-24.804z" stroke="#000" stroke-width=".133" fill="#980000"/></g></g></svg>