<svg xmlns="http://www.w3.org/2000/svg" viewBox="0 0 640 480"><defs><clipPath id="a"><path fill-opacity=".67" d="M0 0h640v480H0z"/></clipPath></defs><g clip-path="url(#a)"><g fill-rule="evenodd" transform="matrix(.64508 0 0 .9206 0 23.33)" stroke-width="1pt" fill="#009fca"><path d="M505.97-19.81h486.16v515.87H505.97z"/><rect ry="0" height="521.41" width="523.49" y="-25.343"/></g><path fill-rule="evenodd" fill="#fff" d="M.017 0h395.857v196.597H.017z"/><path d="M.016 0L0 14.757l94.465 48.54 35.543 1.028L.018 0z" fill="#c00"/><path d="M40.463 0l114.523 59.822V0H40.463z" fill="#006"/><path fill="#c00" d="M170.26 0v76.368H.018v43.64H170.26v76.366h52.385v-76.367H392.89v-43.64H222.646V.002H170.26z"/><path d="M237.92 0v56.368L349.968.438 237.92 0z" fill="#006"/><path d="M241.462 62.513l31.514-.253L395.394.437l-32.49.53-121.442 61.546z" fill="#c00"/><path d="M.016 132.736v41.82l78.576-41.39-78.576-.435z" fill="#006"/><path d="M302.588 134.462l-32.755-.255 123.474 61.477-.813-14.065-89.904-47.16zm-271.884 62.25l115.774-60.777-30.407.2L.02 196.63" fill="#c00"/><path d="M394.55 17.27l-93.502 46.37 92.257.344v69.093H314.73l77.848 42.18 1.143 21.46-41.58-.498-113.8-55.87v56.364H155.4V140.35L48.65 196.565l-48.213.152v196.37h785.75V.347l-390.82-.34M.417 22.17L.002 62.955l82.722 1.037L.417 22.17z" fill="#006"/><g fill-rule="evenodd" transform="matrix(.7924 0 0 .79977 .006 0)" fill="#009fca"><path d="M496.06 0h496.06v496.06H496.06z"/><rect rx="0" ry="0" height="251.45" width="525.79" y="244.61" x="-2.303"/></g><path d="M593.34 122.692l27.572-.018-22.32 15.232 8.54 24.674-22.293-15.27-22.296 15.266 8.544-24.67-22.317-15.24 27.57.026 8.5-24.684zm-69.2 196.78l27.57-.02-22.32 15.234 8.54 24.673-22.292-15.27-22.293 15.264 8.544-24.67-22.32-15.24 27.57.026 8.5-24.684zm69.2-44.545l27.572-.018-22.32 15.23 8.54 24.672-22.293-15.27-22.296 15.267 8.544-24.67-22.317-15.24 27.57.026 8.5-24.684zm-297.552 142.72l27.572-.02-22.32 15.233 8.54 24.673-22.293-15.27-22.293 15.267 8.544-24.67-22.317-15.24 27.575.026 8.498-24.684zm62.574-76.487l-27.572.018 22.32-15.232-8.54-24.674 22.293 15.27 22.293-15.266-8.544 24.67 22.316 15.24-27.57-.026-8.5 24.684zm81.306-112.444l-27.57.018 22.32-15.233-8.54-24.67 22.292 15.27 22.293-15.266-8.544 24.67 22.313 15.24-27.57-.026-8.5 24.684zm68.336-23.36l-27.572.017 22.32-15.232-8.54-24.67 22.293 15.27 22.293-15.267-8.544 24.67 22.316 15.24-27.57-.025-8.5 24.684zM439.668 399.97l-27.57.018 22.32-15.233-8.54-24.673 22.292 15.27 22.293-15.266-8.544 24.67 22.313 15.24-27.57-.026-8.5 24.684zm-81.306 19.898l-27.572.018 22.32-15.233-8.54-24.673 22.293 15.27 22.293-15.267-8.544 24.67 22.316 15.24-27.57-.026-8.5 24.683z" fill-rule="evenodd" fill="#fff40d"/></g></svg>