<svg xmlns="http://www.w3.org/2000/svg" viewBox="0 0 640 480"><defs><clipPath id="a"><path fill-opacity=".67" d="M0 0h682.67v512H0z"/></clipPath></defs><g fill-rule="evenodd" clip-path="url(#a)" transform="scale(.9375)" stroke-width="1pt"><path fill="#de2110" d="M0 0h768v512H0z"/><path fill="#08399c" d="M0 0h385.69v256H0z"/><path fill="#fff" d="M282.098 178.555l-47.332-9.733 10.083 47.26-36.135-32.088-14.904 45.97-15.243-45.867-35.886 32.367 9.734-47.332-47.26 10.073 32.088-36.123-45.97-14.904 45.856-15.244-32.357-35.89 47.333 9.73-10.073-47.262 36.123 32.093 14.904-45.97 15.243 45.86 35.886-32.36-9.734 47.334 47.26-10.08-32.088 36.13 45.97 14.893-45.856 15.244z"/><path fill="#005387" d="M238.47 174.924l-14.935 7.932-14.57 8.608-16.918-.583-16.92.2-14.36-8.94-14.758-8.276-7.955-14.906-8.63-14.52.573-16.874-.19-16.883 8.966-14.32 8.298-14.715 14.935-7.934 14.57-8.606 16.918.58 16.928-.193 14.362 8.94 14.747 8.276 7.953 14.9 8.632 14.52-.574 16.875.187 16.884-8.965 14.323z"/><path d="M244.637 128.28c0 28.646-23.222 51.867-51.866 51.867s-51.865-23.22-51.865-51.866 23.222-51.864 51.867-51.864 51.867 23.22 51.867 51.866z" fill="#fff"/></g></svg>