<svg xmlns="http://www.w3.org/2000/svg" xmlns:xlink="http://www.w3.org/1999/xlink" viewBox="0 0 640 480" version="1"><path fill="#4b92db" fill-rule="evenodd" d="M0 0h640v480H0z"/><g transform="matrix(.6 0 0 .6 -40.6 0)"><path d="M663.853 587.03c-2.694 3.08-6.18 5.956-9.466 8.608-21.233-21.943-46.16-46.262-69.854-46.262-14.69 0-25.27 11.182-37.613 19.072-17.13 10.95-40.626 17.115-60.76 9.08-10.832-4.113-21.324-10.17-29.166-20.01 15.848 10.93 39.58 12.4 57.472 4.977 19.776-8.205 39.904-19.1 62.44-19.1 33.223 0 64.797 22.474 86.947 43.636zM418.31 518.017c21.997 25.04 57.872 16.983 87.235 23.237 4.087.87 7.926 2.227 12.313 1.554-3.49-2.214-8.118-2.463-12.15-3.982-22.783-8.583-26.335-32.967-38.804-49.748 15.926 10.587 29.12 25.082 44.012 38.703 10.364 9.48 23.277 13.54 36.67 16.265-3.218 1.176-7.428.9-10.894 1.758-24.056 5.97-50.727 15.39-76.324 6.94-16.52-5.45-33.71-18.36-42.057-34.723zm-35.257-57.95c13.72 31.063 48.19 33.496 71.11 52.552 4.36 3.62 8.68 6.96 13.467 9.19l.247-.25c-5.29-4.787-11.012-10.49-15.11-16.44-13.1-19.037-8.74-45.05-18.84-65.23 9.177 10.984 17.784 22.3 23.068 34.88 8.503 20.245 11.392 43.34 30.463 58.725-20.64-6.81-44.452-5.454-63.04-17.628-19.536-12.798-37.643-32.997-41.365-55.803zm-14.697-62.846c1.984 27.37 31.12 41.99 45.014 64.487 2.967 4.805 6.02 9.765 10.33 13.645-.672-2.913-3.07-5.495-4.39-8.354-4.455-9.653-6.472-20.823-5.36-32.31 1.354-13.975 7.18-26.953 4.944-41.655 11.975 25.85 8.112 58.163 15.033 86.11 1.53 6.184 5.296 11.595 7.616 17.45-11.766-8.95-27.185-16.895-40.1-27.075-12.49-9.845-23.332-21.384-28.967-36.4-4.06-10.818-5.117-23.723-4.12-35.894zm.814-50.423c1.405-6.108 2.48-12.43 5.138-18.033-5.03 25.818 12.144 44.467 18.008 66.803 2.21 8.417 2.966 17.36 6.37 25.215.317.17.592-.16.788-.413-8.473-23.77 3.948-45.74 16.05-64.478 3.18-4.926 4.71-10.66 6.196-16.46 1.308 10.76-.982 23.218-2.973 34.32-2.563 14.298-7.45 27.697-11.332 41.49-2.557 8.617-1.883 18.34-.57 27.37l-1.235-.984c-9.01-16.632-26.784-29.625-32.152-47.778-4.29-14.508-7.258-31.27-4.288-47.053zm9.502-27.77c0-19.538 7.607-35.475 19.018-50.025.33-.165.567-.497.994-.42-12.56 19.11-1.128 43.23-2.742 64.9l-1.657 22.246c.246.162.246.83.83.574.742-2.48.967-5.12 1.4-7.68 3.023-17.933 18.77-30.415 32.124-43.075a28.528 28.528 0 0 0 6.96-10.342c-1.11 8.933-3.605 18.09-7.615 26.208-10.28 20.81-30.132 37.61-33.703 61.26-1.73-22.667-15.613-39.516-15.613-63.648zm33.112-65.904c6.316-7.003 13.396-12.46 21.824-14.616-16.366 11.253-15.477 31.366-20.488 48.183-1.832 6.15-4.525 11.91-5.957 18.264l.415.332c2.722-7.185 7.394-14.09 13.48-19.834 11.512-10.86 28.82-17.434 34.515-33.32-.26 22.076-19.08 38.858-36.266 51.84-7.71 5.824-14.26 13.642-18.258 21.838.664-6.1.97-11.175.423-17.13-1.764-19.284-2.91-40.903 10.308-55.556zm66.428-37.116c-12.146 10.658-20.25 24.377-29.582 36.71-7.76 10.256-18.41 16.61-27.567 25.218 4.943-10.255 5.856-22.007 12.134-31.93 10.735-16.966 28.478-23.55 45.015-29.997z" fill="#fff" id="a"/><use height="100%" width="100%" xlink:href="#a" transform="matrix(-1 0 0 1 1202.2 0)"/></g><path d="M409.012 262.008l-2.152-1.175a96.903 96.903 0 0 1-17.836 25.385l-12.575-12.575c6.16-6.35 11.124-13.555 14.783-21.343l-2.142-1.17a76.536 76.536 0 0 1-14.354 20.802l-11.392-11.39a60.04 60.04 0 0 0 11.57-17.155l-2.125-1.16a57.924 57.924 0 0 1-11.15 16.612l-12.59-12.59a39.75 39.75 0 0 0 8.044-12.6l-2.126-1.16a37.622 37.622 0 0 1-7.61 12.06l-11.428-11.423a21.203 21.203 0 0 0 5.41-13.06h16.173a37.283 37.283 0 0 1-2.546 12.422l2.127 1.16a39.822 39.822 0 0 0 2.8-13.584h17.83a57.373 57.373 0 0 1-4.935 22.157l2.125 1.16a59.92 59.92 0 0 0 5.19-23.32h16.143a75.765 75.765 0 0 1-7.16 31.06l2.14 1.172c4.69-9.975 7.237-20.908 7.405-32.23h17.828a95.868 95.868 0 0 1-9.606 40.762l2.152 1.175c6.446-13.277 9.868-27.938 9.868-43.13 0-12.92-2.475-25.454-7.18-37.082l-2.208.95c4.43 10.973 6.83 22.773 6.978 34.94h-17.83a78.51 78.51 0 0 0-5.54-27.893l-2.194.94a76.072 76.072 0 0 1 5.35 26.955h-16.14a60.013 60.013 0 0 0-4.048-20.574l-2.193.943a57.65 57.65 0 0 1 3.86 19.634H359.9a39.87 39.87 0 0 0-2.416-12.59l-2.193.94a37.46 37.46 0 0 1 2.23 11.65H341.35a21.2 21.2 0 0 0-5.41-13.06l11.438-11.435a37.312 37.312 0 0 1 7.92 12.847l2.19-.94a39.735 39.735 0 0 0-8.427-13.592l12.606-12.606a57.48 57.48 0 0 1 12.21 19.153l2.19-.942a59.88 59.88 0 0 0-12.714-19.896l11.415-11.418c7.07 7.292 12.502 15.752 16.142 24.935l2.192-.94c-3.763-9.456-9.365-18.17-16.65-25.676l12.604-12.61c8.916 9.135 15.793 19.732 20.437 31.24l2.21-.948c-4.906-12.144-12.242-23.297-21.783-32.837-9.575-9.578-20.778-16.93-32.974-21.838l-.878 2.237c11.534 4.643 22.155 11.53 31.305 20.46l-12.607 12.61c-7.38-7.154-15.93-12.698-25.212-16.454l-.87 2.217c8.977 3.64 17.25 9.005 24.4 15.94l-11.415 11.415a59.96 59.96 0 0 0-18.886-12.323l-.873 2.217a57.576 57.576 0 0 1 18.073 11.79l-12.608 12.605a39.837 39.837 0 0 0-11.982-7.795l-.87 2.22a37.417 37.417 0 0 1 11.17 7.26l-11.44 11.44a21.198 21.198 0 0 0-13.06-5.41v-16.17a37.365 37.365 0 0 1 13.327 2.885l.87-2.22a39.805 39.805 0 0 0-14.2-3.048v-17.83a57.58 57.58 0 0 1 20.718 4.276l.87-2.217a59.956 59.956 0 0 0-21.588-4.44v-16.154c9.573.146 18.856 2.055 27.49 5.555l.87-2.22c-8.91-3.607-18.483-5.573-28.36-5.72v-17.83c12.143.147 23.922 2.54 34.874 6.95l.88-2.236c-11.59-4.665-24.076-7.124-36.944-7.124a98.25 98.25 0 0 0-44.237 10.485l1.085 2.08c12.89-6.46 27.15-9.977 41.96-10.156v17.83a78.12 78.12 0 0 0-33.67 8.165l1.082 2.074c10.028-4.963 21.097-7.683 32.587-7.858v16.146a59.736 59.736 0 0 0-25.087 6.05l1.09 2.08a57.47 57.47 0 0 1 23.996-5.75v17.83a39.677 39.677 0 0 0-15.718 3.745l1.095 2.092a37.357 37.357 0 0 1 14.622-3.455v16.175a21.32 21.32 0 0 0-7.108 1.642l1.093 2.09a18.978 18.978 0 0 1 7.205-1.41c5.082 0 9.857 1.977 13.45 5.57a18.897 18.897 0 0 1 5.57 13.45c0 10.486-8.53 19.02-19.02 19.02a18.9 18.9 0 0 1-13.45-5.57 18.9 18.9 0 0 1-5.57-13.45c0-5.08 1.98-9.86 5.57-13.45a19.004 19.004 0 0 1 6.245-4.16l-1.093-2.09a21.38 21.38 0 0 0-5.946 3.77l-11.44-11.443a37.466 37.466 0 0 1 9.872-6.692l-1.096-2.092a40.045 40.045 0 0 0-10.452 7.112l-12.62-12.62a57.76 57.76 0 0 1 14.793-10.317l-1.09-2.085a60.383 60.383 0 0 0-15.366 10.734l-11.436-11.436a76.25 76.25 0 0 1 19.303-13.634l-1.083-2.075a79.018 79.018 0 0 0-19.88 14.05l-12.632-12.63a96.57 96.57 0 0 1 24.22-17.26l-1.084-2.08c-19.253 9.675-34.926 25.442-44.47 44.77l2.07 1.12a96.574 96.574 0 0 1 17.58-24.87l12.635 12.635a78.916 78.916 0 0 0-14.484 20.734l2.063 1.114a76.308 76.308 0 0 1 14.078-20.19l11.438 11.434a60.335 60.335 0 0 0-11.25 16.46l2.068 1.117a57.627 57.627 0 0 1 10.847-15.913l12.62 12.62a40.036 40.036 0 0 0-7.72 11.803l2.087 1.128a37.404 37.404 0 0 1 7.303-11.26l11.443 11.44a21.29 21.29 0 0 0-5.413 13.055h-16.17a37.448 37.448 0 0 1 2.843-13.235l-2.085-1.127a39.688 39.688 0 0 0-3.14 14.363h-17.83a57.473 57.473 0 0 1 5.22-22.874l-2.067-1.116a59.722 59.722 0 0 0-5.53 23.99h-16.148c.17-11.15 2.727-21.906 7.415-31.7l-2.064-1.112a78.132 78.132 0 0 0-7.73 32.814H223.53c.176-14.563 3.58-28.595 9.833-41.313l-2.072-1.12a98.264 98.264 0 0 0-10.17 43.622 99.21 99.21 0 0 0 3.98 27.87l2.338-.59a96.782 96.782 0 0 1-3.904-26.088h17.83a78.823 78.823 0 0 0 3.373 21.734l2.312-.584a76.43 76.43 0 0 1-3.304-21.15h16.145a60.292 60.292 0 0 0 2.85 17.198l2.317-.584a57.81 57.81 0 0 1-2.784-16.613h17.83a39.935 39.935 0 0 0 2.293 12.248l2.317-.585a37.557 37.557 0 0 1-2.23-11.66h16.175a21.2 21.2 0 0 0 5.41 13.058L292.63 244.58a37.386 37.386 0 0 1-7.918-12.835l-2.317.585a39.72 39.72 0 0 0 8.55 13.934L278.34 258.87a57.467 57.467 0 0 1-13.28-22.17l-2.316.584c2.76 8.632 7.466 16.572 13.914 23.274l-11.417 11.418c-8.535-8.804-14.702-19.307-18.19-30.74l-2.31.584c3.59 11.842 9.97 22.726 18.818 31.84l-12.607 12.607c-11.157-11.432-19.126-25.154-23.51-40.09l-2.333.586c4.595 15.728 13.074 30.143 24.983 42.05 8.062 8.066 17.28 14.56 27.273 19.343l1.183-2.1c-9.457-4.506-18.206-10.58-25.913-18.105l12.606-12.602a78.662 78.662 0 0 0 22.1 15.125l1.175-2.086a76.262 76.262 0 0 1-21.592-14.72l11.417-11.418a59.967 59.967 0 0 0 18.148 12.01l1.173-2.084a57.603 57.603 0 0 1-17.632-11.605l12.607-12.607a39.713 39.713 0 0 0 13.88 8.532l1.19-2.11a37.37 37.37 0 0 1-13.385-8.107l11.436-11.437a21.182 21.182 0 0 0 13.06 5.41v16.177a37.53 37.53 0 0 1-11.11-2.042l-1.193 2.11a39.842 39.842 0 0 0 12.3 2.313v17.828a57.545 57.545 0 0 1-21.15-4.452l-1.174 2.084a59.91 59.91 0 0 0 22.323 4.754v16.147c-10.625-.165-20.885-2.5-30.298-6.77l-1.176 2.085c9.77 4.465 20.433 6.9 31.472 7.066v17.827c-14.162-.17-27.83-3.38-40.268-9.307l-1.184 2.1c13.145 6.29 27.636 9.617 42.64 9.617 15.74 0 30.907-3.677 44.557-10.583l-1.127-2.186a95.844 95.844 0 0 1-42.24 10.36v-17.84c12.036-.178 23.62-3.063 34.09-8.328l-1.114-2.158a75.737 75.737 0 0 1-32.974 8.102V279.01c9.03-.173 17.722-2.34 25.595-6.267l-1.105-2.147a57.348 57.348 0 0 1-24.49 6.032V258.8a39.684 39.684 0 0 0 16.327-4.02l-1.1-2.133a37.322 37.322 0 0 1-15.23 3.77v-16.173a21.195 21.195 0 0 0 13.06-5.41l11.427 11.424a37.71 37.71 0 0 1-9.257 6.39l1.1 2.134a39.957 39.957 0 0 0 9.855-6.826l12.587 12.587a57.88 57.88 0 0 1-14.282 10.054l1.106 2.146a60.16 60.16 0 0 0 14.88-10.495l11.39 11.39a76.51 76.51 0 0 1-18.888 13.418l1.113 2.157a78.654 78.654 0 0 0 19.486-13.864l12.576 12.574a96.867 96.867 0 0 1-23.91 17.083l1.127 2.186a99.08 99.08 0 0 0 25.36-18.378 98.958 98.958 0 0 0 19.095-26.788z" fill="#fff"/><path fill="#fff" d="M325.66 195.994l-.597.024.03.715.6-.028zm-1.472-.952h.797v.607h-.797zm-1.438-.212l.7.105.086-.6-.7-.1zm-.59-.204l-.696-.1.085-.603.69.1zm-5.748-.802h.797v.608h-.8zm-1.737 1.21l.696.1.088-.6-.695-.1zm.07.918l-.8-.204.147-.59.8.204zm-1.425.748l-.1-.608.59-.1.1.61zm-78.598 61.603v-.505h-.5v1.01h.8v1.318h.602l-.103-1.517zm7.483 9.007l-1.095-1.01-.8-1.112-.4-.912-.7-1.822 1.496.706.503 1.417.69.51.7 1.517zm20.645 27.13l-.098-.91-.8-1.216 1.2.205 1.292 1.11.503 1.314-.7.405-.4-.605zm54.06-91.91h-1.097l-.2-2.226.6-.407v-1.113h-3.492l-.1-1.112.5-.304-.795-.304-.6.81-.197.91-.997.203v.506h-.7v1.315l-2.792 2.328-5.584-.2c-.4.91-1.4-.104-1.4-.104-.197-.606-1.592 0-1.592 0 0 1.115-1.894-.505-1.894-.505l-3.49-2.53c-1.996-1.823-4.988.506-5.087 1.01.1 1.42-2.294.305-2.294.305s-1.994-.607-2.294.203c-.3.81-1.597.608-1.597.608l-.2.405-.998.202-.198.607-1.2.203 2.99-.102c.8-.1-.3 1.722-.795 1.62l-1.396.102-.5.505h-1.297l-.596.81-1.894-.1s-1.1.91-.998 1.214c.1.3-.2 1.21-.5 1.21s-.898.91-.698 1.215c.2.304-.598 1.316-.598 1.316l-.2 1.015-.598.2v2.735l-1.2.81v1.215l-1.795 1.923.2 1.62-1.495 1.62.197 1.62-.898.302-.197.708-.4 2.126.998.103c.5-.206.4 1.313 0 1.515-.4.203-1.495.607-.895 1.01.6.408-1.596.306-1.596-.302 0-.606-1.198-1.113-1.497-.91-.298.202-.798-.91-.798-.91-1.096-1.114-4.488.1-4.488.1l-.5 1.62c-1.097.203-1.795 2.024-1.795 2.024-.897.304-1.595 1.417-1.296 1.72.297.305-.5.405-.5.405v2.226l-.5.71.1 2.428c.598 0 .5 1.115.5 1.115-1 .1-.8 1.416-.8 1.416l-2.094.708-.4.607-2.592-.1-.698.71-.7-.71h-4.987l-.198-.506-.997-.204-.1-1.11-1.496.1-.3.607-1.597.1c.1 1.013-1.595 2.532-1.793 2.128-.202-.406-1.298-1.52-.798-1.72.5-.205 1.795-.408 1.795-.408v-.708l-3.692-.1-.397.605-1.498.1v1.62l-.698.2c-.5.304.1 1.42.1 1.42.696.706-.1 1.82-.1 1.82-.6.607.497 1.722.497 1.722.8.2-.5.81-.5.81.197 1.01.797 1.314.797 1.314-.6 1.013.4 1.518.4 1.518l.1 1.722.697.406v1.11l.4.71h1.594l-.1-2.53c-1.396-1.62 1.197-2.025 1.298-1.42.1.61 1.197.913 1.197.913.2 1.52 1.897 2.43 2.395.912.5-1.52.897-.608 1.197.1.3.71 2.192 2.43 2.192 2.43h1.497l.202 1.417c1.695-.1 2.192.102 2.89 2.43.7 2.325 2.594 2.933 2.594 2.933l1.396-.102c0-1.212 1.397.206 1.397.813 0 .605 2.692 2.934 2.692 2.934l2.692.606 2.497 2.027 1.894-.2h.8c.496-1.724 2.89.1 3.09.706.2.608 1.795 1.62 1.993 1.113.2-.507 1.3-.2 1.5 1.314.2 1.52.896 1.216.896 1.216l5.688-.1 1.994-1.723 5.088-.1c2.593-.1.997-3.645.5-3.645-.898-.707.297-3.643.297-3.643l-7.28-6.784c-1.696 0-.2-2.43-.2-2.43 1.296-.81-.3-2.125-.3-2.125.2-1.215-.698-2.632-.698-2.632-1.795-1.216-1.298-3.545-1.298-3.545v-1.62c-1.495-1.414.6-1.62.6-1.62.696-1.21-.5-2.123-.5-2.123l-.1-1.316-1.596-.2-.196-4.76-3.59-5.16c-.7-.205-.2-1.42-.2-1.42.897-.505-.202-1.72-.202-1.72l-.1-2.225 2.097-.204.5-.807h.996l-.1-2.634c.5-1.317 1.696-.61 1.696-.61l1.395.103.798-1.52.198-1.215-1.094-.1c-1.198-.71-.6-3.34-.6-3.34 1.896-2.838 4.09-1.218 4.09-1.218l1.396-.1c2.094 1.416.198 4.048.198 4.048-.397.61-.197 2.532-.197 2.532l.498 3.238-1.295 1.115c-1.098.61-1.098 2.025.1 2.33.796.1.497 2.023-.7.707-1.794 0 1 1.62.2 1.215 1.797.912 1.396-.81 1.396-.81l2.397-1.922c.897-.708 2.494 1.52 2.494 1.823 0 .303 3.99.1 3.99.1 1.096.71 1.495 2.53 1.495 2.53 1.098-1.417 3.39-.1 1.696.71 1.596 1.012 1.596 1.922 1.596 1.922 1.3-.404 1.3.608 1.3.912 0 .303.398-1.52.398-1.52-1.497-1.113 1.994-1.518.998.507l-.6.912 1 .807.1 2.33c2.193-.205 1.594-2.938 1.594-2.938l.997-.2c0-.914.7-.408.7-.408-.697-3.442 1.597-4.048 1.597-4.048 1.297-.306 1.396-3.04 1.396-3.04-.895-.405-.4-1.82.6-.606.997 1.214-.6-2.43-.6-2.43l-.796-.708-1.098-.1-.1-1.115h-1.795l-.3 1.42-.698.2-.2-.404-.3 1.113h-1.794l-.1-1.215 1.097-.302.4-.607.3-1.62h1.297l1.695-.505c.1-1.72.998-1.314.998-1.314l.6.504.897.71.1.606-.6.302-.098.81.296 1.114h.797c.3-1.62 2.395-1.62 2.993-.608l.6-1.418c-1.397-.708-.027-1.822.372-1.316.4.507 1.32-1.316 1.32-1.316s.7.912 0-.303c-.697-1.214.5-1.82.5-1.82-.2-1.215 1.296-1.013 1.296-1.013l.1-1.618-1.397-.104c-.298 1.417-1.496.203-.897-.1.6-.304 1.194-.91 1.194-.91v-1.014l.598-.2.1-1.014h1.497l1.294-.606.3-.506 1.396-.102 1.996-1.823-.198-.81c-1.2 0 0-.91 0-.91l.196-1.515z"/><path d="M276.716 222.57l-1.796-.202.1.708h.5c.796 1.418.1 4.86.1 4.86s-1.197.1-1.398-.507c-.198-.61-.698 1.312-.3 1.62.4.3 1.797 0 1.896 1.11.1 1.113.898-.71.898-.71v-6.883z" fill="#fff"/><path fill="#fff" d="M276.713 231.178l.6-.105.1-.71-1.5 1.015-.996-.606v2.428l1.598 2.123.597-1.417.202-.91-.7-.3zm.8 6.372v-1.01l-.697.1-.103.81zm-.9 4.862v-.71l-.845.1v.71zm1.177-3.114c.234 0 .422-.19.422-.428s-.188-.43-.422-.43a.426.426 0 0 0-.423.43c0 .237.19.428.423.428z"/><ellipse cy="240.996" cx="278.485" rx=".423" ry=".429" fill="#fff"/><ellipse cy="229.431" cx="278.508" rx=".423" ry=".429" fill="#fff"/><path fill="#fff" d="M312.423 214.47l-1.1-.1-.197.506h-.498l-.104.81h.602l.1.607-.4.406-.198.5-.8.206-1.795 1.722-.1.805-.497.71-.597 1.518-2.1.1-.4 1.823.296 1.517 1.795.71.203-1.01.597-.305.104-1.012.395-.71.6-.707.197-.81.997-.607 1.198-.205.5-.607.2-1.21.07-.913.43-.61 1.193-.506v-1.923h-.598zm2.79 6.888v-1.417l-.2-1.313-1.496-.708-1.097 1.012-.2 1.417v.91l-.997.203-.2 2.733-.798.305.1 1.013-1.097.3-1.097.305-.195 1.316-.797.508-.402 1.215-.497 2.935s.897 1.72 1.395.91c.5-.808 1.297-.91 1.297-.91l.3-.71 2.692.102c.2-1.115 1.498-.71 1.498-.203s.998.1.998.1l.698-1.11h1.096l.1-1.215.498-.302v-1.823c1.597-.506 1.395-2.024 1.395-2.024l.402-.504-.2-.707c-.8-.306-.4-1.016.097-.813.5.202-.698-.91-.698-.91-.6.506-1.096-.608-1.096-.608h-1.498zm1.595 12.246c-.1 1.214-1.596 1.62-1.596 1.62l-1.097-.304-.598-.506-.1-1.418.897-.1.2.608 2.294.1zm5.388-6.474c.216.883.198-1.42.597-1.316.4.1.1-1.417.1-1.417l-1.795 1.314c.897.107.996 1.018 1.098 1.42zm5.286-5.268c.4.912.3 2.228 1.794 3.24.505.34-.3 1.013-.8.708-.497-.303-1.892-2.53-1.892-2.53v-1.317c.3-.81.725-.493.898-.1zm.298 31.074l.296.506.7-1.11-.596-.207-.696.51zm-2.794-1.92v1.218m14.424-2.684l.8-.506-.32-.51-.795.5zm28.866 21.104l.9.404.097 1.72c1.198 1.215 5.088.203 5.088-.1 0-.305-.2-3.746-.2-3.746l-.5-.506-.095-2.533c.398-1.315-1.896-3.24-2.095-2.832-.2.408-1.497.1-1.497.51 0 .403-.796 2.43-.398 3.137.4.71-.3.71-.398 1.417-.1.71-1.098 1.926-.898 2.534zm-2.196-4.05c-.19.767-.896 1.215-1.295.91-.4-.304.496.505.698.912.198.404.796.404.997 0 .198-.407.1-1.315.3-1.72.198-.406-.6-.507-.7-.102zm-4.638-18.57h.697v1.924h-.7zm10.326-19.488c-.435-.59 1.994-1.62 2.393-.405.4 1.218 0 1.017-.395.916-.4-.102-1.395.302-1.994-.507zm2.144-13.56l-.103.596 1.09.2.11-.596zm-4.498 1.564l.8.506.15.096.15-.086.602-.34.075.187.558-.224-.202-.51-.127-.32-.297.17-.74.42-.65-.41zm5.444-24.448h-1.497s.5.202-.892-1.114c-1.398-1.316-2.294.304-2.294.304l-1.595.202v1.62l-.8.303.1 1.013 1.096-.1s0 1.214.3.708c.3-.507 2.793.1 2.593 1.316-.08.5 2.494 1.82 2.194 3.44 1.298.203 1 1.52 1 1.52l1.693.202.5-1.012.498.1v-.607l-1.098-.303-.198-3.24-.7-.506.2-.81-.797-.304.4-1.316-.7-1.416zm4.386 10.326l-.797-.1-1.798.303-1 1.927s.5.304.897 1.013c.397.71.6 4.857-.6 5.566-1.195.71.1.303.1.303l-.2 2.225c.3 1.013.798.508 1.097 0 .302-.504.6-.606 1-1.112.4-.507.997-1.418 1.097-2.127.1-.708.6-1.82.3-2.125-.3-.302.3-1.72.3-1.72s.4-.81 0-1.62.1-1.72.4-2.125l-.8-.405zm1.206 4.13l.102-.81.595.076-.102.81zm-.036 2.797l-.534-.272.3-.607.534.272zm-.87-8.037l-.4-.912s0-.808.2-1.215c.2-.4-.4-.804-.698-.91-.3-.1-.2-.91-.3-1.312-.098-.405-.796-.708-.796-.708s-.2-1.52-.2-1.823c0-.304-.9-.71-.6-1.013.3-.303.5-.708.8-.91.3-.203-.3-1.62.198-1.317.5.304.5.81.7 1.215.198.405-.1 1.823.398 2.127.498.3-.1 1.313.698 1.313.797 0 .3 1.925.3 1.925s-.2 1.415.297 1.517c.5.1.205 2.53.205 2.53l-.798-.505zm-6.48-16.404c.298.405.897.708.897 1.114 0 .405-.195.708.4.81.6.1 1-.102 1.2.404.2.506.2 1.316.1 1.72-.1.406.1 1.013.598 1.013.5 0 .6.102.6.406 0 .307.598-1.11.598-1.11-.5-.405-.9-1.317-.9-1.317s-.497-1.416-.497-1.62c0-.2-.7-.404-.998-.504-.3-.103-.8-1.013-.8-1.013l-1.195.1zm.996-.906c-.3-.406-.6-.71-.998-.91-.398-.204-.697-.406-1.098-.406a.655.655 0 0 1-.598-.91c.2-.508-.3-.71-.3-1.115s.3-.405.8-.1c.5.303.397.403.798.91.398.506.597 1.012.995.91.4-.1.7.912 1.095.608.398-.303.3.71.3.71l-.998.303zm-11.67 11.436c.55.56-2.99.404-2.99 0 0-.405.298-1.82 1.194-1.52.898.305.997-1.82.997-1.82s-.793.1-.095-.304c.698-.405 0-1.013-.3-1.316-.298-.304-.598-.81-.598-.81h1.398c.6-.406.797-2.328.797-2.328 1.196.404 1.794-.406 1.794-.406s.203.608.6 1.115c.4.505-.998.708-.5 1.012.5.304.7 1.214.5 1.517-.2.304-1.298.102-1.298-.303 0-.4-.4.51 0 1.017.398.506-.498 1.214-.698 1.214-.2 0-1.494.203-.4.81 1.098.607 2.297.305 2.297.305s.897-.103 1.196.404c.3.505-.1.607-.597.607s-2.893-.204-2.893-.204-.7.71-.4 1.014zm-6.384.912c.5-.1 1.695-.203 1.895.1.205.304-.694.71-.694.71l-1.197.202c-.4-.507-.5-.91 0-1.012zm12.87-8.502c.797-.405 2.492-.405 2.393-1.012-.1-.608.993-.81.993-.81l.3 1.214.897.608.1 1.113s.3-.202-.796.102c-1.098.3-.398.805-.398.805l-2.395.1-.3-1.01-.795-1.114zm-3.894-5.466c.606 0-.198 2.328 1.396 2.126 1.596-.203.1.708 1.297.81 1.197.1.898-.912 1.296-1.62.405-.708.205-1.114-.493-1.316-.7-.202-.7-.202-.898-1.013-.2-.81-1-1.013-1-1.013l-.3-1.213-1.296.805-1.296 1.72c0 1.318.697.71 1.296.71zm2.64 8.554l.3-.607.537.273-.3.607zm-1.044-.964h.6v.708h-.6zm.502-13.488l.1.91-.594.068-.1-.91zm-1.696 9.438h.6v.507h-.6zm-1.57-.01l-.06-.606.998-.1.058.606zm-8.23 9.735l-.55-.24.3-.707.55.24zm-3.13-1.843l-.06-.603 1-.1.06.603zm-17.308-.187l-2.19.1.028.606 2.19-.1zm-3.66.877l-.2-.908.588-.132.198.91zm-.42.63l-.19-.577.3-.1.19.575zm4.99-1.708l-.1.708 1.097.102s.497.406.497.708c0 .304.7.607 1.1.607.397 0 1.494-.81 1.494-.81s.5-1.417.1-1.316c-.4.105-1.197.71-1.295.105-.105-.608-1.3-.304-1.3-.304l-1.597.204zm4.986-1.116c0 .303-.198.708.4.81.6.1 1.696-.404 1.795.202.1.607.1 1.014.898 1.318.797.302 1.297.404 1.895.404.597 0 1.896-.204 1.896-.204s1.41.22 1.695.507c1.1 1.113 1.798 1.417 2.097.91.3-.505-.1-1.618-.198-2.023-.1-.406-1.498-2.33-1.997-1.924-.497.406-.596 0-1.495.303-.898.3-2.793.1-2.892-.307-.1-.405-1.495-.606-1.495-1.012s-.996-.91-.897-.303c.098.606-.7.91-.9.71-.2-.205-.798.605-.798.605zm22.944-12.96l.7-2.226c-.997-.203-.8-1.315-.8-1.315-.098-.912-1.494-1.924-1.994-1.62-.497.303-.3-2.127-.3-2.127s.9-.606 1.298-.303c.4.303-3.39-5.06-4.19-4.555-.797.507-2.59-.506-2.492-1.417.1-.91-3.59-3.948-3.59-3.948s-1.198-.81-1.396-.202c-.2.607-.6 1.013 0 1.315.597.305.497-.505 1.195.203.698.71 1.996 1.62 1.497 2.23-.5.61-1.098.81-1.098.81l.7.81h1.096l.2 1.72s1.196.61 1.496 1.318c.3.708.3 1.113 0 1.52-.3.403-.896 1.112-.798 1.82.1.708.898 1.012.898 1.012l.797.1.6.305v1.316c.796-.202 2.092.91 1.994 1.62-.1.71.194.304 1.19 1.013 1 .71.7.81 1.4 1.318.7.505 1.297.2 1.594-.71z"/><path d="M347.528 165.582c-.1-.406-.3-1.823.3-1.722.597.102.2 0 .897.304.698.305.797-.506.797-.506h1.1l1.394 1.113-.2.916-.997.1c-.5-.81-1.5-.505-1.3.204.2.707-.498 2.023-.896 2.123-.4.103-1.698.103-1.597-.504.1-.61.497-2.026.497-2.026zm-.798-2.736v-.81s-.102-.81-.6-.81c-.496 0-1.394-.606-1.197-1.01.202-.407-1.694-.81-1.694-.81s-1.7-1.62-1.1-1.417c.6.2.3-.71.3-.71s-1.2.2-1.498.1c-.3-.1-.2-1.015-.2-1.015s-1.196-.303-1.196 0c0 .304.398.304.596.91.2.608.1 1.62 1 1.823.898.203 1.095.404 1.197.81.1.405 1.196.506 1.196.506l.797.404 2.393 2.027zm-10.77-10.322l-.297-.81-.8-.202v.91zm-.3-4.252c-1.043-.79 1.395.608 1.395.608.797 0 1.297.607 1.297.91 0 .305 1.097.204 1.097.204l.1-.71-.8-1.012-.7-.505s-1.096-.1-1.096-.405c0-.303-.898 1.214-1.297.91zm18.348.606c-.29.886-.4 2.126-.898 2.126s-.3 1.317-.3 1.317 1.3 0 1.698.105c.398.1.398 1.112.398 1.112 1.497-.1 2.096 1.924 1.895 2.43-.2.506.6.506.6.506s0 1.62-.2 2.025c-.2.406 1.3.71 1.698 1.316.4.61-.2 2.633-.5 2.735-.298.1.798.403.7.91-.102.506.3 0 .398.81.1.81.3 2.53.3 2.53l1.395.102c.2-1.315 2.77-1.365 3.19-1.214 1.698.607 2.996 3.24 2.996 3.846 0 .606-1.098.71-1.098.71l.2 2.933c1.695.506 3.09 2.936 2.893 3.34-.2.406 1.195.305 1.195.305.2-1.823 1.896-1.215 1.994-.607.1.608.4 1.924.4 1.924l.5.91.696.71 1.096-.103.3.61 1.3.202s1.098 1.212 1.197 1.517c.1.303 1.595.202 1.993.303.4.1.998.405 1.097.91.1.508.7 1.317.7 1.317s1.196.305 1.296.71c.1.403.6 1.314.6 1.314l.994.81.1.91 1.098.1.3 1.216 1.793-.1 1-.708c1.297-.708 2.195-1.62 2.295-2.025.1-.406.3-1.923 1.3-1.62.995.304.3-2.228.3-2.228s-1.398-1.012-1.3-1.52c.1-.504-1.395-1.516-1.296-1.922.1-.405-1.297-1.214-1.198-1.62.1-.404-.7-1.518-.7-1.518l-1.497-1.417-.2-.91-1.195-.1-2.393-2.937.1-.81-.7-.1v-1.113l-.696-.406-1.1-.1-2.192-2.43-.2-1.113h-1.096l.2-2.126c.7-.91.3-2.63.3-2.63s-1.4.707-2.095.403c-.7-.302.298-1.012.298-1.012v-.81l-.597-.605s-1.697.203-1.796-.1c-.1-.304-.4-1.62-.4-1.62l-.1-1.722-.697-.302-.1-.61-1.096.103v-1.214l-.6-.203-.598-.304-.1-1.215-2.194-.1-.698-1.013-.798-1.215-2.493-.203-.6-.607-.997-.203-.696-.304-.3.507-1.895.1-.1.608c-.997.506-4.986.1-5.088.404zm10.476-2.628c-.158-.8 1.996-1.518 2.494-.912.5.608 1.895.71 2.095 3.747.07 1.087-1.795-1.113-1.795-1.113l-1.498-.506c-.797-.204-1.197-.708-1.296-1.216zm-29.254 1.237l-.545-.247.4-.91.545.246zm-5.156-9.943l-1.3-1.316v-1.114l-.398-.406-.398-1.416-1.297-.405-1.292.506-1.397.91-1.495.204-.8.91 3.193.303.597 1.014 2.297.202 1.496 1.518c1.3.406 1.597-.202.8-.91zm-.198-4.962c-.22-.89-1.497 1.113-.198 1.517 1.297.403 2.59 0 2.59 0l.3-.61 4.986.1c.402-.405.6-1.012.6-1.012s1.197-.405 1.694-.203c.5.204.102-1.416-.398-1.214-.498.203-1.495.1-1.495.1h-1.796c-.1-.706-1.7-.403-1.8 0-.1.407-.696.508-.696.508l-2.294.205c-.2.608-1.395 1.012-1.496.608zM320 149.664c1.534.487 2.094.126 2.195-.278.1-.406.198-.507.797-.607.598-.106-.1-1.32-.698-1.22-.6.102-1.197-.2-1.296-.708-.102-.506-1.1-1.822-1.198-.81-.1 1.013-.698 1.013-.6 1.722.102.707.4 1.77.8 1.897zm-11.466 1.14c-.072-.358 1.994-.405 2.294-.102.3.304.1.81.997.81s.5.608.4.912c-.1.303-1.097.202-1.2-.1-.097-.305-1.595-.407-1.595-.407s-.797-.608-.896-1.113zm33.922-21.7l-.79.64-.508-.515-.423.425.696.708.197.194.207-.17 1.002-.81zm-5.5-1.84l-.64-.406-.314.516.8.504.154.103.16-.1 1.1-.71-.32-.51zm-3.216 20.823l-.145-.014-.997-.105-.06.606.855.085.62.984.503-.324-.695-1.11zm-32.988 28.223l.102 1.114h1.494c.6 0-.497-.708-.497-.708s-1.194.1-1.095-.406zm1.902.033l.382-.468.6.504-.383.464zm-18.172-18.938l.423-.43.598.608-.424.43zm28.97 130.285l-.996-.505-.268.544.625.31-.206.21.427.43.5-.506.29-.295zm-7.722-7.29l-.38-.466-.603.505-.296.25.32.23.7.504.347-.492-.385-.28zm74.168-19.202c-.132-.516-.714-.728-.78-.75l-.19.578v-.004c.048.018.117.055.186.1l.122.525c-.044.067-.093.13-.132.175l.44.41c.32-.355.438-.7.354-1.034zm.92-1.912l-.973-.07.075-.913.973.153zm23.116-7.892c.426-.27.972-.76.898.38-.076 1.138-.524.76-.898 1.138-.374.38-.598-1.138 0-1.518zm5.076-4.296a.833.833 0 0 1-.018-.14 1.654 1.654 0 0 0-.153-.635l-.54.272c.068.135.08.278.09.416.017.18.037.38.207.51.106.08.24.107.402.076l-.115-.588c.045.007.106.05.12.093zm-1.332.498c.152.615.374 1.222.384 1.247l.56-.214a11.87 11.87 0 0 1-.364-1.186l-.58.15zm-2.178 2.388l-.596-.06c-.047.478.067 1.068.54 1.164l.116-.595c.004 0 .01.004.01.004-.047-.043-.092-.288-.07-.512zm-2.622-12.078a.546.546 0 0 0-.327-.426c-.44-.194-1.185.128-1.55.376l.33.506c.38-.257.876-.38.987-.324a.056.056 0 0 1-.027-.033l.59-.1zm-27.624-32.34c-.4.406-1.296.608-1.296.608l-.3 1.113-.498.405s.1.303 0 1.012c-.1.708-.998 1.114-.998 1.114l-.398.506s-2.405.13-2.693 0c-.894-.405-.295-1.62.3-1.52.6.103-.1-1.72-.1-1.72l.8-.1s.1-1.823.4-1.823c.3 0-.1-.603-.5-.91-.4-.3-.896-1.312-1.297-1.21-.397.1-1.993 0-1.993 0l-.3.606-1.098.202s.093.783-.098 1.013c-.6.708-2.894 2.226-1.898-.304l.3-.606v-.914l-1.794-.1s-.898-.304-.898-.71c0-.405-.1-.91-.1-.91l-2.095-2.328-2.495-.304-.2-.507-1.495-.204c-1.797-.91-3.394-.1-3.094 1.418.3 1.52.797 2.128-.2 2.128-.998 0-1.196-.81-1.196-.81s-.798-.305-.798.1-.3 1.215 0 1.62c.298.404-.4 1.012-.7.708-.297-.304-1.096-1.214-.896-1.517.2-.303-1.398-2.227.2-2.53 1.595-.305-.1-1.216.5-1.417l.795-.406h.8l.5-.405-1.3-.2-.793-.102-1.498-.102c-1.496 1.012-1.794 2.227-1.794 2.227-.8 1.518-2.693-.608-1.995-1.417.697-.81-2.195-.102-2.694.303-.5.407-1.996.205-1.996.205-.3.91-1.696-.1-1.298-.708.4-.608.4-1.013.4-1.013l-.5-.1-.597 1.112c-1.396 0-1.796.81-1.497 1.316.3.507-.4-.1-.6.61-.198.71.1.71.7 1.012.6.304-.3.304.1.81.4.507 1.595 0 .897.71-.698.707-2.096.405-2.096.405-.1.91-1.995.707-2.19.403-.2-.304-1.7-2.126-1.7-2.126l-1.896-.1c-.198-1.418.9-.71 1.297-1.823.4-1.113.6-2.934.6-2.934s-1.596-.1-1.695.404c-.1.507-1.097.81-1.097.81s-.8.303-.5.71c.3.404-.6.605-.6.605s.157.653-.097.91c-.796.81-2.793.1-3.09-.2l-1.197-.508-1.198-.81-1.395.607-.4.404h-1.495l-.1 1.213 2.694.303.2 2.505-1.1-.375h-.698l-.3-.608-.598-.1v2.225l.6.508.5.505.996.102.2 1.214 2.493.1.3.508 1.497.1 2.894 2.936-.2.91-.5.305c.2.71-1.294.303-1.294.303v.608l.695.1.7.406.996-1.72c1.1-.71 1.6.304 1.7.91.1.608-.5.507-.5.507v1.417l.6.2c.998 1.217-.4 1.926-.4 1.926l-.3 1.012c-.3.912-1.396.708-1.396.708l-.396.608-1.2.306 2.37.302c.224-.81.82-1.01 1.12-.606.3.407.3 1.115.3 1.115l.6.1-.1 1.114.6.203v3.24l.697.81c1.198-.506 1.198.303.6.707-.6.403-.2 2.227-.2 2.227l-.5.504v.81l-.598.406v1.11c-.998-.505-2.195-.303-2.495 0-.895-.607-2.79-.404-2.79.103.597.81-.697 1.01-.697 1.01l-.7.81c.5 1.014-.498 1.114-.498 1.114v1.923l-1.198 1.115.1 2.632c0 .71 1.495.81 1.793.404.3-.403 1.5.813 1.5.813h.895l.2-1.822-.6-.305v-2.936l1-1.116c1.196-.404.798 2.634.798 2.938.1 1.114.596 1.013 1.096.81.996-.405.197 1.115-.6 1.01-.797-.1-.3 1.015-.3 1.015l.5.203-.9.708-.794.912-1-.306-1.195-.1-.4-.71-.7-.1-.097 1.416-.498.607-1.197 1.217c1.598 0-.2 1.11-.6 1.11.9.305-.097 1.217-2.39.51v.706l-.8.102.7.808.797.102-.3 1.72c0 1.317-3.29.404-3.59.102l-.1 1.822-.597.1.1 1.216-.1 1.72 1.096-.2v.708l2.694.1 3.89-4.15 2.293-.506c.2-1.013 1.194.203 1.194.203.998-.103 1.198.607 1.198.607l1.297.202c1.094.305.432.41.496.81.1.608.598.405.598.405l.2-1.315.6.1-.6-.708-1.098-.507-1.196-.504c-.8-1.113.2-.91.998-.81h1.297s1.497 2.025 1.497 2.53c0 .51.7.61.7.61l.895-.102.3.71h.896l.3.606h1.796l.1-.91-1.698-.304-.1-1.014-1.195-.303c-.4-1.72.297-2.227.796-1.416l.598.1-.2-1.52.698-.203-.2-2.127-.597-.2v-.71l2.494.103c-.2-1.32.1-1.925.1-1.925h.697l.1.507 3.05.287 2.16-2.476c-.11-.19.215-.304-.022-.546-.3-.304-.7 0-1.2-.304-.497-.3 0-2.023-.1-2.427-.098-.406 1.7-1.015 1.4-.103-.3.914 0 1.32 0 1.32 1.296-1.217 2.393.1 2.294.403-.103.304.696.607 1.193.304.5-.304 1.1.91.9 1.517-.2.608-1.993.508-2.092-.1-.1-.607-.4-.404-.6-.1-.2.304-1.095.505-1.595.2a.476.476 0 0 1-.176-.16l-2.158 2.475.14.015c1.195.71.6 1.62.2 1.824-.4.2-1.1.2-1.1.2l-.2.407-2.59.2-.2 1.015c-1.298-.203-1.796 1.216-1.497 1.923.3.71 0 1.317 0 1.317l1.097.506 1.394-.402c.2-1.014 1.097-1.216 1.896-1.822.797-.607 2.095 1.11 1.695 1.923-.398.81-.398 1.113-.398 1.113l.1.912-1 .404-.8.404-.1.508h-2.69l-.5.505-1.298.104-.4.607-.895.102s-1.497.707-.898 1.517c.6.81-2.495.71-3.195-.405-.198 1.01-1.295.1-1.295.1l-1.096-.304-.1-1.516c-.2-1.014-2.094-1.014-1.993-.304.1.71-3.592.305-3.592.305l-1.195.58-1.1.634-.098.504-1.797.203-.797.406-.3-.61h-.794l-.8 1.115c-2.093.1-4.087 1.316-3.89 1.822.2.505-.795 1.014-.795 1.014l-.9.3-.595.91-1.198.407-.2 2.127-.598.403v.912l-.7.2v.506l-.997.1.597 1.52.8.404c1.394.2.795 1.924.795 1.924l.797.1.4 1.114.796 1.618c.3 1.217 1.197.912 1.596.81.398-.098.796 1.215.796 1.215l3.988.103s-.198.405.5.607c.698.2 5.286.405 5.487.1-.2-.91 2.49-1.113 3.59-.303 1.096.81 2.593.305 2.593.305l1.495 1.82 1 2.228 1.694.506 1.195.303.4 1.72.897.1.3 1.116c1.096.808-.3 2.53-.3 2.53v2.225l.796.407-.1.813 1.298 1.314 1.495.103 3.79 4.047 2.99.91.5 1.62.8-.1.598-.506 2.39-.1 1.198-1.115 1.297-.2 11.07-9.415-.998-.61v-2.225c1.795-1.316 1.894-3.645.2-3.847-1.287-.153-.698-1.52.5-1.72l.696-.303v-.912l2.295-2.123v-1.62l-4.986-4.15c-2.196-.81 0-5.67 1.494-5.57 1.497.1-.1-7.49-.1-7.49l-.798-.404.2-2.43h-1.096l-1.795 2.33-.498 1.617c-.2 2.128-6.384 1.72-6.684 1.417-.3-.304-2.393-1.214-2.393-1.214s-1.596-1.316-1.895-.91c-.3.405-1.695-.508-1.695-.203 0 .304-1.296-.708-1.296-.708l-1.995-.71 1.496-.304-.3-1.212 2.59 1.316c.3.404 1.597.304 1.597.304l.4.507s.798-.103 1.298.505c.5.607 3.09.1 3.09.1l.7.607 1.096.406 3.093.1.1-1.92.597-.61-.1-1.214.7-.606v-1.01l.6-.203.1-2.228.496-.1v-4.86l-1.496-1.42c-.1.508-1.696.508-1.696.508s-.397.708-.697.708c-.298 0 .4.91.2 1.517-.2.607-.998.607-.998.607l-1.497.406-.398.506h-1.596l-.198-1.316 1.792-.507 1-.503.5-1.014c.097-1.01 1.295-.91 1.295-.91s2.294-1.924 2.393-2.834c.102-.913.9-3.444 2.294-3.444h2.594c.997-.407.698-1.723.698-1.723l1.297-.2.2.708s1.797.203 1.995-.1c.2-.3.6-1.01 1.1-.708.497.303 2.093-.71 2.093-.71.1-.708 2.592-.404 2.592-.404l.3-.913s-1.695-2.328-1.994-2.328c-.3 0-1.896-1.42-2.097-.91-1.594-.407-1.495-2.634-1.495-2.634l-.6-1.418c0-.81-1.493-2.53-1.794-2.328-1.495-1.113-.397-2.43 0-2.53.4-.1 1.4-1.52 1.4-1.52l.497-1.417 1.695-.504.2-1.317-.895-.1s.996-1.825 1.496-1.825 3.792 0 4.09-.204c.298-.2.896-1.82.896-2.124 0-.303.8-.404 1.096-.506.3-.1.997-.91 1.196-1.315.2-.41-.496-2.94-.896-2.535z" fill="#fff"/><path d="M320 242.058c.15-.15.3.456.6.38.296-.076.447.532.15.532-.3 0-.3.38-.3.532 0 .152 0 .53-.226.76-.224.227-.45.075-.75-.077-.298-.152-.446-.152-.822-.152-.373 0-.075.608-.075.608s-1.57-.072-1.27-.3c.298-.227.597-.304.374-.457-.22-.15 0-.3 0-.605s.75-.152.526-.38c-.223-.228.005-1.11.374-.608l.224-.533c-.225-.228-.074-.304-.523-.454-.45-.15-.075-1.063-.075-1.063l.076-.607c.15-.758 1.644-.836 1.72-.153.073.684 0 1.14 0 1.14l.45.15s-.077.458-.45.458c-.376 0 0 .225-.226.454l.226.377zm-4.938.762c.225-.456.748-2.43 1.347-1.822.593.607.97 0 .97 0s.3.304.15.912c-.15.606-.3 1.214-.678 1.29-.372.076-.672.304-1.12.38-.447.076-.673-.76-.673-.76z" fill="#fff"/></svg>