<svg xmlns="http://www.w3.org/2000/svg" viewBox="0 0 640 480"><defs><clipPath id="a"><path fill-opacity=".67" d="M0 0h682.67v512H0z"/></clipPath></defs><g fill-rule="evenodd" clip-path="url(#a)" transform="scale(.9375)"><g stroke-width="1pt"><path d="M0 0h972.81v39.385H0zm0 78.77h972.81v39.385H0zm0 78.77h972.81v39.385H0zm0 78.77h972.81v39.385H0zm0 78.77h972.81v39.385H0zm0 78.77h972.81v39.385H0zm0 78.77h972.81v39.385H0z" fill="#bd3d44"/><path d="M0 39.385h972.81V78.77H0zm0 78.77h972.81v39.385H0zm0 78.77h972.81v39.385H0zm0 78.77h972.81v39.385H0zm0 78.77h972.81v39.385H0zm0 78.77h972.81v39.385H0z" fill="#fff"/></g><path fill="#192f5d" d="M0 0h389.12v275.69H0z"/><path d="M32.427 11.8l3.54 10.896h11.458l-9.27 6.735 3.54 10.9-9.27-6.735-9.267 6.734 3.54-10.897-9.27-6.734h11.458zm64.853 0l3.54 10.896h11.46l-9.27 6.735 3.54 10.9-9.27-6.735-9.268 6.734 3.54-10.897-9.27-6.734H93.74zm64.856 0l3.54 10.896h11.458l-9.27 6.735 3.54 10.9-9.268-6.735-9.27 6.734 3.54-10.897-9.268-6.734h11.458zm64.852 0l3.54 10.896h11.457l-9.27 6.735 3.54 10.9-9.267-6.735-9.27 6.734 3.54-10.897-9.27-6.734h11.46zm64.855 0l3.54 10.896h11.458l-9.27 6.735 3.544 10.9-9.27-6.735-9.268 6.734 3.54-10.897-9.27-6.734h11.458zm64.855 0l3.54 10.896h11.458l-9.27 6.735 3.54 10.9-9.268-6.735-9.27 6.734 3.542-10.897-9.27-6.734h11.458zM64.855 39.37l3.54 10.896h11.458L70.583 57l3.542 10.897-9.27-6.734-9.27 6.734L59.125 57l-9.267-6.734h11.458zm64.852 0l3.54 10.896h11.457L135.434 57l3.54 10.897-9.267-6.734-9.27 6.734L123.977 57l-9.27-6.734h11.46zm64.855 0l3.54 10.896h11.458L200.29 57l3.54 10.897-9.27-6.734-9.267 6.734L188.833 57l-9.27-6.734h11.458zm64.855 0l3.54 10.896h11.458L265.145 57l3.54 10.897-9.268-6.734-9.27 6.734L253.69 57l-9.27-6.734h11.458zm64.852 0l3.54 10.896h11.454L329.994 57l3.54 10.897-9.265-6.734-9.27 6.734L318.54 57l-9.27-6.734h11.458zM32.424 66.94l3.54 10.895h11.458l-9.27 6.735 3.54 10.896-9.27-6.734-9.267 6.734 3.54-10.896-9.27-6.735h11.458zm64.853 0l3.54 10.895h11.46l-9.27 6.735 3.54 10.896-9.27-6.734-9.27 6.734 3.54-10.896-9.27-6.735h11.46zm64.855 0l3.54 10.895h11.458l-9.27 6.735 3.54 10.896-9.267-6.734-9.27 6.734 3.54-10.896-9.268-6.735h11.458zm64.852 0l3.54 10.895h11.457l-9.27 6.735 3.54 10.896-9.267-6.734-9.27 6.734 3.54-10.896-9.27-6.735h11.46zm64.855 0l3.54 10.895h11.458l-9.27 6.735 3.542 10.896-9.27-6.734-9.268 6.734 3.54-10.896-9.27-6.735H288.3zm64.855 0l3.54 10.895h11.458l-9.27 6.735 3.54 10.896-9.268-6.734-9.27 6.734 3.542-10.896-9.27-6.735h11.457zM64.855 94.507l3.54 10.897h11.458l-9.27 6.734 3.542 10.896-9.27-6.734-9.27 6.734 3.54-10.897-9.268-6.735h11.458zm64.852 0l3.54 10.897h11.457l-9.27 6.734 3.54 10.896-9.267-6.734-9.27 6.734 3.54-10.897-9.27-6.735h11.46zm64.855 0l3.54 10.897h11.458l-9.27 6.734 3.54 10.896-9.27-6.734-9.267 6.734 3.54-10.897-9.27-6.735h11.458zm64.855 0l3.54 10.897h11.458l-9.27 6.734 3.54 10.896-9.268-6.734-9.27 6.734 3.542-10.897-9.27-6.735h11.455zm64.852 0l3.54 10.897h11.454l-9.27 6.734 3.54 10.896-9.267-6.734-9.27 6.734 3.54-10.897-9.27-6.735h11.458zm-291.845 27.57l3.54 10.896h11.458l-9.27 6.735 3.54 10.895-9.27-6.734-9.267 6.733 3.54-10.896-9.27-6.736h11.458zm64.853 0l3.54 10.896h11.46l-9.27 6.735 3.54 10.895-9.27-6.734-9.27 6.733 3.54-10.896-9.27-6.736h11.46zm64.855 0l3.54 10.896h11.458l-9.27 6.735 3.54 10.895-9.267-6.734-9.27 6.733 3.54-10.896-9.268-6.736h11.458zm64.852 0l3.54 10.896h11.457l-9.27 6.735 3.54 10.895-9.267-6.734-9.27 6.733 3.54-10.896-9.27-6.736h11.46zm64.855 0l3.54 10.896h11.458l-9.27 6.735 3.542 10.895-9.27-6.734-9.268 6.733 3.54-10.896-9.27-6.736H288.3zm64.855 0l3.54 10.896h11.458l-9.27 6.735 3.54 10.895-9.268-6.734-9.27 6.733 3.542-10.896-9.27-6.736h11.457zm-291.843 27.57l3.54 10.896H79.85l-9.27 6.734 3.542 10.897-9.27-6.734-9.27 6.735 3.54-10.897-9.268-6.734h11.458zm64.852 0l3.54 10.896H144.7l-9.27 6.734 3.54 10.897-9.266-6.734-9.27 6.735 3.54-10.897-9.27-6.734h11.46zm64.855 0l3.54 10.896h11.46l-9.27 6.734 3.54 10.897-9.27-6.734-9.27 6.735 3.54-10.897-9.27-6.734h11.46zm64.855 0l3.54 10.896h11.458l-9.27 6.734 3.54 10.897-9.268-6.734-9.27 6.735 3.542-10.897-9.27-6.734h11.457zm64.852 0l3.54 10.896h11.456l-9.27 6.734 3.54 10.897-9.267-6.734-9.27 6.735 3.54-10.897-9.27-6.734h11.458zm-291.84 27.57l3.54 10.896h11.457l-9.27 6.735 3.54 10.896-9.27-6.734-9.267 6.734 3.54-10.896-9.27-6.735h11.458zm64.852 0l3.54 10.896h11.46l-9.27 6.735 3.54 10.896-9.27-6.734-9.27 6.734 3.54-10.896-9.27-6.735h11.46zm64.855 0l3.54 10.896h11.458l-9.27 6.735 3.54 10.896-9.268-6.734-9.27 6.734 3.54-10.896-9.268-6.735h11.458zm64.852 0l3.54 10.896h11.457l-9.27 6.735 3.54 10.896-9.267-6.734-9.27 6.734 3.54-10.896-9.27-6.735h11.46zm64.855 0l3.54 10.896h11.458l-9.27 6.735 3.543 10.896-9.27-6.734-9.268 6.734 3.54-10.896-9.27-6.735H288.3zm64.855 0l3.54 10.896h11.458l-9.27 6.735 3.54 10.896-9.268-6.734-9.27 6.734 3.542-10.896-9.27-6.735h11.457zm-291.843 27.57l3.54 10.896h11.458l-9.27 6.734 3.542 10.897-9.27-6.734-9.27 6.734 3.54-10.897-9.268-6.734h11.458zm64.852 0l3.54 10.896H144.7l-9.27 6.734 3.54 10.897-9.267-6.734-9.27 6.734 3.54-10.897-9.27-6.734h11.46zm64.855 0l3.54 10.896h11.46l-9.27 6.734 3.54 10.897-9.27-6.734-9.268 6.734 3.54-10.897-9.27-6.734h11.458zm64.856 0l3.54 10.896h11.458l-9.27 6.734 3.54 10.897-9.268-6.734-9.27 6.734 3.542-10.897-9.27-6.734h11.456zm64.852 0l3.54 10.896h11.455l-9.27 6.734 3.54 10.897-9.267-6.734-9.27 6.734 3.54-10.897-9.27-6.734h11.458zm-291.843 27.57l3.54 10.895h11.458l-9.27 6.735 3.54 10.896-9.27-6.734-9.267 6.73 3.54-10.895-9.27-6.735h11.458zm64.853 0l3.54 10.895h11.46l-9.27 6.735 3.54 10.896-9.27-6.734-9.268 6.73 3.54-10.895-9.27-6.735h11.46zm64.856 0l3.54 10.895h11.458l-9.27 6.735 3.54 10.896-9.268-6.734-9.27 6.73 3.54-10.895-9.268-6.735h11.458zm64.852 0l3.54 10.895h11.457l-9.27 6.735 3.54 10.896-9.267-6.734-9.27 6.73 3.54-10.895-9.27-6.735h11.46zm64.855 0l3.54 10.895h11.46l-9.27 6.735 3.542 10.896-9.27-6.734-9.268 6.73 3.54-10.895-9.27-6.735h11.458zm64.856 0l3.54 10.895h11.458l-9.27 6.735 3.54 10.896-9.268-6.734-9.27 6.73 3.542-10.895-9.27-6.735h11.458z" fill="#fff"/></g></svg>