<svg xmlns="http://www.w3.org/2000/svg" viewBox="0 0 640 480" version="1"><g fill-rule="evenodd"><path fill="#fff" d="M320 0h320v480H320z"/><path d="M477.62 187.4c0 .1-11.2 44.54-23.64 60.08-13.88 17.46-22.64 17.48-22.64 17.48l-14.16-3.56s8.3.4 24.76-20.84c16.68-21.54 21.88-57.2 21.6-56.56l14.08 3.4z" stroke="#000" stroke-width=".24" fill="#fff"/><path d="M438.9 190.68c-.3-1.88 6.8 44.2 28.04 65.44 10.6 10.6 17.72 10.6 17.72 10.6l17.72-3.52s-10.34.76-26.8-20.5c-16.7-21.56-21.72-52.66-21.6-52.8l-15.08.8z" stroke="#000" stroke-width=".24" fill="#fff"/><path d="M438.38 189.2c0 .1 11.2 44.54 23.64 60.08 13.88 17.46 22.64 17.48 22.64 17.48l14.16-3.56s-8.3.4-24.76-20.84c-16.68-21.54-21.88-57.2-21.6-56.56l-14.08 3.4z" stroke="#000" stroke-width=".24" fill="#fff"/><path d="M477.1 188.88c.3-1.88-6.8 44.2-28.04 65.44-10.6 10.6-17.72 10.6-17.72 10.6l-17.72-3.52s10.34.76 26.8-20.5c16.7-21.56 21.72-52.66 21.6-52.8l15.08.8z" stroke="#000" stroke-width=".24" fill="#fff"/><path d="M448.9 223.04l1.84 4.44s.28-2 1.7-2.34l1.4-.36s5.4 9.88 6.46 11.64c1.06 1.8-.72 3.36-.36 3.36s5.3-2.3 5.3-2.3-2.12.2-3-1.24-6.96-12-6.96-12 1.2-.52 2.3-1.04c1.04-.54 2.1 1.6 2.1 1.6l-2.64-5.3s0 1.8-.88 2.12c-.88.36-1.6.72-1.6.72s-.7-1.24-1.6-2.66c-.86-1.44.9-2.84.9-2.84l-4.6 2.3s1.6.88 2.12 1.76l1.04 1.8s-.64.34-1.64.68c-.72.4-1.54 0-1.9-.34z" stroke="#000" stroke-width=".24" fill="#fff133"/><path d="M411 329.6zm-1.6 1.3zm-2.1 1.7zm22.2-20.2zm-1.2 1.5zm-1.5 1.9zm-1 .6zm8.1-10.5zm-1 1.7zm-1.2 2.1zm-1.2 1.5zM418 324zm-1.6 1.4zm-1.9 1.7zm-1.4.9zm11-9.7zm-1.4 1.5zm-1.3 1zm-1.5 1.4zm23.7-38zm0 .6zm-.9 2.3zm-.8 1.8zm3.8-11.1zm-.7 2.3zm-.6 1.8zm-6.3 16.4zm-1 1.8zm-1.1 2.1zm-.8 1.6zm5.8-12.7zm.3 1.1zm-1.2 2.2zm-.9 1.7zm9.7-29.6zm0 1.6zm-.5 1.8zm1.3-10zm-.3 2.3zm-.2 1.9zm-1.5 8.1zm-.7 1.3zm-.7 2.3zm56.9 48.2zm1.5 1.4zm2 1.7zm-20.6-21.4zm1 1.6zm1.4 2zm1 .7zm-7.3-11zm.8 1.8zm1.1 2.2zm1.1 1.6zm11.5 13.3zm1.4 1.5zm1.8 1.9zm1.3 1zM491 311.9zm1.3 1.6zm1.2 1.1zm1.4 1.5zm-20.7-39.2zm-.1.6zm.8 2.3zm.6 1.8zm-2.9-11.3zm.6 2.4zm.4 1.9zm5 16.6zm.8 1.8zm1 2.3zm.7 1.5zm-4.8-12.9zm-.4 1.1zm1 2.2zm.7 1.8zm-7.2-30.1zm-.2 1.6zm.4 1.8zm-.5-10zm.1 2.3zm0 1.9zm.9 8.2zm.5 1.3zm.6 2.4z" fill="#b00"/><path d="M467.1 221.24l-1.84 4.44s-.28-2-1.7-2.34l-1.4-.36s-5.4 9.88-6.46 11.64c-1.06 1.8.72 3.36.36 3.36s-5.3-2.3-5.3-2.3 2.12.2 3-1.24 6.96-12 6.96-12-1.2-.52-2.3-1.04c-1.04-.54-2.1 1.6-2.1 1.6l2.64-5.3s0 1.8.88 2.12c.88.36 1.6.72 1.6.72s.7-1.24 1.6-2.66c.86-1.44-.9-2.84-.9-2.84l4.6 2.3s-1.6.88-2.12 1.76l-1.04 1.8s.64.34 1.64.68c.72.4 1.54 0 1.9-.34z" stroke="#000" stroke-width=".24" fill="#fff133"/><g transform="matrix(.1 0 0 .1 423.6 295.3)"><path fill="silver" d="M324.5-255.4l-50 50L449.7-29.8l50-50z"/><ellipse rx="35.4" ry="35.4" stroke="#000" transform="rotate(135 457.5 73.7)" cy="-1428" cx="354.3" stroke-width="1.2" fill="#fff133"/><path d="M-402-957l37.5 37.7-25 25L-427-932c-12.6-12.4 12.4-37.4 25-25z" stroke="#000" stroke-width="1.2" fill="silver"/><path d="M-346.6-926.5l-50 50c-14 0-25.5-11.5-25.2-25 11-26 25-38.4 50-50 12.6.6 24.4 10.8 25.2 25z" stroke="#000" stroke-width="1.2" fill="#fff133"/><path d="M-352-932l37.7 37.7-50.2 50-37.5-37.4c5-20 30-45 50-50.2z" stroke="#000" stroke-width="1.2" fill="silver"/><path d="M-309-889l-50 50.2c-14 0-25.5-11.6-25.2-25 11-26 25-38.5 50-50.2 12.6.7 24.3 11 25.2 25z" stroke="#000" stroke-width="1.2" fill="#fff133"/><path d="M-314.4-894.3L28.4-551.5l-50 50-343-342.7c5.2-20 30.2-45 50.2-50z" stroke="#000" stroke-width="1.2" fill="silver"/><path d="M49-531l-50.2 50c-13.8 0-25.3-11.4-25-25 10.8-25.8 25-38.3 50-50 12.6.7 24.3 11 25 25z" stroke="#000" stroke-width="1.2" fill="#fff133"/><path d="M49-531l225.4 225.5-50 50L-1.3-480.8c5-20 30-45 50-50z" stroke="#000" stroke-width="1.2" fill="silver"/><path d="M186.7-418.2l-75 75c-14 0-25.5-11.4-25.2-25 0 0 0-25 25-50s50.2-25 50.2-25c11.6 1.5 21.4 12.4 25 25z" stroke="#000" stroke-width="1.2" fill="silver"/><path d="M186.7-418.2l50.2 75-50.3 50.2-75-50c-3-2.5 0-25 25-50.2s49-24.4 50-25z" stroke="#000" stroke-width="1.2" fill="silver"/><path d="M336.6-506.7c0-35.4 0-86.6 17.7-130C372-593.3 372-542 372-506.7h-35.4z" transform="matrix(-.7 .7 .6 .6 755.4 -275.5)" stroke="#000" stroke-width="1.2" fill="silver"/><path d="M319-506.7h17.6V-550c0-43.3-35.4-65-35.4-65L319-506.7z" transform="matrix(.7 -.7 .6 .6 254.3 225.5)" stroke="#000" stroke-width="1.2" fill="silver"/><path d="M319-506.7h17.6V-550c0-43.3-35.4-65-35.4-65L319-506.7z" transform="matrix(-.7 .7 .6 .6 755.4 -275.5)" stroke="#000" stroke-width="1.2" fill="silver"/><path d="M-314.4-894.3l37.6 37.6C-251.8-831.7-164-719-164-719s117.3 92.4 142.3 117.4L16-564c-25-25-180-129.8-180-129.8s92.2 142.3 129.8 180l-37.6-37.7c-25-25-117.3-142.3-117.3-142.3S-289.4-769-314.5-794l-50-50.2c25 25 175.3 125.3 175.3 125.3S-289.4-869-314.5-894.2z" stroke="#000" stroke-width="1.2" fill="#fff133"/><path d="M299.5-230.3c50 75 100.2 125.3 112.7 137.8 23.8 23.8 50 25 50 25s0-25-25-50c-12.4-12.6-62.5-62.7-137.7-112.8zM237-343c87.5 87.6 187.8 137.7 250.4 200.4 50 50 15.4 88.4 1.4 100.6-14 12-52 50.3-101.6-.4-62.7-62.6-112.8-163-200.5-250.6 0-25 25-50 50.2-50z" stroke="#000" stroke-width="1.2" fill="silver"/><path transform="matrix(-1.2 -1.4 -1.4 1.3 1166.1 -102.6)" stroke="#000" stroke-width="1.2" fill="silver" d="M218.3 258h23v73h-23z"/><g stroke="#000" fill="silver"><path d="M301.2 397l17.7 17.6-17.8 17.7 8.8 8.8 17.8-17.6 35.4 35.5-17.7 17.6 8.8 8.8 17.7-17.7 17.8 17.7-53.2 53.2-35.4-35.5 17.7-17.6 8.8 9 8.8-9-35.4-35.4-9 9 9 8.7-17.7 17.7-17.8-17.7 9-8.8-9-9-35.4 35.4 9 9 8.7-9 17.7 17.8L248 521l-8.8-9-9 9 35.5 35.3 9-9-9-8.7 17.8-17.7 35.4 35.3-53.3 53-17.7-17.6 17.7-17.7-8.8-8.8L239 583l-35.5-35.6 17.8-17.7-9-8.8-17.6 17.6L177 521l124-124.2z" transform="matrix(-2.3 0 0 2.2 360.6 -1733.7)" stroke-width=".6"/><path d="M-193.6-423.24v38.94l-97.35 97.46v-77.88l19.47-19.58h39.05l38.83-38.94zm97.56-96.58l-77.44 77.44-.88 38.72 78.32-78.43v-37.51z" stroke-width="1.21"/><path d="M-174.02-403.77l-38.94-38.94v-39.05l38.94 39.16v38.83zm101.6-99.4l-38.94-38.94v-39.05L-72.42-542v38.83zM-115.5-579v38.83l-19.47-19.47L-115.5-579zm-101.6 99.4v38.83l-19.47-19.47 19.47-19.36z" stroke-width="1.21"/><path d="M-34.64-580.32l-39.38 38.94v38.94l39.38-40.26v-37.4zm-240.98-42.05l-38.94-38.94v-39.05l38.94 39.16v38.83zm81.3 79.5l-38.94-38.94v-39.05l38.94 39.16v38.83zm19.47-99.83l-58.3-58.3v-39.05l77.88 77.88-19.58 19.58zM-237.4-738v38.83l-19.47-19.47L-237.4-738z" stroke-width="1.21"/><path d="M-275.62-622.37l39.05-38.83v-39.05l-39.05 38.94v38.83zm-97.46-20.33l58.52-58.3v-39.05l-78.1 77.88 19.58 19.58zm53.44 22.6l-78.1 78.1h-38.83l-19.47 19.36v78.1l136.4-137.06v-38.5zm87.21 235.8l-116.93-116.93h-38.94l116.6 116.93h39.05zm-58.52 19.58l-116.93-116.93 19.47-19.47L-271.7-384.3l-19.47 19.58z" stroke-width="1.21"/><path d="M-290.95-364.72v77.88l-116.93-116.93v-77.88l116.93 116.93zM-395.03-543.3l-116.93-116.93h-38.94l116.6 116.93h39.05zm-58.52 19.58l-116.93-116.93 19.47-19.47L-434.3-543.3l-19.47 19.58z" stroke-width="1.21"/><path d="M-453.55-523.72v77.88l-116.93-116.93v-77.88l116.93 116.93zm16.05-138.02l-19.36-19.47v-39.05l38.94 39.16-19.47 19.36zm101.6-99.4l-19.36-19.47v-39.05l38.94 39.16-19.47 19.36zm99.22 258.94v-39.05l-19.47 19.47 19.58 19.47zm42.36-40.67l39.05-38.83-19.58-19.58-19.47 19.47v38.83zm-122-159l19.47-19.47-19.47-19.47v38.83z" stroke-width="1.21"/></g><path stroke="#000" stroke-width="2.293" fill="#fff133" d="M554.77-47.24l-32.76-35.28L409.73 21.74l32.76 35.28z"/><path d="M526.56 213.75c0 27.93-67.26 67.45-67.26-33.63h67.26v33.63z" stroke="#000" stroke-width="2.28" fill="silver"/><path d="M706.3-55.48c279.3 0 214.7 311.98 190.57 235.6-17.86-56.05-67.45-134.52-123.5-152.38C696.8 3.42 722.64 45.6 694.9 45.6c-27.93 0-2.28-42.18-78.66-17.86-56.05 17.86-105.64 96.33-123.5 152.38-24.13 76.38-100.7-235.6 213.37-235.6z" stroke="#000" stroke-width="2.28" fill="silver"/><path d="M425.48 213.75c0 148.77 120.65 269.42 269.42 269.42 148.58 0 269.23-120.65 269.23-269.42v-33.63c0-55.1-67.26 235.6-269.23 235.6s-269.42-236.93-269.42-235.6v33.63z" stroke="#000" stroke-width="2.28" fill="silver"/><path d="M863.54 215.85c0 27.93 67.26 67.45 67.26-33.63h-67.26v33.63z" stroke="#000" stroke-width="2.28" fill="silver"/><path d="M425.48 180.12c0 148.77 120.65 269.23 269.42 269.23 148.58 0 269.23-120.46 269.23-269.23C964.13 31.54 843.48-89.3 694.9-89.3c-148.77 0-269.42 121.03-269.42 269.8zm101.08 0c0 27.93-43.32 5.7-17.86 81.7 17.86 53.2 51.3 86.64 107.54 104.5 76.38 24.13 50.73-17.86 78.66-17.86 27.74 0 1.9 41.8 78.47 17.86 56.05-17.86 89.87-51.3 107.54-107.54 24.13-76.38-17.86-50.73-17.86-78.66s41.8-1.9 17.67-78.47C862.86 45.6 829.04 11.78 772.99-5.89 696.8-30.4 722.64 11.4 694.9 11.4c-27.93 0-2.28-41.8-78.66-17.67C560 11.4 526.56 45.6 508.7 101.46c-24.13 76.38 17.86 50.54 17.86 78.47z" stroke="#000" stroke-width="2.28" fill="silver"/><path d="M126.5 157.7c-20.2 0-2 67.6-9 51.7s-11.2-33.4-11.2-51.7 4-35.8 11-51.7c7.3-16-11 51.7 9.3 51.7z" transform="matrix(-1.7 0 0 1.8 1107.2 -99.5)" stroke="#000" stroke-width="1.2" fill="silver"/><path d="M372 140c0 16-2 31.6-9.7 44.8-8 13.7 9.8-44.8-8-44.8 17.8 0 1.7-58.6 8-45 6.3 14 9.8 29 9.8 45z" transform="matrix(-1.9 0 0 2 1166.1 -106.2)" stroke="#000" stroke-width="1.2" fill="silver"/><path d="M603.13 397.1c28.12 12.16 59.28 18.62 91.77 18.62s63.46-6.46 91.58-18.43c28.5-11.78-91.58 18.62-91.58-15.2 0 33.82-119.7 3.42-91.77 15.2zM694.9-21.66c0-33.63 119.7-3.23 91.58-15.2s-58.9-18.43-91.58-18.43-63.65 6.65-91.77 18.62c-28.12 11.78 91.77-18.62 91.77 15.2z" stroke="#000" stroke-width="2.28" fill="silver"/><ellipse rx="18.4" ry="20.1" stroke="#000" transform="matrix(-1.3 -1.4 -1.4 1.3 1257.6 -120)" cy="160.9" cx="82.1" stroke-width="1.2" fill="#fff133"/><path d="M852.1-49.25c14.76 10.28 28.64 22.42 41.38 36.14s23.69 28.32 32.85 43.8l11.75-7c-9.81-16.18-21.54-31.62-34.8-45.9s-27.79-27.12-43.2-38.1l-7.98 11.06zM460.84 316.67c9.16 15.48 20.24 30.22 32.98 43.94s26.49 25.72 41.25 36l-7.85 11.2c-15.41-10.98-29.94-23.82-43.2-38.1s-24.99-29.72-34.8-45.9l11.62-7.14z" stroke="#000" stroke-width="2.293" fill="#fff133"/><path d="M443.29 356.17c9.16 15.48 24.86 29.58 37.6 43.3 12.61 13.58 28.87 23.51 43.49 33.92l3.12-25.84c-15.41-10.98-29.94-23.82-43.2-38.1s-24.99-29.72-34.8-45.9l-6.21 32.62zm390.88 60.99c15.48-9.16 30.22-20.24 43.94-32.98s25.72-26.49 36-41.25l11.2 7.85c-10.98 15.41-23.82 29.94-38.1 43.2s-29.72 24.99-45.9 34.8l-7.14-11.62z" stroke="#000" stroke-width="2.293" fill="#fff133"/><ellipse rx="18.4" ry="20.1" stroke="#000" transform="scale(-2 2) rotate(-47 -17.826 555.87)" cy="160.9" cx="82.1" stroke-width="1.2" fill="#fff133"/><path d="M841.91 426.78c15.48-9.16 27.7-17.9 41.7-30.9s31.16-31.02 41.57-45.64l3.2 30.4c-10.98 15.41-23.82 29.94-38.1 43.2s-29.72 24.99-45.9 34.8l-2.34-31.72z" stroke="#000" stroke-width="2.293" fill="#fff133"/><path d="M835.5 413.82l1.9 28.12 5.7 8.55-1.52-28.5-5.7-7.98zm-297.35-11.78l-6.84 7.98-1.9 25.84 5.32-5.7 3.23-28.12z" stroke="#000" stroke-width="2.28" fill="#fff133"/><ellipse rx="18.4" ry="20.1" stroke="#000" transform="matrix(-1.3 -1.4 -1.4 1.3 1237.6 329.9)" cy="160.9" cx="82.1" stroke-width="1.2" fill="#fff133"/></g><path d="M431.34 176.36l-7.08-3.54-7.08 3.56s14.66 7.1 14.66 31.9c0 17.72-25.04 21.26-25.04 42.52 0 9.1 6.8 17.7 13.92 17.7s17.74-3.54 28.36-14.2c-7.08 3.56-15.2 7.48-21.26 7.24-3.92-.08-11-3.56-11-10.64 0-14.2 24.56-21.4 24.56-42.64 0-24.8-10-31.9-10-31.9z" stroke="#000" stroke-width=".24" fill="#fff"/><path d="M430.04 176.36l-9.34-3.56-2 3.56s14.14 7.1 14.14 31.9c0 17.72-25.2 21.26-25.2 42.52 0 9.1 5.36 17.46 13.08 17.7 14.7.46 18.1-4.8 28.36-14.2-8.64 6.48-21 9.4-25.8 6.86-5.88-3.08-7-7.2-7-10.76 0-14.2 24.16-20.88 24.16-42.14 0-24.8-10.4-31.9-10.4-31.9z" stroke="#000" stroke-width=".24" fill="#fff"/><path d="M431.44 176.46c-1.4-.48-7.2-3.64-14.26 3.46-3.56 3.54-3.56 10.6-3.56 14.16l-10.6-10.6s5.8-17.4 21.5-10.74c2.24 1 5.64 2.9 6.94 3.72z" stroke="#000" stroke-width=".24" fill="#fff"/><path d="M429.34 175.2c-1.76-.56-7.34-1.26-12.92 3.72-3.54 3.54-3.8 8.6-3.8 12.12l-8.12-7.6c-.7-.6 4.96-16.24 19.84-10.8.9.4 2.96 1.26 5 2.6z" stroke="#000" stroke-width=".24" fill="#fff"/><path d="M344.5-596.3l9.2 22.2s1.4-10 8.5-11.7l7-1.8s27 49.4 32.3 58.2c5.3 9-3.6 16.8-1.8 16.8s26.5-11.5 26.5-11.5-10.6 1-15-6.2-34.8-60-34.8-60 6-2.6 11.5-5.2c5.2-2.7 10.5 8 10.5 8L385.2-614s0 9-4.4 10.6c-4.4 1.8-8 3.6-8 3.6s-3.5-6.2-8-13.3c-4.3-7.2 4.5-14.2 4.5-14.2l-23 11.5s8 4.4 10.6 8.8l5.2 9s-3.2 1.7-8.2 3.4c-3.6 2-7.7 0-9.5-1.7z" transform="matrix(-.2 0 -.1 .2 439.5 337.1)" stroke="#000" stroke-width="1.2" fill="#fff133"/><path d="M344.5-596.3l9.2 22.2s1.4-10 8.5-11.7l7-1.8s27 49.4 32.3 58.2c5.3 9-3.6 16.8-1.8 16.8s26.5-11.5 26.5-11.5-10.6 1-15-6.2-34.8-60-34.8-60 6-2.6 11.5-5.2c5.2-2.7 10.5 8 10.5 8L385.2-614s0 9-4.4 10.6c-4.4 1.8-8 3.6-8 3.6s-3.5-6.2-8-13.3c-4.3-7.2 4.5-14.2 4.5-14.2l-23 11.5s8 4.4 10.6 8.8l5.2 9s-3.2 1.7-8.2 3.4c-3.6 2-7.7 0-9.5-1.7z" transform="matrix(.2 0 0 -.1 320.6 95.2)" stroke="#000" stroke-width="1.2" fill="#fff133"/><g transform="matrix(.1 0 0 .1 423.6 295.3)"><g transform="rotate(45 478.1 -504.6)"><ellipse rx="35.4" ry="35.4" stroke="#000" transform="translate(124 283.5)" cy="-1428" cx="354.3" stroke-width="1.2" fill="silver"/><path d="M460.6-1126.8v53.2H496v-53.2c0-17.7-35.4-17.7-35.4 0z" stroke="#000" stroke-width="1.2" fill="#fff133"/><path d="M443-1066h70.8c9.7-9.8 9.7-26.2 0-35.5-26-10.6-45-9.5-71 0-8.2 9.3-9.3 24.8 0 35.4z" stroke="#000" stroke-width="1.2" fill="silver"/><path d="M443-1073.6v53h70.8v-53c-17.7-10.6-53.2-10.6-71 0z" stroke="#000" stroke-width="1.2" fill="#fff133"/><path d="M443-1013h70.8c9.7-9.7 9.7-26 0-35.4-26-10.6-45-9.5-71 0-8.2 9.4-9.3 25 0 35.5z" stroke="#000" stroke-width="1.2" fill="silver"/><path fill="#fff133" d="M443-117h70.8v248h-71z"/><path d="M443-1020.5v484.8h70.8v-484.8c-17.7-10.6-53.2-10.6-71 0z" stroke="#000" stroke-width="1.2" fill="#fff133"/><path d="M443-506.7h70.8c9.7-9.8 9.7-26 0-35.4-26-10.7-45-9.6-71 0-8.2 9.2-9.3 24.7 0 35.3z" stroke="#000" stroke-width="1.2" fill="silver"/><path d="M443-506.7v319h70.8v-319c-17.7-10.6-53.2-10.6-71 0z" stroke="#000" stroke-width="1.2" fill="#fff133"/><path d="M425.2-329.5h106.3c9.7-9.8 9.7-26 0-35.5 0 0-17.7-17.7-53.2-17.7s-53 17.7-53 17.7c-7.2 9.4-6.4 24 0 35.5z" stroke="#000" stroke-width="1.2" fill="#fff133"/><path d="M425.2-329.5L443-241h70.8l17.7-88.5c.3-3.8-17.7-17.7-53.2-17.7s-52 17.3-53 17.7z" stroke="#000" stroke-width="1.2" fill="#fff133"/><path d="M336.6-506.7c0-35.4 0-86.6 17.7-130C372-593.3 372-542 372-506.7h-35.4z" transform="matrix(1 0 0 .8 124 173.4)" stroke="#000" stroke-width="1.2" fill="#fff133"/><path d="M319-506.7h17.6V-550c0-43.3-35.4-65-35.4-65L319-506.7z" transform="matrix(-1 0 0 .8 832.7 173.4)" stroke="#000" stroke-width="1.2" fill="#fff133"/><path d="M319-506.7h17.6V-550c0-43.3-35.4-65-35.4-65L319-506.7z" transform="matrix(1 0 0 .8 124 173.4)" stroke="#000" stroke-width="1.2" fill="#fff133"/><path d="M478.3-117C496-28.2 496 42.6 496 60.3c0 33.7-17.7 53.2-17.7 53.2s-17.7-17.7-17.7-53.2c0-17.7 0-88.6 17.7-177zM443-241c0 124-35.5 230.4-35.5 319 0 70.8 51.6 73.4 70 72 18.6-1.2 72.4-1 71.7-72 0-88.6-35.4-195-35.4-319-17.7-17.7-53.2-17.7-71 0z" stroke="#000" stroke-width="1.2" fill="#fff133"/><path d="M443-1020.5v53.2c0 35.4 17.6 177 17.6 177S443-642 443-606.5v53.2c0-35.4 35.3-219 35.3-219s35.5 165.8 35.5 219v-53.2c0-35.4-17.7-183.6-17.7-183.6s17.8-124 17.8-159.4v-71c0 35.6-35.4 212.7-35.4 212.7S443-985 443-1020.4z" stroke="#000" stroke-width="1.2" fill="silver"/></g><path transform="matrix(1.2 -1.4 1.4 1.3 -662.5 -102.6)" stroke="#000" stroke-width="1.2" fill="#fff133" d="M218.3 258h23v73h-23z"/><path d="M-22.96 213.75c0 27.93 67.26 67.45 67.26-33.63h-67.26v33.63z" stroke="#000" stroke-width="2.28" fill="#fff133"/><path d="M-202.7-55.48c-279.3 0-214.7 311.98-190.57 235.6 17.86-56.05 67.45-134.52 123.5-152.38C-193.2 3.42-219.04 45.6-191.3 45.6c27.93 0 2.28-42.18 78.66-17.86C-56.59 45.6-7 124.07 10.86 180.12c24.13 76.38 100.7-235.6-213.37-235.6z" stroke="#000" stroke-width="2.28" fill="#fff133"/><path d="M78.12 213.75c0 148.77-120.65 269.42-269.42 269.42-148.58 0-269.23-120.65-269.23-269.42v-33.63c0-55.1 67.26 235.6 269.23 235.6S78.12 178.79 78.12 180.12v33.63z" stroke="#000" stroke-width="2.28" fill="#fff133"/><ellipse rx="18.4" ry="20.1" stroke="#000" transform="matrix(1.3 -1.4 1.4 1.3 -753.9 -120)" cy="160.9" cx="82.1" stroke-width="1.2" fill="silver"/><path stroke="#000" stroke-width="2.293" fill="silver" d="M-51.17-47.24l32.76-35.28L93.87 21.74 61.11 57.02z"/><path d="M-359.84 215.85c0 27.93-67.26 67.45-67.26-33.63h67.26v33.63z" stroke="#000" stroke-width="2.28" fill="#fff133"/><path d="M78.12 180.12c0 148.77-120.65 269.23-269.42 269.23-148.58 0-269.23-120.46-269.23-269.23 0-148.58 120.65-269.42 269.23-269.42 148.77 0 269.42 121.03 269.42 269.8zm-101.08 0c0 27.93 43.32 5.7 17.86 81.7-17.86 53.2-51.3 86.64-107.54 104.5-76.38 24.13-50.73-17.86-78.66-17.86-27.74 0-1.9 41.8-78.47 17.86-56.05-17.86-89.87-51.3-107.54-107.54-24.13-76.38 17.86-50.73 17.86-78.66s-41.8-1.9-17.67-78.47c17.86-56.05 51.68-89.87 107.73-107.54C-193.2-30.4-219.04 11.4-191.3 11.4c27.93 0 2.28-41.8 78.66-17.67C-56.4 11.4-22.96 45.6-5.1 101.46c24.13 76.38-17.86 50.54-17.86 78.47z" stroke="#000" stroke-width="2.28" fill="#fff133"/><path d="M126.5 157.7c-20.2 0-2 67.6-9 51.7s-11.2-33.4-11.2-51.7 4-35.8 11-51.7c7.3-16-11 51.7 9.3 51.7z" transform="matrix(1.7 0 0 1.8 -603.6 -99.5)" stroke="#000" stroke-width="1.2" fill="#fff133"/><path d="M372 140c0 16-2 31.6-9.7 44.8-8 13.7 9.8-44.8-8-44.8 17.8 0 1.7-58.6 8-45 6.3 14 9.8 29 9.8 45z" transform="matrix(1.9 0 0 2 -662.5 -106.2)" stroke="#000" stroke-width="1.2" fill="#fff133"/><path d="M-99.53 397.1c-28.12 12.16-59.28 18.62-91.77 18.62s-63.46-6.46-91.58-18.43c-28.5-11.78 91.58 18.62 91.58-15.2 0 33.82 119.7 3.42 91.77 15.2zM-191.3-21.66c0-33.63-119.7-3.23-91.58-15.2s58.9-18.43 91.58-18.43 63.65 6.65 91.77 18.62c28.12 11.78-91.77-18.62-91.77 15.2z" stroke="#000" stroke-width="2.28" fill="#fff133"/><path d="M-348.4-49.25c-14.76 10.28-28.64 22.42-41.38 36.14s-23.69 28.32-32.85 43.8l-11.75-7c9.81-16.18 21.54-31.62 34.8-45.9s27.79-27.12 43.2-38.1l7.98 11.06zM42.76 316.67c-9.16 15.48-20.24 30.22-32.98 43.94s-26.49 25.72-41.25 36l7.85 11.2c15.41-10.98 29.94-23.82 43.2-38.1s24.99-29.72 34.8-45.9l-11.62-7.14z" stroke="#000" stroke-width="2.293" fill="silver"/><path d="M60.31 356.17c-9.16 15.48-24.86 29.58-37.6 43.3-12.61 13.58-28.87 23.51-43.49 33.92l-3.12-25.84c15.41-10.98 29.94-23.82 43.2-38.1s24.99-29.72 34.8-45.9l6.21 32.62zm-390.88 60.99c-15.48-9.16-30.22-20.24-43.94-32.98s-25.72-26.49-36-41.25l-11.2 7.85c10.98 15.41 23.82 29.94 38.1 43.2s29.72 24.99 45.9 34.8l7.14-11.62z" stroke="#000" stroke-width="2.293" fill="silver"/><ellipse rx="18.4" ry="20.1" stroke="#000" transform="rotate(-47 220.2 481.8) scale(1.9)" cy="160.9" cx="82.1" stroke-width="1.2" fill="silver"/><path d="M-338.31 426.78c-15.48-9.16-27.7-17.9-41.7-30.9s-31.16-31.02-41.57-45.64l-3.2 30.4c10.98 15.41 23.82 29.94 38.1 43.2s29.72 24.99 45.9 34.8l2.34-31.72z" stroke="#000" stroke-width="2.293" fill="silver"/><path d="M-331.9 413.82l-1.9 28.12-5.7 8.55 1.52-28.5 5.7-7.98zm297.35-11.78l6.84 7.98 1.9 25.84-5.32-5.7-3.23-28.12z" stroke="#000" stroke-width="2.28" fill="silver"/><ellipse rx="18.4" ry="20.1" stroke="#000" transform="rotate(-47 17.6 1003.6) scale(1.9)" cy="160.9" cx="82.1" stroke-width="1.2" fill="silver"/><g stroke="#000" fill="#fff133"><path d="M301.2 397l17.7 17.6-17.8 17.7 8.8 8.8 17.8-17.6 35.4 35.5-17.7 17.6 8.8 8.8 17.7-17.7 17.8 17.7-53.2 53.2-35.4-35.5 17.7-17.6 8.8 9 8.8-9-35.4-35.4-9 9 9 8.7-17.7 17.7-17.8-17.7 9-8.8-9-9-35.4 35.4 9 9 8.7-9 17.7 17.8L248 521l-8.8-9-9 9 35.5 35.3 9-9-9-8.7 17.8-17.7 35.4 35.3-53.3 53-17.7-17.6 17.7-17.7-8.8-8.8L239 583l-35.5-35.6 17.8-17.7-9-8.8-17.6 17.6L177 521l124-124.2z" transform="matrix(2.3 0 0 2.2 143.1 -1733.7)" stroke-width=".6"/><path d="M697.3-423.24v38.94l97.35 97.46v-77.88l-19.47-19.58h-39.05l-38.83-38.94zm-97.66-96.58l77.44 77.44.88 38.72-78.32-78.43v-37.51z" stroke-width="1.21"/><path d="M677.72-403.77l38.94-38.94v-39.05l-38.94 39.16v38.83zm-101.7-99.4l38.94-38.94v-39.05L576.02-542v38.83zM619.2-579v38.83l19.47-19.47L619.2-579zm101.6 99.4v38.83l19.47-19.47-19.47-19.36z" stroke-width="1.21"/><path d="M538.34-580.32l39.38 38.94v38.94l-39.38-40.26v-37.4zm240.98-42.05l38.94-38.94v-39.05l-38.94 39.16v38.83zm-81.3 79.5l38.94-38.94v-39.05l-38.94 39.16v38.83zm-19.47-99.83l58.3-58.3v-39.05l-77.88 77.88 19.58 19.58zM741.1-738v38.83l19.47-19.47L741.1-738z" stroke-width="1.21"/><path d="M779.32-622.37l-39.05-38.83v-39.05l39.05 38.94v38.83zm97.46-20.33L818.26-701v-39.05l78.1 77.88-19.58 19.58zm-53.54 22.6l78.1 78.1h38.83l19.47 19.36v78.1L823.24-581.6v-38.5zm-87.11 235.8l116.93-116.93H892L775.4-384.3h-39.05zm58.52 19.58l116.93-116.93-19.47-19.47L775.4-384.3l19.47 19.58z" stroke-width="1.21"/><path d="M794.65-364.72v77.88l116.93-116.93v-77.88L794.65-364.72zM898.73-543.3l116.93-116.93h38.94L938-543.3h-39.05zm58.52 19.58l116.93-116.93-19.47-19.47L938-543.3l19.47 19.58z" stroke-width="1.21"/><path d="M957.25-523.72v77.88l116.93-116.93v-77.88L957.25-523.72zM941.2-661.74l19.36-19.47v-39.05l-38.94 39.16 19.47 19.36zm-101.7-99.4l19.36-19.47v-39.05l-38.94 39.16 19.47 19.36zM740.38-502.2v-39.05l19.47 19.47-19.58 19.47zm-42.36-40.67l-39.05-38.83 19.58-19.58 19.47 19.47v38.83zm121.9-159l-19.47-19.47 19.47-19.47v38.83z" stroke-width="1.21"/></g></g><path d="M452.1 279.3zm0-1.9zm0-2.4zm0-1.9zm-.1 14.7zm0-1.9zm0-2.3zm.1-1.9zm.1-19.6zm.1-1.9zm0-2.3zm0-1.9zm-.1 14.7zm0-1.9zm0-2.4zm0-1.9zm-.5 49zm.1-1.9zm0-2.3zm0-2zm-.2 14.8zm.1-1.9zm0-2.4zm0-1.9zm.2-19.5zm0-1.9zm0-2.4zm.1-1.9zm-.2 14.8zm0-1.9zm0-2.4zm.1-1.9zm-.5 49zm0-1.9zm0-2.4zm0-1.9zm-.1 12.8zm0-2.3zm.1-1.9zm.1-19.5zm.1-1.9zm0-2.4zm0-1.9zm-.2 14.7zm.1-1.9zm0-2.4zm0-1.9zm-.4 36.3zm.1-1.9zm0-2.4zm0-1.9zm-.1 12.9zm0-2.4zm0-1.9zm.1-11zm.1-1.9zm0-2.3zm3.7-76.9zm0-1.9zm0-2.4zm0-1.9zm0 14.7zm0-1.9zm0-2.4zm0-1.9zm0-19.5zm0-1.9zm-.1-2.4zm0-1.9zm.1 14.8zm0-1.9zm0-2.4zm0-1.9zm.1 49zm0-1.9zm0-2.4zm0-1.9zm0 14.8zm.1-1.9zm-.1-2.4zm0-1.9zm0-19.5zm0-1.9zm-.1-2.4zm.1-1.9zm0 14.8zm0-2zm0-2.3zm0-1.9zm.1 49zm0-1.9zm0-2.4zm0-1.9zm.1 12.8zm-.1-2.3zm0-2zm0-19.5zm0-1.9zm0-2.3zm0-1.9zm0 14.7zm0-1.9zm0-2.4zm0-1.9zm.1 36.3zm0-1.9zm0-2.4zm0-1.9zm0 12.9zm0-2.4zm0-1.9zm0-11zm0-1.9zm0-2.4zm11.4-90.3zm-3.6-3.7zm1.3 2.3zm-1.7-5.9zm2.4 0zm-12.9 0zm2.4 0zm3 .1zm2.1 0zm-11-1.1zm1.7.4zm-.9-1.5zm51.4 99.2zm2.2-.6zm2.7-.7zm2.1-.6zm16.1-7zm2-6zm-.9 3.9zm-34.3 13.1zm2.2-.5zm3.5-.6zm.8-.7zm13.3-2.9zm2.2-.6zm-54.1 7.1zm2.3-.1zm2.8 0zm2.3-.1zm-17.6.4zm2.3-.1zm2.8 0zm2.3-.1zm24-.5zm2.6-.3zm2.8-.3zm2.7-.2zm-19 1.1zm2.6 0zm3.2-.1zm1.8-.4zm-59.9-1.2zm2.2.3zm3.5.7zm2.2.1zm-15.8-2.2zm2.8.4zm2.3.3zm23.8 2.1zm2.3.1zm3.4.4zm2.3-.1zm-18.2-.9zm2.3.1zm2.8.2zm2.3.1zm-35-21.2zm-2.8 4zm-.1 4.1zm.7 3.5zm7.7-17.3zm-1.7 1.9zm-2.5 1.7zm-1.5 17zm3 1.9zm3.8 1.4zm110.2-5.1zm.2.4zm4.8-2.7zm-3.1 1.5zm-7.1-9.9zm-2-.9zm-3.1-1.2zm12.1 5.4zm-2.5-1.2zm-2-.9z" fill="#b00"/><g transform="matrix(.1 0 0 .1 438.4 288.1)"><path d="M212.6-1995v53.2h-53v35.5h53v106.3H248v-106.3h53.2v-35.5H248v-53h-35.4z" stroke="#000" stroke-width="1.2" fill="#fff133"/><ellipse rx="62" ry="57.3" stroke="#000" transform="matrix(.6 0 0 .6 93.6 -678.9)" cy="-1813.5" cx="239.2" stroke-width="1.2" fill="#fff133"/><path d="M602.4-1119.4c0 68.5-10.5 145.7-29.3 205C453-940.8 305-954 234-954c-87.4 0-246 13-345 26.3-18.8-59.3-30.5-123.3-30.5-191.8 0-273.8 105.2-390.2 367.5-496 233.3 105.8 376.6 222.2 376.6 496z" transform="matrix(1.1 0 0 1.3 -5.8 363.7)" stroke="#000" stroke-width="1.2" fill="#fff"/><path d="M567-657.3c0-44-151-79.7-336.7-79.7s-336.6 35.7-336.6 79.7v26.6c0-44 150.8-71 336.6-71S567-657 567-613v-44.3z" transform="matrix(1.2 0 0 .7 -32.8 -634.9)" stroke="#000" stroke-width="1.2" fill="#fff133"/><g stroke="#000" stroke-width="1.2" fill="#fff133"><path d="M230.3-825.6l-53 53.2 35.3 35.4-17.7 17.7-35.5-35.4-53.2 53 53.2 53.3L195-684l17.6 18v53H248v-53l17.8-18 35.4 35.6 53-53.2-53-53-35.4 35.3L248-737l35.5-35.4-53.2-53.2z" transform="matrix(1.2 0 0 .7 -33.1 -766.8)"/><path d="M221-825.6l-8.4 53.2v35.4L195-719.3v-35.4l-17.8 53 17.7 53.3V-684l17.6 18v53h17.7v-53l17.7-18v35.6l17.8-53.2-17.8-53v35.3L230.3-737v-35.4l-9.3-53.2z" transform="matrix(1.1 -.2 .3 .7 -190 -703.6)"/><path d="M221-825.6l-8.4 53.2v35.4L195-719.3v-35.4l-17.8 53 17.7 53.3V-684l17.6 18v53h17.7v-53l17.7-18v35.6l17.8-53.2-17.8-53v35.3L230.3-737v-35.4l-9.3-53.2z" transform="matrix(1.1 .2 -.3 .7 182.2 -778.4)"/><path d="M141.7-1020.5c0-17.7 17.7-35.4 35.5-35.4 17.7 0 35.4 17.8 35.4 35.5S195-985 195-985l70.7 70.8h-35.4l-53-53.2-53.3 53.2H88.6l70.8-71s-17.7-17.6-17.7-35.3z" transform="matrix(.9 -.1 .2 .7 28.8 -521.9)"/><path d="M141.7-1020.5c0-17.7 17.7-35.4 35.5-35.4 17.7 0 35.4 17.8 35.4 35.5S195-985 195-985l70.7 70.8h-35.4l-53-53.2-53.3 53.2H88.6l70.8-71s-17.7-17.6-17.7-35.3z" transform="matrix(.9 .1 -.2 .7 124.8 -554.1)"/><path d="M567-657.3c0-44-151-79.7-336.7-79.7s-336.6 35.7-336.6 79.7v26.6c0-44 150.8-71 336.6-71S567-657 567-613v-44.3z" transform="matrix(1.2 0 0 .7 -33.1 -674.5)"/></g><path d="M567-657.3c0-44-151-79.7-336.7-79.7s-336.6 35.7-336.6 79.7v26.6c0-44 150.8-71 336.6-71S567-657 567-613v-44.3z" transform="matrix(1.1 0 0 .7 -9.3 -386.9)" stroke="#000" stroke-width="1.2" fill="#fff133"/><g stroke="#000" stroke-width="1.2" fill="#fff133"><path d="M230.3-825.6l-53 53.2 35.3 35.4-17.7 17.7-35.5-35.4-53.2 53 53.2 53.3L195-684l17.6 18v53H248v-53l17.8-18 35.4 35.6 53-53.2-53-53-35.4 35.3L248-737l35.5-35.4-53.2-53.2z" transform="matrix(1.1 0 0 .7 -12.9 -518.8)"/><path d="M221-825.6l-8.4 53.2v35.4L195-719.3v-35.4l-17.8 53 17.7 53.3V-684l17.6 18v53h17.7v-53l17.7-18v35.6l17.8-53.2-17.8-53v35.3L230.3-737v-35.4l-9.3-53.2z" transform="matrix(1.1 -.2 .3 .7 -160.7 -455.6)"/><path d="M221-825.6l-8.4 53.2v35.4L195-719.3v-35.4l-17.8 53 17.7 53.3V-684l17.6 18v53h17.7v-53l17.7-18v35.6l17.8-53.2-17.8-53v35.3L230.3-737v-35.4l-9.3-53.2z" transform="matrix(1.1 .2 -.3 .7 189.8 -530.4)"/><path d="M141.7-1020.5c0-17.7 17.7-35.4 35.5-35.4 17.7 0 35.4 17.8 35.4 35.5S195-985 195-985l70.7 70.8h-35.4l-53-53.2-53.3 53.2H88.6l70.8-71s-17.7-17.6-17.7-35.3z" transform="matrix(.9 -.1 .2 .7 45.4 -273.9)"/><path d="M141.7-1020.5c0-17.7 17.7-35.4 35.5-35.4 17.7 0 35.4 17.8 35.4 35.5S195-985 195-985l70.7 70.8h-35.4l-53-53.2-53.3 53.2H88.6l70.8-71s-17.7-17.6-17.7-35.3z" transform="matrix(.9 .1 -.2 .7 135.8 -306)"/><path d="M567-657.3c0-44-151-79.7-336.7-79.7s-336.6 35.7-336.6 79.7v26.6c0-44 150.8-71 336.6-71S567-657 567-613v-44.3z" transform="matrix(1.1 0 0 .7 -12.9 -426.4)"/></g><path d="M567-657.3c0-44-151-79.7-336.7-79.7s-336.6 35.7-336.6 79.7v26.6c0-44 150.8-71 336.6-71S567-657 567-613v-44.3z" transform="matrix(1.1 0 0 .7 -16.1 -865.2)" stroke="#000" stroke-width="1.2" fill="#fff133"/><g stroke="#000" stroke-width="1.2" fill="#fff133"><path d="M230.3-825.6l-53 53.2 35.3 35.4-17.7 17.7-35.5-35.4-53.2 53 53.2 53.3L195-684l17.6 18v53H248v-53l17.8-18 35.4 35.6 53-53.2-53-53-35.4 35.3L248-737l35.5-35.4-53.2-53.2z" transform="matrix(1.1 0 0 .7 -6.2 -1031.3)"/><path d="M221-825.6l-8.4 53.2v35.4L195-719.3v-35.4l-17.8 53 17.7 53.3V-684l17.6 18v53h17.7v-53l17.7-18v35.6l17.8-53.2-17.8-53v35.3L230.3-737v-35.4l-9.3-53.2z" transform="matrix(1 -.2 .3 .7 -150.7 -971.8)"/><path d="M221-825.6l-8.4 53.2v35.4L195-719.3v-35.4l-17.8 53 17.7 53.3V-684l17.6 18v53h17.7v-53l17.7-18v35.6l17.8-53.2-17.8-53v35.3L230.3-737v-35.4l-9.3-53.2z" transform="matrix(1.1 .2 -.2 .7 192.1 -1042.3)"/><path d="M141.7-1020.5c0-17.7 17.7-35.4 35.5-35.4 17.7 0 35.4 17.8 35.4 35.5S195-985 195-985l70.7 70.8h-35.4l-53-53.2-53.3 53.2H88.6l70.8-71s-17.7-17.6-17.7-35.3z" transform="matrix(.9 -.1 .2 .7 50.8 -800.3)"/><path d="M141.7-1020.5c0-17.7 17.7-35.4 35.5-35.4 17.7 0 35.4 17.8 35.4 35.5S195-985 195-985l70.7 70.8h-35.4l-53-53.2-53.3 53.2H88.6l70.8-71s-17.7-17.6-17.7-35.3z" transform="matrix(.9 .1 -.2 .7 139.3 -830.7)"/><path d="M567-657.3c0-44-151-79.7-336.7-79.7s-336.6 35.7-336.6 79.7v26.6c0-44 150.8-71 336.6-71S567-657 567-613v-44.3z" transform="matrix(1.1 0 0 .7 -6.2 -944.2)"/></g><ellipse rx="375.9" ry="120.5" transform="matrix(1 0 0 .4 12.9 -517.5)" cy="-822.1" cx="234.1" fill="#b90000"/></g><path d="M484.66 178.16l7.08-3.54 7.08 3.56s-14.66 7.1-14.66 31.9c0 17.72 25.04 21.26 25.04 42.52 0 9.1-6.8 17.7-13.92 17.7s-17.74-3.54-28.36-14.2c7.08 3.56 15.2 7.48 21.26 7.24 3.92-.08 11-3.56 11-10.64 0-14.2-24.56-21.4-24.56-42.64 0-24.8 10-31.9 10-31.9z" stroke="#000" stroke-width=".24" fill="#fff"/><path d="M485.96 178.16l9.34-3.56 2 3.56s-14.14 7.1-14.14 31.9c0 17.72 25.2 21.26 25.2 42.52 0 9.1-5.36 17.46-13.08 17.7-14.7.46-18.1-4.8-28.36-14.2 8.64 6.48 21 9.4 25.8 6.86 5.88-3.08 7-7.2 7-10.76 0-14.2-24.16-20.88-24.16-42.14 0-24.8 10.4-31.9 10.4-31.9z" stroke="#000" stroke-width=".24" fill="#fff"/><path d="M484.56 178.26c1.4-.48 7.2-3.64 14.26 3.46 3.56 3.54 3.56 10.6 3.56 14.16l10.6-10.6s-5.8-17.4-21.5-10.74c-2.24 1-5.64 2.9-6.94 3.72z" stroke="#000" stroke-width=".24" fill="#fff"/><path d="M486.66 177c1.76-.56 7.34-1.26 12.92 3.72 3.54 3.54 3.8 8.6 3.8 12.12l8.12-7.6c.7-.6-4.96-16.24-19.84-10.8-.9.4-2.96 1.26-5 2.6z" stroke="#000" stroke-width=".24" fill="#fff"/><path d="M344.5-596.3l9.2 22.2s1.4-10 8.5-11.7l7-1.8s27 49.4 32.3 58.2c5.3 9-3.6 16.8-1.8 16.8s26.5-11.5 26.5-11.5-10.6 1-15-6.2-34.8-60-34.8-60 6-2.6 11.5-5.2c5.2-2.7 10.5 8 10.5 8L385.2-614s0 9-4.4 10.6c-4.4 1.8-8 3.6-8 3.6s-3.5-6.2-8-13.3c-4.3-7.2 4.5-14.2 4.5-14.2l-23 11.5s8 4.4 10.6 8.8l5.2 9s-3.2 1.7-8.2 3.4c-3.6 2-7.7 0-9.5-1.7z" transform="matrix(.2 0 .1 .2 476.4 338.9)" stroke="#000" stroke-width="1.2" fill="#fff133"/><path d="M344.5-596.3l9.2 22.2s1.4-10 8.5-11.7l7-1.8s27 49.4 32.3 58.2c5.3 9-3.6 16.8-1.8 16.8s26.5-11.5 26.5-11.5-10.6 1-15-6.2-34.8-60-34.8-60 6-2.6 11.5-5.2c5.2-2.7 10.5 8 10.5 8L385.2-614s0 9-4.4 10.6c-4.4 1.8-8 3.6-8 3.6s-3.5-6.2-8-13.3c-4.3-7.2 4.5-14.2 4.5-14.2l-23 11.5s8 4.4 10.6 8.8l5.2 9s-3.2 1.7-8.2 3.4c-3.6 2-7.7 0-9.5-1.7z" transform="matrix(-.2 0 0 -.1 595.4 97)" stroke="#000" stroke-width="1.2" fill="#fff133"/><path d="M457.9 383.8zm-5.2 2.9zm3.3-.2zm-4.6 3.4zm4-.2z" fill="#b00"/><path fill="#ffe000" d="M0 0h320v480H0z"/></g></svg>