<svg xmlns="http://www.w3.org/2000/svg" viewBox="0 0 640 480" version="1"><g clip-path="red"><path fill="#006" d="M0 0h960v480H0z"/><path fill-rule="evenodd" fill="#006" d="M0 0h350.002v175H0z"/><g stroke-width="1pt"><path d="M0 0v19.566L310.87 175H350v-19.565L39.133 0H0zm350.002 0v19.565L39.13 175H0v-19.564L310.87 0H350z" fill="#fff"/><path d="M145.834 0v175h58.334V0h-58.334zM0 58.334v58.333h350.002V58.334H0z" fill="#fff"/><path d="M0 70v35h350.002V70H0zM157.5 0v175h35V0h-35zM0 175l116.667-58.333h26.087L26.087 175H0zM0 0l116.667 58.334H90.58L0 13.044V0zm207.248 58.334L323.915 0h26.087L233.334 58.334h-26.086zM350.002 175l-116.668-58.334h26.087l90.58 45.29V175z" fill="#c00"/></g><path d="M378.474 154.457l219.342-.814-.407 195.333s7.73 29.706-91.97 74.876c35.81-3.663 74.876-41.914 74.876-41.914s15.87-20.347 23.603-8.953c7.73 11.394 15.056 17.09 20.753 21.568 5.697 4.476 10.174 16.685 1.628 25.637-8.545 8.952-21.973 10.173-25.636-.814-5.697 2.85-40.693 45.17-112.31 47.205-72.84-1.22-112.72-47.61-112.72-47.61s-9.766 15.465-23.602 3.257c-13.428-15.87-3.255-26.044-3.255-26.044s11.394-6.51 14.65-10.987c5.29-6.104 6.917-14.243 15.87-14.243 10.58.814 14.65 9.36 14.65 9.36s36.624 38.66 76.096 43.542c-89.12-42.728-92.375-69.18-91.968-75.69l.407-193.7z" fill-rule="evenodd" fill="#fff"/><path d="M383.76 159.743l209.16-1.22v188.003c.407 24.416-40.694 49.24-104.99 80.98-66.323-34.183-104.57-54.94-104.98-81.38l.813-186.373z" fill-rule="evenodd" stroke="#000" stroke-width="1.717" fill="#006129"/><path d="M408.912 366.902l12.346-18.133 12.407 18.17" stroke="#f7c600" stroke-width="1.718" fill="none"/><path d="M423.74 360.115a2.452 2.452 0 1 1-4.905.002 2.452 2.452 0 0 1 4.904-.002z" fill-rule="evenodd" stroke="#000" stroke-width=".805" fill="#f7c600"/><path d="M411.233 380.3l19.14.054s.3-2.484-2-3.994c10.027-1.378 7.423-10.222 15.82-10.723 1.63.25-4.387 3.76-4.387 3.76s-5.062 3.572-2.757 5.388c1.83 1.442 2.63-.877 2.88-2.63.25-1.756 8.145-2.884 7.02-7.896-1.88-4.14-12.91 2.754-12.91 2.754l-7.868-.044c-.49-.882-2.66-4.423-4.898-4.44-2.657.097-4.528 4.485-4.528 4.485H398.95s-.61 4.566 8.414 5.443c2.032 2.652 3.607 3.393 5.373 4.08-1.178.98-1.51 2.168-1.504 3.76z" fill-rule="evenodd" stroke="#000" stroke-width=".805" fill="#f7c600"/><path d="M412.61 376.41l15.944-.053m-23.244-9.35s1.275 7.458 7.16 9.224" stroke="#000" stroke-width=".805" fill="none"/><path d="M404.325 366.91c.589-2.844 1.667-3.336 2.844-6.966.198-3.532-2.844-3.14-1.96-5.396 1.57-2.453.784-4.808-2.159-6.672.589 3.237-3.827 6.279-3.827 8.927s2.258 2.063 1.963 6.083c.195 2.354-.589 1.767-.785 4.023h3.924z" fill-rule="evenodd" stroke="#000" stroke-width=".805" fill="red"/><path d="M423.542 349.227a2.256 2.256 0 1 1-4.512 0 2.256 2.256 0 0 1 4.512 0z" fill-rule="evenodd" stroke="#000" stroke-width=".805" fill="#f7c600"/><path d="M408.214 329.58l12.346-18.134 12.407 18.172" stroke="#f7c600" stroke-width="1.718" fill="none"/><path d="M423.04 322.793a2.452 2.452 0 1 1-4.903 0 2.452 2.452 0 0 1 4.904 0z" fill-rule="evenodd" stroke="#000" stroke-width=".805" fill="#f7c600"/><path d="M410.535 342.977l19.14.055s.3-2.485-2-3.994c10.027-1.38 7.423-10.222 15.82-10.723 1.63.25-4.387 3.76-4.387 3.76s-5.062 3.572-2.757 5.388c1.83 1.442 2.635-.877 2.886-2.632.25-1.75 8.145-2.88 7.018-7.892-1.88-4.135-12.908 2.757-12.908 2.757l-7.868-.044c-.49-.883-2.66-4.424-4.898-4.44-2.658.097-4.53 4.484-4.53 4.484h-17.795s-.61 4.566 8.413 5.443c2.032 2.653 3.607 3.395 5.372 4.08-1.178.983-1.51 2.17-1.504 3.76z" fill-rule="evenodd" stroke="#000" stroke-width=".805" fill="#f7c600"/><path d="M411.913 339.09l15.943-.056m-23.245-9.348s1.28 7.456 7.165 9.222" stroke="#000" stroke-width=".805" fill="none"/><path d="M403.628 329.586c.589-2.843 1.667-3.335 2.844-6.965.198-3.532-2.844-3.14-1.96-5.396 1.57-2.453.784-4.808-2.159-6.672.589 3.237-3.827 6.279-3.827 8.927s2.258 2.063 1.963 6.083c.195 2.354-.589 1.767-.785 4.023h3.924z" fill-rule="evenodd" stroke="#000" stroke-width=".805" fill="red"/><path d="M422.844 311.904a2.256 2.256 0 1 1-4.512 0 2.256 2.256 0 0 1 4.512 0z" fill-rule="evenodd" stroke="#000" stroke-width=".805" fill="#f7c600"/><path d="M539.38 295.652l12.347-18.134 12.406 18.172" stroke="#f7c600" stroke-width="1.718" fill="none"/><path d="M554.207 288.865a2.452 2.452 0 1 1-4.904.002 2.452 2.452 0 0 1 4.904-.002z" fill-rule="evenodd" stroke="#000" stroke-width=".805" fill="#f7c600"/><path d="M541.7 309.05l19.142.054s.3-2.484-2-3.994c10.027-1.38 7.422-10.222 15.82-10.723 1.628.25-4.388 3.76-4.388 3.76s-5.062 3.572-2.757 5.388c1.83 1.442 2.632-.877 2.883-2.632.25-1.754 8.146-2.882 7.018-7.895-1.88-4.135-12.908 2.757-12.908 2.757l-7.868-.043c-.49-.884-2.66-4.425-4.898-4.44-2.657.096-4.528 4.483-4.528 4.483H529.42s-.61 4.566 8.413 5.443c2.032 2.654 3.607 3.395 5.373 4.082-1.178.98-1.51 2.168-1.504 3.76z" fill-rule="evenodd" stroke="#000" stroke-width=".805" fill="#f7c600"/><path d="M543.08 305.16l15.942-.053m-23.245-9.35s1.276 7.457 7.163 9.223" stroke="#000" stroke-width=".805" fill="none"/><path d="M534.793 295.66c.589-2.844 1.667-3.336 2.844-6.966.198-3.532-2.844-3.14-1.96-5.396 1.57-2.453.784-4.808-2.159-6.672.589 3.237-3.827 6.279-3.827 8.927s2.258 2.063 1.963 6.083c.195 2.354-.589 1.767-.785 4.023h3.924z" fill-rule="evenodd" stroke="#000" stroke-width=".805" fill="red"/><path d="M554.01 277.976a2.256 2.256 0 1 1-4.512.002 2.256 2.256 0 0 1 4.512-.002z" fill-rule="evenodd" stroke="#000" stroke-width=".805" fill="#f7c600"/><path d="M411.273 259.372l12.346-18.134 12.404 18.172" stroke="#f7c600" stroke-width="1.718" fill="none"/><path d="M426.1 252.585a2.452 2.452 0 1 1-4.904 0 2.452 2.452 0 0 1 4.904 0z" fill-rule="evenodd" stroke="#000" stroke-width=".805" fill="#f7c600"/><path d="M413.594 272.77l19.14.053s.3-2.484-2-3.994c10.027-1.38 7.423-10.224 15.82-10.726 1.63.25-4.387 3.76-4.387 3.76s-5.062 3.572-2.757 5.39c1.83 1.44 2.632-.878 2.883-2.633.25-1.753 8.145-2.88 7.018-7.894-1.88-4.136-12.905 2.757-12.905 2.757l-7.868-.044c-.49-.883-2.66-4.424-4.898-4.44-2.658.097-4.53 4.484-4.53 4.484h-17.796s-.61 4.566 8.413 5.443c2.032 2.653 3.606 3.394 5.372 4.08-1.178.982-1.51 2.17-1.504 3.76z" fill-rule="evenodd" stroke="#000" stroke-width=".805" fill="#f7c600"/><path d="M414.972 268.88l15.943-.054m-23.245-9.35s1.276 7.458 7.162 9.224" stroke="#000" stroke-width=".805" fill="none"/><path d="M406.686 259.377c.589-2.843 1.667-3.335 2.844-6.965.198-3.532-2.844-3.14-1.96-5.396 1.57-2.453.784-4.808-2.159-6.672.589 3.237-3.827 6.279-3.827 8.927s2.258 2.063 1.963 6.083c.195 2.354-.589 1.767-.785 4.023h3.924z" fill-rule="evenodd" stroke="#000" stroke-width=".805" fill="red"/><path d="M425.903 241.696a2.256 2.256 0 1 1-4.512 0 2.256 2.256 0 0 1 4.515 0z" fill-rule="evenodd" stroke="#000" stroke-width=".805" fill="#f7c600"/><path d="M411.55 223.713l12.347-18.134 12.406 18.17" stroke="#f7c600" stroke-width="1.718" fill="none"/><path d="M426.377 216.926a2.452 2.452 0 1 1-4.904 0 2.452 2.452 0 0 1 4.904 0z" fill-rule="evenodd" stroke="#000" stroke-width=".805" fill="#f7c600"/><path d="M413.87 237.11l19.142.055s.3-2.485-2-3.994c10.027-1.38 7.422-10.22 15.82-10.72 1.628.25-4.388 3.76-4.388 3.76s-5.062 3.57-2.757 5.388c1.83 1.442 2.632-.877 2.883-2.632.25-1.754 8.146-2.882 7.018-7.895-1.88-4.135-12.908 2.757-12.908 2.757l-7.868-.044c-.49-.883-2.66-4.424-4.898-4.44-2.657.097-4.528 4.484-4.528 4.484H401.59s-.61 4.566 8.413 5.443c2.032 2.65 3.607 3.393 5.373 4.08-1.178.98-1.51 2.17-1.504 3.76z" fill-rule="evenodd" stroke="#000" stroke-width=".805" fill="#f7c600"/><path d="M415.25 233.222l15.942-.055m-23.245-9.35s1.276 7.458 7.163 9.224" stroke="#000" stroke-width=".805" fill="none"/><path d="M406.963 223.72c.589-2.844 1.667-3.336 2.844-6.966.198-3.532-2.844-3.14-1.96-5.396 1.57-2.453.784-4.808-2.159-6.672.589 3.237-3.827 6.279-3.827 8.927s2.258 2.063 1.963 6.083c.195 2.354-.589 1.767-.785 4.023h3.924z" fill-rule="evenodd" stroke="#000" stroke-width=".805" fill="red"/><path d="M426.18 206.037a2.256 2.256 0 1 1-4.512 0 2.256 2.256 0 0 1 4.512 0z" fill-rule="evenodd" stroke="#000" stroke-width=".805" fill="#f7c600"/><path d="M412.228 187.533l12.346-18.134 12.407 18.17" stroke="#f7c600" stroke-width="1.718" fill="none"/><path d="M427.054 180.746a2.452 2.452 0 1 1-4.903 0 2.452 2.452 0 0 1 4.906 0z" fill-rule="evenodd" stroke="#000" stroke-width=".805" fill="#f7c600"/><path d="M414.55 200.93l19.14.054s.3-2.484-2-3.993c10.026-1.38 7.422-10.22 15.818-10.72 1.63.25-4.386 3.76-4.386 3.76s-5.062 3.572-2.757 5.39c1.83 1.44 2.632-.88 2.882-2.634s8.146-2.882 7.018-7.895c-1.88-4.135-12.908 2.757-12.908 2.757l-7.868-.044c-.49-.883-2.66-4.424-4.9-4.44-2.658.097-4.53 4.484-4.53 4.484h-17.794s-.61 4.566 8.413 5.443c2.03 2.65 3.606 3.393 5.372 4.08-1.177.98-1.51 2.17-1.504 3.76z" fill-rule="evenodd" stroke="#000" stroke-width=".805" fill="#f7c600"/><path d="M415.927 197.042l15.943-.055m-23.245-9.35s1.275 7.458 7.162 9.224" stroke="#000" stroke-width=".805" fill="none"/><path d="M407.641 187.54c.589-2.844 1.667-3.336 2.844-6.966.198-3.532-2.844-3.14-1.96-5.396 1.57-2.453.784-4.808-2.159-6.672.589 3.237-3.827 6.279-3.827 8.927s2.258 2.063 1.963 6.083c.195 2.354-.589 1.767-.785 4.023h3.924z" fill-rule="evenodd" stroke="#000" stroke-width=".805" fill="red"/><path d="M426.857 169.857a2.256 2.256 0 1 1-4.51 0 2.256 2.256 0 0 1 4.51 0z" fill-rule="evenodd" stroke="#000" stroke-width=".805" fill="#f7c600"/><path d="M540.355 188.122l12.347-18.134 12.406 18.172" stroke="#f7c600" stroke-width="1.718" fill="none"/><path d="M555.182 181.335a2.452 2.452 0 1 1-4.904.002 2.452 2.452 0 0 1 4.904-.002z" fill-rule="evenodd" stroke="#000" stroke-width=".805" fill="#f7c600"/><path d="M542.676 201.52l19.14.054s.3-2.484-1.998-3.994c10.026-1.38 7.42-10.222 15.818-10.723 1.63.25-4.386 3.76-4.386 3.76s-5.063 3.572-2.757 5.388c1.83 1.442 2.63-.877 2.882-2.632.25-1.754 8.146-2.882 7.018-7.895-1.88-4.135-12.908 2.757-12.908 2.757l-7.868-.043c-.49-.884-2.66-4.425-4.898-4.44-2.66.096-4.53 4.483-4.53 4.483h-17.796s-.61 4.566 8.413 5.443c2.03 2.654 3.605 3.395 5.37 4.082-1.176.98-1.508 2.168-1.503 3.76z" fill-rule="evenodd" stroke="#000" stroke-width=".805" fill="#f7c600"/><path d="M544.054 197.63l15.944-.053m-23.245-9.35s1.275 7.457 7.162 9.223" stroke="#000" stroke-width=".805" fill="none"/><path d="M535.768 188.13c.589-2.844 1.667-3.336 2.844-6.966.198-3.532-2.844-3.14-1.96-5.396 1.57-2.453.784-4.808-2.159-6.672.589 3.237-3.827 6.279-3.827 8.927s2.258 2.063 1.963 6.083c.195 2.354-.589 1.767-.785 4.023h3.924z" fill-rule="evenodd" stroke="#000" stroke-width=".805" fill="red"/><path d="M554.985 170.446a2.256 2.256 0 1 1-4.51.002 2.256 2.256 0 0 1 4.51-.002z" fill-rule="evenodd" stroke="#000" stroke-width=".805" fill="#f7c600"/><path d="M539.185 223.638l12.347-18.134 12.406 18.172" stroke="#f7c600" stroke-width="1.718" fill="none"/><path d="M554.012 216.85a2.452 2.452 0 1 1-4.904.002 2.452 2.452 0 0 1 4.904 0z" fill-rule="evenodd" stroke="#000" stroke-width=".805" fill="#f7c600"/><path d="M541.506 237.035l19.14.055s.3-2.485-1.998-3.994c10.026-1.38 7.42-10.222 15.818-10.723 1.63.25-4.387 3.76-4.387 3.76s-5.065 3.572-2.76 5.388c1.83 1.445 2.632-.874 2.883-2.63.25-1.753 8.146-2.88 7.018-7.894-1.88-4.135-12.907 2.757-12.907 2.757l-7.868-.043c-.49-.884-2.66-4.425-4.898-4.44-2.658.096-4.53 4.483-4.53 4.483h-17.795s-.61 4.567 8.413 5.444c2.032 2.653 3.607 3.395 5.373 4.08-1.178.983-1.51 2.17-1.504 3.76z" fill-rule="evenodd" stroke="#000" stroke-width=".805" fill="#f7c600"/><path d="M542.884 233.147l15.943-.055m-23.245-9.348s1.276 7.456 7.163 9.222" stroke="#000" stroke-width=".805" fill="none"/><path d="M534.598 223.644c.589-2.843 1.667-3.335 2.844-6.965.198-3.532-2.844-3.14-1.96-5.396 1.57-2.453.784-4.808-2.159-6.672.589 3.237-3.827 6.279-3.827 8.927s2.258 2.063 1.963 6.083c.195 2.354-.589 1.767-.785 4.023h3.924z" fill-rule="evenodd" stroke="#000" stroke-width=".805" fill="red"/><path d="M553.815 205.962a2.256 2.256 0 1 1-4.512 0 2.256 2.256 0 0 1 4.512 0z" fill-rule="evenodd" stroke="#000" stroke-width=".805" fill="#f7c600"/><path d="M537.615 259.94l12.346-18.134 12.41 18.172" stroke="#f7c600" stroke-width="1.718" fill="none"/><path d="M552.44 253.152a2.452 2.452 0 1 1-4.902.002 2.452 2.452 0 0 1 4.903-.002z" fill-rule="evenodd" stroke="#000" stroke-width=".805" fill="#f7c600"/><path d="M539.936 273.337l19.14.054s.3-2.48-2-3.99c10.027-1.38 7.422-10.223 15.82-10.724 1.63.25-4.387 3.76-4.387 3.76s-5.065 3.572-2.76 5.388c1.83 1.442 2.632-.877 2.882-2.63.25-1.756 8.146-2.884 7.018-7.896-1.88-4.136-12.907 2.757-12.907 2.757l-7.868-.044c-.49-.883-2.66-4.424-4.898-4.44-2.657.096-4.528 4.484-4.528 4.484h-17.797s-.61 4.565 8.413 5.443c2.03 2.653 3.606 3.394 5.372 4.08-1.178.982-1.51 2.17-1.505 3.76z" fill-rule="evenodd" stroke="#000" stroke-width=".805" fill="#f7c600"/><path d="M541.314 269.448l15.943-.054m-23.245-9.35s1.275 7.458 7.162 9.224" stroke="#000" stroke-width=".805" fill="none"/><path d="M533.028 259.945c.589-2.843 1.667-3.335 2.844-6.965.198-3.532-2.844-3.14-1.96-5.396 1.57-2.453.784-4.808-2.159-6.672.589 3.237-3.827 6.279-3.827 8.927s2.258 2.063 1.963 6.083c.195 2.354-.589 1.767-.785 4.023h3.924z" fill-rule="evenodd" stroke="#000" stroke-width=".805" fill="red"/><path d="M552.244 242.263a2.256 2.256 0 1 1-4.51.002 2.256 2.256 0 0 1 4.51-.002z" fill-rule="evenodd" stroke="#000" stroke-width=".805" fill="#f7c600"/><path d="M539.183 367.27l12.346-18.132 12.404 18.17" stroke="#f7c600" stroke-width="1.288" fill="none"/><path d="M554.005 360.496a2.452 2.452 0 1 1-4.903.002 2.452 2.452 0 0 1 4.903-.002z" fill-rule="evenodd" stroke="#000" stroke-width=".805" fill="#f7c600"/><path d="M541.503 380.667l19.14.054s.3-2.48-2-3.99c10.027-1.38 7.423-10.223 15.82-10.724 1.628.25-4.387 3.76-4.387 3.76s-5.063 3.572-2.757 5.39c1.83 1.44 2.63-.878 2.88-2.633.25-1.753 8.145-2.88 7.02-7.894-1.88-4.137-12.91 2.756-12.91 2.756l-7.87-.044c-.49-.883-2.66-4.424-4.897-4.44-2.657.097-4.528 4.484-4.528 4.484H529.22s-.61 4.566 8.413 5.443c2.03 2.652 3.606 3.393 5.372 4.08-1.177.98-1.51 2.17-1.504 3.76z" fill-rule="evenodd" stroke="#000" stroke-width=".805" fill="#f7c600"/><path d="M542.878 376.776l15.943-.054m-23.24-9.338s1.277 7.456 7.164 9.222" stroke="#000" stroke-width=".805" fill="none"/><path d="M534.594 367.282c.588-2.845 1.668-3.336 2.846-6.966.195-3.53-2.846-3.14-1.963-5.396 1.57-2.453.785-4.807-2.159-6.672.59 3.238-3.825 6.28-3.825 8.928s2.256 2.061 1.96 6.083c.198 2.358-.587 1.766-.783 4.024h3.924z" fill-rule="evenodd" stroke="#000" stroke-width=".805" fill="red"/><path d="M553.81 349.605a2.256 2.256 0 1 1-4.51 0 2.256 2.256 0 0 1 4.51 0z" fill-rule="evenodd" stroke="#000" stroke-width=".805" fill="#f7c600"/><path d="M538.99 331.364l12.346-18.134 12.407 18.172" stroke="#f7c600" stroke-width="1.718" fill="none"/><path d="M553.817 324.577a2.452 2.452 0 1 1-4.904.002 2.452 2.452 0 0 1 4.904-.005z" fill-rule="evenodd" stroke="#000" stroke-width=".805" fill="#f7c600"/><path d="M541.31 344.76l19.142.056s.3-2.485-2-3.994c10.026-1.38 7.422-10.222 15.82-10.723 1.628.25-4.388 3.76-4.388 3.76s-5.062 3.57-2.757 5.385c1.83 1.442 2.632-.877 2.883-2.632.25-1.754 8.146-2.882 7.018-7.895-1.88-4.136-12.908 2.756-12.908 2.756l-7.868-.044c-.49-.883-2.66-4.424-4.898-4.44-2.657.097-4.528 4.484-4.528 4.484H529.03s-.61 4.566 8.413 5.443c2.032 2.652 3.607 3.394 5.373 4.08-1.178.98-1.51 2.17-1.504 3.76z" fill-rule="evenodd" stroke="#000" stroke-width=".805" fill="#f7c600"/><path d="M542.69 340.873l15.942-.055m-23.245-9.348s1.276 7.456 7.163 9.222" stroke="#000" stroke-width=".805" fill="none"/><path d="M534.403 331.37c.589-2.844 1.667-3.336 2.844-6.966.198-3.532-2.844-3.14-1.96-5.396 1.57-2.453.784-4.808-2.159-6.672.589 3.237-3.827 6.279-3.827 8.927s2.258 2.063 1.963 6.083c.195 2.354-.589 1.767-.785 4.023h3.924z" fill-rule="evenodd" stroke="#000" stroke-width=".805" fill="red"/><path d="M553.62 313.688a2.256 2.256 0 1 1-4.512.002 2.256 2.256 0 0 1 4.512-.002z" fill-rule="evenodd" stroke="#000" stroke-width=".805" fill="#f7c600"/><path d="M434.677 297.99l12.347-18.134 12.406 18.172" stroke="#f7c600" stroke-width="1.718" fill="none"/><path d="M449.504 291.202a2.452 2.452 0 1 1-4.904.002 2.452 2.452 0 0 1 4.904-.002z" fill-rule="evenodd" stroke="#000" stroke-width=".805" fill="#f7c600"/><path d="M436.998 311.387l19.14.054s.3-2.48-1.998-3.99c10.026-1.38 7.42-10.223 15.818-10.724 1.63.25-4.387 3.76-4.387 3.76s-5.06 3.572-2.754 5.388c1.83 1.442 2.632-.877 2.883-2.63.25-1.756 8.145-2.884 7.017-7.896-1.88-4.136-12.908 2.757-12.908 2.757l-7.87-.044c-.49-.883-2.66-4.424-4.9-4.44-2.655.096-4.526 4.484-4.526 4.484h-17.796s-.61 4.565 8.413 5.443c2.033 2.653 3.608 3.394 5.374 4.08-1.178.982-1.51 2.17-1.504 3.76z" fill-rule="evenodd" stroke="#000" stroke-width=".805" fill="#f7c600"/><path d="M438.376 307.498l15.943-.054m-23.248-9.35s1.276 7.458 7.163 9.224" stroke="#000" stroke-width=".805" fill="none"/><path d="M430.09 297.995c.589-2.843 1.667-3.335 2.844-6.965.198-3.532-2.844-3.14-1.96-5.396 1.57-2.453.784-4.808-2.159-6.672.589 3.237-3.827 6.279-3.827 8.927s2.258 2.063 1.963 6.083c.195 2.354-.589 1.767-.785 4.023h3.924z" fill-rule="evenodd" stroke="#000" stroke-width=".805" fill="red"/><path d="M449.307 280.313a2.256 2.256 0 1 1-4.512.002 2.256 2.256 0 0 1 4.512-.002z" fill-rule="evenodd" stroke="#000" stroke-width=".805" fill="#f7c600"/><g stroke="#000"><path d="M500.74 384.174s4.996 11.516 10.685 4.44 3.608-10.13 3.608-10.13l-12.765-6.936-3.747 7.91 2.22 4.716z" fill-rule="evenodd" stroke-width=".805" fill="#f7c600"/><path d="M511.705 382.653s.833.14 1.526-1.11-1.523-1.804-2.494-3.19l-1.11 2.22 2.08 2.08zm-28.87-3.055l-11.24 6.105s-5.55 1.11-5.966 0c-.42-1.11.136-2.08 3.05-2.22 2.913-.14 10.822-7.354 10.822-7.354l3.33 3.466zm.145-199.664s.277 2.636.416 4.023-2.22 4.302-2.36 4.163-1.248.14-1.11.97 1.805 1.11 1.805 1.11-.69 2.915 0 3.054c.697.14-1.8 3.746 0 4.717 1.807.974 4.86 2.22 6.247 1.946 1.387-.278 0 5.41 0 5.41l-3.885 8.326 21.368-2.22-4.44-7.075s-2.082-1.388-1.527-5.412c.556-4.023-.276-22.2-.276-22.2l-15.262-2.08-.97 5.272zm-3.89 31.635s-6.936 3.19-6.66 11.79c-1.802 8.326-2.774 16.65-2.774 16.65s-8.186 9.296-10.683 12.627c-2.498 3.33-6.244 10.127-7.632 11.93s-6.796 7.77-6.66 9.99c.14 2.22-1.246 12.073 4.166 13.182 1.387.554 5.827-11.378 5.827-11.378s.28-5.134-1.247-6.105 3.33-4.3 3.33-4.3 9.296-6.8 11.377-8.465 7.77-8.048 7.77-8.048l3.19-37.88z" fill-rule="evenodd" stroke-width=".805" fill="#ffc6b5"/><path d="M487 205.048s1.804 4.856 5.828 4.023c4.023-.83 8.74-4.576 8.74-4.576s3.747-.138 4.302.417c.555.555 10.13 9.85 9.852 12.765-.278 2.914-4.44 2.08-5.967 4.023s-4.024 6.8-3.33 10.407 2.775 8.325 2.498 10.13-1.804 2.357-1.804 3.33c0 .97 1.246 2.635 1.246 4.44s-1.665 4.44-1.388 6.242c.277 1.804.416 7.076.416 7.076l-.417 24.42s1.387.834 1.526 2.22c.138 1.39 9.435 41.764 9.435 41.764s-.416 1.25-1.387 1.11 3.747 6.244 3.886 8.048 4.855 15.957 4.717 17.9c-.14 1.942-.833 6.243-1.25 6.382-.415.14 3.053 8.88 2.498 10.267-.554 1.388-6.242 1.25-6.242 1.25l-1.527-.278s.14 1.803-.97 1.942-9.296-.416-9.296-.416-2.36 3.61-3.746 3.47c-1.388-.14-3.192-2.636-3.608-2.22-.416.417 1.25 2.776.832 3.47-.416.693-7.492 2.22-8.88-1.11-1.387-3.33.833-2.498.417-3.19-.417-.696-3.608-2.5-4.58-1.944s2.5 1.387 2.36 2.775c-.14 1.388-3.053 3.47-4.163 3.47s-3.746-5.134-7.63-4.58c-3.886.556-6.384 1.527-6.384 1.527s-4.578 1.942-6.52 1.526c-1.943-.416-2.776-1.942-2.776-2.775 0-.83 1.388-4.44 1.25-5.55s-1.25-2.22-1.25-3.884c0-1.665 3.19-7.354 3.19-7.354l-.137-25.53s-2.913 0-3.052-1.805 4.44-40.376 5.134-42.874c.694-2.497 2.497-11.377 2.497-11.377s-2.08.972-2.22 0 6.243-23.032 6.243-23.032 1.11-10.96 1.11-13.874c0-2.913-.555-6.937-.555-6.937s-5.697-2.413-5.828-6.106c-.52-5.877 5.41-9.158 6.105-11.1l2.775-7.77s3.052-5.273 8.047-6.105z" fill-rule="evenodd" stroke-width=".805" fill="#fff"/><path d="M484.924 381.264s-13.458 7.077-15.4 7.632c-1.944.555-3.193-2.36-1.25-2.914 1.943-.555 4.995-.833 4.995-.833s-4.58-3.61-4.44-3.75c.136-.14 6.24-2.357 6.38-2.357s1.942 3.607 3.19 3.33 4.857-3.053 4.857-3.053 1.942 2.22 1.664 1.943z" fill-rule="evenodd" stroke-width=".805" fill="#f7c600"/><path d="M503.89 385.14c1.272 1.64 1.77 4.487 4.683 2.822s-1.493-4.755-1.493-4.755l-3.19 1.932zm5.316-.278s1.387 1.11 2.636-.14-2.498-3.884-2.498-3.884l-1.803 2.08 1.668 1.944z" fill-rule="evenodd" stroke-width=".805" fill="#ffc6b5"/><path d="M505.04 210.458s-12.35 7.91-12.072 10.684m14.85-9.297s-2.776 3.053-2.915 3.053m6.657.278s-6.105 4.995-5.134 8.186m-23.724-13.597s-1.804 3.746-1.388 4.995c.417 1.25 3.47 5.966 3.885 8.88.414 2.914 0 4.995 0 4.995m-5.687-11.933s.554 4.44 1.387 5.272c.834.833 3.054 4.58 3.33 6.105m-5.827 7.073s3.607 1.804 6.937-5.134m5.403-4.855c-.14 0-2.636 6.8 1.804 9.296s7.77 2.22 9.712 1.528c1.94-.696 4.02-1.945 4.02-1.945m-17.47-.555s.277 9.16 13.736 18.178m-13.18-9.575s-.14 8.05 5.133 11.656m-7.91-21.09s-4.025 11.933-7.216 13.182m5.96-4.44s-.14 8.603-1.25 11.655m-1.105 2.08s2.774 3.47 5.826 3.192c3.053-.277 4.3-3.885 6.383-3.33 2.08.556 4.022 2.22 8.88 1.804m-6.94 3.61s0 7.074 1.25 7.77.692 7.213.692 7.213m-18.87-18.314s-.14 6.66-.972 9.017c-.83 2.358-2.495 6.382-2.22 9.85m-5.27 3.89c.693-.277 3.052-2.358 3.052-2.358m1.246 1.524s-5.966 25.53-4.3 40.793m5.69-39.55s-3.054 19.148-1.666 22.756m.144-23.31a4565 4565 0 0 1 11.655.832m1.664-1.52s3.19 1.665 7.63 1.387m-9.02 7.91s-.554 32.745-1.386 39.96m18.46-32.475s3.61 28.722 5.69 31.358M497.965 299.4s2.22 25.39 3.47 27.61m-34.96 8.878s4.3-1.388 8.186-5.55c4.44 5.966 11.24.278 11.24.278s10.546 7.215 15.26-.833c7.218 4.718 10.826-.694 10.826-.694s2.636 4.02 4.58 3.605m-11.524 2.78s5.41 25.392 13.46 32.607m-41.35-35.25s.692 21.23 1.94 36.213m-2.907-12.21s-.694 13.875-1.527 14.847m-6.66 1.394s1.526 5.966 9.158.416c7.63-5.55 7.77 2.082 8.047 2.914.28.832 1.528 6.8 4.44 1.804m6.103-8.19s-1.25 12.35 9.713 3.33c10.96-9.017 12.764-.137 13.04 2.638" stroke-width=".805" fill="none"/><path d="M482.556 179.1s3.053.417 4.718-.554c1.665-.972 3.608-1.388 4.995.555s2.356 1.806 2.356 1.806-2.082 5.134 0 5.69c2.08.554 3.052.554 3.19 1.248.14.694-1.803 2.22-1.248 2.913.554.694 1.526 1.527 1.664 2.082.14.554-1.248 2.912-.832 3.47.416.553 1.665 2.773 2.497 2.773.832 0 .277 3.47 2.774 2.637s2.36-3.054 2.36-3.054 2.636-.416 3.33-2.775c.694-2.36 2.36-2.912 2.36-2.912s3.33-1.804-1.11-4.58c0-19.425-12.766-17.343-12.766-17.343s-1.527-3.47-4.024-3.053c-2.498.418-2.636 3.33-4.44 3.054-1.804-.278-2.22-1.526-2.36-1.387-.138.137-1.664 2.912-1.664 3.606s-4.857-.97-4.44 2.636 2.774 3.468 2.635 3.19z" fill-rule="evenodd" stroke-width=".805" fill="#9c5100"/><path d="M495.888 174.383s-.972 6.105 5.55 5.55c-.833 3.33 1.665 4.44 1.665 4.44m4.847 3.746c.138 0 2.913 1.8-.14 4.02m-9.29.833s1.387 1.665 2.913 1.25c1.526-.417 4.024 1.525 4.024 1.525s2.08.693 2.36.277m-17.762 2.22s4.718 1.804 7.77-5.688m-16.512-2.22l2.775.137" stroke-width=".805" fill="none"/><path stroke-linejoin="round" d="M481.736 193.114h2.498l-2.22.972" stroke-width=".805" fill="none"/><path stroke-linejoin="round" d="M485.2 185.344c.418 0 1.944-.555 2.22-.138.28.416-1.664.693-2.22.138z" stroke-width="1.45" fill="none"/><path d="M515.17 218.31c.14 0 4.58 13.736 5.134 17.205.555 3.47 2.36 17.344 1.665 19.287-.697 1.942-7.77 11.238-8.606 13.597-.832 2.355-5.827 11.374-5.827 11.374s-1.25 8.88-1.805 9.297c-.555.417 1.433 2.597 1.25 3.33-.276.827-4.025 4.718-5.69 4.3-1.665-.414-4.3-2.357-4.44-4.16s.14-7.77 1.388-9.296 7.77-16.927 8.187-17.9c.415-.97 5.965-13.042 6.104-15.122.14-2.082-1.725-6.894-3.69-8.66-4.364-12.853-2.65-20.604 6.328-23.253z" fill-rule="evenodd" stroke-width=".805" fill="#ffc6b5"/><path d="M450.524 277.842l.218 6.08m-5.915-6.53s3.898 6.52 3.573 9.994" stroke-width=".805" fill="none"/><path stroke-linejoin="round" d="M497.078 291.014s2.915-.306 2.823 4.56c1.864-6.045 5.65-6.19 5.65-6.19" stroke-width=".805" fill="none"/></g><path d="M487.12 429.95c58.597-1.63 96.442-43.95 96.035-44.357-.407-.407 7.732-11.8 14.243-10.173 6.51 1.627 15.87 20.753 27.264 24.822 5.697 8.953-1.627 17.092-4.07 18.72-2.44 1.627-13.428 6.104-15.056-.407-1.627-6.51-4.883-5.29-4.883-5.29s-52.088 50.867-112.31 48.832c-62.257.41-113.53-48.83-113.53-48.83l-4.477 4.883s-4.883 5.29-7.324 4.883c-2.442-.407-13.023-7.325-13.837-14.243-.813-6.918 6.51-11.394 6.51-11.394s17.907-13.836 19.94-21.16c4.07-4.07 11.8 2.848 11.8 2.848s47.206 54.123 99.7 50.868z" fill-rule="evenodd" stroke="#000" stroke-width="1.717" fill="#f7c600"/><path d="M354.464 398.476s4.842-1.29 6.618.727c1.775 2.017 13.96 13.96 13.96 13.96" stroke="#000" stroke-width="1.717" fill="none"/><path d="M365.52 404.122l-4.843 3.632s12.186 2.42 9.442 10.41m250.175-20.098s-2.42-1.29-6.214 1.533c-3.792 2.822-13.396 13.555-13.396 13.555" stroke="#000" stroke-width="1.717" fill="none"/><path d="M609.406 403.804l5.245 4.035s-10.972.723-8.55 11.134" stroke="#000" stroke-width="1.717" fill="none"/><path d="M416.495 411.39l-.352.495c-.736-.364-1.576-.43-2.52-.203-.69.18-1.995.83-3.91 1.95l-16.126 9.4-.44-.314 4.06-18.85c.492-2.272.716-3.652.674-4.14-.03-.48-.37-1.013-1.02-1.595l.355-.495 8.692 6.2-.353.494-.294-.21c-.786-.56-1.39-.843-1.816-.85-.3-.013-.542.11-.727.37-.114.16-.215.376-.303.65-.08.265-.257 1.02-.527 2.267l-2.572 11.78 9.315-5.48c1.12-.67 1.846-1.13 2.18-1.39.333-.26.582-.507.748-.74.19-.267.287-.554.29-.86.004-.306-.094-.61-.294-.916-.275-.425-.73-.863-1.362-1.314l.353-.493 5.95 4.244m5.79 28.02l-.29.533-10.218-5.586.292-.533.645.355c.567.31 1.08.46 1.535.445.324.003.64-.122.956-.375.23-.174.615-.75 1.15-1.73l7.03-12.854c.547-1 .835-1.652.866-1.96.03-.307-.067-.642-.293-1.003-.214-.366-.594-.7-1.14-.998l-.65-.355.29-.533 10.22 5.587-.294.534-.648-.354c-.568-.31-1.08-.46-1.535-.446-.324-.003-.647.12-.97.368-.23.173-.615.75-1.15 1.73l-7.03 12.853c-.547 1-.835 1.65-.866 1.96-.023.31.073.65.285 1.015.226.362.614.692 1.16.99l.65.356m37.323-8.753l-2.635 7.395-.572-.205c.03-2.267-.46-4.174-1.467-5.718-1.007-1.545-2.33-2.61-3.97-3.194-1.57-.558-3.03-.58-4.39-.063-1.353.506-2.53 1.47-3.523 2.895a19.392 19.392 0 0 0-2.38 4.626c-.716 2.01-1.107 3.86-1.173 5.544s.3 3.072 1.1 4.158c.81 1.09 1.94 1.894 3.395 2.412a8.59 8.59 0 0 0 1.6.397c.578.077 1.18.112 1.81.104l1.556-4.363c.293-.825.425-1.377.396-1.654-.025-.288-.183-.594-.475-.92-.28-.32-.673-.57-1.18-.75l-.54-.193.204-.572 10.197 3.632-.203.572c-.792-.224-1.372-.308-1.74-.253-.354.046-.68.226-.977.54-.163.162-.38.625-.652 1.39l-1.554 4.36c-1.553.12-3.11.07-4.67-.146a22.752 22.752 0 0 1-4.67-1.14c-1.99-.708-3.55-1.566-4.68-2.572a13.566 13.566 0 0 1-2.72-3.375c-.684-1.244-1.113-2.518-1.29-3.824-.213-1.68-.006-3.404.62-5.168 1.127-3.156 3.185-5.427 6.178-6.814 2.995-1.385 6.17-1.48 9.535-.282 1.042.37 1.95.787 2.728 1.25.425.244 1.073.742 1.944 1.494.885.745 1.42 1.15 1.606 1.217.29.103.595.095.916-.023.325-.128.695-.45 1.11-.964l.573.204m15.723 25.238l-.09.6-11.514-1.743.09-.6.73.11c.64.096 1.17.06 1.594-.108.304-.11.56-.336.768-.682.158-.24.32-.914.488-2.02l2.196-14.484c.17-1.126.218-1.84.142-2.14-.077-.3-.284-.58-.62-.84-.325-.27-.796-.453-1.413-.546l-.73-.11.09-.6 11.514 1.743-.09.6-.734-.11c-.64-.096-1.17-.06-1.594.108-.305.11-.566.336-.784.68-.16.24-.323.914-.49 2.02l-2.194 14.483c-.17 1.126-.218 1.84-.14 2.138.086.303.292.588.616.86.338.26.815.438 1.432.53l.73.112m29.887-7.26l-.44 7.85-19.748 1.01-.03-.608.737-.038c.643-.033 1.156-.174 1.54-.424.275-.167.48-.44.614-.82.107-.27.132-.96.075-2.077l-.747-14.63c-.058-1.138-.155-1.845-.29-2.123-.134-.28-.393-.512-.775-.7-.374-.2-.87-.285-1.495-.254l-.738.038-.03-.606 11.858-.606.03.606-.967.05c-.646.033-1.16.175-1.54.424-.278.168-.49.442-.634.822-.107.27-.132.96-.075 2.076l.723 14.172c.058 1.137.16 1.86.308 2.17.148.3.417.517.807.65.28.085.943.1 1.993.047l1.854-.093c1.18-.06 2.155-.32 2.92-.774.767-.456 1.41-1.147 1.934-2.072.534-.926 1.013-2.277 1.438-4.053l.673-.034m21.6-3.748l-7.538 2.252-.277 2.345c-.087.78-.063 1.395.072 1.846.177.597.55.966 1.117 1.105.334.084 1.07 0 2.206-.247l.175.583-7.097 2.12-.174-.582c.73-.345 1.267-.847 1.606-1.51.337-.67.624-1.928.862-3.77l2.546-19.308.3-.09 12.92 15.2c1.23 1.44 2.146 2.303 2.747 2.593.453.217 1.013.256 1.68.114l.174.582-10.324 3.084-.174-.58.424-.128c.83-.248 1.377-.537 1.643-.868.182-.237.225-.513.13-.828a2.014 2.014 0 0 0-.267-.555c-.05-.086-.324-.432-.825-1.04l-1.927-2.32m-.88-1.003l-5.376-6.4-1.077 8.328 6.452-1.927m28.46-29l2.854 5.308-.52.28c-.967-1.06-1.78-1.753-2.443-2.08-.667-.34-1.414-.49-2.24-.456-.46.022-1.148.28-2.065.773l-1.46.785 8.135 15.133c.54 1.005.93 1.6 1.17 1.797.25.19.587.294 1.01.316.425.007.918-.14 1.477-.44l.65-.35.29.534-10.27 5.513-.288-.535.65-.35c.57-.306.974-.654 1.21-1.043.18-.27.253-.607.22-1.013-.017-.29-.29-.928-.82-1.91l-8.134-15.13-1.418.76c-1.32.71-2.13 1.505-2.428 2.386-.42 1.232-.35 2.63.206 4.197l-.55.296-2.854-5.31 17.618-9.47m13.36-7.92l5.46 7.235.352-.267c1.128-.85 1.678-1.82 1.65-2.913s-.49-2.38-1.393-3.866l.5-.376 7.02 9.31-.497.375c-.87-.934-1.72-1.597-2.548-1.986-.82-.397-1.536-.536-2.146-.418-.618.11-1.35.483-2.198 1.123l3.778 5.007c.74.98 1.23 1.55 1.473 1.708.25.152.544.213.877.18.333-.03.752-.237 1.26-.62l1.06-.8c1.662-1.254 2.7-2.64 3.117-4.16.427-1.53.265-3.244-.485-5.147l.485-.368 3.462 6.254-15.368 11.59-.366-.484.59-.445c.517-.39.863-.794 1.04-1.215.134-.294.15-.635.05-1.025-.063-.282-.43-.87-1.103-1.76l-8.822-11.697c-.607-.803-1-1.28-1.183-1.43a1.572 1.572 0 0 0-1.02-.343c-.516.006-1.063.226-1.64.662l-.59.443-.366-.485 14.882-11.227 3.966 5.26-.498.376c-1.223-1.094-2.277-1.746-3.162-1.956-.877-.216-1.834-.14-2.87.232-.61.212-1.586.826-2.932 1.84l-1.836 1.386"/><path d="M380.537 413.063c72.788 59.04 144.13 60.122 213.933 0" fill="none"/></g></svg>