<svg xmlns="http://www.w3.org/2000/svg" xmlns:xlink="http://www.w3.org/1999/xlink" viewBox="0 0 640 480" version="1"><path fill="#fff" d="M0 0h640v480H0z"/><path d="M204.348 314.932s-.518-3.508 6.144-6.08c6.66-2.573 7.18-12.162 5.847-18.554 0 0-3.48 6.08-7.7 8.107 0 0-6.886 3.586-7.2 10.436 0 0-.056 2.51-.574 4.457-.284 1.067-3.332-8.574 2.442-15.746 5.957-7.4 7.623-13.41 2.885-25.1 0 0-.444 7.093-5.107 11.146-4.663 4.054-5.256 4.366-5.18 14.032 0 0 .073 3.352-1.704 4.443 0 0-3.627-5.3-4.59-8.81-.96-3.506-1.405-4.99 2.74-9.04 0 0 13.28-8.58 3.7-27.363 0 0-.295 6.47-4.884 10.29-4.59 3.82-4.22 6.392-4.442 13.018-.22 6.626-.665 6.16-1.183 7.094 0 0-8.438-15.514-1.924-23.777 6.513-8.263 10.14-9.978 2.96-25.335 0 0 .32 7.874-5.43 11.77-5.747 3.9-4.414 13.02-4.414 13.02s.37 3.43-.816 5.924c0 0-8.13-15.856-.37-24.396 6.588-7.25 7.033-12.317 3.48-22.607 0 0-.445 4.754-4.07 7.327-3.628 2.572-6.515 5.145-5.85 15.045 0 0 .297 6.936-.59 8.885 0 0-3.406-6.314-4.368-10.445-.962-4.133-1.333-6.55 1.184-10.68 2.516-4.132 12.51-15.98.59-33.053 0 0-.37 5.534-3.404 10.523-3.035 4.99-1.628 10.916-.962 15.437.666 4.522-1.554 8.887-1.554 8.887s-5.18-9.51-4.07-20.424c1.11-10.914-3.33-19.88-13.398-26.35 0 0-7.328 16.995 2.665 25.648 0 0 8.512 8.42 10.66 18.63 0 0-6.44-.622-12.29-12.003-5.846-11.38-17.985-9.59-18.8-9.667 0 0 2 17.618 20.652 22.607 0 0 11.915 2.027 14.135 10.757 0 0 2 6.005 2.813 9.2 0 0-3.776-1.48-7.255-6.625-3.48-5.146-3.035-5.77-14.804-6.94 0 0-4.737-.545-7.254-3.897 0 0 4.96 18.63 17.69 18.474 0 0 11.622-1.247 18.136 14.032 0 0-1.26-.78-2.96-1.95-1.704-1.17-5.997-3.35-14.51-2.34-8.51 1.015-10.88-.39-13.026-1.09 0 0 8.586 15.747 20.725 11.07 12.14-4.68 18.004 12.378 18.136 12.706 0 0-1.626-1.246-3.773-3.35-2.146-2.106-6.602-4.7-15.025-2.028 0 0-6.07 2.34-12.212.468 0 0 5.92 11.46 19.763 9.51 13.843-1.95 17.32 10.212 17.32 10.212s-1.85-1.09-3.107-2.105c-1.26-1.014-5.922-3.665-15.914-.7-9.994 2.96-13.62-.47-13.62-.47s5.55 10.134 16.21 11.303c0 0 5.92-.077 8.437-1.012 2.517-.934 9.18-2.415 13.77 4.21 0 0-1.26.235-3.185-.622 0 0-7.106-2.573-12.51 1.948 0 0-4.81 4.91-11.62 3.976 0 0 8.808 8.576 22.798 1.326 0 0 4.738-3.43 8.217-.78 3.48 2.652 11.548-2.57 11.548-2.57z" stroke-miterlimit="10" fill="#369443" stroke="#010002" stroke-width="1.506"/><g stroke-miterlimit="10" fill="#f4c53d" stroke="#010002" stroke-width="1.505"><path d="M282.21 103.676s-1.624-14.507 9.968-15.902c12.09-1.455 18.06 1.09 18.06 1.09l5.43 10.655-1.876 7.17-7.5 3.43s1.282-11.02-8.817-11.248c-2.56-.058-4.063.957-8.11.315-4.07-.648-6.247 3.825-7.154 4.486z"/><path d="M363.778 139.586c-1.727 2.234-8.635 3.014-8.635 3.014s7.106 5.457 10.165 13.252c3.06 7.795-82.357.052-82.357.052s3.705-2.65 6.22-7.64c0 0-3.773 1.404-7.55-2.338 0 0 2.81.935 6.515-4.677 0 0 5.478-7.02 9.327-8.89 0 0-1.777 1.09-6.07-1.248 0 0 7.4-.935 10.067-13.564 0 0 .443-2.806 3.255-6.86 2.813-4.053 2.22.78 7.402-5.456 0 0 2.37-4.417.296-7.12-2.07-2.702-4.292-1.714-8.634-4.313-4.344-2.598-6.268-4.053-4.788-8.055 1.48-4 5.33-3.378 5.87-3.378.544 0 .84-3.484 5.578-5.874s17.32-1.35 19.195-.312c1.875 1.04 9.474 3.275 13.915 14.5 4.44 11.225-1.184 15.435 10.906 32.376 0 0-4.836 1.04-7.945.103 0 0 6.266 11.12 17.27 16.42z"/><path d="M310.93 92.217c-9.845-.468-6.07-9.848-6.07-9.848" fill="none"/><path d="M328.028 93.503s-1.74-.818-3.21-2.767c-2.066-2.735-6.672-4.053-9.15-1.48 0 0-2.518 2.805-4.74 2.96 0 0 2.518.78 4.258 2.38 1.74 1.597 3.552 2.766 6.143 2.415 2.59-.35 2.994-1.71 4.215-2.53 1.22-.82 2.48-.974 2.48-.974z"/></g><path d="M202.813 336.456s-.222-6.314 7.772-6.782l23.537 32.74s-.888 2.103-11.547 1.87c0 0-1.128-.008-1.72 1.24-.91 1.914-18.042-29.068-18.042-29.068z" stroke-miterlimit="10" fill="#369443" stroke="#010002" stroke-width="1.506"/><g id="a" transform="translate(3.597 26.17) scale(.15055)" fill="#f4c53d" stroke="#010002" stroke-width="10"><path d="M1494.918 1807.886s-49.82 85.606-110.13 86.987c0 0-103.74-12.628-133.073 14.498-20.454 18.92-41.3 34.52-49.82 82.85-8.523 48.325 16.387 58.68 22.287 60.752 0 0 4.59 34.52 38.676 25.544 0 0 1.967 35.9 62.276 18.64 60.31-17.26 85.22-11.736 97.02-71.8 11.8-60.06 22.693-59.078 33.43-66.275 14.423-9.665 41.518-18.8 61.62-30.376 18.062-10.4 87.187-45.565 110.786-48.326 23.6-2.76 18.355-82.154 18.355-82.154h-60.964l-29.495-43.493-60.964 53.156zm192.01-429.41s-60.965 49.708-112.096 0c0 0-20.65 24.854-61.948 17.605-41.3-7.245-48.182-28.992-52.115-41.42 0 0-35.73 20.84-65.885 4.38-30.155-16.46-30.155-41.313-30.155-41.313s-52.442 10.338-79.32-25.207c-26.875-35.546-10.487-70.755 3.935-74.898 0 0-56.7 14.855-72.11-33.827-13.11-41.422 16.39-62.824 16.39-62.824s-119.47-.573-168.473-37.97c0 0-40.643-25.543-16.388-52.47 0 0-107.507-17.26-134.384-60.06 0 0-11.8-11.735-7.865-32.45 0 0 .656-11.733 12.455-12.424 0 0-122.6-18.937-157.982-59.372 0 0-17.044-18.64-8.522-43.492 0 0 1.803-6.56 4.753-10.96 0 0-111.608-23.56-166.67-73.265 0 0-31.79-28.32-15.4-66.29 0 0-186.508-51.073-143.24-133.228 0 0-87.188-28.306-59.656-107.01 0 0-72.11-36.59-40.643-94.58 30.115-55.5 122.586 9.664 232.08 39.96 0 0 296.28 93.28 442.19 118.106l414.573 617.222 241.892 93.2 24.58 172.593z"/><path d="M1689.878 923.866s-38.857-29.17-108.163 5.178c0 0-23.333 16.068-41.687-1.536-15.336-14.71-16.775-41.83 4.322-57.49 51.623-38.316 70.798-153.263-7.866-200.898 0 0-114.063-67.656-532.32-174.095 0 0-35.044-9.717-53.727-5.057-20.572 5.13-34.743 22.782-37.65 37.886 0 0-18.715 53.188 44.206 83.62 0 0 28.408 13 57.687 21.402 0 0-32.16-6.952-45.887 24.853-13.11 30.372 5.9 61.44 64.898 81.46 0 0 15.96 6.21 38.68 11.736 0 0-50.476 14.497-26.22 55.23 0 0 21.63 42.802 98 50.396 0 0-57.03 6.213-16.715 60.408 0 0 17.7 29.687 73.42 40.733 0 0-42.282 1.38-20.977 39.35 21.305 37.972 71.44 59.373 120.775 62.825 0 0 26.72 1.38 45.404-2.76 0 0-46.87 23.472-19.338 62.823 0 0 20.32 27.96 71.124 26.58 0 0-13.186 43.946 24.09 60.58 29.01 12.945 53.1-7.766 53.1-7.766s-9.833 47.118 32.45 63.687c0 0 21.14 10.874 52.605 0 0 0 24.09 53.85 109.637 16.05 85.545-37.797 20.156-355.196 20.156-355.196zm5.074 489.39s-12.552 67.393-112.09 152.22c0 0-76.8 67.745-74.834 145.757 2.003 79.44-13.766 88.368-43.92 115.292 0 0 62.275 4.833 92.43-36.59 0 0-1.312 69.037-10.49 75.25 0 0 19.532 1.246 47.854-29.685 0 0 17.044-17.95 32.777-24.853 0 0-18.36 47.636-3.937 91.82 0 0 4.59-17.26 28.843-24.854 0 0 43.92-8.975 60.964-72.49 0 0 11.145-42.112 79.976-79.392 0 0 78.007-29.42 76.04-67.87-1.965-38.444-173.618-244.6-173.618-244.6z"/><path d="M2056.524 2282.172s-17.87 78.856-79.975 72.49c0 0-43.925-4.143-40.647-77.323 0 0-64.898 34.515-75.386-51.09 0 0-59 13.806-58.343-66.277 0 0-55.065 9.665-48.51-61.443 0 0-59.653 15.88-59.653-51.087 0 0-139.627-23.157 151.43-288.576l259.59 154.642-48.51 368.66z" stroke-miterlimit="10"/><path d="M2085.368 1928.287s-43.265 38.385-74.075-18.915c0 0-41.954-2.07-48.51-33.828 0 0-34.087-3.452-40.642-35.9 0 0-46.54-4.832-45.23-44.183 0 0-84.62-6.53-.025-102.33 84.59-95.802 228.153 158.945 228.153 158.945l-19.667 76.215zm48.275-23.747c41.94 0 89.463 261.995 77.13 419.84-4.48 57.328-35.19 104.152-77.13 104.152s-72.65-46.824-77.13-104.15c-12.333-157.846 35.19-419.843 77.13-419.843"/><ellipse ry="85.951" rx="58.032" cy="1902.468" cx="2133.643"/><path d="M1935.906 2277.34s6.555-138.765 126.824-337.594m-202.21 286.506s-18.683-80.083 150.773-316.88c0 0-19.666-56.612 40.643-92.856m-249.76 343.46s-5.243-86.642 160.607-284.433c0 0-14.65-51.088 45.445-91.82m-254.56 314.81s6.228-87.677 168.472-258.89c0 0-8.117-52.468 50.023-84.916m-278.15 292.72s11.8-100.105 182.895-251.987c0 0-5.9-39.35 51.132-79.393" stroke-miterlimit="10" fill="none"/><path d="M372.257 431.976s134.384 77.806 552.895 155.612M431.91 538.984S795.627 657.63 965.01 672.21m-389.86 0s213.37 66.98 463.238 109.247m-281.17 30.31s241.072 57.905 356.164 67.515m-194.41 46.31s203.908 42.526 255.572 47.64m-125.777 57.297s148.806 22.61 208.03 21.4m-23.17 69.035s60.166-2.826 89.08-7.626m-33.36 104.28s51.132-13.81 81.286-33.14m-5.9 133.242s39.333-15.188 58.343-56.61m37.693 93.545s30.48-27.27 32.445-57.647m81.614 81.466s-11.413-9.845-3.605-52.64m-11.145-62.825s-5.9-12.252-3.93-31.583m-211.083-581.293s68.83 27.615 91.775 65.585c22.945 37.97 7.834 74.872 0 96.046-3.935 10.64-52.442 104.16 4.59 171.816m-95.38 73.526s.33-.345 24.583-7.94m-169.784-91.473s41.027 8.26 81.287 8.63m-137.99-109.77s48.183 4.833 93.414 4.142m-165.194-109.77s69.486 13.808 106.852 14.5m-164.54-132.553s85.7 24.46 149.463 33.14m141.597 50.396s-61.62 57.3 12.455 110.46c0 0-30.81 48.325 30.81 98.722m-16.386 23.82s-9.177 92.154 103.574 92.16c0 0-21.633 82.157 87.186 79.396 0 0 12.455 65.585 91.12 52.468m-173.327 721.44s-17.84 3.97-56.54 0m-108.82 48.324s-54.41-8.286-51.788 109.768m84.566-82.845s-49.165-6.213-45.887 108.388m520.655-384.534s-23.6 4.833-39.988 23.473c-16.39 18.64-47.854 15.187-47.854 15.187s17.045-13.807 22.945-48.326c5.9-34.52 24.91-44.875 24.91-44.875m-56.3-32.688s-23.598 4.833-39.986 23.473c-16.39 18.64-47.854 15.186-47.854 15.186s17.044-13.807 22.944-48.326c5.9-34.52 24.91-44.873 24.91-44.873m23.76 188.537s-20.605 4.22-34.914 20.495c-14.31 16.272-41.783 13.26-41.783 13.26s14.882-12.058 20.033-42.197c5.15-30.14 21.75-39.18 21.75-39.18" fill="none"/></g><use transform="matrix(-1 0 0 1 647.195 0)" xlink:href="#a" width="100%" height="100%" stroke="#010002" stroke-width="10"/><path fill="#0081c6" stroke="#010002" stroke-width="1.505" stroke-miterlimit="10" d="M466.05 255.93l-14.32 61.814-5.908-4.244 13.94-59.222-9.72.178 23.07-42.248 1.54 48.71zm36.97 13.05l-42.98 50.783-4.653-5.21 42.816-50.14-8.66-4.65 39.204-25.895-20.357 43.77z"/><path fill="#0081c6" stroke="#010002" stroke-width="1.505" stroke-miterlimit="10" d="M492.61 242.045l-38.466 73.965-5.928-3.46 38.726-73.813-9.432-2.477 32.668-34.52-10.486 47.47z"/><path d="M444.625 338.57l-2.88 11.78 7.887 7.86-11.15 47.092-9.915-13.32-14.694 6.858 11.15-47.093 10.336-2.88 2.68-11.76s3.126-1.225 6.582 1.464z" fill="#0081c6" stroke="#010002" stroke-width="1.506" stroke-miterlimit="10"/><path d="M447.266 330.802l-5.678 10.594 5.688 9.74-22.342 42.45-6.306-15.57-15.878 2.62 22.343-42.45 10.692.035 5.483-10.624s3.988-.008 5.998 3.21z" fill="#0081c6" stroke="#010002" stroke-width="1.506" stroke-miterlimit="10"/><path d="M448.225 333.883L433.12 353.07l3.463 10.84-30.837 36.068-2.818-16.664-16.03-1.21 30.837-36.068 10.41 2.566 16.02-20.37s4.298 2.134 4.06 5.65zm-382.7-44.985c3.6-1.47 6.192-2.888 6.18-6.73 0-.916-.51-2.943-1.532-6.08l-24.177-73.89c-1.432-4.39-2.514-7-3.017-7.962-1.09-2.08-3.22-2.928-6.097-4.125h30.73c-3.34 1.58-6.383 2.83-6.354 6.37.01 1.35.39 3.26 1.175 5.72l18.52 57.983L99.46 202.2c.785-2.46 1.19-4.366 1.177-5.718-.036-3.638-3.205-4.95-6.32-6.37H124.1c-2.724 1.092-4.943 1.947-6.083 4.126-.503.96-1.585 3.57-3.016 7.96L90.828 276.09c-1.023 3.137-1.393 5.198-1.534 6.152 0 0-1.11 4.673 6.184 6.658h-29.95zm515.23-7.598v-83.663c0-1.447-.238-2.556-.715-3.33-.477-.77-2.554-2.994-5.518-4.196h27.69c-2.964.985-5.04 3.37-5.518 4.165-.477.796-.715 1.918-.715 3.366v83.66c0 1.497.244 2.643.74 3.44.49.795 2.53 2.738 5.49 4.16h-27.69c2.965-1.35 5.04-3.425 5.52-4.197.476-.77.714-1.905.714-3.4z" fill="#0081c6" stroke="#010002" stroke-width="1.506" stroke-miterlimit="10"/><path d="M324.823 309.767s74.102-32.838 74.287-108.803H250.536c.185 75.965 74.287 108.803 74.287 108.803z" fill="#fff" stroke="#010002" stroke-width="1.506"/><path d="M261.96 200.96v48.537s5.675 11.257 11.428 18.317V200.96H261.96zm22.857 0v80.01s7.147 7.008 11.428 10.386V200.96h-11.428zm22.857 0v98.9s8.154 5.265 11.43 6.993V200.96h-11.43zm80 0v48.537s-5.676 11.257-11.43 18.317V200.96h11.43zm-22.857 0v80.01s-7.147 7.008-11.43 10.386V200.96h11.43zm-22.857 0v98.9s-8.154 5.265-11.43 6.993V200.96h11.43z" fill="#a60032" stroke="#010002" stroke-width="1.505"/><path d="M399.11 145.773s-36.36 19.02-74.287-1.56c-37.926 20.58-74.287 1.56-74.287 1.56v55.19H399.11v-55.19z" stroke-miterlimit="10" fill="#162667" stroke="#010002" stroke-width="1.506"/></svg>