<svg xmlns="http://www.w3.org/2000/svg" viewBox="0 0 640 480"><g fill-rule="evenodd" stroke-width="1pt"><path fill="red" d="M0 0h640v480H0z"/><path fill="#00006b" d="M0 0h314.407v157.21H0z"/><path d="M162.77 144.4l-12.468-8.415-11.95 8.555 3.795-15.007-11.47-9.25 14.816-.858 4.862-14.274 5.357 14.48 14.477.427-11.507 9.81zm-2.136-99.826l-9.975-6.41-9.798 6.362 2.72-11.953-8.78-7.817 11.66-.977 4.356-11.195 4.49 11.35 11.48.9-8.89 7.99zM116.55 80.496l-9.707-6.66-9.922 6.658 3.09-11.673-9.145-7.765 11.607-.554 4.274-11.46 4.09 11.33 11.782.687-9.08 7.556zm88.384-8.026l-9.315-6.01-9.067 6.083 2.608-11.083-8.35-7.096 10.927-.84 3.898-10.47 4.143 10.565 10.763.622-8.36 7.37zm-26.052 26.247l-6.21-3.868-6.188 3.904 1.613-7.347-5.482-4.925 7.208-.673 2.804-6.95 2.84 6.93 7.214.63-5.45 4.955z" fill="#fff"/></g></svg>