<svg xmlns="http://www.w3.org/2000/svg" viewBox="0 0 640 480" version="1"><defs><clipPath id="a"><path fill-opacity=".67" d="M-71.873-.012h682.68v512.01h-682.68z"/></clipPath></defs><g clip-path="url(#a)" transform="translate(67.38 .01) scale(.93748)"><g fill-rule="evenodd" stroke-width="1pt"><path d="M-71.878 407.837v-303.41l225.832 151.628-225.832 151.793z"/><path d="M82.217 512.12l253.538-170.643h360.372V512.12H82.217z" fill="#00c"/><path d="M65.917.062l630.19.013v170.672H335.735S69.295-1.626 65.917.062z" fill="red"/><path d="M-71.878 64.075v40.33L153.954 256.03-71.878 407.823v40.327l284.44-192.12-284.44-191.955z" fill="#fc0"/><path d="M-71.878 64.075V.062h94.89l301.314 203.88h371.778v104.26H324.326L23.013 512.053h-94.89V448.15l284.44-192.12-284.44-191.955z" fill="#093"/><path d="M23.013.062h59.194l253.538 170.673h360.372v33.207H324.34L23.024.062zm0 512.06h59.194l253.538-170.645h360.372V308.27H324.34L23.024 512.12z" fill="#fff"/></g></g></svg>