<svg xmlns="http://www.w3.org/2000/svg" viewBox="0 0 640 480"><defs><clipPath id="a"><path fill-opacity=".67" d="M-170.67 0H512v512h-682.67z"/></clipPath></defs><g fill-rule="evenodd" clip-path="url(#a)" transform="translate(160) scale(.9375)"><path fill="#198a00" d="M-256 0h768v512h-768z"/><path fill="#ef7d00" d="M421.87 183.94h90.126v328.03H421.87z"/><path d="M331.85 183.78h90.03v328.1h-90.03z"/><path fill="#de2010" d="M239.95 183.98h91.935V512H239.95z"/><g stroke="#000" fill="#ef7d00"><path stroke-linejoin="round" d="M451.61 65.59s33.917-14.494 37.204-17.482c1.494 1.793-13.597 20.02-42.88 26.745 26.594-6.276 49.305-25.998 53.936-25.4 1.345.3 1.046 19.274-59.914 35.71 42.134-11.058 66.637-31.377 66.34-29.136.297.448-4.185 15.986-41.09 28.09 10.31-2.392 38.25-19.424 37.95-16.137.898 1.345-27.042 37.203-77.54 25.55 40.34 10.458 66.488-14.793 70.223-14.344.744.15-7.47 22.113-58.27 23.457 24.352-2.54 17.33-.15 17.33-.15s-14.345 11.206-31.677 3.587c13.597 3.736 15.09 3.885 15.39 5.08-.897 1.493-12.103 3.735-22.86-2.092 8.665 3.585 16.435 4.184 16.584 5.528-.15.448-5.678 3.586-10.608 1.345-4.93-2.24-50.353-30.18-50.353-30.18l77.392-21.215 2.84 1.046zm-90.988 75.58c-6.806 0-6.994 6.055-6.994 6.055s-.56.437-.187 3.373c1.127-2 1.69-2.624 1.69-2.624.75.126 3.87 1.062 8.803-2.81-4.495 4.683-1.81 6.432-1.81 6.432s-1.06 3.684 2.373 4.434c-1.06-1.5-.437-2.81-.437-2.81s4.807-.5 4.495-6.37c.187 5.308 3.06 6.62 3.06 6.62s0 2.934 3.12 3.184c-1.684-1.5-1.31-3.81-1.31-3.81s4.06-2.934.624-7.93c2.06-1.186 3.746-4.495 3.746-4.495s-2.81-1.19-4.12-2.188c-.626-1.312-.063-8.492-.063-8.492l-1.686-9.303-4.81 14.487c.188-2.06.314 6.244-6.492 6.244z" stroke-width=".993"/><path stroke-linejoin="round" d="M394.237 120.27c.15.15 5.08 5.68 9.86 5.38 1.793-1.494-3.735-4.78-3.735-5.528 1.943 1.793 10.16 8.815 15.39 6.275 2.09-2.988-3.735-2.54-10.16-10.608 4.482 2.985 15.688 9.56 20.917 7.02 2.24-2.39-11.657-9.86-16.29-15.69L398.27 101l-16.285 13.297 12.252 5.976z" stroke-width=".993"/><path stroke-linejoin="round" d="M375.857 74.853s5.528-3.287 27.64-1.644c2.39.296 15.09-4.336 19.126-5.68 6.424-1.196 26.893-5.678 32.422-9.86 3.885-.45-1.047 7.17-5.976 8.963-5.23 2.39-24.208 8.965-30.93 8.07 8.07.15 3.584 6.722-9.86 3.585 6.422 3.585 4.03 4.182 4.03 4.182s-11.354.598-14.342-1.942c7.62 2.84 4.48 3.886 4.48 3.886s-7.77.747-11.354-.897c5.528 1.642 2.69 2.69 2.69 2.69s-4.483.745-8.218-.6c-3.736-1.345-9.414-10.757-9.713-10.757z" stroke-linecap="round" stroke-width=".993"/><path stroke-linejoin="round" d="M384.723 123.37l.812 14.612s-.437.75-.812 1.186c-.375.437-10.365-1.56-8.992 6.057 0 3.122.066 3.933 2.19 5.682-.563-2.06-.375-3.497-.375-3.497s2.81 1.686 5.557-2.934c-1.872 4.558-.562 6.18-.125 6.306.438.812-.748 4.496 2.998 4.433-1.436-1.374-.75-3.372-.75-3.372s3.935-.623 2.56-7.742c1.437-1.433 2-.06 2-.06s.436 4.246 3.87 3.37c1.562.876-.25 3.187-.25 3.187s2.498.062 3.247-2.06c.75-2.124 1.623-5.933-2.5-7.494-.498-1.497 1.625-1.622 1.625-1.622s2.623.875 3.372 2.186c.75 1.31.5-3.434-2.748-3.934-3.997-.125-4.246-.936-4.246-1.123 0-.19-.687-10.616-1-13.613l-6.43.436z" stroke-width=".993"/><path stroke-linejoin="round" d="M398.625 135.82c.05-.67-6.817-9.915-5.075-11.11 1.74.358 4.597 4.563 6.91 3.198-.7-1.64-2.768-.716-5.115-4.912-2.346-4.743-2.688-11.864-10.906-19.632 5.32 8.22 17.386 13.038 17.9 10.642s-10.63-11.46-10.06-13.645c2.216 4.49 13.4 14.484 21.64 13.656.565-1.924-6.748-5.808-8.63-9.434-5.263-3.535-19.35-15.68-19.63-18.493-5.127-7.476-8.327-9.738-9.817-10.6-.576-.678-.72-1.326-.833-1.74-3.18-7.5 1.035-9.937 3.5-10.297 2.03-.225 2.62.08 4.08-.63-1.73-.675-3.46-1.308-5.186-1.985 2.255 1.654 8.015.198 6.766 4.963 2.525-.96 7.9-7.353-6.09-8.796-4.554-5.222-23.272-8.224-27.958 14.57.374.32.57.584 1.76 1.473-5.915-2.86-21.858-5.068-27.602-5.997-15.526-4.48-31.648-15.273-33.198-13.946-2.073.92 9.38 11.576 8.784 11.81-9.93-5.79-19.002-9.89-27.442-13.624-5.94-2.22-11.886-7.387-12.542-6.404-2.186 4.527 9.52 15.908 11.698 17.246 2.177 1.28 19.303 9.225 19.05 9.324-25.793-11.708-30.118-13.83-31.412-15.18-2.274-.513-7.812-7.99-9.355-7.51-.845.83.85 12.646 13.158 17.95 2.01 1.462 26.387 10.207 26.148 10.893-.06.17-27.92-11.5-29.004-11.92-5.37-2.106-11.962-9.49-13.195-8.66-1.177.755 3.04 8.747 8.466 11.253 2.845 1.256 13.758 6.66 23.59 10.1.628.228-17.673-6.94-26.472-10.616-3.99-2.214-5.868-4.974-6.476-4.38-.9.593 1.452 12.4 29.728 19.06.745.317 9.953-2.182 9.498-1.85-.114.083-9.144 2.05-10.023 1.98-.782-.12-5.73.587-5.82.843-.3.8 1.794 5.027 16.393 4.146 1.867-.113 11.995-3.69 11.144-2.92-.425.385-13.792 4.73-14.81 4.814-.884.125-5.58.616-5.754 1.116-.212.68 3.476 3.69 11.316 4.17 6.94.37 20.132-4.24 19.867-3.94-.264.298-12.715 4.564-13.042 4.824-.45.255-5.01.502-5.17.853-.37.87 6.577 7.368 27.128.433-2.065 2.79-12.026 4.696-12.01 5.198-.048.365 2.193 2.53 5.676 3.305 1.74.385 4.124.306 6.302-.038 3.91-.784 8.035-2.33 13.27-7.17.628 1.518-13.08 8.455-12.44 9.117 2.976 2.755 12.85-.357 13.497-.718.646-.362 19.014-10.72 18.95-11.918.286 1.536-23.68 14.558-23.42 15.093 1.537 2.454 9.724-.13 10.115-.355.39-.225 10.448-5.658 10.724-5.82.274-.16-11.82 7.08-10.744 8.182-.52 4.7 18.89-3.244 20.41-4.234.762-.493-9.324 4.436-9.35 6.777 3.247 5.49 13.646 3.75 15.25 2.542.802-.607-.944 4.08-.38 3.65.194-.09 2.26-2.53 3.055-4.3-.254 1.535-1.394 3.95-2.06 6.725-.665 2.773-.856 5.902-1.77 9.226-.21 1.46 6.408-2.853 5.447-13.17.566 5.367-2.09 15.4-1.395 15.92 1.39 1.044 5.235-4.996 5.623-9.08 1.142 2.063 3.537 6.37 5.598 7.36-.224-3.12.04-2.98-.89-6.045.537-4.072.61-9.708.74-16.072 5.6 10.727 7.835 15.256 6.27 23.47 1.665.695 4.325-5.733 4.11-9.04 2.14 9.192 11.368 10.57 11.515 10.303z" stroke-linecap="round" stroke-width="1.059"/><path stroke-linejoin="round" d="M305.356 67.72s-3.81 2.88-8.554 2.71c1.185 4.742 11.01 1.1 11.01 1.1s-4.743 5.252-8.13 6.1c2.032 1.692 10.586 1.1 12.026.253 1.44-.847 3.98-4.15 3.98-4.15S306.88 83.896 305.61 83.81c-.17 1.186 9.232.762 11.18-1.016 1.948-1.78 6.86-4.404 6.86-4.404s-12.873 8.977-13.466 8.977c4.827 1.27 14.483-1.524 20.666-5.336-9.148 6.1-9.994 7.2-14.652 9.235 4.15.93 6.267 3.726 20.327-2.372 8.046-3.81 12.62-10.755 12.62-10.755-4.998 6.69-12.875 12.366-21.598 17.955-.51 1.017 9.316 5.166 21.85-7.877" stroke-linecap="round" stroke-width="1.059"/><path d="M373.45 96.006s.848 3.98 4.236 7.03c3.388 3.05 3.642 6.013 3.642 6.013m-9.568-38.96s1.185 3.556 4.658 5.843c3.557 2.286 8.894 9.485 9.317 10.756.41 1.54 2.455 12.62 2.286 13.805m-37.856-24.9c.254 1.355-4.998 8.215 2.2 16.26-6.52 7.96-6.52 8.978-6.52 8.978s3.64 2.033 10.164-3.557c10.755 13.213 7.17 19.26 7.17 19.26" stroke-linecap="round" stroke-width="1.059"/><path stroke-linejoin="round" d="M362.32 107.21s-.99-1.42.776-6.72c1.59 1.918 3.36 2.327 4.135 3.102.778.776 8.9 1.952 9.415 7.38" stroke-linecap="round" stroke-width="1.059"/><path d="M371.864 57.462c0-.4-1.635-3.908-7.736.478 3.27.2 6.5 2.074 7.736-.478z" stroke-width="1.059"/><path stroke-linejoin="round" d="M430.094 73.508c.3.15 18.23 4.034 24.205 2.092-7.62 10.16-22.86 3.287-22.86 3.287 7.47 2.24 7.77 2.092 10.16 4.183.744 1.943-13.75 1.046-18.53-1.643 13.3 4.183 13.596 3.884 14.045 5.528.598 2.24-21.814-.598-23.756-3.586 5.976 4.63 9.263 5.525 12.55 7.62-4.034 1.79-11.504 3.583-25.25-6.13 18.08 16.436 34.364 15.39 36.904 18.38-6.275 9.263-30.63-5.528-41.835-13-11.207-7.47 24.502 18.08 27.79 17.63-1.644 2.54-13.447.3-14.195-.896" stroke-width="1.059"/><path d="M434.728 90.69c-2.09.3-8.366.3-9.262.15" stroke-linecap="round" stroke-width="1.059"/><path stroke-linejoin="round" d="M300.105 65.01s13.636 7.198 19.395 6.69c-1.524 1.44-3.812 2.032-3.812 2.032 1.44.593 5.42 2.71 11.435 1.356-1.44 1.44-3.303 3.05-3.303 3.05s5.166 1.947 11.01-1.102c-1.778 2.202-2.795 3.81-2.795 3.81l4.065.255" stroke-linecap="round" stroke-width="1.059"/></g></g></svg>