<svg xmlns="http://www.w3.org/2000/svg" viewBox="0 0 640 480"><defs><clipPath id="a"><path fill-opacity=".67" d="M0 0h682.67v512H0z"/></clipPath></defs><g clip-path="url(#a)" transform="scale(.9375)"><path fill-rule="evenodd" fill="#319208" d="M0 438.86h1024v73.143H0z"/><path fill-rule="evenodd" fill="#de2010" d="M0 292.57h1024v73.143H0z"/><path fill-rule="evenodd" fill="#ffd200" d="M0 365.71h1024v73.143H0z"/><path fill-rule="evenodd" fill="#de2010" d="M0 146.29h1024v73.143H0z"/><path fill-rule="evenodd" fill="#ffd200" d="M0 73.143h1024v73.143H0z"/><path fill-rule="evenodd" fill="#319208" d="M0 0h1024v73.143H0z"/><path d="M28.89 0v512l343.77-256L28.89 0z" fill-rule="evenodd"/><path fill-rule="evenodd" d="M0 0h29.257v512H0z"/><path d="M0 0v512l373.03-256L0 0z" fill-rule="evenodd"/><path fill-rule="evenodd" d="M0 219.43h1024v73.143H0z"/><path d="M0 0v512l343.77-256L0 0z" fill-rule="evenodd" fill="#fff"/><path fill="#d62419" fill-rule="evenodd" d="M131.957 114.662l27.27 90.366 97.406.854-77.523 53.863 29.296 92.886-75.178-57.08-79.296 56.567 31.054-89.142-78.31-57.93 94.388 1.984z"/><path d="M50.042 166.226c1.657-2.985 1.988-4.643 10.612-8.292 11.275-32.832 40.13-19.898 56.048 25.537 14.592 6.302 101.814 71.304 100.488 74.952-.663 3.317-11.608.664-11.608.664s-17.245 73.625-17.576 73.625c-32.17-4.31-82.25-4.974-116.41-4.31.33-5.64-9.287-42.45-9.287-42.45s-8.293-2.654 5.637-30.844c14.924-35.485 17.91-93.192-17.908-88.88z" fill-rule="evenodd" stroke="#000" stroke-width="1.468" fill="#f7df00"/><path d="M79.55 152.953a3.648 3.648 0 1 1-7.297 0 3.648 3.648 0 0 1 7.296 0zm36.154 30.52s-28.522 16.25-36.813 15.917m126.69 59.694c-1.99-1.66-105.79-6.633-101.484-41.788m16.583 42.45s11.274 6.632 20.89-10.614m-8.29 10.282s7.96 7.296 19.568-8.622M62.644 285.95s7.295.995 8.623-3.317m25.86 46.097c0-.33-7.297-47.094-7.297-47.094 36.04 3.206 73.404 3.428 108.113 9.62" stroke="#000" stroke-width="1.468" fill="none"/><path d="M93.483 282.296l9.948 11.607 10.283-9.95 8.622 9.287m2.658.337l8.622-7.628 9.287 8.953m1.65-.005l9.617-8.622 7.295 8.623m3.986.338l8.624-5.97 7.627 7.297m5.972-.335l6.3-5.97" stroke="#000" stroke-width="1.468" fill="none"/><path d="M91.82 292.906l10.614 12.272 10.612-9.62 9.286 9.95 10.613-9.285 8.955 10.612 10.944-9.286s8.29 10.28 9.286 10.28 10.944-8.622 10.944-8.622l9.618 10.612 13.265-10.612m-102.474 5.64s85.564 3.316 99.492 6.633m-85.23-45.43s81.253 4.312 94.188 9.286" stroke="#000" stroke-width="1.468" fill="none"/><path d="M91.16 232.218c.664 4.975-5.306 22.22-11.606 28.19-8.624 6.965-7.63 21.557-7.63 21.557.996 5.97 13.93 5.306 15.59 2.322 1.325-13.598 15.917-16.583 15.917-16.583s20.232-5.637 28.855-22.55m-.335 30.176a4.31 4.31 0 1 1-8.624 0 4.31 4.31 0 0 1 8.623 0zm19.237 1.66a4.31 4.31 0 1 1-8.622 0 4.31 4.31 0 0 1 8.622 0z" stroke="#000" stroke-width="1.468" fill="none"/></g></svg>