<svg xmlns="http://www.w3.org/2000/svg" viewBox="0 0 64 64">
  <path fill="#e8e8e8" d="M0 64 0 0 64 0 64 64 0 64"></path>
  <path fill="#bfbfbf" fill-rule="evenodd" clip-rule="evenodd" d="M27.5662 19C27.2149 19 26.8894 19.1843 26.7087 19.4855L24 24H17C15.8954 24 15 24.8954 15 26V43C15 44.1046 15.8954 45 17 45H47C48.1046 45 49 44.1046 49 43V26C49 24.8954 48.1046 24 47 24H40L37.2913 19.4855C37.1106 19.1843 36.7851 19 36.4338 19H27.5662ZM32 40.75C36.0041 40.75 39.25 37.5041 39.25 33.5C39.25 29.4959 36.0041 26.25 32 26.25C27.9959 26.25 24.75 29.4959 24.75 33.5C24.75 37.5041 27.9959 40.75 32 40.75ZM36.625 33.5C36.625 36.0543 34.5543 38.125 32 38.125C29.4457 38.125 27.375 36.0543 27.375 33.5C27.375 30.9457 29.4457 28.875 32 28.875C34.5543 28.875 36.625 30.9457 36.625 33.5Z" />
</svg>
